<svg xmlns="http://www.w3.org/2000/svg" xmlns:xlink="http://www.w3.org/1999/xlink" width="1280" height="800" viewBox="0 0 1280 800">
  <defs>
    <clipPath id="clip-_2019-09-25-mental-health-training01">
      <rect width="1280" height="800"/>
    </clipPath>
  </defs>
  <g id="_2019-09-25-mental-health-training01" data-name="2019-09-25-mental-health-training01" clip-path="url(#clip-_2019-09-25-mental-health-training01)">
    <rect width="1280" height="800" fill="#fff9e1"/>
    <g id="Group_419" data-name="Group 419" transform="translate(0 -13)">
      <g id="bg" transform="translate(0)">
        <rect id="bg-2" data-name="bg" width="1280" height="800" transform="translate(0)" fill="#fff6cf"/>
      </g>
      <g id="girl" transform="translate(82.44)">
        <path id="Path_231" data-name="Path 231" d="M373.848,300.515C368.63,353.83,300.171,321,236.032,313.782c-96.952-10.912-178.328,9.56-187.5-44.819-9.827-58.229,97.219-18.013,194.312-8.509S377.59,262.286,373.848,300.515Z" transform="translate(-2.608 396.792)" fill="#c1c1c1"/>
        <g id="Group_418" data-name="Group 418">
          <g id="Group_385" data-name="Group 385" transform="translate(102.979)">
            <path id="Path_232" data-name="Path 232" d="M313.623,83.941c-161.5,1.752-115.576,109.795-213.587,132.117,0,0-.189,88.733-8.568,147.976L69.532,381.883a129.454,129.454,0,0,0,19.2,13.461c-2.2,92.1,54.413,116.7,54.413,116.7,17.44-1.1,49.323-30.565,88.419-75.8,3.675,2.315,7.469,4.771,11.413,7.405,69.245,46.245,98.68-13.227,165.667,50.539,65.043,61.915,146.363-4.632,208,66.813,60.835,70.515,546.282,40.277,564.949,24.883L1228.943,0H415.449C386.721,32.979,380.295,83.219,313.623,83.941Z" transform="translate(-69.532)" fill="#002869"/>
          </g>
          <g id="Group_390" data-name="Group 390" transform="translate(269.54 644.017)">
            <g id="Group_387" data-name="Group 387" transform="translate(2.773)">
              <g id="Group_386" data-name="Group 386">
                <path id="Path_233" data-name="Path 233" d="M161.245,252.455c7.136,18.872,23.941,25.061,39.837,31.3,5.829,2.288,38.059,32.491-9.573,23.016-8.357-1.661-36.76-8.275-49.9-14.344-13.328-6.157-6.251-26.157-8.576-33.923C133.032,258.5,150.749,224.684,161.245,252.455Z" transform="translate(-133.032 -241.506)" fill="#fdb98d"/>
              </g>
            </g>
            <g id="Group_389" data-name="Group 389" transform="translate(0 26.85)">
              <g id="Group_388" data-name="Group 388">
                <path id="Path_234" data-name="Path 234" d="M202.816,266.972c19.136,7.739,34.376,17.536,29.507,29.013-5.475,12.912-34.936,9.427-45.6,4.579-5.763-2.621-16.123-8.712-23.824-11.675-9.248-3.56-16.739-8.075-23.013-10.808-8.707-3.792-10.069-16.384-4.771-26.507.629,3.736,3.795,9.664,7.691,11.96,16.365,9.643,36.547,20.109,46.469,21.344s15.653-.24,17.707-5.1C210.136,272.314,206.664,269.951,202.816,266.972Z" transform="translate(-131.992 -251.575)" fill="#002869"/>
              </g>
            </g>
          </g>
          <g id="Group_395" data-name="Group 395" transform="translate(306.342 606.096)">
            <g id="Group_392" data-name="Group 392" transform="translate(3.303)">
              <g id="Group_391" data-name="Group 391">
                <path id="Path_235" data-name="Path 235" d="M176.992,239.043c5.645,19.368,21.923,26.843,37.285,34.3,5.635,2.733,35.421,35.349-11.333,22.205-8.2-2.307-36.005-11.107-48.635-18.176-12.811-7.173-4.443-26.621-6.157-34.544C148.152,242.825,168.683,210.539,176.992,239.043Z" transform="translate(-147.032 -227.286)" fill="#fdb98d"/>
              </g>
            </g>
            <g id="Group_394" data-name="Group 394" transform="translate(0 25.432)">
              <g id="Group_393" data-name="Group 393">
                <path id="Path_236" data-name="Path 236" d="M216.342,257.444c18.312,8.568,32.912,20.152,27.165,31.219-6.461,12.448-35.563,6.685-45.819,1.024-5.544-3.061-15.4-9.939-22.845-13.491-8.947-4.267-16.064-9.352-22.107-12.563-8.387-4.456-8.957-17.133-2.891-26.811.339,3.773,3.227,9.944,6.931,12.536,15.568,10.883,34.875,22.885,44.672,24.888s15.624.973,18.048-3.709C223.225,263.34,219.947,260.714,216.342,257.444Z" transform="translate(-145.793 -236.823)" fill="#002869"/>
              </g>
            </g>
          </g>
          <g id="Group_396" data-name="Group 396" transform="translate(174.464 233.647)">
            <path id="Path_237" data-name="Path 237" d="M96.339,214.592c8.331,84.336,113.739,87.715,119.379-24.453,1.133-22.563,23.629-78.707-46.165-101.96C138.424,77.808,96.339,214.592,96.339,214.592Z" transform="translate(-96.339 -87.618)" fill="#002869"/>
          </g>
          <g id="Group_397" data-name="Group 397" transform="translate(0 291.74)">
            <path id="Path_238" data-name="Path 238" d="M261.526,250.99c-19.4,110.643-32.64,237.411-113.144,237.541s-90.2-105.845-100.512-100.9c-12.424,5.96-17.731-22.344-16.864-51.52.064-2.117.128-4.328.256-6.541C36.328,242.526,93.043,90.716,191.6,111.3,270.374,127.748,280.5,142.785,261.526,250.99Z" transform="translate(-30.915 -109.403)" fill="#a9d3e0"/>
          </g>
          <g id="Group_398" data-name="Group 398" transform="translate(56.958 357.946)">
            <path id="Path_239" data-name="Path 239" d="M52.274,331.766S184.879,290.91,229.469,149.54c17.979-56.992,48.333,56.219,40.515,157.28-3.456,44.669-14.547,83.064-35.536,113.467C198.325,472.6,56.749,491.7,52.274,331.766Z" transform="translate(-52.274 -134.23)" fill="#002869"/>
          </g>
          <g id="Group_399" data-name="Group 399" transform="translate(217.405 352.815)">
            <path id="Path_240" data-name="Path 240" d="M200.6,409.1S41.671,129.413,150.591,132.328c79.648,2.131,87.061,267.7,87.061,267.7C238.661,408.093,203.122,413.008,200.6,409.1Z" transform="translate(-112.442 -132.305)" fill="#002869"/>
          </g>
          <g id="Group_400" data-name="Group 400" transform="translate(16.488 389.032)">
            <path id="Path_241" data-name="Path 241" d="M37.573,326.826s109.792-39.571,154.384-180.939c0,0,56.32,1.093,56.411,125.709.008,11.392-6.328,99.056-51.995,151.229C152.794,472.618,28.471,455.263,37.573,326.826Z" transform="translate(-37.098 -145.887)" fill="#016099"/>
          </g>
          <g id="Group_401" data-name="Group 401" transform="translate(170.422 561.008)">
            <path id="Path_242" data-name="Path 242" d="M167.983,241.122c5.365-1,14.512-3.392,15.211-5.827,1.136-3.944-18.139,1.669-26.021-.221-5.789-1.387-14.208-6.5-14.44-8.392.859-5.752,18.707-5.576,21.893-9.512,1.92-2.371-3.387-4.008-13.907-1.909-9.544,1.9-13.5-1.077-21.981-.784-3.181.112-9.387.6-15.728.845-5.072.192-13.491-4.944-13.491-4.944l-4.7,23.768c3.837,3.152,39.453,26.181,55.131,26.976,17.616.9,29.525-4.616,31.573-7.312,1.021-1.347-4.437-1.92-7.253-1.651,5.565-1.539,11.376-3.051,12.541-4.733,1.509-2.179-9.029-1.477-17.3-.027,7.755-1.877,17.7-4.075,19.032-6.325C190.89,237.111,175.882,239.983,167.983,241.122Z" transform="translate(-94.823 -210.378)" fill="#fdb98d"/>
          </g>
          <g id="Group_402" data-name="Group 402" transform="translate(164.46 361.62)">
            <path id="Path_243" data-name="Path 243" d="M195.778,437.369S15.986,160.006,131.042,136.553c99.3-20.237,102.541,291.139,102.541,291.139C235.474,438.9,201.122,441.761,195.778,437.369Z" transform="translate(-92.587 -135.607)" fill="#016099"/>
          </g>
          <g id="Group_403" data-name="Group 403" transform="translate(10.737 306.595)">
            <path id="Path_244" data-name="Path 244" d="M197.911,405.114c-51.584-20.093-96.576-31.272-133.888-69.747-13.693-14.117-25.851-36.6-28.419-65.6-.171-1.507-.275-3.048-.376-4.587C31.119,197.8,70.991,119.034,166.618,114.973l7.227,71.605c15.645,30.677-30.848,64.1-16.093,81.864,29.379,35.4,30.1,95.859,52.173,104.52C216.18,375.416,205.719,408.154,197.911,405.114Z" transform="translate(-34.941 -114.973)" fill="#a9d3e0"/>
          </g>
          <g id="Group_410" data-name="Group 410" transform="translate(45.484 215.997)">
            <g id="Group_404" data-name="Group 404" transform="translate(97.147 81.613)">
              <path id="Path_245" data-name="Path 245" d="M139.643,111.6,87.984,141.751c-13.051,13.357,12.592,53.528,28.251,39.411l20.259-20.872Z" transform="translate(-84.402 -111.604)" fill="#ed715d"/>
            </g>
            <g id="Group_409" data-name="Group 409">
              <g id="Group_405" data-name="Group 405" transform="translate(124.496 58.648)">
                <path id="Path_246" data-name="Path 246" d="M164.894,183.643a83.63,83.63,0,0,1-9.544,6.037,47.2,47.2,0,0,1-14.488,4.413c-13.467,1.781-34.224,1.389-40.965-9.941-11.912-20.019-3.835-59.237,27.565-72.667,27.4-11.723,79.312-12.224,68.52,4.272-16.747,25.6.115,34.2-9.563,51.211-2.027,3.563-4.917,7.427-13.869,12.3C169.675,180.835,167.136,182.152,164.894,183.643Z" transform="translate(-94.657 -102.992)" fill="#fdb98d"/>
              </g>
              <g id="Group_406" data-name="Group 406" transform="translate(136.608 81.418)">
                <path id="Path_247" data-name="Path 247" d="M119.2,135.849a13.129,13.129,0,1,1,4.315-18.059A13.126,13.126,0,0,1,119.2,135.849Z" transform="translate(-99.2 -111.531)" fill="#ed715d"/>
              </g>
              <g id="Group_407" data-name="Group 407" transform="translate(169.945 132.212)">
                <path id="Path_248" data-name="Path 248" d="M126.943,143.7a49.172,49.172,0,0,1-14.488,4.413,13.133,13.133,0,0,1,23.563-11.277c.171.28.32.552.469.827A83.63,83.63,0,0,1,126.943,143.7Z" transform="translate(-111.701 -130.578)" fill="#ed715d"/>
              </g>
              <g id="Group_408" data-name="Group 408">
                <path id="Path_249" data-name="Path 249" d="M294.629,139.111s-23.373-72.4-96.088-42.125C170.735,108.562,135.967,81,135.967,81c-78.235,8.533-95.805,81.909-85.181,131.224,0,0,34.848-34.552,64.72-8.965,27.184,23.285,59.968,27.424,60.227-6.739.256-33.9,19.555-43.776,40.939-46.352,14.829-1.787,15.176,24.005,36.557,28.819C283.319,185.759,294.629,139.111,294.629,139.111Z" transform="translate(-47.972 -80.999)" fill="#002869"/>
              </g>
            </g>
          </g>
          <g id="Group_411" data-name="Group 411" transform="translate(248.539 350.781)">
            <path id="Path_250" data-name="Path 250" d="M197.039,237.693a1.317,1.317,0,0,1-1.3-1.123c-6.869-46.835-22.957-81.856-44.136-96.083-8.453-5.677-17.392-7.579-25.859-5.488a1.313,1.313,0,0,1-.629-2.549c9.2-2.277,18.869-.245,27.952,5.856,21.795,14.643,38.293,50.317,45.272,97.883a1.315,1.315,0,0,1-1.109,1.491A1.544,1.544,0,0,1,197.039,237.693Z" transform="translate(-124.117 -131.543)" fill="#016099"/>
          </g>
          <g id="Group_412" data-name="Group 412" transform="translate(165.442 424.447)">
            <path id="Path_251" data-name="Path 251" d="M134.964,291.889a1.314,1.314,0,0,1-1.163-.7c-21-39.821-35.883-87.408-40.837-130.56a1.312,1.312,0,1,1,2.608-.3c4.92,42.837,19.7,90.085,40.552,129.629a1.316,1.316,0,0,1-.549,1.776A1.334,1.334,0,0,1,134.964,291.889Z" transform="translate(-92.956 -159.167)" fill="#002869"/>
          </g>
          <g id="Group_413" data-name="Group 413" transform="translate(192.348 338.326)">
            <path id="Path_252" data-name="Path 252" d="M112.236,142.016A.844.844,0,0,1,112.1,142a.657.657,0,0,1-.5-.781c2.139-9.819-7.667-12.933-8.085-13.061a.658.658,0,0,1,.381-1.259c.115.035,11.387,3.587,8.987,14.6A.655.655,0,0,1,112.236,142.016Z" transform="translate(-103.046 -126.872)" fill="#ed715d"/>
          </g>
          <g id="Group_414" data-name="Group 414" transform="translate(206.682 329.245)">
            <path id="Path_253" data-name="Path 253" d="M114.672,138.643a4.476,4.476,0,0,1-1-.115c-2.8-.635-5.056-3.8-5.253-7.365a.657.657,0,0,1,.619-.693.641.641,0,0,1,.693.621c.189,3.419,2.323,5.723,4.232,6.157,1.515.349,2.869-.429,3.824-2.171,4.843-8.827,9.819-11.432,10.029-11.539a.655.655,0,0,1,.595,1.168c-.045.027-4.845,2.568-9.472,11A4.945,4.945,0,0,1,114.672,138.643Z" transform="translate(-108.421 -123.467)" fill="#ed715d"/>
          </g>
          <g id="Group_415" data-name="Group 415" transform="translate(212.724 303.424)">
            <path id="Path_254" data-name="Path 254" d="M119.331,132.275a.683.683,0,0,1-.285-.064c-10.765-5.2-8.067-17.789-8.037-17.917a.66.66,0,0,1,.784-.493.652.652,0,0,1,.5.781c-.1.477-2.488,11.7,7.328,16.445a.656.656,0,0,1-.285,1.248Z" transform="translate(-110.686 -113.784)" fill="#002869"/>
          </g>
          <g id="Group_416" data-name="Group 416" transform="translate(231.5 335.51)">
            <path id="Path_255" data-name="Path 255" d="M128.142,139.794a.71.71,0,0,1-.243-.045c-11.125-4.437-10.157-13.267-10.147-13.355a.644.644,0,0,1,.731-.571.658.658,0,0,1,.573.731c-.04.323-.821,7.928,9.331,11.973a.657.657,0,0,1-.245,1.267Z" transform="translate(-117.727 -125.816)" fill="#002869"/>
          </g>
          <g id="Group_417" data-name="Group 417" transform="translate(10.783 462.724)">
            <path id="Path_256" data-name="Path 256" d="M79.778,253.483a1.318,1.318,0,0,1-.792-.267C45.133,227.528,35.08,175.6,34.981,175.075a1.312,1.312,0,1,1,2.579-.483c.1.512,9.979,51.464,43.013,76.531a1.313,1.313,0,0,1-.795,2.36Z" transform="translate(-34.959 -173.522)" fill="#016099"/>
          </g>
        </g>
      </g>
    </g>
    <rect id="Rectangle_44" data-name="Rectangle 44" width="1280" height="74" transform="translate(0 726)" fill="#016099"/>
    <g id="Group_52" data-name="Group 52" transform="translate(961.462 746)">
      <g id="nav__logo__e_1_">
        <path id="Path_137" data-name="Path 137" d="M23.4,35.564h9.954a1.93,1.93,0,0,0,1.935-1.843V26.9A36.608,36.608,0,0,1,23.4,35.564Z" transform="translate(-1.833 -2.107)" fill="#fff"/>
        <path id="Path_138" data-name="Path 138" d="M19.731,10.977C19.639,9.226,18.348,8.12,15.583,8.4,10.146,8.765,6,14.94,4.8,21.3,16.6,20.378,19.823,13.189,19.731,10.977Z" transform="translate(-0.376 -0.654)" fill="#fff"/>
        <path id="Path_139" data-name="Path 139" d="M18.341,3.963c5.622-.369,8.2,1.843,8.387,4.608.461,6.083-9.493,13.272-22.581,14.378H3.963a10.209,10.209,0,0,0,.369,5.069c.922,2.4,3.318,3.318,6.083,3.318,12.166,0,21.106-13.456,23.041-19.539V1.843A1.871,1.871,0,0,0,31.521,0H1.843A1.849,1.849,0,0,0,0,1.843V15.484C4.793,9.4,12.166,4.424,18.341,3.963Z" fill="#fff"/>
      </g>
      <g id="nav__logo__edgepoint_1_" transform="translate(51.982 7.097)">
        <path id="Path_140" data-name="Path 140" d="M62.3,23.683a4.855,4.855,0,0,0,3.779-1.659l1.106.922a6.365,6.365,0,0,1-4.885,2.3,5.892,5.892,0,0,1-5.9-6.175c0-3.41,2.4-6.175,5.714-6.175,3.5,0,5.53,2.857,5.53,6.267v.553H58.151A4.081,4.081,0,0,0,62.3,23.683Zm3.41-5.346c-.184-2.12-1.475-4.055-3.779-4.055-2.028,0-3.594,1.751-3.871,4.055Z" transform="translate(-56.4 -8.107)" fill="#fff"/>
        <path id="Path_141" data-name="Path 141" d="M81.33,24.566v-2.4a5.23,5.23,0,0,1-4.516,2.673A5.856,5.856,0,0,1,71.1,18.668a5.856,5.856,0,0,1,5.714-6.175,5.228,5.228,0,0,1,4.516,2.581V7.7h1.751V24.566Zm-4.24-10.6c-2.3,0-4.147,1.751-4.147,4.608s1.935,4.608,4.147,4.608a4.452,4.452,0,0,0,4.332-4.608A4.452,4.452,0,0,0,77.091,13.967Z" transform="translate(-57.552 -7.7)" fill="#fff"/>
        <path id="Path_142" data-name="Path 142" d="M93.7,28.66A9.258,9.258,0,0,1,88.261,27l.829-1.382A8.066,8.066,0,0,0,93.7,27.094c2.581,0,4.332-1.475,4.332-4.24V21.471a5.681,5.681,0,0,1-4.7,2.581,5.427,5.427,0,0,1-5.53-5.53A5.5,5.5,0,0,1,93.33,12.9a5.773,5.773,0,0,1,4.7,2.4v-2.12h1.751v9.77C99.689,26.725,97.293,28.66,93.7,28.66Zm-.092-14.286a3.892,3.892,0,0,0-4.147,4.055,4,4,0,0,0,4.147,4.055A4.176,4.176,0,0,0,98.03,18.43,4.23,4.23,0,0,0,93.606,14.375Z" transform="translate(-58.86 -8.107)" fill="#fff"/>
        <path id="Path_143" data-name="Path 143" d="M110.2,23.683a4.855,4.855,0,0,0,3.779-1.659l1.106.922a6.365,6.365,0,0,1-4.885,2.3,5.892,5.892,0,0,1-5.9-6.175c0-3.41,2.4-6.175,5.714-6.175,3.5,0,5.53,2.857,5.53,6.267v.553h-9.4A3.948,3.948,0,0,0,110.2,23.683Zm3.41-5.346c-.184-2.12-1.475-4.055-3.779-4.055-2.028,0-3.594,1.751-3.871,4.055Z" transform="translate(-60.153 -8.107)" fill="#fff"/>
        <path id="Path_144" data-name="Path 144" d="M126.067,25.235a5.228,5.228,0,0,1-4.516-2.581v5.991H119.8V13.069h1.751v2.3a5.23,5.23,0,0,1,4.516-2.673,5.856,5.856,0,0,1,5.714,6.175C131.782,22.838,128.924,25.235,126.067,25.235ZM125.7,14.359a4.452,4.452,0,0,0-4.332,4.608,4.34,4.34,0,0,0,4.332,4.608c2.3,0,4.147-1.751,4.147-4.608A4.153,4.153,0,0,0,125.7,14.359Z" transform="translate(-61.367 -8.092)" fill="#fff"/>
        <path id="Path_145" data-name="Path 145" d="M141.675,25.242a6.116,6.116,0,0,1-6.175-6.175,6.194,6.194,0,0,1,6.175-6.267,6.116,6.116,0,0,1,6.175,6.175A6.194,6.194,0,0,1,141.675,25.242Zm0-10.876a4.339,4.339,0,0,0-4.332,4.608,4.491,4.491,0,0,0,4.424,4.7,4.412,4.412,0,0,0,4.424-4.608,4.625,4.625,0,0,0-4.516-4.7Z" transform="translate(-62.597 -8.1)" fill="#fff"/>
        <path id="Path_146" data-name="Path 146" d="M152.4,10.135V8.2h2.028v1.935Zm.184,14.47V12.716h1.751V24.605Z" transform="translate(-63.921 -7.739)" fill="#fff"/>
        <path id="Path_147" data-name="Path 147" d="M160.751,24.966H159V13.076h1.751V15.1a4.43,4.43,0,0,1,4.055-2.3c2.857,0,4.516,1.935,4.516,4.7v7.373h-1.751V17.961c0-2.212-1.2-3.594-3.318-3.594a3.51,3.51,0,0,0-3.594,3.687l.092,6.912Z" transform="translate(-64.438 -8.1)" fill="#fff"/>
        <path id="Path_148" data-name="Path 148" d="M176.618,21.274a1.8,1.8,0,0,0,2.028,2.028,3.994,3.994,0,0,0,1.751-.369v1.475a4,4,0,0,1-2.12.461c-1.935,0-3.318-.922-3.318-3.318V14.361H173.3V12.7h1.659V9.2h1.751v3.5h3.779v1.567H176.71v7Z" transform="translate(-65.558 -7.818)" fill="#fff"/>
      </g>
      <g id="nav__logo__learning_1_" transform="translate(176.958 7.097)">
        <path id="Path_149" data-name="Path 149" d="M192,24.566V7.7h1.751V24.566Z" transform="translate(-192 -7.7)" fill="#fff"/>
        <path id="Path_150" data-name="Path 150" d="M203.7,23.683a4.855,4.855,0,0,0,3.779-1.659l1.106.922a6.365,6.365,0,0,1-4.885,2.3,5.892,5.892,0,0,1-5.9-6.175c0-3.41,2.4-6.175,5.714-6.175,3.5,0,5.53,2.857,5.53,6.267v.553h-9.4a3.948,3.948,0,0,0,4.055,3.963Zm3.41-5.346c-.184-2.12-1.475-4.055-3.779-4.055-2.028,0-3.594,1.751-3.871,4.055Z" transform="translate(-192.454 -8.107)" fill="#fff"/>
        <path id="Path_151" data-name="Path 151" d="M213.759,15.4l-.553-1.475A9.105,9.105,0,0,1,217.538,13c3.226,0,5.069,1.659,5.069,4.793v7.281h-1.751V23.323a5.161,5.161,0,0,1-4.332,2.028c-2.212,0-4.424-1.2-4.424-3.687,0-2.581,2.028-3.871,5.069-3.871a13.114,13.114,0,0,1,3.594.461v-.369c0-2.12-1.29-3.226-3.594-3.226a5.9,5.9,0,0,0-3.41.737Zm.276,5.991c0,1.475,1.382,2.4,3.041,2.4,2.212,0,3.963-1.29,3.963-3.226v-1.2a11.937,11.937,0,0,0-3.5-.461c-2.212,0-3.5,1.014-3.5,2.488Z" transform="translate(-193.575 -8.115)" fill="#fff"/>
        <path id="Path_152" data-name="Path 152" d="M229.451,24.965H227.7V13.076h1.751v3.041a5.068,5.068,0,0,1,4.885-3.318v1.843h-.092c-2.581,0-4.7,1.843-4.7,5.438v4.885Z" transform="translate(-194.797 -8.099)" fill="#fff"/>
        <path id="Path_153" data-name="Path 153" d="M239.551,24.966H237.8V13.076h1.751V15.1a4.43,4.43,0,0,1,4.055-2.3c2.857,0,4.516,1.935,4.516,4.7v7.373h-1.751V17.961c0-2.212-1.2-3.594-3.318-3.594a3.51,3.51,0,0,0-3.594,3.687v6.912Z" transform="translate(-195.588 -8.1)" fill="#fff"/>
        <path id="Path_154" data-name="Path 154" d="M253.1,10.135V8.2h2.028v1.935Zm.184,14.47V12.716h1.751V24.605Z" transform="translate(-196.787 -7.739)" fill="#fff"/>
        <path id="Path_155" data-name="Path 155" d="M261.451,24.966H259.7V13.076h1.751V15.1a4.43,4.43,0,0,1,4.055-2.3c2.857,0,4.516,1.935,4.516,4.7v7.373h-1.751V17.961c0-2.212-1.2-3.594-3.318-3.594a3.51,3.51,0,0,0-3.594,3.687l.092,6.912Z" transform="translate(-197.304 -8.1)" fill="#fff"/>
        <path id="Path_156" data-name="Path 156" d="M280.3,28.66A9.258,9.258,0,0,1,274.861,27l.83-1.382a8.066,8.066,0,0,0,4.608,1.475c2.581,0,4.332-1.475,4.332-4.24V21.471a5.681,5.681,0,0,1-4.7,2.581,5.427,5.427,0,0,1-5.53-5.53,5.5,5.5,0,0,1,5.53-5.622,5.641,5.641,0,0,1,4.7,2.4v-2.12h1.751v9.77c-.092,3.779-2.488,5.714-6.083,5.714Zm-.092-14.286a3.892,3.892,0,0,0-4.147,4.055,4,4,0,0,0,4.147,4.055,4.176,4.176,0,0,0,4.424-4.055A4.23,4.23,0,0,0,280.206,14.375Z" transform="translate(-198.455 -8.107)" fill="#fff"/>
      </g>
    </g>
    <text id="_46_of_adults_experience_mental_illness_Only_41_receive_help" data-name="46% of adults experience


mental illness



Only 41% receive help" transform="translate(802 188)" fill="#fff" font-size="76" font-family="ProximaNova-Semibold, Proxima Nova" font-weight="600"><tspan x="-426.018" y="0">46% of adults experience</tspan><tspan x="0" y="27"></tspan><tspan x="0" y="54"></tspan><tspan x="-231.838" y="81">mental illness</tspan><tspan x="0" y="108"></tspan><tspan x="0" y="135"></tspan><tspan x="0" y="162"></tspan><tspan x="-370.804" y="189">Only 41% receive help</tspan></text>
  </g>
</svg>
