<svg xmlns="http://www.w3.org/2000/svg" xmlns:xlink="http://www.w3.org/1999/xlink" width="1280" height="800" viewBox="0 0 1280 800"><defs><clipPath id="b"><rect width="1280" height="800"/></clipPath></defs><g id="a" clip-path="url(#b)"><rect width="1280" height="800" fill="#62caef"/><g transform="translate(-325.879 225.045)"><g transform="translate(728.988 37.103)"><g transform="translate(0 288.371)"><path d="M697.726,127.468V97.883H246.011v29.585a23.556,23.556,0,0,0,23.569,23.559H674.154A23.581,23.581,0,0,0,697.726,127.468Z" transform="translate(-246.011 -97.883)" fill="#fff"/></g><g transform="translate(131.165 341.515)"><path d="M470.681,164.092c-3.161-1.21-6.628-1.387-9.9-2.158-4.912-1.176-9.7-2.855-13.362-6.458a24.75,24.75,0,0,1-6.8-12.95,101.023,101.023,0,0,1-2.135-14.5c-.323-3.651-.683-9.7-1.026-14.5H321.123c-.343,4.806-.707,10.853-1.037,14.5a101.042,101.042,0,0,1-2.138,14.5,24.644,24.644,0,0,1-6.791,12.95c-3.695,3.6-8.447,5.282-13.372,6.458-3.28.772-6.723.948-9.9,2.158-2.967,1.128-4.833,3.521-1.547,5.68,3.212,2.05,7.556,2,11.22,2H461c3.671,0,8.032.048,11.22-2C475.524,167.614,473.658,165.221,470.681,164.092Z" transform="translate(-284.6 -113.518)" fill="#fff"/></g><g transform="translate(166.492 341.515)"><path d="M413.7,129.752c-.048-.547-.1-1.084-.156-1.73-.323-3.651-.683-9.7-1.026-14.5H296.189c-.343,4.806-.707,10.853-1.037,14.5-.058.646-.109,1.183-.16,1.73Z" transform="translate(-294.993 -113.518)" fill="#e5e5e4"/></g><path d="M697.726,36.627a23.6,23.6,0,0,0-23.572-23.583H269.58a23.57,23.57,0,0,0-23.569,23.583V301.415H697.726Z" transform="translate(-246.011 -13.044)" fill="#424a56"/><g transform="translate(19.864 18.892)"><path d="M663.842,288.081H251.855V31.015A12.415,12.415,0,0,1,264.268,18.6h387.16a12.415,12.415,0,0,1,12.413,12.413Z" transform="translate(-251.855 -18.602)" fill="#ffd93b"/></g><g transform="translate(19.864 18.892)"><path d="M663.842,31.015A12.415,12.415,0,0,0,651.429,18.6H264.268a12.415,12.415,0,0,0-12.413,12.413V42.086H663.842Z" transform="translate(-251.855 -18.602)" fill="#fff"/></g><g transform="translate(37.889 24.442)"><path d="M269.548,26.425a6.195,6.195,0,1,1-6.2-6.19A6.191,6.191,0,0,1,269.548,26.425Z" transform="translate(-257.158 -20.235)" fill="#ff5e4c"/></g><g transform="translate(56.903 24.442)"><path d="M275.138,26.425a6.193,6.193,0,1,1-6.193-6.19A6.192,6.192,0,0,1,275.138,26.425Z" transform="translate(-262.752 -20.235)" fill="#ffd93b"/></g><g transform="translate(75.911 24.442)"><path d="M280.723,26.425a6.19,6.19,0,1,1-6.19-6.19A6.189,6.189,0,0,1,280.723,26.425Z" transform="translate(-268.344 -20.235)" fill="#49b5f2"/></g><g transform="translate(213.504 302.589)"><path d="M333.528,114.418a12.352,12.352,0,1,1-12.352-12.352A12.352,12.352,0,0,1,333.528,114.418Z" transform="translate(-308.824 -102.066)" fill="#dbdbdb"/></g><g transform="translate(126.495 217.566)"><path d="M456.676,127.562H308.481a25.327,25.327,0,0,1-25.255-25.255h0a25.327,25.327,0,0,1,25.255-25.255H456.676a25.33,25.33,0,0,1,25.258,25.255h0A25.33,25.33,0,0,1,456.676,127.562Z" transform="translate(-283.226 -77.052)" fill="#ff5e4c"/></g><g transform="translate(167.586 230.958)"><path d="M315.509,83.626l-2.264,4.694a17.634,17.634,0,0,0-7.563-2.464c-1.553,0-2.6.574-2.6,1.723,0,4.086,12.491,1.754,12.491,10.3,0,4.725-4.184,7.226-9.453,7.226a17.644,17.644,0,0,1-10.805-3.783l2.332-4.626a14.727,14.727,0,0,0,8.542,3.545c1.89,0,3.073-.707,3.073-2.056,0-4.191-12.495-1.693-12.495-10.061,0-4.361,3.749-7.128,9.422-7.128A17.773,17.773,0,0,1,315.509,83.626Z" transform="translate(-295.315 -80.992)" fill="#fff"/><g transform="translate(22.76 0.238)"><path d="M315.077,85.923V104.73h-6.01V85.923h-7.057V81.062H322.2v4.861Z" transform="translate(-302.011 -81.062)" fill="#fff"/></g><g transform="translate(41.801 0.272)"><path d="M315.512,100.351l-1.717,4.354h-6.183l10.2-23.634h6.183l9.956,23.634h-6.411l-1.693-4.354Zm5.2-13.3-3.447,8.746h6.822Z" transform="translate(-307.613 -81.072)" fill="#fff"/></g><g transform="translate(71.686 0.272)"><path d="M327.143,98.054h-4.725v6.652h-6.013V81.072h10.571c6.244,0,9.823,2.971,9.823,8.239,0,3.61-1.519,6.21-4.286,7.593l4.959,7.8h-6.815Zm-.167-4.728c2.6,0,4.12-1.315,4.12-3.81,0-2.468-1.523-3.715-4.12-3.715h-4.558v7.525Z" transform="translate(-316.405 -81.072)" fill="#fff"/></g><g transform="translate(95.357 0.238)"><path d="M336.438,85.923V104.73h-6.013V85.923h-7.057V81.062h20.194v4.861Z" transform="translate(-323.369 -81.062)" fill="#fff"/></g></g><g transform="translate(290.932 242.698)"><path d="M375.12,117.709l-14.327-14.347,8.175-8.161c1.258-1.254.87-2.61-.86-3l-33.987-7.672a1.875,1.875,0,0,0-2.437,2.427l7.685,33.977c.381,1.74,1.727,2.124,2.984.867l8.188-8.178,14.337,14.337a1.354,1.354,0,0,0,1.907,0l8.334-8.351A1.336,1.336,0,0,0,375.12,117.709Z" transform="translate(-331.603 -84.446)" fill="#fff"/></g><g transform="translate(133.968 39.999)"><g transform="translate(0)"><circle cx="74.77" cy="74.77" r="74.77" transform="matrix(0.228, -0.974, 0.974, 0.228, 0, 145.615)" fill="#fff"/></g><g transform="translate(34.532 26.265)"><g transform="translate(33.553 91.525)"><rect width="43.483" height="11.767" fill="#c4c3c3"/></g><g transform="translate(39.592 107.586)"><path d="M307.232,78.9l2.927,14.925a74.194,74.194,0,0,0,25.452.017l2.947-15.024L322.929,64.191Z" transform="translate(-307.232 -64.191)" fill="#fff"/></g><g transform="translate(35.574 81.655)"><path d="M325.713,69.387s-10.4-1.608-19.663-12.825v33.7h39.33V56.576C336.115,67.779,325.713,69.387,325.713,69.387Z" transform="translate(-306.05 -56.562)" fill="#ffe1aa"/></g><g transform="translate(33.553 91.525)"><path d="M305.455,59.466l21.734,16.06L311.36,90.347Z" transform="translate(-305.455 -59.466)" fill="#fff"/></g><g transform="translate(55.287 91.525)"><path d="M333.6,59.466,311.85,75.526l15.829,14.822Z" transform="translate(-311.85 -59.466)" fill="#fff"/></g><g transform="translate(0 99.765)"><path d="M295.584,76.013A74.747,74.747,0,0,0,331.026,97.77L317.351,61.89l-20.024,7.821Z" transform="translate(-295.584 -61.89)" fill="#5f6571"/></g><g transform="translate(49.663 113.885)"><path d="M310.2,90.255c1.859.139,3.732.235,5.629.235,1.866,0,3.7-.092,5.537-.224l-.982-24.222h-9.2Z" transform="translate(-310.195 -66.044)" fill="#c93227"/></g><g transform="translate(75.007 99.765)"><path d="M317.651,97.811a74.786,74.786,0,0,0,35.486-21.7l-1.778-6.4L331.346,61.89Z" transform="translate(-317.651 -61.89)" fill="#5f6571"/></g><g transform="translate(21.767 91.526)"><path d="M313.772,59.466l-11.784,8.239V90.346l8.124-.9-7.135,8.066,1.159,1.852a74.239,74.239,0,0,0,18.6,5.8Z" transform="translate(-301.988 -59.466)" fill="#41444c"/></g><g transform="translate(67.97 91.526)"><path d="M315.581,105.18a74.236,74.236,0,0,0,18.569-5.755l1.193-1.91-7.128-8.066,8.12.9V67.705l-11.774-8.239Z" transform="translate(-315.581 -59.466)" fill="#41444c"/></g><g transform="translate(45.332 107.585)"><path d="M308.921,73.514l9.91,9.9,10-9.9-9.958-9.323Z" transform="translate(-308.921 -64.191)" fill="#ff5e4c"/></g><g transform="translate(18.338)"><g transform="translate(0 0.421)"><g transform="translate(0 42.176)"><path d="M310.16,54.16c1.183,5.513.2,10.394-2.206,10.911s-5.3-3.545-6.482-9.052-.18-10.384,2.216-10.9S308.973,48.657,310.16,54.16Z" transform="translate(-300.979 -45.071)" fill="#f8d09a"/></g><g transform="translate(64.114 42.176)"><path d="M320.343,54.16c-1.19,5.513-.187,10.394,2.206,10.911s5.282-3.545,6.479-9.052c1.176-5.506.183-10.384-2.209-10.9S321.516,48.657,320.343,54.16Z" transform="translate(-319.841 -45.071)" fill="#f8d09a"/></g><g transform="translate(2.951)"><path d="M335.8,32.663c-39.466,0-33.647,37.892-33.647,37.892,2.389,51.4,33.647,56.166,33.647,56.166s31.278-4.769,33.664-56.166C369.46,70.555,375.276,32.663,335.8,32.663Z" transform="translate(-301.847 -32.663)" fill="#fbd9a3"/></g><g transform="translate(17.236 81.234)"><path d="M325.713,69.387s-10.4-1.608-19.663-12.825v3.81c9.262,11.213,19.663,12.821,19.663,12.821s10.4-1.608,19.667-12.808v-3.81C336.115,67.779,325.713,69.387,325.713,69.387Z" transform="translate(-306.05 -56.562)" fill="#eeb678"/></g></g><g transform="translate(36.9 0.421)"><path d="M345.5,70.555s5.816-37.892-33.664-37.892v94.058S343.113,121.952,345.5,70.555Z" transform="translate(-311.835 -32.663)" fill="#fcbe73"/></g><g transform="translate(2.825)"><path d="M335.814,32.539h-.02c-39.5,0-33.681,37.93-33.681,37.93q.245,4.833.778,9.147h5.265a.974.974,0,0,1-.078-.5c.031-.187.224-.388.19-.523-4.548-18.164,4.208-29.779,4.208-29.779,5.381,7.913,23.328,7.913,23.328,7.913s17.954,0,23.338-7.913c0,0,8.6,11.414,4.317,29.307-.051.221.415.5.466.785a.962.962,0,0,1-.282.714h5.177c.364-2.876.707-5.806.853-9.035C369.671,70.581,375.321,32.539,335.814,32.539Z" transform="translate(-301.81 -32.539)" fill="#684444"/></g><g transform="translate(24.232 75.924)"><path d="M320.79,64.468c7.005,0,12.685-4.3,12.685-9.592H308.108C308.108,60.172,313.784,64.468,320.79,64.468Z" transform="translate(-308.108 -54.876)" fill="#fff"/></g><g transform="translate(36.912 52.722)"><path d="M311.839,48.05l8.494,13.293-8.494,7.511Z" transform="translate(-311.839 -48.05)" fill="#fbd9a3"/></g><g transform="translate(36.863)"><path d="M311.824,32.539V56.72c.489,0,17.984-.109,23.294-7.91,0,0,8.6,11.414,4.317,29.307-.051.221.415.5.466.785a.962.962,0,0,1-.282.714h5.177c.364-2.876.707-5.806.853-9.035C345.648,70.581,351.294,32.563,311.824,32.539Z" transform="translate(-311.824 -32.539)" fill="#492828"/></g><g transform="translate(0 38.271)"><g transform="translate(17.42 7.154)"><path d="M313.521,49.615a3.708,3.708,0,1,1-3.708-3.712A3.7,3.7,0,0,1,313.521,49.615Z" transform="translate(-306.104 -45.903)" fill="#353535"/></g><g transform="translate(48.756 7.154)"><path d="M322.74,49.615a3.708,3.708,0,1,1-3.708-3.712A3.711,3.711,0,0,1,322.74,49.615Z" transform="translate(-315.323 -45.903)" fill="#353535"/></g><path d="M370.36,45.211c-15.53-2.5-21.791-.921-21.791-.921-7.794,2.284-10.673,1.784-10.673,1.784s-2.876.5-10.676-1.784c0,0-6.2-1.56-21.564.877h0l-4.677.625.632,3.025,3.817.867s1.791.388,1.985,1.734c-.068,3.552.489,8.345,2.848,11.166,3.919,4.711,12.95,4.222,17.8,1.669,0,0,5.234-2.746,7.22-10.789,0,0,.449-2.692,2.617-2.692s2.624,2.692,2.624,2.692c1.971,8.042,7.216,10.789,7.216,10.789,4.854,2.553,13.878,3.042,17.8-1.669,2.352-2.821,2.91-7.614,2.852-11.166.184-1.346,1.975-1.734,1.975-1.734l3.576-.517.772-3.627ZM329.776,60.432s-2.138,3.294-8.117,4.089c0,0-7.213,1.22-9.956-3.6a16.469,16.469,0,0,1-.609-12.638s.551-2.617,10.564-2.746c0,0,10.133.19,10.928,4.579C332.587,50.113,333.559,54.926,329.776,60.432Zm34.317.486c-2.75,4.823-9.942,3.6-9.942,3.6-5.992-.8-8.124-4.089-8.124-4.089-3.783-5.506-2.811-10.319-2.811-10.319.792-4.388,10.935-4.579,10.935-4.579,10,.129,10.554,2.746,10.554,2.746A16.55,16.55,0,0,1,364.092,60.918Z" transform="translate(-300.979 -43.798)" fill="#f24c30"/></g></g></g></g></g><g transform="translate(591.586 290.151)"><g transform="translate(1.872 52.546)"><path d="M309.18,119.534h-2.24V102.95h-100.8V145.1a38.555,38.555,0,0,0,23.542,35.513h53.647a38.632,38.632,0,0,0,22.165-25.166l0,.034h3.691a17.976,17.976,0,1,0,0-35.952Zm0,27.056h-2.315c.02-.5.075-.986.075-1.485V128.433h2.24a9.079,9.079,0,0,1,0,18.158Z" transform="translate(-206.138 -102.95)" fill="#fafafb"/></g><g transform="translate(1.872 52.546)"><path d="M309.18,119.534h-2.24V102.95h-100.8V145.1a38.555,38.555,0,0,0,23.542,35.513h53.647a38.632,38.632,0,0,0,22.165-25.166l0,.034h3.691a17.976,17.976,0,1,0,0-35.952Zm0,27.056h-2.315c.02-.5.075-.986.075-1.485V128.433h2.24a9.079,9.079,0,0,1,0,18.158Z" transform="translate(-206.138 -102.95)" fill="#fafafb"/></g><g transform="translate(17.269 82.844)"><rect width="18.901" height="18.902" fill="#ff5e4c"/></g><g transform="translate(24.495 52.546)"><rect width="4.448" height="30.298" fill="#e7e7e7"/></g><g transform="translate(0 130.212)"><rect width="110.844" height="7.982" fill="#fafafb"/></g><g transform="translate(6.58 138.195)"><path d="M256.367,128.148H207.523s9.388,1.366,11.118,8.528H294.09c1.727-7.162,11.118-8.528,11.118-8.528Z" transform="translate(-207.523 -128.148)" fill="#e0e0e0"/></g><g transform="translate(45.867)"><path d="M227.153,128.7c-2.067,0-4.816-.952-5.71-2.114-9.517-12.328,13.447-24.653,3.926-36.978-.894-1.169-.286-2.114,1.785-2.114s4.816.945,5.707,2.114c9.521,12.325-13.443,24.65-3.926,36.978C229.825,127.746,229.223,128.7,227.153,128.7Z" transform="translate(-219.081 -87.491)" fill="#2a9dbc"/></g><g transform="translate(22.337)"><path d="M220.219,128.7c-2.06,0-4.816-.952-5.7-2.114-9.511-12.328,13.433-24.653,3.919-36.978-.894-1.169-.289-2.114,1.781-2.114s4.813.945,5.71,2.114c9.507,12.325-13.436,24.65-3.926,36.978C222.894,127.746,222.289,128.7,220.219,128.7Z" transform="translate(-212.159 -87.491)" fill="#2a9dbc"/></g><g transform="translate(69.41)"><path d="M234.071,128.7c-2.06,0-4.816-.952-5.7-2.114-9.51-12.328,13.436-24.653,3.923-36.978-.891-1.169-.289-2.114,1.781-2.114s4.813.945,5.707,2.114c9.51,12.325-13.436,24.65-3.926,36.978C236.743,127.746,236.141,128.7,234.071,128.7Z" transform="translate(-226.008 -87.491)" fill="#2a9dbc"/></g></g><g transform="translate(549.879 436.873)"><rect width="832.985" height="27.388" fill="#a06464"/><g transform="translate(41.503 27.388)"><rect width="44.871" height="38.36" fill="#723f3f"/><g transform="translate(705.098)"><rect width="44.871" height="38.36" fill="#723f3f"/></g><rect width="44.871" height="21.365" fill="#4c2222"/><g transform="translate(705.098)"><rect width="44.871" height="21.365" fill="#4c2222"/></g><g transform="translate(44.871)"><rect width="660.227" height="38.36" fill="#a06464"/></g><g transform="translate(44.871)"><rect width="660.227" height="21.365" fill="#723f3f"/></g></g></g><g transform="translate(1138.248 393.065)"><rect width="195.229" height="43.808" fill="#424a56"/><g transform="translate(170.228)"><rect width="11.815" height="43.808" fill="#ffdd50"/></g><g transform="translate(30.327)"><rect width="8.26" height="43.808" fill="#ffdd50"/></g><g transform="translate(14.147)"><rect width="8.262" height="43.808" fill="#ffdd50"/></g><g transform="translate(138.4 8.46)"><rect width="10.301" height="26.891" fill="#707e8e"/></g><g transform="translate(116.312 8.46)"><rect width="10.301" height="26.891" fill="#707e8e"/></g><g transform="translate(94.224 8.46)"><rect width="10.301" height="26.891" fill="#707e8e"/></g></g><g transform="translate(1138.137 298.985)"><path d="M380.013,90.09c-7.532,0-13.63,5.289-13.63,11.815V125.46c0,6.526,6.1,11.815,13.63,11.815H561.722v-6.751h-3.746a19.787,19.787,0,0,1-2.036-4.881c-.021-.058-.034-.119-.051-.18q-.245-.872-.449-1.815l-.054-.231a43.386,43.386,0,0,1-.676-4.337c-.024-.194-.041-.4-.061-.6-.051-.568-.092-1.152-.129-1.737-.014-.224-.027-.442-.037-.663-.037-.789-.058-1.584-.058-2.393s.02-1.608.058-2.393c.01-.224.024-.445.037-.666.037-.588.078-1.166.129-1.737.02-.2.037-.4.061-.605a43.159,43.159,0,0,1,.676-4.334c.017-.078.034-.153.054-.238.136-.625.286-1.23.449-1.808.017-.061.031-.122.051-.18a19.929,19.929,0,0,1,2.036-4.884h3.746V90.09Z" transform="translate(-366.383 -90.09)" fill="#f1644a"/><g transform="translate(7.787 6.75)"><path d="M550.393,120.7q-.245-.872-.449-1.815l-.054-.231a43.4,43.4,0,0,1-.676-4.337c-.024-.194-.041-.4-.061-.6-.051-.568-.092-1.152-.129-1.737-.014-.224-.027-.442-.037-.663-.037-.789-.058-1.584-.058-2.393s.02-1.608.058-2.393c.01-.224.024-.445.037-.666.037-.588.078-1.166.129-1.737.02-.2.037-.4.061-.605a43.176,43.176,0,0,1,.676-4.334c.017-.078.034-.153.054-.238.136-.625.286-1.23.449-1.808.017-.061.031-.122.051-.18a19.929,19.929,0,0,1,2.036-4.884H375.788c-3.922,0-7.114,2.274-7.114,5.065V120.7c0,2.794,3.192,5.065,7.114,5.065H552.48a19.787,19.787,0,0,1-2.036-4.881C550.424,120.822,550.41,120.76,550.393,120.7Z" transform="translate(-368.674 -92.076)" fill="#fff"/></g><g transform="translate(27.121 16.682)"><path d="M374.362,95v3.266H535.425c.024-.384.051-.772.082-1.149.02-.2.037-.4.061-.605.058-.517.129-1.013.2-1.513Z" transform="translate(-374.362 -94.998)" fill="#dbdbdb"/><g transform="translate(0 10.415)"><path d="M374.362,101.471H535.769c-.071-.5-.143-1-.2-1.516-.024-.194-.041-.4-.061-.6-.037-.425-.065-.86-.1-1.292H374.362Z" transform="translate(-374.362 -98.062)" fill="#dbdbdb"/></g></g></g><g transform="translate(1138.137 345.878)"><path d="M380.013,103.886c-7.532,0-13.63,5.289-13.63,11.815v23.555c0,6.526,6.1,11.815,13.63,11.815H561.722v-6.75h-3.746a19.788,19.788,0,0,1-2.036-4.881c-.021-.058-.034-.119-.051-.18q-.245-.872-.449-1.815l-.054-.235a43.162,43.162,0,0,1-.676-4.334c-.024-.194-.041-.4-.061-.6-.051-.571-.092-1.152-.129-1.737-.014-.224-.027-.442-.037-.663-.037-.789-.058-1.584-.058-2.393s.02-1.608.058-2.393c.01-.224.024-.445.037-.666.037-.588.078-1.166.129-1.737.02-.2.037-.4.061-.605a43.16,43.16,0,0,1,.676-4.334c.017-.078.034-.153.054-.238.136-.625.286-1.23.449-1.808.017-.061.031-.122.051-.18a19.929,19.929,0,0,1,2.036-4.884h3.746v-6.75Z" transform="translate(-366.383 -103.886)" fill="#d283db"/><g transform="translate(7.787 6.75)"><path d="M550.393,134.5q-.245-.872-.449-1.815l-.054-.235a43.179,43.179,0,0,1-.676-4.334c-.024-.194-.041-.4-.061-.6-.051-.571-.092-1.152-.129-1.737-.014-.224-.027-.442-.037-.663-.037-.789-.058-1.584-.058-2.393s.02-1.608.058-2.393c.01-.224.024-.445.037-.666.037-.588.078-1.166.129-1.737.02-.2.037-.4.061-.605a43.178,43.178,0,0,1,.676-4.334c.017-.078.034-.153.054-.238.136-.625.286-1.23.449-1.808.017-.061.031-.122.051-.18a19.929,19.929,0,0,1,2.036-4.884H375.788c-3.922,0-7.114,2.274-7.114,5.065v23.555c0,2.794,3.192,5.065,7.114,5.065H552.48a19.788,19.788,0,0,1-2.036-4.881C550.424,134.618,550.41,134.556,550.393,134.5Z" transform="translate(-368.674 -105.872)" fill="#fff"/></g><g transform="translate(27.121 16.682)"><path d="M374.362,108.794v3.266H535.425c.024-.384.051-.772.082-1.149.02-.2.037-.4.061-.605.058-.517.129-1.016.2-1.513Z" transform="translate(-374.362 -108.794)" fill="#dbdbdb"/><g transform="translate(0 10.415)"><path d="M374.362,115.267H535.769c-.071-.5-.143-1-.2-1.516-.024-.194-.041-.4-.061-.6-.037-.425-.065-.86-.1-1.292H374.362Z" transform="translate(-374.362 -111.858)" fill="#dbdbdb"/></g></g></g><g transform="translate(1208.515 170.097)"><g transform="translate(17.314)"><path d="M428.783,81.78h0s1.73-1.608,3.8-3.617l0,0h0c-.738-16.754-16.135-22.882-25.37-25-10.221-2.1-14.283-.184-15.031-.347a68.463,68.463,0,0,1,15.1,4.449c8.739,3.77,20.894,11.03,23.222,22.573-7.661-8.392-20.435-18.865-38.324-27.022,11.03,13.236,14.6,21.128,20.374,24.942C417.692,81.7,425.034,81.566,428.783,81.78Z" transform="translate(-392.182 -52.171)" fill="#b8ffc2"/></g><g transform="translate(46.893 14.64)"><path d="M400.884,85.285l.129-.809c3.882-24.456,21.06-27.818,21.234-27.848l.833-.15.217,4.966-.581.153c-14.7,3.8-17.284,23.042-17.311,23.236l-.085.683Z" transform="translate(-400.884 -56.478)" fill="#a4424b"/></g><g transform="translate(51.723 37.805)"><path d="M402.3,63.313l.007-.02Z" transform="translate(-402.305 -63.293)" fill="#ffcb38"/></g><g transform="translate(0 36.546)"><path d="M485,86.642c-2.451-11.866-12.509-18.3-12.509-18.3a22.837,22.837,0,0,0-4.456-2.767A26.45,26.45,0,0,0,456,62.93c-5.347.133-9.98,2.135-14.895,3.98a12.119,12.119,0,0,1-8.569,0c-4.915-1.846-9.548-3.848-14.895-3.98a26.44,26.44,0,0,0-12.036,2.648,22.842,22.842,0,0,0-4.456,2.767s-10.058,6.431-12.508,18.3a61.249,61.249,0,0,0,3.593,38.328s6.4,17.277,17.893,26.75c0,0,3.95,3.4,8.623,3.4,0,0,2.338.758,11.988-3.277a49.44,49.44,0,0,1,6.081-1.533,49.38,49.38,0,0,1,6.084,1.533c9.65,4.035,11.989,3.277,11.989,3.277,4.674,0,8.623-3.4,8.623-3.4,11.492-9.473,17.893-26.75,17.893-26.75A61.25,61.25,0,0,0,485,86.642Z" transform="translate(-387.088 -62.923)" fill="#ffd93b"/></g><g transform="translate(9.835 46.188)" opacity="0.7"><path d="M406.965,82.872c-5.109,6.081-11.924,8.749-15.224,5.986s-1.829-9.939,3.277-16.016,11.927-8.759,15.217-5.993S412.07,76.792,406.965,82.872Z" transform="translate(-389.981 -65.759)" fill="#fff"/></g></g></g><text transform="translate(259 31)" fill="#fff" font-size="78" font-family="ProximaNova-Semibold, Proxima Nova" font-weight="600"><tspan x="1.211" y="72">New Hire Onboarding</tspan><tspan x="51.482" y="162">Starts Before Day 1</tspan></text><rect width="1280" height="74" transform="translate(0 726)" fill="#424a56"/><g transform="translate(961.462 746)"><path d="M23.4,35.564h9.954a1.93,1.93,0,0,0,1.935-1.843V26.9A36.608,36.608,0,0,1,23.4,35.564Z" transform="translate(-1.833 -2.107)" fill="#fff"/><path d="M19.731,10.977C19.639,9.226,18.348,8.12,15.583,8.4,10.146,8.765,6,14.94,4.8,21.3,16.6,20.378,19.823,13.189,19.731,10.977Z" transform="translate(-0.376 -0.654)" fill="#fff"/><path d="M18.341,3.963c5.622-.369,8.2,1.843,8.387,4.608.461,6.083-9.493,13.272-22.581,14.378H3.963a10.209,10.209,0,0,0,.369,5.069c.922,2.4,3.318,3.318,6.083,3.318,12.166,0,21.106-13.456,23.041-19.539V1.843A1.871,1.871,0,0,0,31.521,0H1.843A1.849,1.849,0,0,0,0,1.843V15.484C4.793,9.4,12.166,4.424,18.341,3.963Z" fill="#fff"/><g transform="translate(51.982 7.097)"><path d="M62.3,23.683a4.855,4.855,0,0,0,3.779-1.659l1.106.922a6.365,6.365,0,0,1-4.885,2.3,5.892,5.892,0,0,1-5.9-6.175c0-3.41,2.4-6.175,5.714-6.175,3.5,0,5.53,2.857,5.53,6.267v.553H58.151A4.081,4.081,0,0,0,62.3,23.683Zm3.41-5.346c-.184-2.12-1.475-4.055-3.779-4.055-2.028,0-3.594,1.751-3.871,4.055Z" transform="translate(-56.4 -8.107)" fill="#fff"/><path d="M81.33,24.566v-2.4a5.23,5.23,0,0,1-4.516,2.673A5.856,5.856,0,0,1,71.1,18.668a5.856,5.856,0,0,1,5.714-6.175,5.228,5.228,0,0,1,4.516,2.581V7.7h1.751V24.566Zm-4.24-10.6c-2.3,0-4.147,1.751-4.147,4.608s1.935,4.608,4.147,4.608a4.452,4.452,0,0,0,4.332-4.608A4.452,4.452,0,0,0,77.091,13.967Z" transform="translate(-57.552 -7.7)" fill="#fff"/><path d="M93.7,28.66A9.258,9.258,0,0,1,88.261,27l.829-1.382A8.066,8.066,0,0,0,93.7,27.094c2.581,0,4.332-1.475,4.332-4.24V21.471a5.681,5.681,0,0,1-4.7,2.581,5.427,5.427,0,0,1-5.53-5.53A5.5,5.5,0,0,1,93.33,12.9a5.773,5.773,0,0,1,4.7,2.4v-2.12h1.751v9.77C99.689,26.725,97.293,28.66,93.7,28.66Zm-.092-14.286a3.892,3.892,0,0,0-4.147,4.055,4,4,0,0,0,4.147,4.055A4.176,4.176,0,0,0,98.03,18.43,4.23,4.23,0,0,0,93.606,14.375Z" transform="translate(-58.86 -8.107)" fill="#fff"/><path d="M110.2,23.683a4.855,4.855,0,0,0,3.779-1.659l1.106.922a6.365,6.365,0,0,1-4.885,2.3,5.892,5.892,0,0,1-5.9-6.175c0-3.41,2.4-6.175,5.714-6.175,3.5,0,5.53,2.857,5.53,6.267v.553h-9.4A3.948,3.948,0,0,0,110.2,23.683Zm3.41-5.346c-.184-2.12-1.475-4.055-3.779-4.055-2.028,0-3.594,1.751-3.871,4.055Z" transform="translate(-60.153 -8.107)" fill="#fff"/><path d="M126.067,25.235a5.228,5.228,0,0,1-4.516-2.581v5.991H119.8V13.069h1.751v2.3a5.23,5.23,0,0,1,4.516-2.673,5.856,5.856,0,0,1,5.714,6.175C131.782,22.838,128.924,25.235,126.067,25.235ZM125.7,14.359a4.452,4.452,0,0,0-4.332,4.608,4.34,4.34,0,0,0,4.332,4.608c2.3,0,4.147-1.751,4.147-4.608A4.153,4.153,0,0,0,125.7,14.359Z" transform="translate(-61.367 -8.092)" fill="#fff"/><path d="M141.675,25.242a6.116,6.116,0,0,1-6.175-6.175,6.194,6.194,0,0,1,6.175-6.267,6.116,6.116,0,0,1,6.175,6.175A6.194,6.194,0,0,1,141.675,25.242Zm0-10.876a4.339,4.339,0,0,0-4.332,4.608,4.491,4.491,0,0,0,4.424,4.7,4.412,4.412,0,0,0,4.424-4.608,4.625,4.625,0,0,0-4.516-4.7Z" transform="translate(-62.597 -8.1)" fill="#fff"/><path d="M152.4,10.135V8.2h2.028v1.935Zm.184,14.47V12.716h1.751V24.605Z" transform="translate(-63.921 -7.739)" fill="#fff"/><path d="M160.751,24.966H159V13.076h1.751V15.1a4.43,4.43,0,0,1,4.055-2.3c2.857,0,4.516,1.935,4.516,4.7v7.373h-1.751V17.961c0-2.212-1.2-3.594-3.318-3.594a3.51,3.51,0,0,0-3.594,3.687l.092,6.912Z" transform="translate(-64.438 -8.1)" fill="#fff"/><path d="M176.618,21.274a1.8,1.8,0,0,0,2.028,2.028,3.994,3.994,0,0,0,1.751-.369v1.475a4,4,0,0,1-2.12.461c-1.935,0-3.318-.922-3.318-3.318V14.361H173.3V12.7h1.659V9.2h1.751v3.5h3.779v1.567H176.71v7Z" transform="translate(-65.558 -7.818)" fill="#fff"/></g><g transform="translate(176.958 7.097)"><path d="M192,24.566V7.7h1.751V24.566Z" transform="translate(-192 -7.7)" fill="#fff"/><path d="M203.7,23.683a4.855,4.855,0,0,0,3.779-1.659l1.106.922a6.365,6.365,0,0,1-4.885,2.3,5.892,5.892,0,0,1-5.9-6.175c0-3.41,2.4-6.175,5.714-6.175,3.5,0,5.53,2.857,5.53,6.267v.553h-9.4a3.948,3.948,0,0,0,4.055,3.963Zm3.41-5.346c-.184-2.12-1.475-4.055-3.779-4.055-2.028,0-3.594,1.751-3.871,4.055Z" transform="translate(-192.454 -8.107)" fill="#fff"/><path d="M213.759,15.4l-.553-1.475A9.105,9.105,0,0,1,217.538,13c3.226,0,5.069,1.659,5.069,4.793v7.281h-1.751V23.323a5.161,5.161,0,0,1-4.332,2.028c-2.212,0-4.424-1.2-4.424-3.687,0-2.581,2.028-3.871,5.069-3.871a13.114,13.114,0,0,1,3.594.461v-.369c0-2.12-1.29-3.226-3.594-3.226a5.9,5.9,0,0,0-3.41.737Zm.276,5.991c0,1.475,1.382,2.4,3.041,2.4,2.212,0,3.963-1.29,3.963-3.226v-1.2a11.937,11.937,0,0,0-3.5-.461c-2.212,0-3.5,1.014-3.5,2.488Z" transform="translate(-193.575 -8.115)" fill="#fff"/><path d="M229.451,24.965H227.7V13.076h1.751v3.041a5.068,5.068,0,0,1,4.885-3.318v1.843h-.092c-2.581,0-4.7,1.843-4.7,5.438v4.885Z" transform="translate(-194.797 -8.099)" fill="#fff"/><path d="M239.551,24.966H237.8V13.076h1.751V15.1a4.43,4.43,0,0,1,4.055-2.3c2.857,0,4.516,1.935,4.516,4.7v7.373h-1.751V17.961c0-2.212-1.2-3.594-3.318-3.594a3.51,3.51,0,0,0-3.594,3.687v6.912Z" transform="translate(-195.588 -8.1)" fill="#fff"/><path d="M253.1,10.135V8.2h2.028v1.935Zm.184,14.47V12.716h1.751V24.605Z" transform="translate(-196.787 -7.739)" fill="#fff"/><path d="M261.451,24.966H259.7V13.076h1.751V15.1a4.43,4.43,0,0,1,4.055-2.3c2.857,0,4.516,1.935,4.516,4.7v7.373h-1.751V17.961c0-2.212-1.2-3.594-3.318-3.594a3.51,3.51,0,0,0-3.594,3.687l.092,6.912Z" transform="translate(-197.304 -8.1)" fill="#fff"/><path d="M280.3,28.66A9.258,9.258,0,0,1,274.861,27l.83-1.382a8.066,8.066,0,0,0,4.608,1.475c2.581,0,4.332-1.475,4.332-4.24V21.471a5.681,5.681,0,0,1-4.7,2.581,5.427,5.427,0,0,1-5.53-5.53,5.5,5.5,0,0,1,5.53-5.622,5.641,5.641,0,0,1,4.7,2.4v-2.12h1.751v9.77c-.092,3.779-2.488,5.714-6.083,5.714Zm-.092-14.286a3.892,3.892,0,0,0-4.147,4.055,4,4,0,0,0,4.147,4.055,4.176,4.176,0,0,0,4.424-4.055A4.23,4.23,0,0,0,280.206,14.375Z" transform="translate(-198.455 -8.107)" fill="#fff"/></g></g></g></svg>