<svg xmlns="http://www.w3.org/2000/svg" xmlns:xlink="http://www.w3.org/1999/xlink" width="1280" height="800" viewBox="0 0 1280 800">
  <defs>
    <filter id="Path_635" x="419.514" y="233.089" width="761.675" height="286.163" filterUnits="userSpaceOnUse">
      <feOffset dy="5" input="SourceAlpha"/>
      <feGaussianBlur stdDeviation="3.5" result="blur"/>
      <feFlood flood-opacity="0.161"/>
      <feComposite operator="in" in2="blur"/>
      <feComposite in="SourceGraphic"/>
    </filter>
    <clipPath id="clip-_2019-03-13-emotional-intelligence-training-for-employees01">
      <rect width="1280" height="800"/>
    </clipPath>
  </defs>
  <g id="_2019-03-13-emotional-intelligence-training-for-employees01" data-name="2019-03-13-emotional-intelligence-training-for-employees01" clip-path="url(#clip-_2019-03-13-emotional-intelligence-training-for-employees01)">
    <rect width="1280" height="800" fill="rgba(233,78,104,0.13)"/>
    <rect id="Rectangle_44" data-name="Rectangle 44" width="1280" height="74" transform="translate(0 726)" fill="#e94e68"/>
    <g id="Group_52" data-name="Group 52" transform="translate(961.462 746)">
      <g id="nav__logo__e_1_">
        <path id="Path_137" data-name="Path 137" d="M23.4,35.564h9.954a1.93,1.93,0,0,0,1.935-1.843V26.9A36.608,36.608,0,0,1,23.4,35.564Z" transform="translate(-1.833 -2.107)" fill="#fff"/>
        <path id="Path_138" data-name="Path 138" d="M19.731,10.977C19.639,9.226,18.348,8.12,15.583,8.4,10.146,8.765,6,14.94,4.8,21.3,16.6,20.378,19.823,13.189,19.731,10.977Z" transform="translate(-0.376 -0.654)" fill="#fff"/>
        <path id="Path_139" data-name="Path 139" d="M18.341,3.963c5.622-.369,8.2,1.843,8.387,4.608.461,6.083-9.493,13.272-22.581,14.378H3.963a10.209,10.209,0,0,0,.369,5.069c.922,2.4,3.318,3.318,6.083,3.318,12.166,0,21.106-13.456,23.041-19.539V1.843A1.871,1.871,0,0,0,31.521,0H1.843A1.849,1.849,0,0,0,0,1.843V15.484C4.793,9.4,12.166,4.424,18.341,3.963Z" fill="#fff"/>
      </g>
      <g id="nav__logo__edgepoint_1_" transform="translate(51.982 7.097)">
        <path id="Path_140" data-name="Path 140" d="M62.3,23.683a4.855,4.855,0,0,0,3.779-1.659l1.106.922a6.365,6.365,0,0,1-4.885,2.3,5.892,5.892,0,0,1-5.9-6.175c0-3.41,2.4-6.175,5.714-6.175,3.5,0,5.53,2.857,5.53,6.267v.553H58.151A4.081,4.081,0,0,0,62.3,23.683Zm3.41-5.346c-.184-2.12-1.475-4.055-3.779-4.055-2.028,0-3.594,1.751-3.871,4.055Z" transform="translate(-56.4 -8.107)" fill="#fff"/>
        <path id="Path_141" data-name="Path 141" d="M81.33,24.566v-2.4a5.23,5.23,0,0,1-4.516,2.673A5.856,5.856,0,0,1,71.1,18.668a5.856,5.856,0,0,1,5.714-6.175,5.228,5.228,0,0,1,4.516,2.581V7.7h1.751V24.566Zm-4.24-10.6c-2.3,0-4.147,1.751-4.147,4.608s1.935,4.608,4.147,4.608a4.452,4.452,0,0,0,4.332-4.608A4.452,4.452,0,0,0,77.091,13.967Z" transform="translate(-57.552 -7.7)" fill="#fff"/>
        <path id="Path_142" data-name="Path 142" d="M93.7,28.66A9.258,9.258,0,0,1,88.261,27l.829-1.382A8.066,8.066,0,0,0,93.7,27.094c2.581,0,4.332-1.475,4.332-4.24V21.471a5.681,5.681,0,0,1-4.7,2.581,5.427,5.427,0,0,1-5.53-5.53A5.5,5.5,0,0,1,93.33,12.9a5.773,5.773,0,0,1,4.7,2.4v-2.12h1.751v9.77C99.689,26.725,97.293,28.66,93.7,28.66Zm-.092-14.286a3.892,3.892,0,0,0-4.147,4.055,4,4,0,0,0,4.147,4.055A4.176,4.176,0,0,0,98.03,18.43,4.23,4.23,0,0,0,93.606,14.375Z" transform="translate(-58.86 -8.107)" fill="#fff"/>
        <path id="Path_143" data-name="Path 143" d="M110.2,23.683a4.855,4.855,0,0,0,3.779-1.659l1.106.922a6.365,6.365,0,0,1-4.885,2.3,5.892,5.892,0,0,1-5.9-6.175c0-3.41,2.4-6.175,5.714-6.175,3.5,0,5.53,2.857,5.53,6.267v.553h-9.4A3.948,3.948,0,0,0,110.2,23.683Zm3.41-5.346c-.184-2.12-1.475-4.055-3.779-4.055-2.028,0-3.594,1.751-3.871,4.055Z" transform="translate(-60.153 -8.107)" fill="#fff"/>
        <path id="Path_144" data-name="Path 144" d="M126.067,25.235a5.228,5.228,0,0,1-4.516-2.581v5.991H119.8V13.069h1.751v2.3a5.23,5.23,0,0,1,4.516-2.673,5.856,5.856,0,0,1,5.714,6.175C131.782,22.838,128.924,25.235,126.067,25.235ZM125.7,14.359a4.452,4.452,0,0,0-4.332,4.608,4.34,4.34,0,0,0,4.332,4.608c2.3,0,4.147-1.751,4.147-4.608A4.153,4.153,0,0,0,125.7,14.359Z" transform="translate(-61.367 -8.092)" fill="#fff"/>
        <path id="Path_145" data-name="Path 145" d="M141.675,25.242a6.116,6.116,0,0,1-6.175-6.175,6.194,6.194,0,0,1,6.175-6.267,6.116,6.116,0,0,1,6.175,6.175A6.194,6.194,0,0,1,141.675,25.242Zm0-10.876a4.339,4.339,0,0,0-4.332,4.608,4.491,4.491,0,0,0,4.424,4.7,4.412,4.412,0,0,0,4.424-4.608,4.625,4.625,0,0,0-4.516-4.7Z" transform="translate(-62.597 -8.1)" fill="#fff"/>
        <path id="Path_146" data-name="Path 146" d="M152.4,10.135V8.2h2.028v1.935Zm.184,14.47V12.716h1.751V24.605Z" transform="translate(-63.921 -7.739)" fill="#fff"/>
        <path id="Path_147" data-name="Path 147" d="M160.751,24.966H159V13.076h1.751V15.1a4.43,4.43,0,0,1,4.055-2.3c2.857,0,4.516,1.935,4.516,4.7v7.373h-1.751V17.961c0-2.212-1.2-3.594-3.318-3.594a3.51,3.51,0,0,0-3.594,3.687l.092,6.912Z" transform="translate(-64.438 -8.1)" fill="#fff"/>
        <path id="Path_148" data-name="Path 148" d="M176.618,21.274a1.8,1.8,0,0,0,2.028,2.028,3.994,3.994,0,0,0,1.751-.369v1.475a4,4,0,0,1-2.12.461c-1.935,0-3.318-.922-3.318-3.318V14.361H173.3V12.7h1.659V9.2h1.751v3.5h3.779v1.567H176.71v7Z" transform="translate(-65.558 -7.818)" fill="#fff"/>
      </g>
      <g id="nav__logo__learning_1_" transform="translate(176.958 7.097)">
        <path id="Path_149" data-name="Path 149" d="M192,24.566V7.7h1.751V24.566Z" transform="translate(-192 -7.7)" fill="#fff"/>
        <path id="Path_150" data-name="Path 150" d="M203.7,23.683a4.855,4.855,0,0,0,3.779-1.659l1.106.922a6.365,6.365,0,0,1-4.885,2.3,5.892,5.892,0,0,1-5.9-6.175c0-3.41,2.4-6.175,5.714-6.175,3.5,0,5.53,2.857,5.53,6.267v.553h-9.4a3.948,3.948,0,0,0,4.055,3.963Zm3.41-5.346c-.184-2.12-1.475-4.055-3.779-4.055-2.028,0-3.594,1.751-3.871,4.055Z" transform="translate(-192.454 -8.107)" fill="#fff"/>
        <path id="Path_151" data-name="Path 151" d="M213.759,15.4l-.553-1.475A9.105,9.105,0,0,1,217.538,13c3.226,0,5.069,1.659,5.069,4.793v7.281h-1.751V23.323a5.161,5.161,0,0,1-4.332,2.028c-2.212,0-4.424-1.2-4.424-3.687,0-2.581,2.028-3.871,5.069-3.871a13.114,13.114,0,0,1,3.594.461v-.369c0-2.12-1.29-3.226-3.594-3.226a5.9,5.9,0,0,0-3.41.737Zm.276,5.991c0,1.475,1.382,2.4,3.041,2.4,2.212,0,3.963-1.29,3.963-3.226v-1.2a11.937,11.937,0,0,0-3.5-.461c-2.212,0-3.5,1.014-3.5,2.488Z" transform="translate(-193.575 -8.115)" fill="#fff"/>
        <path id="Path_152" data-name="Path 152" d="M229.451,24.965H227.7V13.076h1.751v3.041a5.068,5.068,0,0,1,4.885-3.318v1.843h-.092c-2.581,0-4.7,1.843-4.7,5.438v4.885Z" transform="translate(-194.797 -8.099)" fill="#fff"/>
        <path id="Path_153" data-name="Path 153" d="M239.551,24.966H237.8V13.076h1.751V15.1a4.43,4.43,0,0,1,4.055-2.3c2.857,0,4.516,1.935,4.516,4.7v7.373h-1.751V17.961c0-2.212-1.2-3.594-3.318-3.594a3.51,3.51,0,0,0-3.594,3.687v6.912Z" transform="translate(-195.588 -8.1)" fill="#fff"/>
        <path id="Path_154" data-name="Path 154" d="M253.1,10.135V8.2h2.028v1.935Zm.184,14.47V12.716h1.751V24.605Z" transform="translate(-196.787 -7.739)" fill="#fff"/>
        <path id="Path_155" data-name="Path 155" d="M261.451,24.966H259.7V13.076h1.751V15.1a4.43,4.43,0,0,1,4.055-2.3c2.857,0,4.516,1.935,4.516,4.7v7.373h-1.751V17.961c0-2.212-1.2-3.594-3.318-3.594a3.51,3.51,0,0,0-3.594,3.687l.092,6.912Z" transform="translate(-197.304 -8.1)" fill="#fff"/>
        <path id="Path_156" data-name="Path 156" d="M280.3,28.66A9.258,9.258,0,0,1,274.861,27l.83-1.382a8.066,8.066,0,0,0,4.608,1.475c2.581,0,4.332-1.475,4.332-4.24V21.471a5.681,5.681,0,0,1-4.7,2.581,5.427,5.427,0,0,1-5.53-5.53,5.5,5.5,0,0,1,5.53-5.622,5.641,5.641,0,0,1,4.7,2.4v-2.12h1.751v9.77c-.092,3.779-2.488,5.714-6.083,5.714Zm-.092-14.286a3.892,3.892,0,0,0-4.147,4.055,4,4,0,0,0,4.147,4.055,4.176,4.176,0,0,0,4.424-4.055A4.23,4.23,0,0,0,280.206,14.375Z" transform="translate(-198.455 -8.107)" fill="#fff"/>
      </g>
    </g>
    <g transform="matrix(1, 0, 0, 1, 0, 0)" filter="url(#Path_635)">
      <path id="Path_635-2" data-name="Path 635" d="M3.763,0H27.984V-5.459H9.964v-9.805H27.613v-5.459H9.964v-9.169h18.02v-5.459H3.763Zm61.8,0h5.565V-18.5c0-5.194-2.65-7.738-7.367-7.738a10.857,10.857,0,0,0-8.692,4.717c-.848-2.809-3.18-4.717-7-4.717A11.055,11.055,0,0,0,39.75-22.1v-3.5H34.185V0H39.75V-17.861a7.746,7.746,0,0,1,5.883-3.445c3.021,0,4.24,1.855,4.24,4.611V0h5.565V-17.914a7.768,7.768,0,0,1,5.936-3.392c2.968,0,4.187,1.855,4.187,4.611ZM89.888.636c8.215,0,13.2-6.1,13.2-13.462,0-7.314-4.982-13.409-13.2-13.409-8.109,0-13.144,6.1-13.144,13.409C76.744-5.459,81.779.636,89.888.636Zm0-4.929c-4.717,0-7.367-3.975-7.367-8.533,0-4.505,2.65-8.48,7.367-8.48,4.77,0,7.42,3.975,7.42,8.48C97.308-8.268,94.658-4.293,89.888-4.293Zm26.5,4.929c2.6,0,4.24-.689,5.247-1.643L120.31-5.194a3.593,3.593,0,0,1-2.491.9c-1.59,0-2.438-1.272-2.438-3.021V-20.723h5.194V-25.6h-5.194v-7h-5.565v7h-4.24v4.876h4.24V-5.936C109.816-1.7,112.1.636,116.388.636Zm11.978-30.157a3.438,3.438,0,0,0,3.445-3.445,3.438,3.438,0,0,0-3.445-3.445,3.472,3.472,0,0,0-3.445,3.445A3.472,3.472,0,0,0,128.366-29.521ZM125.61,0h5.565V-25.6H125.61Zm24.327.636c8.215,0,13.2-6.1,13.2-13.462,0-7.314-4.982-13.409-13.2-13.409-8.109,0-13.144,6.1-13.144,13.409C136.793-5.459,141.828.636,149.937.636Zm0-4.929c-4.717,0-7.367-3.975-7.367-8.533,0-4.505,2.65-8.48,7.367-8.48,4.77,0,7.42,3.975,7.42,8.48C157.357-8.268,154.707-4.293,149.937-4.293ZM186.03,0H191.6V-18.02c0-5.247-2.756-8.215-8.268-8.215a12.112,12.112,0,0,0-9.01,4.134v-3.5h-5.565V0h5.565V-17.861a8.427,8.427,0,0,1,6.572-3.445c3.127,0,5.141,1.325,5.141,5.3Zm28.408,0H220V-16.96c0-6.89-4.982-9.275-10.653-9.275A15.223,15.223,0,0,0,198.591-22.1l2.279,3.869a10.482,10.482,0,0,1,7.579-3.233c3.551,0,5.989,1.8,5.989,4.77v3.816c-1.855-2.173-4.823-3.286-8.268-3.286-4.187,0-8.9,2.438-8.9,8.321,0,5.671,4.717,8.48,8.9,8.48a10.807,10.807,0,0,0,8.268-3.392Zm0-5.83a7.494,7.494,0,0,1-6.1,2.65c-3.127,0-5.459-1.8-5.459-4.558,0-2.809,2.332-4.611,5.459-4.611a7.494,7.494,0,0,1,6.1,2.65ZM227.211,0h5.565V-35.351h-5.565Zm12.773,0h5.565V-35.351h-5.565Zm12.508,5.035-.848,4.982a15.739,15.739,0,0,0,3.127.371c3.975-.053,7.049-1.431,8.8-5.777L275.918-25.6h-5.989L262.456-6.413,254.983-25.6h-5.936L259.541.318l-1.272,2.915a3.467,3.467,0,0,1-3.657,2.226A5.816,5.816,0,0,1,252.492,5.035Zm43.3-34.556a3.438,3.438,0,0,0,3.445-3.445,3.438,3.438,0,0,0-3.445-3.445,3.472,3.472,0,0,0-3.445,3.445A3.472,3.472,0,0,0,295.793-29.521ZM293.037,0H298.6V-25.6h-5.565Zm30.051,0h5.565V-18.02c0-5.247-2.756-8.215-8.268-8.215a12.112,12.112,0,0,0-9.01,4.134v-3.5H305.81V0h5.565V-17.861a8.427,8.427,0,0,1,6.572-3.445c3.127,0,5.141,1.325,5.141,5.3Zm20.458.636c2.6,0,4.24-.689,5.247-1.643l-1.325-4.187a3.593,3.593,0,0,1-2.491.9c-1.59,0-2.438-1.272-2.438-3.021V-20.723h5.194V-25.6h-5.194v-7h-5.565v7h-4.24v4.876h4.24V-5.936C336.974-1.7,339.253.636,343.546.636Zm7.632-13.462c0,8.109,5.724,13.462,13.409,13.462a14.922,14.922,0,0,0,10.388-3.71l-2.544-3.657a10.834,10.834,0,0,1-7.261,2.809,7.754,7.754,0,0,1-8.162-7.049h19.769V-12.3c0-8.056-4.929-13.939-12.614-13.939C356.584-26.235,351.178-20.246,351.178-12.826Zm12.985-8.851a6.847,6.847,0,0,1,7.208,6.784H356.955C357.22-18.02,359.393-21.677,364.163-21.677ZM382.289,0h5.565V-35.351h-5.565Zm12.773,0h5.565V-35.351h-5.565Zm15.529-29.521a3.438,3.438,0,0,0,3.445-3.445,3.438,3.438,0,0,0-3.445-3.445,3.472,3.472,0,0,0-3.445,3.445A3.472,3.472,0,0,0,410.591-29.521ZM407.835,0H413.4V-25.6h-5.565ZM420.29,6.572c3.127,2.862,6.36,3.816,10.706,3.816,6.307,0,13.144-2.491,13.144-11.713V-25.6h-5.565v3.551a10.2,10.2,0,0,0-8.215-4.187c-6.572,0-11.342,4.876-11.342,13.144,0,8.427,4.823,13.144,11.342,13.144a10.391,10.391,0,0,0,8.215-4.24v3.074c0,5.247-3.922,6.943-7.579,6.943-3.392,0-6.042-.9-8.109-3.286ZM438.575-8.321A8.307,8.307,0,0,1,432-4.876c-4.4,0-7.208-3.286-7.208-8.215S427.6-21.306,432-21.306a8.307,8.307,0,0,1,6.572,3.445Zm11.183-4.505c0,8.109,5.724,13.462,13.409,13.462a14.922,14.922,0,0,0,10.388-3.71l-2.544-3.657a10.834,10.834,0,0,1-7.261,2.809,7.754,7.754,0,0,1-8.162-7.049h19.769V-12.3c0-8.056-4.929-13.939-12.614-13.939C455.164-26.235,449.758-20.246,449.758-12.826Zm12.985-8.851a6.847,6.847,0,0,1,7.208,6.784H455.535C455.8-18.02,457.973-21.677,462.743-21.677ZM498.147,0h5.565V-18.02c0-5.247-2.756-8.215-8.268-8.215a12.112,12.112,0,0,0-9.01,4.134v-3.5h-5.565V0h5.565V-17.861a8.427,8.427,0,0,1,6.572-3.445c3.127,0,5.141,1.325,5.141,5.3ZM518.6.636c2.6,0,4.24-.689,5.247-1.643l-1.325-4.187a3.593,3.593,0,0,1-2.491.9c-1.59,0-2.438-1.272-2.438-3.021V-20.723h5.194V-25.6H517.6v-7h-5.565v7h-4.24v4.876h4.24V-5.936C512.033-1.7,514.312.636,518.6.636ZM9.169,82.752v-13.3a10.051,10.051,0,0,0,8.215,4.187c6.625,0,11.342-5.035,11.342-13.462S24.009,46.765,17.384,46.765A10.215,10.215,0,0,0,9.169,50.9V47.4H3.6V82.752Zm13.78-22.578c0,4.982-2.809,8.533-7.208,8.533a8.458,8.458,0,0,1-6.572-3.445V55.139a8.307,8.307,0,0,1,6.572-3.445C20.14,51.694,22.949,55.245,22.949,60.174Zm9.805,0c0,8.109,5.724,13.462,13.409,13.462a14.922,14.922,0,0,0,10.388-3.71l-2.544-3.657a10.834,10.834,0,0,1-7.261,2.809,7.754,7.754,0,0,1-8.162-7.049H58.353V60.7c0-8.056-4.929-13.939-12.614-13.939C38.16,46.765,32.754,52.754,32.754,60.174Zm12.985-8.851a6.847,6.847,0,0,1,7.208,6.784H38.531C38.8,54.98,40.969,51.323,45.739,51.323Zm29.68,22.313c8.215,0,13.2-6.1,13.2-13.462,0-7.314-4.982-13.409-13.2-13.409-8.109,0-13.144,6.1-13.144,13.409C62.275,67.541,67.31,73.636,75.419,73.636Zm0-4.929c-4.717,0-7.367-3.975-7.367-8.533,0-4.505,2.65-8.48,7.367-8.48,4.77,0,7.42,3.975,7.42,8.48C82.839,64.732,80.189,68.707,75.419,68.707ZM99.8,82.752v-13.3a10.051,10.051,0,0,0,8.215,4.187c6.625,0,11.342-5.035,11.342-13.462s-4.717-13.409-11.342-13.409A10.215,10.215,0,0,0,99.8,50.9V47.4H94.234V82.752Zm13.78-22.578c0,4.982-2.809,8.533-7.208,8.533A8.458,8.458,0,0,1,99.8,65.262V55.139a8.307,8.307,0,0,1,6.572-3.445C110.77,51.694,113.579,55.245,113.579,60.174ZM124.974,73h5.565V37.649h-5.565Zm11.183-12.826c0,8.109,5.724,13.462,13.409,13.462a14.922,14.922,0,0,0,10.388-3.71l-2.544-3.657a10.834,10.834,0,0,1-7.261,2.809,7.754,7.754,0,0,1-8.162-7.049h19.769V60.7c0-8.056-4.929-13.939-12.614-13.939C141.563,46.765,136.157,52.754,136.157,60.174Zm12.985-8.851a6.847,6.847,0,0,1,7.208,6.784H141.934C142.2,54.98,144.372,51.323,149.142,51.323ZM203.2,73h5.83l7.95-25.6h-5.777L205.8,66l-6.1-18.6h-4.876l-6.1,18.6-5.406-18.6H177.55L185.5,73h5.83l5.936-18.762Zm20.4-29.521a3.445,3.445,0,1,0-3.445-3.445A3.438,3.438,0,0,0,223.607,43.479ZM220.851,73h5.565V47.4h-5.565Zm20.458.636c2.6,0,4.24-.689,5.247-1.643l-1.325-4.187a3.593,3.593,0,0,1-2.491.9c-1.59,0-2.438-1.272-2.438-3.021V52.277H245.5V47.4H240.3v-7h-5.565v7H230.5v4.876h4.24V67.064C234.737,71.3,237.016,73.636,241.309,73.636ZM267.862,73h5.565V54.874c0-5.247-2.756-8.109-8.268-8.109A12.236,12.236,0,0,0,256.1,50.9V37.649h-5.565V73H256.1V55.139a8.6,8.6,0,0,1,6.572-3.445c3.127,0,5.194,1.219,5.194,5.194Zm42.029,0h5.565V56.04c0-6.89-4.982-9.275-10.653-9.275A15.223,15.223,0,0,0,294.044,50.9l2.279,3.869a10.482,10.482,0,0,1,7.579-3.233c3.551,0,5.989,1.8,5.989,4.77v3.816c-1.855-2.173-4.823-3.286-8.268-3.286-4.187,0-8.9,2.438-8.9,8.321,0,5.671,4.717,8.48,8.9,8.48a10.807,10.807,0,0,0,8.268-3.392Zm0-5.83a7.494,7.494,0,0,1-6.1,2.65c-3.127,0-5.459-1.8-5.459-4.558,0-2.809,2.332-4.611,5.459-4.611a7.494,7.494,0,0,1,6.1,2.65Zm19.5,5.83h5.989l10.441-25.6h-5.989l-7.473,19.186L324.89,47.4h-5.936Zm18.338-12.826c0,8.109,5.724,13.462,13.409,13.462a14.922,14.922,0,0,0,10.388-3.71l-2.544-3.657a10.834,10.834,0,0,1-7.261,2.809,7.754,7.754,0,0,1-8.162-7.049h19.769V60.7c0-8.056-4.929-13.939-12.614-13.939C353.139,46.765,347.733,52.754,347.733,60.174Zm12.985-8.851a6.847,6.847,0,0,1,7.208,6.784H353.51C353.775,54.98,355.948,51.323,360.718,51.323ZM378.844,73h5.565V55.563a8.839,8.839,0,0,1,6.572-3.392,8.2,8.2,0,0,1,1.749.159V46.818a10.932,10.932,0,0,0-8.321,4.346V47.4h-5.565Zm34.026,0h5.565V56.04c0-6.89-4.982-9.275-10.653-9.275A15.223,15.223,0,0,0,397.023,50.9l2.279,3.869a10.482,10.482,0,0,1,7.579-3.233c3.551,0,5.989,1.8,5.989,4.77v3.816c-1.855-2.173-4.823-3.286-8.268-3.286-4.187,0-8.9,2.438-8.9,8.321,0,5.671,4.717,8.48,8.9,8.48a10.807,10.807,0,0,0,8.268-3.392Zm0-5.83a7.494,7.494,0,0,1-6.1,2.65c-3.127,0-5.459-1.8-5.459-4.558,0-2.809,2.332-4.611,5.459-4.611a7.494,7.494,0,0,1,6.1,2.65Zm12.455,12.4c3.127,2.862,6.36,3.816,10.706,3.816,6.307,0,13.144-2.491,13.144-11.713V47.4H443.61v3.551a10.2,10.2,0,0,0-8.215-4.187c-6.572,0-11.342,4.876-11.342,13.144,0,8.427,4.823,13.144,11.342,13.144a10.391,10.391,0,0,0,8.215-4.24v3.074c0,5.247-3.922,6.943-7.579,6.943-3.392,0-6.042-.9-8.109-3.286ZM443.61,64.679a8.307,8.307,0,0,1-6.572,3.445c-4.4,0-7.208-3.286-7.208-8.215s2.809-8.215,7.208-8.215a8.307,8.307,0,0,1,6.572,3.445Zm11.183-4.505c0,8.109,5.724,13.462,13.409,13.462a14.922,14.922,0,0,0,10.388-3.71l-2.544-3.657a10.834,10.834,0,0,1-7.261,2.809,7.754,7.754,0,0,1-8.162-7.049h19.769V60.7c0-8.056-4.929-13.939-12.614-13.939C460.2,46.765,454.793,52.754,454.793,60.174Zm12.985-8.851a6.847,6.847,0,0,1,7.208,6.784H460.57C460.835,54.98,463.008,51.323,467.778,51.323ZM499.684,73h6.2V37.649h-6.2Zm48.283-17.649c0-10.547-7.473-18.285-18.073-18.285S511.821,44.8,511.821,55.351s7.473,18.285,18.073,18.285a18.577,18.577,0,0,0,8.9-2.12l3.074,3.445,4.293-3.6-2.915-3.286A18.515,18.515,0,0,0,547.967,55.351ZM529.894,68.124c-7.155,0-11.713-5.512-11.713-12.773,0-7.314,4.558-12.773,11.713-12.773,7.1,0,11.713,5.459,11.713,12.773a13.96,13.96,0,0,1-2.385,8.109l-4.4-4.929-4.293,3.551,4.4,4.982A11.885,11.885,0,0,1,529.894,68.124Zm21.677,1.537a15.569,15.569,0,0,0,10.971,3.975c6.89,0,10.653-3.445,10.653-7.95,0-6.042-5.459-7.314-9.911-8.268-3.021-.689-5.565-1.378-5.565-3.339,0-1.8,1.855-2.862,4.77-2.862a10.324,10.324,0,0,1,7.579,3.074l2.332-3.922a14.634,14.634,0,0,0-9.964-3.6c-6.466,0-10.07,3.6-10.07,7.791,0,5.724,5.247,6.89,9.646,7.844,3.127.689,5.83,1.484,5.83,3.71,0,1.908-1.7,3.127-5.035,3.127a13.213,13.213,0,0,1-8.692-3.6ZM15.158,146.636c8.215,0,13.2-6.1,13.2-13.462,0-7.314-4.982-13.409-13.2-13.409-8.109,0-13.144,6.1-13.144,13.409C2.014,140.541,7.049,146.636,15.158,146.636Zm0-4.929c-4.717,0-7.367-3.975-7.367-8.533,0-4.5,2.65-8.48,7.367-8.48,4.77,0,7.42,3.975,7.42,8.48C22.578,137.732,19.928,141.707,15.158,141.707ZM51.251,146h5.565V120.4H51.251v17.967a8.514,8.514,0,0,1-6.572,3.339c-3.127,0-5.141-1.219-5.141-5.194V120.4H33.973v18.126c0,5.247,2.7,8.109,8.215,8.109a12.269,12.269,0,0,0,9.063-4.028Zm20.458.636c2.6,0,4.24-.689,5.247-1.643l-1.325-4.187a3.593,3.593,0,0,1-2.491.9c-1.59,0-2.438-1.272-2.438-3.021V125.277H75.9V120.4H70.7v-7H65.137v7H60.9v4.876h4.24v14.787C65.137,144.3,67.416,146.636,71.709,146.636ZM86.5,155.752v-13.3a10.051,10.051,0,0,0,8.215,4.187c6.625,0,11.342-5.035,11.342-13.462s-4.717-13.409-11.342-13.409A10.215,10.215,0,0,0,86.5,123.9v-3.5H80.931v35.351Zm13.78-22.578c0,4.982-2.809,8.533-7.208,8.533a8.458,8.458,0,0,1-6.572-3.445V128.139a8.307,8.307,0,0,1,6.572-3.445C97.467,124.694,100.276,128.245,100.276,133.174Zm9.8,0c0,8.109,5.724,13.462,13.409,13.462a14.922,14.922,0,0,0,10.388-3.71l-2.544-3.657a10.834,10.834,0,0,1-7.261,2.809,7.754,7.754,0,0,1-8.162-7.049H135.68V133.7c0-8.056-4.929-13.939-12.614-13.939C115.487,119.765,110.081,125.754,110.081,133.174Zm12.985-8.851a6.847,6.847,0,0,1,7.208,6.784H115.858C116.123,127.98,118.3,124.323,123.066,124.323ZM141.192,146h5.565V128.563a8.839,8.839,0,0,1,6.572-3.392,8.2,8.2,0,0,1,1.749.159v-5.512a10.932,10.932,0,0,0-8.321,4.346V120.4h-5.565Zm19.716,0h5.565V125.277h5.194V120.4h-5.194V118.97c0-2.862,1.378-4.293,3.551-4.293a4.461,4.461,0,0,1,2.226.53l1.219-4.081a9.218,9.218,0,0,0-4.452-1.007c-4.717,0-8.109,3.127-8.109,8.851V120.4h-4.24v4.876h4.24Zm26.553.636c8.215,0,13.2-6.1,13.2-13.462,0-7.314-4.982-13.409-13.2-13.409-8.109,0-13.144,6.1-13.144,13.409C174.317,140.541,179.352,146.636,187.461,146.636Zm0-4.929c-4.717,0-7.367-3.975-7.367-8.533,0-4.5,2.65-8.48,7.367-8.48,4.77,0,7.42,3.975,7.42,8.48C194.881,137.732,192.231,141.707,187.461,141.707ZM206.276,146h5.565V128.563a8.839,8.839,0,0,1,6.572-3.392,8.2,8.2,0,0,1,1.749.159v-5.512a10.932,10.932,0,0,0-8.321,4.346V120.4h-5.565Zm49.767,0h5.565V127.5c0-5.194-2.65-7.738-7.367-7.738a10.857,10.857,0,0,0-8.692,4.717c-.848-2.809-3.18-4.717-7-4.717a11.055,11.055,0,0,0-8.321,4.134v-3.5h-5.565V146h5.565V128.139a7.746,7.746,0,0,1,5.883-3.445c3.021,0,4.24,1.855,4.24,4.611V146h5.565V128.086a7.768,7.768,0,0,1,5.936-3.392c2.968,0,4.187,1.855,4.187,4.611Zm34.079.636c2.6,0,4.24-.689,5.247-1.643l-1.325-4.187a3.593,3.593,0,0,1-2.491.9c-1.59,0-2.438-1.272-2.438-3.021V125.277h5.194V120.4h-5.194v-7H283.55v7h-4.24v4.876h4.24v14.787C283.55,144.3,285.829,146.636,290.122,146.636ZM316.675,146h5.565V127.874c0-5.247-2.756-8.109-8.268-8.109a12.236,12.236,0,0,0-9.063,4.134v-13.25h-5.565V146h5.565V128.139a8.6,8.6,0,0,1,6.572-3.445c3.127,0,5.194,1.219,5.194,5.194Zm24.327.636c8.215,0,13.2-6.1,13.2-13.462,0-7.314-4.982-13.409-13.2-13.409-8.109,0-13.144,6.1-13.144,13.409C327.858,140.541,332.893,146.636,341,146.636Zm0-4.929c-4.717,0-7.367-3.975-7.367-8.533,0-4.5,2.65-8.48,7.367-8.48,4.77,0,7.42,3.975,7.42,8.48C348.422,137.732,345.772,141.707,341,141.707Zm16.589.954a15.569,15.569,0,0,0,10.971,3.975c6.89,0,10.653-3.445,10.653-7.95,0-6.042-5.459-7.314-9.911-8.268-3.021-.689-5.565-1.378-5.565-3.339,0-1.8,1.855-2.862,4.77-2.862a10.324,10.324,0,0,1,7.579,3.074l2.332-3.922a14.635,14.635,0,0,0-9.964-3.6c-6.466,0-10.07,3.6-10.07,7.791,0,5.724,5.247,6.89,9.646,7.844,3.127.689,5.83,1.484,5.83,3.71,0,1.908-1.7,3.127-5.035,3.127a13.213,13.213,0,0,1-8.692-3.6Zm25.652-9.487c0,8.109,5.724,13.462,13.409,13.462a14.922,14.922,0,0,0,10.388-3.71l-2.544-3.657a10.834,10.834,0,0,1-7.261,2.809,7.754,7.754,0,0,1-8.162-7.049h19.769V133.7c0-8.056-4.929-13.939-12.614-13.939C388.649,119.765,383.243,125.754,383.243,133.174Zm12.985-8.851a6.847,6.847,0,0,1,7.208,6.784H389.02C389.285,127.98,391.458,124.323,396.228,124.323ZM450.288,146h5.83l7.95-25.6h-5.777L452.885,139l-6.1-18.6h-4.876l-6.1,18.6-5.406-18.6h-5.777l7.95,25.6h5.83l5.936-18.762Zm20.4-29.521a3.445,3.445,0,1,0-3.445-3.445A3.438,3.438,0,0,0,470.693,116.479ZM467.937,146H473.5V120.4h-5.565Zm20.458.636c2.6,0,4.24-.689,5.247-1.643l-1.325-4.187a3.593,3.593,0,0,1-2.491.9c-1.59,0-2.438-1.272-2.438-3.021V125.277h5.194V120.4h-5.194v-7h-5.565v7h-4.24v4.876h4.24v14.787C481.823,144.3,484.1,146.636,488.4,146.636ZM514.948,146h5.565V127.874c0-5.247-2.756-8.109-8.268-8.109a12.236,12.236,0,0,0-9.063,4.134v-13.25h-5.565V146h5.565V128.139a8.6,8.6,0,0,1,6.572-3.445c3.127,0,5.194,1.219,5.194,5.194ZM2.014,206.174c0,8.109,5.724,13.462,13.409,13.462a14.922,14.922,0,0,0,10.388-3.71l-2.544-3.657a10.834,10.834,0,0,1-7.261,2.809,7.754,7.754,0,0,1-8.162-7.049H27.613V206.7c0-8.056-4.929-13.939-12.614-13.939C7.42,192.765,2.014,198.754,2.014,206.174ZM15,197.323a6.847,6.847,0,0,1,7.208,6.784H7.791C8.056,200.98,10.229,197.323,15,197.323ZM47.17,219h6.254L43.99,205.856,52.841,193.4H46.587l-6.042,8.692L34.45,193.4H28.2l8.851,12.455L27.666,219h6.2l6.678-9.434Zm7.208-12.826c0,7.791,5.459,13.462,13.25,13.462,4.982,0,8-2.12,9.805-4.558l-3.657-3.392a6.959,6.959,0,0,1-5.883,3.021c-4.664,0-7.738-3.551-7.738-8.533s3.074-8.48,7.738-8.48a6.833,6.833,0,0,1,5.883,3.021l3.657-3.392c-1.8-2.438-4.823-4.558-9.805-4.558C59.837,192.765,54.378,198.436,54.378,206.174Zm26.341,0c0,8.109,5.724,13.462,13.409,13.462a14.922,14.922,0,0,0,10.388-3.71l-2.544-3.657a10.834,10.834,0,0,1-7.261,2.809,7.754,7.754,0,0,1-8.162-7.049h19.769V206.7c0-8.056-4.929-13.939-12.614-13.939C86.125,192.765,80.719,198.754,80.719,206.174ZM93.7,197.323a6.847,6.847,0,0,1,7.208,6.784H86.5C86.761,200.98,88.934,197.323,93.7,197.323Zm23.691,31.429v-13.3a10.051,10.051,0,0,0,8.215,4.187c6.625,0,11.342-5.035,11.342-13.462s-4.717-13.409-11.342-13.409a10.215,10.215,0,0,0-8.215,4.134v-3.5H111.83v35.351Zm13.78-22.578c0,4.982-2.809,8.533-7.208,8.533a8.458,8.458,0,0,1-6.572-3.445V201.139a8.307,8.307,0,0,1,6.572-3.445C128.366,197.694,131.175,201.245,131.175,206.174Zm19.08,13.462c2.6,0,4.24-.689,5.247-1.643l-1.325-4.187a3.593,3.593,0,0,1-2.491.9c-1.59,0-2.438-1.272-2.438-3.021V198.277h5.194V193.4h-5.194v-7h-5.565v7h-4.24v4.876h4.24v14.787C143.683,217.3,145.962,219.636,150.255,219.636Zm11.978-30.157a3.445,3.445,0,1,0-3.445-3.445A3.438,3.438,0,0,0,162.233,189.479ZM159.477,219h5.565V193.4h-5.565Zm24.327.636c8.215,0,13.2-6.1,13.2-13.462,0-7.314-4.982-13.409-13.2-13.409-8.109,0-13.144,6.1-13.144,13.409C170.66,213.541,175.695,219.636,183.8,219.636Zm0-4.929c-4.717,0-7.367-3.975-7.367-8.533,0-4.5,2.65-8.48,7.367-8.48,4.77,0,7.42,3.975,7.42,8.48C191.224,210.732,188.574,214.707,183.8,214.707ZM219.9,219h5.565V200.98c0-5.247-2.756-8.215-8.268-8.215a12.112,12.112,0,0,0-9.01,4.134v-3.5h-5.565V219h5.565V201.139a8.427,8.427,0,0,1,6.572-3.445c3.127,0,5.141,1.325,5.141,5.3Zm28.408,0h5.565V202.04c0-6.89-4.982-9.275-10.653-9.275a15.223,15.223,0,0,0-10.759,4.134l2.279,3.869a10.482,10.482,0,0,1,7.579-3.233c3.551,0,5.989,1.8,5.989,4.77v3.816c-1.855-2.173-4.823-3.286-8.268-3.286-4.187,0-8.9,2.438-8.9,8.321,0,5.671,4.717,8.48,8.9,8.48a10.807,10.807,0,0,0,8.268-3.392Zm0-5.83a7.494,7.494,0,0,1-6.1,2.65c-3.127,0-5.459-1.8-5.459-4.558,0-2.809,2.332-4.611,5.459-4.611a7.494,7.494,0,0,1,6.1,2.65ZM261.078,219h5.565V183.649h-5.565Zm26.553,0h6.2V183.649h-6.2Zm48.283-17.649c0-10.547-7.473-18.285-18.073-18.285s-18.073,7.738-18.073,18.285,7.473,18.285,18.073,18.285a18.577,18.577,0,0,0,8.9-2.12l3.074,3.445,4.293-3.6-2.915-3.286A18.515,18.515,0,0,0,335.914,201.351Zm-18.073,12.773c-7.155,0-11.713-5.512-11.713-12.773,0-7.314,4.558-12.773,11.713-12.773,7.1,0,11.713,5.459,11.713,12.773a13.961,13.961,0,0,1-2.385,8.109l-4.4-4.929-4.293,3.551,4.4,4.982A11.885,11.885,0,0,1,317.841,214.124Zm21.677,1.537a15.569,15.569,0,0,0,10.971,3.975c6.89,0,10.653-3.445,10.653-7.95,0-6.042-5.459-7.314-9.911-8.268-3.021-.689-5.565-1.378-5.565-3.339,0-1.8,1.855-2.862,4.77-2.862a10.324,10.324,0,0,1,7.579,3.074l2.332-3.922a14.635,14.635,0,0,0-9.964-3.6c-6.466,0-10.07,3.6-10.07,7.791,0,5.724,5.247,6.89,9.646,7.844,3.127.689,5.83,1.484,5.83,3.71,0,1.908-1.7,3.127-5.035,3.127a13.213,13.213,0,0,1-8.692-3.6ZM383.19,219h6.784L403.7,187.942v-4.293H378.208v5.459h18.338Zm23.956-17.649c0,8.9,4.24,18.285,14.151,18.285s14.151-9.381,14.151-18.285-4.24-18.232-14.151-18.232S407.146,192.447,407.146,201.351Zm21.995,0c0,6.731-2.067,12.773-7.844,12.773s-7.844-6.042-7.844-12.773,2.067-12.72,7.844-12.72S429.141,194.62,429.141,201.351Zm9.964-9.381a8.8,8.8,0,0,0,17.6,0,8.8,8.8,0,1,0-17.6,0ZM444.458,219h3.5l22.631-35.351h-3.551Zm8.109-27.03c0,3.021-1.961,5.194-4.717,5.194-2.7,0-4.664-2.173-4.664-5.194,0-3.18,1.961-5.3,4.664-5.3C450.606,186.67,452.567,188.79,452.567,191.97Zm5.565,18.974a8.772,8.772,0,0,0,17.543,0,8.772,8.772,0,1,0-17.543,0Zm13.462,0c0,3.074-1.961,5.194-4.717,5.194s-4.664-2.12-4.664-5.194c0-3.18,1.908-5.3,4.664-5.3S471.594,207.764,471.594,210.944Zm34.344,8.692c8.215,0,13.2-6.1,13.2-13.462,0-7.314-4.982-13.409-13.2-13.409-8.109,0-13.144,6.1-13.144,13.409C492.794,213.541,497.829,219.636,505.938,219.636Zm0-4.929c-4.717,0-7.367-3.975-7.367-8.533,0-4.5,2.65-8.48,7.367-8.48,4.77,0,7.42,3.975,7.42,8.48C513.358,210.732,510.708,214.707,505.938,214.707ZM526.078,219h5.565V198.277h5.194V193.4h-5.194V191.97c0-2.862,1.378-4.293,3.551-4.293a4.46,4.46,0,0,1,2.226.53l1.219-4.081a9.218,9.218,0,0,0-4.452-1.007c-4.717,0-8.109,3.127-8.109,8.851V193.4h-4.24v4.876h4.24Zm36.3.636c2.6,0,4.24-.689,5.247-1.643l-1.325-4.187a3.593,3.593,0,0,1-2.491.9c-1.59,0-2.438-1.272-2.438-3.021V198.277h5.194V193.4h-5.194v-7h-5.565v7h-4.24v4.876h4.24v14.787C555.811,217.3,558.09,219.636,562.383,219.636ZM588.936,219H594.5V200.874c0-5.247-2.756-8.109-8.268-8.109a12.236,12.236,0,0,0-9.063,4.134v-13.25H571.6V219h5.565V201.139a8.6,8.6,0,0,1,6.572-3.445c3.127,0,5.194,1.219,5.194,5.194Zm11.183-12.826c0,8.109,5.724,13.462,13.409,13.462a14.921,14.921,0,0,0,10.388-3.71l-2.544-3.657a10.835,10.835,0,0,1-7.261,2.809,7.754,7.754,0,0,1-8.162-7.049h19.769V206.7c0-8.056-4.929-13.939-12.614-13.939C605.525,192.765,600.119,198.754,600.119,206.174Zm12.985-8.851a6.847,6.847,0,0,1,7.208,6.784H605.9C606.161,200.98,608.334,197.323,613.1,197.323Zm39.432,22.313c2.6,0,4.24-.689,5.247-1.643l-1.325-4.187a3.593,3.593,0,0,1-2.491.9c-1.59,0-2.438-1.272-2.438-3.021V198.277h5.194V193.4h-5.194v-7h-5.565v7h-4.24v4.876h4.24v14.787C645.964,217.3,648.243,219.636,652.536,219.636Zm11.978-30.157a3.445,3.445,0,1,0-3.445-3.445A3.438,3.438,0,0,0,664.514,189.479ZM661.758,219h5.565V193.4h-5.565Zm44.149,0h5.565V200.5c0-5.194-2.65-7.738-7.367-7.738a10.857,10.857,0,0,0-8.692,4.717c-.848-2.809-3.18-4.717-7-4.717A11.055,11.055,0,0,0,680.1,196.9v-3.5h-5.565V219H680.1V201.139a7.746,7.746,0,0,1,5.883-3.445c3.021,0,4.24,1.855,4.24,4.611V219h5.565V201.086a7.768,7.768,0,0,1,5.936-3.392c2.968,0,4.187,1.855,4.187,4.611Zm11.183-12.826c0,8.109,5.724,13.462,13.409,13.462a14.921,14.921,0,0,0,10.388-3.71l-2.544-3.657a10.835,10.835,0,0,1-7.261,2.809,7.754,7.754,0,0,1-8.162-7.049h19.769V206.7c0-8.056-4.929-13.939-12.614-13.939C722.5,192.765,717.09,198.754,717.09,206.174Zm12.985-8.851a6.847,6.847,0,0,1,7.208,6.784H722.867C723.132,200.98,725.3,197.323,730.075,197.323Z" transform="translate(428 275)"/>
    </g>
    <g id="Group_76" data-name="Group 76" transform="translate(-11.375 144.619)">
      <path id="Path_180" data-name="Path 180" d="M218.089,318.5a20.983,20.983,0,0,1-22.814,14.989c.024-.448.053-.892.062-1.345a4.139,4.139,0,1,0-8.275-.189c-.354,15.8-10.807,21.372-19.753,21.372h-.244c-9.343-.108-18.8-6.258-18.8-17.812V249.706a39.65,39.65,0,0,0,29.777,13.541,39.063,39.063,0,0,0,9.08-1.07,20.944,20.944,0,0,1-12.475,39.969,4.139,4.139,0,0,0-2.23,7.972,29.2,29.2,0,0,0,34.594-16.287A20.982,20.982,0,0,1,218.089,318.5Zm8.691-10.576a29.278,29.278,0,0,0-17.507-22.143A29.308,29.308,0,0,0,197.3,258.212a39.479,39.479,0,0,0,16.788-18.483,34.775,34.775,0,0,1,12.688,68.2Zm52.187-113.115a23.9,23.9,0,0,1-15.894,1.855,26.007,26.007,0,0,0-15.751-29.127,4.139,4.139,0,0,0-3.1,7.676,17.692,17.692,0,0,1-13.242,32.812,4.141,4.141,0,0,0-3.1,7.68,25.969,25.969,0,0,0,32.287-11.231,31.839,31.839,0,0,0,18.1-.49,26.184,26.184,0,0,1-26.5,43.674,43.139,43.139,0,0,0-35.012-16.415,39.456,39.456,0,0,0-50.809-45.061,4.138,4.138,0,0,0,2.531,7.88,31.2,31.2,0,0,1,19.061,59.41c-.272.086-.549.163-.822.242a4.054,4.054,0,0,0-1.365.365A31.232,31.232,0,0,1,148.309,233.3c-.015-.04-.033-.068-.046-.1V114.469c0-11.912,6.34-21.9,16.54-26.073a24.691,24.691,0,0,1,27.358,5.869,4.14,4.14,0,1,0,5.913-5.795,35.528,35.528,0,0,0-4.612-3.964,27.788,27.788,0,0,1,44.995,32.544,4.139,4.139,0,0,0,6.9,4.575,35.893,35.893,0,0,0,5.111-11.965,21.725,21.725,0,1,1-14.885,27.606,29.222,29.222,0,0,0-56.645,14.382,4.137,4.137,0,0,0,4.015,3.138,4.053,4.053,0,0,0,1-.123,4.139,4.139,0,0,0,3.015-5.017A20.944,20.944,0,0,1,227.612,139.5c.011.046.033.088.046.132s.013.086.026.13a30.015,30.015,0,0,0,50.433,11.4,24.073,24.073,0,0,1,.848,43.652Z" transform="translate(96.032 1.805)" fill="#bfc1c3"/>
      <path id="Path_181" data-name="Path 181" d="M204.26,339.811a439.224,439.224,0,0,1-62.466-52.8C110.651,255.021,73.53,205.247,73.53,149.79a73.376,73.376,0,0,1,130.73-45.775Z" transform="translate(6.544 4.821)" fill="#e94e68"/>
      <path id="Path_182" data-name="Path 182" d="M212.023,107.445A80.269,80.269,0,0,0,68.065,156.308c0,25.365,7.348,51.6,21.845,77.952,11.5,20.922,27.518,41.975,47.6,62.581A427.563,427.563,0,0,0,206.534,354a4.141,4.141,0,0,0,6.348-3.5V109.964A4.129,4.129,0,0,0,212.023,107.445Zm-7.421,235.3a431.059,431.059,0,0,1-61.286-51.811c-30.555-31.381-66.975-80.217-66.975-134.628A71.992,71.992,0,0,1,204.6,111.394Z" transform="translate(0 4.37)" fill="#000c1d"/>
      <path id="Path_183" data-name="Path 183" d="M301.245,190.453a32.342,32.342,0,0,0-16.037-39.389,30.006,30.006,0,0,0-31.619-43.294,36.055,36.055,0,0,0-65.218-20.515,32.573,32.573,0,0,0-24.449.253c-13.378,5.465-21.689,18.39-21.689,33.733V342.289c0,16.747,13.9,25.943,26.989,26.09l.321,0c10.961,0,22.66-6.285,26.633-19.944a29.221,29.221,0,0,0,32.115-20.878,28.605,28.605,0,0,0,.908-4.4,43.028,43.028,0,0,0,30.533-59.179c.872.066,1.747.108,2.619.108a34.5,34.5,0,0,0,26.033-57.083A32.126,32.126,0,0,0,301.245,190.453ZM220.337,325.274a20.977,20.977,0,0,1-22.812,14.991c.026-.448.051-.894.062-1.351a4.14,4.14,0,0,0-8.278-.182c-.354,15.793-10.807,21.372-19.753,21.372h-.239c-9.343-.108-18.806-6.26-18.806-17.815v-85.81a39.442,39.442,0,0,0,38.859,12.47A20.943,20.943,0,0,1,176.9,308.917a4.14,4.14,0,1,0-2.235,7.972A29.19,29.19,0,0,0,209.258,300.6,20.982,20.982,0,0,1,220.337,325.274Zm8.691-10.576a29.281,29.281,0,0,0-17.5-22.143,29.316,29.316,0,0,0-11.974-27.571A39.514,39.514,0,0,0,216.342,246.5a34.774,34.774,0,0,1,12.686,68.2Zm52.187-113.113a23.891,23.891,0,0,1-15.892,1.85,26.014,26.014,0,0,0-15.751-29.127,4.14,4.14,0,0,0-3.1,7.68A17.691,17.691,0,1,1,233.23,214.8a4.142,4.142,0,0,0-3.1,7.682,25.97,25.97,0,0,0,32.287-11.235,31.854,31.854,0,0,0,18.1-.488,26.185,26.185,0,0,1-26.5,43.676,43.128,43.128,0,0,0-35.009-16.415,39.463,39.463,0,0,0-50.809-45.067,4.139,4.139,0,1,0,2.527,7.882A31.2,31.2,0,1,1,189.8,260.248c-.273.086-.549.16-.822.24a4.024,4.024,0,0,0-1.358.363,31.237,31.237,0,0,1-37.057-20.779.639.639,0,0,0-.046-.105V121.241c0-11.912,6.34-21.906,16.54-26.07a24.7,24.7,0,0,1,27.36,5.867,4.139,4.139,0,1,0,5.911-5.795,35.986,35.986,0,0,0-4.612-3.969,27.79,27.79,0,0,1,44.995,32.551,4.139,4.139,0,1,0,6.9,4.575,35.951,35.951,0,0,0,5.116-11.969,21.728,21.728,0,1,1-14.888,27.611,29.22,29.22,0,0,0-56.643,14.378,4.144,4.144,0,0,0,4.013,3.142,4.275,4.275,0,0,0,1-.125,4.14,4.14,0,0,0,3.013-5.021,20.945,20.945,0,0,1,40.644-10.143c.011.048.033.086.048.134s.015.088.026.13a30.017,30.017,0,0,0,50.433,11.4,24.074,24.074,0,0,1,.846,43.652Z" transform="translate(88.812)" fill="#000c1d"/>
    </g>
  </g>
</svg>
