<svg xmlns="http://www.w3.org/2000/svg" xmlns:xlink="http://www.w3.org/1999/xlink" viewBox="0 0 1280 800"><defs><path id="a" d="M0 0h1280v800H0z"/><path id="c" d="M42.019 72L14.875 34.092V72H5.749V19.974h9.36l26.598 36.894V19.974h9.126V72h-8.814zm17.316-18.876c0-10.92 7.956-19.734 19.11-19.734 11.31 0 18.564 8.658 18.564 20.514v1.95H67.915c.624 5.694 4.914 10.374 12.012 10.374 3.666 0 8.034-1.482 10.686-4.134l3.744 5.382c-3.744 3.588-9.282 5.46-15.288 5.46-11.31 0-19.734-7.878-19.734-19.812zm19.11-13.026c-7.02 0-10.218 5.382-10.608 9.984h21.216c-.156-4.446-3.198-9.984-10.608-9.984zM137.959 72l-8.736-27.612L120.487 72h-8.58l-11.7-37.674h8.502l7.956 27.378 8.97-27.378h7.176l8.97 27.378 7.956-27.378h8.502L146.539 72h-8.58zm82.446 0V49.302h-27.066V72h-9.126V19.974h9.126v21.294h27.066V19.974h9.126V72h-9.126zm24.024-43.914c-2.73 0-5.07-2.262-5.07-5.07 0-2.808 2.34-5.07 5.07-5.07a5.06 5.06 0 0 1 5.07 5.07 5.06 5.06 0 0 1-5.07 5.07zM240.373 72V34.326h8.19V72h-8.19zm18.798 0V34.326h8.19v5.538c2.808-3.588 7.332-6.396 12.246-6.396v8.112c-.702-.156-1.56-.234-2.574-.234-3.432 0-8.034 2.34-9.672 4.992V72h-8.19zm24.726-18.876c0-10.92 7.956-19.734 19.11-19.734 11.31 0 18.564 8.658 18.564 20.514v1.95h-29.094c.624 5.694 4.914 10.374 12.012 10.374 3.666 0 8.034-1.482 10.686-4.134l3.744 5.382c-3.744 3.588-9.282 5.46-15.288 5.46-11.31 0-19.734-7.878-19.734-19.812zm19.11-13.026c-7.02 0-10.218 5.382-10.608 9.984h21.216c-.156-4.446-3.198-9.984-10.608-9.984zm44.616 5.928c0-15.522 10.998-26.91 26.598-26.91s26.598 11.388 26.598 26.91-10.998 26.91-26.598 26.91-26.598-11.388-26.598-26.91zm43.836 0c0-10.764-6.786-18.798-17.238-18.798-10.53 0-17.238 8.034-17.238 18.798 0 10.686 6.708 18.798 17.238 18.798 10.452 0 17.238-8.112 17.238-18.798zM434.827 72V48.444c0-5.85-2.964-7.8-7.566-7.8-4.212 0-7.8 2.496-9.672 5.07V72h-8.19V34.326h8.19v5.148c2.496-2.964 7.332-6.084 13.26-6.084 8.112 0 12.168 4.368 12.168 12.09V72h-8.19zm18.798 0V19.974h8.19v19.578c2.964-3.978 7.332-6.162 12.09-6.162 9.672 0 16.692 7.644 16.692 19.812 0 12.402-7.098 19.734-16.692 19.734-4.914 0-9.204-2.34-12.09-6.084V72h-8.19zm8.19-11.31c1.794 2.808 5.85 4.992 9.672 4.992 6.552 0 10.686-5.148 10.686-12.48 0-7.332-4.134-12.558-10.686-12.558-3.822 0-7.878 2.34-9.672 5.148V60.69zm54.132 12.246c-11.934 0-19.344-8.97-19.344-19.812 0-10.764 7.41-19.734 19.344-19.734 12.09 0 19.422 8.97 19.422 19.734 0 10.842-7.332 19.812-19.422 19.812zm0-7.254c7.02 0 10.92-5.85 10.92-12.558 0-6.63-3.9-12.48-10.92-12.48-6.942 0-10.842 5.85-10.842 12.48 0 6.708 3.9 12.558 10.842 12.558zm50.7 6.318v-4.056c-2.808 3.198-7.176 4.992-12.168 4.992-6.162 0-13.104-4.134-13.104-12.48 0-8.658 6.942-12.246 13.104-12.246 5.07 0 9.438 1.638 12.168 4.836V47.43c0-4.368-3.588-7.02-8.814-7.02-4.212 0-7.878 1.56-11.154 4.758l-3.354-5.694c4.368-4.134 9.828-6.084 15.834-6.084 8.346 0 15.678 3.51 15.678 13.65V72h-8.19zm0-8.58v-5.694c-1.872-2.574-5.382-3.9-8.97-3.9-4.602 0-8.034 2.652-8.034 6.786 0 4.056 3.432 6.708 8.034 6.708 3.588 0 7.098-1.326 8.97-3.9zM585.445 72V34.326h8.19v5.538c2.808-3.588 7.332-6.396 12.246-6.396v8.112c-.702-.156-1.56-.234-2.574-.234-3.432 0-8.034 2.34-9.672 4.992V72h-8.19zm53.586 0v-5.148c-2.886 3.744-7.254 6.084-12.09 6.084-9.672 0-16.77-7.332-16.77-19.734 0-12.168 7.02-19.812 16.77-19.812 4.68 0 9.048 2.184 12.09 6.162V19.974h8.19V72h-8.19zm0-11.31V45.714c-1.872-2.808-5.85-5.07-9.75-5.07-6.474 0-10.608 5.226-10.608 12.558 0 7.254 4.134 12.48 10.608 12.48 3.9 0 7.878-2.184 9.75-4.992zm22.854-32.604c-2.73 0-5.07-2.262-5.07-5.07 0-2.808 2.34-5.07 5.07-5.07a5.06 5.06 0 0 1 5.07 5.07 5.06 5.06 0 0 1-5.07 5.07zM657.829 72V34.326h8.19V72h-8.19zm44.226 0V48.444c0-5.85-2.964-7.8-7.566-7.8-4.212 0-7.8 2.496-9.672 5.07V72h-8.19V34.326h8.19v5.148c2.496-2.964 7.332-6.084 13.26-6.084 8.112 0 12.168 4.368 12.168 12.09V72h-8.19zm18.33 9.672l3.822-5.928c3.042 3.51 6.942 4.836 11.934 4.836 5.382 0 11.154-2.496 11.154-10.218v-4.524c-2.886 3.744-7.176 6.24-12.09 6.24-9.594 0-16.692-6.942-16.692-19.344 0-12.168 7.02-19.344 16.692-19.344 4.758 0 9.048 2.184 12.09 6.162v-5.226h8.19V70.05c0 13.572-10.062 17.238-19.344 17.238-6.396 0-11.154-1.404-15.756-5.616zm26.91-21.918v-14.04c-1.794-2.808-5.85-5.07-9.672-5.07-6.474 0-10.608 4.836-10.608 12.09s4.134 12.09 10.608 12.09c3.822 0 7.878-2.262 9.672-5.07z"/><path id="d" d="M52.666 154.668l5.07-7.02c3.588 3.822 9.204 7.176 16.458 7.176 7.488 0 10.452-3.666 10.452-7.098 0-4.68-5.538-6.084-11.856-7.722-8.502-2.106-18.486-4.602-18.486-15.6 0-8.58 7.566-15.21 18.954-15.21 8.112 0 14.664 2.574 19.5 7.254l-5.226 6.786c-4.056-4.056-9.594-5.928-15.054-5.928-5.382 0-8.814 2.574-8.814 6.474 0 4.056 5.304 5.382 11.466 6.942 8.58 2.184 18.798 4.836 18.798 16.146 0 8.658-6.084 16.068-20.124 16.068-9.594 0-16.536-3.354-21.138-8.268zm59.592 8.268c-6.318 0-9.672-3.432-9.672-9.672v-21.762h-6.24v-7.176h6.24V114.03h8.19v10.296h7.644v7.176h-7.644v19.734c0 2.574 1.248 4.446 3.588 4.446 1.56 0 3.042-.624 3.666-1.326l1.95 6.162c-1.482 1.404-3.9 2.418-7.722 2.418zM148.84 162v-4.056c-2.808 3.198-7.176 4.992-12.168 4.992-6.162 0-13.104-4.134-13.104-12.48 0-8.658 6.942-12.246 13.104-12.246 5.07 0 9.438 1.638 12.168 4.836v-5.616c0-4.368-3.588-7.02-8.814-7.02-4.212 0-7.878 1.56-11.154 4.758l-3.354-5.694c4.368-4.134 9.828-6.084 15.834-6.084 8.346 0 15.678 3.51 15.678 13.65V162h-8.19zm0-8.58v-5.694c-1.872-2.574-5.382-3.9-8.97-3.9-4.602 0-8.034 2.652-8.034 6.786 0 4.056 3.432 6.708 8.034 6.708 3.588 0 7.098-1.326 8.97-3.9zm18.798 8.58v-37.674h8.19v5.538c2.808-3.588 7.332-6.396 12.246-6.396v8.112c-.702-.156-1.56-.234-2.574-.234-3.432 0-8.034 2.34-9.672 4.992V162h-8.19zm38.376.936c-6.318 0-9.672-3.432-9.672-9.672v-21.762h-6.24v-7.176h6.24V114.03h8.19v10.296h7.644v7.176h-7.644v19.734c0 2.574 1.248 4.446 3.588 4.446 1.56 0 3.042-.624 3.666-1.326l1.95 6.162c-1.482 1.404-3.9 2.418-7.722 2.418zm10.296-5.85l3.744-5.928c2.652 2.73 7.878 5.304 12.792 5.304s7.41-1.794 7.41-4.602c0-3.276-3.978-4.446-8.58-5.46-6.474-1.404-14.196-3.12-14.196-11.544 0-6.162 5.304-11.466 14.82-11.466 6.396 0 11.232 2.262 14.664 5.304l-3.432 5.772c-2.262-2.574-6.474-4.524-11.154-4.524-4.29 0-7.02 1.56-7.02 4.212 0 2.886 3.744 3.9 8.19 4.914 6.552 1.404 14.586 3.276 14.586 12.168 0 6.63-5.538 11.7-15.678 11.7-6.396 0-12.246-2.028-16.146-5.85zM276.682 162v-52.026h25.584c9.516 0 14.82 5.928 14.82 13.26 0 6.552-4.212 10.92-9.048 11.934 5.538.858 10.062 6.396 10.062 12.792 0 8.034-5.382 14.04-15.132 14.04h-26.286zm9.126-30.498h14.586c4.68 0 7.332-2.808 7.332-6.708 0-3.9-2.652-6.786-7.332-6.786h-14.586v13.494zm0 22.464h14.976c4.992 0 7.956-2.73 7.956-7.254 0-3.9-2.73-7.176-7.956-7.176h-14.976v14.43zm38.844-10.842c0-10.92 7.956-19.734 19.11-19.734 11.31 0 18.564 8.658 18.564 20.514v1.95h-29.094c.624 5.694 4.914 10.374 12.012 10.374 3.666 0 8.034-1.482 10.686-4.134l3.744 5.382c-3.744 3.588-9.282 5.46-15.288 5.46-11.31 0-19.734-7.878-19.734-19.812zm19.11-13.026c-7.02 0-10.218 5.382-10.608 9.984h21.216c-.156-4.446-3.198-9.984-10.608-9.984zM372.388 162v-30.498h-6.24v-7.176h6.24v-2.106c0-8.424 4.992-13.026 11.934-13.026 2.574 0 4.914.546 6.552 1.482l-1.794 6.006c-.936-.546-2.106-.78-3.276-.78-3.198 0-5.226 2.106-5.226 6.318v2.106h7.644v7.176h-7.644V162h-8.19zm39.078.936c-11.934 0-19.344-8.97-19.344-19.812 0-10.764 7.41-19.734 19.344-19.734 12.09 0 19.422 8.97 19.422 19.734 0 10.842-7.332 19.812-19.422 19.812zm0-7.254c7.02 0 10.92-5.85 10.92-12.558 0-6.63-3.9-12.48-10.92-12.48-6.942 0-10.842 5.85-10.842 12.48 0 6.708 3.9 12.558 10.842 12.558zm27.69 6.318v-37.674h8.19v5.538c2.808-3.588 7.332-6.396 12.246-6.396v8.112c-.702-.156-1.56-.234-2.574-.234-3.432 0-8.034 2.34-9.672 4.992V162h-8.19zm24.726-18.876c0-10.92 7.956-19.734 19.11-19.734 11.31 0 18.564 8.658 18.564 20.514v1.95h-29.094c.624 5.694 4.914 10.374 12.012 10.374 3.666 0 8.034-1.482 10.686-4.134l3.744 5.382c-3.744 3.588-9.282 5.46-15.288 5.46-11.31 0-19.734-7.878-19.734-19.812zm19.11-13.026c-7.02 0-10.218 5.382-10.608 9.984H493.6c-.156-4.446-3.198-9.984-10.608-9.984zM529.948 162v-52.026h19.344c16.224 0 27.222 10.764 27.222 26.052S565.516 162 549.292 162h-19.344zm9.126-8.034h10.218c11.31 0 17.862-8.112 17.862-17.94 0-10.062-6.24-18.018-17.862-18.018h-10.218v35.958zm69.03 8.034v-4.056c-2.808 3.198-7.176 4.992-12.168 4.992-6.162 0-13.104-4.134-13.104-12.48 0-8.658 6.942-12.246 13.104-12.246 5.07 0 9.438 1.638 12.168 4.836v-5.616c0-4.368-3.588-7.02-8.814-7.02-4.212 0-7.878 1.56-11.154 4.758l-3.354-5.694c4.368-4.134 9.828-6.084 15.834-6.084 8.346 0 15.678 3.51 15.678 13.65V162h-8.19zm0-8.58v-5.694c-1.872-2.574-5.382-3.9-8.97-3.9-4.602 0-8.034 2.652-8.034 6.786 0 4.056 3.432 6.708 8.034 6.708 3.588 0 7.098-1.326 8.97-3.9zm18.408 15.99c.858.39 2.184.624 3.12.624 2.574 0 4.29-.78 5.382-3.276l1.872-4.29-15.444-38.142h8.736l10.998 28.236 10.998-28.236h8.814l-18.174 44.46c-2.574 6.396-7.098 8.424-12.948 8.502-1.17 0-3.432-.234-4.602-.546l1.248-7.332zm69.342-7.41v-40.17l-8.502 8.814-5.304-5.538 14.976-15.132h7.956V162h-9.126z"/></defs><g fill="none" fill-rule="evenodd"><mask id="b" fill="#fff"><use xlink:href="#a"/></mask><g fill-rule="nonzero" mask="url(#b)"><path fill="#62CAEF" d="M0 0h1280v800H0z"/><path fill="#FFF" d="M854.824 580.104v-29.585H403.109v29.585a23.56 23.56 0 0 0 23.569 23.559h404.574c13.011-.005 23.56-10.548 23.572-23.559zM720.355 654.237c-3.161-1.21-6.628-1.387-9.9-2.158-4.912-1.176-9.7-2.855-13.362-6.458a24.75 24.75 0 0 1-6.8-12.95 101.023 101.023 0 0 1-2.135-14.5c-.323-3.651-.683-9.7-1.026-14.5H570.797c-.343 4.806-.707 10.853-1.037 14.5a101.042 101.042 0 0 1-2.138 14.5 24.644 24.644 0 0 1-6.791 12.95c-3.695 3.6-8.447 5.282-13.372 6.458-3.28.772-6.723.948-9.9 2.158-2.967 1.128-4.833 3.521-1.547 5.68 3.212 2.05 7.556 2 11.22 2h163.442c3.671 0 8.032.048 11.22-2 3.304-2.158 1.438-4.551-1.539-5.68z"/><path fill="#E5E5E4" d="M688.308 619.897c-.048-.547-.1-1.084-.156-1.73-.323-3.651-.683-9.7-1.026-14.5H570.797c-.343 4.806-.707 10.853-1.037 14.5-.058.646-.109 1.183-.16 1.73h118.708z"/><path fill="#424A56" d="M854.824 285.731c-.01-13.016-10.556-23.568-23.572-23.583H426.678a23.569 23.569 0 0 0-23.569 23.583v264.788h451.715V285.731z"/><path fill="#FFD93B" d="M834.96 550.519H422.973V293.453c0-6.856 5.557-12.415 12.413-12.415h387.16c6.855 0 12.414 5.558 12.414 12.413v257.068z"/><path fill="#FFF" d="M834.96 293.453c0-6.856-5.557-12.414-12.413-12.415H435.386c-6.855.001-12.413 5.558-12.413 12.413v11.073H834.96v-11.071z"/><path fill="#FF5E4C" d="M453.388 292.78a6.195 6.195 0 1 1-12.39.01 6.195 6.195 0 0 1 12.39-.01z"/><path fill="#FFD93B" d="M472.398 292.78a6.193 6.193 0 1 1-12.386.006 6.193 6.193 0 0 1 12.386-.006z"/><path fill="#49B5F2" d="M491.399 292.78a6.19 6.19 0 1 1-12.38 0 6.19 6.19 0 0 1 12.38 0z"/><path fill="#DBDBDB" d="M641.317 577.089a12.352 12.352 0 1 1-12.352-12.352c6.822 0 12.352 5.53 12.352 12.352z"/><path fill="#FF5E4C" d="M703.054 530.224H554.859c-13.932-.04-25.215-11.323-25.255-25.255.04-13.932 11.323-25.215 25.255-25.255h148.195c13.932.04 25.217 11.323 25.258 25.255-.041 13.932-11.326 25.215-25.258 25.255z"/><g fill="#FFF"><path d="M590.889 495.74l-2.264 4.694a17.634 17.634 0 0 0-7.563-2.464c-1.553 0-2.6.574-2.6 1.723 0 4.086 12.491 1.754 12.491 10.3 0 4.725-4.184 7.226-9.453 7.226a17.644 17.644 0 0 1-10.805-3.783l2.332-4.626a14.727 14.727 0 0 0 8.542 3.545c1.89 0 3.073-.707 3.073-2.056 0-4.191-12.495-1.693-12.495-10.061 0-4.361 3.749-7.128 9.422-7.128 3.29-.003 6.517.908 9.32 2.63zM606.521 498.205v18.807h-6.01v-18.807h-7.057v-4.861h20.19v4.861zM620.395 512.657l-1.717 4.354h-6.183l10.2-23.634h6.183l9.956 23.634h-6.411l-1.693-4.354h-10.335zm5.2-13.3l-3.447 8.746h6.822l-3.375-8.746zM653.119 510.36h-4.725v6.652h-6.013v-23.634h10.571c6.244 0 9.823 2.971 9.823 8.239 0 3.61-1.519 6.21-4.286 7.593l4.959 7.8h-6.815l-3.514-6.65zm-.167-4.728c2.6 0 4.12-1.315 4.12-3.81 0-2.468-1.523-3.715-4.12-3.715h-4.558v7.525h4.558zM679.121 498.205v18.807h-6.013v-18.807h-7.057v-4.861h20.194v4.861z"/></g><path fill="#FFF" d="M737.558 538.109l-14.327-14.347 8.175-8.161c1.258-1.254.87-2.61-.86-3l-33.987-7.672a1.875 1.875 0 0 0-2.437 2.427l7.685 33.977c.381 1.74 1.727 2.124 2.984.867l8.188-8.178 14.337 14.337c.528.524 1.38.524 1.907 0l8.334-8.351a1.335 1.335 0 0 0 .001-1.899z"/><g transform="translate(537.077 301.147)"><circle cx="89.874" cy="90.837" r="74.795" fill="#FFF" transform="rotate(-76.825 89.874 90.837)"/><path fill="#C4C3C3" d="M68.085 118.79h43.483v11.767H68.085z"/><path fill="#FFF" d="M74.124 149.56l2.927 14.925a74.194 74.194 0 0 0 25.452.017l2.947-15.024-15.629-14.627-15.697 14.709z"/><path fill="#FFE1AA" d="M89.769 121.745s-10.4-1.608-19.663-12.825v33.7h39.33v-33.686c-9.265 11.203-19.667 12.811-19.667 12.811z"/><path fill="#FFF" d="M68.085 118.79l21.734 16.06-15.829 14.821zM111.569 118.79l-21.75 16.06 15.829 14.822z"/><path fill="#5F6571" d="M34.532 141.153a74.747 74.747 0 0 0 35.442 21.757l-13.675-35.88-20.024 7.821-1.743 6.302z"/><path fill="#C93227" d="M84.2 165.361c1.859.139 3.732.235 5.629.235 1.866 0 3.7-.092 5.537-.224l-.982-24.222h-9.2l-.984 24.211z"/><path fill="#5F6571" d="M109.539 162.951a74.786 74.786 0 0 0 35.486-21.7l-1.778-6.4-20.013-7.821-13.695 35.921z"/><path fill="#41444C" d="M68.083 118.791l-11.784 8.239v22.641l8.124-.9-7.135 8.066 1.159 1.852a74.239 74.239 0 0 0 18.6 5.8l-8.964-45.698zM102.502 164.505a74.236 74.236 0 0 0 18.569-5.755l1.193-1.91-7.128-8.066 8.12.9V127.03l-11.774-8.239-8.98 45.714z"/><path fill="#FF5E4C" d="M79.864 144.173l9.91 9.9 10-9.9-9.958-9.323z"/><path fill="#F8D09A" d="M62.051 78.951c1.183 5.513.2 10.394-2.206 10.911-2.406.517-5.3-3.545-6.482-9.052-1.182-5.507-.18-10.384 2.216-10.9 2.396-.516 5.285 3.538 6.472 9.041zM117.486 78.951c-1.19 5.513-.187 10.394 2.206 10.911 2.393.517 5.282-3.545 6.479-9.052 1.176-5.506.183-10.384-2.209-10.9s-5.303 3.538-6.476 9.041z"/><path fill="#FBD9A3" d="M89.774 27.686c-39.466 0-33.647 37.892-33.647 37.892 2.389 51.4 33.647 56.166 33.647 56.166s31.278-4.769 33.664-56.166c-.004 0 5.812-37.892-33.664-37.892z"/><path fill="#EEB678" d="M89.769 121.745s-10.4-1.608-19.663-12.825v3.81c9.262 11.213 19.663 12.821 19.663 12.821s10.4-1.608 19.667-12.808v-3.81c-9.265 11.204-19.667 12.812-19.667 12.812z"/><path fill="#FCBE73" d="M123.435 65.578s5.816-37.892-33.664-37.892v94.058s31.277-4.769 33.664-56.166z"/><path fill="#684444" d="M89.699 27.265h-.02c-39.5 0-33.681 37.93-33.681 37.93.163 3.222.423 6.271.778 9.147h5.265a.974.974 0 0 1-.078-.5c.031-.187.224-.388.19-.523-4.548-18.164 4.208-29.779 4.208-29.779 5.381 7.913 23.328 7.913 23.328 7.913s17.954 0 23.338-7.913c0 0 8.6 11.414 4.317 29.307-.051.221.415.5.466.785a.962.962 0 0 1-.282.714h5.177c.364-2.876.707-5.806.853-9.035-.002-.004 5.648-38.046-33.859-38.046z"/><path fill="#FFF" d="M89.784 112.781c7.005 0 12.685-4.3 12.685-9.592H77.102c0 5.296 5.676 9.592 12.682 9.592z"/><path fill="#FBD9A3" d="M89.782 79.987l8.494 13.293-8.494 7.511z"/><path fill="#492828" d="M89.733 27.265v24.181c.489 0 17.984-.109 23.294-7.91 0 0 8.6 11.414 4.317 29.307-.051.221.415.5.466.785a.962.962 0 0 1-.282.714h5.177c.364-2.876.707-5.806.853-9.035-.001 0 5.645-38.018-33.825-38.042z"/><g><path fill="#353535" d="M77.707 76.402a3.708 3.708 0 1 1-3.708-3.712 3.7 3.7 0 0 1 3.708 3.712zM109.043 76.402a3.708 3.708 0 1 1-7.416-.008 3.708 3.708 0 0 1 7.416.008z"/><path fill="#F24C30" d="M122.251 66.949c-15.53-2.5-21.791-.921-21.791-.921-7.794 2.284-10.673 1.784-10.673 1.784s-2.876.5-10.676-1.784c0 0-6.2-1.56-21.564.877l-4.677.625.632 3.025 3.817.867s1.791.388 1.985 1.734c-.068 3.552.489 8.345 2.848 11.166 3.919 4.711 12.95 4.222 17.8 1.669 0 0 5.234-2.746 7.22-10.789 0 0 .449-2.692 2.617-2.692s2.624 2.692 2.624 2.692c1.971 8.042 7.216 10.789 7.216 10.789 4.854 2.553 13.878 3.042 17.8-1.669 2.352-2.821 2.91-7.614 2.852-11.166.184-1.346 1.975-1.734 1.975-1.734l3.576-.517.772-3.627-4.353-.329zM81.667 82.17s-2.138 3.294-8.117 4.089c0 0-7.213 1.22-9.956-3.6a16.469 16.469 0 0 1-.609-12.638s.551-2.617 10.564-2.746c0 0 10.133.19 10.928 4.579.001-.003.973 4.81-2.81 10.316zm34.317.486c-2.75 4.823-9.942 3.6-9.942 3.6-5.992-.8-8.124-4.089-8.124-4.089-3.783-5.506-2.811-10.319-2.811-10.319.792-4.388 10.935-4.579 10.935-4.579 10 .129 10.554 2.746 10.554 2.746a16.55 16.55 0 0 1-.613 12.641h.001z"/></g></g><g><path fill="#FAFAFB" d="M370.621 584.326h-2.24v-16.584h-100.8v42.15a38.556 38.556 0 0 0 23.542 35.513h53.647a38.632 38.632 0 0 0 22.165-25.166v.034h3.691c9.928 0 17.976-8.048 17.976-17.976 0-9.928-8.048-17.976-17.976-17.976l-.005.005zm0 27.056h-2.315c.02-.5.075-.986.075-1.485v-16.672h2.24a9.079 9.079 0 0 1 0 18.158v-.001z"/><path fill="#FAFAFB" d="M370.621 584.326h-2.24v-16.584h-100.8v42.15a38.556 38.556 0 0 0 23.542 35.513h53.647a38.632 38.632 0 0 0 22.165-25.166v.034h3.691c9.928 0 17.976-8.048 17.976-17.976 0-9.928-8.048-17.976-17.976-17.976l-.005.005zm0 27.056h-2.315c.02-.5.075-.986.075-1.485v-16.672h2.24a9.079 9.079 0 0 1 0 18.158v-.001z"/><path fill="#FF5E4C" d="M282.976 598.04h18.901v18.902h-18.901z"/><path fill="#E7E7E7" d="M290.202 567.742h4.448v30.298h-4.448z"/><path fill="#FAFAFB" d="M265.707 645.408h110.844v7.982H265.707z"/><path fill="#E0E0E0" d="M321.131 653.391h-48.844s9.388 1.366 11.118 8.528h75.449c1.727-7.162 11.118-8.528 11.118-8.528h-48.841z"/><path fill="#2A9DBC" d="M319.646 556.405c-2.067 0-4.816-.952-5.71-2.114-9.517-12.328 13.447-24.653 3.926-36.978-.894-1.169-.286-2.114 1.785-2.114 2.071 0 4.816.945 5.707 2.114 9.521 12.325-13.443 24.65-3.926 36.978.89 1.16.288 2.114-1.782 2.114zM296.104 556.405c-2.06 0-4.816-.952-5.7-2.114-9.511-12.328 13.433-24.653 3.919-36.978-.894-1.169-.289-2.114 1.781-2.114s4.813.945 5.71 2.114c9.507 12.325-13.436 24.65-3.926 36.978.891 1.16.286 2.114-1.784 2.114zM343.18 556.405c-2.06 0-4.816-.952-5.7-2.114-9.51-12.328 13.436-24.653 3.923-36.978-.891-1.169-.289-2.114 1.781-2.114s4.813.945 5.707 2.114c9.51 12.325-13.436 24.65-3.926 36.978.887 1.16.285 2.114-1.785 2.114z"/></g><g><path fill="#A06464" d="M224 661.918h832.985v27.388H224z"/><path fill="#723F3F" d="M265.503 689.306h44.871v38.36h-44.871zM970.601 689.306h44.871v38.36h-44.871z"/><path fill="#4C2222" d="M265.503 689.306h44.871v21.365h-44.871zM970.601 689.306h44.871v21.365h-44.871z"/><path fill="#A06464" d="M310.374 689.306h660.227v38.36H310.374z"/><path fill="#723F3F" d="M310.374 689.306h660.227v21.365H310.374z"/></g><g><path fill="#424A56" d="M812.369 618.11h195.229v43.808H812.369z"/><path fill="#FFDD50" d="M982.597 618.11h11.815v43.808h-11.815zM842.696 618.11h8.26v43.808h-8.26zM826.516 618.11h8.262v43.808h-8.262z"/><path fill="#707E8E" d="M950.769 626.57h10.301v26.891h-10.301zM928.681 626.57h10.301v26.891h-10.301zM906.593 626.57h10.301v26.891h-10.301z"/></g><g><path fill="#F1644A" d="M825.888 524.03c-7.532 0-13.63 5.289-13.63 11.815V559.4c0 6.526 6.1 11.815 13.63 11.815h181.709v-6.751h-3.746a19.787 19.787 0 0 1-2.036-4.881c-.021-.058-.034-.119-.051-.18a30.745 30.745 0 0 1-.449-1.815l-.054-.231a43.386 43.386 0 0 1-.676-4.337c-.024-.194-.041-.4-.061-.6a66.44 66.44 0 0 1-.166-2.4 49.523 49.523 0 0 1 0-4.786c.01-.224.024-.445.037-.666a66.44 66.44 0 0 1 .129-1.737c.02-.2.037-.4.061-.605a43.16 43.16 0 0 1 .676-4.334l.054-.238c.136-.625.286-1.23.449-1.808.017-.061.031-.122.051-.18a19.929 19.929 0 0 1 2.036-4.884h3.746v-6.752H825.888z"/><path fill="#FFF" d="M1001.764 559.404a30.745 30.745 0 0 1-.449-1.815l-.054-.231a43.4 43.4 0 0 1-.676-4.337c-.024-.194-.041-.4-.061-.6a66.44 66.44 0 0 1-.166-2.4 49.523 49.523 0 0 1 0-4.786c.01-.224.024-.445.037-.666a66.44 66.44 0 0 1 .129-1.737c.02-.2.037-.4.061-.605.152-1.455.377-2.902.676-4.334l.054-.238c.136-.625.286-1.23.449-1.808.017-.061.031-.122.051-.18a19.929 19.929 0 0 1 2.036-4.884H827.159c-3.922 0-7.114 2.274-7.114 5.065v23.556c0 2.794 3.192 5.065 7.114 5.065h176.692a19.787 19.787 0 0 1-2.036-4.881c-.02-.062-.034-.124-.051-.184z"/><g fill="#DBDBDB"><path d="M839.379 540.714v3.266h161.063c.024-.384.051-.772.082-1.149.02-.2.037-.4.061-.605.058-.517.129-1.013.2-1.513l-161.406.001zM839.379 554.536h161.407c-.071-.5-.143-1-.2-1.516-.024-.194-.041-.4-.061-.6-.037-.425-.065-.86-.1-1.292H839.379v3.408z"/></g></g><g><path fill="#D283DB" d="M825.888 570.923c-7.532 0-13.63 5.289-13.63 11.815v23.555c0 6.526 6.1 11.815 13.63 11.815h181.709v-6.75h-3.746a19.788 19.788 0 0 1-2.036-4.881c-.021-.058-.034-.119-.051-.18a30.745 30.745 0 0 1-.449-1.815l-.054-.235a43.162 43.162 0 0 1-.676-4.334c-.024-.194-.041-.4-.061-.6a67.426 67.426 0 0 1-.166-2.4 49.523 49.523 0 0 1 0-4.786c.01-.224.024-.445.037-.666a66.44 66.44 0 0 1 .129-1.737c.02-.2.037-.4.061-.605a43.16 43.16 0 0 1 .676-4.334l.054-.238c.136-.625.286-1.23.449-1.808.017-.061.031-.122.051-.18a19.929 19.929 0 0 1 2.036-4.884h3.746v-6.75l-181.709-.002z"/><path fill="#FFF" d="M1001.764 606.301a30.745 30.745 0 0 1-.449-1.815l-.054-.235a43.179 43.179 0 0 1-.676-4.334c-.024-.194-.041-.4-.061-.6a67.426 67.426 0 0 1-.166-2.4 49.523 49.523 0 0 1 0-4.786c.01-.224.024-.445.037-.666a66.44 66.44 0 0 1 .129-1.737c.02-.2.037-.4.061-.605.152-1.455.377-2.902.676-4.334l.054-.238c.136-.625.286-1.23.449-1.808.017-.061.031-.122.051-.18a19.929 19.929 0 0 1 2.036-4.884H827.159c-3.922 0-7.114 2.274-7.114 5.065v23.555c0 2.794 3.192 5.065 7.114 5.065h176.692a19.788 19.788 0 0 1-2.036-4.881c-.02-.064-.034-.126-.051-.182z"/><g fill="#DBDBDB"><path d="M839.379 587.605v3.266h161.063c.024-.384.051-.772.082-1.149.02-.2.037-.4.061-.605a50.06 50.06 0 0 1 .2-1.513l-161.406.001zM839.379 601.429h161.407c-.071-.5-.143-1-.2-1.516-.024-.194-.041-.4-.061-.6-.037-.425-.065-.86-.1-1.292H839.379v3.408z"/></g></g><g><path fill="#B8FFC2" d="M936.551 424.751s1.73-1.608 3.8-3.617c-.738-16.754-16.135-22.882-25.37-25-10.221-2.1-14.283-.184-15.031-.347a68.463 68.463 0 0 1 15.1 4.449c8.739 3.77 20.894 11.03 23.222 22.573-7.661-8.392-20.435-18.865-38.324-27.022 11.03 13.236 14.6 21.128 20.374 24.942 5.138 3.942 12.48 3.808 16.229 4.022z"/><path fill="#A4424B" d="M929.529 438.589l.129-.809c3.882-24.456 21.06-27.818 21.234-27.848l.833-.15.217 4.966-.581.153c-14.7 3.8-17.284 23.042-17.311 23.236l-.085.683-4.436-.231z"/><path fill="#FFCB38" d="M934.354 432.967l.007-.02-.007.02z"/><path fill="#FFD93B" d="M980.548 455.407c-2.451-11.866-12.509-18.3-12.509-18.3a22.837 22.837 0 0 0-4.456-2.767 26.45 26.45 0 0 0-12.035-2.645c-5.347.133-9.98 2.135-14.895 3.98a12.119 12.119 0 0 1-8.569 0c-4.915-1.846-9.548-3.848-14.895-3.98a26.44 26.44 0 0 0-12.036 2.648 22.842 22.842 0 0 0-4.456 2.767s-10.058 6.431-12.508 18.3a61.249 61.249 0 0 0 3.593 38.328s6.4 17.277 17.893 26.75c0 0 3.95 3.4 8.623 3.4 0 0 2.338.758 11.988-3.277a49.44 49.44 0 0 1 6.081-1.533 49.38 49.38 0 0 1 6.084 1.533c9.65 4.035 11.989 3.277 11.989 3.277 4.674 0 8.623-3.4 8.623-3.4 11.492-9.473 17.893-26.75 17.893-26.75a61.25 61.25 0 0 0 3.592-38.331z"/><path fill="#FFF" d="M909.455 458.443c-5.109 6.081-11.924 8.749-15.224 5.986-3.3-2.763-1.829-9.939 3.277-16.016 5.106-6.077 11.927-8.759 15.217-5.993 3.29 2.766 1.835 9.943-3.27 16.023z" opacity=".7"/></g><g transform="translate(260 31)"><use fill="#000" xlink:href="#c"/><use fill="#FFF" xlink:href="#c"/><use fill="#000" xlink:href="#d"/><use fill="#FFF" xlink:href="#d"/></g><path fill="#424A56" d="M0 726h1280v74H0z"/><g fill="#FFF"><path d="M983.029 779.457h9.954a1.93 1.93 0 0 0 1.935-1.843v-6.821a36.608 36.608 0 0 1-11.889 8.664zm-2.212-23.134c-.092-1.751-1.383-2.857-4.148-2.577-5.437.365-9.583 6.54-10.783 12.9 11.8-.922 15.023-8.111 14.931-10.323z"/><path d="M979.803 749.963c5.622-.369 8.2 1.843 8.387 4.608.461 6.083-9.493 13.272-22.581 14.378h-.184a10.209 10.209 0 0 0 .369 5.069c.922 2.4 3.318 3.318 6.083 3.318 12.166 0 21.106-13.456 23.041-19.539v-9.954a1.871 1.871 0 0 0-1.935-1.843h-29.678a1.849 1.849 0 0 0-1.843 1.843v13.641c4.793-6.084 12.166-11.06 18.341-11.521zM1019.344 768.673a4.855 4.855 0 0 0 3.779-1.659l1.106.922a6.365 6.365 0 0 1-4.885 2.3 5.892 5.892 0 0 1-5.9-6.175c0-3.41 2.4-6.175 5.714-6.175 3.5 0 5.53 2.857 5.53 6.267v.553h-9.493a4.081 4.081 0 0 0 4.149 3.967zm3.41-5.346c-.184-2.12-1.475-4.055-3.779-4.055-2.028 0-3.594 1.751-3.871 4.055h7.65zm14.468 6.636v-2.4a5.23 5.23 0 0 1-4.516 2.673 5.856 5.856 0 0 1-5.714-6.171 5.856 5.856 0 0 1 5.714-6.175 5.228 5.228 0 0 1 4.516 2.581v-7.374h1.751v16.866h-1.751zm-4.24-10.6c-2.3 0-4.147 1.751-4.147 4.608 0 2.857 1.935 4.608 4.147 4.608a4.452 4.452 0 0 0 4.332-4.608 4.452 4.452 0 0 0-4.331-4.607l-.001-.001zm15.302 14.287a9.258 9.258 0 0 1-5.439-1.66l.829-1.382a8.066 8.066 0 0 0 4.61 1.476c2.581 0 4.332-1.475 4.332-4.24v-1.383a5.681 5.681 0 0 1-4.7 2.581 5.427 5.427 0 0 1-5.53-5.53 5.5 5.5 0 0 1 5.528-5.622 5.773 5.773 0 0 1 4.7 2.4v-2.12h1.751v9.77c-.092 3.775-2.488 5.71-6.081 5.71zm-.092-14.286a3.892 3.892 0 0 0-4.147 4.055 4 4 0 0 0 4.147 4.055 4.176 4.176 0 0 0 4.422-4.054 4.23 4.23 0 0 0-4.424-4.055l.002-.001zm15.299 9.309a4.855 4.855 0 0 0 3.779-1.659l1.106.922a6.365 6.365 0 0 1-4.885 2.3 5.892 5.892 0 0 1-5.9-6.175c0-3.41 2.4-6.175 5.714-6.175 3.5 0 5.53 2.857 5.53 6.267v.553h-9.4a3.948 3.948 0 0 0 4.056 3.967zm3.41-5.346c-.184-2.12-1.475-4.055-3.779-4.055-2.028 0-3.594 1.751-3.871 4.055h7.65zm11.243 6.913a5.228 5.228 0 0 1-4.516-2.581v5.991h-1.751v-15.576h1.751v2.3a5.23 5.23 0 0 1 4.516-2.673 5.856 5.856 0 0 1 5.714 6.175c.001 3.967-2.857 6.364-5.714 6.364zm-.367-10.876a4.452 4.452 0 0 0-4.332 4.608 4.34 4.34 0 0 0 4.332 4.608c2.3 0 4.147-1.751 4.147-4.608a4.153 4.153 0 0 0-4.147-4.608zm14.745 10.875a6.116 6.116 0 0 1-6.175-6.175 6.194 6.194 0 0 1 6.175-6.267 6.116 6.116 0 0 1 6.175 6.175 6.194 6.194 0 0 1-6.175 6.267zm0-10.876a4.339 4.339 0 0 0-4.332 4.608 4.491 4.491 0 0 0 4.424 4.7 4.412 4.412 0 0 0 4.424-4.608 4.625 4.625 0 0 0-4.516-4.7zm9.401-3.87v-1.935h2.028v1.935h-2.028zm.184 14.47v-11.889h1.751v11.889h-1.751zm7.65 0h-1.751v-11.89h1.751v2.024a4.43 4.43 0 0 1 4.055-2.3c2.857 0 4.516 1.935 4.516 4.7v7.373h-1.751v-6.912c0-2.212-1.2-3.594-3.318-3.594a3.51 3.51 0 0 0-3.594 3.687l.092 6.912zm14.747-3.41a1.8 1.8 0 0 0 2.028 2.028 3.994 3.994 0 0 0 1.751-.369v1.475a4 4 0 0 1-2.12.461c-1.935 0-3.318-.922-3.318-3.318v-7.19h-1.659v-1.661h1.659v-3.5h1.751v3.5h3.779v1.567h-3.779v7l-.092.007zM1138.42 769.963v-16.866h1.751v16.866zM1149.666 768.673a4.855 4.855 0 0 0 3.779-1.659l1.106.922a6.365 6.365 0 0 1-4.885 2.3 5.892 5.892 0 0 1-5.9-6.175c0-3.41 2.4-6.175 5.714-6.175 3.5 0 5.53 2.857 5.53 6.267v.553h-9.4a3.948 3.948 0 0 0 4.055 3.963l.001.004zm3.41-5.346c-.184-2.12-1.475-4.055-3.779-4.055-2.028 0-3.594 1.751-3.871 4.055h7.65zm5.528-2.945l-.553-1.475a9.105 9.105 0 0 1 4.332-.925c3.226 0 5.069 1.659 5.069 4.793v7.281h-1.751v-1.751a5.161 5.161 0 0 1-4.332 2.028c-2.212 0-4.424-1.2-4.424-3.687 0-2.581 2.028-3.871 5.069-3.871a13.114 13.114 0 0 1 3.594.461v-.369c0-2.12-1.29-3.226-3.594-3.226a5.9 5.9 0 0 0-3.41.737v.004zm.276 5.991c0 1.475 1.382 2.4 3.041 2.4 2.212 0 3.963-1.29 3.963-3.226v-1.2a11.937 11.937 0 0 0-3.5-.461c-2.212 0-3.5 1.014-3.5 2.488l-.004-.001zm14.194 3.59h-1.751v-11.889h1.751v3.041a5.068 5.068 0 0 1 4.885-3.318v1.843h-.092c-2.581 0-4.7 1.843-4.7 5.438v4.885h-.093zm9.309 0h-1.751v-11.89h1.751v2.024a4.43 4.43 0 0 1 4.055-2.3c2.857 0 4.516 1.935 4.516 4.7v7.373h-1.751v-6.912c0-2.212-1.2-3.594-3.318-3.594a3.51 3.51 0 0 0-3.594 3.687v6.912h.092zm12.35-14.47v-1.935h2.028v1.935h-2.028zm.184 14.47v-11.889h1.751v11.889h-1.751zm7.65 0h-1.751v-11.89h1.751v2.024a4.43 4.43 0 0 1 4.055-2.3c2.857 0 4.516 1.935 4.516 4.7v7.373h-1.751v-6.912c0-2.212-1.2-3.594-3.318-3.594a3.51 3.51 0 0 0-3.594 3.687l.092 6.912zm17.698 3.687a9.258 9.258 0 0 1-5.439-1.66l.83-1.382a8.066 8.066 0 0 0 4.608 1.475c2.581 0 4.332-1.475 4.332-4.24v-1.382a5.681 5.681 0 0 1-4.7 2.581 5.427 5.427 0 0 1-5.53-5.53 5.5 5.5 0 0 1 5.53-5.622 5.641 5.641 0 0 1 4.7 2.4v-2.12h1.751v9.77c-.092 3.779-2.488 5.714-6.083 5.714l.001-.004zm-.092-14.286a3.892 3.892 0 0 0-4.147 4.055 4 4 0 0 0 4.147 4.055 4.176 4.176 0 0 0 4.424-4.055 4.23 4.23 0 0 0-4.426-4.054l.002-.001z"/></g></g></g></svg>