<svg xmlns="http://www.w3.org/2000/svg" xmlns:xlink="http://www.w3.org/1999/xlink" width="1280" height="800" viewBox="0 0 1280 800"><defs><filter id="a" x="64" y="47" width="369" height="640" filterUnits="userSpaceOnUse"><feOffset dy="5" input="SourceAlpha"/><feGaussianBlur stdDeviation="5" result="b"/><feFlood flood-opacity="0.161"/><feComposite operator="in" in2="b"/><feComposite in="SourceGraphic"/></filter><clipPath id="c"><rect width="318" height="578" rx="6" transform="translate(-0.267 -0.314)" fill="none"/></clipPath><clipPath id="e"><rect width="1280" height="800"/></clipPath></defs><g id="d" clip-path="url(#e)"><rect width="1280" height="800" fill="#fff9e1"/><rect width="1280" height="74" transform="translate(0 726)" fill="#ff5e4c"/><g transform="translate(961.462 746)"><path d="M23.4,35.564h9.954a1.93,1.93,0,0,0,1.935-1.843V26.9A36.608,36.608,0,0,1,23.4,35.564Z" transform="translate(-1.833 -2.107)" fill="#fff"/><path d="M19.731,10.977C19.639,9.226,18.348,8.12,15.583,8.4,10.146,8.765,6,14.94,4.8,21.3,16.6,20.378,19.823,13.189,19.731,10.977Z" transform="translate(-0.376 -0.654)" fill="#fff"/><path d="M18.341,3.963c5.622-.369,8.2,1.843,8.387,4.608.461,6.083-9.493,13.272-22.581,14.378H3.963a10.209,10.209,0,0,0,.369,5.069c.922,2.4,3.318,3.318,6.083,3.318,12.166,0,21.106-13.456,23.041-19.539V1.843A1.871,1.871,0,0,0,31.521,0H1.843A1.849,1.849,0,0,0,0,1.843V15.484C4.793,9.4,12.166,4.424,18.341,3.963Z" fill="#fff"/><g transform="translate(51.982 7.097)"><path d="M62.3,23.683a4.855,4.855,0,0,0,3.779-1.659l1.106.922a6.365,6.365,0,0,1-4.885,2.3,5.892,5.892,0,0,1-5.9-6.175c0-3.41,2.4-6.175,5.714-6.175,3.5,0,5.53,2.857,5.53,6.267v.553H58.151A4.081,4.081,0,0,0,62.3,23.683Zm3.41-5.346c-.184-2.12-1.475-4.055-3.779-4.055-2.028,0-3.594,1.751-3.871,4.055Z" transform="translate(-56.4 -8.107)" fill="#fff"/><path d="M81.33,24.566v-2.4a5.23,5.23,0,0,1-4.516,2.673A5.856,5.856,0,0,1,71.1,18.668a5.856,5.856,0,0,1,5.714-6.175,5.228,5.228,0,0,1,4.516,2.581V7.7h1.751V24.566Zm-4.24-10.6c-2.3,0-4.147,1.751-4.147,4.608s1.935,4.608,4.147,4.608a4.452,4.452,0,0,0,4.332-4.608A4.452,4.452,0,0,0,77.091,13.967Z" transform="translate(-57.552 -7.7)" fill="#fff"/><path d="M93.7,28.66A9.258,9.258,0,0,1,88.261,27l.829-1.382A8.066,8.066,0,0,0,93.7,27.094c2.581,0,4.332-1.475,4.332-4.24V21.471a5.681,5.681,0,0,1-4.7,2.581,5.427,5.427,0,0,1-5.53-5.53A5.5,5.5,0,0,1,93.33,12.9a5.773,5.773,0,0,1,4.7,2.4v-2.12h1.751v9.77C99.689,26.725,97.293,28.66,93.7,28.66Zm-.092-14.286a3.892,3.892,0,0,0-4.147,4.055,4,4,0,0,0,4.147,4.055A4.176,4.176,0,0,0,98.03,18.43,4.23,4.23,0,0,0,93.606,14.375Z" transform="translate(-58.86 -8.107)" fill="#fff"/><path d="M110.2,23.683a4.855,4.855,0,0,0,3.779-1.659l1.106.922a6.365,6.365,0,0,1-4.885,2.3,5.892,5.892,0,0,1-5.9-6.175c0-3.41,2.4-6.175,5.714-6.175,3.5,0,5.53,2.857,5.53,6.267v.553h-9.4A3.948,3.948,0,0,0,110.2,23.683Zm3.41-5.346c-.184-2.12-1.475-4.055-3.779-4.055-2.028,0-3.594,1.751-3.871,4.055Z" transform="translate(-60.153 -8.107)" fill="#fff"/><path d="M126.067,25.235a5.228,5.228,0,0,1-4.516-2.581v5.991H119.8V13.069h1.751v2.3a5.23,5.23,0,0,1,4.516-2.673,5.856,5.856,0,0,1,5.714,6.175C131.782,22.838,128.924,25.235,126.067,25.235ZM125.7,14.359a4.452,4.452,0,0,0-4.332,4.608,4.34,4.34,0,0,0,4.332,4.608c2.3,0,4.147-1.751,4.147-4.608A4.153,4.153,0,0,0,125.7,14.359Z" transform="translate(-61.367 -8.092)" fill="#fff"/><path d="M141.675,25.242a6.116,6.116,0,0,1-6.175-6.175,6.194,6.194,0,0,1,6.175-6.267,6.116,6.116,0,0,1,6.175,6.175A6.194,6.194,0,0,1,141.675,25.242Zm0-10.876a4.339,4.339,0,0,0-4.332,4.608,4.491,4.491,0,0,0,4.424,4.7,4.412,4.412,0,0,0,4.424-4.608,4.625,4.625,0,0,0-4.516-4.7Z" transform="translate(-62.597 -8.1)" fill="#fff"/><path d="M152.4,10.135V8.2h2.028v1.935Zm.184,14.47V12.716h1.751V24.605Z" transform="translate(-63.921 -7.739)" fill="#fff"/><path d="M160.751,24.966H159V13.076h1.751V15.1a4.43,4.43,0,0,1,4.055-2.3c2.857,0,4.516,1.935,4.516,4.7v7.373h-1.751V17.961c0-2.212-1.2-3.594-3.318-3.594a3.51,3.51,0,0,0-3.594,3.687l.092,6.912Z" transform="translate(-64.438 -8.1)" fill="#fff"/><path d="M176.618,21.274a1.8,1.8,0,0,0,2.028,2.028,3.994,3.994,0,0,0,1.751-.369v1.475a4,4,0,0,1-2.12.461c-1.935,0-3.318-.922-3.318-3.318V14.361H173.3V12.7h1.659V9.2h1.751v3.5h3.779v1.567H176.71v7Z" transform="translate(-65.558 -7.818)" fill="#fff"/></g><g transform="translate(176.958 7.097)"><path d="M192,24.566V7.7h1.751V24.566Z" transform="translate(-192 -7.7)" fill="#fff"/><path d="M203.7,23.683a4.855,4.855,0,0,0,3.779-1.659l1.106.922a6.365,6.365,0,0,1-4.885,2.3,5.892,5.892,0,0,1-5.9-6.175c0-3.41,2.4-6.175,5.714-6.175,3.5,0,5.53,2.857,5.53,6.267v.553h-9.4a3.948,3.948,0,0,0,4.055,3.963Zm3.41-5.346c-.184-2.12-1.475-4.055-3.779-4.055-2.028,0-3.594,1.751-3.871,4.055Z" transform="translate(-192.454 -8.107)" fill="#fff"/><path d="M213.759,15.4l-.553-1.475A9.105,9.105,0,0,1,217.538,13c3.226,0,5.069,1.659,5.069,4.793v7.281h-1.751V23.323a5.161,5.161,0,0,1-4.332,2.028c-2.212,0-4.424-1.2-4.424-3.687,0-2.581,2.028-3.871,5.069-3.871a13.114,13.114,0,0,1,3.594.461v-.369c0-2.12-1.29-3.226-3.594-3.226a5.9,5.9,0,0,0-3.41.737Zm.276,5.991c0,1.475,1.382,2.4,3.041,2.4,2.212,0,3.963-1.29,3.963-3.226v-1.2a11.937,11.937,0,0,0-3.5-.461c-2.212,0-3.5,1.014-3.5,2.488Z" transform="translate(-193.575 -8.115)" fill="#fff"/><path d="M229.451,24.965H227.7V13.076h1.751v3.041a5.068,5.068,0,0,1,4.885-3.318v1.843h-.092c-2.581,0-4.7,1.843-4.7,5.438v4.885Z" transform="translate(-194.797 -8.099)" fill="#fff"/><path d="M239.551,24.966H237.8V13.076h1.751V15.1a4.43,4.43,0,0,1,4.055-2.3c2.857,0,4.516,1.935,4.516,4.7v7.373h-1.751V17.961c0-2.212-1.2-3.594-3.318-3.594a3.51,3.51,0,0,0-3.594,3.687v6.912Z" transform="translate(-195.588 -8.1)" fill="#fff"/><path d="M253.1,10.135V8.2h2.028v1.935Zm.184,14.47V12.716h1.751V24.605Z" transform="translate(-196.787 -7.739)" fill="#fff"/><path d="M261.451,24.966H259.7V13.076h1.751V15.1a4.43,4.43,0,0,1,4.055-2.3c2.857,0,4.516,1.935,4.516,4.7v7.373h-1.751V17.961c0-2.212-1.2-3.594-3.318-3.594a3.51,3.51,0,0,0-3.594,3.687l.092,6.912Z" transform="translate(-197.304 -8.1)" fill="#fff"/><path d="M280.3,28.66A9.258,9.258,0,0,1,274.861,27l.83-1.382a8.066,8.066,0,0,0,4.608,1.475c2.581,0,4.332-1.475,4.332-4.24V21.471a5.681,5.681,0,0,1-4.7,2.581,5.427,5.427,0,0,1-5.53-5.53,5.5,5.5,0,0,1,5.53-5.622,5.641,5.641,0,0,1,4.7,2.4v-2.12h1.751v9.77c-.092,3.779-2.488,5.714-6.083,5.714Zm-.092-14.286a3.892,3.892,0,0,0-4.147,4.055,4,4,0,0,0,4.147,4.055,4.176,4.176,0,0,0,4.424-4.055A4.23,4.23,0,0,0,280.206,14.375Z" transform="translate(-198.455 -8.107)" fill="#fff"/></g></g><g transform="translate(-54.848 -4.946)"><g transform="translate(134.848 62.946)"><g transform="matrix(1, 0, 0, 1, -80, -58)" filter="url(#a)"><rect width="337" height="608" rx="10" transform="translate(80 58)" fill="#444" stroke="#7b7b7b" stroke-width="2"/></g><g transform="translate(9.267 21.314)"><g transform="translate(0 0)" clip-path="url(#c)"><g transform="translate(-27.181 -6.704)"><rect width="373.403" height="585.909" fill="#ffd93b"/><g transform="translate(58.86 34.907)"><circle cx="94.355" cy="94.355" r="94.355" transform="translate(0 89.601) rotate(-28.347)" fill="#ffa000"/></g><g transform="translate(42.285 18.332)" opacity="0.25"><g transform="translate(0 0)"><circle cx="106.641" cy="106.641" r="106.641" transform="matrix(0.881, -0.473, 0.473, 0.881, 0, 100.961)" fill="#ffa000"/></g></g><g transform="translate(117.799 106.576)"><path d="M201.508,180.56l48.326,20.862,51.772-25.1,2.651,15.343-55.28,26-50.119-21.89Z" transform="translate(-178.91 -102.371)" fill="#fff"/><path d="M314.112,192.172l-6.73-1.157-55.28,26-50.119-21.89V179.907l-6.708-2.833,1.09,22.276,55.109,23.783Z" transform="translate(-182.036 -101.718)" fill="#d283db"/><path d="M220.592,172.478l15.792-6.837,43.954-.417,1.261.417,30.738,16.646-59.885,28.824L195.857,185Z" transform="translate(-181.528 -112.059)" fill="#d283db"/><path d="M264.142,180.505c-2.17,6.281-6.152,14.395-12.794,17.365-3.659,1.64-7.816,1.506-12.348-.393l-.972-.1-.511.1c-4.536,1.9-8.691,2.032-12.35.393-6.64-2.97-10.625-11.082-12.8-17.367a31.011,31.011,0,0,1-1.639-14.949c.854-5.485,3.17-9.434,6.884-11.736,6.515-4.036,15.593-2,17.9-1.386a17.524,17.524,0,0,0,.4,1.721l2.526-.8c-.017-.051-.051-.165-.1-.335a18.136,18.136,0,0,0,2.064-.537l.034.1c.109-.036,10.974-3.4,18.455,1.228,3.715,2.3,6.032,6.251,6.886,11.736A31.034,31.034,0,0,1,264.142,180.505Z" transform="translate(-168.82 -124.145)" fill="#ff5e4c"/><g transform="translate(12.459 60.419)"><path d="M252.458,231.459l-57.6-25.993V182l26.6-12.9,1.157,2.384-25.111,12.177v20.1l54.923,24.784,62.044-29.407,1.134,2.394Z" transform="translate(-194.859 -169.097)" fill="#332948"/></g><g transform="translate(13.24 53.582)"><path d="M252.094,212.861l-56.819-25.64,1.09-2.415,55.7,25.136,58.912-27.924-30.007-14.175,1.134-2.4,35.07,16.568Z" transform="translate(-195.276 -165.446)" fill="#332948"/></g><g transform="translate(19.947 73.955)"><path d="M248.976,217.669l-50.119-21.89V180.56h2.65v13.484l47.427,20.715,52.671-24.773v-13.66h2.651v15.343Z" transform="translate(-198.858 -176.326)" fill="#332948"/></g><g transform="translate(44.882 32.76)"><path d="M214.063,178.843a30.354,30.354,0,0,1-1.58-14.646,18.288,18.288,0,0,1,4.391-9.871l1.94,1.8A15.713,15.713,0,0,0,215.1,164.6a27.714,27.714,0,0,0,1.466,13.372Z" transform="translate(-212.173 -154.327)" fill="#332948"/></g><g transform="translate(62.385 31.842)"><path d="M228.1,157.573a17.456,17.456,0,0,1-6.577-1.279l1-2.457a14.944,14.944,0,0,0,11.163,0l.994,2.457A17.463,17.463,0,0,1,228.1,157.573Z" transform="translate(-221.52 -153.837)" fill="#332948"/></g><g transform="translate(58.464 14.185)"><path d="M228.6,163.951c-.006-.124-.749-12.653-9.174-17.211l1.26-2.331c9.747,5.273,10.534,18.835,10.562,19.41Z" transform="translate(-219.426 -144.408)" fill="#332948"/></g><path d="M269.64,177.836c-.979-6.292-3.713-10.865-8.12-13.588-4.268-2.64-9.311-3.052-13.346-2.785,8.221-7.753,7.352-22.752,7.341-22.949l-.116-1.682-1.609.511c-16.732,5.313-18.052,18.076-17.438,24.943-3.637-.845-12.2-2.174-18.885,1.959-4.408,2.725-7.138,7.3-8.12,13.59a33.629,33.629,0,0,0,1.753,16.222c2.345,6.779,6.715,15.561,14.221,18.921,4.275,1.912,9.043,1.828,14.172-.253a20.541,20.541,0,0,0,7.708,1.625,15.684,15.684,0,0,0,6.466-1.375c7.509-3.358,11.876-12.142,14.217-18.919A33.641,33.641,0,0,0,269.64,177.836Zm-16.723-37.387c0,5.268-1.107,20.531-13.865,22.662C238.253,157.61,238.446,145.874,252.918,140.449Zm12.46,52.744c-2.17,6.281-6.152,14.395-12.794,17.365-3.659,1.64-7.816,1.506-12.348-.393l-.972-.1-.511.1c-4.535,1.9-8.691,2.032-12.35.393-6.64-2.97-10.625-11.082-12.8-17.367a31.011,31.011,0,0,1-1.639-14.949c.854-5.485,3.17-9.434,6.884-11.736,6.515-4.036,15.593-2,17.9-1.386a17.529,17.529,0,0,0,.4,1.721l2.526-.8c-.017-.051-.051-.165-.1-.335a18.14,18.14,0,0,0,2.064-.537l.034.1c.109-.036,10.974-3.4,18.455,1.228,3.715,2.3,6.032,6.251,6.886,11.736A31.034,31.034,0,0,1,265.378,193.193Z" transform="translate(-170.055 -136.833)" fill="#332948"/><g transform="translate(0 81.534)"><rect width="13.784" height="2.651" fill="#332948"/></g><g transform="translate(124.021 81.534)"><rect width="13.783" height="2.651" fill="#332948"/></g><path d="M239.036,138.764c0,5.268-1.107,20.531-13.865,22.662C224.372,155.925,224.564,144.189,239.036,138.764Z" transform="translate(-156.174 -135.148)" fill="#16cf8d"/></g></g></g></g><path d="M274.287,76.849H210.618c-3.1,0-5.618-1.645-5.618-3.674h0c0-2.03,2.515-3.674,5.618-3.674h63.669c3.1,0,5.618,1.645,5.618,3.674h0C279.9,75.2,277.39,76.849,274.287,76.849Z" transform="translate(-73.665 -61.577)"/></g></g><rect width="250" height="40" rx="10" transform="translate(124 379)" fill="#ffa000" opacity="0.27"/><rect width="250" height="10" rx="5" transform="translate(124 429)" fill="#ffa000" opacity="0.27"/><rect width="250" height="10" rx="5" transform="translate(124 449)" fill="#ffa000" opacity="0.27"/><rect width="250" height="10" rx="5" transform="translate(124 469)" fill="#ffa000" opacity="0.27"/><rect width="130" height="10" rx="5" transform="translate(124 489)" fill="#ffa000" opacity="0.27"/><rect width="220" height="20" rx="10" transform="translate(154 519)" fill="#ffa000" opacity="0.27"/><rect width="220" height="20" rx="10" transform="translate(154 549)" fill="#ffa000" opacity="0.27"/><rect width="220" height="20" rx="10" transform="translate(154 579)" fill="#ffa000" opacity="0.27"/><path d="M-13.666-20.322a5.771,5.771,0,0,1-.4-.435.576.576,0,0,1-.157-.341.358.358,0,0,1,.142-.278,1.2,1.2,0,0,1,.341-.2,2.05,2.05,0,0,1,.425-.115,2.444,2.444,0,0,1,.383-.037.466.466,0,0,1,.278.079,2.14,2.14,0,0,1,.257.225A16.38,16.38,0,0,1-10.61-19.3q.8,1.132,1.484,2.244A61.062,61.062,0,0,1-6.075-24.1a46.846,46.846,0,0,1,3.921-6.385,1.31,1.31,0,0,1,.655-.451,3,3,0,0,1,1-.157.514.514,0,0,1,.283.068.218.218,0,0,1,.1.194.649.649,0,0,1-.031.215.926.926,0,0,1-.147.236q-1.164,1.541-2.26,3.229t-2.092,3.56q-1,1.872-1.887,3.927t-1.636,4.32a.209.209,0,0,1-.115.11,1.043,1.043,0,0,1-.231.079,2.322,2.322,0,0,1-.3.047q-.168.016-.336.016a1.912,1.912,0,0,1-.44-.047.444.444,0,0,1-.294-.2q-.5-.86-.933-1.515t-.87-1.221q-.44-.566-.917-1.1T-13.666-20.322Z" transform="translate(141.222 552.09)" fill="#ffa000" stroke="#ffa000" stroke-width="1" opacity="0.27"/><g transform="translate(124 519)" fill="none" stroke="#ffa000" stroke-width="2" opacity="0.27"><rect width="21" height="20" rx="5" stroke="none"/><rect x="1" y="1" width="19" height="18" rx="4" fill="none"/></g><path d="M-13.666-20.322a5.771,5.771,0,0,1-.4-.435.576.576,0,0,1-.157-.341.358.358,0,0,1,.142-.278,1.2,1.2,0,0,1,.341-.2,2.05,2.05,0,0,1,.425-.115,2.444,2.444,0,0,1,.383-.037.466.466,0,0,1,.278.079,2.14,2.14,0,0,1,.257.225A16.38,16.38,0,0,1-10.61-19.3q.8,1.132,1.484,2.244A61.062,61.062,0,0,1-6.075-24.1a46.846,46.846,0,0,1,3.921-6.385,1.31,1.31,0,0,1,.655-.451,3,3,0,0,1,1-.157.514.514,0,0,1,.283.068.218.218,0,0,1,.1.194.649.649,0,0,1-.031.215.926.926,0,0,1-.147.236q-1.164,1.541-2.26,3.229t-2.092,3.56q-1,1.872-1.887,3.927t-1.636,4.32a.209.209,0,0,1-.115.11,1.043,1.043,0,0,1-.231.079,2.322,2.322,0,0,1-.3.047q-.168.016-.336.016a1.912,1.912,0,0,1-.44-.047.444.444,0,0,1-.294-.2q-.5-.86-.933-1.515t-.87-1.221q-.44-.566-.917-1.1T-13.666-20.322Z" transform="translate(141.222 582.09)" fill="#ffa000" stroke="#ffa000" stroke-width="1" opacity="0.27"/><g transform="translate(124 549)" fill="none" stroke="#ffa000" stroke-width="2" opacity="0.27"><rect width="21" height="20" rx="5" stroke="none"/><rect x="1" y="1" width="19" height="18" rx="4" fill="none"/></g><path d="M-13.666-20.322a5.771,5.771,0,0,1-.4-.435.576.576,0,0,1-.157-.341.358.358,0,0,1,.142-.278,1.2,1.2,0,0,1,.341-.2,2.05,2.05,0,0,1,.425-.115,2.444,2.444,0,0,1,.383-.037.466.466,0,0,1,.278.079,2.14,2.14,0,0,1,.257.225A16.38,16.38,0,0,1-10.61-19.3q.8,1.132,1.484,2.244A61.062,61.062,0,0,1-6.075-24.1a46.846,46.846,0,0,1,3.921-6.385,1.31,1.31,0,0,1,.655-.451,3,3,0,0,1,1-.157.514.514,0,0,1,.283.068.218.218,0,0,1,.1.194.649.649,0,0,1-.031.215.926.926,0,0,1-.147.236q-1.164,1.541-2.26,3.229t-2.092,3.56q-1,1.872-1.887,3.927t-1.636,4.32a.209.209,0,0,1-.115.11,1.043,1.043,0,0,1-.231.079,2.322,2.322,0,0,1-.3.047q-.168.016-.336.016a1.912,1.912,0,0,1-.44-.047.444.444,0,0,1-.294-.2q-.5-.86-.933-1.515t-.87-1.221q-.44-.566-.917-1.1T-13.666-20.322Z" transform="translate(141.222 612.09)" fill="#ffa000" stroke="#ffa000" stroke-width="1" opacity="0.27"/><g transform="translate(124 579)" fill="none" stroke="#ffa000" stroke-width="2" opacity="0.27"><rect width="21" height="20" rx="5" stroke="none"/><rect x="1" y="1" width="19" height="18" rx="4" fill="none"/></g><text transform="translate(497 255)" fill="#444" font-size="78" font-family="ProximaNova-Semibold, Proxima Nova" font-weight="600"><tspan x="0" y="0">Microlearning takes </tspan><tspan x="0" y="90">300% less time and </tspan><tspan x="0" y="180">costs 50% less than </tspan><tspan x="0" y="270">traditional training</tspan></text></g></svg>