<svg xmlns="http://www.w3.org/2000/svg" xmlns:xlink="http://www.w3.org/1999/xlink" viewBox="0 0 1280 800"><defs><path id="a" d="M0 0h1280v800H0z"/><rect id="c" width="318" height="578" x=".733" y=".686" rx="6"/><path id="e" d="M50.466 72V32.61L34.476 72h-3.9L14.664 32.61V72H5.538V19.974h12.87l14.118 35.022 14.196-35.022h12.87V72h-9.126zM74.49 28.086c-2.73 0-5.07-2.262-5.07-5.07 0-2.808 2.34-5.07 5.07-5.07a5.06 5.06 0 0 1 5.07 5.07 5.06 5.06 0 0 1-5.07 5.07zM70.434 72V34.326h8.19V72h-8.19zm16.458-18.876c0-11.388 8.034-19.734 19.5-19.734 7.332 0 11.778 3.12 14.43 6.708l-5.382 4.992c-2.106-2.964-4.992-4.446-8.658-4.446-6.864 0-11.388 5.148-11.388 12.48 0 7.332 4.524 12.558 11.388 12.558 3.666 0 6.552-1.56 8.658-4.446l5.382 4.992c-2.652 3.588-7.098 6.708-14.43 6.708-11.466 0-19.5-8.346-19.5-19.812zM127.998 72V34.326h8.19v5.538c2.808-3.588 7.332-6.396 12.246-6.396v8.112c-.702-.156-1.56-.234-2.574-.234-3.432 0-8.034 2.34-9.672 4.992V72h-8.19zm44.07.936c-11.934 0-19.344-8.97-19.344-19.812 0-10.764 7.41-19.734 19.344-19.734 12.09 0 19.422 8.97 19.422 19.734 0 10.842-7.332 19.812-19.422 19.812zm0-7.254c7.02 0 10.92-5.85 10.92-12.558 0-6.63-3.9-12.48-10.92-12.48-6.942 0-10.842 5.85-10.842 12.48 0 6.708 3.9 12.558 10.842 12.558zM199.758 72V19.974h8.19V72h-8.19zm16.458-18.876c0-10.92 7.956-19.734 19.11-19.734 11.31 0 18.564 8.658 18.564 20.514v1.95h-29.094c.624 5.694 4.914 10.374 12.012 10.374 3.666 0 8.034-1.482 10.686-4.134l3.744 5.382c-3.744 3.588-9.282 5.46-15.288 5.46-11.31 0-19.734-7.878-19.734-19.812zm19.11-13.026c-7.02 0-10.218 5.382-10.608 9.984h21.216c-.156-4.446-3.198-9.984-10.608-9.984zM285.012 72v-4.056c-2.808 3.198-7.176 4.992-12.168 4.992-6.162 0-13.104-4.134-13.104-12.48 0-8.658 6.942-12.246 13.104-12.246 5.07 0 9.438 1.638 12.168 4.836V47.43c0-4.368-3.588-7.02-8.814-7.02-4.212 0-7.878 1.56-11.154 4.758l-3.354-5.694c4.368-4.134 9.828-6.084 15.834-6.084 8.346 0 15.678 3.51 15.678 13.65V72h-8.19zm0-8.58v-5.694c-1.872-2.574-5.382-3.9-8.97-3.9-4.602 0-8.034 2.652-8.034 6.786 0 4.056 3.432 6.708 8.034 6.708 3.588 0 7.098-1.326 8.97-3.9zM303.81 72V34.326H312v5.538c2.808-3.588 7.332-6.396 12.246-6.396v8.112c-.702-.156-1.56-.234-2.574-.234-3.432 0-8.034 2.34-9.672 4.992V72h-8.19zm52.494 0V48.444c0-5.85-2.964-7.8-7.566-7.8-4.212 0-7.8 2.496-9.672 5.07V72h-8.19V34.326h8.19v5.148c2.496-2.964 7.332-6.084 13.26-6.084 8.112 0 12.168 4.368 12.168 12.09V72h-8.19zm22.854-43.914c-2.73 0-5.07-2.262-5.07-5.07 0-2.808 2.34-5.07 5.07-5.07a5.06 5.06 0 0 1 5.07 5.07 5.06 5.06 0 0 1-5.07 5.07zM375.102 72V34.326h8.19V72h-8.19zm44.226 0V48.444c0-5.85-2.964-7.8-7.566-7.8-4.212 0-7.8 2.496-9.672 5.07V72h-8.19V34.326h8.19v5.148c2.496-2.964 7.332-6.084 13.26-6.084 8.112 0 12.168 4.368 12.168 12.09V72h-8.19zm18.33 9.672l3.822-5.928c3.042 3.51 6.942 4.836 11.934 4.836 5.382 0 11.154-2.496 11.154-10.218v-4.524c-2.886 3.744-7.176 6.24-12.09 6.24-9.594 0-16.692-6.942-16.692-19.344 0-12.168 7.02-19.344 16.692-19.344 4.758 0 9.048 2.184 12.09 6.162v-5.226h8.19V70.05c0 13.572-10.062 17.238-19.344 17.238-6.396 0-11.154-1.404-15.756-5.616zm26.91-21.918v-14.04c-1.794-2.808-5.85-5.07-9.672-5.07-6.474 0-10.608 4.836-10.608 12.09s4.134 12.09 10.608 12.09c3.822 0 7.878-2.262 9.672-5.07zm50.154 13.182c-6.318 0-9.672-3.432-9.672-9.672V41.502h-6.24v-7.176h6.24V24.03h8.19v10.296h7.644v7.176h-7.644v19.734c0 2.574 1.248 4.446 3.588 4.446 1.56 0 3.042-.624 3.666-1.326l1.95 6.162c-1.482 1.404-3.9 2.418-7.722 2.418zM551.304 72v-4.056c-2.808 3.198-7.176 4.992-12.168 4.992-6.162 0-13.104-4.134-13.104-12.48 0-8.658 6.942-12.246 13.104-12.246 5.07 0 9.438 1.638 12.168 4.836V47.43c0-4.368-3.588-7.02-8.814-7.02-4.212 0-7.878 1.56-11.154 4.758l-3.354-5.694c4.368-4.134 9.828-6.084 15.834-6.084 8.346 0 15.678 3.51 15.678 13.65V72h-8.19zm0-8.58v-5.694c-1.872-2.574-5.382-3.9-8.97-3.9-4.602 0-8.034 2.652-8.034 6.786 0 4.056 3.432 6.708 8.034 6.708 3.588 0 7.098-1.326 8.97-3.9zM595.062 72l-11.544-15.522-5.226 5.382V72h-8.19V19.974h8.19V52.5l16.614-18.174h10.14l-15.678 17.082L605.358 72h-10.296zm11.778-18.876c0-10.92 7.956-19.734 19.11-19.734 11.31 0 18.564 8.658 18.564 20.514v1.95H615.42c.624 5.694 4.914 10.374 12.012 10.374 3.666 0 8.034-1.482 10.686-4.134l3.744 5.382c-3.744 3.588-9.282 5.46-15.288 5.46-11.31 0-19.734-7.878-19.734-19.812zm19.11-13.026c-7.02 0-10.218 5.382-10.608 9.984h21.216c-.156-4.446-3.198-9.984-10.608-9.984zm23.4 26.988l3.744-5.928c2.652 2.73 7.878 5.304 12.792 5.304s7.41-1.794 7.41-4.602c0-3.276-3.978-4.446-8.58-5.46-6.474-1.404-14.196-3.12-14.196-11.544 0-6.162 5.304-11.466 14.82-11.466 6.396 0 11.232 2.262 14.664 5.304l-3.432 5.772c-2.262-2.574-6.474-4.524-11.154-4.524-4.29 0-7.02 1.56-7.02 4.212 0 2.886 3.744 3.9 8.19 4.914 6.552 1.404 14.586 3.276 14.586 12.168 0 6.63-5.538 11.7-15.678 11.7-6.396 0-12.246-2.028-16.146-5.85z"/><path id="f" d="M1.872 154.512l4.914-6.006c3.354 3.9 8.892 6.318 14.43 6.318 6.864 0 10.842-3.12 10.842-7.956 0-5.148-4.134-7.332-11.544-7.332-2.184 0-5.226 0-6.006.078v-8.19c.936.078 3.978.078 6.006.078 6.084 0 10.686-2.106 10.686-6.864 0-4.836-4.68-7.332-10.53-7.332-5.304 0-9.672 2.028-13.416 5.772l-4.68-5.694c3.978-4.68 10.296-8.19 18.954-8.19 11.232 0 18.798 5.304 18.798 14.04 0 6.942-5.928 10.998-11.31 11.934 5.07.468 12.09 4.602 12.09 12.636 0 8.814-7.566 15.132-19.578 15.132-9.282 0-16.146-3.744-19.656-8.424zm46.098-18.486c0-13.104 6.24-26.832 20.826-26.832s20.826 13.728 20.826 26.832c0 13.104-6.24 26.91-20.826 26.91S47.97 149.13 47.97 136.026zm32.37 0c0-9.906-3.042-18.72-11.544-18.72s-11.544 8.814-11.544 18.72c0 9.906 3.042 18.798 11.544 18.798s11.544-8.892 11.544-18.798zm15.678 0c0-13.104 6.24-26.832 20.826-26.832s20.826 13.728 20.826 26.832c0 13.104-6.24 26.91-20.826 26.91s-20.826-13.806-20.826-26.91zm32.37 0c0-9.906-3.042-18.72-11.544-18.72s-11.544 8.814-11.544 18.72c0 9.906 3.042 18.798 11.544 18.798s11.544-8.892 11.544-18.798zm14.664-13.806c0-7.332 5.148-13.026 12.87-13.026 7.8 0 13.026 5.694 13.026 13.026 0 7.254-5.226 12.792-13.026 12.792-7.722 0-12.87-5.538-12.87-12.792zM150.93 162l33.228-52.026h5.226L156.078 162h-5.148zm11.934-39.78c0-4.68-2.886-7.8-6.942-7.8-3.978 0-6.864 3.12-6.864 7.8 0 4.446 2.886 7.644 6.864 7.644 4.056 0 6.942-3.198 6.942-7.644zm8.19 27.924c0-7.332 5.148-13.026 12.87-13.026 7.722 0 12.948 5.694 12.948 13.026 0 7.254-5.226 12.792-12.948 12.792s-12.87-5.538-12.87-12.792zm19.812 0c0-4.68-2.886-7.8-6.942-7.8s-6.864 3.12-6.864 7.8c0 4.524 2.808 7.644 6.864 7.644s6.942-3.12 6.942-7.644zM224.406 162v-52.026h8.19V162h-8.19zm16.458-18.876c0-10.92 7.956-19.734 19.11-19.734 11.31 0 18.564 8.658 18.564 20.514v1.95h-29.094c.624 5.694 4.914 10.374 12.012 10.374 3.666 0 8.034-1.482 10.686-4.134l3.744 5.382c-3.744 3.588-9.282 5.46-15.288 5.46-11.31 0-19.734-7.878-19.734-19.812zm19.11-13.026c-7.02 0-10.218 5.382-10.608 9.984h21.216c-.156-4.446-3.198-9.984-10.608-9.984zm23.4 26.988l3.744-5.928c2.652 2.73 7.878 5.304 12.792 5.304s7.41-1.794 7.41-4.602c0-3.276-3.978-4.446-8.58-5.46-6.474-1.404-14.196-3.12-14.196-11.544 0-6.162 5.304-11.466 14.82-11.466 6.396 0 11.232 2.262 14.664 5.304l-3.432 5.772c-2.262-2.574-6.474-4.524-11.154-4.524-4.29 0-7.02 1.56-7.02 4.212 0 2.886 3.744 3.9 8.19 4.914 6.552 1.404 14.586 3.276 14.586 12.168 0 6.63-5.538 11.7-15.678 11.7-6.396 0-12.246-2.028-16.146-5.85zm36.816 0l3.744-5.928c2.652 2.73 7.878 5.304 12.792 5.304s7.41-1.794 7.41-4.602c0-3.276-3.978-4.446-8.58-5.46-6.474-1.404-14.196-3.12-14.196-11.544 0-6.162 5.304-11.466 14.82-11.466 6.396 0 11.232 2.262 14.664 5.304l-3.432 5.772c-2.262-2.574-6.474-4.524-11.154-4.524-4.29 0-7.02 1.56-7.02 4.212 0 2.886 3.744 3.9 8.19 4.914 6.552 1.404 14.586 3.276 14.586 12.168 0 6.63-5.538 11.7-15.678 11.7-6.396 0-12.246-2.028-16.146-5.85zm71.448 5.85c-6.318 0-9.672-3.432-9.672-9.672v-21.762h-6.24v-7.176h6.24V114.03h8.19v10.296h7.644v7.176h-7.644v19.734c0 2.574 1.248 4.446 3.588 4.446 1.56 0 3.042-.624 3.666-1.326l1.95 6.162c-1.482 1.404-3.9 2.418-7.722 2.418zm17.628-44.85c-2.73 0-5.07-2.262-5.07-5.07 0-2.808 2.34-5.07 5.07-5.07a5.06 5.06 0 0 1 5.07 5.07 5.06 5.06 0 0 1-5.07 5.07zM405.21 162v-37.674h8.19V162h-8.19zm64.974 0v-24.57c0-4.056-1.794-6.786-6.162-6.786-3.666 0-7.098 2.574-8.736 4.992V162h-8.19v-24.57c0-4.056-1.794-6.786-6.24-6.786-3.588 0-6.942 2.574-8.658 5.07V162h-8.19v-37.674h8.19v5.148c1.56-2.34 6.552-6.084 12.246-6.084 5.616 0 9.048 2.808 10.296 6.942 2.184-3.432 7.176-6.942 12.792-6.942 6.942 0 10.842 3.744 10.842 11.388V162h-8.19zm16.458-18.876c0-10.92 7.956-19.734 19.11-19.734 11.31 0 18.564 8.658 18.564 20.514v1.95h-29.094c.624 5.694 4.914 10.374 12.012 10.374 3.666 0 8.034-1.482 10.686-4.134l3.744 5.382c-3.744 3.588-9.282 5.46-15.288 5.46-11.31 0-19.734-7.878-19.734-19.812zm19.11-13.026c-7.02 0-10.218 5.382-10.608 9.984h21.216c-.156-4.446-3.198-9.984-10.608-9.984zM575.484 162v-4.056c-2.808 3.198-7.176 4.992-12.168 4.992-6.162 0-13.104-4.134-13.104-12.48 0-8.658 6.942-12.246 13.104-12.246 5.07 0 9.438 1.638 12.168 4.836v-5.616c0-4.368-3.588-7.02-8.814-7.02-4.212 0-7.878 1.56-11.154 4.758l-3.354-5.694c4.368-4.134 9.828-6.084 15.834-6.084 8.346 0 15.678 3.51 15.678 13.65V162h-8.19zm0-8.58v-5.694c-1.872-2.574-5.382-3.9-8.97-3.9-4.602 0-8.034 2.652-8.034 6.786 0 4.056 3.432 6.708 8.034 6.708 3.588 0 7.098-1.326 8.97-3.9zM619.71 162v-23.556c0-5.85-2.964-7.8-7.566-7.8-4.212 0-7.8 2.496-9.672 5.07V162h-8.19v-37.674h8.19v5.148c2.496-2.964 7.332-6.084 13.26-6.084 8.112 0 12.168 4.368 12.168 12.09V162h-8.19zm45.318 0v-5.148c-2.886 3.744-7.254 6.084-12.09 6.084-9.672 0-16.77-7.332-16.77-19.734 0-12.168 7.02-19.812 16.77-19.812 4.68 0 9.048 2.184 12.09 6.162v-19.578h8.19V162h-8.19zm0-11.31v-14.976c-1.872-2.808-5.85-5.07-9.75-5.07-6.474 0-10.608 5.226-10.608 12.558 0 7.254 4.134 12.48 10.608 12.48 3.9 0 7.878-2.184 9.75-4.992z"/><path id="g" d="M2.964 233.124c0-11.388 8.034-19.734 19.5-19.734 7.332 0 11.778 3.12 14.43 6.708l-5.382 4.992c-2.106-2.964-4.992-4.446-8.658-4.446-6.864 0-11.388 5.148-11.388 12.48 0 7.332 4.524 12.558 11.388 12.558 3.666 0 6.552-1.56 8.658-4.446l5.382 4.992c-2.652 3.588-7.098 6.708-14.43 6.708-11.466 0-19.5-8.346-19.5-19.812zm58.11 19.812c-11.934 0-19.344-8.97-19.344-19.812 0-10.764 7.41-19.734 19.344-19.734 12.09 0 19.422 8.97 19.422 19.734 0 10.842-7.332 19.812-19.422 19.812zm0-7.254c7.02 0 10.92-5.85 10.92-12.558 0-6.63-3.9-12.48-10.92-12.48-6.942 0-10.842 5.85-10.842 12.48 0 6.708 3.9 12.558 10.842 12.558zm24.414 1.404l3.744-5.928c2.652 2.73 7.878 5.304 12.792 5.304s7.41-1.794 7.41-4.602c0-3.276-3.978-4.446-8.58-5.46-6.474-1.404-14.196-3.12-14.196-11.544 0-6.162 5.304-11.466 14.82-11.466 6.396 0 11.232 2.262 14.664 5.304l-3.432 5.772c-2.262-2.574-6.474-4.524-11.154-4.524-4.29 0-7.02 1.56-7.02 4.212 0 2.886 3.744 3.9 8.19 4.914 6.552 1.404 14.586 3.276 14.586 12.168 0 6.63-5.538 11.7-15.678 11.7-6.396 0-12.246-2.028-16.146-5.85zm51.402 5.85c-6.318 0-9.672-3.432-9.672-9.672v-21.762h-6.24v-7.176h6.24V204.03h8.19v10.296h7.644v7.176h-7.644v19.734c0 2.574 1.248 4.446 3.588 4.446 1.56 0 3.042-.624 3.666-1.326l1.95 6.162c-1.482 1.404-3.9 2.418-7.722 2.418zm10.296-5.85l3.744-5.928c2.652 2.73 7.878 5.304 12.792 5.304s7.41-1.794 7.41-4.602c0-3.276-3.978-4.446-8.58-5.46-6.474-1.404-14.196-3.12-14.196-11.544 0-6.162 5.304-11.466 14.82-11.466 6.396 0 11.232 2.262 14.664 5.304l-3.432 5.772c-2.262-2.574-6.474-4.524-11.154-4.524-4.29 0-7.02 1.56-7.02 4.212 0 2.886 3.744 3.9 8.19 4.914 6.552 1.404 14.586 3.276 14.586 12.168 0 6.63-5.538 11.7-15.678 11.7-6.396 0-12.246-2.028-16.146-5.85zm59.202-2.184l5.226-6.24c3.51 3.978 8.19 6.162 14.04 6.162 6.552 0 10.686-4.056 10.686-9.126 0-5.616-4.056-9.282-10.452-9.282-4.446 0-8.112 1.404-11.388 4.524l-6.474-1.872v-29.094h34.086v8.034h-24.96v15.054c2.496-2.496 6.786-4.524 11.778-4.524 8.736 0 16.614 6.162 16.614 16.77 0 10.842-8.19 17.628-19.812 17.628-8.97 0-15.132-3.042-19.344-8.034zm45.63-18.876c0-13.104 6.24-26.832 20.826-26.832s20.826 13.728 20.826 26.832c0 13.104-6.24 26.91-20.826 26.91s-20.826-13.806-20.826-26.91zm32.37 0c0-9.906-3.042-18.72-11.544-18.72s-11.544 8.814-11.544 18.72c0 9.906 3.042 18.798 11.544 18.798s11.544-8.892 11.544-18.798zm14.664-13.806c0-7.332 5.148-13.026 12.87-13.026 7.8 0 13.026 5.694 13.026 13.026 0 7.254-5.226 12.792-13.026 12.792-7.722 0-12.87-5.538-12.87-12.792zM306.93 252l33.228-52.026h5.226L312.078 252h-5.148zm11.934-39.78c0-4.68-2.886-7.8-6.942-7.8-3.978 0-6.864 3.12-6.864 7.8 0 4.446 2.886 7.644 6.864 7.644 4.056 0 6.942-3.198 6.942-7.644zm8.19 27.924c0-7.332 5.148-13.026 12.87-13.026 7.722 0 12.948 5.694 12.948 13.026 0 7.254-5.226 12.792-12.948 12.792s-12.87-5.538-12.87-12.792zm19.812 0c0-4.68-2.886-7.8-6.942-7.8s-6.864 3.12-6.864 7.8c0 4.524 2.808 7.644 6.864 7.644s6.942-3.12 6.942-7.644zM380.406 252v-52.026h8.19V252h-8.19zm16.458-18.876c0-10.92 7.956-19.734 19.11-19.734 11.31 0 18.564 8.658 18.564 20.514v1.95h-29.094c.624 5.694 4.914 10.374 12.012 10.374 3.666 0 8.034-1.482 10.686-4.134l3.744 5.382c-3.744 3.588-9.282 5.46-15.288 5.46-11.31 0-19.734-7.878-19.734-19.812zm19.11-13.026c-7.02 0-10.218 5.382-10.608 9.984h21.216c-.156-4.446-3.198-9.984-10.608-9.984zm23.4 26.988l3.744-5.928c2.652 2.73 7.878 5.304 12.792 5.304s7.41-1.794 7.41-4.602c0-3.276-3.978-4.446-8.58-5.46-6.474-1.404-14.196-3.12-14.196-11.544 0-6.162 5.304-11.466 14.82-11.466 6.396 0 11.232 2.262 14.664 5.304l-3.432 5.772c-2.262-2.574-6.474-4.524-11.154-4.524-4.29 0-7.02 1.56-7.02 4.212 0 2.886 3.744 3.9 8.19 4.914 6.552 1.404 14.586 3.276 14.586 12.168 0 6.63-5.538 11.7-15.678 11.7-6.396 0-12.246-2.028-16.146-5.85zm36.816 0l3.744-5.928c2.652 2.73 7.878 5.304 12.792 5.304s7.41-1.794 7.41-4.602c0-3.276-3.978-4.446-8.58-5.46-6.474-1.404-14.196-3.12-14.196-11.544 0-6.162 5.304-11.466 14.82-11.466 6.396 0 11.232 2.262 14.664 5.304l-3.432 5.772c-2.262-2.574-6.474-4.524-11.154-4.524-4.29 0-7.02 1.56-7.02 4.212 0 2.886 3.744 3.9 8.19 4.914 6.552 1.404 14.586 3.276 14.586 12.168 0 6.63-5.538 11.7-15.678 11.7-6.396 0-12.246-2.028-16.146-5.85zm71.448 5.85c-6.318 0-9.672-3.432-9.672-9.672v-21.762h-6.24v-7.176h6.24V204.03h8.19v10.296h7.644v7.176h-7.644v19.734c0 2.574 1.248 4.446 3.588 4.446 1.56 0 3.042-.624 3.666-1.326l1.95 6.162c-1.482 1.404-3.9 2.418-7.722 2.418zm39.078-.936v-23.712c0-5.85-3.042-7.644-7.644-7.644-4.134 0-7.722 2.496-9.672 5.07V252h-8.19v-52.026h8.19v19.5c2.496-2.964 7.41-6.084 13.338-6.084 8.112 0 12.168 4.212 12.168 11.934V252h-8.19zm41.808 0v-4.056c-2.808 3.198-7.176 4.992-12.168 4.992-6.162 0-13.104-4.134-13.104-12.48 0-8.658 6.942-12.246 13.104-12.246 5.07 0 9.438 1.638 12.168 4.836v-5.616c0-4.368-3.588-7.02-8.814-7.02-4.212 0-7.878 1.56-11.154 4.758l-3.354-5.694c4.368-4.134 9.828-6.084 15.834-6.084 8.346 0 15.678 3.51 15.678 13.65V252h-8.19zm0-8.58v-5.694c-1.872-2.574-5.382-3.9-8.97-3.9-4.602 0-8.034 2.652-8.034 6.786 0 4.056 3.432 6.708 8.034 6.708 3.588 0 7.098-1.326 8.97-3.9zM672.75 252v-23.556c0-5.85-2.964-7.8-7.566-7.8-4.212 0-7.8 2.496-9.672 5.07V252h-8.19v-37.674h8.19v5.148c2.496-2.964 7.332-6.084 13.26-6.084 8.112 0 12.168 4.368 12.168 12.09V252h-8.19z"/><path id="h" d="M16.614 342.936c-6.318 0-9.672-3.432-9.672-9.672v-21.762H.702v-7.176h6.24V294.03h8.19v10.296h7.644v7.176h-7.644v19.734c0 2.574 1.248 4.446 3.588 4.446 1.56 0 3.042-.624 3.666-1.326l1.95 6.162c-1.482 1.404-3.9 2.418-7.722 2.418zM30.186 342v-37.674h8.19v5.538c2.808-3.588 7.332-6.396 12.246-6.396v8.112c-.702-.156-1.56-.234-2.574-.234-3.432 0-8.034 2.34-9.672 4.992V342h-8.19zm50.076 0v-4.056c-2.808 3.198-7.176 4.992-12.168 4.992-6.162 0-13.104-4.134-13.104-12.48 0-8.658 6.942-12.246 13.104-12.246 5.07 0 9.438 1.638 12.168 4.836v-5.616c0-4.368-3.588-7.02-8.814-7.02-4.212 0-7.878 1.56-11.154 4.758l-3.354-5.694c4.368-4.134 9.828-6.084 15.834-6.084 8.346 0 15.678 3.51 15.678 13.65V342h-8.19zm0-8.58v-5.694c-1.872-2.574-5.382-3.9-8.97-3.9-4.602 0-8.034 2.652-8.034 6.786 0 4.056 3.432 6.708 8.034 6.708 3.588 0 7.098-1.326 8.97-3.9zM125.58 342v-5.148c-2.886 3.744-7.254 6.084-12.09 6.084-9.672 0-16.77-7.332-16.77-19.734 0-12.168 7.02-19.812 16.77-19.812 4.68 0 9.048 2.184 12.09 6.162v-19.578h8.19V342h-8.19zm0-11.31v-14.976c-1.872-2.808-5.85-5.07-9.75-5.07-6.474 0-10.608 5.226-10.608 12.558 0 7.254 4.134 12.48 10.608 12.48 3.9 0 7.878-2.184 9.75-4.992zm22.854-32.604c-2.73 0-5.07-2.262-5.07-5.07 0-2.808 2.34-5.07 5.07-5.07a5.06 5.06 0 0 1 5.07 5.07 5.06 5.06 0 0 1-5.07 5.07zM144.378 342v-37.674h8.19V342h-8.19zm30.108.936c-6.318 0-9.672-3.432-9.672-9.672v-21.762h-6.24v-7.176h6.24V294.03h8.19v10.296h7.644v7.176h-7.644v19.734c0 2.574 1.248 4.446 3.588 4.446 1.56 0 3.042-.624 3.666-1.326l1.95 6.162c-1.482 1.404-3.9 2.418-7.722 2.418zm17.628-44.85c-2.73 0-5.07-2.262-5.07-5.07 0-2.808 2.34-5.07 5.07-5.07a5.06 5.06 0 0 1 5.07 5.07 5.06 5.06 0 0 1-5.07 5.07zM188.058 342v-37.674h8.19V342h-8.19zm35.802.936c-11.934 0-19.344-8.97-19.344-19.812 0-10.764 7.41-19.734 19.344-19.734 12.09 0 19.422 8.97 19.422 19.734 0 10.842-7.332 19.812-19.422 19.812zm0-7.254c7.02 0 10.92-5.85 10.92-12.558 0-6.63-3.9-12.48-10.92-12.48-6.942 0-10.842 5.85-10.842 12.48 0 6.708 3.9 12.558 10.842 12.558zM276.978 342v-23.556c0-5.85-2.964-7.8-7.566-7.8-4.212 0-7.8 2.496-9.672 5.07V342h-8.19v-37.674h8.19v5.148c2.496-2.964 7.332-6.084 13.26-6.084 8.112 0 12.168 4.368 12.168 12.09V342h-8.19zm41.808 0v-4.056c-2.808 3.198-7.176 4.992-12.168 4.992-6.162 0-13.104-4.134-13.104-12.48 0-8.658 6.942-12.246 13.104-12.246 5.07 0 9.438 1.638 12.168 4.836v-5.616c0-4.368-3.588-7.02-8.814-7.02-4.212 0-7.878 1.56-11.154 4.758l-3.354-5.694c4.368-4.134 9.828-6.084 15.834-6.084 8.346 0 15.678 3.51 15.678 13.65V342h-8.19zm0-8.58v-5.694c-1.872-2.574-5.382-3.9-8.97-3.9-4.602 0-8.034 2.652-8.034 6.786 0 4.056 3.432 6.708 8.034 6.708 3.588 0 7.098-1.326 8.97-3.9zm18.798 8.58v-52.026h8.19V342h-8.19zm50.154.936c-6.318 0-9.672-3.432-9.672-9.672v-21.762h-6.24v-7.176h6.24V294.03h8.19v10.296h7.644v7.176h-7.644v19.734c0 2.574 1.248 4.446 3.588 4.446 1.56 0 3.042-.624 3.666-1.326l1.95 6.162c-1.482 1.404-3.9 2.418-7.722 2.418zM401.31 342v-37.674h8.19v5.538c2.808-3.588 7.332-6.396 12.246-6.396v8.112c-.702-.156-1.56-.234-2.574-.234-3.432 0-8.034 2.34-9.672 4.992V342h-8.19zm50.076 0v-4.056c-2.808 3.198-7.176 4.992-12.168 4.992-6.162 0-13.104-4.134-13.104-12.48 0-8.658 6.942-12.246 13.104-12.246 5.07 0 9.438 1.638 12.168 4.836v-5.616c0-4.368-3.588-7.02-8.814-7.02-4.212 0-7.878 1.56-11.154 4.758l-3.354-5.694c4.368-4.134 9.828-6.084 15.834-6.084 8.346 0 15.678 3.51 15.678 13.65V342h-8.19zm0-8.58v-5.694c-1.872-2.574-5.382-3.9-8.97-3.9-4.602 0-8.034 2.652-8.034 6.786 0 4.056 3.432 6.708 8.034 6.708 3.588 0 7.098-1.326 8.97-3.9zm22.854-35.334c-2.73 0-5.07-2.262-5.07-5.07 0-2.808 2.34-5.07 5.07-5.07a5.06 5.06 0 0 1 5.07 5.07 5.06 5.06 0 0 1-5.07 5.07zM470.184 342v-37.674h8.19V342h-8.19zm44.226 0v-23.556c0-5.85-2.964-7.8-7.566-7.8-4.212 0-7.8 2.496-9.672 5.07V342h-8.19v-37.674h8.19v5.148c2.496-2.964 7.332-6.084 13.26-6.084 8.112 0 12.168 4.368 12.168 12.09V342h-8.19zm22.854-43.914c-2.73 0-5.07-2.262-5.07-5.07 0-2.808 2.34-5.07 5.07-5.07a5.06 5.06 0 0 1 5.07 5.07 5.06 5.06 0 0 1-5.07 5.07zM533.208 342v-37.674h8.19V342h-8.19zm44.226 0v-23.556c0-5.85-2.964-7.8-7.566-7.8-4.212 0-7.8 2.496-9.672 5.07V342h-8.19v-37.674h8.19v5.148c2.496-2.964 7.332-6.084 13.26-6.084 8.112 0 12.168 4.368 12.168 12.09V342h-8.19zm18.33 9.672l3.822-5.928c3.042 3.51 6.942 4.836 11.934 4.836 5.382 0 11.154-2.496 11.154-10.218v-4.524c-2.886 3.744-7.176 6.24-12.09 6.24-9.594 0-16.692-6.942-16.692-19.344 0-12.168 7.02-19.344 16.692-19.344 4.758 0 9.048 2.184 12.09 6.162v-5.226h8.19v35.724c0 13.572-10.062 17.238-19.344 17.238-6.396 0-11.154-1.404-15.756-5.616zm26.91-21.918v-14.04c-1.794-2.808-5.85-5.07-9.672-5.07-6.474 0-10.608 4.836-10.608 12.09s4.134 12.09 10.608 12.09c3.822 0 7.878-2.262 9.672-5.07z"/></defs><g fill="none" fill-rule="evenodd"><mask id="b" fill="#fff"><use xlink:href="#a"/></mask><g mask="url(#b)"><path fill="#FFF9E1" fill-rule="nonzero" d="M0 0h1280v800H0z"/><path fill="#FF5E4C" fill-rule="nonzero" d="M0 726h1280v74H0z"/><g fill="#FFF" fill-rule="nonzero"><path d="M983.029 779.457h9.954a1.93 1.93 0 0 0 1.935-1.843v-6.821a36.608 36.608 0 0 1-11.889 8.664zm-2.212-23.134c-.092-1.751-1.383-2.857-4.148-2.577-5.437.365-9.583 6.54-10.783 12.9 11.8-.922 15.023-8.111 14.931-10.323z"/><path d="M979.803 749.963c5.622-.369 8.2 1.843 8.387 4.608.461 6.083-9.493 13.272-22.581 14.378h-.184a10.209 10.209 0 0 0 .369 5.069c.922 2.4 3.318 3.318 6.083 3.318 12.166 0 21.106-13.456 23.041-19.539v-9.954a1.871 1.871 0 0 0-1.935-1.843h-29.678a1.849 1.849 0 0 0-1.843 1.843v13.641c4.793-6.084 12.166-11.06 18.341-11.521zM1019.344 768.673a4.855 4.855 0 0 0 3.779-1.659l1.106.922a6.365 6.365 0 0 1-4.885 2.3 5.892 5.892 0 0 1-5.9-6.175c0-3.41 2.4-6.175 5.714-6.175 3.5 0 5.53 2.857 5.53 6.267v.553h-9.493a4.081 4.081 0 0 0 4.149 3.967zm3.41-5.346c-.184-2.12-1.475-4.055-3.779-4.055-2.028 0-3.594 1.751-3.871 4.055h7.65zm14.468 6.636v-2.4a5.23 5.23 0 0 1-4.516 2.673 5.856 5.856 0 0 1-5.714-6.171 5.856 5.856 0 0 1 5.714-6.175 5.228 5.228 0 0 1 4.516 2.581v-7.374h1.751v16.866h-1.751zm-4.24-10.6c-2.3 0-4.147 1.751-4.147 4.608 0 2.857 1.935 4.608 4.147 4.608a4.452 4.452 0 0 0 4.332-4.608 4.452 4.452 0 0 0-4.331-4.607l-.001-.001zm15.302 14.287a9.258 9.258 0 0 1-5.439-1.66l.829-1.382a8.066 8.066 0 0 0 4.61 1.476c2.581 0 4.332-1.475 4.332-4.24v-1.383a5.681 5.681 0 0 1-4.7 2.581 5.427 5.427 0 0 1-5.53-5.53 5.5 5.5 0 0 1 5.528-5.622 5.773 5.773 0 0 1 4.7 2.4v-2.12h1.751v9.77c-.092 3.775-2.488 5.71-6.081 5.71zm-.092-14.286a3.892 3.892 0 0 0-4.147 4.055 4 4 0 0 0 4.147 4.055 4.176 4.176 0 0 0 4.422-4.054 4.23 4.23 0 0 0-4.424-4.055l.002-.001zm15.299 9.309a4.855 4.855 0 0 0 3.779-1.659l1.106.922a6.365 6.365 0 0 1-4.885 2.3 5.892 5.892 0 0 1-5.9-6.175c0-3.41 2.4-6.175 5.714-6.175 3.5 0 5.53 2.857 5.53 6.267v.553h-9.4a3.948 3.948 0 0 0 4.056 3.967zm3.41-5.346c-.184-2.12-1.475-4.055-3.779-4.055-2.028 0-3.594 1.751-3.871 4.055h7.65zm11.243 6.913a5.228 5.228 0 0 1-4.516-2.581v5.991h-1.751v-15.576h1.751v2.3a5.23 5.23 0 0 1 4.516-2.673 5.856 5.856 0 0 1 5.714 6.175c.001 3.967-2.857 6.364-5.714 6.364zm-.367-10.876a4.452 4.452 0 0 0-4.332 4.608 4.34 4.34 0 0 0 4.332 4.608c2.3 0 4.147-1.751 4.147-4.608a4.153 4.153 0 0 0-4.147-4.608zm14.745 10.875a6.116 6.116 0 0 1-6.175-6.175 6.194 6.194 0 0 1 6.175-6.267 6.116 6.116 0 0 1 6.175 6.175 6.194 6.194 0 0 1-6.175 6.267zm0-10.876a4.339 4.339 0 0 0-4.332 4.608 4.491 4.491 0 0 0 4.424 4.7 4.412 4.412 0 0 0 4.424-4.608 4.625 4.625 0 0 0-4.516-4.7zm9.401-3.87v-1.935h2.028v1.935h-2.028zm.184 14.47v-11.889h1.751v11.889h-1.751zm7.65 0h-1.751v-11.89h1.751v2.024a4.43 4.43 0 0 1 4.055-2.3c2.857 0 4.516 1.935 4.516 4.7v7.373h-1.751v-6.912c0-2.212-1.2-3.594-3.318-3.594a3.51 3.51 0 0 0-3.594 3.687l.092 6.912zm14.747-3.41a1.8 1.8 0 0 0 2.028 2.028 3.994 3.994 0 0 0 1.751-.369v1.475a4 4 0 0 1-2.12.461c-1.935 0-3.318-.922-3.318-3.318v-7.19h-1.659v-1.661h1.659v-3.5h1.751v3.5h3.779v1.567h-3.779v7l-.092.007zM1138.42 769.963v-16.866h1.751v16.866zM1149.666 768.673a4.855 4.855 0 0 0 3.779-1.659l1.106.922a6.365 6.365 0 0 1-4.885 2.3 5.892 5.892 0 0 1-5.9-6.175c0-3.41 2.4-6.175 5.714-6.175 3.5 0 5.53 2.857 5.53 6.267v.553h-9.4a3.948 3.948 0 0 0 4.055 3.963l.001.004zm3.41-5.346c-.184-2.12-1.475-4.055-3.779-4.055-2.028 0-3.594 1.751-3.871 4.055h7.65zm5.528-2.945l-.553-1.475a9.105 9.105 0 0 1 4.332-.925c3.226 0 5.069 1.659 5.069 4.793v7.281h-1.751v-1.751a5.161 5.161 0 0 1-4.332 2.028c-2.212 0-4.424-1.2-4.424-3.687 0-2.581 2.028-3.871 5.069-3.871a13.114 13.114 0 0 1 3.594.461v-.369c0-2.12-1.29-3.226-3.594-3.226a5.9 5.9 0 0 0-3.41.737v.004zm.276 5.991c0 1.475 1.382 2.4 3.041 2.4 2.212 0 3.963-1.29 3.963-3.226v-1.2a11.937 11.937 0 0 0-3.5-.461c-2.212 0-3.5 1.014-3.5 2.488l-.004-.001zm14.194 3.59h-1.751v-11.889h1.751v3.041a5.068 5.068 0 0 1 4.885-3.318v1.843h-.092c-2.581 0-4.7 1.843-4.7 5.438v4.885h-.093zm9.309 0h-1.751v-11.89h1.751v2.024a4.43 4.43 0 0 1 4.055-2.3c2.857 0 4.516 1.935 4.516 4.7v7.373h-1.751v-6.912c0-2.212-1.2-3.594-3.318-3.594a3.51 3.51 0 0 0-3.594 3.687v6.912h.092zm12.35-14.47v-1.935h2.028v1.935h-2.028zm.184 14.47v-11.889h1.751v11.889h-1.751zm7.65 0h-1.751v-11.89h1.751v2.024a4.43 4.43 0 0 1 4.055-2.3c2.857 0 4.516 1.935 4.516 4.7v7.373h-1.751v-6.912c0-2.212-1.2-3.594-3.318-3.594a3.51 3.51 0 0 0-3.594 3.687l.092 6.912zm17.698 3.687a9.258 9.258 0 0 1-5.439-1.66l.83-1.382a8.066 8.066 0 0 0 4.608 1.475c2.581 0 4.332-1.475 4.332-4.24v-1.382a5.681 5.681 0 0 1-4.7 2.581 5.427 5.427 0 0 1-5.53-5.53 5.5 5.5 0 0 1 5.53-5.622 5.641 5.641 0 0 1 4.7 2.4v-2.12h1.751v9.77c-.092 3.779-2.488 5.714-6.083 5.714l.001-.004zm-.092-14.286a3.892 3.892 0 0 0-4.147 4.055 4 4 0 0 0 4.147 4.055 4.176 4.176 0 0 0 4.424-4.055 4.23 4.23 0 0 0-4.426-4.054l.002-.001z"/></g><g transform="translate(80 58)"><rect width="337" height="608" fill="#444" fill-rule="nonzero" stroke="#7B7B7B" stroke-width="2" rx="10"/><g transform="translate(8.267 20.314)"><mask id="d" fill="#fff"><use xlink:href="#c"/></mask><g mask="url(#d)"><g fill-rule="nonzero" transform="translate(-26.181 -5.704)"><path fill="#FFD93B" d="M0 0h373.403v585.909H0z"/><circle cx="127.841" cy="127.841" r="94.355" fill="#FFA000" transform="rotate(-28.347 226.381 28.762)"/><circle cx="144.392" cy="144.471" r="106.635" fill="#FFA000" opacity=".25" transform="rotate(-28.231 201.984 69.56)"/><path fill="#FFF" d="M140.397 184.765l48.326 20.862 51.772-25.1 2.651 15.343-55.28 26-50.119-21.89z"/><path fill="#D283DB" d="M249.875 197.03l-6.73-1.157-55.28 26-50.119-21.89v-15.218l-6.708-2.833 1.09 22.276 55.109 23.783z"/><path fill="#D283DB" d="M156.863 166.995l15.792-6.837 43.954-.417 1.261.417 30.738 16.646-59.885 28.824-56.595-26.111z"/><path fill="#FF5E4C" d="M213.121 162.936c-2.17 6.281-6.152 14.395-12.794 17.365-3.659 1.64-7.816 1.506-12.348-.393l-.972-.1-.511.1c-4.536 1.9-8.691 2.032-12.35.393-6.64-2.97-10.625-11.082-12.8-17.367a31.011 31.011 0 0 1-1.639-14.949c.854-5.485 3.17-9.434 6.884-11.736 6.515-4.036 15.593-2 17.9-1.386.104.58.238 1.154.4 1.721l2.526-.8a11.229 11.229 0 0 1-.1-.335 18.136 18.136 0 0 0 2.064-.537l.034.1c.109-.036 10.974-3.4 18.455 1.228 3.715 2.3 6.032 6.251 6.886 11.736.69 5.045.13 10.183-1.635 14.96z"/><path fill="#332948" d="M187.857 229.357l-57.6-25.993v-23.466l26.6-12.9 1.157 2.384-25.111 12.177v20.1l54.923 24.784 62.044-29.407 1.134 2.394z"/><path fill="#332948" d="M187.857 207.573l-56.819-25.64 1.09-2.415 55.7 25.136 58.912-27.924-30.007-14.175 1.134-2.4 35.07 16.568z"/><path fill="#332948" d="M187.864 221.874l-50.119-21.89v-15.219h2.65v13.484l47.427 20.715 52.671-24.773v-13.66h2.651v15.343zM164.571 163.852a30.354 30.354 0 0 1-1.58-14.646 18.288 18.288 0 0 1 4.391-9.871l1.94 1.8a15.713 15.713 0 0 0-3.714 8.474 27.714 27.714 0 0 0 1.466 13.372l-2.503.871zM186.764 142.154a17.456 17.456 0 0 1-6.577-1.279l1-2.457a14.944 14.944 0 0 0 11.163 0l.994 2.457a17.463 17.463 0 0 1-6.58 1.279z"/><path fill="#332948" d="M185.437 140.304c-.006-.124-.749-12.653-9.174-17.211l1.26-2.331c9.747 5.273 10.534 18.835 10.562 19.41l-2.648.132z"/><path fill="#332948" d="M217.384 147.579c-.979-6.292-3.713-10.865-8.12-13.588-4.268-2.64-9.311-3.052-13.346-2.785 8.221-7.753 7.352-22.752 7.341-22.949l-.116-1.682-1.609.511c-16.732 5.313-18.052 18.076-17.438 24.943-3.637-.845-12.2-2.174-18.885 1.959-4.408 2.725-7.138 7.3-8.12 13.59a33.629 33.629 0 0 0 1.753 16.222c2.345 6.779 6.715 15.561 14.221 18.921 4.275 1.912 9.043 1.828 14.172-.253a20.541 20.541 0 0 0 7.708 1.625 15.684 15.684 0 0 0 6.466-1.375c7.509-3.358 11.876-12.142 14.217-18.919a33.641 33.641 0 0 0 1.756-16.22zm-16.723-37.387c0 5.268-1.107 20.531-13.865 22.662-.799-5.501-.606-17.237 13.866-22.662h-.001zm12.46 52.744c-2.17 6.281-6.152 14.395-12.794 17.365-3.659 1.64-7.816 1.506-12.348-.393l-.972-.1-.511.1c-4.535 1.9-8.691 2.032-12.35.393-6.64-2.97-10.625-11.082-12.8-17.367a31.011 31.011 0 0 1-1.639-14.949c.854-5.485 3.17-9.434 6.884-11.736 6.515-4.036 15.593-2 17.9-1.386.104.58.238 1.154.4 1.721l2.526-.8a11.229 11.229 0 0 1-.1-.335 18.14 18.14 0 0 0 2.064-.537l.034.1c.109-.036 10.974-3.4 18.455 1.228 3.715 2.3 6.032 6.251 6.886 11.736a31.034 31.034 0 0 1-1.634 14.96h-.001zM117.799 188.11h13.784v2.651h-13.784zM241.82 188.11h13.783v2.651H241.82z"/><path fill="#16CF8D" d="M200.661 110.192c0 5.268-1.107 20.531-13.865 22.662-.799-5.501-.607-17.237 13.865-22.662z"/></g></g></g><path fill="#000" fill-rule="nonzero" d="M200.622 15.272h-63.669c-3.1 0-5.618-1.645-5.618-3.674 0-2.03 2.515-3.674 5.618-3.674h63.669c3.1 0 5.618 1.645 5.618 3.674-.005 2.025-2.515 3.674-5.618 3.674z"/></g><rect width="250" height="40" x="124" y="379" fill="#FFA000" fill-rule="nonzero" opacity=".27" rx="10"/><rect width="250" height="10" x="124" y="429" fill="#FFA000" fill-rule="nonzero" opacity=".27" rx="5"/><rect width="250" height="10" x="124" y="449" fill="#FFA000" fill-rule="nonzero" opacity=".27" rx="5"/><rect width="250" height="10" x="124" y="469" fill="#FFA000" fill-rule="nonzero" opacity=".27" rx="5"/><rect width="130" height="10" x="124" y="489" fill="#FFA000" fill-rule="nonzero" opacity=".27" rx="5"/><rect width="220" height="20" x="154" y="519" fill="#FFA000" fill-rule="nonzero" opacity=".27" rx="10"/><rect width="220" height="20" x="154" y="549" fill="#FFA000" fill-rule="nonzero" opacity=".27" rx="10"/><rect width="220" height="20" x="154" y="579" fill="#FFA000" fill-rule="nonzero" opacity=".27" rx="10"/><path fill="#FFA000" fill-rule="nonzero" stroke="#FFA000" d="M127.556 531.768a5.771 5.771 0 0 1-.4-.435.576.576 0 0 1-.157-.341.358.358 0 0 1 .142-.278 1.2 1.2 0 0 1 .341-.2 2.444 2.444 0 0 1 .808-.152.466.466 0 0 1 .278.079c.092.068.177.143.257.225a16.38 16.38 0 0 1 1.787 2.124 42.217 42.217 0 0 1 1.484 2.244 61.062 61.062 0 0 1 3.051-7.044 46.846 46.846 0 0 1 3.921-6.385 1.31 1.31 0 0 1 .655-.451 3 3 0 0 1 1-.157.514.514 0 0 1 .283.068.218.218 0 0 1 .1.194.649.649 0 0 1-.031.215.926.926 0 0 1-.147.236 55.49 55.49 0 0 0-2.26 3.229 47.524 47.524 0 0 0-2.092 3.56 52.418 52.418 0 0 0-3.523 8.247.209.209 0 0 1-.115.11 1.043 1.043 0 0 1-.231.079c-.099.022-.2.038-.3.047-.112.01-.224.016-.336.016a1.917 1.917 0 0 1-.44-.047.444.444 0 0 1-.294-.2 31.273 31.273 0 0 0-.933-1.515 20.466 20.466 0 0 0-.87-1.221 20.972 20.972 0 0 0-.917-1.1 48.936 48.936 0 0 0-1.061-1.147z" opacity=".27"/><g opacity=".27" transform="translate(124 519)"><rect width="21" height="20" rx="5"/><rect width="19" height="18" x="1" y="1" stroke="#FFA000" stroke-width="2" rx="4"/></g><path fill="#FFA000" fill-rule="nonzero" stroke="#FFA000" d="M127.556 561.768a5.771 5.771 0 0 1-.4-.435.576.576 0 0 1-.157-.341.358.358 0 0 1 .142-.278 1.2 1.2 0 0 1 .341-.2 2.444 2.444 0 0 1 .808-.152.466.466 0 0 1 .278.079c.092.068.177.143.257.225a16.38 16.38 0 0 1 1.787 2.124 42.217 42.217 0 0 1 1.484 2.244 61.062 61.062 0 0 1 3.051-7.044 46.846 46.846 0 0 1 3.921-6.385 1.31 1.31 0 0 1 .655-.451 3 3 0 0 1 1-.157.514.514 0 0 1 .283.068.218.218 0 0 1 .1.194.649.649 0 0 1-.031.215.926.926 0 0 1-.147.236 55.49 55.49 0 0 0-2.26 3.229 47.524 47.524 0 0 0-2.092 3.56 52.418 52.418 0 0 0-3.523 8.247.209.209 0 0 1-.115.11 1.043 1.043 0 0 1-.231.079c-.099.022-.2.038-.3.047-.112.01-.224.016-.336.016a1.917 1.917 0 0 1-.44-.047.444.444 0 0 1-.294-.2 31.273 31.273 0 0 0-.933-1.515 20.466 20.466 0 0 0-.87-1.221 20.972 20.972 0 0 0-.917-1.1 48.936 48.936 0 0 0-1.061-1.147z" opacity=".27"/><g opacity=".27" transform="translate(124 549)"><rect width="21" height="20" rx="5"/><rect width="19" height="18" x="1" y="1" stroke="#FFA000" stroke-width="2" rx="4"/></g><path fill="#FFA000" fill-rule="nonzero" stroke="#FFA000" d="M127.556 591.768a5.771 5.771 0 0 1-.4-.435.576.576 0 0 1-.157-.341.358.358 0 0 1 .142-.278 1.2 1.2 0 0 1 .341-.2 2.444 2.444 0 0 1 .808-.152.466.466 0 0 1 .278.079c.092.068.177.143.257.225a16.38 16.38 0 0 1 1.787 2.124 42.217 42.217 0 0 1 1.484 2.244 61.062 61.062 0 0 1 3.051-7.044 46.846 46.846 0 0 1 3.921-6.385 1.31 1.31 0 0 1 .655-.451 3 3 0 0 1 1-.157.514.514 0 0 1 .283.068.218.218 0 0 1 .1.194.649.649 0 0 1-.031.215.926.926 0 0 1-.147.236 55.49 55.49 0 0 0-2.26 3.229 47.524 47.524 0 0 0-2.092 3.56 52.418 52.418 0 0 0-3.523 8.247.209.209 0 0 1-.115.11 1.043 1.043 0 0 1-.231.079c-.099.022-.2.038-.3.047-.112.01-.224.016-.336.016a1.917 1.917 0 0 1-.44-.047.444.444 0 0 1-.294-.2 31.273 31.273 0 0 0-.933-1.515 20.466 20.466 0 0 0-.87-1.221 20.972 20.972 0 0 0-.917-1.1 48.936 48.936 0 0 0-1.061-1.147z" opacity=".27"/><g opacity=".27" transform="translate(124 579)"><rect width="21" height="20" rx="5"/><rect width="19" height="18" x="1" y="1" stroke="#FFA000" stroke-width="2" rx="4"/></g><g fill-rule="nonzero" transform="translate(497 183)"><use fill="#000" xlink:href="#e"/><use fill="#444" xlink:href="#e"/><use fill="#000" xlink:href="#f"/><use fill="#444" xlink:href="#f"/><use fill="#000" xlink:href="#g"/><use fill="#444" xlink:href="#g"/><use fill="#000" xlink:href="#h"/><use fill="#444" xlink:href="#h"/></g></g></g></svg>