<svg xmlns="http://www.w3.org/2000/svg" xmlns:xlink="http://www.w3.org/1999/xlink" width="1280" height="800" viewBox="0 0 1280 800">
  <defs>
    <filter id="Path_804" x="55.05" y="170.15" width="503.75" height="65.15" filterUnits="userSpaceOnUse">
      <feOffset dy="5" input="SourceAlpha"/>
      <feGaussianBlur stdDeviation="3.5" result="blur"/>
      <feFlood flood-opacity="0.161"/>
      <feComposite operator="in" in2="blur"/>
      <feComposite in="SourceGraphic"/>
    </filter>
    <filter id="Path_803" x="54.8" y="271.15" width="467.75" height="284.15" filterUnits="userSpaceOnUse">
      <feOffset dy="5" input="SourceAlpha"/>
      <feGaussianBlur stdDeviation="3.5" result="blur-2"/>
      <feFlood flood-opacity="0.161"/>
      <feComposite operator="in" in2="blur-2"/>
      <feComposite in="SourceGraphic"/>
    </filter>
    <clipPath id="clip-_2017-05-17-what-is-mlearning-04">
      <rect width="1280" height="800"/>
    </clipPath>
  </defs>
  <g id="_2017-05-17-what-is-mlearning-04" data-name="2017-05-17-what-is-mlearning-04" clip-path="url(#clip-_2017-05-17-what-is-mlearning-04)">
    <rect width="1280" height="800" fill="#d08a82"/>
    <g id="Group_147" data-name="Group 147" transform="translate(-175.161 -646.502)">
      <g id="Group_90" data-name="Group 90" transform="translate(1161.55 738.068)">
        <path id="Path_176" data-name="Path 176" d="M3264.833,1088.972a33.066,33.066,0,0,0-10.507-6.791,34.129,34.129,0,0,0-25.505,0,33.06,33.06,0,0,0-10.508,6.791,31.975,31.975,0,0,0-7.18,10.216,31.123,31.123,0,0,0-2.666,12.649,32.509,32.509,0,0,0,1.033,7.318c.445,1.894,1.723,6.625,3.981,9.658,1.07,1.436,2.289,2.852,3.581,4.353,2.272,2.64,6.077,7.058,6.373,9.363,0,.005,0,.01,0,.016s0,.01,0,.015,0,.031,0,.048a1.85,1.85,0,0,0,1.847,1.772l.08,0a1.85,1.85,0,0,0,1.77-1.927c-.005-.129-.016-.253-.033-.379l0-.015h0c-.406-3.15-3.519-6.984-7.241-11.308-1.247-1.448-2.424-2.815-3.415-4.146-1.506-2.023-2.716-5.611-3.347-8.3a29.015,29.015,0,0,1-.934-6.469,27.447,27.447,0,0,1,2.351-11.155,28.294,28.294,0,0,1,6.354-9.038,29.388,29.388,0,0,1,9.338-6.034,30.429,30.429,0,0,1,22.726,0,29.377,29.377,0,0,1,9.337,6.034,28.294,28.294,0,0,1,6.355,9.038,27.446,27.446,0,0,1,2.351,11.155,27.772,27.772,0,0,1-7.931,19.389c-.21.218-.515.526-.9.921-3.747,3.8-4.312,4.5-4.5,4.732-.025.032-.05.064-.073.1a15.512,15.512,0,0,0-2.291,4.35,1.85,1.85,0,1,0,3.558,1.019,11.611,11.611,0,0,1,1.727-3.192c.282-.341,1.206-1.362,4.216-4.411.4-.4.71-.719.925-.943a31.451,31.451,0,0,0,8.972-21.962,31.126,31.126,0,0,0-2.666-12.649A31.98,31.98,0,0,0,3264.833,1088.972Z" transform="translate(-3186.568 -1055.989)" fill="#ffd8d2"/>
        <g id="Group_76" data-name="Group 76" transform="translate(0 0)">
          <g id="Group_71" data-name="Group 71">
            <g id="Group_67" data-name="Group 67" transform="translate(52.367)">
              <path id="Path_177" data-name="Path 177" d="M3399.685,932.281a1.85,1.85,0,0,0-1.85,1.85v16.135a1.85,1.85,0,1,0,3.7,0V934.131A1.851,1.851,0,0,0,3399.685,932.281Z" transform="translate(-3397.835 -932.281)" fill="#ffd8d2"/>
            </g>
            <g id="Group_68" data-name="Group 68" transform="translate(25.86 7.576)">
              <path id="Path_178" data-name="Path 178" d="M3236.539,980.291a1.85,1.85,0,1,0-3.2,1.85l8.067,13.973a1.85,1.85,0,1,0,3.205-1.85Z" transform="translate(-3233.086 -979.366)" fill="#ffd8d2"/>
            </g>
            <g id="Group_69" data-name="Group 69" transform="translate(6.692 27.39)">
              <path id="Path_179" data-name="Path 179" d="M3130.7,1110.832l-13.973-8.068a1.85,1.85,0,0,0-1.85,3.2l13.974,8.068a1.85,1.85,0,0,0,1.85-3.205Z" transform="translate(-3113.955 -1102.516)" fill="#ffd8d2"/>
            </g>
            <g id="Group_70" data-name="Group 70" transform="translate(0 54.134)">
              <path id="Path_180" data-name="Path 180" d="M3090.346,1268.737H3074.21a1.85,1.85,0,0,0,0,3.7h16.135a1.85,1.85,0,0,0,0-3.7Z" transform="translate(-3072.36 -1268.737)" fill="#ffd8d2"/>
            </g>
          </g>
          <g id="Group_75" data-name="Group 75" transform="translate(71.373 6.26)">
            <g id="Group_72" data-name="Group 72">
              <path id="Path_181" data-name="Path 181" d="M3526.808,971.435a1.85,1.85,0,0,0-2.528.677l-8.068,13.973a1.85,1.85,0,1,0,3.2,1.85l8.068-13.973A1.85,1.85,0,0,0,3526.808,971.435Z" transform="translate(-3515.964 -971.187)" fill="#ffd8d2"/>
            </g>
            <g id="Group_73" data-name="Group 73" transform="translate(14.225 18.851)">
              <path id="Path_182" data-name="Path 182" d="M3619.275,1088.6l-13.973,8.068a1.85,1.85,0,1,0,1.85,3.2l13.974-8.068a1.85,1.85,0,1,0-1.85-3.2Z" transform="translate(-3604.376 -1088.352)" fill="#ffd8d2"/>
            </g>
            <g id="Group_74" data-name="Group 74" transform="translate(20.072 45.242)">
              <path id="Path_183" data-name="Path 183" d="M3658.7,1252.38h-16.135a1.85,1.85,0,1,0,0,3.7H3658.7a1.85,1.85,0,0,0,0-3.7Z" transform="translate(-3640.717 -1252.38)" fill="#ffd8d2"/>
            </g>
          </g>
        </g>
        <path id="Path_184" data-name="Path 184" d="M3371.509,1319.625a3.164,3.164,0,0,0-3.6.207,4.445,4.445,0,0,1-.9.517,4.385,4.385,0,0,1-.3-.718,3.143,3.143,0,0,0-3.109-3.067,3.188,3.188,0,0,0-.65.042,3.151,3.151,0,0,0-2.618,3.024,4.3,4.3,0,0,1-.3.722,4.221,4.221,0,0,1-.9-.521,3.152,3.152,0,0,0-5.039,3.1l3.575,17.647a1.85,1.85,0,0,0,3.627-.735l-3.319-16.381c1.014.541,2.516,1.068,3.745.364a1.833,1.833,0,1,1,3.6,0,3.383,3.383,0,0,0,3.029-.032,7.847,7.847,0,0,0,.718-.336l-3.32,16.385a1.851,1.851,0,0,0,3.627.734l3.575-17.647A3.162,3.162,0,0,0,3371.509,1319.625Zm-14.661,3.121,0,0Zm10.361-2.091Z" transform="translate(-3308.709 -1254.732)" fill="#ffd8d2"/>
        <path id="Path_185" data-name="Path 185" d="M3314.211,1182.037a19.235,19.235,0,0,0-5.469,6.035,1.85,1.85,0,1,0,3.2,1.851,15.564,15.564,0,0,1,4.424-4.881,1.85,1.85,0,0,0-2.16-3Z" transform="translate(-3270.501 -1141.561)" fill="#ffd8d2"/>
        <path id="Path_186" data-name="Path 186" d="M3378.314,1161.157a19.25,19.25,0,0,0-5.572.825,1.85,1.85,0,0,0,1.072,3.542,15.635,15.635,0,0,1,20.154,14.986c0,.018,0,.036,0,.063v.031a1.85,1.85,0,0,0,1.783,1.915h.067a1.85,1.85,0,0,0,1.848-1.784v-.022c0-.068,0-.135,0-.2A19.375,19.375,0,0,0,3378.314,1161.157Z" transform="translate(-3323.309 -1124.332)" fill="#ffd8d2"/>
        <g id="Group_89" data-name="Group 89" transform="translate(35.06 83.762)">
          <g id="Group_78" data-name="Group 78" transform="translate(4.626 18.312)">
            <g id="Group_77" data-name="Group 77">
              <path id="Path_187" data-name="Path 187" d="M3346.631,1566.979a1.851,1.851,0,0,0-.739,2.258,13,13,0,0,1-23.1,0,1.85,1.85,0,0,0-3.288-1.667,3.133,3.133,0,0,0-.155,3.057,16.7,16.7,0,0,0,29.987,0,3.132,3.132,0,0,0-.155-3.056A1.85,1.85,0,0,0,3346.631,1566.979Z" transform="translate(-3319.022 -1566.698)" fill="#ffd8d2"/>
            </g>
          </g>
          <g id="Group_83" data-name="Group 83">
            <g id="Group_80" data-name="Group 80">
              <g id="Group_79" data-name="Group 79">
                <path id="Path_188" data-name="Path 188" d="M3323.757,1452.882h-27.084a6.4,6.4,0,1,0,0,12.8h27.084a6.4,6.4,0,1,0,0-12.8Zm0,9.1h-27.084a2.7,2.7,0,1,1,0-5.4h27.084a2.7,2.7,0,1,1,0,5.4Z" transform="translate(-3290.27 -1452.882)" fill="#ffd8d2"/>
              </g>
            </g>
            <g id="Group_82" data-name="Group 82">
              <g id="Group_81" data-name="Group 81">
                <path id="Path_189" data-name="Path 189" d="M3323.757,1452.882h-27.084a6.4,6.4,0,1,0,0,12.8h27.084a6.4,6.4,0,1,0,0-12.8Zm0,9.1h-27.084a2.7,2.7,0,1,1,0-5.4h27.084a2.7,2.7,0,1,1,0,5.4Z" transform="translate(-3290.27 -1452.882)" fill="#ffd8d2"/>
              </g>
            </g>
          </g>
          <g id="Group_88" data-name="Group 88" transform="translate(0 9.105)">
            <g id="Group_85" data-name="Group 85">
              <g id="Group_84" data-name="Group 84">
                <path id="Path_190" data-name="Path 190" d="M3323.757,1509.469h-27.084a6.4,6.4,0,1,0,0,12.8h27.084a6.4,6.4,0,1,0,0-12.8Zm0,9.1h-27.084a2.7,2.7,0,1,1,0-5.4h27.084a2.7,2.7,0,1,1,0,5.4Z" transform="translate(-3290.27 -1509.469)" fill="#ffd8d2"/>
              </g>
            </g>
            <g id="Group_87" data-name="Group 87">
              <g id="Group_86" data-name="Group 86">
                <path id="Path_191" data-name="Path 191" d="M3323.757,1509.469h-27.084a6.4,6.4,0,1,0,0,12.8h27.084a6.4,6.4,0,1,0,0-12.8Zm0,9.1h-27.084a2.7,2.7,0,1,1,0-5.4h27.084a2.7,2.7,0,1,1,0,5.4Z" transform="translate(-3290.27 -1509.469)" fill="#ffd8d2"/>
              </g>
            </g>
          </g>
        </g>
      </g>
      <g id="Group_92" data-name="Group 92" transform="translate(874.791 787.336)">
        <g id="Group_91" data-name="Group 91" transform="translate(0)">
          <path id="Path_192" data-name="Path 192" d="M1367.114,1271.924c-7.431-7.568-23.369-5.205-35.589,5.26s-16.105,25.068-8.662,32.617l89.234,96.693c7.44,7.559,23.373,5.191,35.6-5.272,12.212-10.458,16.1-25.067,8.65-32.625Z" transform="translate(-1314.414 -1262.826)" fill="#fff"/>
          <path id="Path_193" data-name="Path 193" d="M1435.392,1341.046l-89.184-96.621c-.032-.035-.065-.07-.1-.1a18.615,18.615,0,0,0-7.06-4.46,24.514,24.514,0,0,0-8.319-1.37,36.629,36.629,0,0,0-13.525,2.814,47.393,47.393,0,0,0-13.049,8,44.988,44.988,0,0,0-10.045,12.1,30.35,30.35,0,0,0-4.01,13.248,20.321,20.321,0,0,0,1.046,7.541,17.347,17.347,0,0,0,4,6.493l89.185,96.64c.034.037.069.073.1.109a18.631,18.631,0,0,0,7.058,4.45,24.537,24.537,0,0,0,8.312,1.367,36.661,36.661,0,0,0,13.531-2.815,47.473,47.473,0,0,0,13.058-8,44.983,44.983,0,0,0,10.038-12.094,30.359,30.359,0,0,0,4.008-13.247,20.338,20.338,0,0,0-1.045-7.546A17.368,17.368,0,0,0,1435.392,1341.046Zm-12.031,35.841c-7.4,6.33-16.147,9.7-23.555,9.7-4.839,0-9.105-1.437-12.045-4.424l-89.234-96.692c-7.444-7.549-3.562-22.155,8.662-32.617,7.388-6.328,16.135-9.693,23.539-9.693,4.842,0,9.112,1.44,12.05,4.432l89.232,96.673C1439.458,1351.821,1435.574,1366.43,1423.362,1376.888Z" transform="translate(-1290.079 -1238.492)" fill="#542d2a"/>
        </g>
      </g>
      <path id="Path_194" data-name="Path 194" d="M1727,1413.543v85.831l27.384,29.672c7.44,7.559,23.373,5.191,35.6-5.272,12.212-10.458,16.1-25.067,8.65-32.625Z" transform="translate(-781.915 -598.042)" fill="#ffd8d2"/>
      <g id="Group_93" data-name="Group 93" transform="translate(900.371 955.525)">
        <path id="Path_195" data-name="Path 195" d="M1701.881,2298.33l-146.358,96.8-30.417-27.188c-7.521-7.48-16.417,12.625-28.513,23.233s-39.205,8.317-31.681,25.345c0,0,44.1,37.35,49.143,44.977l63.331,95.75a69.452,69.452,0,0,0,96.241,19.613l89.889-59.454a69.451,69.451,0,0,0,19.613-96.241Z" transform="translate(-1461.273 -2295.997)" fill="#fff"/>
        <path id="Path_196" data-name="Path 196" d="M1772.868,2407.714l-81.247-122.839a2.332,2.332,0,0,0-3.233-.659l-144.857,95.811-29.032-25.95a7.079,7.079,0,0,0-5.5-2.25c-5.006.295-9.429,5.875-15.029,12.938-3.5,4.417-7.123,8.986-11.121,12.491-4.087,3.583-10.212,5.626-16.135,7.6-7.422,2.475-14.431,4.813-16.822,10.219-1.291,2.92-1.069,6.263.68,10.22a2.335,2.335,0,0,0,.626.837c12.195,10.329,44.718,38.456,48.7,44.484l63.331,95.75a71.725,71.725,0,0,0,99.474,20.272l89.889-59.454a71.726,71.726,0,0,0,20.272-99.474Zm5.894,53a66.9,66.9,0,0,1-28.74,42.579l-89.889,59.454a67.061,67.061,0,0,1-93.008-18.955l-63.331-95.75c-4.957-7.495-44.344-41.025-49.159-45.112-1.007-2.461-1.162-4.417-.476-5.968,1.557-3.52,7.616-5.541,14.031-7.681,6.065-2.023,12.94-4.316,17.734-8.52,4.316-3.784,8.239-8.734,11.7-13.1,4.29-5.411,8.726-11.007,11.647-11.179a2.5,2.5,0,0,1,1.982.947q.044.044.091.085l30.417,27.188a2.332,2.332,0,0,0,2.842.206l144.412-95.517,79.961,120.893a66.9,66.9,0,0,1,9.785,50.43Z" transform="translate(-1449.067 -2283.829)" fill="#542d2a"/>
      </g>
      <g id="Group_95" data-name="Group 95" transform="translate(906.085 966.754)">
        <g id="Group_94" data-name="Group 94" transform="translate(0 0)">
          <path id="Path_197" data-name="Path 197" d="M1615.446,2446.055l-53.728-58.959c-7.4-7.595-23.353-5.289-35.609,5.133s-16.194,25.011-8.778,32.585l62.615,68.269c7.413,7.585,23.354,5.274,35.619-5.146l-3.224-13.157C1624.589,2464.367,1622.865,2453.638,1615.446,2446.055Z" transform="translate(-1508.917 -2377.955)" fill="#ffd8d2"/>
          <path id="Path_198" data-name="Path 198" d="M1594.506,2418.519l-53.675-58.9c-.035-.038-.071-.077-.108-.114a18.624,18.624,0,0,0-7.092-4.5,24.588,24.588,0,0,0-8.371-1.383,36.723,36.723,0,0,0-13.485,2.787,47.415,47.415,0,0,0-13.024,7.933,44.966,44.966,0,0,0-10.088,12.059,30.342,30.342,0,0,0-4.057,13.233,20.309,20.309,0,0,0,1.019,7.545,17.337,17.337,0,0,0,3.979,6.507l62.568,68.218c.033.036.067.073.1.107a18.637,18.637,0,0,0,7.089,4.492,24.6,24.6,0,0,0,8.364,1.379,36.747,36.747,0,0,0,13.491-2.788,47.5,47.5,0,0,0,13.033-7.934,4.666,4.666,0,0,0,1.511-4.667l-2.565-10.465a31.652,31.652,0,0,0,5.52-7.019,21.481,21.481,0,0,0,2.871-9.612,20.276,20.276,0,0,0-1.819-9.288A26.478,26.478,0,0,0,1594.506,2418.519Zm-6.5,31.927,3.224,13.157c-7.391,6.279-16.114,9.613-23.5,9.613-4.875,0-9.17-1.452-12.116-4.467L1493,2400.481c-7.417-7.574-3.483-22.167,8.778-32.585,7.381-6.276,16.1-9.608,23.486-9.608,4.879,0,9.177,1.455,12.123,4.476l53.728,58.958C1598.531,2429.3,1600.254,2440.033,1588.007,2450.447Z" transform="translate(-1484.583 -2353.621)" fill="#542d2a"/>
        </g>
      </g>
      <g id="Group_97" data-name="Group 97" transform="translate(907.814 896.178)">
        <g id="Group_96" data-name="Group 96" transform="translate(0 0)">
          <path id="Path_199" data-name="Path 199" d="M1626.191,2007.406l-53.728-58.958c-7.4-7.6-23.352-5.289-35.609,5.132s-16.195,25.012-8.778,32.586l62.615,68.268c7.413,7.585,23.353,5.273,35.619-5.147l-3.225-13.157C1635.335,2025.717,1633.611,2014.989,1626.191,2007.406Z" transform="translate(-1519.663 -1939.306)" fill="#ffd8d2"/>
          <path id="Path_200" data-name="Path 200" d="M1605.252,1979.87l-53.674-58.9c-.035-.038-.071-.077-.108-.114a18.617,18.617,0,0,0-7.092-4.5,24.581,24.581,0,0,0-8.371-1.383,36.723,36.723,0,0,0-13.484,2.787,47.407,47.407,0,0,0-13.024,7.932,44.985,44.985,0,0,0-10.088,12.061,30.342,30.342,0,0,0-4.056,13.234,20.3,20.3,0,0,0,1.019,7.544,17.339,17.339,0,0,0,3.979,6.507l62.568,68.217c.034.037.067.072.1.108a18.636,18.636,0,0,0,7.089,4.491,24.6,24.6,0,0,0,8.364,1.379,36.742,36.742,0,0,0,13.491-2.788A47.5,47.5,0,0,0,1605,2028.51a4.666,4.666,0,0,0,1.511-4.667l-2.565-10.464a31.648,31.648,0,0,0,5.52-7.019,21.476,21.476,0,0,0,2.87-9.611,20.268,20.268,0,0,0-1.819-9.289A26.469,26.469,0,0,0,1605.252,1979.87Zm-6.5,31.927,3.225,13.156c-7.391,6.279-16.114,9.613-23.5,9.613-4.874,0-9.169-1.452-12.115-4.466l-62.615-68.268c-7.417-7.574-3.483-22.167,8.778-32.586,7.381-6.276,16.1-9.608,23.486-9.608,4.879,0,9.177,1.455,12.123,4.476l53.728,58.958C1609.277,1990.656,1611,2001.383,1598.753,2011.8Z" transform="translate(-1495.329 -1914.972)" fill="#542d2a"/>
        </g>
      </g>
      <g id="Group_98" data-name="Group 98" transform="translate(1037.332 700.829)">
        <path id="Path_201" data-name="Path 201" d="M2340.712,729.829h-8.722c-1.477,0-2.675,3.821-2.675,8.533s1.2,8.533,2.675,8.533h8.722c1.478,0,2.675-3.821,2.675-8.533S2342.19,729.829,2340.712,729.829Z" transform="translate(-2324.649 -725.163)" fill="#ffd8d2"/>
        <path id="Path_202" data-name="Path 202" d="M2321.168,703.387a5.881,5.881,0,0,0-4.791-2.558h-8.722a5.879,5.879,0,0,0-4.79,2.558,10.671,10.671,0,0,0-1.554,3.212,28.177,28.177,0,0,0,0,14.859,10.67,10.67,0,0,0,1.554,3.212,5.879,5.879,0,0,0,4.79,2.558h8.722a5.881,5.881,0,0,0,4.791-2.558,10.683,10.683,0,0,0,1.554-3.212,28.179,28.179,0,0,0,0-14.859A10.692,10.692,0,0,0,2321.168,703.387Zm-4.791,19.174h-8.722c-1.478,0-2.675-3.821-2.675-8.533s1.2-8.533,2.675-8.533h8.722c1.478,0,2.676,3.821,2.676,8.533S2317.856,722.561,2316.378,722.561Z" transform="translate(-2300.315 -700.829)" fill="#542d2a"/>
      </g>
      <g id="Group_99" data-name="Group 99" transform="translate(989.139 700.829)">
        <path id="Path_203" data-name="Path 203" d="M2066.135,729.829h-27.819a8.533,8.533,0,1,0,0,17.066h27.819a8.533,8.533,0,0,0,0-17.066Z" transform="translate(-2025.117 -725.163)" fill="#ffd8d2"/>
        <path id="Path_204" data-name="Path 204" d="M2041.8,700.829h-27.819a13.2,13.2,0,1,0,0,26.4H2041.8a13.2,13.2,0,0,0,0-26.4Zm0,21.732h-27.819a8.533,8.533,0,1,1,0-17.066H2041.8a8.533,8.533,0,0,1,0,17.066Z" transform="translate(-2000.783 -700.829)" fill="#542d2a"/>
      </g>
      <path id="Path_205" data-name="Path 205" d="M1859.669,2395.133l-30.417-27.188a5.023,5.023,0,0,0-3.175-1.613v105.282s23.327,35.736,23.784,35.736h179.7a23.81,23.81,0,0,0,23.784-23.784v-113.7l-47.318-71.541Z" transform="translate(-865.047 -1340.472)" fill="#ffd8d2"/>
      <g id="Group_100" data-name="Group 100" transform="translate(961.469 707.508)">
        <path id="Rectangle_80" data-name="Rectangle 80" d="M113.634,0h0A113.633,113.633,0,0,1,227.268,113.633V334.3A113.634,113.634,0,0,1,113.634,447.929h0A113.634,113.634,0,0,1,0,334.295V113.634A113.634,113.634,0,0,1,113.634,0Z" transform="translate(2.333 2.333)" fill="#ffd8d2"/>
        <path id="Path_206" data-name="Path 206" d="M2034.622,742.343h-179.7a26.146,26.146,0,0,0-26.117,26.117v400.361a26.146,26.146,0,0,0,26.117,26.117h179.7a26.146,26.146,0,0,0,26.116-26.117V768.46A26.146,26.146,0,0,0,2034.622,742.343Zm21.451,426.478a21.475,21.475,0,0,1-21.451,21.451h-179.7a21.475,21.475,0,0,1-21.451-21.451V768.46a21.475,21.475,0,0,1,21.451-21.451h179.7a21.475,21.475,0,0,1,21.451,21.451Z" transform="translate(-1828.805 -742.343)" fill="#542d2a"/>
      </g>
      <path id="Rectangle_81" data-name="Rectangle 81" d="M105.963,0h0A105.963,105.963,0,0,1,211.927,105.963V327.6A105.963,105.963,0,0,1,105.963,433.565h0A105.963,105.963,0,0,1,0,327.6V105.963A105.963,105.963,0,0,1,105.963,0Z" transform="translate(971.472 717.023)" fill="#e3998e"/>
      <g id="Group_101" data-name="Group 101" transform="translate(1055.42 724.975)">
        <path id="Path_207" data-name="Path 207" d="M2428.343,850.9h-13.758a1.85,1.85,0,0,0,0,3.7h13.758a1.85,1.85,0,1,0,0-3.7Z" transform="translate(-2412.735 -850.904)" fill="#ffd8d2"/>
        <path id="Path_208" data-name="Path 208" d="M2682.189,850.9H2613.2a1.85,1.85,0,1,0,0,3.7h68.993a12.725,12.725,0,0,1,12.71,12.711,1.85,1.85,0,0,0,3.7,0A16.43,16.43,0,0,0,2682.189,850.9Z" transform="translate(-2579.389 -850.904)" fill="#ffd8d2"/>
        <path id="Path_209" data-name="Path 209" d="M3132.506,987.166a1.85,1.85,0,0,0-1.851,1.85v7.159a1.85,1.85,0,1,0,3.7,0v-7.159A1.85,1.85,0,0,0,3132.506,987.166Z" transform="translate(-3015.146 -965.242)" fill="#ffd8d2"/>
        <path id="Path_210" data-name="Path 210" d="M3132.506,1072.164a1.85,1.85,0,0,0-1.851,1.85v.324a1.85,1.85,0,1,0,3.7,0v-.324A1.85,1.85,0,0,0,3132.506,1072.164Z" transform="translate(-3015.146 -1036.564)" fill="#ffd8d2"/>
      </g>
      <path id="Path_211" data-name="Path 211" d="M2405.774,976.319h-55.7a5.063,5.063,0,0,0,0,10.127h55.7a5.063,5.063,0,1,0,0-10.127Z" transform="translate(-1300.49 -231.165)" fill="#72c8ed"/>
      <g id="Group_102" data-name="Group 102" transform="translate(1039.858 736.708)">
        <path id="Path_212" data-name="Path 212" d="M2405.774,952.826h-55.7a5.063,5.063,0,0,0,0,10.127h55.7a5.063,5.063,0,1,0,0-10.127Z" transform="translate(-2340.348 -948.16)" fill="#ffd8d2"/>
        <path id="Path_213" data-name="Path 213" d="M2381.44,923.825h-55.7a9.729,9.729,0,0,0,0,19.459h55.7a9.729,9.729,0,0,0,0-19.459Zm0,14.793h-55.7a5.063,5.063,0,0,1,0-10.127h55.7a5.063,5.063,0,0,1,0,10.127Z" transform="translate(-2316.014 -923.825)" fill="#542d2a"/>
      </g>
      <g id="Group_103" data-name="Group 103" transform="translate(1049.658 1119.073)">
        <path id="Path_214" data-name="Path 214" d="M2448.164,3329.325h-38.251a3.985,3.985,0,1,0,0,7.97h38.251a3.985,3.985,0,1,0,0-7.97Z" transform="translate(-2401.261 -3324.659)" fill="#d08a82"/>
        <path id="Path_215" data-name="Path 215" d="M2423.83,3300.325h-38.251a8.651,8.651,0,0,0,0,17.3h38.251a8.651,8.651,0,0,0,0-17.3Zm0,12.637h-38.251a3.985,3.985,0,1,1,0-7.97h38.251a3.985,3.985,0,1,1,0,7.97Z" transform="translate(-2376.927 -3300.325)" fill="#542d2a"/>
      </g>
      <g id="Group_104" data-name="Group 104" transform="translate(977.261 768.289)">
        <rect id="Rectangle_82" data-name="Rectangle 82" width="190.853" height="333.331" transform="translate(4.666 4.666)" fill="#fff"/>
        <path id="Path_216" data-name="Path 216" d="M2122.475,1120.108H1931.622a4.666,4.666,0,0,0-4.666,4.666v333.331a4.666,4.666,0,0,0,4.666,4.666h190.853a4.666,4.666,0,0,0,4.666-4.666V1124.774A4.666,4.666,0,0,0,2122.475,1120.108Zm0,338H1931.622V1124.774h190.853Z" transform="translate(-1926.956 -1120.108)" fill="#542d2a"/>
      </g>
      <path id="Path_217" data-name="Path 217" d="M3481.17,1745.008h0a13.555,13.555,0,0,1-9.6-3.91,13.3,13.3,0,0,1-3.954-9.535,1.85,1.85,0,0,0-1.849-1.851h0a1.85,1.85,0,0,0-1.85,1.849,13.306,13.306,0,0,1-13.445,13.446,1.85,1.85,0,0,0,0,3.7,13.306,13.306,0,0,1,9.533,3.955,13.567,13.567,0,0,1,3.915,9.606,1.85,1.85,0,0,0,1.85,1.849h0a1.85,1.85,0,0,0,1.849-1.851,13.522,13.522,0,0,1,13.559-13.558,1.85,1.85,0,0,0,0-3.7Zm-12.217,5.046a3.331,3.331,0,1,1-6.328.006,17.021,17.021,0,0,0-4.353-3.19,5.635,5.635,0,1,1,10.686-3.141,17.156,17.156,0,0,0,4.371,3.143A17.224,17.224,0,0,0,3468.953,1750.054Z" transform="translate(-2226.526 -863.342)" fill="#fff"/>
      <path id="Path_218" data-name="Path 218" d="M3708.784,2142.854a4.878,4.878,0,0,1-4.93-4.929,1.85,1.85,0,1,0-3.7,0,4.906,4.906,0,0,1-4.981,4.93,1.85,1.85,0,1,0,0,3.7h0a4.963,4.963,0,0,1,4.976,4.98,1.85,1.85,0,0,0,1.85,1.849h0a1.85,1.85,0,0,0,1.85-1.851,4.987,4.987,0,0,1,1.435-3.533,4.874,4.874,0,0,1,3.492-1.447h0a1.85,1.85,0,0,0,0-3.7Zm-6.126,2.545a9.013,9.013,0,0,0-.666.754,8.625,8.625,0,0,0-.677-.76,8.768,8.768,0,0,0-.761-.678,8.73,8.73,0,0,0,1.439-1.428,8.7,8.7,0,0,0,.672.755,8.556,8.556,0,0,0,.755.672A8.73,8.73,0,0,0,3702.658,2145.4Z" transform="translate(-2431.863 -1204.323)" fill="#fff"/>
      <path id="Path_219" data-name="Path 219" d="M1626.383,984.823a4.878,4.878,0,0,1-4.93-4.929,1.85,1.85,0,0,0-3.7,0,4.905,4.905,0,0,1-4.981,4.931,1.85,1.85,0,0,0,0,3.7h0a4.963,4.963,0,0,1,4.975,4.98,1.85,1.85,0,0,0,1.85,1.85h0a1.85,1.85,0,0,0,1.85-1.851,4.983,4.983,0,0,1,1.435-3.533,4.872,4.872,0,0,1,3.492-1.447h0a1.85,1.85,0,0,0,0-3.7Zm-6.125,2.545a.676.676,0,1,1-1.343-.006,8.766,8.766,0,0,0-.761-.678,8.732,8.732,0,0,0,1.44-1.428,8.631,8.631,0,0,0,1.427,1.427A8.748,8.748,0,0,0,1620.258,987.368Z" transform="translate(-684.51 -232.613)" fill="#fff"/>
      <path id="Path_220" data-name="Path 220" d="M1295.569,2678.634a1.85,1.85,0,0,0-3.159-1.309.7.7,0,0,1-1.015-.014,1.85,1.85,0,0,0-2.615,2.619.719.719,0,0,1,0,1.026,1.85,1.85,0,0,0,2.617,2.616.735.735,0,0,1,.516-.222.679.679,0,0,1,.5.208,1.85,1.85,0,1,0,2.618-2.615.692.692,0,0,1,0-1A1.843,1.843,0,0,0,1295.569,2678.634Z" transform="translate(-413.744 -1658.024)" fill="#fff"/>
      <g id="Group_106" data-name="Group 106" transform="translate(833.614 939.568)">
        <path id="Path_221" data-name="Path 221" d="M1083.172,2184.655h-43.216a5.806,5.806,0,0,0-5.8,5.8v30.589a5.806,5.806,0,0,0,5.8,5.8h16.067l13.338,13.338a1.85,1.85,0,0,0,3.159-1.308v-12.03h10.653a5.806,5.806,0,0,0,5.8-5.8v-30.589A5.806,5.806,0,0,0,1083.172,2184.655Zm2.1,36.388a2.1,2.1,0,0,1-2.1,2.1h-12.5a1.85,1.85,0,0,0-1.85,1.851v9.412l-10.721-10.721a1.85,1.85,0,0,0-1.309-.542h-16.833a2.1,2.1,0,0,1-2.1-2.1v-30.589a2.1,2.1,0,0,1,2.1-2.1h43.216a2.1,2.1,0,0,1,2.1,2.1Z" transform="translate(-1034.156 -2184.655)" fill="#ffd8d2"/>
        <g id="Group_105" data-name="Group 105" transform="translate(11.123 13.536)">
          <path id="Path_222" data-name="Path 222" d="M1134.008,2268.784H1105.14a1.85,1.85,0,0,0,0,3.7h28.868a1.85,1.85,0,0,0,0-3.7Z" transform="translate(-1103.29 -2268.784)" fill="#ffd8d2"/>
          <path id="Path_223" data-name="Path 223" d="M1123.046,2344.778H1105.14a1.85,1.85,0,1,0,0,3.7h17.906a1.85,1.85,0,0,0,0-3.7Z" transform="translate(-1103.29 -2332.551)" fill="#ffd8d2"/>
        </g>
      </g>
      <g id="Group_113" data-name="Group 113" transform="translate(990.176 782.918)">
        <g id="Group_108" data-name="Group 108" transform="translate(0 0)">
          <g id="Group_107" data-name="Group 107" transform="translate(0.483 100.207)">
            <rect id="Rectangle_83" data-name="Rectangle 83" width="169.689" height="19.934" transform="translate(1.85 1.85)" fill="#ffd8d2"/>
            <path id="Path_224" data-name="Path 224" d="M2181.766,1833.845H2012.077a1.85,1.85,0,0,0-1.85,1.85v19.934a1.85,1.85,0,0,0,1.85,1.851h169.689a1.851,1.851,0,0,0,1.85-1.851V1835.7A1.85,1.85,0,0,0,2181.766,1833.845Zm-1.851,19.934H2013.928v-16.234h165.987Z" transform="translate(-2010.227 -1833.845)" fill="#d08a82"/>
          </g>
          <path id="Path_225" data-name="Path 225" d="M2342.078,1253.827h-22.585a1.85,1.85,0,1,0,0,3.7h22.585a1.85,1.85,0,1,0,0-3.7Z" transform="translate(-2267.699 -1246.942)" fill="#ffd8d2"/>
          <path id="Path_226" data-name="Path 226" d="M2653.766,1253.827H2586.2a1.85,1.85,0,0,0,0,3.7h65.717v75.979a1.85,1.85,0,1,0,3.7,0v-77.829A1.85,1.85,0,0,0,2653.766,1253.827Z" transform="translate(-2491.493 -1246.942)" fill="#ffd8d2"/>
          <path id="Path_227" data-name="Path 227" d="M2169.047,1894.055h-87.559a1.85,1.85,0,1,0,0,3.7h87.559a1.85,1.85,0,1,0,0-3.7Z" transform="translate(-2067.988 -1784.161)" fill="#d08a82"/>
          <path id="Path_228" data-name="Path 228" d="M2718.3,1894.055H2661.79a1.85,1.85,0,1,0,0,3.7H2718.3a1.85,1.85,0,1,0,0-3.7Z" transform="translate(-2554.922 -1784.161)" fill="#d08a82"/>
          <path id="Path_229" data-name="Path 229" d="M2630.231,1876.9a4.611,4.611,0,1,0,4.612,4.611A4.616,4.616,0,0,0,2630.231,1876.9Zm0,5.521a.911.911,0,1,1,.911-.91A.911.911,0,0,1,2630.231,1882.417Z" transform="translate(-2526.125 -1769.762)" fill="#d08a82"/>
          <path id="Path_230" data-name="Path 230" d="M2179.249,1211.034H2009.56a2.333,2.333,0,0,0-2.333,2.333v119.658a2.333,2.333,0,0,0,2.333,2.333h169.688a2.333,2.333,0,0,0,2.333-2.333V1213.367A2.333,2.333,0,0,0,2179.249,1211.034Zm-2.333,119.658H2011.893V1215.7h165.023Z" transform="translate(-2007.227 -1211.034)" fill="#542d2a"/>
        </g>
        <g id="Group_109" data-name="Group 109" transform="translate(0 137.556)">
          <path id="Path_231" data-name="Path 231" d="M2179.249,2065.979H2009.56a2.333,2.333,0,0,0,0,4.666h169.688a2.333,2.333,0,0,0,0-4.666Z" transform="translate(-2007.227 -2065.979)" fill="#d08a82"/>
          <path id="Path_232" data-name="Path 232" d="M2179.249,2153.445H2009.56a2.333,2.333,0,0,0,0,4.666h169.688a2.333,2.333,0,0,0,0-4.666Z" transform="translate(-2007.227 -2139.372)" fill="#d08a82"/>
          <path id="Path_233" data-name="Path 233" d="M2095.682,2240.912H2009.56a2.333,2.333,0,0,0,0,4.667h86.122a2.333,2.333,0,1,0,0-4.667Z" transform="translate(-2007.227 -2212.766)" fill="#d08a82"/>
          <path id="Path_234" data-name="Path 234" d="M2179.249,2328.378H2009.56a2.333,2.333,0,0,0,0,4.666h169.688a2.333,2.333,0,0,0,0-4.666Z" transform="translate(-2007.227 -2286.159)" fill="#d08a82"/>
          <path id="Path_235" data-name="Path 235" d="M2179.249,2415.844H2009.56a2.333,2.333,0,1,0,0,4.666h169.688a2.333,2.333,0,1,0,0-4.666Z" transform="translate(-2007.227 -2359.553)" fill="#d08a82"/>
          <path id="Path_236" data-name="Path 236" d="M2179.249,2503.31H2009.56a2.333,2.333,0,1,0,0,4.666h169.688a2.333,2.333,0,1,0,0-4.666Z" transform="translate(-2007.227 -2432.946)" fill="#d08a82"/>
          <path id="Path_237" data-name="Path 237" d="M2107.267,2590.777H2009.56a2.333,2.333,0,1,0,0,4.666h97.707a2.333,2.333,0,0,0,0-4.666Z" transform="translate(-2007.227 -2506.34)" fill="#d08a82"/>
        </g>
        <g id="Group_112" data-name="Group 112" transform="translate(54.374 22.145)">
          <g id="Group_110" data-name="Group 110" transform="translate(0 0)">
            <path id="Path_238" data-name="Path 238" d="M2399.3,1373.687a28.778,28.778,0,1,0-.666,57.553l.338,0a28.778,28.778,0,0,0,.328-57.555Zm-.328,53.854h-.294a25.078,25.078,0,0,1,.282-50.154l.3,0a25.078,25.078,0,0,1-.285,50.154Z" transform="translate(-2366.167 -1369.661)" fill="#ffd8d2"/>
            <circle id="Ellipse_2" data-name="Ellipse 2" cx="23.195" cy="23.195" r="23.195" transform="translate(0 32.803) rotate(-45)" fill="#e3998e"/>
          </g>
          <g id="Group_111" data-name="Group 111" transform="translate(27.814 16.726)">
            <path id="Path_239" data-name="Path 239" d="M2520.8,1453.1a1.609,1.609,0,0,0-2.747,1.138v28.935a1.609,1.609,0,0,0,2.747,1.138l14.468-14.468a1.609,1.609,0,0,0,0-2.276Zm.471,26.189v-21.167l10.583,10.583Z" transform="translate(-2518.051 -1452.63)" fill="#fff"/>
          </g>
        </g>
      </g>
      <g id="Group_127" data-name="Group 127" transform="translate(895.608 890.697)">
        <g id="Group_115" data-name="Group 115" transform="translate(9.376 64.983)">
          <g id="Group_114" data-name="Group 114">
            <path id="Path_240" data-name="Path 240" d="M1581.944,2334.09,1543.96,2315.2c-9.512-4.693-23.778,2.8-31.86,16.708s-6.931,28.979,2.587,33.648l37.993,18.914c9.518,4.68,23.776-2.814,31.867-16.726S1591.468,2338.769,1581.944,2334.09Z" transform="translate(-1502.054 -2309.131)" fill="#fff"/>
            <path id="Path_241" data-name="Path 241" d="M1565.682,2310.419a17.362,17.362,0,0,0-5.985-4.845l-37.976-18.89-.014-.007a18.654,18.654,0,0,0-8.329-1.881c-5.317,0-10.966,1.982-16.338,5.733a46.285,46.285,0,0,0-13.292,14.7,44.991,44.991,0,0,0-5.491,14.733,30.346,30.346,0,0,0,.587,13.829,20.321,20.321,0,0,0,3.475,6.773,17.34,17.34,0,0,0,5.982,4.838l37.981,18.908.021.01a18.666,18.666,0,0,0,8.312,1.872c5.318,0,10.97-1.983,16.345-5.735a46.361,46.361,0,0,0,13.3-14.7,44.971,44.971,0,0,0,5.485-14.729,30.359,30.359,0,0,0-.588-13.826A20.341,20.341,0,0,0,1565.682,2310.419Zm-5.453,32.989c-6.458,11.1-16.844,18.119-25.614,18.119a14.051,14.051,0,0,1-6.253-1.394l-37.993-18.914c-9.517-4.669-10.673-19.737-2.587-33.648,6.448-11.1,16.83-18.109,25.6-18.109a14.039,14.039,0,0,1,6.265,1.4l37.984,18.894C1567.151,2314.434,1568.3,2329.5,1560.228,2343.407Z" transform="translate(-1477.737 -2284.796)" fill="#542d2a"/>
          </g>
        </g>
        <g id="Group_117" data-name="Group 117" transform="translate(46.262 88.654)">
          <g id="Group_116" data-name="Group 116">
            <path id="Path_242" data-name="Path 242" d="M1738.827,2471.505c-5.112,8.805-3.124,18.958,4.452,22.688l10.671,5.246c3.215-2.632,4.477-2.474,12.243-15.575,6.252-10.559,6.3-16.335,6.3-16.335l-10.675-5.24C1754.24,2458.564,1743.947,2462.689,1738.827,2471.505Z" transform="translate(-1731.327 -2456.252)" fill="#ffd8d2"/>
            <path id="Path_243" data-name="Path 243" d="M1750.219,2439.005l-10.675-5.24a18.238,18.238,0,0,0-8.12-1.849,22.7,22.7,0,0,0-11.842,3.505,26.916,26.916,0,0,0-9.119,9.406,23.474,23.474,0,0,0-2.6,18.416,17.489,17.489,0,0,0,9.023,10.8l10.673,5.247a4.665,4.665,0,0,0,5.014-.577c.375-.306.725-.574,1.1-.858,3.118-2.382,5.375-4.427,12.205-15.949,6.7-11.317,6.945-17.957,6.951-18.677A4.666,4.666,0,0,0,1750.219,2439.005Zm-8.355,20.523c-7.766,13.1-9.028,12.944-12.243,15.575l-10.671-5.246c-7.577-3.73-9.564-13.882-4.452-22.687,3.841-6.615,10.593-10.588,16.926-10.588a13.666,13.666,0,0,1,6.064,1.371l10.675,5.24S1748.117,2448.97,1741.865,2459.529Z" transform="translate(-1706.999 -2431.917)" fill="#542d2a"/>
          </g>
          <path id="Path_244" data-name="Path 244" d="M1738.831,2478.057a19.7,19.7,0,0,0-2.755,11.716,21.8,21.8,0,0,0,10.628-9.332,19.693,19.693,0,0,0,2.755-11.715A21.794,21.794,0,0,0,1738.831,2478.057Z" transform="translate(-1731.331 -2462.803)" fill="#fff"/>
        </g>
        <g id="Group_120" data-name="Group 120" transform="translate(0 131.926)">
          <g id="Group_119" data-name="Group 119">
            <g id="Group_118" data-name="Group 118">
              <path id="Path_245" data-name="Path 245" d="M1523.673,2750.154l-37.984-18.894c-9.513-4.692-23.779,2.8-31.861,16.709s-6.93,28.98,2.587,33.65l37.993,18.912c9.518,4.681,23.776-2.812,31.866-16.725S1533.2,2754.832,1523.673,2750.154Z" transform="translate(-1443.783 -2725.194)" fill="#fff"/>
              <path id="Path_246" data-name="Path 246" d="M1507.411,2726.483a17.36,17.36,0,0,0-5.985-4.845l-37.975-18.889-.014-.007a18.658,18.658,0,0,0-8.329-1.881c-5.317,0-10.967,1.983-16.339,5.733a46.293,46.293,0,0,0-13.293,14.7,44.99,44.99,0,0,0-5.49,14.734,30.342,30.342,0,0,0,.587,13.829,20.324,20.324,0,0,0,3.475,6.774,17.346,17.346,0,0,0,5.982,4.839l37.983,18.907.02.01a18.664,18.664,0,0,0,8.313,1.873c5.318,0,10.97-1.984,16.344-5.736a46.349,46.349,0,0,0,13.3-14.7,44.97,44.97,0,0,0,5.485-14.728,30.355,30.355,0,0,0-.588-13.826A20.329,20.329,0,0,0,1507.411,2726.483Zm-5.453,32.988c-6.458,11.1-16.843,18.12-25.612,18.12a14.052,14.052,0,0,1-6.254-1.394l-37.993-18.912c-9.517-4.669-10.673-19.738-2.587-33.649,6.448-11.1,16.831-18.109,25.6-18.109a14.042,14.042,0,0,1,6.265,1.4l37.983,18.894C1508.88,2730.5,1510.034,2745.57,1501.957,2759.47Z" transform="translate(-1419.466 -2700.86)" fill="#542d2a"/>
            </g>
          </g>
        </g>
        <g id="Group_123" data-name="Group 123" transform="translate(10.795)">
          <g id="Group_122" data-name="Group 122">
            <g id="Group_121" data-name="Group 121">
              <path id="Path_247" data-name="Path 247" d="M1571.887,1920.1l-14.719-7.963c-12.038-5.946-28.555.428-36.889,14.215s-5.341,29.767,6.7,35.69l14.73,7.984c12.044,5.934,28.551-.443,36.895-14.23C1586.933,1942.017,1583.938,1926.029,1571.887,1920.1Z" transform="translate(-1510.893 -1905.243)" fill="#fff"/>
              <path id="Path_248" data-name="Path 248" d="M1549.7,1891.621l-14.645-7.923c-.051-.027-.1-.054-.154-.079a26.635,26.635,0,0,0-11.906-2.709,34.027,34.027,0,0,0-17.362,5.026,40.132,40.132,0,0,0-13.68,13.668c-5.172,8.55-6.715,18.314-4.234,26.786a24.753,24.753,0,0,0,12.783,15.461l14.653,7.942q.08.043.161.083a26.649,26.649,0,0,0,11.889,2.7,34.046,34.046,0,0,0,17.369-5.027,40.2,40.2,0,0,0,13.691-13.672c5.167-8.55,6.707-18.311,4.226-26.782A24.777,24.777,0,0,0,1549.7,1891.621Zm4.573,39.839c-6.226,10.288-17,16.45-27.068,16.45a22.116,22.116,0,0,1-9.827-2.219l-14.731-7.984c-12.042-5.922-15.04-21.9-6.7-35.689,6.216-10.283,16.983-16.441,27.049-16.441a22.1,22.1,0,0,1,9.84,2.227l14.72,7.964C1559.606,1901.7,1562.6,1917.683,1554.274,1931.459Z" transform="translate(-1486.561 -1880.909)" fill="#542d2a"/>
            </g>
          </g>
        </g>
        <g id="Group_124" data-name="Group 124" transform="translate(38.704 17.561)">
          <path id="Path_249" data-name="Path 249" d="M1692.184,2030.478c-5.01,8.855-3.989,18.529,2.295,21.617l8.847,4.341c2.953-2.761,4.031-2.695,11.623-15.883,6.113-10.628,6.548-16.211,6.548-16.211l-8.852-4.336C1706.362,2016.922,1697.2,2021.61,1692.184,2030.478Z" transform="translate(-1684.341 -2014.392)" fill="#ffd8d2"/>
          <path id="Path_250" data-name="Path 250" d="M1699.228,1995.816l-8.852-4.335a14.154,14.154,0,0,0-6.292-1.423,20.211,20.211,0,0,0-11.412,3.91,30.009,30.009,0,0,0-8.87,9.877,29.016,29.016,0,0,0-3.492,9.827,21.316,21.316,0,0,0,.547,9.491,14.257,14.257,0,0,0,7.243,8.785l8.851,4.343a4.665,4.665,0,0,0,5.242-.781c.349-.326.672-.611,1.014-.912,2.885-2.542,4.841-4.542,11.467-16.051,6.453-11.22,7.1-17.5,7.156-18.178A4.666,4.666,0,0,0,1699.228,1995.816Zm-8.6,20.4c-7.592,13.188-8.67,13.122-11.623,15.883l-8.848-4.341c-6.283-3.088-7.3-12.762-2.294-21.617,3.972-7.02,10.54-11.42,16.222-11.42a9.548,9.548,0,0,1,4.239.948l8.852,4.336S1696.741,2005.59,1690.628,2016.219Z" transform="translate(-1660.02 -1990.058)" fill="#542d2a"/>
        </g>
        <path id="Path_251" data-name="Path 251" d="M1692.2,2036.832a22.465,22.465,0,0,0-3.128,12.478,23.837,23.837,0,0,0,10.79-10.2,22.466,22.466,0,0,0,3.128-12.478A23.84,23.84,0,0,0,1692.2,2036.832Z" transform="translate(-1645.656 -2003.185)" fill="#fff"/>
        <g id="Group_126" data-name="Group 126" transform="translate(34.118 154.657)">
          <g id="Group_125" data-name="Group 125">
            <path id="Path_252" data-name="Path 252" d="M1663.346,2881.73c-5.112,8.8-3.125,18.957,4.452,22.687l10.671,5.246c3.215-2.632,4.477-2.474,12.243-15.576,6.253-10.559,6.3-16.334,6.3-16.334l-10.675-5.24C1678.759,2868.788,1668.466,2872.913,1663.346,2881.73Z" transform="translate(-1655.846 -2866.476)" fill="#ffd8d2"/>
            <path id="Path_253" data-name="Path 253" d="M1674.739,2849.23l-10.675-5.24a18.236,18.236,0,0,0-8.12-1.849,22.7,22.7,0,0,0-11.842,3.505,26.909,26.909,0,0,0-9.119,9.406,23.476,23.476,0,0,0-2.6,18.417,17.491,17.491,0,0,0,9.023,10.8l10.673,5.247a4.664,4.664,0,0,0,5.014-.576c.375-.306.725-.575,1.1-.858,3.118-2.382,5.375-4.427,12.205-15.949,6.7-11.317,6.945-17.957,6.951-18.677A4.666,4.666,0,0,0,1674.739,2849.23Zm-8.355,20.523c-7.766,13.1-9.027,12.944-12.243,15.576l-10.671-5.247c-7.577-3.73-9.564-13.883-4.452-22.687,3.841-6.615,10.593-10.588,16.926-10.588a13.669,13.669,0,0,1,6.064,1.371l10.675,5.24S1672.636,2859.193,1666.384,2869.753Z" transform="translate(-1631.518 -2842.141)" fill="#542d2a"/>
          </g>
          <path id="Path_254" data-name="Path 254" d="M1663.35,2888.281a19.693,19.693,0,0,0-2.755,11.716,21.8,21.8,0,0,0,10.628-9.332,19.692,19.692,0,0,0,2.755-11.715A21.792,21.792,0,0,0,1663.35,2888.281Z" transform="translate(-1655.85 -2873.027)" fill="#fff"/>
        </g>
      </g>
      <path id="Rectangle_84" data-name="Rectangle 84" d="M28.307,0H143.412a28.306,28.306,0,0,1,28.306,28.306v0a28.307,28.307,0,0,1-28.307,28.307H28.307A28.307,28.307,0,0,1,0,28.307v0A28.307,28.307,0,0,1,28.307,0Z" transform="translate(992.509 1021.918)" fill="#ffbdaf"/>
      <g id="Group_129" data-name="Group 129" transform="translate(1092.337 1028.117)">
        <g id="Group_128" data-name="Group 128" transform="translate(7.848 20.199)">
          <path id="Path_255" data-name="Path 255" d="M2877.46,2860.549a1.578,1.578,0,0,0-1.578,1.578v11.179c0,.821-.848,1.774-2.326,2.615a1.578,1.578,0,0,0,1.561,2.743c3.24-1.844,3.921-3.931,3.921-5.358v-11.179A1.578,1.578,0,0,0,2877.46,2860.549Z" transform="translate(-2843.509 -2860.549)" fill="#fff"/>
          <path id="Path_256" data-name="Path 256" d="M2718.138,2877.147a31.2,31.2,0,0,1-9.411,1.331,29.11,29.11,0,0,1-10.838-1.855c-2.326-.97-3.771-2.241-3.771-3.317v-11.179a1.578,1.578,0,0,0-3.156,0v11.179c0,2.481,2.028,4.693,5.712,6.229a32.282,32.282,0,0,0,12.053,2.1,34.377,34.377,0,0,0,10.38-1.484,1.578,1.578,0,0,0-.969-3Z" transform="translate(-2690.963 -2860.549)" fill="#fff"/>
        </g>
        <path id="Path_257" data-name="Path 257" d="M2692.287,2747.461l-20.049-11.487a8.548,8.548,0,0,0-7.9,0l-20.049,11.487a3.459,3.459,0,0,0,0,6.366l20.049,11.487a8.548,8.548,0,0,0,7.9,0l20.048-11.487a3.459,3.459,0,0,0,0-6.366Zm-1.569,3.627-20.048,11.487a5.474,5.474,0,0,1-4.762,0l-20.048-11.487a.449.449,0,1,1,0-.889l20.048-11.487a5.475,5.475,0,0,1,4.762,0l20.048,11.487a.449.449,0,1,1,0,.889Z" transform="translate(-2642.185 -2735.007)" fill="#fff"/>
        <path id="Path_258" data-name="Path 258" d="M2854.41,2941.619a31.5,31.5,0,0,1-3.249-1.287,1.577,1.577,0,0,0-1.823,1.287l-1.471,8.539a1.578,1.578,0,0,0,1.555,1.846h4.9a1.578,1.578,0,0,0,1.555-1.846Zm-3.115,7.229.579-3.361.579,3.361Z" transform="translate(-2814.754 -2907.277)" fill="#fff"/>
        <path id="Path_259" data-name="Path 259" d="M2804.267,2819.523l-11.729-6.555a1.578,1.578,0,1,0-1.54,2.755l10.92,6.1v9.68a1.578,1.578,0,0,0,3.156,0V2820.9A1.578,1.578,0,0,0,2804.267,2819.523Z" transform="translate(-2766.376 -2800.256)" fill="#fff"/>
        <path id="Path_260" data-name="Path 260" d="M2855.343,2919.425a3.274,3.274,0,1,0,3.365,3.272A3.324,3.324,0,0,0,2855.343,2919.425Zm0,3.388c-.136,0-.21-.082-.21-.116s.073-.116.21-.116.208.083.208.116S2855.478,2922.813,2855.343,2922.813Z" transform="translate(-2818.222 -2889.754)" fill="#fff"/>
      </g>
      <g id="Group_132" data-name="Group 132" transform="translate(1135.59 938.784)">
        <g id="Group_130" data-name="Group 130" transform="translate(0 0)">
          <path id="Path_261" data-name="Path 261" d="M3010.538,2194.279h0a41.121,41.121,0,0,0-41.122,41.122v82.945c-25.988,14.09-43.9,43.8-43.9,78.169a96.172,96.172,0,0,0,3.13,24.449l19.614,36.881,41.946-27.744a69.315,69.315,0,0,0,30.882-52.058V2204.83A10.551,10.551,0,0,0,3010.538,2194.279Z" transform="translate(-2923.184 -2191.946)" fill="#fff"/>
          <path id="Path_262" data-name="Path 262" d="M2998.37,2179.779a43.454,43.454,0,0,0-43.454,43.454v81.57a84.273,84.273,0,0,0-31.386,31.694,96.3,96.3,0,0,0-12.513,47.849,98.6,98.6,0,0,0,3.206,25.042,2.333,2.333,0,0,0,4.513-1.185,93.928,93.928,0,0,1-3.053-23.856,91.631,91.631,0,0,1,11.9-45.529,79.389,79.389,0,0,1,30.782-30.589,2.333,2.333,0,0,0,1.221-2.051v-82.945a38.79,38.79,0,0,1,38.788-38.789,8.228,8.228,0,0,1,8.219,8.219v173.112a67.806,67.806,0,0,1-8.871,28.044,66.415,66.415,0,0,1-20.964,22.168l-41.946,27.744a2.333,2.333,0,1,0,2.574,3.891l41.946-27.744a71.04,71.04,0,0,0,22.424-23.713,72.51,72.51,0,0,0,9.5-30.092c.005-.066.008-.132.008-.2V2192.663A12.9,12.9,0,0,0,2998.37,2179.779Z" transform="translate(-2911.017 -2179.779)" fill="#542d2a"/>
        </g>
        <g id="Group_131" data-name="Group 131" transform="translate(74.481 13.042)">
          <path id="Path_263" data-name="Path 263" d="M3405.71,2275.342a17.278,17.278,0,0,0-17.277,17.278v18.018h21.091v-34.869a17.336,17.336,0,0,0-3.814-.427Z" transform="translate(-3386.1 -2273.009)" fill="#ffd8d2"/>
          <path id="Path_264" data-name="Path 264" d="M3397.87,2261.325a19.605,19.605,0,0,0-23.937,19.127v18.019a2.333,2.333,0,0,0,2.333,2.333h21.092a2.334,2.334,0,0,0,2.333-2.333V2263.6A2.334,2.334,0,0,0,3397.87,2261.325Zm-2.846,34.812H3378.6v-15.686a14.962,14.962,0,0,1,14.946-14.945q.738,0,1.48.074Z" transform="translate(-3373.933 -2260.841)" fill="#542d2a"/>
        </g>
      </g>
      <path id="Path_265" data-name="Path 265" d="M3413.2,2723.072h-17.425a2.333,2.333,0,1,0,0,4.666H3413.2a2.333,2.333,0,0,0,0-4.666Z" transform="translate(-2180.23 -1696.875)" fill="#542d2a"/>
      <path id="Path_266" data-name="Path 266" d="M3403.693,2765.735h-7.92a2.333,2.333,0,1,0,0,4.666h7.92a2.333,2.333,0,1,0,0-4.666Z" transform="translate(-2180.23 -1732.674)" fill="#542d2a"/>
      <path id="Path_267" data-name="Path 267" d="M2486.008,3522.831a69.158,69.158,0,0,0,45.252-11.176l89.889-59.454c14.527-9.608,23.125-23.021,27.449-38.58L2494.965,3514.1A31.359,31.359,0,0,0,2486.008,3522.831Z" transform="translate(-1418.799 -2276.319)" fill="#ffd8d2"/>
      <path id="Path_268" data-name="Path 268" d="M2481.542,3556.824s32.523,70.593,60.319,132.6h276.021l-156.092-251.3Z" transform="translate(-1415.052 -2296.88)" fill="#d08a82"/>
      <path id="Path_269" data-name="Path 269" d="M2651.6,3424.726a2.332,2.332,0,0,0-3.265-.718l-180.248,118.7a2.333,2.333,0,0,0-.836,2.924c.323.7,32.5,70.561,59.882,131.621h4.888a2.317,2.317,0,0,0-.2-.955c-25.017-55.805-54.208-119.317-59.49-130.8l176.572-116.28,154.063,248.031h5.077a2.312,2.312,0,0,0-.349-1.231Z" transform="translate(-1402.883 -2284.712)" fill="#542d2a"/>
      <g id="Group_146" data-name="Group 146" transform="translate(795.161 1030.458)">
        <g id="Group_143" data-name="Group 143">
          <g id="Group_142" data-name="Group 142">
            <path id="Path_270" data-name="Path 270" d="M1125.542,2953.083c-13.035-8.83-26.428-9.935-35.257,3.1l-36.813,54.345.973-5.579L1082.1,2791.2c2.02-15.615-8.9-24.77-24.516-26.791h0c-15.614-2.02-30.009,3.861-32.028,19.476l-17.2,132.972a28.508,28.508,0,0,0-56.545-7.315l-2.049,15.842a28.508,28.508,0,0,0-24.614-31.93h0a28.508,28.508,0,0,0-31.929,24.615l-3.385,26.162a28.508,28.508,0,1,0-56.544-7.315l-5.016,38.774-6.133,47.406-1.033,7.984-11.452,92.7H1046.8l28.571-34.464c.994-1.269,62.121-101.157,62.121-101.157C1146.32,2975.124,1138.578,2961.912,1125.542,2953.083Z" transform="translate(-807.319 -2761.697)" fill="#fff"/>
            <g id="Group_133" data-name="Group 133" transform="translate(196.297 0)">
              <path id="Path_271" data-name="Path 271" d="M2081.331,2764.409h0c-15.614-2.02-30.009,3.861-32.028,19.476L2029.7,2935.428l45.692,91.2,30.457-235.429C2107.867,2775.585,2096.945,2766.429,2081.331,2764.409Z" transform="translate(-2027.364 -2761.698)" fill="#fff"/>
              <path id="Path_272" data-name="Path 272" d="M2069.461,2749.958c-8.509-1.1-16.511.1-22.53,3.39a23.154,23.154,0,0,0-12.112,18.1l-19.605,151.544a2.333,2.333,0,0,0,4.628.6l19.605-151.544c.858-6.635,4.129-11.548,9.721-14.6,5.161-2.819,12.155-3.834,19.695-2.859,7.495.969,13.549,3.6,17.509,7.621,4.185,4.245,5.865,9.815,4.992,16.556l-30.457,235.429a2.333,2.333,0,0,0,2.014,2.613,2.3,2.3,0,0,0,.3.02,2.333,2.333,0,0,0,2.311-2.034l30.457-235.429c1.051-8.121-1.127-15.186-6.3-20.43C2085,2754.165,2078,2751.063,2069.461,2749.958Z" transform="translate(-2015.195 -2749.56)" fill="#542d2a"/>
            </g>
            <g id="Group_134" data-name="Group 134" transform="translate(18.616 120.656)">
              <path id="Path_273" data-name="Path 273" d="M1080.833,3514.221a28.508,28.508,0,0,0-31.93,24.615l-2.049,15.842a28.508,28.508,0,0,0-24.615-31.93h0a28.508,28.508,0,0,0-31.93,24.614l-3.384,26.162a28.508,28.508,0,0,0-24.615-31.929h0a28.508,28.508,0,0,0-31.93,24.614l-5.016,38.775,174.649-16.829,3.7-28.628,1.73-13.375A28.508,28.508,0,0,0,1080.833,3514.221Z" transform="translate(-923.031 -3511.647)" fill="#fff"/>
              <path id="Path_274" data-name="Path 274" d="M1068.964,3499.73a30.841,30.841,0,0,0-34.5,26.312,30.835,30.835,0,0,0-58.636,8.843l-1.289,9.965a31.089,31.089,0,0,0-3.629-5.991,30.841,30.841,0,0,0-55.011,14.873l-5.016,38.774a2.333,2.333,0,0,0,2.015,2.613,2.438,2.438,0,0,0,.3.02,2.333,2.333,0,0,0,2.311-2.034l5.016-38.774a26.175,26.175,0,0,1,51.917,6.717,2.333,2.333,0,0,0,4.627.6l3.385-26.162a26.175,26.175,0,1,1,51.917,6.717,2.333,2.333,0,1,0,4.627.6h0l.005-.04,2.044-15.8a26.175,26.175,0,1,1,51.917,6.716l-5.434,42a2.333,2.333,0,1,0,4.627.6l5.434-42a30.841,30.841,0,0,0-26.629-34.543Z" transform="translate(-910.862 -3499.47)" fill="#542d2a"/>
            </g>
            <g id="Group_135" data-name="Group 135" transform="translate(163.923 124.734)">
              <path id="Path_275" data-name="Path 275" d="M1826.2,3525.035a26.728,26.728,0,0,0-12.217,1.249,26.848,26.848,0,0,1,24.89,22.264l6.466,37.722,4.033-31.176A26.838,26.838,0,0,0,1826.2,3525.035Z" transform="translate(-1813.983 -3524.811)" fill="#ffd8d2"/>
            </g>
            <g id="Group_136" data-name="Group 136" transform="translate(104.942 133.141)">
              <path id="Path_276" data-name="Path 276" d="M1459.617,3577.292a26.72,26.72,0,0,0-12.217,1.249c35.046,5.072,31.947,55.423,31.947,55.423l3.443-26.613A26.837,26.837,0,0,0,1459.617,3577.292Z" transform="translate(-1447.4 -3577.067)" fill="#ffd8d2"/>
            </g>
            <g id="Group_137" data-name="Group 137" transform="translate(45.262 152.085)">
              <path id="Path_277" data-name="Path 277" d="M1088.691,3695.034a26.723,26.723,0,0,0-12.217,1.249c27.027.3,34.717,34.011,34.717,34.011l.673-5.2A26.837,26.837,0,0,0,1088.691,3695.034Z" transform="translate(-1076.474 -3694.809)" fill="#ffd8d2"/>
            </g>
            <g id="Group_138" data-name="Group 138" transform="translate(136.721 161.353)">
              <line id="Line_1" data-name="Line 1" y1="26.162" x2="3.385" transform="translate(2.333 2.333)" fill="#fff"/>
              <path id="Path_278" data-name="Path 278" d="M1650.933,3752.432a2.334,2.334,0,0,0-2.613,2.014l-3.385,26.162a2.333,2.333,0,0,0,2.015,2.613,2.257,2.257,0,0,0,.3.02,2.333,2.333,0,0,0,2.311-2.034l3.385-26.162A2.333,2.333,0,0,0,1650.933,3752.432Z" transform="translate(-1644.916 -3752.412)" fill="#542d2a"/>
            </g>
            <g id="Group_139" data-name="Group 139" transform="translate(217.268 127.164)">
              <path id="Path_279" data-name="Path 279" d="M2174.716,3543.374l-26.549-3.435a2.333,2.333,0,1,0-.6,4.627l26.549,3.435a2.381,2.381,0,0,0,.3.02,2.333,2.333,0,0,0,.3-4.647Z" transform="translate(-2145.534 -3539.92)" fill="#542d2a"/>
              <path id="Path_280" data-name="Path 280" d="M2185.743,3592.218l-18.455-2.388a2.333,2.333,0,0,0-.6,4.627l18.456,2.387a2.22,2.22,0,0,0,.3.02,2.333,2.333,0,0,0,.3-4.646Z" transform="translate(-2161.58 -3581.783)" fill="#542d2a"/>
            </g>
            <g id="Group_141" data-name="Group 141" transform="translate(224.899 12.383)">
              <g id="Group_140" data-name="Group 140">
                <path id="Path_281" data-name="Path 281" d="M2223.844,2856.582l-1.72,11.85c-1.226,8.413,5.161,16.374,14.269,17.779s17.461-4.269,18.691-12.683l1.727-11.848c-3.173-1.98-3.374-3.206-16.951-5.44C2228.92,2854.444,2223.844,2856.582,2223.844,2856.582Z" transform="translate(-2217.305 -2850.856)" fill="#ffd8d2"/>
                <path id="Path_282" data-name="Path 282" d="M2234.938,2833.386c-.355-.221-.677-.44-1.018-.671-3.035-2.056-5.511-3.418-17.645-5.415a55.65,55.65,0,0,0-8.943-.78c-5.954,0-9.077,1.189-9.642,1.427a4.668,4.668,0,0,0-2.806,3.63l-1.72,11.85a18.987,18.987,0,0,0,.569,8.105,20.156,20.156,0,0,0,3.669,7,22.1,22.1,0,0,0,13.937,7.952,22.881,22.881,0,0,0,3.474.268,21.571,21.571,0,0,0,13.456-4.639,19.244,19.244,0,0,0,7.09-12.248l1.727-11.851A4.666,4.666,0,0,0,2234.938,2833.386Zm-4.2,15.807c-1.105,7.554-7.959,12.9-15.929,12.9a18.113,18.113,0,0,1-2.762-.213c-9.108-1.4-15.5-9.365-14.269-17.778l1.72-11.85s2.518-1.061,7.831-1.061a50.683,50.683,0,0,1,8.186.717c13.576,2.234,13.777,3.461,16.95,5.44Z" transform="translate(-2192.964 -2826.521)" fill="#542d2a"/>
              </g>
              <path id="Path_283" data-name="Path 283" d="M2253.977,2994.311a6.445,6.445,0,1,0,11.042,6.3A17.326,17.326,0,0,0,2253.977,2994.311Z" transform="translate(-2234.92 -2967.135)" fill="#fff"/>
            </g>
            <path id="Path_284" data-name="Path 284" d="M1114.693,2939.014c-7.292-4.939-14.228-7.311-20.61-7.048a20.637,20.637,0,0,0-9.739,2.845,25.8,25.8,0,0,0-8.148,7.927l-31,45.76,27.056-209.137c1.051-8.12-1.127-15.186-6.3-20.43-4.7-4.766-11.695-7.869-20.233-8.974l-.019,0c-8.5-1.1-16.5.108-22.511,3.393a23.153,23.153,0,0,0-12.112,18.1L995.97,2888.26a30.835,30.835,0,0,0-58.593,8.529A30.85,30.85,0,0,0,913.284,2879l-.02,0a30.842,30.842,0,0,0-34.523,26.632l-1.294,10a30.835,30.835,0,0,0-58.635,8.846l-12.184,94.178-11.452,92.7a2.323,2.323,0,0,0-.016.286h4.682l11.415-92.4,12.182-94.165a26.175,26.175,0,0,1,51.919,6.7l0,.016a2.333,2.333,0,1,0,4.627.6l3.385-26.161a26.175,26.175,0,0,1,29.316-22.6l.016,0a26.2,26.2,0,0,1,22.584,29.315,2.333,2.333,0,0,0,4.628.6l2.049-15.842a26.175,26.175,0,0,1,51.918,6.716,2.333,2.333,0,0,0,4.627.6l17.2-132.972c.858-6.635,4.129-11.548,9.721-14.6,5.161-2.819,12.155-3.833,19.694-2.859l.017,0c7.487.971,13.535,3.605,17.491,7.619,4.185,4.245,5.865,9.815,4.993,16.556l-27.646,213.7-.965,5.529a2.333,2.333,0,0,0,4.23,1.709l36.813-54.345c3.765-5.558,8.548-8.494,14.216-8.727,5.289-.215,11.445,1.944,17.8,6.25,6.545,4.434,11.152,9.59,13.321,14.911,2.361,5.79,1.689,11.485-2,16.926-.02.029-.039.06-.058.09-20.7,33.834-60.115,98.163-61.988,100.959l-28.51,34.391a2.323,2.323,0,0,0-.536,1.489h5.363l27.336-32.975.041-.05c1-1.275,47.86-77.823,62.247-101.334,4.523-6.7,5.361-14.054,2.423-21.259C1127.2,2949.849,1122,2943.966,1114.693,2939.014Z" transform="translate(-795.161 -2749.56)" fill="#542d2a"/>
          </g>
        </g>
        <g id="Group_145" data-name="Group 145" transform="translate(279.467 192.571)">
          <g id="Group_144" data-name="Group 144">
            <path id="Path_285" data-name="Path 285" d="M2571.733,3975.443h0l-8.45,12.861c-4.469,6.8-1.753,16.478,6.065,21.614h0c7.818,5.138,17.778,3.789,22.246-3.012l8.45-12.861-.3-.414A47.777,47.777,0,0,0,2571.733,3975.443Z" transform="translate(-2556.464 -3970.777)" fill="#ffd8d2"/>
            <path id="Path_286" data-name="Path 286" d="M2579.156,3966.529a52.443,52.443,0,0,0-30.769-19.981,4.663,4.663,0,0,0-4.9,2l-8.451,12.861a17.641,17.641,0,0,0-2.764,7.487,19.383,19.383,0,0,0,.6,7.766,22.845,22.845,0,0,0,9.57,12.823,23.149,23.149,0,0,0,12.717,3.886,20.284,20.284,0,0,0,8.964-2.044,17.911,17.911,0,0,0,7.027-6.191l8.45-12.86a4.666,4.666,0,0,0-.141-5.328Zm-11.9,16.041a14.169,14.169,0,0,1-12.091,6.131,18.562,18.562,0,0,1-10.155-3.119h0c-7.818-5.137-10.534-14.813-6.065-21.614l8.45-12.86a47.774,47.774,0,0,1,28.007,18.188l.3.415Z" transform="translate(-2532.122 -3946.44)" fill="#542d2a"/>
          </g>
          <path id="Path_287" data-name="Path 287" d="M2562.2,4114.778a17.916,17.916,0,0,0,8.045,12.058h0a17.911,17.911,0,0,0,14.26,2.6A47.963,47.963,0,0,0,2562.2,4114.778Z" transform="translate(-2557.361 -4087.693)" fill="#fff"/>
        </g>
      </g>
    </g>
    <rect id="Rectangle_44" data-name="Rectangle 44" width="1280" height="74" transform="translate(0 726)" fill="#542d2a"/>
    <g id="Group_52" data-name="Group 52" transform="translate(961.462 746)">
      <g id="nav__logo__e_1_">
        <path id="Path_137" data-name="Path 137" d="M23.4,35.564h9.954a1.93,1.93,0,0,0,1.935-1.843V26.9A36.608,36.608,0,0,1,23.4,35.564Z" transform="translate(-1.833 -2.107)" fill="#fff"/>
        <path id="Path_138" data-name="Path 138" d="M19.731,10.977C19.639,9.226,18.348,8.12,15.583,8.4,10.146,8.765,6,14.94,4.8,21.3,16.6,20.378,19.823,13.189,19.731,10.977Z" transform="translate(-0.376 -0.654)" fill="#fff"/>
        <path id="Path_139" data-name="Path 139" d="M18.341,3.963c5.622-.369,8.2,1.843,8.387,4.608.461,6.083-9.493,13.272-22.581,14.378H3.963a10.209,10.209,0,0,0,.369,5.069c.922,2.4,3.318,3.318,6.083,3.318,12.166,0,21.106-13.456,23.041-19.539V1.843A1.871,1.871,0,0,0,31.521,0H1.843A1.849,1.849,0,0,0,0,1.843V15.484C4.793,9.4,12.166,4.424,18.341,3.963Z" fill="#fff"/>
      </g>
      <g id="nav__logo__edgepoint_1_" transform="translate(51.982 7.097)">
        <path id="Path_140" data-name="Path 140" d="M62.3,23.683a4.855,4.855,0,0,0,3.779-1.659l1.106.922a6.365,6.365,0,0,1-4.885,2.3,5.892,5.892,0,0,1-5.9-6.175c0-3.41,2.4-6.175,5.714-6.175,3.5,0,5.53,2.857,5.53,6.267v.553H58.151A4.081,4.081,0,0,0,62.3,23.683Zm3.41-5.346c-.184-2.12-1.475-4.055-3.779-4.055-2.028,0-3.594,1.751-3.871,4.055Z" transform="translate(-56.4 -8.107)" fill="#fff"/>
        <path id="Path_141" data-name="Path 141" d="M81.33,24.566v-2.4a5.23,5.23,0,0,1-4.516,2.673A5.856,5.856,0,0,1,71.1,18.668a5.856,5.856,0,0,1,5.714-6.175,5.228,5.228,0,0,1,4.516,2.581V7.7h1.751V24.566Zm-4.24-10.6c-2.3,0-4.147,1.751-4.147,4.608s1.935,4.608,4.147,4.608a4.452,4.452,0,0,0,4.332-4.608A4.452,4.452,0,0,0,77.091,13.967Z" transform="translate(-57.552 -7.7)" fill="#fff"/>
        <path id="Path_142" data-name="Path 142" d="M93.7,28.66A9.258,9.258,0,0,1,88.261,27l.829-1.382A8.066,8.066,0,0,0,93.7,27.094c2.581,0,4.332-1.475,4.332-4.24V21.471a5.681,5.681,0,0,1-4.7,2.581,5.427,5.427,0,0,1-5.53-5.53A5.5,5.5,0,0,1,93.33,12.9a5.773,5.773,0,0,1,4.7,2.4v-2.12h1.751v9.77C99.689,26.725,97.293,28.66,93.7,28.66Zm-.092-14.286a3.892,3.892,0,0,0-4.147,4.055,4,4,0,0,0,4.147,4.055A4.176,4.176,0,0,0,98.03,18.43,4.23,4.23,0,0,0,93.606,14.375Z" transform="translate(-58.86 -8.107)" fill="#fff"/>
        <path id="Path_143" data-name="Path 143" d="M110.2,23.683a4.855,4.855,0,0,0,3.779-1.659l1.106.922a6.365,6.365,0,0,1-4.885,2.3,5.892,5.892,0,0,1-5.9-6.175c0-3.41,2.4-6.175,5.714-6.175,3.5,0,5.53,2.857,5.53,6.267v.553h-9.4A3.948,3.948,0,0,0,110.2,23.683Zm3.41-5.346c-.184-2.12-1.475-4.055-3.779-4.055-2.028,0-3.594,1.751-3.871,4.055Z" transform="translate(-60.153 -8.107)" fill="#fff"/>
        <path id="Path_144" data-name="Path 144" d="M126.067,25.235a5.228,5.228,0,0,1-4.516-2.581v5.991H119.8V13.069h1.751v2.3a5.23,5.23,0,0,1,4.516-2.673,5.856,5.856,0,0,1,5.714,6.175C131.782,22.838,128.924,25.235,126.067,25.235ZM125.7,14.359a4.452,4.452,0,0,0-4.332,4.608,4.34,4.34,0,0,0,4.332,4.608c2.3,0,4.147-1.751,4.147-4.608A4.153,4.153,0,0,0,125.7,14.359Z" transform="translate(-61.367 -8.092)" fill="#fff"/>
        <path id="Path_145" data-name="Path 145" d="M141.675,25.242a6.116,6.116,0,0,1-6.175-6.175,6.194,6.194,0,0,1,6.175-6.267,6.116,6.116,0,0,1,6.175,6.175A6.194,6.194,0,0,1,141.675,25.242Zm0-10.876a4.339,4.339,0,0,0-4.332,4.608,4.491,4.491,0,0,0,4.424,4.7,4.412,4.412,0,0,0,4.424-4.608,4.625,4.625,0,0,0-4.516-4.7Z" transform="translate(-62.597 -8.1)" fill="#fff"/>
        <path id="Path_146" data-name="Path 146" d="M152.4,10.135V8.2h2.028v1.935Zm.184,14.47V12.716h1.751V24.605Z" transform="translate(-63.921 -7.739)" fill="#fff"/>
        <path id="Path_147" data-name="Path 147" d="M160.751,24.966H159V13.076h1.751V15.1a4.43,4.43,0,0,1,4.055-2.3c2.857,0,4.516,1.935,4.516,4.7v7.373h-1.751V17.961c0-2.212-1.2-3.594-3.318-3.594a3.51,3.51,0,0,0-3.594,3.687l.092,6.912Z" transform="translate(-64.438 -8.1)" fill="#fff"/>
        <path id="Path_148" data-name="Path 148" d="M176.618,21.274a1.8,1.8,0,0,0,2.028,2.028,3.994,3.994,0,0,0,1.751-.369v1.475a4,4,0,0,1-2.12.461c-1.935,0-3.318-.922-3.318-3.318V14.361H173.3V12.7h1.659V9.2h1.751v3.5h3.779v1.567H176.71v7Z" transform="translate(-65.558 -7.818)" fill="#fff"/>
      </g>
      <g id="nav__logo__learning_1_" transform="translate(176.958 7.097)">
        <path id="Path_149" data-name="Path 149" d="M192,24.566V7.7h1.751V24.566Z" transform="translate(-192 -7.7)" fill="#fff"/>
        <path id="Path_150" data-name="Path 150" d="M203.7,23.683a4.855,4.855,0,0,0,3.779-1.659l1.106.922a6.365,6.365,0,0,1-4.885,2.3,5.892,5.892,0,0,1-5.9-6.175c0-3.41,2.4-6.175,5.714-6.175,3.5,0,5.53,2.857,5.53,6.267v.553h-9.4a3.948,3.948,0,0,0,4.055,3.963Zm3.41-5.346c-.184-2.12-1.475-4.055-3.779-4.055-2.028,0-3.594,1.751-3.871,4.055Z" transform="translate(-192.454 -8.107)" fill="#fff"/>
        <path id="Path_151" data-name="Path 151" d="M213.759,15.4l-.553-1.475A9.105,9.105,0,0,1,217.538,13c3.226,0,5.069,1.659,5.069,4.793v7.281h-1.751V23.323a5.161,5.161,0,0,1-4.332,2.028c-2.212,0-4.424-1.2-4.424-3.687,0-2.581,2.028-3.871,5.069-3.871a13.114,13.114,0,0,1,3.594.461v-.369c0-2.12-1.29-3.226-3.594-3.226a5.9,5.9,0,0,0-3.41.737Zm.276,5.991c0,1.475,1.382,2.4,3.041,2.4,2.212,0,3.963-1.29,3.963-3.226v-1.2a11.937,11.937,0,0,0-3.5-.461c-2.212,0-3.5,1.014-3.5,2.488Z" transform="translate(-193.575 -8.115)" fill="#fff"/>
        <path id="Path_152" data-name="Path 152" d="M229.451,24.965H227.7V13.076h1.751v3.041a5.068,5.068,0,0,1,4.885-3.318v1.843h-.092c-2.581,0-4.7,1.843-4.7,5.438v4.885Z" transform="translate(-194.797 -8.099)" fill="#fff"/>
        <path id="Path_153" data-name="Path 153" d="M239.551,24.966H237.8V13.076h1.751V15.1a4.43,4.43,0,0,1,4.055-2.3c2.857,0,4.516,1.935,4.516,4.7v7.373h-1.751V17.961c0-2.212-1.2-3.594-3.318-3.594a3.51,3.51,0,0,0-3.594,3.687v6.912Z" transform="translate(-195.588 -8.1)" fill="#fff"/>
        <path id="Path_154" data-name="Path 154" d="M253.1,10.135V8.2h2.028v1.935Zm.184,14.47V12.716h1.751V24.605Z" transform="translate(-196.787 -7.739)" fill="#fff"/>
        <path id="Path_155" data-name="Path 155" d="M261.451,24.966H259.7V13.076h1.751V15.1a4.43,4.43,0,0,1,4.055-2.3c2.857,0,4.516,1.935,4.516,4.7v7.373h-1.751V17.961c0-2.212-1.2-3.594-3.318-3.594a3.51,3.51,0,0,0-3.594,3.687l.092,6.912Z" transform="translate(-197.304 -8.1)" fill="#fff"/>
        <path id="Path_156" data-name="Path 156" d="M280.3,28.66A9.258,9.258,0,0,1,274.861,27l.83-1.382a8.066,8.066,0,0,0,4.608,1.475c2.581,0,4.332-1.475,4.332-4.24V21.471a5.681,5.681,0,0,1-4.7,2.581,5.427,5.427,0,0,1-5.53-5.53,5.5,5.5,0,0,1,5.53-5.622,5.641,5.641,0,0,1,4.7,2.4v-2.12h1.751v9.77c-.092,3.779-2.488,5.714-6.083,5.714Zm-.092-14.286a3.892,3.892,0,0,0-4.147,4.055,4,4,0,0,0,4.147,4.055,4.176,4.176,0,0,0,4.424-4.055A4.23,4.23,0,0,0,280.206,14.375Z" transform="translate(-198.455 -8.107)" fill="#fff"/>
      </g>
    </g>
    <g transform="matrix(1, 0, 0, 1, 0, 0)" filter="url(#Path_804)">
      <path id="Path_804-2" data-name="Path 804" d="M3.55,46H20.4c6.25,0,9.7-3.85,9.7-9,0-4.1-2.9-7.65-6.45-8.2a7.493,7.493,0,0,0,5.8-7.65c0-4.7-3.4-8.5-9.5-8.5H3.55ZM9.4,26.45V17.8h9.35c3,0,4.7,1.85,4.7,4.35s-1.7,4.3-4.7,4.3Zm0,14.4V31.6H19c3.35,0,5.1,2.1,5.1,4.6,0,2.9-1.9,4.65-5.1,4.65ZM34.3,33.9c0,7.65,5.4,12.7,12.65,12.7a14.077,14.077,0,0,0,9.8-3.5l-2.4-3.45A10.221,10.221,0,0,1,47.5,42.3a7.315,7.315,0,0,1-7.7-6.65H58.45V34.4c0-7.6-4.65-13.15-11.9-13.15C39.4,21.25,34.3,26.9,34.3,33.9Zm12.25-8.35a6.459,6.459,0,0,1,6.8,6.4H39.75A6.662,6.662,0,0,1,46.55,25.55ZM79.95,46H85.2V29c0-4.95-2.6-7.75-7.8-7.75a11.426,11.426,0,0,0-8.5,3.9v-3.3H63.65V46H68.9V29.15a7.95,7.95,0,0,1,6.2-3.25c2.95,0,4.85,1.25,4.85,5ZM90.5,33.9c0,7.65,5.4,12.7,12.65,12.7a14.077,14.077,0,0,0,9.8-3.5l-2.4-3.45a10.221,10.221,0,0,1-6.85,2.65A7.315,7.315,0,0,1,96,35.65h18.65V34.4c0-7.6-4.65-13.15-11.9-13.15C95.6,21.25,90.5,26.9,90.5,33.9Zm12.25-8.35a6.459,6.459,0,0,1,6.8,6.4H95.95A6.662,6.662,0,0,1,102.75,25.55Zm35.1-7.4a3.25,3.25,0,1,0-3.25-3.25A3.244,3.244,0,0,0,137.85,18.15ZM121.1,46h5.25V26.45h4.9v-4.6h-4.9V20.5c0-2.7,1.3-4.05,3.35-4.05a3.617,3.617,0,0,1,2.1.55l1.15-3.9a8.7,8.7,0,0,0-4.2-.95c-4.45,0-7.65,2.95-7.65,8.35v1.35h-4v4.6h4Zm14.15,0h5.25V21.85h-5.25Zm19.3.6a6.926,6.926,0,0,0,4.95-1.55l-1.25-3.95a3.389,3.389,0,0,1-2.35.85c-1.5,0-2.3-1.2-2.3-2.85V26.45h4.9v-4.6h-4.9v-6.6h-5.25v6.6h-4v4.6h4V40.4C148.35,44.4,150.5,46.6,154.55,46.6Zm6.6-3.75A14.688,14.688,0,0,0,171.5,46.6c6.5,0,10.05-3.25,10.05-7.5,0-5.7-5.15-6.9-9.35-7.8-2.85-.65-5.25-1.3-5.25-3.15,0-1.7,1.75-2.7,4.5-2.7a9.739,9.739,0,0,1,7.15,2.9l2.2-3.7a13.806,13.806,0,0,0-9.4-3.4c-6.1,0-9.5,3.4-9.5,7.35,0,5.4,4.95,6.5,9.1,7.4,2.95.65,5.5,1.4,5.5,3.5,0,1.8-1.6,2.95-4.75,2.95a12.465,12.465,0,0,1-8.2-3.4ZM210.6,46.6c7.75,0,12.45-5.75,12.45-12.7,0-6.9-4.7-12.65-12.45-12.65-7.65,0-12.4,5.75-12.4,12.65C198.2,40.85,202.95,46.6,210.6,46.6Zm0-4.65c-4.45,0-6.95-3.75-6.95-8.05,0-4.25,2.5-8,6.95-8,4.5,0,7,3.75,7,8C217.6,38.2,215.1,41.95,210.6,41.95Zm19,4.05h5.25V26.45h4.9v-4.6h-4.9V20.5c0-2.7,1.3-4.05,3.35-4.05a4.208,4.208,0,0,1,2.1.5l1.15-3.85a8.7,8.7,0,0,0-4.2-.95c-4.45,0-7.65,2.95-7.65,8.35v1.35h-4v4.6h4Zm56.6,0h5.25V28.55c0-4.9-2.5-7.3-6.95-7.3a10.242,10.242,0,0,0-8.2,4.45c-.8-2.65-3-4.45-6.6-4.45a10.43,10.43,0,0,0-7.85,3.9v-3.3H256.6V46h5.25V29.15a7.307,7.307,0,0,1,5.55-3.25c2.85,0,4,1.75,4,4.35V46h5.25V29.1a7.328,7.328,0,0,1,5.6-3.2c2.8,0,3.95,1.75,3.95,4.35Zm12.2,0h20.55V40.85h-14.7V12.65H298.4Zm23.45-12.1c0,7.65,5.4,12.7,12.65,12.7a14.077,14.077,0,0,0,9.8-3.5l-2.4-3.45a10.221,10.221,0,0,1-6.85,2.65,7.315,7.315,0,0,1-7.7-6.65H346V34.4c0-7.6-4.65-13.15-11.9-13.15C326.95,21.25,321.85,26.9,321.85,33.9Zm12.25-8.35a6.459,6.459,0,0,1,6.8,6.4H327.3A6.662,6.662,0,0,1,334.1,25.55ZM365.95,46h5.25V30c0-6.5-4.7-8.75-10.05-8.75A14.361,14.361,0,0,0,351,25.15l2.15,3.65a9.889,9.889,0,0,1,7.15-3.05c3.35,0,5.65,1.7,5.65,4.5v3.6c-1.75-2.05-4.55-3.1-7.8-3.1-3.95,0-8.4,2.3-8.4,7.85,0,5.35,4.45,8,8.4,8a10.2,10.2,0,0,0,7.8-3.2Zm0-5.5A7.069,7.069,0,0,1,360.2,43c-2.95,0-5.15-1.7-5.15-4.3,0-2.65,2.2-4.35,5.15-4.35a7.069,7.069,0,0,1,5.75,2.5ZM378,46h5.25V29.55a8.339,8.339,0,0,1,6.2-3.2,7.739,7.739,0,0,1,1.65.15V21.3a10.313,10.313,0,0,0-7.85,4.1V21.85H378Zm33.65,0h5.25V29c0-4.95-2.6-7.75-7.8-7.75a11.426,11.426,0,0,0-8.5,3.9v-3.3h-5.25V46h5.25V29.15a7.95,7.95,0,0,1,6.2-3.25c2.95,0,4.85,1.25,4.85,5ZM426.3,18.15a3.25,3.25,0,1,0-3.25-3.25A3.244,3.244,0,0,0,426.3,18.15ZM423.7,46h5.25V21.85H423.7Zm28.35,0h5.25V29c0-4.95-2.6-7.75-7.8-7.75a11.426,11.426,0,0,0-8.5,3.9v-3.3h-5.25V46H441V29.15a7.95,7.95,0,0,1,6.2-3.25c2.95,0,4.85,1.25,4.85,5Zm11.75,6.2c2.95,2.7,6,3.6,10.1,3.6,5.95,0,12.4-2.35,12.4-11.05V21.85h-5.25V25.2a9.618,9.618,0,0,0-7.75-3.95c-6.2,0-10.7,4.6-10.7,12.4,0,7.95,4.55,12.4,10.7,12.4a9.8,9.8,0,0,0,7.75-4v2.9c0,4.95-3.7,6.55-7.15,6.55-3.2,0-5.7-.85-7.65-3.1Zm17.25-14.05a7.837,7.837,0,0,1-6.2,3.25c-4.15,0-6.8-3.1-6.8-7.75s2.65-7.75,6.8-7.75a7.837,7.837,0,0,1,6.2,3.25Z" transform="translate(62 164)" fill="#fff"/>
    </g>
    <g transform="matrix(1, 0, 0, 1, 0, 0)" filter="url(#Path_803)">
      <path id="Path_803-2" data-name="Path 803" d="M9,39.55A5.675,5.675,0,1,0,3.3,33.9,5.687,5.687,0,0,0,9,39.55ZM44,43.1a11.573,11.573,0,0,0,8.85,3.5c6.45,0,11.25-3.55,11.25-11.15V12.65H58.25v22.7C58.25,39,56,41.4,52.4,41.4a7.63,7.63,0,0,1-5.7-2.75ZM87.35,46H92.6V21.85H87.35V38.8a8.032,8.032,0,0,1-6.2,3.15c-2.95,0-4.85-1.15-4.85-4.9V21.85H71.05v17.1c0,4.95,2.55,7.65,7.75,7.65a11.575,11.575,0,0,0,8.55-3.8Zm9.95-3.15a14.688,14.688,0,0,0,10.35,3.75c6.5,0,10.05-3.25,10.05-7.5,0-5.7-5.15-6.9-9.35-7.8-2.85-.65-5.25-1.3-5.25-3.15,0-1.7,1.75-2.7,4.5-2.7a9.739,9.739,0,0,1,7.15,2.9l2.2-3.7a13.806,13.806,0,0,0-9.4-3.4c-6.1,0-9.5,3.4-9.5,7.35,0,5.4,4.95,6.5,9.1,7.4,2.95.65,5.5,1.4,5.5,3.5,0,1.8-1.6,2.95-4.75,2.95a12.465,12.465,0,0,1-8.2-3.4Zm32.95,3.75a6.926,6.926,0,0,0,4.95-1.55l-1.25-3.95a3.389,3.389,0,0,1-2.35.85c-1.5,0-2.3-1.2-2.3-2.85V26.45h4.9v-4.6h-4.9v-6.6h-5.25v6.6h-4v4.6h4V40.4C124.05,44.4,126.2,46.6,130.25,46.6Zm6.8-10.45h12v-4.5h-12Zm19.5-18a3.25,3.25,0,1,0-3.25-3.25A3.244,3.244,0,0,0,156.55,18.15ZM153.95,46h5.25V21.85h-5.25Zm28.35,0h5.25V29c0-4.95-2.6-7.75-7.8-7.75a11.426,11.426,0,0,0-8.5,3.9v-3.3H166V46h5.25V29.15a7.95,7.95,0,0,1,6.2-3.25c2.95,0,4.85,1.25,4.85,5Zm10.15-9.85h12v-4.5h-12ZM216.6,46.6a6.926,6.926,0,0,0,4.95-1.55L220.3,41.1a3.389,3.389,0,0,1-2.35.85c-1.5,0-2.3-1.2-2.3-2.85V26.45h4.9v-4.6h-4.9v-6.6H210.4v6.6h-4v4.6h4V40.4C210.4,44.4,212.55,46.6,216.6,46.6Zm11.3-28.45a3.25,3.25,0,1,0-3.25-3.25A3.244,3.244,0,0,0,227.9,18.15ZM225.3,46h5.25V21.85H225.3Zm41.65,0h5.25V28.55c0-4.9-2.5-7.3-6.95-7.3a10.242,10.242,0,0,0-8.2,4.45c-.8-2.65-3-4.45-6.6-4.45a10.43,10.43,0,0,0-7.85,3.9v-3.3h-5.25V46h5.25V29.15a7.307,7.307,0,0,1,5.55-3.25c2.85,0,4,1.75,4,4.35V46h5.25V29.1a7.328,7.328,0,0,1,5.6-3.2c2.8,0,3.95,1.75,3.95,4.35ZM277.5,33.9c0,7.65,5.4,12.7,12.65,12.7a14.077,14.077,0,0,0,9.8-3.5l-2.4-3.45a10.221,10.221,0,0,1-6.85,2.65,7.315,7.315,0,0,1-7.7-6.65h18.65V34.4c0-7.6-4.65-13.15-11.9-13.15C282.6,21.25,277.5,26.9,277.5,33.9Zm12.25-8.35a6.459,6.459,0,0,1,6.8,6.4h-13.6A6.662,6.662,0,0,1,289.75,25.55ZM9,112.55a5.675,5.675,0,1,0-5.7-5.65A5.687,5.687,0,0,0,9,112.55ZM47.15,119H53V106.55h8.8c6.95,0,10.9-4.8,10.9-10.45S68.8,85.65,61.8,85.65H47.15ZM66.7,96.1c0,3.2-2.4,5.3-5.7,5.3H53V90.8h8C64.3,90.8,66.7,92.9,66.7,96.1Zm20.85,23.5c7.75,0,12.45-5.75,12.45-12.7,0-6.9-4.7-12.65-12.45-12.65-7.65,0-12.4,5.75-12.4,12.65C75.15,113.85,79.9,119.6,87.55,119.6Zm0-4.65c-4.45,0-6.95-3.75-6.95-8.05,0-4.25,2.5-8,6.95-8,4.5,0,7,3.75,7,8C94.55,111.2,92.05,114.95,87.55,114.95ZM105.3,119h5.25V102.55a8.339,8.339,0,0,1,6.2-3.2,7.739,7.739,0,0,1,1.65.15V94.3a10.313,10.313,0,0,0-7.85,4.1V94.85H105.3Zm24.6.6a6.926,6.926,0,0,0,4.95-1.55l-1.25-3.95a3.389,3.389,0,0,1-2.35.85c-1.5,0-2.3-1.2-2.3-2.85V99.45h4.9v-4.6h-4.9v-6.6H123.7v6.6h-4v4.6h4V113.4C123.7,117.4,125.85,119.6,129.9,119.6Zm23.45-.6h5.25V103c0-6.5-4.7-8.75-10.05-8.75a14.361,14.361,0,0,0-10.15,3.9l2.15,3.65a9.889,9.889,0,0,1,7.15-3.05c3.35,0,5.65,1.7,5.65,4.5v3.6c-1.75-2.05-4.55-3.1-7.8-3.1-3.95,0-8.4,2.3-8.4,7.85,0,5.35,4.45,8,8.4,8a10.2,10.2,0,0,0,7.8-3.2Zm0-5.5a7.069,7.069,0,0,1-5.75,2.5c-2.95,0-5.15-1.7-5.15-4.3,0-2.65,2.2-4.35,5.15-4.35a7.069,7.069,0,0,1,5.75,2.5ZM165.4,119h5.25v-3.3a9.708,9.708,0,0,0,7.75,3.9c6.15,0,10.7-4.7,10.7-12.65,0-7.8-4.5-12.7-10.7-12.7a9.55,9.55,0,0,0-7.75,3.95V85.65H165.4Zm5.25-7.25V102.2a7.881,7.881,0,0,1,6.2-3.3c4.2,0,6.85,3.35,6.85,8.05s-2.65,8-6.85,8A7.793,7.793,0,0,1,170.65,111.75Zm23.8,7.25h5.25V85.65h-5.25ZM205,106.9c0,7.65,5.4,12.7,12.65,12.7a14.077,14.077,0,0,0,9.8-3.5l-2.4-3.45a10.221,10.221,0,0,1-6.85,2.65,7.315,7.315,0,0,1-7.7-6.65h18.65V107.4c0-7.6-4.65-13.15-11.9-13.15C210.1,94.25,205,99.9,205,106.9Zm12.25-8.35a6.459,6.459,0,0,1,6.8,6.4h-13.6A6.662,6.662,0,0,1,217.25,98.55ZM9,185.55a5.675,5.675,0,1,0-5.7-5.65A5.687,5.687,0,0,0,9,185.55ZM66.2,192h6.75L64.8,178.9c4-.65,7.9-3.85,7.9-9.8,0-6.15-4.3-10.45-10.9-10.45H47.15V192H53V179.55h5.8Zm.5-22.9c0,3.2-2.4,5.3-5.7,5.3H53V163.8h8C64.3,163.8,66.7,165.9,66.7,169.1Zm8.7,10.8c0,7.65,5.4,12.7,12.65,12.7a14.077,14.077,0,0,0,9.8-3.5l-2.4-3.45a10.221,10.221,0,0,1-6.85,2.65,7.315,7.315,0,0,1-7.7-6.65H99.55V180.4c0-7.6-4.65-13.15-11.9-13.15C80.5,167.25,75.4,172.9,75.4,179.9Zm12.25-8.35a6.459,6.459,0,0,1,6.8,6.4H80.85A6.662,6.662,0,0,1,87.65,171.55ZM119.5,192h5.25V176c0-6.5-4.7-8.75-10.05-8.75a14.361,14.361,0,0,0-10.15,3.9l2.15,3.65a9.889,9.889,0,0,1,7.15-3.05c3.35,0,5.65,1.7,5.65,4.5v3.6c-1.75-2.05-4.55-3.1-7.8-3.1-3.95,0-8.4,2.3-8.4,7.85,0,5.35,4.45,8,8.4,8a10.2,10.2,0,0,0,7.8-3.2Zm0-5.5a7.069,7.069,0,0,1-5.75,2.5c-2.95,0-5.15-1.7-5.15-4.3,0-2.65,2.2-4.35,5.15-4.35a7.069,7.069,0,0,1,5.75,2.5Zm29.05,5.5h5.25V158.65h-5.25V171.2a9.688,9.688,0,0,0-7.75-3.95c-6.25,0-10.75,4.9-10.75,12.7,0,7.95,4.55,12.65,10.75,12.65a9.78,9.78,0,0,0,7.75-3.9Zm0-7.25a7.891,7.891,0,0,1-6.25,3.2c-4.15,0-6.8-3.35-6.8-8,0-4.7,2.65-8.05,6.8-8.05a7.934,7.934,0,0,1,6.25,3.25Zm14.65-20.6a3.25,3.25,0,1,0-3.25-3.25A3.244,3.244,0,0,0,163.2,164.15ZM160.6,192h5.25V167.85H160.6Zm12.05,0h5.25V158.65h-5.25Zm11.8,4.75-.8,4.7a14.848,14.848,0,0,0,2.95.35c3.75-.05,6.65-1.35,8.3-5.45l11.65-28.5H200.9l-7.05,18.1-7.05-18.1h-5.6l9.9,24.45-1.2,2.75a3.271,3.271,0,0,1-3.45,2.1A5.487,5.487,0,0,1,184.45,196.75Zm53-4.75h5.25V176c0-6.5-4.7-8.75-10.05-8.75a14.361,14.361,0,0,0-10.15,3.9l2.15,3.65a9.889,9.889,0,0,1,7.15-3.05c3.35,0,5.65,1.7,5.65,4.5v3.6c-1.75-2.05-4.55-3.1-7.8-3.1-3.95,0-8.4,2.3-8.4,7.85,0,5.35,4.45,8,8.4,8a10.2,10.2,0,0,0,7.8-3.2Zm0-5.5a7.069,7.069,0,0,1-5.75,2.5c-2.95,0-5.15-1.7-5.15-4.3,0-2.65,2.2-4.35,5.15-4.35a7.069,7.069,0,0,1,5.75,2.5ZM248,179.9c0,7.35,5.15,12.7,12.5,12.7,4.7,0,7.55-2,9.25-4.3l-3.45-3.2a6.565,6.565,0,0,1-5.55,2.85c-4.4,0-7.3-3.35-7.3-8.05s2.9-8,7.3-8a6.446,6.446,0,0,1,5.55,2.85l3.45-3.2c-1.7-2.3-4.55-4.3-9.25-4.3C253.15,167.25,248,172.6,248,179.9Zm24.85,0c0,7.35,5.15,12.7,12.5,12.7,4.7,0,7.55-2,9.25-4.3l-3.45-3.2a6.565,6.565,0,0,1-5.55,2.85c-4.4,0-7.3-3.35-7.3-8.05s2.9-8,7.3-8a6.446,6.446,0,0,1,5.55,2.85l3.45-3.2c-1.7-2.3-4.55-4.3-9.25-4.3C278,167.25,272.85,172.6,272.85,179.9Zm24.85,0c0,7.65,5.4,12.7,12.65,12.7a14.077,14.077,0,0,0,9.8-3.5l-2.4-3.45a10.221,10.221,0,0,1-6.85,2.65,7.315,7.315,0,0,1-7.7-6.65h18.65V180.4c0-7.6-4.65-13.15-11.9-13.15C302.8,167.25,297.7,172.9,297.7,179.9Zm12.25-8.35a6.459,6.459,0,0,1,6.8,6.4h-13.6A6.662,6.662,0,0,1,309.95,171.55Zm15,17.3a14.688,14.688,0,0,0,10.35,3.75c6.5,0,10.05-3.25,10.05-7.5,0-5.7-5.15-6.9-9.35-7.8-2.85-.65-5.25-1.3-5.25-3.15,0-1.7,1.75-2.7,4.5-2.7a9.739,9.739,0,0,1,7.15,2.9l2.2-3.7a13.806,13.806,0,0,0-9.4-3.4c-6.1,0-9.5,3.4-9.5,7.35,0,5.4,4.95,6.5,9.1,7.4,2.95.65,5.5,1.4,5.5,3.5,0,1.8-1.6,2.95-4.75,2.95a12.465,12.465,0,0,1-8.2-3.4Zm23.6,0a14.688,14.688,0,0,0,10.35,3.75c6.5,0,10.05-3.25,10.05-7.5,0-5.7-5.15-6.9-9.35-7.8-2.85-.65-5.25-1.3-5.25-3.15,0-1.7,1.75-2.7,4.5-2.7a9.739,9.739,0,0,1,7.15,2.9l2.2-3.7a13.806,13.806,0,0,0-9.4-3.4c-6.1,0-9.5,3.4-9.5,7.35,0,5.4,4.95,6.5,9.1,7.4,2.95.65,5.5,1.4,5.5,3.5,0,1.8-1.6,2.95-4.75,2.95a12.465,12.465,0,0,1-8.2-3.4Zm28.3-24.7a3.25,3.25,0,1,0-3.25-3.25A3.244,3.244,0,0,0,376.85,164.15ZM374.25,192h5.25V167.85h-5.25Zm12.05,0h5.25v-3.3a9.708,9.708,0,0,0,7.75,3.9c6.15,0,10.7-4.7,10.7-12.65,0-7.8-4.5-12.7-10.7-12.7a9.549,9.549,0,0,0-7.75,3.95V158.65H386.3Zm5.25-7.25V175.2a7.881,7.881,0,0,1,6.2-3.3c4.2,0,6.85,3.35,6.85,8.05s-2.65,8-6.85,8A7.793,7.793,0,0,1,391.55,184.75Zm23.8,7.25h5.25V158.65h-5.25Zm10.55-12.1c0,7.65,5.4,12.7,12.65,12.7a14.077,14.077,0,0,0,9.8-3.5l-2.4-3.45a10.221,10.221,0,0,1-6.85,2.65,7.315,7.315,0,0,1-7.7-6.65h18.65V180.4c0-7.6-4.65-13.15-11.9-13.15C431,167.25,425.9,172.9,425.9,179.9Zm12.25-8.35a6.459,6.459,0,0,1,6.8,6.4h-13.6A6.662,6.662,0,0,1,438.15,171.55ZM9,258.55a5.675,5.675,0,1,0-5.7-5.65A5.687,5.687,0,0,0,9,258.55ZM47.15,265H70v-5.15H53V250.6H69.65v-5.15H53V236.8H70v-5.15H47.15Zm45,0H97.4V248c0-4.95-2.6-7.75-7.8-7.75a11.426,11.426,0,0,0-8.5,3.9v-3.3H75.85V265H81.1V248.15a7.95,7.95,0,0,1,6.2-3.25c2.95,0,4.85,1.25,4.85,5Zm26.8,0h5.25V249c0-6.5-4.7-8.75-10.05-8.75a14.361,14.361,0,0,0-10.15,3.9l2.15,3.65a9.889,9.889,0,0,1,7.15-3.05c3.35,0,5.65,1.7,5.65,4.5v3.6c-1.75-2.05-4.55-3.1-7.8-3.1-3.95,0-8.4,2.3-8.4,7.85,0,5.35,4.45,8,8.4,8a10.2,10.2,0,0,0,7.8-3.2Zm0-5.5a7.069,7.069,0,0,1-5.75,2.5c-2.95,0-5.15-1.7-5.15-4.3,0-2.65,2.2-4.35,5.15-4.35a7.069,7.069,0,0,1,5.75,2.5Zm11.75,11.7c2.95,2.7,6,3.6,10.1,3.6,5.95,0,12.4-2.35,12.4-11.05v-22.9h-5.25v3.35a9.618,9.618,0,0,0-7.75-3.95c-6.2,0-10.7,4.6-10.7,12.4,0,7.95,4.55,12.4,10.7,12.4a9.8,9.8,0,0,0,7.75-4v2.9c0,4.95-3.7,6.55-7.15,6.55-3.2,0-5.7-.85-7.65-3.1Zm17.25-14.05a7.836,7.836,0,0,1-6.2,3.25c-4.15,0-6.8-3.1-6.8-7.75s2.65-7.75,6.8-7.75a7.837,7.837,0,0,1,6.2,3.25Zm26.8,7.85H180V249c0-6.5-4.7-8.75-10.05-8.75a14.361,14.361,0,0,0-10.15,3.9l2.15,3.65a9.889,9.889,0,0,1,7.15-3.05c3.35,0,5.65,1.7,5.65,4.5v3.6c-1.75-2.05-4.55-3.1-7.8-3.1-3.95,0-8.4,2.3-8.4,7.85,0,5.35,4.45,8,8.4,8a10.2,10.2,0,0,0,7.8-3.2Zm0-5.5A7.069,7.069,0,0,1,169,262c-2.95,0-5.15-1.7-5.15-4.3,0-2.65,2.2-4.35,5.15-4.35a7.069,7.069,0,0,1,5.75,2.5Zm11.75,11.7c2.95,2.7,6,3.6,10.1,3.6,5.95,0,12.4-2.35,12.4-11.05v-22.9h-5.25v3.35a9.618,9.618,0,0,0-7.75-3.95c-6.2,0-10.7,4.6-10.7,12.4,0,7.95,4.55,12.4,10.7,12.4a9.8,9.8,0,0,0,7.75-4v2.9c0,4.95-3.7,6.55-7.15,6.55-3.2,0-5.7-.85-7.65-3.1Zm17.25-14.05a7.836,7.836,0,0,1-6.2,3.25c-4.15,0-6.8-3.1-6.8-7.75s2.65-7.75,6.8-7.75a7.837,7.837,0,0,1,6.2,3.25Zm14.65-20a3.25,3.25,0,1,0-3.25-3.25A3.244,3.244,0,0,0,218.4,237.15ZM215.8,265h5.25V240.85H215.8Zm28.35,0h5.25V248c0-4.95-2.6-7.75-7.8-7.75a11.426,11.426,0,0,0-8.5,3.9v-3.3h-5.25V265h5.25V248.15a7.95,7.95,0,0,1,6.2-3.25c2.95,0,4.85,1.25,4.85,5Zm11.75,6.2c2.95,2.7,6,3.6,10.1,3.6,5.95,0,12.4-2.35,12.4-11.05v-22.9h-5.25v3.35a9.618,9.618,0,0,0-7.75-3.95c-6.2,0-10.7,4.6-10.7,12.4,0,7.95,4.55,12.4,10.7,12.4a9.8,9.8,0,0,0,7.75-4v2.9c0,4.95-3.7,6.55-7.15,6.55-3.2,0-5.7-.85-7.65-3.1Zm17.25-14.05a7.836,7.836,0,0,1-6.2,3.25c-4.15,0-6.8-3.1-6.8-7.75s2.65-7.75,6.8-7.75a7.837,7.837,0,0,1,6.2,3.25Z" transform="translate(62 265)" fill="#fff"/>
    </g>
  </g>
</svg>
