<svg viewBox="0 0 15 16">
  <g fill="#0A0A0A">
    <path d="M.391 1.054c-.089.06-.22.19-.278.278-.107.166-.113.332-.107 3.374v3.201l.279-.326C2.449 5.038 5.164 3.26 7.529 2.832c.629-.112 1.886-.1 2.372.03.842.22 1.37.593 1.66 1.18.32.652.296 1.363-.065 2.164-.25.557-.623 1.043-1.257 1.654-1.803 1.725-4.767 2.929-8.117 3.308-.308.036-.35.053-.385.196-.065.255-.041 1.25.036 1.642.326 1.541 1.743 2.23 3.919 1.897 1.92-.29 3.752-1.292 5.46-2.994 1.446-1.44 2.691-3.237 3.397-4.915l.273-.646V3.93c0-2.276-.006-2.436-.113-2.597a1.268 1.268 0 0 0-.279-.278C14.264.947 14.021.94 7.41.94.8.941.558.947.392 1.054z"/>
    <path d="M6.178 4.498c-1.394.368-2.585 1.518-3.45 3.338-.262.552-.641 1.66-.736 2.17l-.036.202.445-.036c.64-.06 1.565-.26 2.247-.498 1.162-.403 1.91-.865 2.704-1.672 1.191-1.203 1.559-2.514.9-3.201-.397-.415-1.197-.534-2.074-.303zm7.962 8.212c-1.085 1.096-2.366 2.045-3.883 2.887l-.682.373 2.276.018c2.544.018 2.562.012 2.834-.397.137-.196.137-.237.137-1.88 0-.924-.006-1.677-.012-1.671-.012.006-.308.308-.67.67z"/>
  </g>
</svg>
