<svg xmlns="http://www.w3.org/2000/svg" width="692" height="673" viewBox="0 0 692 673">
  <g fill="none" transform="matrix(-1 0 0 1 692 0)">
    <g transform="translate(.4 .523)">
      <path fill="#3B301B" d="M233.793955,451.803988 C258.156026,471.965698 287.504485,486.962306 318.687222,493.071376 C353.342623,499.857252 386.555533,493.855047 417.862931,477.754175 C448.137433,462.205435 467.726817,438.980285 480.513342,407.775941 C493.477953,375.966034 501.349324,341.431089 508.615204,308.03603 C511.268675,295.782269 504.964455,282.905134 492.391633,279.449859 C480.78047,276.261744 466.48022,283.368212 463.80894,295.675405 C457.657874,324.954412 449.928971,353.878986 440.65785,382.324453 C433.089225,405.050904 421.762999,422.238228 400.766741,434.296071 C379.770483,446.353914 355.372796,453.086358 331.135385,448.330901 C308.091146,443.824795 284.940056,434.082343 266.757546,419.014492 C257.087514,411.017488 243.357136,409.557011 233.900807,419.014492 C225.673265,427.243034 224.177349,443.842605 233.900807,451.87523 L233.793955,451.803988 Z"/>
      <path fill="#3B301B" d="M282.660564,434.509799 C264.852033,410.679085 215.896382,393.420518 224.658179,356.944208 C225.386548,354.155052 223.716108,351.305341 220.927292,350.576883 C220.517696,350.470019 220.095633,350.413025 219.67179,350.407681 L192.656249,350.407681 C189.774829,350.441522 187.466843,352.806782 187.500679,355.688553 C187.506022,356.112448 187.563009,356.534562 187.66986,356.944208 C192.478164,376.927811 177.518998,393.046493 163.147513,404.570015 C150.450031,414.757735 137.396378,423.876812 127.031813,436.629273 C110.487687,456.986901 96.7573101,489.028347 111.574008,514.141432 C118.038504,525.112822 128.955134,532.96734 138.767634,540.679373 C143.862655,544.501549 148.727946,548.622944 153.335013,553.022187 C158.250167,557.93794 162.007767,563.993577 167.581837,568.232523 C179.923149,577.618761 198.907043,582.142679 213.688124,585.900736 C229.98293,590.032818 247.025694,592.312588 263.819138,590.442464 C277.49609,588.928555 290.638786,586.363814 296.693686,572.809873 C303.336268,557.93794 304.386972,538.435225 305.223973,522.459028 C306.239059,491.931491 301.430756,459.569452 282.660564,434.509799 Z"/>
      <path fill="#CF4327" d="M344.669869,265.112246 C338.365649,266.941405 332.150471,268.971825 326.024337,271.203505 C352.617816,230.766096 364.257472,182.310309 358.934502,134.203613 C358.489289,130.124963 353.431666,126.936848 350.030237,130.55242 C345.914685,135.058526 342.039549,139.780143 338.419074,144.694114 C334.59024,104.566611 310.441872,69.6220202 286.026376,38.2217589 C283.586608,35.0870759 278.261857,37.0462528 277.389239,40.5015283 L270.497338,68.0903002 C263.211868,55.1757627 254.580073,43.0680499 244.746202,31.9702037 C238.231841,24.6036988 231.177882,17.7341124 223.643093,11.4166577 C219.084109,7.62297894 212.370293,-3.1638156e-14 206.172924,-3.1638156e-14 C200.2783,-3.1638156e-14 194.365868,6.78587611 189.967161,10.3836372 C182.34511,16.6334113 175.202108,23.4442224 168.596924,30.7590762 C158.305374,42.2077932 149.2996,54.750087 141.741659,68.161543 L134.849758,40.519339 C133.994948,37.0640635 128.652389,35.1761294 126.21262,38.2395696 C101.72589,69.6220202 77.6487564,104.566611 73.8199223,144.711925 C70.2012288,139.797953 66.3243116,135.076337 62.2087601,130.57023 C58.8785649,127.008091 53.8565591,130.124963 53.3044947,134.221424 C47.9815248,182.32812 59.6211806,230.783906 86.2146598,271.221316 C80.0760592,269.000322 73.8608819,266.969902 67.5691279,265.130057 C64.0074218,264.097037 59.8402255,267.730419 61.2114824,271.488476 C74.514455,307.608573 101.903976,340.18434 139.052571,352.883368 C179.424511,366.68666 227.899332,370.01726 268.502782,355.911187 C307.360996,341.252982 336.798498,310.191124 351.045323,271.452855 C352.398771,267.712608 348.213766,264.079226 344.669869,265.112246 Z"/>
      <path fill="#3B301B" d="M302.071863,138.424748 C289.926445,114.540602 264.317777,101.859384 239.43926,95.1269404 C209.182566,86.853871 176.877891,90.9752666 149.666455,106.57922 C120.905678,124.140568 101.761507,156.894443 104.112233,191.037552 C105.341022,208.84825 111.858944,223.274916 124.912597,235.564298 C137.378569,247.194684 152.124033,256.52749 169.077754,258.237317 C167.442931,268.489155 166.566751,278.847857 166.4599,289.227932 C166.4599,299.575948 166.085921,311.188523 170.164074,320.877543 C176.877891,336.800308 194.09874,350.104899 211.996314,347.789509 C228.308928,345.670036 238.869387,331.278991 243.927009,316.727651 C250.71206,297.135882 246.776374,276.582336 241.932454,257.008379 C297.192325,249.973153 327.431211,188.365947 302.071863,138.424748 Z"/>
      <path fill="#EAE2C2" d="M198.550873 161.382739C189.076734 143.839201 166.958539 141.612863 151.571968 152.922657 136.648419 163.894047 127.156472 186.175231 139.444359 202.400777 150.841818 217.450817 173.280567 219.873072 188.489053 209.525057 188.722344 209.357636 188.94317 209.174186 189.147968 208.972925 189.272628 208.883871 189.415096 208.812629 189.539756 208.705764 203.092048 197.680942 206.796222 176.699939 198.550873 161.382739zM281.413967 177.465799C279.045432 157.304089 260.702646 138.780962 239.457068 146.421752 221.452643 152.904846 211.479866 174.153009 216.501872 192.213058 216.558859 192.677917 216.678176 193.133871 216.858042 193.566671 216.99873 193.992346 217.191062 194.39843 217.427915 194.777798 224.195157 209.471624 239.332408 218.929105 255.823108 216.649336 275.180981 213.94211 283.533182 195.454605 281.413967 177.465799z"/>
      <path fill="#3B301B" d="M270.354869 181.081371C268.057569 170.60868 257.49711 161.489603 246.598289 164.23245 236.646882 165.505915 229.304425 174.153009 229.662376 184.180433 230.107589 196.487625 241.13107 204.235279 252.813466 203.059773 263.890373 201.884267 272.901489 192.622704 270.354869 181.081371zM165.836601 161.347117C157.286726 162.606334 150.453592 169.110801 148.776029 177.590474 147.365593 184.842991 150.620993 192.204152 156.932336 196.042358 168.775009 203.75439 187.438349 199.604498 188.64933 183.699544 189.628799 170.822409 179.282042 157.874031 165.836601 161.347117zM405.201065 182.399363C395.477607 170.07436 380.429399 169.450985 366.182574 172.728154 337.688925 180.636104 319.114627 203.184448 311.652852 231.236298 308.607594 242.652956 307.165103 257.079621 316.300879 266.23432 324.154441 274.106649 336.442327 274.605349 346.789084 273.216114 374.427924 269.5293 399.19959 250.66777 409.118942 224.39699 414.194373 210.682752 414.693012 194.421584 405.201065 182.399363zM46.5194444 172.728154C32.2726197 169.450985 17.2244111 170.07436 7.50095321 182.399363-1.52797195 193.833831-1.58139754 209.36476 2.9953949 222.651541 12.2736395 249.795046 37.615179 269.458057 65.8417004 273.233925 76.1884569 274.623159 88.4763432 274.12446 96.3477139 266.252131 105.109511 257.471457 104.094425 243.79284 101.351911 232.714586 94.2819243 204.057172 75.3692645 180.760779 46.5194444 172.728154z"/>
      <path fill="#CF4327" d="M355.818009 212.9269C355.748556 212.118294 355.451153 211.347091 354.9632 210.700563 352.498499 204.742884 350.966965 198.441459 350.422024 192.01714 350.012428 185.765585 351.828898 179.977108 352.612473 173.832417 353.342623 168.079561 353.556326 160.616879 346.931552 158.390541 336.246434 154.828402 322.444822 168.898853 319.898202 178.178227 317.26254 187.796004 315.19675 195.312119 310.299404 204.146226 306.737698 210.593698 302.730778 217.468628 301.85816 224.931311 299.311541 246.606931 324.296909 251.023984 340.057459 255.369794 344.189038 256.509679 348.480894 251.611737 345.880849 247.782437 338.817985 237.612528 334.898328 225.590307 334.608049 213.211871 339.122511 216.066926 344.139174 218.036789 349.389129 219.018159 350.548465 219.260384 351.755883 219.096526 352.808367 218.555081 355.054023 218.093784 356.500076 215.901287 356.038835 213.655358 355.98719 213.406008 355.914175 213.162001 355.818009 212.9269zM103.221807 205.232678C101.084783 201.349946 98.734057 197.538457 96.8997783 193.495428 94.6202864 188.490622 94.4243925 183.396762 93.0175186 178.178227 90.5599413 169.05915 77.1145005 155.220237 66.5362331 158.176813 59.4128208 160.1538 59.5374805 167.883644 60.3032473 173.832417 60.99778 179.335923 62.7608246 184.679132 62.6361649 190.271692 62.2764325 197.308699 60.6914733 204.226374 57.9525212 210.718373 57.4716909 211.355996 57.1742884 212.114732 57.0977118 212.909089 56.2233129 215.028562 57.2330566 217.45438 59.3504909 218.328885 59.5891252 218.426844 59.8366638 218.50343 60.089545 218.555081 61.1473717 219.101869 62.3619135 219.263946 63.5265914 219.018159 68.7765463 218.036789 73.7932095 216.066926 78.3076721 213.211871 78.017393 225.590307 74.0977354 237.612528 67.034872 247.782437 64.452635 251.611737 68.7266824 256.509679 72.8582616 255.369794 88.2626408 251.113037 112.767179 246.980955 111.164412 225.946521 110.630156 218.53727 106.747896 211.608908 103.221807 205.232678zM233.509019 220.56769C231.062127 214.618916 224.750783 211.233103 218.443002 212.481633 214.126214 213.316954 210.299161 215.785517 207.757883 219.374373 205.373321 216.036648 201.873945 213.660701 197.891957 212.67755 191.331294 210.905386 184.473229 214.273389 181.864279 220.549879 179.566979 226.897612 181.180432 234.002299 185.995858 238.734602 191.55212 244.434026 200.242683 242.813252 207.651032 242.795441 214.275805 242.795441 223.375965 244.434026 228.629481 239.482651 233.882998 234.531277 236.16249 227.086405 233.509019 220.56769zM216.679957 152.334904C228.39797 143.928254 240.270918 135.758487 252.297019 127.827383 257.835472 124.265243 252.65319 115.235219 247.079119 118.922034 235.028087 126.853138 223.15692 135.022905 211.462058 143.429555 206.119498 147.276665 211.266164 156.235447 216.679957 152.334904zM195.18506 300.413051C193.671335 291.632376 192.602823 275.210912 201.685174 270.010189 204.799886 268.485593 208.279673 267.867561 211.729186 268.229119 217.962171 269.066221 218.745747 272.236526 219.173151 277.633167 219.680695 285.215182 219.759052 292.822131 219.404662 300.413051 219.155343 307.056441 229.484291 307.056441 229.73361 300.413051 230.107589 289.993792 232.28023 273.554518 226.545883 264.097037 221.73758 256.135654 209.520928 256.972757 201.61394 259.07442 183.128685 264.203901 182.487578 287.571537 185.176666 303.173709 186.316412 309.710235 196.271381 306.931766 195.131635 300.430861L195.18506 300.413051zM180.083426 136.465572L193.439824 147.151991C195.493148 149.075546 198.687998 149.075546 200.741322 147.151991 202.522175 145.370921 202.931771 141.595053 200.741322 139.849604L187.384924 129.163185C185.3316 127.23963 182.13675 127.23963 180.083426 129.163185 178.302573 130.944255 177.892977 134.720123 180.083426 136.465572z"/>
      <path fill="#3B301B" d="M480.018265 292.05449C490.432694 291.659092 495.378123 314.218123 502.565646 314.198544 507.286688 314.186064 513.562414 304.431144 520.951174 264.513807 521.346523 259.980984 521.636802 255.444599 521.729406 250.885061 521.935985 242.408949 508.745206 242.068765 508.554655 250.562687 508.506572 252.557485 508.456708 254.550502 508.301774 256.525709L505.949267 256.575579C506.114886 254.174697 506.316123 251.773814 506.569004 249.463767 506.959011 245.910532 503.489909 242.797222 500.143686 242.715252 496.535678 242.702826 493.559872 245.536508 493.396034 249.141393 493.144933 251.415819 492.945478 253.692027 492.801229 255.950423L491.020376 255.907677C491.21805 254.142637 491.428191 252.366911 491.649017 250.578717 492.110258 247.027263 488.516496 243.910391 485.223699 243.830243 481.61569 243.817775 478.639885 246.651457 478.476046 250.256343 478.192891 252.368692 477.963161 254.466792 477.733431 256.580922 476.928485 256.721626 476.141348 256.880142 475.370239 257.076059 475.484213 256.062631 475.633805 255.033172 475.783397 254.021525 476.315872 250.471852 472.59745 247.387039 469.358079 247.273051 465.441983 247.176873 463.141121 250.202911 462.610426 253.699151 461.86603 258.727111 461.550819 263.810284 461.668355 268.891677 461.579312 269.281731 461.527668 269.680691 461.515202 270.081431 461.896304 291.659092 464.982523 297.602523 468.139975 298.318513 471.899356 299.169864 474.321316 292.271781 480.018265 292.05449zM185.817773 381.024272C179.264234 395.415316 166.655794 402.39711 152.961034 410.30506 136.737462 419.673488 121.84953 429.789964 112.108264 446.300482 93.4983489 477.843229 96.8285442 519.858666 114.031585 551.223306 128.420878 577.458465 168.561307 554.037397 154.172014 527.766616 143.575938 508.442009 141.901936 479.41057 156.683017 463.790588 165.177686 454.885238 179.317659 449.274868 190.34114 442.097157 205.015369 432.532812 218.58547 420.724319 225.958202 404.480962 231.158293 393.064304 229.217163 379.545984 217.623809 372.688865 207.633223 366.846956 191.053481 369.554182 185.835582 381.024272L185.817773 381.024272z"/>
      <path fill="#CF4327" d="M274.21932,487.371952 C264.875184,489.063969 256.013659,492.777499 248.254482,498.254289 C250.029993,488.253582 254.022666,478.77829 259.936879,470.523032 C262.625967,466.675921 258.156026,461.884843 254.113489,462.935674 C245.132647,465.19229 236.778665,469.45439 229.680185,475.403163 C229.532374,469.342182 228.476328,463.338196 226.545883,457.592465 C224.551328,451.732745 220.170429,437.644482 212.512761,437.644482 C205.193455,437.644482 201.044067,450.468185 199.013894,456.025123 C196.789609,462.267773 195.587533,468.829234 195.452188,475.456595 C188.348365,469.506041 179.989041,465.24216 171.001075,462.989106 C166.94073,461.938275 162.470789,466.729353 165.177686,470.576464 C171.091899,478.833504 175.082791,488.308795 176.860082,498.307721 C169.100905,492.832713 160.23938,489.119182 150.895244,487.425384 C148.127798,486.73611 145.324736,488.421003 144.635545,491.188785 C143.969506,493.86039 145.517068,496.585427 148.15273,497.381565 C153.103502,499.411985 159.407722,515.299128 161.206383,519.484642 C165.462622,529.423011 165.462622,539.450435 167.06539,549.958747 C169.807904,567.769445 181.988939,577.08444 197.749489,584.226531 C211.729186,590.567139 227.863715,594.360818 241.13107,584.386827 C253.597042,574.982778 258.031366,558.169479 258.547813,543.244113 C259.224537,525.433415 267.452079,509.136626 279.348177,496.045763 C281.360541,493.983284 281.321363,490.679399 279.259135,488.66679 C277.928837,487.36839 276.009078,486.875034 274.21932,487.371952 Z"/>
      <path fill="#3B301B" d="M240.472154,514.462025 C235.49467,513.753159 230.429924,513.970449 225.530797,515.10321 C224.822017,507.601344 222.034982,500.446786 217.481341,494.4428 C215.11993,491.776538 211.047119,491.53075 208.381182,493.890668 C208.187069,494.063432 208.00186,494.246882 207.829117,494.4428 C203.061774,500.683668 200.21597,508.17841 199.637193,516.011556 C195.562601,514.616978 191.258279,514.011414 186.957519,514.230486 C183.395813,514.372971 180.119043,518.629728 182.505386,521.99595 C187.847946,529.494254 188.132882,539.806649 194.09874,546.645957 C198.871426,552.131652 206.279775,553.85929 213.260719,554.233314 C220.241663,554.607339 226.278755,553.004376 230.926782,547.785842 C237.337853,540.554698 236.269341,530.135439 242.787263,523.100213 C245.13799,520.553284 244.550308,515.049778 240.472154,514.462025 Z"/>
      <path fill="#3B301B" d="M466.441041,609.845439 C467.019819,607.09903 465.376091,604.373993 462.678099,603.60457 C460.542856,603.105871 458.332817,603.007912 456.161957,603.317818 C455.998119,602.67129 455.784416,602.037229 455.56181,601.419198 L455.98031,601.185878 C456.413058,600.92406 456.881422,600.721018 457.369376,600.582095 C458.268706,600.350556 459.184065,600.186697 460.108328,600.092301 C462.893582,599.627442 464.378813,596.189977 463.719898,593.746349 C462.886459,591.058715 460.110109,589.478906 457.374718,590.134339 C454.7907,590.536861 452.304629,591.413147 450.041165,592.722234 L449.093751,591.794296 C450.623504,590.342724 452.399015,589.174343 454.336583,588.344364 C456.831558,586.933757 457.714861,583.770577 456.31333,581.271736 C454.854811,578.840575 451.749003,577.973194 449.241562,579.294748 C445.756433,580.853184 442.666653,583.179262 440.205514,586.098435 C438.791516,585.576582 437.329436,585.190089 435.840643,584.946083 C441.124434,571.559562 450.233497,560.451029 464.772382,555.715164 C471.07304,553.645561 468.364363,543.680476 462.038772,545.757203 C442.705831,552.108498 430.635209,567.41145 424.573185,585.909642 C417.837999,580.641237 410.280058,578.080059 402.490607,583.482043 C394.287997,589.181467 392.879343,599.180393 392.18481,608.356465 C348.422126,631.562024 293.27801,625.949873 248.637366,605.227125 C220.952224,592.374925 198.185798,579.700832 178.434356,559.357452 C169.234469,550.204534 161.354194,539.813773 155.023261,528.486169 C149.495493,518.576296 145.844745,507.889877 145.476108,498.457331 C144.532256,468.613725 98.0377434,468.969939 98.988719,498.982747 C100.605734,549.785983 141.139731,596.227379 182.248944,622.213188 C236.18386,656.628801 298.45495,678.165497 362.661827,666.885982 C395.126779,661.163405 425.274841,646.270099 449.54965,623.965761 C452.593128,621.288813 454.844126,617.829975 456.062229,613.963273 C456.589362,613.79229 457.130741,613.669396 457.673902,613.507319 C458.217062,613.345241 458.370215,613.473479 458.721043,613.468135 L459.420918,613.498413 L460.129698,613.656929 C462.925637,614.328392 465.737604,612.629251 466.441041,609.845439 Z M415.424943,592.154072 C411.629945,595.554135 407.617683,598.706628 403.41487,601.588399 C405.012295,594.750872 408.531261,588.495755 415.389326,592.214629 L415.424943,592.154072 Z M457.697053,613.434295 L457.697053,613.434295 C457.289237,613.612402 457.134303,613.523348 457.661436,613.496632 L457.697053,613.434295 Z"/>
      <path fill="#E5A024" d="M223.963646 52.4881283C233.936424 52.4881283 233.954232 36.9928207 223.963646 36.9928207 213.97306 36.9928207 213.97306 52.4881283 223.963646 52.4881283zM236.625512 79.9522253C246.598289 79.9522253 246.616098 64.4569177 236.625512 64.4569177 226.634926 64.4569177 226.634926 79.9522253 236.625512 79.9522253zM194.330251 39.8247217C204.303028 39.8247217 204.320837 24.3294141 194.330251 24.3294141 184.339665 24.3294141 184.339665 39.8247217 194.330251 39.8247217zM140.51287 104.246018C150.485648 104.246018 150.503456 88.7507104 140.51287 88.7507104 130.522285 88.7507104 130.522285 104.246018 140.51287 104.246018zM114.191862 88.4123071C124.164639 88.4123071 124.182448 72.9169995 114.191862 72.9169995 104.201276 72.9169995 104.201276 88.4123071 114.191862 88.4123071zM88.7612797 191.928087C98.734057 191.928087 98.7518655 176.432779 88.7612797 176.432779 78.7706939 176.432779 78.7706939 191.928087 88.7612797 191.928087zM121.511168 269.048411C131.483945 269.048411 131.501754 253.553103 121.511168 253.553103 111.520582 253.553103 111.520582 269.048411 121.511168 269.048411zM94.0504134 299.682812C104.023191 299.682812 104.040999 284.187504 94.0504134 284.187504 84.0598275 284.187504 84.0598275 299.682812 94.0504134 299.682812zM144.466364 284.508097C154.439142 284.508097 154.45695 269.012789 144.466364 269.012789 134.475779 269.012789 134.475779 284.508097 144.466364 284.508097zM140.51287 310.048639C150.485648 310.048639 150.503456 294.553331 140.51287 294.553331 130.522285 294.553331 130.522285 310.048639 140.51287 310.048639zM262.002668 311.295388C271.975446 311.295388 271.993254 295.80008 262.002668 295.80008 252.012082 295.80008 252.012082 311.295388 262.002668 311.295388zM252.475104 348.270398C262.447882 348.270398 262.46569 332.77509 252.475104 332.77509 242.484518 332.77509 242.484518 348.270398 252.475104 348.270398zM286.275696 333.487518C296.248473 333.487518 296.266282 317.99221 286.275696 317.99221 276.28511 317.99221 276.28511 333.487518 286.275696 333.487518zM283.105777 276.439851C293.078555 276.439851 293.096363 260.944543 283.105777 260.944543 273.115192 260.944543 273.115192 276.439851 283.105777 276.439851zM313.736451 298.631981C323.709228 298.631981 323.727036 283.136673 313.736451 283.136673 303.745865 283.136673 303.745865 298.631981 313.736451 298.631981zM312.685747 237.363178C322.658525 237.363178 322.676333 221.867871 312.685747 221.867871 302.695161 221.867871 302.695161 237.363178 312.685747 237.363178zM330.636746 197.217864C340.609524 197.217864 340.627332 181.722556 330.636746 181.722556 320.646161 181.722556 320.646161 197.217864 330.636746 197.217864zM317.957072 152.851414C327.92985 152.851414 327.947658 137.356106 317.957072 137.356106 307.966487 137.356106 307.966487 152.851414 317.957072 152.851414zM307.396614 110.586627C317.369391 110.586627 317.387199 95.091319 307.396614 95.091319 297.406028 95.091319 297.406028 110.586627 307.396614 110.586627zM268.324697 98.9740513C278.297474 98.9740513 278.315283 83.4787436 268.324697 83.4787436 258.334111 83.4787436 258.334111 98.9740513 268.324697 98.9740513zM286.275696 74.6802586C296.248473 74.6802586 296.266282 59.184951 286.275696 59.184951 276.28511 59.184951 276.28511 74.6802586 286.275696 74.6802586zM70.8102806 177.056153C80.7830579 177.056153 80.8008664 161.560846 70.8102806 161.560846 60.8196947 161.560846 60.8196947 177.056153 70.8102806 177.056153zM210.233269 74.6802586C220.206046 74.6802586 220.223855 59.184951 210.233269 59.184951 200.242683 59.184951 200.242683 74.6802586 210.233269 74.6802586z"/>
      <path fill="#574730" d="M172.176438 404.926229C153.067885 420.225619 131.697648 431.036713 119.623464 453.40695 109.40849 472.446587 106.315149 494.503356 110.897284 515.61972 112.945265 525.379983 127.868814 521.247901 125.838641 511.505449 121.826379 492.305516 125.551924 472.298758 136.203206 455.829205 147.582857 438.196614 167.154433 428.685701 183.146493 415.879809 190.928821 409.646064 179.905341 398.745917 172.194247 404.926229L172.176438 404.926229zM232.595441 624.270324C281.453146 643.233375 335.482448 658.151616 385.535105 634.550659 394.578277 630.292121 386.740742 616.914505 377.779489 621.139203 331.926084 642.764953 280.778202 626.453916 236.411809 609.250562 227.146031 605.654582 223.400897 620.695717 232.595441 624.270324L232.595441 624.270324zM352.131643 471.805402C359.709173 471.408223 367.224373 470.214907 374.552584 468.243262 384.16919 465.62509 380.091037 450.681914 370.438813 453.300086 364.465832 454.947576 358.334354 455.955661 352.149452 456.310094 342.2301 456.862226 342.176674 472.339723 352.149452 471.805402L352.131643 471.805402zM119.854975 148.91525C106.176242 169.098333 105.398009 195.372676 117.860419 216.328743 122.918042 224.9135 136.310057 217.130225 131.234626 208.509847 121.609115 192.373354 122.390909 172.081625 133.229181 156.734146 138.874486 148.487793 125.446853 140.704518 119.854975 148.91525zM370.759366 197.841238C371.614176 197.253485 372.54022 196.701354 373.377221 196.202654 373.715583 196.024547 375.621095 195.08058 375.158074 195.240876 374.695052 195.401173 376.77865 194.670934 377.134821 194.56407 378.132098 194.261288 379.129376 194.029749 380.144462 193.816021 384.222616 192.624485 386.598274 188.389101 385.487022 184.287297 384.233301 180.258517 380.050077 177.911067 375.959457 178.944087 371.241978 179.921895 366.763132 181.822296 362.781145 184.536647 359.450949 186.816416 357.616671 191.447198 360.003014 195.223066 362.140038 198.535856 367.019575 200.459411 370.688132 198.001535L370.759366 197.841238zM28.9780415 181.455396C17.758667 183.236466 10.9558082 193.54886 9.38865749 204.199658 7.6078044 216.934307 12.9503637 228.529072 20.1984357 238.68117 25.9505912 246.713795 39.3960321 239.001763 33.5726424 230.862273 28.2300832 223.328348 15.7641116 199.052366 33.020578 196.416383 42.850887 194.902473 38.6658823 179.977108 28.9068074 181.473207L28.9780415 181.455396z"/>
      <path fill="#DB6653" d="M178.81902 70.9043905C186.939711 55.2915323 198.299772 41.5933241 212.138782 30.7234548 217.142979 26.8585333 219.689599 20.7850851 216.305978 14.8185011 213.510039 9.90274834 205.37154 6.82149751 200.40296 10.6507977 183.183891 23.6401401 168.963779 40.18806 158.713189 59.1671403 151.678819 72.3648678 171.731225 84.1021181 178.783403 70.9043905L178.81902 70.9043905zM108.849303 125.262642C112.523202 109.062031 119.420446 93.7662031 129.133219 80.2906286 137.823782 68.0903002 117.682334 56.4777248 109.063005 68.5533783 98.2550075 83.7369988 90.563503 100.910074 86.4283622 119.08233 83.0981669 133.63367 105.48349 139.849604 108.831494 125.262642L108.849303 125.262642zM277.602941 64.4569177L279.544071 86.2215912C279.656265 90.4534132 283.059475 93.8570376 287.290782 93.969245 291.19085 93.969245 295.411472 90.4071053 295.037493 86.2215912L293.096363 64.3678642C292.984169 60.1360422 289.580959 56.7324178 285.349652 56.6202104 281.449584 56.6202104 277.228962 60.1823501 277.602941 64.3678642L277.602941 64.4569177zM83.2228266 298.34701C95.7903068 320.364595 115.162427 337.706872 138.429272 347.771698 152.03499 353.577986 163.895472 333.523139 150.165094 327.699041 130.418995 319.557771 113.91583 305.118637 103.221807 286.62757 95.7244153 273.679192 75.6363924 285.380821 83.1515925 298.36482L83.2228266 298.34701zM206.529095 449.844811C204.49536 454.228024 203.375204 458.978137 203.234516 463.808398 203.07424 468.795394 210.82095 468.795394 210.981227 463.808398 211.072051 460.351342 211.852064 456.949498 213.278528 453.798786 214.322108 451.934006 213.709494 449.57765 211.889462 448.455576 210.033813 447.36378 207.642128 447.981812 206.550465 449.839468 206.548684 449.841249 206.548684 449.84303 206.546903 449.844811L206.529095 449.844811 206.529095 449.844811zM237.070725 486.143014C238.728699 482.52388 241.683135 479.656358 245.351692 478.110389 247.378303 477.490577 248.567913 475.394258 248.058589 473.337122 247.47803 471.278205 245.349911 470.07064 243.285902 470.629896 237.677996 472.724434 233.065586 476.858297 230.374717 482.20685 229.322233 484.07163 229.936628 486.43511 231.763783 487.550059 233.619432 488.641855 236.011117 488.023824 237.10278 486.166168 237.104561 486.164387 237.104561 486.162606 237.106342 486.160825L237.070725 486.143014zM172.63946 477.059558C174.78895 479.579772 176.151303 482.677052 176.557337 485.964907 177.137895 488.023824 179.266015 489.231389 181.330023 488.672133 183.363758 488.061226 184.555148 485.957783 184.03692 483.898866 183.288962 479.319736 181.235638 475.052292 178.124488 471.609484 174.82991 467.851427 169.380499 473.390554 172.63946 477.095179L172.63946 477.059558zM155.721356 502.421993C158.508391 504.940425 160.713087 508.032363 162.185853 511.487638 163.275735 513.345294 165.663859 513.970449 167.523069 512.880435 167.52485 512.878654 167.526631 512.878654 167.528412 512.876873 169.355567 511.761923 169.969961 509.398443 168.917477 507.533663 167.147309 503.467481 164.531236 499.823412 161.242 496.847244 157.555635 493.516643 152.052799 498.966717 155.756973 502.332939L155.721356 502.421993z"/>
      <path fill="#3B301B" d="M502.245093,307.863266 C499.306685,307.863266 496.918561,305.4891 496.902453,302.546772 C496.886506,299.59554 499.267506,297.191095 502.216599,297.176847 C504.668834,297.164379 513.184873,296.592656 519.825674,289.760472 C527.58307,281.779498 526.804838,271.508068 526.567984,269.531081 C526.220718,266.601221 528.31322,263.943865 531.242724,263.594775 C534.168665,263.243904 536.831041,265.338442 537.180088,268.270083 C537.514888,271.091298 538.62436,285.749503 527.488685,297.208906 C518.210441,306.75544 506.763117,307.840112 502.273586,307.863266 C502.262901,307.863266 502.253997,307.863266 502.245093,307.863266 Z"/>
    </g>
    <g transform="rotate(11.971 -491.35 2001.4)">
      <path fill="#EAE2C2" d="M289.872149,30.338373 C282.490598,13.6843245 262.994682,6.16256216 246.327161,13.5394286 C237.341484,17.5157301 230.596451,25.2862517 227.927184,34.7365395 C219.829551,63.6515992 253.015729,87.7325224 277.975944,71.1143773 C291.476276,62.1769952 295.890833,44.9818311 289.872149,30.338373 Z"/>
      <path fill="#3B301B" d="M280.529714,85.4629147 L280.529714,85.3859788 C280.806907,84.6704753 280.774824,83.8716247 280.439882,83.1804842 L244.353444,1.76952471 C243.660461,0.274404557 241.904904,-0.400066457 240.388042,0.243630214 L198.193088,18.8877529 C196.696758,19.5801756 196.021741,21.3343132 196.665959,22.8499496 L201.196013,33.1080639 L70.5944169,90.8868926 L50.3952509,99.8627426 C48.8989213,100.555165 48.2239047,102.309303 48.8681221,103.824939 L52.7180267,112.505868 L15.4124513,128.995787 C13.9161217,129.68821 13.2411051,131.442347 13.8853225,132.957984 L16.5930887,139.074384 L1.77095611,145.639578 C0.274626527,146.332 -0.400390076,148.086138 0.24382729,149.601774 L6.83999713,164.47604 C7.53297996,165.97116 9.28853645,166.645631 10.8053988,166.001934 L25.6788635,159.436741 L28.3866298,165.553142 C29.0796126,167.048262 30.8351691,167.722733 32.3520315,167.079036 L69.6704398,150.563472 L73.5203444,159.244402 C74.2133272,160.739522 75.9688837,161.413993 77.4857461,160.770296 L220.689363,97.4007952 L228.222343,94.066908 L232.752398,104.325022 C233.445381,105.820142 235.200937,106.494613 236.717799,105.850917 L278.951253,87.1555035 C279.658352,86.8682763 280.215305,86.3027978 280.491215,85.5911411 L280.529714,85.4629147 Z"/>
      <path fill="#E5A024" d="M70.5302519 145.190785L57.6202385 116.070563C56.0546107 112.531514 50.5492471 114.967816 52.127708 118.506865L65.0377213 147.627087C66.6033492 151.166137 72.1087127 148.729835 70.5302519 145.190785zM25.4863683 153.999941L20.5456574 142.844241C18.9800296 139.305192 13.474666 141.741494 15.0531269 145.280544L19.9938378 156.436243C21.5594656 159.975292 27.0648292 157.53899 25.4863683 153.999941zM227.465195 87.5914734L204.943254 36.8394529C203.377626 33.3004035 197.872262 35.7367056 199.450723 39.2757551L222.023997 90.0277755C223.589625 93.5668249 229.094988 91.1305228 227.516528 87.5914734L227.465195 87.5914734 227.465195 87.5914734zM271.674933 80.2569217L240.092883 9.00149529C238.527255 5.46244586 233.021891 7.898748 234.600352 11.4377974L266.182403 82.6932238C267.74803 86.2322732 273.253394 83.7959711 271.674933 80.2569217L271.674933 80.2569217z"/>
      <path fill="#574730" d="M83.6327605 107.22294C118.778539 92.3743192 153.585527 76.765316 188.055006 60.3946479 194.33035 57.4197947 188.850653 48.1233786 182.613807 51.0854092 148.144328 67.4560773 113.332208 83.0650804 78.178729 97.9137009 71.7622213 100.606456 77.2932509 109.902872 83.6199274 107.22294L83.6327605 107.22294 83.6327605 107.22294zM215.99248 29.8639352L221.793003 28.184169C224.698397 27.5020044 226.500153 24.5976758 225.817436 21.6946295 225.13472 18.7915831 222.226759 16.9912841 219.322647 17.6734487 219.186617 17.7055053 219.051871 17.7426909 218.918407 17.7850056L213.117884 19.4647719C210.21249 20.1469365 208.410734 23.0512651 209.093451 25.9543114 209.776167 28.8573578 212.684129 30.6576568 215.58824 29.9754922 215.72427 29.9434356 215.859016 29.9062499 215.99248 29.8639352z"/>
    </g>
  </g>
</svg>
