<svg xmlns="http://www.w3.org/2000/svg" viewBox="0 0 100 100">
  <path fill="#a3a3cd" d="M85 69H18c-2.75 0-5-2.25-5-5V21c0-2.75 2.25-5 5-5h67c2.75 0 5 2.25 5 5v43c0 2.75-2.25 5-5 5z"/>
  <path fill="#1f212b" d="M85 70H18c-3.309 0-5.859-2.707-5.859-6.016L12 21c0-3.309 2.691-6 6-6h67c3.309 0 6 2.691 6 6v43c0 3.308-2.692 6-6 6zM18 17c-2.206 0-4 1.794-4 4v43c0 2.206 1.794 4 4 4h67c2.206 0 4-1.794 4-4l.125-43.016C89.125 18.778 87.205 17 85 17H18z"/>
  <path fill="#d0d0e3" d="M87 26.5V54H17V23h70v3.5z"/>
  <path fill="#fefdef" d="M18.501 68H84.55c2.679 0 4.45-1.692 4.45-4.112L89.008 57H13.999l.01 6.888C14.01 66.308 15.822 68 18.501 68z"/>
  <path fill="#ceccbe" d="M68.732 79h-1.849c-2.686 0-4.884-1.759-4.884-3.91v-5.504c0-.201.038-.394.074-.586H40.925c.037.193.074.386.074.586v5.536c0 2.133-2.257 3.877-5.016 3.877h-.212c-1.326 0-2.412 1.125-2.412 2.5s1.085 2.5 2.412 2.5H68.73c1.326 0 2.412-1.125 2.412-2.5S70.059 79 68.732 79z"/>
  <path fill="#1f212b" d="M68.732 85H35.773c-1.881 0-3.412-1.57-3.412-3.5s1.53-3.5 3.412-3.5h.211c2.177 0 4.141-1.336 4.141-2.896v-5.535c0-.137-.156-.249-.182-.38l2.443-.457h18l2.67.457c-.026.134-.057.263-.057.397v5.504c0 1.577 1.778 2.909 3.884 2.909h1.849c1.881 0 3.412 1.57 3.412 3.5S70.613 85 68.732 85zm-32.959-5c-.778 0-1.412.673-1.412 1.5s.633 1.5 1.412 1.5h32.959c.778 0 1.412-.673 1.412-1.5s-.633-1.5-1.412-1.5h-1.849c-3.244 0-5.758-2.202-5.758-4.909V70H42v5.122C42 77.811 39.301 80 35.984 80h-.211zM90.5 56.996h-77a.496.496 0 110-.992h77a.496.496 0 110 .992z"/>
  <path fill="#ceccbe" d="M52 59.5a2.5 2.5 0 10-.006 5H52a2.5 2.5 0 10.006-5H52z"/>
  <path fill="#1f212b" d="M52 64.996A3 3 0 0149.004 62 3 3 0 0152 59.004 3 3 0 0154.996 62 3 3 0 0152 64.996zm0-5c-1.105 0-2.004.899-2.004 2.004s.899 2.004 2.004 2.004 2.004-.899 2.004-2.004-.899-2.004-2.004-2.004zM52.532 20h-2.064a.47.47 0 01-.468-.468v-.064a.47.47 0 01.468-.468h2.064a.47.47 0 01.468.468v.064a.47.47 0 01-.468.468zM49.5 79h-13a.5.5 0 000 1h13a.5.5 0 000-1zM53.5 79h-2a.5.5 0 000 1h2a.5.5 0 000-1zM86.532 26h-.064a.47.47 0 00-.468.468V53H17v-2.532a.47.47 0 00-.468-.468h-.064a.47.47 0 00-.468.468V54h71V26.468a.47.47 0 00-.468-.468zM16.468 39h.064a.47.47 0 00.468-.468V23h67.532a.47.47 0 00.468-.468v-.064a.47.47 0 00-.468-.468H16v16.532a.47.47 0 00.468.468zM16 46.532v-3.064a.47.47 0 01.468-.468h.064a.47.47 0 01.468.468v3.064a.47.47 0 01-.468.468h-.064a.47.47 0 01-.468-.468z"/>
  <path fill="#78a2d2" d="M73.484 49c-.17-5.809-3.263-10.644-7.428-12.072h-5.112C56.78 38.356 53.686 43.191 53.516 49h19.968z"/>
  <path fill="#ead6c7" d="M63.5 25.5a6 6 0 100 12 6 6 0 000-12z"/>
  <path fill="#1f212b" d="M53.5 50a.5.5 0 01-.5-.5c0-6.109 3.2-11.474 7.782-13.045a.5.5 0 01.324.946C56.922 38.836 54 43.811 54 49.5a.5.5 0 01-.5.5zm20 0a.5.5 0 01-.5-.5c0-5.689-2.922-10.664-7.106-12.099a.5.5 0 01.324-.946C70.8 38.026 74 43.391 74 49.5a.5.5 0 01-.5.5z"/>
  <path fill="#1f212b" d="M63.5 38c-3.584 0-6.5-2.916-6.5-6.5s2.916-6.5 6.5-6.5 6.5 2.916 6.5 6.5-2.916 6.5-6.5 6.5zm0-12c-3.033 0-5.5 2.467-5.5 5.5s2.467 5.5 5.5 5.5 5.5-2.467 5.5-5.5-2.467-5.5-5.5-5.5z"/>
  <g>
    <path fill="#78a1d1" d="M30.5 26.5h12v5h-12z"/>
    <path fill="#1f212b" d="M42.5 32h-12a.5.5 0 01-.5-.5v-5a.5.5 0 01.5-.5h12a.5.5 0 01.5.5v5a.5.5 0 01-.5.5zM31 31h11v-4H31v4z"/>
  </g>
  <g>
    <path fill="#78a1d1" d="M30.5 35.5h12v5h-12z"/>
    <path fill="#1f212b" d="M42.5 41h-12a.5.5 0 01-.5-.5v-5a.5.5 0 01.5-.5h12a.5.5 0 01.5.5v5a.5.5 0 01-.5.5zM31 40h11v-4H31v4z"/>
  </g>
  <g>
    <path fill="#78a1d1" d="M30.5 44.5h12v5h-12z"/>
    <path fill="#78a1d1" d="M30.5 44.5h12v5h-12z"/>
    <path fill="#1f212b" d="M42.5 50h-12a.5.5 0 01-.5-.5v-5a.5.5 0 01.5-.5h12a.5.5 0 01.5.5v5a.5.5 0 01-.5.5zM31 49h11v-4H31v4z"/>
  </g>
</svg>
