<svg xmlns="http://www.w3.org/2000/svg" fill="#767676" viewBox="0 0 100 100">
  <path d="M50 12c-15.452 0-28 12.548-28 28 0 8.563 6.891 20.266 13.678 30.068 6.786 9.803 13.568 17.588 13.568 17.588a1 1 0 001.508 0s6.782-7.785 13.568-17.588C71.11 60.266 78 48.563 78 40c0-15.452-12.548-28-28-28zm0 2c14.372 0 26 11.628 26 26 0 7.438-6.609 19.234-13.322 28.932C56.567 77.758 51.048 84.215 50 85.434c-1.049-1.22-6.567-7.676-12.678-16.502C30.61 59.234 24 47.437 24 40c0-14.372 11.628-26 26-26zm0 5c-11.592 0-21 9.408-21 21s9.408 21 21 21c11.42 0 20.7-9.134 20.975-20.488a.5.5 0 10-1-.024c-.153 6.306-3.225 11.871-7.905 15.432a6.196 6.196 0 00-3.277-2.973 1 1 0 00-.053-.02l-4.02-1.316c-.002 0-.48-.236-.624-.838.695-.439 1.432-.904 2.146-1.71.867-.979 1.584-2.24 1.686-3.682.544-.358.98-.826 1.148-1.36a76.623 76.623 0 00.772-2.646c.037-.14.069-.261.093-.367.025-.106.059-.063.059-.4 0-.559-.24-1.144-.55-1.442a1 1 0 00-.003-.002c-.123-.117-.08-.07-.093-.08l-.038-.03c-.026-.019-.058-.04-.095-.068L59 38.824V36c0-4.959-4.041-9-9-9s-9 4.041-9 9v2.824l-.22.162-.096.069-.038.029c-.012.01.03-.037-.093.08-.316.3-.553.886-.553 1.443 0 .338.034.295.059.4.024.107.056.228.093.368a76.646 76.646 0 00.771 2.646c.169.535.605 1.002 1.15 1.36.101 1.442.818 2.701 1.685 3.68.714.806 1.451 1.273 2.146 1.712a1.298 1.298 0 01-.625.838h-.002l-4.017 1.317a1 1 0 00-.053.02 6.201 6.201 0 00-3.28 2.976C33.118 52.272 30 46.51 30 40c0-11.052 8.948-20 20-20 3.351 0 6.498.832 9.268 2.291a.5.5 0 10.464-.885A20.818 20.818 0 0050 19zm12.107 3.996a.5.5 0 00-.267.906 20.165 20.165 0 013.98 3.903.5.5 0 10.791-.61 21.162 21.162 0 00-4.175-4.097.5.5 0 00-.329-.102zM50 29c3.877 0 7 3.123 7 7v3.334a1 1 0 00.414.81 260.273 260.273 0 00.576.42c-.016.07-.041.172-.074.295a84.583 84.583 0 01-.746 2.557 1 1 0 00-.002.006c-.07.222-.13.335-.457.433a1 1 0 00-.711.958v.271c0 .838-.515 1.814-1.256 2.65-.741.837-1.696 1.518-2.193 1.768a1 1 0 00-.551.893v.152c0 2.093 2.006 2.933 2.006 2.933a1 1 0 00.047.016l4.015 1.316a4.175 4.175 0 012.317 2.256A19.853 19.853 0 0150 60a19.883 19.883 0 01-10.383-2.928 4.174 4.174 0 012.315-2.26l.002-.001 4.013-1.315a1 1 0 00.047-.016S48 52.64 48 50.547v-.152a1 1 0 00-.55-.893c-.498-.25-1.453-.93-2.194-1.768-.742-.836-1.256-1.812-1.256-2.65v-.272a1 1 0 00-.71-.957c-.326-.098-.389-.213-.458-.433a1 1 0 00-.002-.006 84.606 84.606 0 01-.746-2.557 10.419 10.419 0 01-.074-.295l.209-.152.367-.267a1 1 0 00.414-.811V36c0-3.877 3.123-7 7-7zm18.148.994a.5.5 0 00-.441.738c.49.936.91 1.912 1.25 2.926a.5.5 0 10.947-.316 20.94 20.94 0 00-1.31-3.074.5.5 0 00-.446-.274zM42.004 40.568c-.003-.056-.004-.166-.004.04 0-.033-.004-.017-.006-.032l.01-.008zm15.992 0l.01.008c-.002.015-.006-.001-.006.031 0-.205-.001-.095-.004-.039z"/>
</svg>
