<svg xmlns="http://www.w3.org/2000/svg" viewBox="0 0 100 100">
  <path fill="#a6785f" d="M56.319 38.119L77 59l.441 1.976 3.266-3.267-.707-.707 2.121-2.121a3 3 0 00.866-1.862l-.012-.002.015-.015c0 .006-.002.011-.003.017L83 53h7V25H65.563l-9.244 13.119z"/>
  <path fill="#ead6c7" d="M48.817 29.684A15.997 15.997 0 0037.501 25H10v28h10.636a6.007 6.007 0 014.24 1.763l24.252 24.244-.004.004 2.745 2.745c.016.016.035.026.051.042l.702.702.103-.099c.662.39 1.402.6 2.148.6a4.234 4.234 0 003.005-1.245c1.355-1.355 1.585-3.389.728-4.996l.284-.272a4.243 4.243 0 001.983.513 4.234 4.234 0 003.818-6.078l.363-.348a4.248 4.248 0 001.818.426 4.245 4.245 0 003.904-5.916l.442-.424a4.234 4.234 0 004.658-.905 4.245 4.245 0 00.968-4.491L61.012 42.812l.543-.65L50 29.577l-1.183.107z"/>
  <path fill="#a6785f" d="M67 25h-4.376a15.997 15.997 0 00-11.316 4.684L38.894 42.097A3.03 3.03 0 0038 44.252a2.913 2.913 0 001.348 2.465C40.4 47.387 41.827 48 44 48c3.922 0 7-.998 11-4.998l4-4L67 39V25z"/>
  <path fill="#1f212b" d="M66.75 72.002a5.213 5.213 0 01-3.712-1.538l-2.746-2.757a.999.999 0 111.416-1.411l2.745 2.755c1.225 1.225 3.368 1.226 4.595-.001.614-.613.952-1.43.952-2.298s-.338-1.685-.952-2.298l-2.754-2.743a1 1 0 011.412-1.417l2.755 2.745c.993.992 1.539 2.311 1.539 3.713s-.546 2.721-1.538 3.712a5.213 5.213 0 01-3.712 1.538z"/>
  <path fill="#1f212b" d="M60.75 78.002a5.213 5.213 0 01-3.712-1.538l1.414-1.414c1.227 1.228 3.369 1.228 4.596 0 .614-.613.952-1.43.952-2.298s-.338-1.685-.952-2.298l1.414-1.414c.992.991 1.538 2.31 1.538 3.712s-.546 2.721-1.538 3.712a5.213 5.213 0 01-3.712 1.538z"/>
  <path fill="#1f212b" d="M54.75 84.001a5.213 5.213 0 01-3.712-1.538l-2.745-2.745a.999.999 0 111.414-1.414l2.745 2.745c1.227 1.228 3.369 1.228 4.596 0 .614-.613.952-1.429.952-2.298s-.338-1.685-.952-2.298l-2.754-2.743a1 1 0 011.412-1.417l2.755 2.744c.993.993 1.539 2.312 1.539 3.714s-.546 2.721-1.538 3.712a5.209 5.209 0 01-3.712 1.538z"/>
  <circle cx="27" cy="61.002" r="4" fill="#a6785f"/>
  <circle cx="33" cy="67.002" r="4" fill="#a6785f"/>
  <circle cx="39" cy="73.002" r="4" fill="#a6785f"/>
  <circle cx="45" cy="79.002" r="4" fill="#a6785f"/>
  <path fill="#1f212b" d="M27 66.002c-1.336 0-2.591-.52-3.535-1.464S22 62.338 22 61.002c0-1.335.521-2.591 1.465-3.535.943-.944 2.199-1.465 3.535-1.465s2.591.52 3.535 1.465A4.968 4.968 0 0132 61.002c0 1.336-.521 2.591-1.465 3.536S28.336 66.002 27 66.002zm0-8c-.802 0-1.555.312-2.121.879S24 60.201 24 61.002c0 .802.313 1.555.879 2.122 1.133 1.133 3.109 1.133 4.242 0A2.98 2.98 0 0030 61.002c0-.801-.313-1.554-.879-2.121A2.976 2.976 0 0027 58.002z"/>
  <path fill="#1f212b" d="M33 72.002c-2.757 0-5-2.243-5-5s2.243-5 5-5 5 2.243 5 5-2.243 5-5 5zm0-8c-1.654 0-3 1.346-3 3s1.346 3 3 3 3-1.346 3-3-1.346-3-3-3z"/>
  <path fill="#1f212b" d="M39 78.002c-2.757 0-5-2.243-5-5s2.243-5 5-5 5 2.243 5 5-2.243 5-5 5zm0-8c-1.654 0-3 1.346-3 3s1.346 3 3 3 3-1.346 3-3-1.346-3-3-3z"/>
  <path fill="#1f212b" d="M45 84.002c-2.757 0-5-2.243-5-5s2.243-5 5-5 5 2.243 5 5-2.243 5-5 5zm0-8c-1.654 0-3 1.346-3 3s1.346 3 3 3 3-1.346 3-3-1.346-3-3-3zM82.5 53.502a.5.5 0 01-.5-.5v-5.5a.5.5 0 011 0v5.5a.5.5 0 01-.5.5zM82.5 46.002a.5.5 0 01-.5-.5v-1a.5.5 0 011 0v1a.5.5 0 01-.5.5zM63.5 58.002a.502.502 0 01-.354-.146l-5-5a.5.5 0 01.707-.707l5 5a.5.5 0 01-.353.853zM56.5 51.002a.502.502 0 01-.354-.146l-2-2a.5.5 0 01.707-.707l2 2a.5.5 0 01-.353.853zM57.5 64.002a.502.502 0 01-.354-.146l-3-3a.5.5 0 01.707-.707l3 3a.5.5 0 01-.353.853zM51.5 70.002a.502.502 0 01-.354-.146l-6-6a.5.5 0 01.707-.707l6 6a.5.5 0 01-.353.853zM49.5 56.002a.502.502 0 01-.354-.146l-1-1a.5.5 0 01.707-.707l1 1a.5.5 0 01-.353.853zM52.5 59.002a.502.502 0 01-.354-.146l-1-1a.5.5 0 01.707-.707l1 1a.5.5 0 01-.353.853zM72.75 66.002a5.213 5.213 0 01-3.712-1.538 1 1 0 111.414-1.415c1.227 1.228 3.369 1.228 4.596 0 .614-.612.952-1.429.952-2.297s-.338-1.685-.952-2.298l-14.75-14.75a.999.999 0 111.414-1.414l14.75 14.75c.992.991 1.538 2.31 1.538 3.712s-.546 2.721-1.538 3.712a5.213 5.213 0 01-3.712 1.538zM50.011 32.002a.997.997 0 01-.707-.293l-1.318-1.318A14.907 14.907 0 0037.378 26H10a1 1 0 110-2h27.378c4.543 0 8.812 1.768 12.021 4.977l1.318 1.318a.999.999 0 01-.706 1.707z"/>
  <path fill="#1f212b" d="M44 49.002c-1.996 0-3.646-.458-5.189-1.442A3.909 3.909 0 0137 44.255a4.007 4.007 0 011.188-2.865l12.413-12.413A16.888 16.888 0 0162.622 24H90a1 1 0 110 2H62.622c-4.009 0-7.775 1.56-10.607 4.391L39.602 42.805c-.39.389-.603.902-.602 1.445a1.92 1.92 0 00.885 1.624c.761.485 2.015 1.129 4.115 1.129 3.538 0 6.356-.77 10.293-4.707l4-4.002A.992.992 0 0159 38h8a1 1 0 110 2h-7.586l-3.707 3.709C51.314 48.102 47.85 49.002 44 49.002zM27 58.002a.996.996 0 01-.706-.292l-2.248-2.239A5.04 5.04 0 0020.512 54H10a1 1 0 110-2h10.512c1.838 0 3.641.75 4.947 2.056l2.247 2.237A1 1 0 0127 58.002zM80 58.002a.999.999 0 01-.707-1.707l2.121-2.121c.335-.335.541-.781.579-1.253a1 1 0 01.801-.899c.064-.014.141-.022.206-.022h7a1 1 0 110 2h-6.197a3.985 3.985 0 01-.975 1.587l-2.121 2.122a.997.997 0 01-.707.293z"/>
</svg>
