<svg xmlns="http://www.w3.org/2000/svg" fill="#767676" viewBox="0 0 100 100">
  <path d="M34.96 13.268c-3.308 0-6 2.69-6 6v61c0 3.309 2.692 6 6 6h29c3.309 0 6-2.692 6-6v-51h.75c.69 0 1.25-.561 1.25-1.25v-5.5c0-.69-.56-1.25-1.25-1.25h-.75v-2c0-3.31-2.69-6-6-6h-29zm0 2h29c2.207 0 4 1.794 4 4v61c0 2.206-1.793 4-4 4h-29c-2.205 0-4-1.794-4-4v-61c0-2.206 1.795-4 4-4zm10.454 3.002a.453.453 0 00-.453.453v.091c0 .25.203.454.453.454h8.092c.25 0 .456-.205.455-.454v-.091a.455.455 0 00-.455-.453h-8.092zm-10.953 3.998a.5.5 0 00-.5.5v31a.5.5 0 001 0v-30.5h25.5a.5.5 0 000-1h-26zm30 0a.5.5 0 00-.5.5v3a.5.5 0 001 0v-3a.5.5 0 00-.5-.5zm5.5 0h.75c.136 0 .25.114.25.25v5.5c0 .136-.114.25-.25.25h-.75v-6zm-31.354 4c-.908 0-1.646.737-1.646 1.644v3.71c0 .907.738 1.646 1.646 1.646h3.707a1.65 1.65 0 001.647-1.647v-3.709c0-.908-.739-1.644-1.647-1.644h-3.707zm9 0c-.908 0-1.646.737-1.646 1.644v3.71c0 .907.738 1.646 1.646 1.646h3.707a1.65 1.65 0 001.647-1.647v-3.709c0-.908-.739-1.644-1.647-1.644h-3.707zm9 0c-.908 0-1.646.737-1.646 1.644v3.71c0 .907.738 1.646 1.646 1.646h3.707a1.65 1.65 0 001.647-1.647v-3.709c0-.908-.739-1.644-1.647-1.644h-3.707zm-18 1h3.707c.356 0 .647.291.647.646v3.709c0 .356-.29.647-.647.647h-3.707a.648.648 0 01-.646-.647v-3.709c0-.356.29-.646.646-.646zm9 0h3.707c.356 0 .647.291.647.646v3.709c0 .356-.29.647-.647.647h-3.707a.648.648 0 01-.646-.647v-3.709c0-.356.29-.646.646-.646zm9 0h3.707c.356 0 .647.291.647.646v3.709c0 .356-.29.647-.647.647h-3.707a.648.648 0 01-.646-.647v-3.709c0-.356.29-.646.646-.646zm7.954.013a.478.478 0 00-.29.028.347.347 0 00-.16.109.47.47 0 00-.15.35c0 .13.05.26.15.35.04.048.1.09.16.11.06.03.12.04.19.04a.47.47 0 00.35-.15c.1-.09.15-.22.15-.35a.47.47 0 00-.15-.35.473.473 0 00-.25-.137zm-.1 3.987a.5.5 0 00-.5.5v40.5h-29v-8.5a.5.5 0 00-1 0v9a.5.5 0 00.5.5h30a.5.5 0 00.5-.5v-41a.5.5 0 00-.5-.5zm-25.854 4c-.908 0-1.646.737-1.646 1.644v3.71c0 .907.738 1.646 1.646 1.646h3.707a1.65 1.65 0 001.647-1.647v-3.709c0-.908-.739-1.644-1.647-1.644h-3.707zm9 0c-.908 0-1.646.737-1.646 1.644v3.71c0 .907.738 1.646 1.646 1.646h3.707a1.65 1.65 0 001.647-1.647v-3.709c0-.908-.739-1.644-1.647-1.644h-3.707zm9 0c-.908 0-1.646.737-1.646 1.644v3.71c0 .907.738 1.646 1.646 1.646h3.707a1.65 1.65 0 001.647-1.647v-3.709c0-.908-.739-1.644-1.647-1.644h-3.707zm-18 1h3.707c.356 0 .647.291.647.646v3.709c0 .356-.29.647-.647.647h-3.707a.648.648 0 01-.646-.647v-3.709c0-.356.29-.646.646-.646zm9 0h3.707c.356 0 .647.291.647.646v3.709c0 .356-.29.647-.647.647h-3.707a.648.648 0 01-.646-.647v-3.709c0-.356.29-.646.646-.646zm9 0h3.707c.356 0 .647.291.647.646v3.709c0 .356-.29.647-.647.647h-3.707a.648.648 0 01-.646-.647v-3.709c0-.356.29-.646.646-.646zm-22.146 23a.5.5 0 00-.5.5v2a.5.5 0 001 0v-2a.5.5 0 00-.5-.5zm14.5 16c-1.654 0-3 1.346-3 3s1.346 3 3 3 3-1.346 3-3-1.346-3-3-3zm0 1c1.103 0 2 .897 2 2s-.897 2-2 2-2-.897-2-2 .897-2 2-2z"/>
</svg>
