<svg xmlns="http://www.w3.org/2000/svg" viewBox="0 0 100 100"><path fill="#eaa871" d="M82,78c-0.545,0-1.061,0.109-1.552,0.271C79.384,75.761,76.898,74,74,74 c-0.503,0-0.993,0.056-1.466,0.156C71.343,70.581,67.976,68,64,68c-2.105,0-4.037,0.728-5.57,1.939C56.412,67.533,53.386,66,50,66 s-6.412,1.533-8.43,3.939C40.037,68.728,38.105,68,36,68c-3.976,0-7.343,2.581-8.534,6.156C26.993,74.056,26.503,74,26,74 c-2.898,0-5.384,1.761-6.448,4.271C19.061,78.109,18.545,78,18,78c-2.761,0-5,2.239-5,5s2.239,5,5,5c1.422,0,62.578,0,64,0 c2.761,0,5-2.239,5-5S84.761,78,82,78z"/><path fill="#a0d2a1" d="M41.5,46.5c0,0,3.5-3.248,3.5-7.5c0-3.307-1.862-8-12.103-8C23.121,31,18,35.005,18,35.005 C22.357,37.769,21.293,55,32,55C39.914,55,41.5,46.5,41.5,46.5z"/><path fill="#8cc78c" d="M41.365,46.5C34.865,37.49,23.586,35.005,18,35.005C22.357,37.769,21.293,55,32,55 c7.914,0,9.5-8.5,9.5-8.5H41.365z"/><path fill="#a0d2a1" d="M66.68,36c7.68,0,14.107,4.899,16.32,6.417C77.72,44.803,77.14,57,68.5,57c-7,0-7.5-9.5-7.5-9.5 s-2-1.477-2-4.818C59,39.341,61.4,36,66.68,36z"/><path fill="#a0d2a1" d="M53.001,19.5c0,4.5,3.499,5.5,3.499,5.5s1.5,4,6,4C69,29,69,22.559,69,18.5c0-2.5,0.133-5.263,1-6.5 C54.5,12,53.001,17.762,53.001,19.5z"/><path fill="#8cc78c" d="M65.771,14.241c-5.149,3.077-8.383,6.961-9.494,10.211L56.5,25l0.238,0.501 C57.308,26.571,58.988,29,62.5,29C69,29,69,22.559,69,18.5c0-1.937,0.08-4.032,0.519-5.453c0.128-0.413,0.148-0.418,0.148-0.418 S67.675,13.173,65.771,14.241z"/><path fill="#8cc78c" d="M61.042,47.96C61.247,49.849,62.424,57,68.5,57c8.55,0,9.21-11.937,14.339-14.499 C71.972,42.509,65.55,43.304,61.042,47.96z"/><g><path fill="#1f212b" d="M32,56c-7.545,0-9.748-7.453-11.518-13.442c-0.897-3.034-1.744-5.901-3.019-6.709 c-0.274-0.174-0.446-0.471-0.463-0.795c-0.016-0.325,0.127-0.637,0.383-0.837C17.604,34.045,22.892,30,32.896,30 C44.298,30,46,35.639,46,39c0,4.024-2.761,7.157-3.592,8.008C41.994,48.656,39.714,56,32,56z M19.615,35.155 c1.215,1.525,1.955,4.029,2.785,6.836C24.063,47.62,25.949,54,32,54c6.971,0,8.457-7.372,8.518-7.686 c0.039-0.208,0.146-0.401,0.301-0.546C40.851,45.738,44,42.75,44,39c0-4.58-3.84-7-11.104-7C26.011,32,21.499,34.074,19.615,35.155 z"/><path fill="#1f212b" d="M68.5,58c-6.052,0-8.151-6.331-8.47-10.028c-0.678-0.673-2.03-2.38-2.03-5.291 c0-3.7,2.716-7.682,8.68-7.682c7.459,0,13.703,4.367,16.369,6.232l0.517,0.359c0.298,0.204,0.463,0.553,0.431,0.913 c-0.032,0.359-0.255,0.674-0.584,0.823c-1.829,0.827-3.118,3.257-4.482,5.83C76.731,53.302,74.239,58,68.5,58z M66.68,37 C61.749,37,60,40.061,60,42.682c0,2.759,1.578,4.002,1.594,4.014c0.24,0.177,0.389,0.453,0.405,0.75 C62.018,47.795,62.538,56,68.5,56c4.536,0,6.634-3.955,8.662-7.78c1.216-2.291,2.378-4.481,4.033-5.84 C78.391,40.449,72.933,37,66.68,37z"/><path fill="#1f212b" d="M62.5,30c-4.236,0-6.155-3.036-6.737-4.204c-1.513-0.643-3.762-2.546-3.762-6.296 c0-1.419,0.868-8.5,17.999-8.5c0.373,0,0.715,0.208,0.887,0.539c0.173,0.331,0.146,0.73-0.068,1.036C70,13.742,70,17.323,70,18.5 C70,22.519,70,30,62.5,30z M68.489,13.019C54.42,13.385,54.001,18.857,54.001,19.5c0,3.703,2.746,4.531,2.773,4.539 c0.305,0.087,0.551,0.313,0.662,0.61C57.487,24.781,58.774,28,62.5,28c5.079,0,5.5-4.494,5.5-9.5 C68,16.6,68.071,14.567,68.489,13.019z"/><path fill="#1f212b" d="M51,65h-2c0-14.596,11.619-17.933,11.737-17.965l0.525,1.93C60.847,49.081,51,51.971,51,65z"/><path fill="#1f212b" d="M49,65c0-0.125-0.109-12.528-8.043-17.661l1.086-1.68C50.898,51.389,51,64.447,51,65L49,65z"/><path fill="#1f212b" d="M40.959,46.792C34.531,37.882,23.503,35.505,18,35.505v-1c5.693,0,17.105,2.465,23.77,11.703 L40.959,46.792z"/><path fill="#1f212b" d="M61.36,48.347l-0.721-0.693C65.232,42.875,71.773,42,83,42v1C72.056,43,65.704,43.827,61.36,48.347z"/><path fill="#1f212b" d="M36.5,41.964c-0.276,0-0.5-0.224-0.5-0.5c0-3.933,3.165-5.363,3.3-5.422 c0.252-0.11,0.546,0.005,0.657,0.256c0.11,0.252-0.004,0.547-0.255,0.659C39.592,37.006,37,38.199,37,41.464 C37,41.74,36.776,41.964,36.5,41.964z"/><path fill="#1f212b" d="M68.509,44.241c-0.161,0-0.319-0.078-0.416-0.223c-0.153-0.23-0.091-0.54,0.139-0.693 c1.666-1.11,1.768-3.812,1.769-3.839c0.009-0.276,0.226-0.491,0.515-0.485c0.275,0.008,0.493,0.238,0.485,0.514 c-0.004,0.131-0.114,3.243-2.214,4.643C68.701,44.213,68.604,44.241,68.509,44.241z"/><path fill="#1f212b" d="M61.5,18.303c-0.276,0-0.5-0.224-0.5-0.5V15.5c0-0.276,0.224-0.5,0.5-0.5s0.5,0.224,0.5,0.5v2.303 C62,18.08,61.776,18.303,61.5,18.303z"/><path fill="#1f212b" d="M51,66h-2v-7c0-27.597,6.516-34.43,6.793-34.707l1.414,1.414L56.5,25l0.714,0.7 C57.152,25.765,51,32.477,51,59V66z"/><path fill="#1f212b" d="M82,89H18c-3.309,0-6-2.691-6-6s2.691-6,6-6c0.332,0,0.668,0.032,1.015,0.099 c1.533-2.75,4.585-4.385,7.806-4.056C28.389,69.396,31.978,67,36,67c1.951,0,3.81,0.553,5.429,1.607C43.682,66.304,46.756,65,50,65 s6.318,1.304,8.571,3.607C60.19,67.553,62.049,67,64,67c4.022,0,7.611,2.396,9.18,6.043c3.225-0.329,6.272,1.306,7.806,4.056 C81.332,77.032,81.668,77,82,77c3.309,0,6,2.691,6,6S85.309,89,82,89z M18,79c-2.206,0-4,1.794-4,4s1.794,4,4,4h64 c2.206,0,4-1.794,4-4s-1.794-4-4-4c-0.382,0-0.788,0.072-1.241,0.221c-0.495,0.16-1.03-0.082-1.232-0.56 c-1.104-2.607-3.935-4.133-6.784-3.526c-0.489,0.107-0.996-0.178-1.156-0.662C70.495,71.199,67.446,69,64,69 c-1.811,0-3.522,0.596-4.95,1.724c-0.426,0.336-1.04,0.271-1.387-0.142C55.755,68.306,52.962,67,50,67s-5.755,1.306-7.663,3.582 c-0.347,0.414-0.961,0.478-1.387,0.142C39.522,69.596,37.811,69,36,69c-3.446,0-6.495,2.199-7.586,5.472 c-0.16,0.484-0.664,0.77-1.156,0.662c-2.851-0.607-5.68,0.919-6.784,3.526c-0.203,0.479-0.736,0.722-1.232,0.56 C18.788,79.072,18.382,79,18,79z"/><path fill="#1f212b" d="M31.469,78c-0.164,0-0.325-0.081-0.421-0.23C29.934,76.036,28.047,75,26,75 c-0.276,0-0.5-0.224-0.5-0.5S25.724,74,26,74c2.389,0,4.59,1.208,5.89,3.23c0.149,0.232,0.082,0.542-0.15,0.691 C31.655,77.975,31.562,78,31.469,78z"/><path fill="#1f212b" d="M32.474,81c-0.258,0-0.478-0.199-0.497-0.461c-0.024-0.31-0.073-0.621-0.145-0.923 c-0.063-0.269,0.103-0.538,0.371-0.602c0.271-0.064,0.538,0.103,0.602,0.371c0.084,0.353,0.141,0.715,0.168,1.077 c0.021,0.275-0.185,0.516-0.46,0.537C32.5,81,32.487,81,32.474,81z"/><path fill="#1f212b" d="M56.799,73c-0.091,0-0.183-0.024-0.266-0.076c-0.233-0.146-0.305-0.455-0.158-0.689 C58.035,69.583,60.886,68,64,68c0.276,0,0.5,0.224,0.5,0.5S64.276,69,64,69c-2.768,0-5.302,1.408-6.777,3.765 C57.128,72.917,56.965,73,56.799,73z"/><path fill="#1f212b" d="M55.642,76c-0.029,0-0.059-0.002-0.089-0.008c-0.271-0.048-0.453-0.308-0.404-0.58 c0.064-0.36,0.143-0.715,0.249-1.059c0.08-0.265,0.36-0.413,0.624-0.332c0.264,0.081,0.412,0.361,0.331,0.625 c-0.093,0.306-0.163,0.622-0.22,0.941C56.09,75.83,55.879,76,55.642,76z"/><path fill="#1f212b" d="M68.528,78c-0.093,0-0.187-0.025-0.27-0.079c-0.232-0.149-0.301-0.458-0.151-0.691 C69.404,75.208,71.606,74,74,74c0.276,0,0.5,0.224,0.5,0.5S74.276,75,74,75c-2.051,0-3.939,1.036-5.051,2.77 C68.854,77.919,68.692,78,68.528,78z"/><path fill="#1f212b" d="M29.5,40.521c-0.213,0-0.41-0.137-0.478-0.351c-0.082-0.264,0.065-0.544,0.328-0.626 c1.215-0.379,2.534-0.548,4.276-0.548c0.276,0,0.5,0.224,0.5,0.5s-0.224,0.5-0.5,0.5c-2.098,0-3.228,0.269-3.978,0.503 C29.6,40.514,29.549,40.521,29.5,40.521z"/><path fill="#1f212b" d="M26.501,42c-0.146,0-0.288-0.063-0.388-0.183c-0.175-0.213-0.144-0.527,0.069-0.703 c0.016-0.013,0.394-0.322,1.076-0.698c0.239-0.132,0.545-0.046,0.679,0.197c0.134,0.242,0.046,0.546-0.196,0.679 c-0.594,0.327-0.921,0.593-0.924,0.595C26.724,41.962,26.612,42,26.501,42z"/><path fill="#1f212b" d="M68.961,48c-0.153,0-0.306-0.071-0.403-0.205c-1.343-1.837-3.226-2.492-3.244-2.499 c-0.262-0.088-0.402-0.372-0.314-0.633c0.089-0.262,0.375-0.401,0.632-0.315c0.089,0.03,2.196,0.752,3.733,2.857 c0.163,0.223,0.114,0.536-0.108,0.699C69.167,47.969,69.063,48,68.961,48z"/><path fill="#1f212b" d="M70.5,51c-0.225,0-0.429-0.152-0.485-0.379c-0.071-0.286-0.171-0.581-0.314-0.93 c-0.105-0.255,0.016-0.547,0.271-0.653c0.256-0.103,0.548,0.017,0.652,0.272c0.163,0.395,0.278,0.735,0.361,1.07 c0.066,0.268-0.097,0.539-0.364,0.606C70.58,50.995,70.54,51,70.5,51z"/><path fill="#1f212b" d="M57.283,23.888c-0.086,0-0.172-0.021-0.251-0.067c-0.238-0.138-0.32-0.444-0.182-0.683 c1.433-2.473,4.475-2.779,4.604-2.791c0.268-0.027,0.517,0.176,0.543,0.452c0.026,0.274-0.176,0.518-0.45,0.544 c-0.026,0.002-2.661,0.277-3.831,2.296C57.623,23.798,57.455,23.888,57.283,23.888z"/><path fill="#1f212b" d="M63.499,21.037c-0.26,0-0.479-0.202-0.498-0.465c-0.02-0.276,0.188-0.515,0.464-0.534 C63.797,20.015,64.14,20,64.5,20c0.276,0,0.5,0.224,0.5,0.5S64.776,21,64.5,21c-0.337,0-0.656,0.014-0.965,0.036 C63.523,21.037,63.512,21.037,63.499,21.037z"/><path fill="#1f212b" d="M56.5,26c-0.035,0-0.072-0.004-0.108-0.012c-0.27-0.06-0.439-0.327-0.38-0.597 c0.632-2.839,3.566-7.464,9.76-11.151c0.234-0.141,0.543-0.065,0.686,0.174c0.142,0.237,0.063,0.544-0.174,0.686 c-5.92,3.524-8.707,7.863-9.295,10.508C56.937,25.841,56.729,26,56.5,26z"/></g></svg>