<svg xmlns="http://www.w3.org/2000/svg" viewBox="0 0 100 100">
  <path fill="#78cdd4" d="M83 25H50v-2a2 2 0 00-2-2H17a2 2 0 00-2 2v54a2 2 0 002 2h6v-4a2 2 0 012-2h4a2 2 0 012 2v4h38v-4a2 2 0 012-2h4a2 2 0 012 2v4h6a2 2 0 002-2V27a2 2 0 00-2-2z"/>
  <path fill="#fefdef" d="M42.5 63c0-5.532-3.16-10.604-7.445-12h-5.111C25.66 52.397 22.5 57.469 22.5 63h20z"/>
  <path fill="#fefdef" d="M32.5 39.5a6 6 0 100 12 6 6 0 100-12z"/>
  <g fill="#1f212b">
    <path d="M68.5 30h-49a.5.5 0 010-1h49a.5.5 0 010 1zm7 0h-4a.5.5 0 010-1h4a.5.5 0 010 1zm2 12h-27a.5.5 0 010-1h27a.5.5 0 010 1zm-8 7h-19a.5.5 0 010-1h19a.5.5 0 010 1zm8 0h-5a.5.5 0 010-1h5a.5.5 0 010 1zm-8 14h-19a.5.5 0 010-1h19a.5.5 0 010 1zm8 0h-5a.5.5 0 010-1h5a.5.5 0 010 1zm-12-7h-15a.5.5 0 010-1h15a.5.5 0 010 1zm12 0h-2a.5.5 0 010-1h2a.5.5 0 010 1zm-5 0h-4a.5.5 0 010-1h4a.5.5 0 010 1zm8-26h-2a.5.5 0 010-1h2a.5.5 0 010 1z"/>
    <path d="M83 80h-6a1 1 0 01-1-1v-4c0-.551-.448-1-1-1h-4c-.552 0-1 .449-1 1v4a1 1 0 01-1 1H31a1 1 0 01-1-1v-4c0-.551-.448-1-1-1h-4c-.552 0-1 .449-1 1v4a1 1 0 01-1 1h-6c-1.654 0-3-1.346-3-3V23c0-1.654 1.346-3 3-3h31c1.654 0 3 1.346 3 3v1h32c1.654 0 3 1.346 3 3v50c0 1.654-1.346 3-3 3zm-5-2h5c.552 0 1-.449 1-1V27c0-.551-.448-1-1-1H50a1 1 0 01-1-1v-2c0-.551-.448-1-1-1H17c-.552 0-1 .449-1 1v54c0 .551.448 1 1 1h5v-3c0-1.654 1.346-3 3-3h4c1.654 0 3 1.346 3 3v3h36v-3c0-1.654 1.346-3 3-3h4c1.654 0 3 1.346 3 3v3z"/>
    <path d="M22.5 64a.5.5 0 01-.5-.5c0-6.11 3.2-11.474 7.782-13.045a.5.5 0 11.324.946C25.922 52.835 23 57.811 23 63.5a.5.5 0 01-.5.5zm20 0a.5.5 0 01-.5-.5c0-5.69-2.923-10.666-7.107-12.099a.5.5 0 01.324-.946C39.8 52.025 43 57.389 43 63.5a.5.5 0 01-.5.5z"/>
    <path d="M32.5 52c-3.584 0-6.5-2.916-6.5-6.5s2.916-6.5 6.5-6.5 6.5 2.916 6.5 6.5-2.916 6.5-6.5 6.5zm0-12c-3.032 0-5.5 2.467-5.5 5.5s2.468 5.5 5.5 5.5 5.5-2.467 5.5-5.5-2.468-5.5-5.5-5.5z"/>
  </g>
</svg>
