<svg xmlns="http://www.w3.org/2000/svg" fill="#12529e" viewBox="0 0 100 100">
  <path d="M77 15c-3 0-12.442.028-20.707 8.293-2.641 2.641-9.318 10.825-15.447 18.455-.423.526-.704.886-1.12 1.404l-20.953 4.873a1 1 0 00-.574.375l-3 4a1 1 0 00.526 1.56l13.752 3.93 1.306 1.307-2.66 5.32c-3.188.095-5.659 1.343-7.492 3.176-1.907 1.907-3.152 4.414-3.98 6.899C14.993 79.562 15 84.5 15 84.5a.5.5 0 00.5.5s4.938.006 9.908-1.65c2.485-.829 4.992-2.074 6.899-3.98 1.833-1.834 3.081-4.305 3.175-7.493l5.32-2.66 1.307 1.306 3.93 13.752a1 1 0 001.56.526l4-3a1 1 0 00.376-.574l4.873-20.954c.518-.415.878-.696 1.404-1.119 7.63-6.129 15.814-12.806 18.455-15.447C84.972 35.442 85 26 85 23c0-2.567-.255-4.154-.54-5.15a5.346 5.346 0 00-.427-1.094c-.134-.247-.326-.463-.326-.463s-.216-.192-.463-.326a5.346 5.346 0 00-1.094-.428C81.154 15.255 79.567 15 77 15zm0 2c2.433 0 3.846.245 4.6.46.373.108.583.205.681.259.054.098.151.308.258.681.216.754.461 2.167.461 4.6 0 1.86.008 5.856-1.826 10.467l-7.32-7.32-7.32-7.32C71.143 16.991 75.14 17 77 17zm-11.453 2.254l7.6 7.6 7.6 7.6c-1.143 2.545-2.852 5.237-5.454 7.839-2.359 2.359-10.675 9.182-18.295 15.303-3.567 2.865-6.808 5.44-9.289 7.406l-1.855-1.856a.5.5 0 00-.36-.152.5.5 0 00-.348.86l1.774 1.773a2601.303 2601.303 0 01-3.844 3.035L31.338 56.924c.209-.266 1.503-1.907 3.035-3.844l8.773 8.774a.5.5 0 10.708-.708l-8.856-8.855c1.965-2.48 4.541-5.722 7.406-9.289 6.121-7.62 12.944-15.936 15.303-18.295 2.602-2.602 5.294-4.311 7.84-5.453zM61.5 30c-4.689 0-8.5 3.812-8.5 8.5 0 4.688 3.811 8.5 8.5 8.5s8.5-3.812 8.5-8.5c0-4.688-3.811-8.5-8.5-8.5zm0 1c4.148 0 7.5 3.352 7.5 7.5S65.648 46 61.5 46a7.492 7.492 0 01-7.5-7.5c0-4.148 3.352-7.5 7.5-7.5zm-1.016 2.1a.5.5 0 00-.084.011A5.504 5.504 0 0056 38.5c0 3.031 2.469 5.5 5.5 5.5a5.5 5.5 0 005.035-3.299.5.5 0 10-.916-.402A4.494 4.494 0 0161.5 43c-2.49 0-4.5-2.01-4.5-4.5a4.496 4.496 0 013.6-4.408.5.5 0 00-.116-.992zm2.016 0a.5.5 0 00-.1.992 4.443 4.443 0 011.774.808.5.5 0 10.597-.8 5.45 5.45 0 00-2.171-.989.5.5 0 00-.1-.011zm3.563 2.894a.5.5 0 00-.444.707c.127.29.226.588.29.899a.5.5 0 10.98-.2 5.475 5.475 0 00-.352-1.101.5.5 0 00-.475-.305zm-28.348 9.682a2618.268 2618.268 0 00-8.086 10.18l-11.957-3.419 1.91-2.546 18.133-4.215zm-5.442 15.011l7.04 7.04-4.116 2.056-4.98-4.98 2.056-4.115zm22.051 1.598L50.11 80.418l-2.547 1.91-3.417-11.957c.603-.474 4.83-3.818 10.18-8.086zm-26.18 3.23a1 1 0 00.149.192l1.42 1.42c-4.037.588-6.275 3.151-7.418 5.666C20.993 75.657 21 78.5 21 78.5a.5.5 0 00.5.5s2.843.007 5.707-1.295c2.515-1.143 5.078-3.38 5.666-7.418l1.42 1.42a1 1 0 00.191.148c-.086 2.94-1.203 5.126-2.884 6.807-1.75 1.75-4.118 2.942-6.508 3.738-4.353 1.451-8.307 1.55-9.055 1.563.013-.748.112-4.702 1.563-9.055.796-2.39 1.988-4.758 3.738-6.508 1.68-1.68 3.867-2.798 6.807-2.884zm2.473 2.516l1.352 1.352c-.296 4.217-2.707 6.29-5.176 7.412a12.826 12.826 0 01-4.742 1.154c.029-.674.155-2.544 1.154-4.742 1.122-2.469 3.195-4.88 7.412-5.176z"/>
</svg>
