<svg xmlns="http://www.w3.org/2000/svg" viewBox="0 0 100 100">
  <path fill="#fefdef" d="M84.961 19.961l4.142-.063c.237-8.453-9.948-7.937-9.948-7.937l-50.165-.006c-3.848 0-7.029 4.2-7.029 7.638v43.368l-9.974-.029c-.008.36.004 20.749.036 21.073.652 6.706 9.396 5.956 9.396 5.956l58.376.041c3.147.293 5.167-3.462 5.167-5.547l-.001-64.494"/>
  <path fill="#fef6aa" d="M22.961 62.961l-10.496-.028c-.009.36.005 20.748.039 21.073.707 6.706 10.184 5.955 10.184 5.955h.273v-27z"/>
  <path fill="#1f212b" d="M21.117 86.992a1 1 0 010-2c.25 0 .354-.075.422-.149.337-.363.75-1.306.64-2.789l-.031-62.469c0-3.911 3.427-8.458 7.875-8.458l50.131-.167c.098.104 5.513-.243 8.689 2.863 1.569 1.534 2.33 3.587 2.259 6.102a1 1 0 01-.998.972l-38.143.063h-.001a1 1 0 01-.001-2l37.148.146c-.13-1.486-.705-2.915-1.656-3.847-2.543-2.494-7.203-2.304-7.247-2.299l-50.214-.005c-3.247 0-6.029 3.65-6.029 6.638l-.081 62.395c.111 1.46.096 3.17-.875 4.215-.479.516-1.132.789-1.888.789z"/>
  <path fill="#1f212b" d="M81.148 90.977c-.145 0-.292-.007-.438-.021l-58.195-.036c-3.28.285-9.786-.774-10.376-6.843-.039-.396-.044-20.972-.04-21.139a1 1 0 011-.977h.003l9.863.027a1 1 0 01-.003 2h-.003l-9.143-.09c0 4.044-.074 19.075-.046 19.771.546 5.603 8.438 5.466 8.754 5.437l58.279-.146c.904.08 1.677-.209 2.386-.855 1.109-1.011 1.772-2.664 1.772-3.678V19.961a1 1 0 012 0v64.467c0 1.464-.833 3.705-2.425 5.156-1.006.916-2.169 1.393-3.388 1.393zM46.961 20.961h-5a1 1 0 010-2h5a1 1 0 010 2zm-.5 14h-18a.5.5 0 010-1h18a.5.5 0 010 1z"/>
  <path fill="#1f212b" d="M82.461 34.961h-33a.5.5 0 010-1h33a.5.5 0 010 1zm0 10h-31a.5.5 0 010-1h31a.5.5 0 010 1zm0 7h-31a.5.5 0 010-1h31a.5.5 0 010 1z"/>
  <path fill="#fef6aa" d="M45.461 45.461v13h-17v-16h14"/>
  <path fill="#1f212b" d="M45.461 58.961h-17a.5.5 0 01-.5-.5v-16a.5.5 0 01.5-.5h14a.5.5 0 010 1h-13.5v15h16v-12.5a.5.5 0 011 0v13a.5.5 0 01-.5.5zm37 0h-31a.5.5 0 010-1h31a.5.5 0 010 1zm-14-30h-14a.5.5 0 010-1h14a.5.5 0 010 1zm14 0h-11a.5.5 0 010-1h11a.5.5 0 010 1zm-31 0h-23a.5.5 0 010-1h23a.5.5 0 010 1zm8 52h-31a.5.5 0 010-1h31a.5.5 0 010 1zm0-7h-31a.5.5 0 010-1h31a.5.5 0 010 1z"/>
  <path fill="#fef6aa" d="M64.461 80.461v-14h17v16h-13"/>
  <path fill="#1f212b" d="M81.461 82.961h-13a.5.5 0 010-1h12.5v-15h-16v13.5a.5.5 0 01-1 0v-14a.5.5 0 01.5-.5h17a.5.5 0 01.5.5v16a.5.5 0 01-.5.5zm-22-16h-31a.5.5 0 010-1h31a.5.5 0 010 1z"/>
</svg>
