<svg xmlns="http://www.w3.org/2000/svg" fill="#12529e" viewBox="0 0 100 100">
  <path d="M10 24a1 1 0 100 2h27.377c3.98 0 7.794 1.577 10.607 4.39l.602.602-10.398 10.399A4.039 4.039 0 0037 44.258a3.929 3.929 0 001.81 3.303c1.165.74 2.83 1.443 5.19 1.443 4.092 0 7.585-1.17 11.707-5.293a1 1 0 000-.002L59.414 40H67a1 1 0 100-2h-8a1 1 0 00-.707.293l-4 4.002c-3.878 3.877-6.541 4.709-10.293 4.709-1.983 0-3.175-.53-4.115-1.129A1.897 1.897 0 0139 44.25a2.028 2.028 0 01.602-1.445l10.925-10.926a1 1 0 00.36-.36l1.129-1.128A14.992 14.992 0 0162.623 26H90a1 1 0 100-2H62.623a16.998 16.998 0 00-12.021 4.977l-.602.601-.602-.601A16.998 16.998 0 0037.377 24H10zm50.994 17.986a1 1 0 00-.695 1.72l14.75 14.75a3.234 3.234 0 010 4.595h-.002a3.224 3.224 0 01-2.297.953 3.222 3.222 0 01-2.219-.889c-.024-.024-.044-.052-.068-.076h-.002l-2.756-2.746a1 1 0 00-.717-.3 1 1 0 00-.693 1.718l2.633 2.625a1 1 0 00.11.129c.024.025.05.046.075.07a3.227 3.227 0 01-.064 4.516h-.002a3.224 3.224 0 01-4.514.064c-.024-.025-.045-.051-.07-.076l-.01.01-2.744-2.752a1 1 0 10-1.418 1.41l2.746 2.758c.027.027.057.05.084.076a3.23 3.23 0 01-.072 4.51h-.002a3.222 3.222 0 01-2.297.951 3.22 3.22 0 01-2.217-.887c-.024-.025-.045-.051-.07-.076h-.002l-2.756-2.746a1 1 0 00-.717-.3 1 1 0 00-.693 1.718l2.752 2.742-.01.01c.023.023.047.042.07.064a3.23 3.23 0 01-.058 4.524h-.002a3.222 3.222 0 01-2.297.951c-.834 0-1.66-.313-2.297-.951l-2.49-2.49c-.086-1.074-.468-2.132-1.215-2.973-.85-.956-2.165-1.586-3.748-1.586-.393 0-.77.038-1.127.111.076-.367.127-.738.127-1.111 0-1.222-.402-2.458-1.252-3.414S40.583 68.002 39 68.002c-.393 0-.77.038-1.127.111.076-.367.127-.738.127-1.111 0-1.222-.402-2.458-1.252-3.414S34.583 62.002 33 62.002c-.393 0-.77.038-1.127.111.076-.367.127-.738.127-1.111 0-1.222-.402-2.458-1.252-3.414-.77-.867-1.925-1.46-3.312-1.565l-1.977-1.966-.002-.002A7.003 7.003 0 0020.512 52H10a1 1 0 100 2h10.512c1.322 0 2.594.532 3.533 1.47l.924.92a4.62 4.62 0 00-1.717 1.198c-.85.956-1.252 2.192-1.252 3.414s.402 2.458 1.252 3.414 2.165 1.586 3.748 1.586c.393 0 .77-.038 1.127-.111A5.474 5.474 0 0028 67.002c0 1.222.402 2.458 1.252 3.414s2.165 1.586 3.748 1.586c.393 0 .77-.038 1.127-.111A5.474 5.474 0 0034 73.002c0 1.222.402 2.458 1.252 3.414s2.165 1.586 3.748 1.586c.393 0 .77-.038 1.127-.111A5.474 5.474 0 0040 79.002c0 1.222.402 2.458 1.252 3.414s2.165 1.586 3.748 1.586c1.583 0 2.898-.63 3.748-1.586.371-.418.644-.894.848-1.395l1.441 1.442a5.245 5.245 0 007.426 0c1.231-1.232 1.707-2.936 1.453-4.543.276.044.555.082.834.082a5.245 5.245 0 003.713-1.54c1.23-1.23 1.707-2.934 1.453-4.54.276.044.555.082.834.082a5.245 5.245 0 003.713-1.54c1.232-1.231 1.708-2.935 1.453-4.542.276.044.555.082.834.082a5.245 5.245 0 003.713-1.54c2.042-2.041 2.042-5.383 0-7.425l-14.75-14.75a1 1 0 00-.719-.303zm21.498 2.008a.5.5 0 00-.492.508v1a.5.5 0 101 0v-1a.5.5 0 00-.508-.508zm0 3a.5.5 0 00-.492.508v5.375a1 1 0 00-.006.045 2 2 0 01-.58 1.252l-2.121 2.12a1 1 0 101.414 1.415l2.121-2.121c.427-.427.537-1.029.734-1.588H90a1 1 0 100-2h-7v-4.498a.5.5 0 00-.508-.508zm-27.998 1.002a.5.5 0 00-.348.86l2 2a.5.5 0 10.708-.708l-2-2a.5.5 0 00-.36-.152zm4 4a.5.5 0 00-.348.86l5 5a.5.5 0 10.708-.708l-5-5a.5.5 0 00-.36-.152zm-10 2a.5.5 0 00-.348.86l1 1a.5.5 0 10.708-.708l-1-1a.5.5 0 00-.36-.152zm3 3a.5.5 0 00-.348.86l1 1a.5.5 0 10.708-.708l-1-1a.5.5 0 00-.36-.152zm-24.59 1.014a1 1 0 00.205.002h.002c1.014.026 1.676.38 2.141.904.483.544.748 1.308.748 2.086 0 .778-.265 1.542-.748 2.086-.483.544-1.169.914-2.252.914-1.083 0-1.769-.37-2.252-.914-.483-.544-.748-1.308-.748-2.086 0-.778.265-1.542.748-2.086.468-.526 1.133-.883 2.156-.906zm27.59 1.986a.5.5 0 00-.348.86l3 3a.5.5 0 10.708-.708l-3-3a.5.5 0 00-.36-.152zm-9 3a.5.5 0 00-.348.86l6 6a.5.5 0 10.708-.708l-6-6a.5.5 0 00-.36-.152zM33 64.002c1.083 0 1.769.37 2.252.914.483.544.748 1.308.748 2.086 0 .778-.265 1.542-.748 2.086-.483.544-1.169.914-2.252.914-1.083 0-1.769-.37-2.252-.914-.483-.544-.748-1.308-.748-2.086 0-.778.265-1.542.748-2.086.483-.544 1.169-.914 2.252-.914zm6 6c1.083 0 1.769.37 2.252.914.483.544.748 1.308.748 2.086 0 .778-.265 1.542-.748 2.086-.483.544-1.169.914-2.252.914-1.083 0-1.769-.37-2.252-.914-.483-.544-.748-1.308-.748-2.086 0-.778.265-1.542.748-2.086.483-.544 1.169-.914 2.252-.914zm6 6c1.083 0 1.769.37 2.252.914.462.52.718 1.241.74 1.982a1 1 0 000 .207c-.022.742-.278 1.463-.74 1.983-.483.544-1.169.914-2.252.914-1.083 0-1.769-.37-2.252-.914-.483-.544-.748-1.308-.748-2.086 0-.778.265-1.542.748-2.086.483-.544 1.169-.914 2.252-.914z"/>
</svg>
