<svg xmlns="http://www.w3.org/2000/svg" fill="#12529e" viewBox="0 0 100 100">
  <path d="M49.47 12a1 1 0 00-.333.068l-21.5 8.366a1 1 0 00-.637.931v22.88a1 1 0 00.553.894l21.5 10.756a1 1 0 00.894 0l21.5-10.756a1 1 0 00.553-.895V21.365a1 1 0 00-.637-.931l-21.5-8.366a1 1 0 00-.392-.068zm.03 2.072l19.572 7.617L49.5 30.55l-19.572-8.86L49.5 14.072zM29 22.37l20 9.05v22.214L29 43.627V22.369zm41 0v21.258L50 53.633V31.42l20-9.05zM14.94 34c-2.713.036-4.94 2.27-4.94 5v18.98c0 1.503.38 2.989 1.1 4.31L22 82.272V87a1 1 0 102 0v-4.725c0-.334-.085-.664-.242-.955l-.002-.002-10.9-19.986A7.038 7.038 0 0112 57.98V39a2.98 2.98 0 013.297-2.986h.002C16.835 36.16 18 37.57 18 39.172v13.572c0 .335.084.663.244.957v.002l1.744 3.195c-.12.935.04 1.885.498 2.727l4.973 9.115a.5.5 0 10.877-.48l-4.97-9.114a3.466 3.466 0 01-.286-2.664c.053-.18.13-.347.21-.513.068-.146.152-.283.24-.418.024-.038.047-.078.074-.115a3.464 3.464 0 01.45-.512c.075-.07.15-.138.231-.201.1-.078.207-.148.317-.215.092-.057.177-.12.277-.17 1.692-.841 3.805-.058 4.738 1.654l8.795 16.121A13.004 13.004 0 0138 78.34V87a1 1 0 102 0v-8.66a15 15 0 00-1.832-7.184l-8.795-16.123c-1.42-2.604-4.675-3.833-7.385-2.486a5.408 5.408 0 00-1.496 1.1l-.492-.9V39.171c0-2.576-1.888-4.899-4.512-5.149A5.068 5.068 0 0014.94 34zm69.12 0a5.068 5.068 0 00-.548.023c-2.624.25-4.512 2.573-4.512 5.149v13.574l-.492.9a5.406 5.406 0 00-1.496-1.1c-2.71-1.346-5.965-.117-7.385 2.487l-8.795 16.123A15 15 0 0059 78.34V87a1 1 0 102 0v-8.66c0-2.175.546-4.318 1.588-6.227l8.795-16.12c.933-1.713 3.046-2.496 4.738-1.655.1.05.185.113.277.17.109.067.216.136.315.213.086.067.166.14.244.215a3.44 3.44 0 01.445.511l.06.09c.092.14.177.282.249.434l.014.029c.072.157.145.313.195.482.264.901.165 1.84-.285 2.664l-4.973 9.114a.5.5 0 00.879.48l4.973-9.115c.458-.841.618-1.79.498-2.725l1.744-3.197v-.002a2 2 0 00.244-.957V39.172c0-1.602 1.165-3.012 2.701-3.158h.002A2.98 2.98 0 0187 39v18.98a7.038 7.038 0 01-.855 3.352l-10.9 19.986c-.16.294-.245.623-.245.957V87a1 1 0 102 0V82.273L87.9 62.29A9.022 9.022 0 0089 57.98V39c0-2.73-2.227-4.964-4.94-5zM26.413 57.252a.5.5 0 00-.223.07l-3 1.713a.5.5 0 00.497.87l3-1.716a.5.5 0 00-.223-.937.5.5 0 00-.05 0zm46.11 0a.5.5 0 00-.208.937l3 1.715a.5.5 0 00.497-.869l-3-1.713a.5.5 0 00-.239-.07.5.5 0 00-.05 0zM26.978 69.994a.5.5 0 00-.428.746l.545 1a.5.5 0 10.877-.48l-.545-1a.5.5 0 00-.45-.266zm45.027 0a.5.5 0 00-.434.266l-.545 1a.5.5 0 10.877.48l.545-1a.5.5 0 00-.443-.746z"/>
</svg>
