<svg xmlns="http://www.w3.org/2000/svg" viewBox="0 0 100 100">
  <path fill="#cdcbbd" d="M90.095 15.509a.502.502 0 00-.559.306L84.29 28.929a2.487 2.487 0 01-2.321 1.571h-6.033C77.27 33.748 78 37.57 78 42c0 .517.007 1.013.018 1.5H82c4.687 0 8.5-3.813 8.5-8.5V16a.5.5 0 00-.405-.491zM21.982 43.5c.011-.487.018-.983.018-1.5 0-4.43.73-8.252 2.065-11.5h-6.033a2.489 2.489 0 01-2.321-1.571l-5.246-13.114A.5.5 0 009.5 16v19c0 4.687 3.813 8.5 8.5 8.5h3.982z"/>
  <path fill="#60bd91" d="M50 81c-5 0-9 3-17.347 3C23.974 84 18 77 18 68c0-9.5 4-12 4-26 0-18 12-26 28-26s28 8 28 26c0 14 4 16.5 4 26 0 9-5.974 16-14.653 16C59 84 55 81 50 81z"/>
  <path fill="#444445" d="M74.5 62.234C74.5 59 72 58.5 70 58.5c-4.5 0-11 3-20 3s-15.5-3-20-3c-2 0-4.5.5-4.5 3.734C25.5 69.367 36.47 76.5 50 76.5s24.5-7.133 24.5-14.266z"/>
  <path fill="#fff" d="M45.5 41.5c0 4.42-3.58 8-8 8s-8-3.58-8-8c0-2.23.92-4.24 2.39-5.69 2.87-.4 4.85-1.36 6.77-2.21 3.87.56 6.84 3.88 6.84 7.9zM70.5 41.5c0 4.42-3.58 8-8 8s-8-3.58-8-8c0-4.02 2.97-7.34 6.84-7.9 1.92.85 3.9 1.81 6.77 2.21a7.969 7.969 0 012.39 5.69zM39.88 60.34L38.5 65.5l-3.08-6.17c1.37.31 2.86.68 4.46 1.01zM66.94 72.26c-1.74 1.02-3.74 1.9-5.93 2.58l4.49-8.34 1.44 5.76zM38.99 74.85c-2.19-.69-4.19-1.57-5.93-2.59l1.44-5.76 4.49 8.35zM64.58 59.33L61.5 65.5l-1.38-5.16c1.6-.33 3.09-.7 4.46-1.01z"/>
  <circle cx="26.5" cy="53.5" r="2" fill="#a0d2a1"/>
  <circle cx="67.5" cy="53.5" r="2" fill="#a0d2a1"/>
  <circle cx="34" cy="55" r="1.5" fill="#a0d2a1"/>
  <circle cx="43.5" cy="23.5" r="2" fill="#a0d2a1"/>
  <circle cx="58" cy="27" r="1.5" fill="#a0d2a1"/>
  <circle cx="74" cy="54" r="1.5" fill="#a0d2a1"/>
  <path fill="#f05b6c" d="M63.085 70.984C61.307 68.84 58.29 67.5 55 67.5c-3 0-5 1-5 1s-2-1-5-1c-3.288 0-6.304 1.339-8.083 3.489l2.067 3.851C42.297 75.885 46.037 76.5 50 76.5c3.961 0 7.699-.615 11.01-1.659v-.001l2.075-3.856z"/>
  <path fill="#1f212b" d="M82 44h-4.472l-.011-.489c-.01-.49-.017-.99-.017-1.511 0-4.23-.682-8.036-2.027-11.31l-.284-.69h6.779c.823 0 1.552-.493 1.857-1.257l5.246-13.114c.175-.44.642-.697 1.112-.612l.006.001A1 1 0 0191 16v19c0 4.962-4.038 9-9 9zm-3.492-1H82c4.411 0 8-3.589 8-8V16l-.001.001-5.244 13.113A2.987 2.987 0 0181.969 31H76.67c1.215 3.234 1.831 6.931 1.831 11-.001.341.002.674.007 1zM22.472 44H18c-4.962 0-9-4.038-9-9V16a1 1 0 01.811-.982c.474-.088.942.173 1.118.61l5.246 13.115A1.987 1.987 0 0018.031 30h6.779l-.284.69C23.182 33.964 22.5 37.77 22.5 42c0 .521-.007 1.021-.018 1.511l-.01.489zM10 16v19c0 4.411 3.589 8 8 8h3.492c.005-.326.008-.659.008-1 0-4.069.616-7.766 1.831-11h-5.299a2.987 2.987 0 01-2.786-1.886L10 16z"/>
  <path fill="#1f212b" d="M67.347 85c-4.846 0-8.224-.969-11.205-1.824C53.941 82.545 52.041 82 50 82s-3.941.545-6.142 1.176C40.877 84.031 37.499 85 32.653 85 23.583 85 17 77.851 17 68c0-4.431.85-7.412 1.75-10.567C19.804 53.731 21 49.537 21 42c0-16.907 10.841-27 29-27s29 10.093 29 27c0 7.537 1.196 11.731 2.25 15.433C82.15 60.588 83 63.569 83 68c0 9.851-6.583 17-15.653 17zM50 80c2.322 0 4.445.609 6.693 1.253C59.547 82.072 62.782 83 67.347 83 75.258 83 81 76.691 81 68c0-4.151-.775-6.871-1.673-10.019C78.236 54.154 77 49.816 77 42c0-15.888-9.841-25-27-25s-27 9.112-27 25c0 7.816-1.236 12.154-2.327 15.981C19.775 61.129 19 63.849 19 68c0 8.691 5.742 15 13.653 15 4.564 0 7.799-.928 10.654-1.747C45.555 80.609 47.678 80 50 80z"/>
  <path fill="#1f212b" d="M26.5 56c-1.378 0-2.5-1.122-2.5-2.5s1.122-2.5 2.5-2.5 2.5 1.122 2.5 2.5-1.122 2.5-2.5 2.5zm0-4c-.827 0-1.5.673-1.5 1.5s.673 1.5 1.5 1.5 1.5-.673 1.5-1.5-.673-1.5-1.5-1.5zM67.5 56c-1.378 0-2.5-1.122-2.5-2.5s1.122-2.5 2.5-2.5 2.5 1.122 2.5 2.5-1.122 2.5-2.5 2.5zm0-4c-.827 0-1.5.673-1.5 1.5s.673 1.5 1.5 1.5 1.5-.673 1.5-1.5-.673-1.5-1.5-1.5zM34 57c-1.103 0-2-.897-2-2s.897-2 2-2 2 .897 2 2-.897 2-2 2zm0-3c-.551 0-1 .449-1 1s.449 1 1 1 1-.449 1-1-.449-1-1-1zM43.5 26c-1.378 0-2.5-1.122-2.5-2.5s1.122-2.5 2.5-2.5 2.5 1.122 2.5 2.5-1.122 2.5-2.5 2.5zm0-4c-.827 0-1.5.673-1.5 1.5s.673 1.5 1.5 1.5 1.5-.673 1.5-1.5-.673-1.5-1.5-1.5zM58 29c-1.103 0-2-.897-2-2s.897-2 2-2 2 .897 2 2-.897 2-2 2zm0-3c-.551 0-1 .449-1 1s.449 1 1 1 1-.449 1-1-.449-1-1-1zM74 56c-1.103 0-2-.897-2-2s.897-2 2-2 2 .897 2 2-.897 2-2 2zm0-3c-.551 0-1 .449-1 1s.449 1 1 1 1-.449 1-1-.449-1-1-1zM29 37a1 1 0 010-2c4.073 0 6.488-1.082 8.822-2.127C39.972 31.91 42.001 31 45 31a1 1 0 010 2c-2.571 0-4.327.787-6.36 1.698C36.231 35.777 33.501 37 29 37zM37.302 71.308l-.771-.638C38.434 68.372 41.599 67 45 67c2.54 0 4.382.686 5 .951.618-.265 2.46-.951 5-.951 3.4 0 6.567 1.37 8.47 3.665l-.77.639C60.985 69.235 58.106 68 55 68c-2.849 0-4.757.938-4.776.947a.503.503 0 01-.446 0C49.758 68.938 47.833 68 45 68c-3.106 0-5.984 1.237-7.698 3.308zM38.5 66a.5.5 0 01-.447-.277l-3.08-6.17a.501.501 0 01.558-.711c.448.102.908.209 1.381.32.972.227 1.996.466 3.07.688a.499.499 0 01.382.619l-1.38 5.16A.5.5 0 0138.5 66zm-2.159-5.944l2.017 4.04.903-3.375c-.896-.192-1.755-.393-2.577-.585l-.343-.08z"/>
  <path fill="#1f212b" d="M61.01 75.34a.5.5 0 01-.441-.737l4.49-8.34a.5.5 0 01.925.116l1.44 5.76a.5.5 0 01-.232.552c-1.812 1.063-3.842 1.946-6.035 2.626a.465.465 0 01-.147.023zm4.318-7.466l-3.281 6.094a27.25 27.25 0 004.316-1.954l-1.035-4.14zM38.99 75.35a.484.484 0 01-.15-.023c-2.204-.694-4.233-1.581-6.033-2.636a.5.5 0 01-.232-.552l1.44-5.76a.498.498 0 01.925-.116l4.49 8.35a.5.5 0 01-.44.737zm-5.353-3.335a27.75 27.75 0 004.314 1.958l-3.279-6.098-1.035 4.14zM61.5 66l-.05-.002a.5.5 0 01-.433-.368l-1.38-5.16a.501.501 0 01.382-.619 121.31 121.31 0 003.07-.688c.473-.111.933-.218 1.381-.32a.501.501 0 01.558.711l-3.08 6.17A.503.503 0 0161.5 66zm-.761-5.279l.903 3.375 2.017-4.04-.343.08c-.822.192-1.681.393-2.577.585z"/>
  <path fill="#1f212b" d="M50 77c-13.318 0-25-6.9-25-14.766C25 59.425 26.682 58 30 58c1.921 0 4.168.524 6.771 1.131C40.341 59.963 44.786 61 50 61s9.659-1.037 13.229-1.869C65.832 58.524 68.079 58 70 58c3.318 0 5 1.425 5 4.234C75 70.1 63.318 77 50 77zM30 59c-2.729 0-4 1.028-4 3.234C26 68.732 36.264 76 50 76s24-7.268 24-13.766C74 60.028 72.729 59 70 59c-1.807 0-4.001.512-6.543 1.104C59.836 60.949 55.33 62 50 62s-9.836-1.051-13.457-1.896C34.001 59.512 31.807 59 30 59zM37.5 50c-4.687 0-8.5-3.813-8.5-8.5 0-2.284.902-4.432 2.539-6.046l.118-.116.164-.023c2.571-.358 4.403-1.176 6.175-1.966l.593-.264.143.021C42.875 33.705 46 37.314 46 41.5c0 4.687-3.813 8.5-8.5 8.5zm-5.373-13.719A7.436 7.436 0 0030 41.5c0 4.136 3.364 7.5 7.5 7.5s7.5-3.364 7.5-7.5c0-3.645-2.686-6.794-6.271-7.383l-.326.145c-1.797.801-3.654 1.63-6.276 2.019zM62.5 50c-4.687 0-8.5-3.813-8.5-8.5 0-4.186 3.125-7.795 7.268-8.395l.143-.021.593.264c1.772.791 3.604 1.608 6.175 1.966l.164.023.118.116A8.44 8.44 0 0171 41.5c0 4.687-3.813 8.5-8.5 8.5zm-1.229-15.883C57.686 34.706 55 37.855 55 41.5c0 4.136 3.364 7.5 7.5 7.5s7.5-3.364 7.5-7.5a7.436 7.436 0 00-2.127-5.219c-2.622-.389-4.479-1.218-6.276-2.02l-.326-.144z"/>
  <path fill="#1f212b" d="M71 37c-4.501 0-7.231-1.223-9.64-2.302C59.327 33.787 57.571 33 55 33a1 1 0 010-2c2.999 0 5.028.91 7.178 1.873C64.512 33.918 66.927 35 71 35a1 1 0 010 2z"/>
  <circle cx="37.5" cy="41.5" r="4" fill="#444445"/>
  <path fill="#1f212b" d="M37.5 46c-2.481 0-4.5-2.019-4.5-4.5s2.019-4.5 4.5-4.5 4.5 2.019 4.5 4.5-2.019 4.5-4.5 4.5zm0-8c-1.93 0-3.5 1.57-3.5 3.5s1.57 3.5 3.5 3.5 3.5-1.57 3.5-3.5-1.57-3.5-3.5-3.5z"/>
  <circle cx="39.5" cy="41.5" r="2" fill="#fff"/>
  <path fill="#1f212b" d="M39.5 44c-1.378 0-2.5-1.122-2.5-2.5s1.122-2.5 2.5-2.5 2.5 1.122 2.5 2.5-1.122 2.5-2.5 2.5zm0-4c-.827 0-1.5.673-1.5 1.5s.673 1.5 1.5 1.5 1.5-.673 1.5-1.5-.673-1.5-1.5-1.5z"/>
  <circle cx="62.5" cy="41.5" r="4" fill="#444445"/>
  <path fill="#1f212b" d="M62.5 46c-2.481 0-4.5-2.019-4.5-4.5s2.019-4.5 4.5-4.5 4.5 2.019 4.5 4.5-2.019 4.5-4.5 4.5zm0-8c-1.93 0-3.5 1.57-3.5 3.5s1.57 3.5 3.5 3.5 3.5-1.57 3.5-3.5-1.57-3.5-3.5-3.5z"/>
  <circle cx="64.5" cy="41.5" r="2" fill="#fff"/>
  <path fill="#1f212b" d="M64.5 44c-1.378 0-2.5-1.122-2.5-2.5s1.122-2.5 2.5-2.5 2.5 1.122 2.5 2.5-1.122 2.5-2.5 2.5zm0-4c-.827 0-1.5.673-1.5 1.5s.673 1.5 1.5 1.5 1.5-.673 1.5-1.5-.673-1.5-1.5-1.5zM32.653 79c-4.789 0-8.486-3.301-9.417-8.41a.5.5 0 11.984-.18c.854 4.682 4.086 7.59 8.434 7.59.637 0 1.233-.028 1.813-.067.28-.012.514.19.533.465a.5.5 0 01-.465.533c-.603.04-1.222.069-1.882.069zM66.5 78.983h-.019c-.346-.012-.684-.03-1.016-.052a.5.5 0 01.068-.998c.321.022.649.039.984.051a.499.499 0 01-.017.999zM73.5 76.522a.5.5 0 01-.352-.854c1.337-1.331 2.248-3.149 2.633-5.258a.5.5 0 11.984.18c-.421 2.311-1.428 4.312-2.912 5.787a.5.5 0 01-.353.145zM68.5 78.923a.5.5 0 01-.059-.996 8.115 8.115 0 002.826-.87.5.5 0 01.467.885 9.11 9.11 0 01-3.174.979l-.06.002z"/>
</svg>
