<svg xmlns="http://www.w3.org/2000/svg" fill="#767676" viewBox="0 0 100 100">
  <path d="M32.947 12a1 1 0 00-.148.018A32.41 32.41 0 0020.764 17a1 1 0 00-.155 1.527 4.995 4.995 0 01-.037 7.043 4.995 4.995 0 01-7.045.04 1 1 0 00-1.527.154 32.4 32.4 0 00-4.982 12.035 1 1 0 00.968 1.19C10.737 39.022 13 41.252 13 44c0 2.747-2.263 4.977-5.014 5.012a1 1 0 00-.968 1.19A32.393 32.393 0 0012 62.235a1 1 0 001.527.155 4.997 4.997 0 017.045.037 4.996 4.996 0 01.037 7.045A1 1 0 0020.764 71a32.407 32.407 0 0012.035 4.98 1 1 0 001.19-.968c.026-2.033 1.267-3.78 3.011-4.56V80c0 4.406 3.594 8 8 8h40c4.406 0 8-3.594 8-8V50c0-4.406-3.594-8-8-8H65.453c.781-1.745 2.527-2.986 4.559-3.012a1 1 0 00.97-1.19A32.4 32.4 0 0066 25.765a1 1 0 00-1.527-.157 4.997 4.997 0 01-7.045-.037 4.994 4.994 0 01-.037-7.043A1 1 0 0057.236 17 32.402 32.402 0 0045.2 12.018a1 1 0 00-1.187.968C43.977 15.737 41.747 18 39 18c-2.747 0-4.977-2.263-5.012-5.014a1 1 0 00-1.04-.986zm-.693 2.26C32.895 17.477 35.598 20 39 20c3.402 0 6.105-2.523 6.746-5.74a30.298 30.298 0 019.522 3.94c-1.814 2.721-1.652 6.387.746 8.784 2.398 2.398 6.065 2.561 8.787.748a30.304 30.304 0 013.931 9.497c-2.556.508-4.658 2.319-5.414 4.771h-4.42a19.822 19.822 0 00-.408-2.457.5.5 0 00-.07-.299 19.782 19.782 0 00-1.744-4.537.5.5 0 00-.205-.375 20.162 20.162 0 00-4.131-5.205.5.5 0 00-.367-.13.5.5 0 00-.301.876 19.189 19.189 0 013.715 4.56L50.32 35.79C47.778 32.284 43.658 30 39 30c-.133 0-.262.016-.395.02l1.317-4.909c1.176.063 2.346.154 3.463.418a.5.5 0 10.23-.972c-1.195-.284-2.456-.387-3.726-.45a.5.5 0 00-.346-.117.5.5 0 00-.195.051C39.228 24.039 39.12 24 39 24c-1.514 0-2.975.2-4.393.52a.5.5 0 00-.47.144.5.5 0 00-.002.002c-1.52.382-2.95.954-4.309 1.662a.5.5 0 00-.547.297C23.176 30.051 19 36.507 19 44c0 .21.022.378.025.512a.5.5 0 001-.024c-.004-.202-.025-.36-.025-.488 0-6.999 3.82-13.041 9.447-16.338l1.342 5.02C27.288 35.228 25 39.344 25 44c0 2.692.768 5.2 2.088 7.334l-4.97 1.33a18.907 18.907 0 01-1.014-2.33.5.5 0 00-.5-.34.5.5 0 00-.442.672c.32.902.705 1.774 1.145 2.611a.5.5 0 00.228.407 20.035 20.035 0 002.772 3.834.5.5 0 00.324.353 20.052 20.052 0 003.705 3.022.5.5 0 00.361.216 19.853 19.853 0 004.354 1.961.5.5 0 00.408.133c1.14.33 2.326.547 3.541.668v4.447c-2.452.756-4.263 2.857-4.771 5.414a30.316 30.316 0 01-9.495-3.933c1.812-2.722 1.65-6.388-.748-8.785-2.398-2.398-6.065-2.56-8.787-.746a30.298 30.298 0 01-3.94-9.522C12.478 50.105 15 47.402 15 44c0-3.402-2.523-6.105-5.74-6.746a30.304 30.304 0 013.94-9.522c2.721 1.814 6.389 1.65 8.786-.748 2.398-2.397 2.56-6.063.748-8.785a30.313 30.313 0 019.52-3.94zm6.658 10.75l-1.357 5.064c-.88.09-1.732.27-2.555.516v-5.15a19.048 19.048 0 013.912-.43zm7.586.486a.5.5 0 00-.19.965c.669.278 1.316.6 1.948.953a.5.5 0 00.488-.873 19.89 19.89 0 00-2.053-1.004.5.5 0 00-.193-.04zM34 25.75v5.188a13.92 13.92 0 00-2.332 1.156l-1.318-4.922A18.757 18.757 0 0134 25.75zM39 31c6.502 0 11.86 4.77 12.824 11H45.6c-.871-2.871-3.454-5-6.6-5-3.854 0-7 3.146-7 7 0 3.146 2.129 5.729 5 6.6v6.224C30.77 55.862 26 50.502 26 44c0-7.186 5.814-13 13-13zm16.88 4.336A18.773 18.773 0 0157.32 39h-5.258c-.312-.817-.699-1.597-1.152-2.332l4.97-1.332zM39 39c2.105 0 3.878 1.297 4.617 3.127a8.02 8.02 0 00-6.49 6.49C35.297 47.878 34 46.105 34 44c0-2.774 2.226-5 5-5zm13.395 1h5.156c.142.657.272 1.32.344 2h-5.063a13.915 13.915 0 00-.437-2zM45 44h40c3.326 0 6 2.674 6 6v30c0 3.326-2.674 6-6 6H45c-3.326 0-6-2.674-6-6V69.338a1 1 0 000-.506V53h37.5a.5.5 0 100-1H39v-1.992A1 1 0 0039 50c0 .059 0 .04.004-.057a1 1 0 000-.013 5.98 5.98 0 015.92-5.926 1 1 0 00.02 0A.467.467 0 0045 44zm34.5 8a.5.5 0 100 1h5a.5.5 0 100-1h-5zm8 0a.5.5 0 100 1h1a.5.5 0 100-1h-1zm-59.816.209A14.047 14.047 0 0029.4 54.16l-4.459 2.576a19.055 19.055 0 01-2.324-3.172l5.067-1.355zm2.513 2.646a14.009 14.009 0 002.164 1.442l-3.658 3.656a19.047 19.047 0 01-3.057-2.47l4.551-2.628zm3.112 1.909c.785.35 1.607.63 2.46.832l-2.58 4.47a18.855 18.855 0 01-3.6-1.584l3.72-3.718zm3.496 1.043c.064.01.13.014.195.023v5.04a18.924 18.924 0 01-2.824-.515l2.629-4.548zm18.685 1.19a.5.5 0 00-.344.15L48.5 65.792l-2.646-2.647a.5.5 0 10-.708.708l3 3a.5.5 0 00.708 0l7-7a.5.5 0 00-.364-.858zM59.5 60a.5.5 0 100 1h25a.5.5 0 100-1h-25zm0 5a.5.5 0 100 1h14a.5.5 0 100-1h-14zm-4.01 6.996a.5.5 0 00-.344.15L48.5 78.793l-2.646-2.647a.5.5 0 10-.708.708l3 3a.5.5 0 00.708 0l7-7a.5.5 0 00-.364-.858zM59.5 73a.5.5 0 100 1h16a.5.5 0 100-1h-16zm19 0a.5.5 0 100 1h7a.5.5 0 100-1h-7zm-19 5a.5.5 0 100 1h14a.5.5 0 100-1h-14z"/>
</svg>
