<svg xmlns="http://www.w3.org/2000/svg" viewBox="0 0 100 100">
  <path fill="#a3a3cd" d="M64 44c0-3.296 2.714-5.969 6-6.011a31.403 31.403 0 00-4.829-11.665 6.012 6.012 0 01-8.45-.046 6.01 6.01 0 01-.046-8.45A31.39 31.39 0 0045.011 13c-.042 3.286-2.715 6-6.011 6s-5.969-2.714-6.011-6a31.406 31.406 0 00-11.664 4.828 6.012 6.012 0 01-.046 8.45 6.01 6.01 0 01-8.45.046A31.403 31.403 0 008 37.989c3.286.042 6 2.715 6 6.011s-2.714 5.969-6 6.011a31.392 31.392 0 004.829 11.664 6.012 6.012 0 018.45.046 6.01 6.01 0 01.046 8.45 31.406 31.406 0 0011.664 4.828c.042-3.286 2.715-6 6.011-6s5.969 2.714 6.011 6a31.406 31.406 0 0011.664-4.828 6.012 6.012 0 01.046-8.45 6.01 6.01 0 018.45-.046A31.408 31.408 0 0070 50.011c-3.286-.042-6-2.715-6-6.011zm-25 6a6 6 0 110-12 6 6 0 010 12z"/>
  <path fill="#7777ab" d="M39 24c-11.046 0-20 8.954-20 20s8.954 20 20 20 20-8.954 20-20-8.954-20-20-20zm0 33.5c-7.456 0-13.5-6.044-13.5-13.5S31.544 30.5 39 30.5 52.5 36.544 52.5 44 46.456 57.5 39 57.5z"/>
  <path fill="#1f212b" d="M45.011 76a1 1 0 01-1-.988C43.976 72.249 41.728 70 39 70s-4.976 2.249-5.011 5.013a1.005 1.005 0 01-.368.763.99.99 0 01-.821.206A32.243 32.243 0 0120.764 71a1.002 1.002 0 01-.155-1.527c1.908-1.956 1.891-5.116-.038-7.045s-5.09-1.946-7.044-.037a1.03 1.03 0 01-.8.279.998.998 0 01-.727-.435A32.259 32.259 0 017.018 50.2a1 1 0 01.97-1.189C10.751 48.976 13 46.728 13 44s-2.249-4.976-5.013-5.011a1 1 0 01-.97-1.189A32.288 32.288 0 0112 25.764c.166-.245.432-.404.727-.435a1.03 1.03 0 01.8.279c1.955 1.908 5.115 1.891 7.044-.037 1.929-1.929 1.946-5.089.038-7.045a1 1 0 01.155-1.527 32.227 32.227 0 0112.035-4.981c.29-.059.592.02.821.206.229.188.364.467.368.763C34.024 15.751 36.272 18 39 18s4.976-2.249 5.011-5.013c.004-.296.139-.575.368-.763a.99.99 0 01.821-.206 32.26 32.26 0 0112.035 4.981 1.002 1.002 0 01.155 1.527c-1.908 1.956-1.891 5.116.038 7.045 1.928 1.927 5.089 1.944 7.044.037a.998.998 0 011.527.156A32.237 32.237 0 0170.981 37.8a1 1 0 01-.97 1.189C67.249 39.024 65 41.272 65 44s2.249 4.976 5.013 5.011a1 1 0 01.97 1.189A32.288 32.288 0 0166 62.236a1.004 1.004 0 01-.727.435 1.019 1.019 0 01-.8-.279c-1.954-1.908-5.114-1.891-7.044.037-1.929 1.929-1.946 5.089-.038 7.045a1 1 0 01-.155 1.527 32.227 32.227 0 01-12.035 4.981 1.019 1.019 0 01-.19.018zM39 68c3.413 0 6.289 2.506 6.895 5.792a30.25 30.25 0 009.303-3.851c-1.871-2.73-1.594-6.516.817-8.927 2.413-2.411 6.198-2.687 8.926-.817a30.217 30.217 0 003.851-9.304C65.506 50.289 63 47.413 63 44s2.506-6.289 5.792-6.894a30.217 30.217 0 00-3.851-9.304c-2.73 1.869-6.515 1.593-8.926-.817-2.411-2.411-2.688-6.196-.817-8.927a30.25 30.25 0 00-9.303-3.851C45.289 17.494 42.413 20 39 20s-6.289-2.506-6.895-5.792a30.25 30.25 0 00-9.303 3.851c1.871 2.73 1.594 6.516-.817 8.927-2.412 2.412-6.197 2.687-8.926.817a30.217 30.217 0 00-3.851 9.304C12.494 37.711 15 40.587 15 44s-2.506 6.289-5.792 6.894a30.217 30.217 0 003.851 9.304c2.729-1.869 6.515-1.594 8.926.817 2.411 2.411 2.688 6.196.817 8.927a30.25 30.25 0 009.303 3.851C32.711 70.506 35.587 68 39 68z"/>
  <path fill="#1f212b" d="M39 51c-3.86 0-7-3.141-7-7s3.14-7 7-7 7 3.141 7 7-3.14 7-7 7zm0-12c-2.757 0-5 2.243-5 5s2.243 5 5 5 5-2.243 5-5-2.243-5-5-5zM44.5 63.2a.5.5 0 01-.141-.979 18.979 18.979 0 008.769-5.549.5.5 0 11.744.668 19.977 19.977 0 01-9.231 5.84.533.533 0 01-.141.02zM39 64c-8.444 0-16.014-5.358-18.838-13.333a.5.5 0 11.942-.334C23.787 57.909 30.979 63 39 63c.741 0 1.515-.056 2.436-.174a.494.494 0 01.56.433.502.502 0 01-.432.56A19.99 19.99 0 0139 64zM19.525 45a.5.5 0 01-.5-.487l-.011-.198C19.007 44.21 19 44.106 19 44c0-11.028 8.972-20 20-20 1.504 0 3.057.188 4.615.557a.5.5 0 01.371.602.497.497 0 01-.602.371A19.025 19.025 0 0039 25c-10.477 0-19 8.523-19 19 0 .082.006.163.012.244.006.08.011.161.014.243a.502.502 0 01-.487.513h-.014zM48.5 27.479a.51.51 0 01-.244-.063 19.292 19.292 0 00-1.949-.955.5.5 0 11.385-.922 20.03 20.03 0 012.051 1.004.5.5 0 01-.243.936zM58.17 48a.502.502 0 01-.493-.59c.218-1.194.323-2.309.323-3.41 0-5.368-2.307-10.518-6.328-14.128a.499.499 0 11.668-.744C56.572 32.927 59 38.348 59 44c0 1.161-.111 2.335-.338 3.59a.5.5 0 01-.492.41zM56.021 54a.5.5 0 01-.436-.744c.497-.889.938-1.873 1.31-2.923a.5.5 0 01.942.334 20.051 20.051 0 01-1.379 3.077.498.498 0 01-.437.256z"/>
  <path fill="#1f212b" d="M39 58c-7.72 0-14-6.28-14-14s6.28-14 14-14 14 6.28 14 14-6.28 14-14 14zm0-27c-7.168 0-13 5.832-13 13s5.832 13 13 13 13-5.832 13-13-5.832-13-13-13z"/>
  <path fill="#1f212b" d="M34.5 31.756a.5.5 0 01-.5-.5v-6.24a.5.5 0 011 0v6.24a.5.5 0 01-.5.5zM31.354 33.355a.498.498 0 01-.482-.37l-1.615-6.028a.5.5 0 01.354-.613.506.506 0 01.612.354l1.615 6.028a.5.5 0 01-.484.629zM21.826 53.761a.5.5 0 01-.128-.983l6.028-1.615a.505.505 0 01.612.354.5.5 0 01-.354.613l-6.028 1.615a.578.578 0 01-.13.016zM24.809 57.89a.5.5 0 01-.251-.933l5.405-3.12a.5.5 0 01.5.866l-5.405 3.12a.498.498 0 01-.249.067zM28.758 61.106a.5.5 0 01-.354-.853l4.413-4.413a.5.5 0 01.707.707l-4.413 4.413a.494.494 0 01-.353.146zM33.404 63.191a.5.5 0 01-.433-.75l3.121-5.405a.5.5 0 11.866.5l-3.121 5.405a.497.497 0 01-.433.25zM38.434 64.003a.501.501 0 01-.484-.63l1.615-6.028a.506.506 0 01.612-.354.501.501 0 01.354.613l-1.615 6.028a.501.501 0 01-.482.371zM58.503 45.067a.534.534 0 01-.13-.017l-6.028-1.615a.501.501 0 01-.354-.613.508.508 0 01.612-.354l6.028 1.615a.501.501 0 01-.128.984zM57.985 40h-6.241a.5.5 0 010-1h6.241a.5.5 0 010 1zM50.145 36.854a.5.5 0 01-.128-.983l6.028-1.615a.507.507 0 01.612.354.5.5 0 01-.354.613l-6.028 1.615a.538.538 0 01-.13.016zM37.952 31.025a.501.501 0 01-.484-.63l1.615-6.028a.506.506 0 01.612-.354.501.501 0 01.354.613l-1.615 6.028a.498.498 0 01-.482.371z"/>
  <path fill="#fefdef" d="M85 87H45a7 7 0 01-7-7V50a7 7 0 017-7h40a7 7 0 017 7v30a7 7 0 01-7 7z"/>
  <path fill="#ceccbe" d="M92 52v-2a7 7 0 00-7-7H45a7 7 0 00-7 7v2h54z"/>
  <path fill="#1f212b" d="M85 88H45c-4.411 0-8-3.589-8-8V50c0-4.411 3.589-8 8-8h40c4.411 0 8 3.589 8 8v30c0 4.411-3.589 8-8 8zM45 44c-3.309 0-6 2.691-6 6v30c0 3.309 2.691 6 6 6h40c3.309 0 6-2.691 6-6V50c0-3.309-2.691-6-6-6H45z"/>
  <path fill="#1f212b" d="M76.5 53h-38a.5.5 0 010-1h38a.5.5 0 010 1zM84.5 53h-5a.5.5 0 010-1h5a.5.5 0 010 1zM88.5 53h-1a.5.5 0 010-1h1a.5.5 0 010 1zM48.5 67a.502.502 0 01-.354-.146l-3-3a.5.5 0 01.707-.707l2.646 2.646 6.646-6.646a.5.5 0 01.707.707l-7 7A.494.494 0 0148.5 67zM48.5 80a.502.502 0 01-.354-.146l-3-3a.5.5 0 01.707-.707l2.646 2.646 6.646-6.646a.5.5 0 01.707.707l-7 7A.494.494 0 0148.5 80zM84.5 61h-25a.5.5 0 010-1h25a.5.5 0 010 1zM73.5 66h-14a.5.5 0 010-1h14a.5.5 0 010 1zM75.5 74h-16a.5.5 0 010-1h16a.5.5 0 010 1zM73.5 79h-14a.5.5 0 010-1h14a.5.5 0 010 1zM85.5 74h-7a.5.5 0 010-1h7a.5.5 0 010 1z"/>
</svg>
