<svg xmlns="http://www.w3.org/2000/svg" fill="#12529e" viewBox="0 0 100 100">
  <path d="M18 15c-3.309 0-6 2.691-6 6l.14 42.984C12.14 67.294 14.692 70 18 70h22.125v5.104c0 1.56-1.964 2.896-4.14 2.896h-.212c-1.882 0-3.412 1.57-3.412 3.5s1.531 3.5 3.412 3.5h32.96c1.88 0 3.412-1.572 3.412-3.502 0-1.93-1.532-3.5-3.413-3.5h-1.85c-2.105 0-3.884-1.331-3.884-2.908V70H85c3.308 0 6-2.692 6-6V21c0-3.309-2.691-6-6-6H18zm0 2h67c2.205 0 4.125 1.778 4.125 3.984l-.102 35.02H14V21c0-2.206 1.794-4 4-4zm32.469 2a.471.471 0 00-.469.469v.062c0 .257.212.469.469.469h2.062a.471.471 0 00.469-.469v-.062a.471.471 0 00-.469-.469H50.47zM16 22v16.531c0 .257.212.469.469.469h.062a.471.471 0 00.469-.469V23h67.531a.471.471 0 00.469-.469v-.062a.471.471 0 00-.469-.469H16zm47.5 3a6.508 6.508 0 00-6.5 6.5c0 2.22 1.12 4.18 2.822 5.354C55.76 38.802 53 43.828 53 49.5a.5.5 0 001 0c0-5.61 2.843-10.52 6.934-12.031a6.458 6.458 0 005.132 0C70.157 38.98 73 43.89 73 49.5a.5.5 0 001 0c0-5.672-2.76-10.698-6.822-12.646A6.497 6.497 0 0070 31.5c0-3.584-2.916-6.5-6.5-6.5zm-33 1a.5.5 0 00-.5.5v5a.5.5 0 00.5.5h12a.5.5 0 00.5-.5v-5a.5.5 0 00-.5-.5h-12zm33 0c3.033 0 5.5 2.467 5.5 5.5S66.533 37 63.5 37a5.506 5.506 0 01-5.5-5.5c0-3.033 2.467-5.5 5.5-5.5zm22.969 0a.471.471 0 00-.469.469V53H17v-2.531a.471.471 0 00-.469-.469h-.062a.471.471 0 00-.469.469V54h71V26.469a.471.471 0 00-.469-.469h-.062zM31 27h11v4H31v-4zm-.5 8a.5.5 0 00-.5.5v5a.5.5 0 00.5.5h12a.5.5 0 00.5-.5v-5a.5.5 0 00-.5-.5h-12zm.5 1h11v4H31v-4zm-14.531 7a.471.471 0 00-.469.469v3.062c0 .257.212.469.469.469h.062a.471.471 0 00.469-.469V43.47a.471.471 0 00-.469-.469h-.062zM30.5 44a.5.5 0 00-.5.5v5a.5.5 0 00.5.5h12a.5.5 0 00.5-.5v-5a.5.5 0 00-.5-.5h-12zm.5 1h11v4H31v-4zM14 56.996h75.02L89 64c0 2.206-1.794 4-4 4H18c-2.206 0-4-1.794-4-4v-7.004zm38 2.008A3 3 0 0049.004 62 3 3 0 0052 64.996 3 3 0 0054.996 62 3 3 0 0052 59.004zm0 .992c1.105 0 2.004.899 2.004 2.004A2.006 2.006 0 0152 64.004 2.006 2.006 0 0149.996 62c0-1.105.899-2.004 2.004-2.004zM42 70h19.125v5.092c0 2.707 2.514 4.908 5.758 4.908h1.85c.778 0 1.412.673 1.412 1.5S69.51 83 68.732 83H35.773c-.779 0-1.412-.673-1.412-1.5s.634-1.5 1.412-1.5h.211c.145 0 .286-.01.428-.018.03.006.057.018.088.018h13a.5.5 0 000-1h-9.906C41.046 78.109 42 76.708 42 75.121V70zm9.5 9a.5.5 0 000 1h2a.5.5 0 000-1h-2z"/>
</svg>
