<svg xmlns="http://www.w3.org/2000/svg" viewBox="0 0 100 100">
  <path fill="#a3a3cd" d="M90 65a6 6 0 01-6 6H68v-1H16a5 5 0 01-5-5V21a5 5 0 015-5h68a5 5 0 015 5v13h1v31z"/>
  <path fill="#d0d0e3" d="M85.5 54h-71a.5.5 0 01-.5-.5v-31a.5.5 0 01.5-.5h71a.5.5 0 01.5.5v31a.5.5 0 01-.5.5z"/>
  <path fill="#fefdef" d="M11 56.5V65a5 5 0 005 5h52v1h16a6 6 0 006-6v-8H68.5v-.5H11z"/>
  <circle cx="50" cy="62" r="2.5" fill="#ceccbe"/>
  <path fill="#ceccbe" d="M66.323 79H65a5 5 0 01-5-5v-3.959c0-.023-20-.023-20 0V74a5 5 0 01-5 5h-1.323c-1.328 0-2.553.953-2.668 2.276A2.502 2.502 0 0033.5 84h33a2.5 2.5 0 002.49-2.724C68.875 79.953 67.65 79 66.323 79z"/>
  <g fill="#1f212b">
    <path d="M68 71H16c-3.309 0-6-2.691-6-6V21c0-3.309 2.691-6 6-6h68c3.309 0 6 2.691 6 6v13a1 1 0 11-2 0V21c0-2.206-1.794-4-4-4H16c-2.206 0-4 1.794-4 4v44c0 2.206 1.794 4 4 4h52a1 1 0 110 2z"/>
    <path d="M68.5 57H11a.5.5 0 010-1h57.5a.5.5 0 010 1zM67.5 54h-53a.5.5 0 01-.5-.5v-3a.5.5 0 011 0V53h52.5a.5.5 0 010 1zM14.5 47a.5.5 0 01-.5-.5v-3a.5.5 0 011 0v3a.5.5 0 01-.5.5zM14.5 39a.5.5 0 01-.5-.5v-16a.5.5 0 01.5-.5h71a.5.5 0 01.5.5v7a.5.5 0 01-1 0V23H15v15.5a.5.5 0 01-.5.5zM51.5 20h-3a.5.5 0 010-1h3a.5.5 0 010 1zM50 65c-1.654 0-3-1.346-3-3s1.346-3 3-3 3 1.346 3 3-1.346 3-3 3zm0-5c-1.103 0-2 .897-2 2s.897 2 2 2 2-.897 2-2-.897-2-2-2zM66.5 85h-33a3.508 3.508 0 01-2.58-1.135 3.517 3.517 0 01-.906-2.676C30.169 79.401 31.779 78 33.678 78H35c2.206 0 4-1.794 4-4v-4a1 1 0 011-1h20a1 1 0 011 1v4c0 2.206 1.794 4 4 4h1.322c1.898 0 3.509 1.401 3.664 3.189a3.519 3.519 0 01-.906 2.676A3.508 3.508 0 0166.5 85zm-32.822-5c-.856 0-1.606.611-1.672 1.363-.037.428.101.837.388 1.15.288.314.68.487 1.106.487h33c.426 0 .818-.173 1.106-.487.287-.313.425-.722.388-1.15-.065-.752-.815-1.363-1.672-1.363H65c-3.309 0-6-2.691-6-6v-3H41v3c0 3.309-2.691 6-6 6h-1.322z"/>
    <path d="M48.499 80H33.5a.5.5 0 010-1h14.999a.5.5 0 010 1zM53.5 80h-2a.5.5 0 010-1h2a.5.5 0 010 1z"/>
  </g>
  <path fill="#eaa871" d="M72 61l2.659 20.388A3 3 0 0077.634 84h12.732a3 3 0 002.975-2.612L96 61H72z"/>
  <path fill="#fdd4b2" d="M72.5 65.5H95v3H72.5z"/>
  <path fill="#70b570" d="M91.5 61.5s5-5 5-17c-7 2-14 8-16 16"/>
  <path fill="#8cc78c" d="M84.5 52.575V52.5c-3-8-11-12-11-12s-2 3-2 9c0 8 5 12 5 12h3.875l.125-1c.737-2.947 2.156-5.62 4-7.925z"/>
  <path fill="#a0d2a1" d="M83.5 33.5c-4 6-5 10.5-5 10.5v.05c2.218 1.985 4.629 4.795 6 8.45v.109a24.24 24.24 0 014.5-4.356V48s.5-6.5-5.5-14.5z"/>
  <g fill="#1f212b">
    <path d="M90.366 85H77.634a4.01 4.01 0 01-3.966-3.482L71.009 61.13a.995.995 0 01.24-.789A.995.995 0 0172 60h24a.998.998 0 01.991 1.129l-2.659 20.388A4.01 4.01 0 0190.366 85zM73.139 62l2.512 19.259A2.005 2.005 0 0077.634 83h12.732a2.005 2.005 0 001.983-1.741L94.861 62H73.139z"/>
    <path d="M72.597 65h22.825v1H72.597zM72.979 68H95v1H72.979zM89.498 48.039l-.997-.076c.005-.062.381-6.114-4.978-13.585-3.579 5.555-4.526 9.689-4.535 9.731l-.977-.217c.042-.188 1.066-4.66 5.072-10.669a.502.502 0 01.816-.023c6.044 8.058 5.621 14.565 5.599 14.839z"/>
    <path d="M83.5 46a.5.5 0 01-.5-.5v-8a.5.5 0 011 0v8a.5.5 0 01-.5.5zM78.5 56a.5.5 0 01-.416-.223c-4.021-6.032-5.039-14.85-5.081-15.222a.5.5 0 01.994-.11c.01.089 1.035 8.952 4.919 14.778A.5.5 0 0178.5 56zM89.774 55a.5.5 0 01-.404-.794c3.349-4.609 6.673-9.918 6.706-9.971a.5.5 0 01.847.53c-.033.053-3.376 5.392-6.745 10.029a.495.495 0 01-.404.206zM87.5 58a.5.5 0 01-.391-.813c.256-.319.515-.651.777-.993a.5.5 0 01.793.61c-.267.346-.529.683-.789 1.007a.496.496 0 01-.39.189z"/>
    <path d="M75.121 60.833C73.582 59.105 71 55.337 71 49.5c0-6.082 1.999-9.15 2.084-9.277a.5.5 0 01.64-.17c.334.167 8.211 4.181 11.244 12.271l-.936.352c-2.509-6.69-8.678-10.558-10.339-11.501C73.188 42.157 72 44.95 72 49.5c0 5.505 2.423 9.046 3.867 10.667l-.746.666z"/>
    <path d="M92.71 60.79l-.814-.579c1.202-1.693 3.959-6.495 4.099-15.034-6.139 1.981-13.002 7.418-15.009 15.445l-.971-.242c2.174-8.696 9.777-14.482 16.348-16.36a.5.5 0 01.637.48c0 8.918-2.687 14.034-4.29 16.29z"/>
  </g>
</svg>
