<svg xmlns="http://www.w3.org/2000/svg" viewBox="0 0 100 100">
  <path fill="#f15b6c" d="M77 40c0 16-27 47-27 47S23 56 23 40c0-14.912 12.088-27 27-27s27 12.088 27 27z"/>
  <circle cx="50" cy="40" r="21" fill="#fefdef"/>
  <path fill="#78a1d1" d="M45.636 52.545l-4.065 1.332a5.193 5.193 0 00-3.02 3.119A20.372 20.372 0 0050 60.5c4.238 0 8.18-1.293 11.452-3.505l-.003-.004a5.19 5.19 0 00-3.02-3.114l-4.065-1.332s-1.364-.523-1.364-2v-.151c1.315-.66 4-2.894 4-5.311v-.272c.624-.188.971-.61 1.122-1.09.138-.427.878-2.917.878-3.114 0-.391-.098-.581-.243-.72a73.567 73.567 0 00-.757-.553V36a8 8 0 00-16 0v3.334s-.735.532-.757.553c-.145.138-.243.329-.243.72 0 .197.74 2.687.878 3.115.151.48.499.902 1.122 1.09v.272c0 2.416 2.685 4.65 4 5.311v.151c0 1.477-1.364 1.999-1.364 1.999z"/>
  <g fill="#1f212b">
    <path d="M50 88a1 1 0 01-.754-.343C48.134 86.379 22 56.188 22 40c0-15.439 12.561-28 28-28s28 12.561 28 28c0 16.188-26.134 46.379-27.246 47.657A1 1 0 0150 88zm0-74c-14.337 0-26 11.664-26 26 0 13.962 21.65 40.308 26 45.459C54.35 80.308 76 53.962 76 40c0-14.336-11.663-26-26-26z"/>
    <path d="M50 61c-11.579 0-21-9.42-21-21s9.421-21 21-21c3.427 0 6.702.81 9.733 2.407a.5.5 0 11-.467.884A19.683 19.683 0 0050 20c-11.028 0-20 8.972-20 20s8.972 20 20 20c10.937 0 19.711-8.571 19.975-19.512.007-.276.251-.467.512-.488a.5.5 0 01.488.512C70.697 52 61.484 61 50 61zm19.431-27a.502.502 0 01-.475-.341 19.865 19.865 0 00-1.249-2.927.5.5 0 01.887-.464c.521.994.962 2.028 1.312 3.073a.501.501 0 01-.475.659zm-3.215-6a.498.498 0 01-.396-.195 20.157 20.157 0 00-3.979-3.903.499.499 0 11.596-.803 21.195 21.195 0 014.177 4.097.5.5 0 01-.398.804z"/>
    <path d="M39.491 57.333l-1.889-.656a6.183 6.183 0 013.605-3.73l4.117-1.351c.012-.008.441-.202.608-.664-1.506-.968-3.709-3.042-3.918-5.476a2.586 2.586 0 01-1.092-1.433c-.005-.024-.922-2.953-.922-3.417 0-.617.181-1.089.554-1.444.043-.042.059-.058.446-.339V36c0-4.962 4.037-9 9-9s9 4.038 9 9v2.823c.389.282.405.299.456.348.363.347.544.819.544 1.435 0 .464-.917 3.393-.926 3.421a2.57 2.57 0 01-1.09 1.427c-.209 2.434-2.412 4.508-3.918 5.476.169.462.608.661.669.686l4.005 1.311c1.745.679 3.058 2.033 3.652 3.733l-1.887.661a4.187 4.187 0 00-2.44-2.513l-4.014-1.314c-.79-.301-2.051-1.24-2.051-2.949v-.151a1 1 0 01.551-.894C53.716 48.916 56 46.958 56 45.083v-.272c0-.441.289-.83.711-.958.245-.074.386-.208.457-.434.152-.471.712-2.373.825-2.861-.172-.121-.579-.416-.579-.416a.992.992 0 01-.414-.809V36c0-3.86-3.141-7-7-7s-7 3.14-7 7v3.333a1 1 0 01-.414.81l-.578.42c.115.495.673 2.387.822 2.851.073.232.214.366.459.439.422.128.711.518.711.959v.272c0 1.874 2.284 3.832 3.449 4.417a.998.998 0 01.551.893v.151c0 1.708-1.261 2.648-2.005 2.934l-4.112 1.349c-1.1.43-1.99 1.35-2.392 2.505z"/>
  </g>
</svg>
