<svg xmlns="http://www.w3.org/2000/svg" fill="#12529e" viewBox="0 0 100 100">
  <path d="M16 15c-3.302 0-6 2.698-6 6v44c0 3.302 2.698 6 6 6h23v3c0 2.22-1.78 4-4 4h-1.322c-1.807 0-3.5 1.297-3.664 3.19C29.837 83.235 31.475 85 33.5 85h33c2.025 0 3.665-1.763 3.486-3.81-.164-1.893-1.858-3.19-3.664-3.19H65c-2.22 0-4-1.78-4-4v-3h7a1 1 0 100-2H16c-2.22 0-4-1.78-4-4v-8h56.5a.5.5 0 100-1H12V21c0-2.22 1.78-4 4-4h68c2.22 0 4 1.78 4 4v13a1 1 0 102 0V21c0-3.302-2.698-6-6-6H16zm32.5 4a.5.5 0 100 1h3a.5.5 0 100-1h-3zm-34 3a.5.5 0 00-.5.5v16a.5.5 0 101 0V23h70v6.5a.5.5 0 101 0v-7a.5.5 0 00-.5-.5h-71zm69.014 11a.5.5 0 00-.43.223c-3.102 4.653-4.413 8.397-4.863 9.91-2.286-1.928-4.172-2.911-4.409-3.031a.5.5 0 00-.326-.11.5.5 0 00-.45.319c-.071.11-.532.846-1.01 2.28C71.51 44.14 71 46.445 71 49.5c0 5.044 1.935 8.54 3.44 10.5H72a1 1 0 00-.992 1.129l2.66 20.389A4.012 4.012 0 0077.635 85h12.73a4.012 4.012 0 003.967-3.482l2.66-20.39A1 1 0 0096 60h-2.771c1.521-2.436 3.757-7.385 3.769-15.438a.5.5 0 00-.523-.568.5.5 0 00-.192.05c-2.328.676-4.644 1.783-6.787 3.245-.019-.74-.11-1.974-.51-3.654-.639-2.685-2.043-6.378-5.086-10.436a.5.5 0 00-.386-.199zm-.01 1.473c2.598 3.658 3.936 6.982 4.51 9.392.61 2.565.488 4.096.488 4.096l.039.004a24.817 24.817 0 00-3.88 3.637c-1.39-3.277-3.554-5.86-5.604-7.735.158-.608 1.191-4.303 4.447-9.394zm-.012 2.52A.5.5 0 0083 37.5v8a.5.5 0 101 0v-8a.5.5 0 00-.508-.508zm-9.342 4.495c1.659.94 7.269 4.49 9.795 10.983-1.724 2.208-3.062 4.742-3.818 7.529h-4.4C74.305 58.356 72 54.885 72 49.5c0-2.944.49-5.14.975-6.592.112-.338.187-.487.273-.697.484 2.892 1.8 9.013 4.836 13.566a.5.5 0 10.832-.554c-3.211-4.817-4.422-11.457-4.766-13.735zm-59.658 1.504A.5.5 0 0014 43.5v3a.5.5 0 101 0v-3a.5.5 0 00-.508-.508zm80.75 2.537a170.505 170.505 0 01-5.873 8.678.5.5 0 10.809.586 168.853 168.853 0 005.722-8.438C95.554 53.75 93.32 58.118 92.033 60H81.166c2-6.948 7.913-12.23 14.076-14.47zm-80.75 4.463A.5.5 0 0014 50.5v3a.5.5 0 00.5.5h53a.5.5 0 100-1H15v-2.5a.5.5 0 00-.508-.508zm73.764 6.002a.5.5 0 00-.37.201c-.261.342-.521.673-.777.992a.5.5 0 00.782.626c.258-.325.523-.662.789-1.008a.5.5 0 00-.373-.81.5.5 0 00-.051 0zM50 59c-.958 0-1.74.377-2.248.95C47.244 60.52 47 61.263 47 62c0 .736.244 1.479.752 2.05.508.573 1.29.95 2.248.95.958 0 1.74-.377 2.248-.95.508-.571.752-1.314.752-2.05 0-.736-.244-1.479-.752-2.05-.508-.573-1.29-.95-2.248-.95zm0 1c.708 0 1.177.248 1.502.613.325.366.498.873.498 1.387s-.173 1.021-.498 1.387c-.325.365-.794.613-1.502.613s-1.177-.248-1.502-.613C48.173 63.02 48 62.514 48 62s.173-1.021.498-1.387c.325-.365.794-.613 1.502-.613zm23.139 2H94.86l-.39 3H73.529l-.39-3zm.521 4h20.68l-.262 2H73.922l-.262-2zm.39 3h19.9l-1.6 12.258A1.99 1.99 0 0190.365 83h-12.73a1.99 1.99 0 01-1.985-1.742L74.05 69zM41 71h18v3c0 3.302 2.698 6 6 6h1.322c.848 0 1.607.61 1.672 1.363A1.48 1.48 0 0166.5 83h-33a1.482 1.482 0 01-1.494-1.639c.066-.753.823-1.361 1.672-1.361h14.82a.5.5 0 100-1H38.305A6.004 6.004 0 0041 74v-3zm10.5 8a.5.5 0 100 1h2a.5.5 0 100-1h-2z"/>
</svg>
