<svg xmlns="http://www.w3.org/2000/svg" fill="#12529e" viewBox="0 0 100 100">
  <path d="M50 16C27.393 16 9 30.355 9 48c0 8.573 4.257 16.594 12 22.633-.001 6.46-.077 12.03-3.707 15.66A1 1 0 0018 88c5.156 0 14.585-1.219 20.6-9.252A51.936 51.936 0 0050 80c22.607 0 41-14.355 41-32S72.607 16 50 16zm0 2c21.505 0 39 13.458 39 30S71.505 78 50 78c-3.952 0-7.85-.454-11.588-1.348a1.003 1.003 0 00-1.05.399c-4.734 6.739-12.117 8.517-17.184 8.873C23 81.737 23 76.12 23 70.219v-.078a.994.994 0 00-.395-.795C15.122 63.659 11 56.078 11 48c0-16.542 17.495-30 39-30zm0 3c-19.851 0-36 12.112-36 27 0 5.295 2.049 10.423 5.924 14.83a.497.497 0 00.705.047.502.502 0 00.045-.707C16.962 57.947 15 53.048 15 48c0-14.337 15.701-26 35-26 9.17 0 17.847 2.63 24.43 7.404a.5.5 0 10.586-.808C68.264 23.696 59.38 21 50 21zm26.455 8.887a.5.5 0 00-.275.883c.238.198.47.399.699.603a.5.5 0 00.666-.744 29.355 29.355 0 00-.725-.627.5.5 0 00-.365-.115zM49.285 31c-2.4 0-4.38.508-5.941 1.521C41.782 33.537 41 34.575 41 35.635c0 .59.207 1.058.621 1.396.414.342.862.514 1.34.514.382 0 .749-.148 1.1-.443.35-.295.668-.628.955-1.002.287-.372.788-.707 1.505-1.002.718-.295 1.588-.444 2.608-.444 1.758 0 3.134.406 4.127 1.215.993.81 1.488 1.945 1.488 3.41a6.39 6.39 0 01-.306 1.994 5.307 5.307 0 01-.963 1.74c-.44.535-.826.964-1.155 1.284-.329.322-.83.725-1.502 1.213-.672.489-1.11.824-1.316 1.008-1.86 1.526-2.791 4.03-2.791 7.51 0 .794.158 1.343.473 1.648.315.305.84.459 1.576.459 1.47 0 2.207-.473 2.207-1.418 0-1.735.109-3.031.33-3.885.222-.852.807-1.689 1.754-2.512.125-.122.516-.462 1.172-1.027.656-.565 1.2-1.084 1.632-1.555.432-.473.921-1.067 1.465-1.783a8.16 8.16 0 001.248-2.377A8.574 8.574 0 0059 38.86c0-2.284-.867-4.165-2.598-5.642C54.67 31.737 52.296 31 49.285 31zm29.5 1a.5.5 0 00-.365.85c.312.32.614.647.906.98.098.112.236.17.375.17a.5.5 0 00.377-.828 27.239 27.239 0 00-.941-1.02.498.498 0 00-.352-.152zm2.211 2.506a.5.5 0 00-.467.797C83.454 39.165 85 43.555 85 48c0 14.337-15.701 26-35 26-1.16 0-2.326-.043-3.465-.127a.49.49 0 00-.533.463.5.5 0 00.46.535c1.164.085 2.354.129 3.538.129 19.851 0 36-12.112 36-27 0-4.665-1.616-9.265-4.674-13.3a.496.496 0 00-.33-.194zM48.814 59.973c-.796 0-1.465.244-2.007.734-.541.487-.813 1.08-.813 1.777 0 .672.272 1.26.813 1.76.542.504 1.21.756 2.005.756.819 0 1.526-.252 2.124-.756.596-.502.892-1.088.892-1.76 0-.698-.296-1.289-.892-1.777-.597-.489-1.304-.734-2.122-.734z"/>
</svg>
