<svg xmlns="http://www.w3.org/2000/svg" viewBox="0 0 100 100">
  <path fill="#fefdef" d="M66.201 24.543l3.014-.045c.172-6.12-7.238-5.746-7.238-5.746l-36.496-.004c-2.799 0-5.114 3.041-5.114 5.53v31.419l-7.257-.021c-.006.261.003 15.006.026 15.241.475 4.85 6.836 4.307 6.836 4.307l42.47.03c2.289.212 3.759-2.504 3.759-4.012V24.543"/>
  <path fill="none" d="M41.462 24.822l27.753-.042c.173-6.183-7.272-6.029-7.272-6.029l-36.697-.004c-2.815 0-4.785 3.122-4.785 5.637l-.031 42.344s-.094 2.406-2.469 3.469"/>
  <path fill="none" d="M48.384 75.803l-28.676.007s-7.281.241-7.277-4.317c0-.238.057-15.202 0-15.719l7.594-.031"/>
  <path fill="#a1d3a2" d="M31.134 45.134l-5.658 7.679 5.672.077 1.754 5.395 5.61-7.614m-7.364 2.173l3.081-4.181m15.015-3.529l5.659 7.679-5.672.077-1.754 5.395-5.61-7.614m7.364 2.173l-3.005-4.077"/>
  <path fill="#f37e98" d="M40.621 31.359a9.801 9.801 0 100 19.602 9.801 9.801 0 100-19.602z"/>
  <path fill="#eddc67" d="M40.189 35.824l1.622 3.285 3.625.527-2.623 2.557.619 3.611-3.243-1.705-3.242 1.705.619-3.611-2.623-2.557 3.625-.527zm23.287 36.412v4.045c0 1.112 5.371 2.013 11.996 2.013s11.996-.901 11.996-2.013v-4.045H63.476z"/>
  <path fill="#fef6aa" d="M75.472 70.223a11.996 2.013 0 100 4.026 11.996 2.013 0 100-4.026z"/>
  <path fill="#eddc67" d="M63.476 64.971v4.045c0 1.112 5.371 2.013 11.996 2.013s11.996-.901 11.996-2.013v-4.045H63.476z"/>
  <path fill="#fef6aa" d="M75.472 62.967a11.996 2.013 0 100 4.026 11.996 2.013 0 100-4.026z"/>
  <path fill="#eddc67" d="M63.476 58.285v4.045c0 1.112 5.371 2.013 11.996 2.013s11.996-.901 11.996-2.013v-4.045H63.476z"/>
  <path fill="#fef6aa" d="M75.472 56.281a11.996 2.013 0 100 4.026 11.996 2.013 0 100-4.026z"/>
  <path fill="#eddc67" d="M63.476 51.599v4.045c0 1.112 5.371 2.013 11.996 2.013s11.996-.901 11.996-2.013v-4.045H63.476z"/>
  <path fill="#fef6aa" d="M75.472 49.595a11.996 2.013 0 100 4.026 11.996 2.013 0 100-4.026z"/>
  <path fill="#eddc67" d="M52.149 74.269v4.045c0 1.112 5.371 2.013 11.996 2.013s11.996-.901 11.996-2.013v-4.045H52.149z"/>
  <path fill="#fef6aa" d="M64.146 72.265a11.996 2.013 0 100 4.026 11.996 2.013 0 100-4.026z"/>
  <path fill="#eddc67" d="M52.149 67.581v4.045c0 1.112 5.371 2.013 11.996 2.013s11.996-.901 11.996-2.013v-4.045H52.149z"/>
  <path fill="#fef6aa" d="M64.146 65.577a11.996 2.013 0 100 4.026 11.996 2.013 0 100-4.026z"/>
  <path fill="#eddc67" d="M52.149 61.206v4.045c0 1.112 5.371 2.013 11.996 2.013s11.996-.901 11.996-2.013v-4.045H52.149z"/>
  <path fill="#fef6aa" d="M64.146 59.202a11.996 2.013 0 100 4.026 11.996 2.013 0 100-4.026z"/>
  <path fill="#eddc67" d="M63.476 44.913v4.045c0 1.112 5.371 2.013 11.996 2.013s11.996-.901 11.996-2.013v-4.045H63.476z"/>
  <path fill="#fef6aa" d="M75.472 42.909a11.996 2.013 0 100 4.026 11.996 2.013 0 100-4.026z"/>
  <path fill="#eddc67" d="M63.476 38.228v4.045c0 1.112 5.371 2.013 11.996 2.013s11.996-.901 11.996-2.013v-4.045H63.476z"/>
  <path fill="#fef6aa" d="M75.472 36.224a11.996 2.013 0 100 4.026 11.996 2.013 0 100-4.026z"/>
  <path fill="#1f212b" d="M47.957 74.984l-28.235.024c-1.055.034-4.09-.347-5.487-1.697-.495-.478-.735-1.061-.735-1.782l.001-.518c.031-9.004.027-12.647.016-14.15l6.522-.052v9.482c-.004.073-.205 1.712-1.933 2.484a.997.997 0 10.817 1.821c2.881-1.287 3.026-4.171 3.032-4.331l-.005-41.763c0-2.067 1.687-4.6 3.753-4.6l36.306.006c.025-.016 3.293.021 5.037 1.773.594.597.975 1.492 1.102 2.382l-26.188.062c-.552.001-.976.26-.975.811a.998.998 0 001 .996h.001l24.129-.036V32c0 .552.317.917.869.917s1-.446 1-.998v-6.026l1.189-.002a1 1 0 00.998-.97c.053-1.89-.521-3.454-1.708-4.647-2.371-2.381-6.333-2.33-6.479-2.325l-36.271-.005c-3.279 0-5.629 3.348-5.629 6.442l-.032 30.644-7.559-.163a1.01 1.01 0 00-.726.328 1.023 1.023 0 00-.266.757c.014.21.042 2.097-.002 15.05l.001.525c-.001 1.273.451 2.354 1.343 3.217 2.024 1.957 5.767 2.086 6.709 2.086.122 0 .197-.002.215-.003l28.219-.008a1 1 0 001-.998c0-.551-.476-.837-1.029-.837z"/>
  <path fill="#1f212b" d="M55.395 53.542a.503.503 0 00-.045-.52l-5.358-7.271c.631-1.349.995-2.847.995-4.432 0-5.79-4.71-10.5-10.5-10.5s-10.5 4.71-10.5 10.5c0 1.421.287 2.776.801 4.014l-.011.01-5.659 7.68a.5.5 0 00.396.797l5.314.071 1.643 5.055a.498.498 0 00.476.346.498.498 0 00.402-.203l5.463-7.415c.547.088 1.103.146 1.675.146.417 0 .826-.031 1.231-.079.008.014.01.029.02.042l5.382 7.305a.5.5 0 00.878-.143l1.643-5.055 5.314-.071a.5.5 0 00.44-.277zm-24.12-7.19a10.538 10.538 0 002.26 2.815l-2.743 3.723-4.292-.058 4.775-6.48zm1.846 11.359l-1.42-4.369 2.614-3.547a10.458 10.458 0 003.425 1.647l-4.619 6.269zm-2.135-16.392c0-5.238 4.262-9.5 9.5-9.5s9.5 4.262 9.5 9.5-4.262 9.5-9.5 9.5-9.5-4.261-9.5-9.5zm16.361 16.392l-4.538-6.159a10.447 10.447 0 003.522-1.515l2.435 3.305-1.419 4.369zm2.328-4.821l-2.542-3.45a10.564 10.564 0 002.336-2.712l4.498 6.104-4.292.058z"/>
  <path fill="#1f212b" d="M45.552 39.486l-3.365-.489-1.505-3.05a.5.5 0 00-.896 0l-1.505 3.05-3.365.489a.5.5 0 00-.278.854l2.435 2.373-.575 3.352a.5.5 0 00.726.527l3.01-1.583 3.01 1.583a.493.493 0 00.527-.038.5.5 0 00.199-.489l-.575-3.352 2.436-2.373a.5.5 0 00-.279-.854zm-3.044 2.694a.502.502 0 00-.144.443l.448 2.612-2.346-1.233a.505.505 0 00-.466 0l-2.346 1.233.448-2.612a.5.5 0 00-.144-.443l-1.898-1.85 2.623-.381a.5.5 0 00.376-.273l1.173-2.377 1.173 2.377a.5.5 0 00.376.273l2.623.381-1.896 1.85zm45.478.184v-4.045c0-2.43-11.221-2.5-12.5-2.5s-12.5.07-12.5 2.5v4.045c0 .588.654 1.038 1.66 1.383-.895.306-1.502.696-1.623 1.191a.47.47 0 00-.037.18v4.045c0 .588.654 1.037 1.658 1.383-.889.304-1.489.691-1.617 1.182a.484.484 0 00-.041.191v4.045c0 .588.653 1.037 1.657 1.382-1.004.343-1.657.789-1.657 1.373 0 .041.01.08.017.119-3.395.078-11.017.478-11.017 2.481v4.045c0 .506.486.909 1.259 1.231-.774.321-1.259.721-1.259 1.224v4.045c0 .507.488.91 1.264 1.233-.775.32-1.264.719-1.264 1.222v4.045c0 2.443 11.221 2.514 12.5 2.514 1.186 0 10.905-.062 12.322-2.016 3.302-.069 11.178-.449 11.178-2.498v-4.045c0-.585-.654-1.033-1.66-1.376 1.002-.345 1.66-.792 1.66-1.379v-4.045a.482.482 0 00-.04-.19c-.127-.492-.734-.88-1.628-1.184 1.006-.345 1.668-.792 1.668-1.381v-4.045c0-.584-.656-1.029-1.659-1.372 1.005-.345 1.659-.795 1.659-1.383v-4.045c0-.584-.654-1.03-1.658-1.372 1.004-.345 1.658-.795 1.658-1.383v-4.045c0-.584-.657-1.029-1.66-1.372 1.006-.345 1.66-.794 1.66-1.383zm-12.5-5.545c7.167 0 10.949.961 11.468 1.5-.519.539-4.301 1.5-11.468 1.5s-10.949-.961-11.468-1.5c.519-.539 4.301-1.5 11.468-1.5zm-11 23c7.167 0 10.949.961 11.468 1.5-.519.539-4.301 1.5-11.468 1.5s-10.949-.961-11.468-1.5c.519-.539 4.301-1.5 11.468-1.5zm-11.5 5.545v-2.935c2.776 1.342 10.455 1.39 11.5 1.39 1.046 0 8.73-.048 11.503-1.392l.008 2.883c-.293.529-4.082 1.567-11.511 1.567s-11.218-1.037-11.5-1.513zm2.001 1.746c3.42.736 8.65.768 9.499.768.849 0 6.076-.032 9.497-.767 1.115.247 1.777.507 1.972.709-.519.539-4.301 1.5-11.468 1.5s-10.949-.961-11.468-1.5c.193-.202.853-.463 1.968-.71zm-2.001 4.754v-2.935c2.776 1.342 10.455 1.39 11.5 1.39 1.046 0 8.73-.048 11.503-1.392l.008 2.883c-.293.529-4.082 1.567-11.511 1.567s-11.218-1.037-11.5-1.513zm2.002 1.746c3.42.736 8.649.768 9.498.768.849 0 6.075-.032 9.495-.767 1.115.247 1.779.507 1.973.708-.519.539-4.301 1.5-11.468 1.5s-10.949-.961-11.468-1.5c.194-.201.856-.461 1.97-.709zm9.498 6.268c-7.429 0-11.218-1.038-11.5-1.514v-2.935c2.776 1.342 10.455 1.39 11.5 1.39 1.046 0 8.73-.048 11.503-1.392l.008 2.883c-.293.53-4.082 1.568-11.511 1.568zm12.5-2.019v-3.06c2.649-.062 7.835-.321 10.003-1.38l.008 2.891c-.272.493-3.58 1.421-10.011 1.549zm9.969-5.54c-.486.505-3.851 1.376-10.163 1.484-.208-.271-.578-.506-1.065-.708.672-.28 1.125-.621 1.232-1.038 1.812-.042 4.831-.177 7.262-.602 1.587.29 2.498.62 2.734.864zm-9.969-1.261v-3.059c2.648-.061 7.835-.321 10.003-1.38l.008 2.892c-.272.491-3.582 1.418-10.011 1.547zm9.969-5.539c-.494.513-3.961 1.403-10.47 1.489a3.556 3.556 0 00-.758-.412c.774-.323 1.26-.726 1.26-1.232v-.107c1.813-.042 4.814-.177 7.231-.6 1.583.289 2.502.618 2.737.862zm-9.969-1.26V61.32c0-.041-.011-.08-.018-.12 2.641-.061 7.844-.317 10.021-1.378l.008 2.889c-.272.491-3.581 1.419-10.011 1.548zm9.969-5.54c-.506.526-4.128 1.451-10.958 1.496-2.766-1.348-10.464-1.396-11.511-1.396l-.336.001a.75.75 0 01-.132-.101c.235-.244 1.15-.573 2.731-.861 3.387.592 7.949.62 8.737.62.788 0 5.348-.028 8.734-.619 1.582.288 2.5.617 2.735.86zm-11.469-1.241c-7.429 0-11.218-1.038-11.5-1.514v-2.935c2.776 1.342 10.455 1.39 11.5 1.39 1.046 0 8.73-.048 11.503-1.392l.008 2.883c-.293.53-4.082 1.568-11.511 1.568zm11.469-5.559c-.519.539-4.301 1.5-11.468 1.5s-10.949-.961-11.468-1.5c.235-.244 1.152-.573 2.734-.861 3.386.592 7.946.619 8.734.619.788 0 5.35-.028 8.737-.62 1.58.289 2.496.619 2.731.862zm-11.469-1.241c-7.429 0-11.218-1.038-11.5-1.514v-2.935c2.776 1.342 10.455 1.39 11.5 1.39 1.046 0 8.73-.048 11.503-1.392l.008 2.883c-.293.53-4.082 1.568-11.511 1.568zm11.469-5.559c-.519.539-4.301 1.5-11.468 1.5s-10.949-.961-11.468-1.5c.235-.244 1.151-.573 2.733-.861 3.386.592 7.947.62 8.735.62.788 0 5.343-.028 8.728-.618 1.582.287 2.505.616 2.74.859zm-11.469-1.241c-7.429 0-11.218-1.038-11.5-1.514v-2.935c2.776 1.342 10.455 1.39 11.5 1.39 1.046 0 8.73-.048 11.503-1.392l.008 2.883c-.293.53-4.082 1.568-11.511 1.568z"/>
</svg>
