<svg xmlns="http://www.w3.org/2000/svg" fill="#12529e" viewBox="0 0 100 100">
  <path d="M17 20c-1.645 0-3 1.355-3 3v54c0 1.645 1.355 3 3 3h6a1 1 0 001-1v-4c0-.565.435-1 1-1h4c.565 0 1 .435 1 1v4a1 1 0 001 1h38a1 1 0 001-1v-4c0-.565.435-1 1-1h4c.565 0 1 .435 1 1v4a1 1 0 001 1h6c1.645 0 3-1.355 3-3V27c0-1.645-1.355-3-3-3H51v-1c0-1.645-1.355-3-3-3H17zm0 2h31c.565 0 1 .435 1 1v2a1 1 0 001 1h33c.565 0 1 .435 1 1v50c0 .565-.435 1-1 1h-5v-3c0-1.645-1.355-3-3-3h-4c-1.645 0-3 1.355-3 3v3H32v-3c0-1.645-1.355-3-3-3h-4c-1.645 0-3 1.355-3 3v3h-5c-.565 0-1-.435-1-1V23c0-.565.435-1 1-1zm2.5 7a.5.5 0 100 1h49a.5.5 0 100-1h-49zm52 0a.5.5 0 100 1h4a.5.5 0 100-1h-4zm7 0a.5.5 0 100 1h2a.5.5 0 100-1h-2zm-46 10a6.508 6.508 0 00-6.5 6.5c0 2.22 1.121 4.18 2.824 5.354C24.79 52.784 22 57.74 22 63.5a.5.5 0 101 0c0-5.772 2.998-10.573 6.934-12.031a6.458 6.458 0 005.132 0C39.002 52.927 42 57.729 42 63.5a.5.5 0 101 0c0-5.76-2.789-10.716-6.824-12.646A6.496 6.496 0 0039 45.5c0-3.584-2.916-6.5-6.5-6.5zm0 1c3.043 0 5.5 2.457 5.5 5.5a5.49 5.49 0 01-3.125 4.957.5.5 0 00-.09.043h-.002a5.482 5.482 0 01-4.586-.008.5.5 0 00-.006-.002.5.5 0 00-.062-.031A5.487 5.487 0 0127 45.5c0-3.043 2.457-5.5 5.5-5.5zm18 1a.5.5 0 100 1h27a.5.5 0 100-1h-27zm0 7a.5.5 0 100 1h19a.5.5 0 100-1h-19zm22 0a.5.5 0 100 1h5a.5.5 0 100-1h-5zm-22 7a.5.5 0 100 1h15a.5.5 0 100-1h-15zm18 0a.5.5 0 100 1h4a.5.5 0 100-1h-4zm7 0a.5.5 0 100 1h2a.5.5 0 100-1h-2zm-25 7a.5.5 0 100 1h19a.5.5 0 100-1h-19zm22 0a.5.5 0 100 1h5a.5.5 0 100-1h-5z"/>
</svg>
