<svg xmlns="http://www.w3.org/2000/svg" fill="#767676" viewBox="0 0 100 100">
  <path d="M27 15c-6.617 0-12 5.383-12 12s5.383 12 12 12 12-5.383 12-12-5.383-12-12-12zm45 0a.996.996 0 00-.707.293l-12 12a.999.999 0 000 1.414l12 12a.997.997 0 001.414 0l12-12a.999.999 0 000-1.414l-12-12A.996.996 0 0072 15zm-45 2c5.514 0 10 4.486 10 10s-4.486 10-10 10-10-4.486-10-10 4.486-10 10-10zm45 .414L82.586 28 72 38.586 61.414 28 72 17.414zM27 20c-3.86 0-7 3.141-7 7a6.972 6.972 0 005.385 6.813.501.501 0 00.602-.371.5.5 0 00-.372-.602A5.977 5.977 0 0121 27a6.006 6.006 0 017.385-5.84.496.496 0 00.601-.37.499.499 0 00-.37-.602A6.97 6.97 0 0027 20zm45 1a.499.499 0 00-.354.146l-2 2a.5.5 0 00.708.708L72 22.207l3.646 3.647a.502.502 0 00.708 0 .5.5 0 000-.708l-4-4A.499.499 0 0072 21zm-41.453.008a.499.499 0 00-.348.916 6.058 6.058 0 011.877 1.877.499.499 0 00.424.232.5.5 0 00.424-.766 7.067 7.067 0 00-2.192-2.189.492.492 0 00-.185-.07zm20.459.998a1.999 1.999 0 00-1.414 3.414l.582.58H43c-1.103 0-2 .897-2 2s.897 2 2 2h7.152l-.566.566c-.378.377-.586.88-.586 1.414 0 .535.208 1.038.586 1.415.39.39.902.585 1.414.585.512 0 1.024-.195 1.414-.585l4.004-4.004c.375-.374.58-.873.58-1.403 0-.529-.205-1.026-.58-1.4l-3.996-3.996a1.998 1.998 0 00-1.416-.586zm0 .998c.256 0 .513.097.709.293l3.996 3.998a.983.983 0 010 1.389l-4.004 4.003a.999.999 0 11-1.414-1.412l1.42-1.421a.5.5 0 00-.354-.854H43a1.001 1.001 0 010-2h8.38a.5.5 0 00.354-.854L50.3 24.711a1 1 0 01.707-1.707zM68 25a.499.499 0 00-.354.146l-1 1a.5.5 0 00.708.708l1-1A.5.5 0 0068 25zm-34.59.006a.5.5 0 00-.57.61c.07.3.12.61.142.921.02.262.24.463.498.463.013 0 .027 0 .04-.002a.501.501 0 00.46-.537 7.087 7.087 0 00-.167-1.076.5.5 0 00-.403-.38zM78 27a.499.499 0 00-.354.854l.147.146L72 33.793l-4.646-4.647a.5.5 0 00-.708.708l5 5a.502.502 0 00.708 0l6.5-6.5a.5.5 0 000-.708l-.5-.5A.499.499 0 0078 27zm-6 15.994c-1.103 0-2 .897-2 2v7.174l-.58-.582a2.003 2.003 0 00-2.828 0c-.78.78-.78 2.048 0 2.828l3.996 3.996c.374.375.871.582 1.4.582.531 0 1.03-.207 1.403-.582l4.004-4.002c.378-.378.585-.88.585-1.414 0-.535-.207-1.037-.585-1.414-.757-.756-2.076-.756-2.829 0l-.566.566v-7.152c0-1.103-.897-2-2-2zm0 1a1 1 0 011 1v8.36c0 .202.122.383.309.46.186.078.4.037.545-.107l1.421-1.42a1.023 1.023 0 011.414 0 .997.997 0 010 1.414l-4.003 4.002a.985.985 0 01-1.391 0l-3.996-3.996a1 1 0 111.412-1.412l1.435 1.434a.5.5 0 00.854-.354v-8.38a1 1 0 011-1zm-47.012.018c-.513 0-1.026.187-1.4.562l-3.996 3.996c-.378.378-.586.88-.586 1.414 0 .535.208 1.037.586 1.414.756.756 2.073.756 2.828 0l.58-.58v7.174c0 1.103.897 2 2 2s2-.897 2-2V50.84l.566.566c.756.756 2.074.756 2.83 0a2.003 2.003 0 000-2.828l-4.003-4.004a1.98 1.98 0 00-1.405-.562zm.002.982c.252 0 .504.096.696.287l4.003 4.004a1 1 0 010 1.414 1.028 1.028 0 01-1.416 0l-1.42-1.42a.504.504 0 00-.544-.107.498.498 0 00-.309.46v8.36a1.001 1.001 0 01-2 0v-8.38a.5.5 0 00-.854-.354l-1.433 1.433a1.028 1.028 0 01-1.416 0 .992.992 0 01-.291-.707c0-.267.104-.518.293-.707l3.996-3.996a.984.984 0 01.695-.287zM73 62c-6.617 0-12 5.383-12 12s5.383 12 12 12 12-5.383 12-12-5.383-12-12-12zm-57 1a1 1 0 00-1 1v19a1 1 0 001 1h19a1 1 0 001-1V64a1 1 0 00-1-1H16zm57 1c5.514 0 10 4.486 10 10s-4.486 10-10 10-10-4.486-10-10 4.486-10 10-10zm-56 1h17v17H17V65zm2.5 2a.5.5 0 00-.5.5v9a.5.5 0 001 0V68h11v1.5a.5.5 0 001 0v-2a.5.5 0 00-.5-.5h-12zm54.916.18a.496.496 0 00-.402.379.499.499 0 00.37.601A5.976 5.976 0 0179 74a6.006 6.006 0 01-7.385 5.84.494.494 0 00-.601.37.499.499 0 00.373.603A6.94 6.94 0 0073 81c3.859 0 7-3.141 7-7a6.974 6.974 0 00-5.385-6.813.492.492 0 00-.199-.007zM31.5 71a.5.5 0 00-.5.5v1a.5.5 0 001 0v-1a.5.5 0 00-.5-.5zm34.98 3.002a.497.497 0 00-.459.535c.027.361.084.722.166 1.076a.498.498 0 10.973-.226 6.033 6.033 0 01-.142-.924c-.02-.276-.279-.506-.538-.461zM31.5 75a.5.5 0 00-.5.5V79h-9.5a.5.5 0 000 1h10a.5.5 0 00.5-.5v-4a.5.5 0 00-.5-.5zm35.918 1.973a.5.5 0 00-.342.76 7.073 7.073 0 002.192 2.19.495.495 0 00.688-.158.5.5 0 00-.155-.689 6.075 6.075 0 01-1.88-1.877.498.498 0 00-.503-.226z"/>
</svg>
