<svg xmlns="http://www.w3.org/2000/svg" fill="#767676" viewBox="0 0 100 100">
  <path d="M50 15c-8.167 0-15.415 2.04-20.648 6.488-2.629 2.234-4.722 5.072-6.157 8.512h-5.164a1.98 1.98 0 01-1.855-1.256v-.002L10.93 15.63a1.01 1.01 0 00-1.112-.611h-.006C9.345 15.107 9 15.524 9 16v19c0 4.958 4.042 9 9 9h2.965c-.169 5.69-1.036 9.242-1.928 12.418C18.045 59.954 17 63.11 17 68c0 9.443 6.436 17 15.652 17C41.24 85 45.4 82 50 82s8.761 3 17.348 3C76.564 85 83 77.443 83 68c0-4.89-1.045-8.046-2.037-11.582-.892-3.176-1.76-6.728-1.928-12.418H82c4.958 0 9-4.042 9-9V16c0-.476-.342-.893-.81-.982h-.006a1.008 1.008 0 00-1.112.61l-5.246 13.116A1.978 1.978 0 0181.97 30h-5.164c-1.435-3.44-3.528-6.278-6.157-8.512C65.415 17.04 58.167 15 50 15zm-40 1l5.246 13.115A2.997 2.997 0 0018.031 31h4.778C21.637 34.185 21 37.85 21 42c0 .351-.013.664-.018 1H18c-4.416 0-8-3.584-8-8V16zm80 0v19c0 4.416-3.584 8-8 8h-2.982c-.005-.336-.018-.649-.018-1 0-4.15-.637-7.815-1.809-11h4.778a2.996 2.996 0 002.785-1.885L90 16zm-40 1c7.833 0 14.585 1.96 19.352 6.012C74.119 27.064 77 33.222 77 42c0 7.095 1.03 11.368 2.037 14.957C80.045 60.546 81 63.39 81 68c0 8.557-5.511 15-13.652 15C59.24 83 55.4 80 50 80c-5.4 0-9.24 3-17.348 3C24.511 83 19 76.557 19 68c0-4.61.955-7.454 1.963-11.043C21.97 53.368 23 49.095 23 42c0-8.778 2.881-14.936 7.648-18.988C35.415 18.96 42.167 17 50 17zm-6.5 4c-.792 0-1.448.315-1.873.793A2.562 2.562 0 0041 23.5c0 .611.202 1.229.627 1.707S42.708 26 43.5 26s1.448-.315 1.873-.793A2.562 2.562 0 0046 23.5c0-.611-.202-1.229-.627-1.707S44.292 21 43.5 21zm0 1c.542 0 .885.185 1.127.457S45 23.111 45 23.5c0 .389-.131.771-.373 1.043-.242.272-.585.457-1.127.457s-.885-.185-1.127-.457A1.581 1.581 0 0142 23.5c0-.389.131-.771.373-1.043.242-.272.585-.457 1.127-.457zM58 25c-.625 0-1.156.252-1.498.637A2.044 2.044 0 0056 27c0 .486.16.979.502 1.363.342.385.873.637 1.498.637s1.156-.252 1.498-.637C59.84 27.98 60 27.486 60 27s-.16-.979-.502-1.363C59.156 25.252 58.625 25 58 25zm0 1c.375 0 .594.123.752.3.158.179.248.436.248.7 0 .264-.09.521-.248.7-.158.177-.377.3-.752.3s-.594-.123-.752-.3A1.064 1.064 0 0157 27c0-.264.09-.521.248-.7.158-.177.377-.3.752-.3zm-13 5c-3.222 0-5.431 1.097-7.656 2.086C35.119 34.075 32.834 35 29 35a1 1 0 100 2c.465 0 .906-.018 1.336-.043A8.422 8.422 0 0029 41.5c0 4.69 3.81 8.5 8.5 8.5 4.69 0 8.5-3.81 8.5-8.5a8.483 8.483 0 00-5.05-7.754C42.161 33.308 43.42 33 45 33a1 1 0 100-2zm10 0a1 1 0 100 2c1.58 0 2.838.308 4.05.746A8.483 8.483 0 0054 41.5c0 4.69 3.81 8.5 8.5 8.5 4.69 0 8.5-3.81 8.5-8.5a8.422 8.422 0 00-1.336-4.543c.43.025.87.043 1.336.043a1 1 0 100-2c-3.833 0-6.119-.925-8.344-1.914C60.431 32.097 58.222 31 55 31zm-15.49 3.314C42.674 35.19 45 38.056 45 41.5c0 4.15-3.35 7.5-7.5 7.5a7.49 7.49 0 01-7.5-7.5c0-1.774.63-3.385 1.662-4.664 2.729-.335 4.745-1.145 6.494-1.922.47-.209.912-.407 1.354-.6zm20.98 0c.442.193.884.391 1.354.6 1.749.777 3.765 1.587 6.494 1.922A7.393 7.393 0 0170 41.5c0 4.15-3.35 7.5-7.5 7.5a7.49 7.49 0 01-7.5-7.5c0-3.444 2.326-6.31 5.49-7.186zM37.5 37a4.5 4.5 0 000 9c1.62 0 3.028-.863 3.82-2.148a2.48 2.48 0 01-.82.148 2.5 2.5 0 110-5c.289 0 .562.058.82.148A4.482 4.482 0 0037.5 37zm25 0a4.5 4.5 0 000 9c1.62 0 3.028-.863 3.82-2.148a2.48 2.48 0 01-.82.148 2.5 2.5 0 110-5c.289 0 .562.058.82.148A4.482 4.482 0 0062.5 37zm-36 14c-.792 0-1.448.315-1.873.793A2.562 2.562 0 0024 53.5c0 .611.202 1.229.627 1.707S25.708 56 26.5 56s1.448-.315 1.873-.793A2.562 2.562 0 0029 53.5c0-.611-.202-1.229-.627-1.707S27.292 51 26.5 51zm41 0c-.792 0-1.448.315-1.873.793A2.562 2.562 0 0065 53.5c0 .611.202 1.229.627 1.707S66.708 56 67.5 56s1.448-.315 1.873-.793A2.562 2.562 0 0070 53.5c0-.611-.202-1.229-.627-1.707S68.292 51 67.5 51zm-41 1c.542 0 .885.185 1.127.457S28 53.111 28 53.5c0 .389-.131.771-.373 1.043-.242.272-.585.457-1.127.457s-.885-.185-1.127-.457A1.581 1.581 0 0125 53.5c0-.389.131-.771.373-1.043.242-.272.585-.457 1.127-.457zm41 0c.542 0 .885.185 1.127.457S69 53.111 69 53.5c0 .389-.131.771-.373 1.043-.242.272-.585.457-1.127.457s-.885-.185-1.127-.457A1.581 1.581 0 0166 53.5c0-.389.131-.771.373-1.043.242-.272.585-.457 1.127-.457zm6.5 0c-.625 0-1.156.252-1.498.637A2.044 2.044 0 0072 54c0 .486.16.979.502 1.363.342.385.873.637 1.498.637s1.156-.252 1.498-.637C75.84 54.98 76 54.486 76 54s-.16-.979-.502-1.363C75.156 52.252 74.625 52 74 52zm-40 1c-.625 0-1.156.252-1.498.637A2.044 2.044 0 0032 55c0 .486.16.979.502 1.363.342.385.873.637 1.498.637s1.156-.252 1.498-.637C35.84 55.98 36 55.486 36 55s-.16-.979-.502-1.363C35.156 53.252 34.625 53 34 53zm40 0c.375 0 .594.123.752.3.158.179.248.436.248.7 0 .264-.09.521-.248.7-.158.177-.377.3-.752.3s-.594-.123-.752-.3A1.064 1.064 0 0173 54c0-.264.09-.521.248-.7.158-.177.377-.3.752-.3zm-40 1c.375 0 .594.123.752.3.158.179.248.436.248.7 0 .264-.09.521-.248.7-.158.177-.377.3-.752.3s-.594-.123-.752-.3A1.064 1.064 0 0133 55c0-.264.09-.521.248-.7.158-.177.377-.3.752-.3zm-4 4c-1.042 0-2.25.117-3.258.727-1.007.609-1.742 1.762-1.742 3.507 0 3.823 2.894 7.507 7.418 10.237.11.066.232.124.344.19a.5.5 0 00.045.03c.312.184.642.356.97.53.222.116.44.233.668.345.48.237.975.464 1.483.68.174.074.352.144.529.215.455.184.92.359 1.395.525.184.065.369.13.556.192.146.048.285.102.432.148a.5.5 0 00.133.022A37.233 37.233 0 0050 77c3.978 0 7.725-.62 11.064-1.662a.5.5 0 00.094-.02c.086-.026.167-.058.252-.086a33.024 33.024 0 002.078-.752c.198-.079.398-.155.592-.238.505-.215.998-.44 1.475-.676.227-.112.446-.229.668-.345.328-.174.658-.346.97-.53a.5.5 0 00.047-.033c.111-.064.233-.122.342-.187C72.106 69.74 75 66.057 75 62.234c0-1.745-.735-2.898-1.742-3.507C72.25 58.117 71.042 58 70 58c-4.722 0-11.111 3-20 3s-15.278-3-20-3zm0 1c1.41 0 3.172.36 5.096.797l2.957 5.926a.5.5 0 00.93-.094l1.255-4.695C43.102 61.513 46.34 62 50 62s6.898-.487 9.762-1.066l1.256 4.695a.5.5 0 00.93.094l2.956-5.926C66.828 59.36 68.59 59 70 59c.958 0 2 .133 2.742.582.743.45 1.258 1.164 1.258 2.652 0 3.258-2.518 6.646-6.738 9.25l-1.278-5.105a.5.5 0 00-.923-.115l-2.108 3.916C61.034 68.213 58.155 67 55 67c-2.871 0-4.706.834-5 .973-.294-.139-2.129-.973-5-.973-3.154 0-6.032 1.214-7.951 3.186l-2.11-3.922a.5.5 0 00-.45-.264.5.5 0 00-.473.379l-1.278 5.105C28.518 68.88 26 65.492 26 62.234c0-1.488.515-2.203 1.258-2.652C28 59.133 29.042 59 30 59zm6.354 1.084c.939.22 1.853.417 2.904.643l-.9 3.37-2.004-4.013zm27.292 0l-2.003 4.014-.9-3.371c1.05-.226 1.964-.424 2.903-.643zm1.682 7.787l1.026 4.102c-1.257.712-2.722 1.293-4.221 1.838l3.195-5.94zm-30.656.002l3.195 5.943c-1.499-.549-2.965-1.13-4.22-1.841l1.025-4.102zM45 68c2.889 0 4.777.947 4.777.947a.5.5 0 00.446 0S52.11 68 55 68c3.034 0 5.757 1.24 7.447 3.12l-1.771 3.286A36.266 36.266 0 0150 76c-3.843 0-7.463-.6-10.684-1.596l-1.763-3.279C39.243 69.24 41.968 68 45 68zm-21.271 1.992a.5.5 0 00-.493.598c.912 5 4.56 8.41 9.418 8.41.663 0 1.283-.028 1.881-.068a.5.5 0 10-.068-.998c-.584.04-1.18.066-1.813.066-4.398 0-7.59-2.964-8.433-7.59a.5.5 0 00-.492-.418zm52.527.002a.5.5 0 00-.477.416c-.395 2.164-1.322 3.957-2.63 5.258a.5.5 0 10.703.709c1.467-1.459 2.485-3.447 2.912-5.787a.5.5 0 00-.508-.596zm-4.766 7a.5.5 0 00-.224.063 8.081 8.081 0 01-2.827.869.5.5 0 10.122.994 9.098 9.098 0 003.173-.98.5.5 0 00-.244-.946zm-6.006.938a.5.5 0 00-.017 1c.331.022.67.038 1.015.05a.5.5 0 00.036-1 30.814 30.814 0 01-.985-.048.5.5 0 00-.049-.002z"/>
</svg>
