<svg xmlns="http://www.w3.org/2000/svg" viewBox="0 0 100 100">
  <path fill="#fcba7f" d="M28 21.366v22.878L49.5 55 71 44.244V21.366L49.5 13 28 21.366z"/>
  <path fill="#fed5b3" d="M28 21.366l21.5 9.732L71 21.366 49.5 13 28 21.366z"/>
  <path fill="#d68f53" d="M49.5 55V31.098L71 21.366v22.878L49.5 55z"/>
  <path fill="#ead6c7" d="M39 87v-8.661c0-2.342-.588-4.648-1.71-6.704l-8.794-16.122c-1.177-2.158-3.861-3.165-6.062-2.071a4.456 4.456 0 00-2.048 2.099L19 53V39.172c0-2.089-1.527-3.955-3.607-4.153A4 4 0 0011 39v18.98a8.03 8.03 0 00.977 3.83l10.901 19.985c.08.148.122.312.122.48V87M76 87v-4.725c0-.167.042-.332.122-.479l10.901-19.985A8.033 8.033 0 0088 57.98V39a4 4 0 00-4.393-3.981c-2.08.198-3.607 2.064-3.607 4.153V53l-1.386 2.541a4.46 4.46 0 00-2.048-2.099c-2.201-1.094-4.885-.087-6.062 2.071L61.71 71.635A13.997 13.997 0 0060 78.339V87"/>
  <g fill="#1f212b">
    <path d="M49 31.098h1V55h-1z"/>
    <path d="M49.5 56c-.153 0-.307-.035-.447-.105l-21.5-10.756a1.001 1.001 0 01-.553-.895V21.366a1 1 0 01.638-.932l21.5-8.366a.987.987 0 01.725 0l21.5 8.366c.384.15.637.52.637.932v22.878c0 .379-.214.725-.553.895l-21.5 10.756c-.14.07-.294.105-.447.105zM29 43.626l20.5 10.256L70 43.626V22.05l-20.5-7.977L29 22.05v21.576z"/>
    <path d="M49.5 31.598a.494.494 0 01-.206-.045l-21.5-9.731.412-.91L49.5 30.549l21.294-9.638.412.91-21.5 9.731a.48.48 0 01-.206.046zM39 88a1 1 0 01-1-1v-8.661c0-2.169-.549-4.321-1.588-6.226l-8.794-16.122c-.949-1.738-3.074-2.48-4.738-1.654a3.455 3.455 0 00-1.591 1.633l-.842 1.772-2.203-4.04a2.008 2.008 0 01-.244-.957V39.172c0-1.626-1.187-3.013-2.702-3.158A3.004 3.004 0 0012 39v18.98c0 1.166.296 2.325.854 3.352l10.901 19.985c.16.292.245.623.245.957V87a1 1 0 11-2 0v-4.726L11.099 62.289A9.033 9.033 0 0110 57.98V39a5.01 5.01 0 011.638-3.7 5.017 5.017 0 013.851-1.276c2.53.242 4.511 2.503 4.511 5.148v13.573l.49.899a5.44 5.44 0 011.5-1.099c2.616-1.3 5.928-.182 7.384 2.488l8.794 16.122A15.056 15.056 0 0140 78.339V87a1 1 0 01-1 1z"/>
    <path d="M23.438 59.971a.5.5 0 01-.248-.934l3-1.716a.5.5 0 11.496.869l-3 1.716a.513.513 0 01-.248.065zM27.534 72a.496.496 0 01-.438-.261l-.546-1a.498.498 0 01.199-.678.497.497 0 01.678.199l.546 1a.498.498 0 01-.439.74z"/>
    <path d="M25.897 69a.495.495 0 01-.438-.261l-4.971-9.113a4.474 4.474 0 01-.367-3.425 4.47 4.47 0 012.162-2.681.502.502 0 01.479.879 3.474 3.474 0 00-1.682 2.084 3.48 3.48 0 00.286 2.664l4.97 9.113a.5.5 0 01-.439.74zM76 88a1 1 0 01-1-1v-4.726c0-.334.085-.665.244-.958l10.901-19.984A7.03 7.03 0 0087 57.98V39a2.998 2.998 0 00-3.298-2.987C82.187 36.159 81 37.546 81 39.172v13.573c0 .334-.085.665-.244.958l-2.203 4.039-.842-1.772a3.457 3.457 0 00-1.59-1.633c-1.667-.825-3.79-.084-4.739 1.654l-8.794 16.122A13.038 13.038 0 0061 78.339V87a1 1 0 11-2 0v-8.661c0-2.502.634-4.986 1.832-7.183l8.794-16.122c1.456-2.672 4.768-3.788 7.385-2.488a5.409 5.409 0 011.499 1.099l.49-.9V39.172c0-2.645 1.981-4.906 4.511-5.148a4.982 4.982 0 013.852 1.276A5.013 5.013 0 0189 39v18.98c0 1.499-.38 2.989-1.099 4.309L77 82.274V87a1 1 0 01-1 1z"/>
    <path d="M75.562 59.971a.502.502 0 01-.248-.065l-3-1.716a.5.5 0 01.496-.869l3 1.716a.5.5 0 01-.248.934zM71.466 72a.502.502 0 01-.439-.74l.545-1a.502.502 0 01.879.479l-.545 1a.503.503 0 01-.44.261z"/>
    <path d="M73.103 69a.5.5 0 01-.438-.74l4.971-9.113c.447-.82.548-1.767.285-2.665a3.471 3.471 0 00-1.682-2.083.502.502 0 01.479-.879 4.465 4.465 0 012.162 2.68 4.481 4.481 0 01-.366 3.426l-4.972 9.113a.5.5 0 01-.439.261z"/>
  </g>
</svg>
