<svg xmlns="http://www.w3.org/2000/svg" viewBox="0 0 100 100">
  <path fill="#00ac9c" d="M45 61h10v12H45z"/>
  <path fill="#60be92" d="M85 30H15a4 4 0 00-4 4v39a4 4 0 004 4h23.674a7 7 0 006.261-3.87l3.605-7.211c.602-1.203 2.318-1.203 2.92 0l3.605 7.211A7.002 7.002 0 0061.326 77H85a4 4 0 004-4V34a4 4 0 00-4-4z"/>
  <path fill="#fae8e6" d="M68.5 42a11.5 11.5 0 100 23 11.5 11.5 0 100-23zm-37 0a11.5 11.5 0 100 23 11.5 11.5 0 100-23z"/>
  <path fill="#00ac9c" d="M83 30v-5a4 4 0 00-4-4H21a4 4 0 00-4 4v5"/>
  <path fill="#1f212b" d="M38.67 74H19.5a.5.5 0 010-1h19.17a2.97 2.97 0 002.682-1.652l3.536-7.071a.5.5 0 01.895.447l-3.535 7.07A3.966 3.966 0 0138.67 74zM47 62.976a.5.5 0 01-.291-.906c1.405-1.009 3.268-1.309 4.935-.81a.499.499 0 01.335.623.496.496 0 01-.622.335c-1.369-.411-2.908-.164-4.065.665a.501.501 0 01-.292.093zm7.59 1.874a.499.499 0 01-.447-.277 4.623 4.623 0 00-.877-1.219.5.5 0 01.705-.709c.434.431.792.93 1.066 1.482a.5.5 0 01-.447.723zM82.5 74H61.33a3.959 3.959 0 01-3.578-2.219.5.5 0 01.897-.441A2.964 2.964 0 0061.33 73H82.5a.5.5 0 010 1zm3-30a.5.5 0 01-.5-.5V34H65.5a.5.5 0 010-1H85a.99.99 0 011 1v9.5a.5.5 0 01-.5.5zm-25-10h-3a.5.5 0 010-1h3a.5.5 0 010 1zm-46 33a.5.5 0 01-.5-.5V34c0-.561.439-1 1-1h39.5a.5.5 0 010 1H15v32.5a.5.5 0 01-.5.5zm46-13a.5.5 0 01-.5-.5c0-1.494.394-2.964 1.138-4.25a8.56 8.56 0 015.237-3.982.5.5 0 01.25.969 7.548 7.548 0 00-4.622 3.514A7.497 7.497 0 0061 53.5a.5.5 0 01-.5.5zm13-6.245a.498.498 0 01-.313-.11 7.466 7.466 0 00-.937-.642.5.5 0 01.5-.866 8.36 8.36 0 011.063.728.5.5 0 01-.313.89zm-3-1.503a.493.493 0 01-.125-.016A7.557 7.557 0 0068.5 46a.5.5 0 010-1c.719 0 1.434.09 2.125.268a.5.5 0 01-.125.984z"/>
  <path fill="#1f212b" d="M23.752 52a.5.5 0 01-.484-.625c.861-3.347 3.743-5.882 7.171-6.31a.5.5 0 11.123.992c-3.023.377-5.565 2.614-6.325 5.566a.502.502 0 01-.485.377zM39.5 54a.5.5 0 01-.5-.5 7.532 7.532 0 00-3.75-6.497.5.5 0 11.5-.865A8.53 8.53 0 0140 53.5a.5.5 0 01-.5.5zM33.5 46.252a.48.48 0 01-.124-.016 7.614 7.614 0 00-.938-.178.5.5 0 01-.435-.558.492.492 0 01.558-.434 8.32 8.32 0 011.062.202.5.5 0 01-.123.984z"/>
  <path fill="#1f212b" d="M85 78H61.326a7.956 7.956 0 01-7.155-4.422l-3.605-7.21c-.157-.315-.448-.35-.565-.35s-.408.034-.565.35l-3.605 7.21A7.96 7.96 0 0138.674 78H15c-2.757 0-5-2.243-5-5V34c0-2.757 2.243-5 5-5h70c2.757 0 5 2.243 5 5v39c0 2.757-2.243 5-5 5zM50 64.018c1.004 0 1.905.558 2.354 1.455l3.605 7.21A5.968 5.968 0 0061.326 76H85c1.654 0 3-1.346 3-3V34c0-1.654-1.346-3-3-3H15c-1.654 0-3 1.346-3 3v39c0 1.654 1.346 3 3 3h23.674a5.966 5.966 0 005.366-3.317l3.605-7.21A2.619 2.619 0 0150 64.018z"/>
  <path fill="#1f212b" d="M84 30h-2v-5c0-1.654-1.346-3-3-3H21c-1.654 0-3 1.346-3 3v5h-2v-5c0-2.757 2.243-5 5-5h58c2.757 0 5 2.243 5 5v5zM45 72h10v2H45zM68.5 66C61.607 66 56 60.393 56 53.5S61.607 41 68.5 41 81 46.607 81 53.5 75.393 66 68.5 66zm0-23C62.71 43 58 47.71 58 53.5S62.71 64 68.5 64 79 59.29 79 53.5 74.29 43 68.5 43zM31.5 66C24.607 66 19 60.393 19 53.5S24.607 41 31.5 41 44 46.607 44 53.5 38.393 66 31.5 66zm0-23C25.71 43 21 47.71 21 53.5S25.71 64 31.5 64 42 59.29 42 53.5 37.29 43 31.5 43z"/>
</svg>
