<svg xmlns="http://www.w3.org/2000/svg" viewBox="0 0 100 100">
  <circle cx="50" cy="50" r="35" fill="#f9e65c"/>
  <circle cx="31" cy="57" r="4.5" fill="#f27c7c"/>
  <circle cx="69" cy="57" r="4.5" fill="#f27c7c"/>
  <path fill="#1f212b" d="M31 62c-2.757 0-5-2.243-5-5s2.243-5 5-5 5 2.243 5 5-2.243 5-5 5zm0-9c-2.206 0-4 1.794-4 4s1.794 4 4 4 4-1.794 4-4-1.794-4-4-4zM69 62c-2.757 0-5-2.243-5-5s2.243-5 5-5 5 2.243 5 5-2.243 5-5 5zm0-9c-2.206 0-4 1.794-4 4s1.794 4 4 4 4-1.794 4-4-1.794-4-4-4zM40.966 38.666c.019.109.034.219.034.334a2 2 0 11-4 0c0-.901.6-1.654 1.419-1.904A4.505 4.505 0 0033 41.5c0 2.481 2.019 4.5 4.5 4.5s4.5-2.019 4.5-4.5c0-1.08-.398-2.058-1.034-2.834zM65.966 38.666c.019.109.034.219.034.334a2 2 0 11-4 0c0-.901.6-1.654 1.419-1.904A4.505 4.505 0 0058 41.5c0 2.481 2.019 4.5 4.5 4.5s4.5-2.019 4.5-4.5c0-1.08-.398-2.058-1.034-2.834z"/>
  <path fill="#1f212b" d="M50 86c-19.851 0-36-16.149-36-36s16.149-36 36-36 36 16.149 36 36-16.149 36-36 36zm0-70c-18.748 0-34 15.252-34 34s15.252 34 34 34 34-15.252 34-34-15.252-34-34-34z"/>
  <path fill="#1f212b" d="M65.5 24.227a.5.5 0 01-.254-.069 30.972 30.972 0 00-1.968-1.066.5.5 0 01.444-.897 31.95 31.95 0 012.032 1.102.5.5 0 01-.254.93zM68.5 26.249a.493.493 0 01-.303-.103 30.255 30.255 0 00-.984-.721.5.5 0 01.575-.818c.343.241.683.489 1.016.744a.5.5 0 01-.304.898z"/>
  <path fill="#1f212b" d="M50 81c-17.093 0-31-13.906-31-31s13.907-31 31-31c3.666 0 7.256.635 10.672 1.887a.5.5 0 01-.344.94A29.88 29.88 0 0050 20c-16.542 0-30 13.458-30 30s13.458 30 30 30 30-13.458 30-30a30.067 30.067 0 00-9.836-22.213.499.499 0 11.672-.74A31.068 31.068 0 0181 50c0 17.094-13.907 31-31 31z"/>
  <path fill="#f15b6c" d="M58.5 55a8.5 8.5 0 01-17 0v-.5h17v.5z"/>
  <path fill="#1f212b" d="M50 64c-4.962 0-9-4.037-9-9v-.5a.5.5 0 01.5-.5h17a.5.5 0 01.5.5v.5c0 4.963-4.038 9-9 9zm-8-9c0 4.411 3.589 8 8 8s8-3.589 8-8H42z"/>
</svg>
