<svg xmlns="http://www.w3.org/2000/svg" fill="#767676" viewBox="0 0 100 100">
  <path d="M50 14c-19.87 0-36 16.13-36 36s16.13 36 36 36 36-16.13 36-36-16.13-36-36-36zm0 2c18.79 0 34 15.21 34 34S68.79 84 50 84 16 68.79 16 50s15.21-34 34-34zm0 3c-17.115 0-31 13.885-31 31 0 17.115 13.885 31 31 31 17.115 0 31-13.885 31-31 0-9.096-3.92-17.283-10.164-22.953a.5.5 0 10-.672.74C76.207 33.275 80 41.192 80 50c0 16.575-13.425 30-30 30S20 66.575 20 50s13.425-30 30-30c3.63 0 7.108.646 10.328 1.826a.5.5 0 10.344-.94A30.95 30.95 0 0050 19zm13.48 3.14a.5.5 0 00-.203.952c.67.331 1.327.687 1.97 1.066a.5.5 0 10.507-.861 31.274 31.274 0 00-2.031-1.102.5.5 0 00-.243-.054zm4.028 2.372a.5.5 0 00-.051.002.5.5 0 00-.244.912c.333.233.66.474.982.72a.5.5 0 10.61-.794 30.285 30.285 0 00-1.018-.745.5.5 0 00-.28-.095zM37.5 37a4.505 4.505 0 00-4.5 4.5c0 2.481 2.019 4.5 4.5 4.5s4.5-2.019 4.5-4.5c0-1.08-.397-2.058-1.033-2.834.019.109.033.219.033.334a2 2 0 11-4 0c0-.901.6-1.654 1.42-1.904A4.5 4.5 0 0037.5 37zm25 0a4.505 4.505 0 00-4.5 4.5c0 2.481 2.019 4.5 4.5 4.5s4.5-2.019 4.5-4.5c0-1.08-.397-2.058-1.033-2.834.019.109.033.219.033.334a2 2 0 11-4 0c0-.901.6-1.654 1.42-1.904A4.5 4.5 0 0062.5 37zM31 52c-1.625 0-2.906.627-3.748 1.574C26.41 54.521 26 55.764 26 57c0 1.236.41 2.479 1.252 3.426C28.094 61.373 29.375 62 31 62s2.906-.627 3.748-1.574C35.59 59.479 36 58.236 36 57c0-1.236-.41-2.479-1.252-3.426C33.906 52.627 32.625 52 31 52zm38 0c-1.625 0-2.906.627-3.748 1.574C64.41 54.521 64 55.764 64 57c0 1.236.41 2.479 1.252 3.426C66.094 61.373 67.375 62 69 62s2.906-.627 3.748-1.574C73.59 59.479 74 58.236 74 57c0-1.236-.41-2.479-1.252-3.426C71.906 52.627 70.625 52 69 52zm-38 1c1.375 0 2.344.498 3.002 1.238.658.74.998 1.748.998 2.762s-.34 2.021-.998 2.762C33.344 60.502 32.375 61 31 61c-1.375 0-2.344-.498-3.002-1.238C27.34 59.022 27 58.014 27 57s.34-2.021.998-2.762C28.656 53.498 29.625 53 31 53zm38 0c1.375 0 2.344.498 3.002 1.238.658.74.998 1.748.998 2.762s-.34 2.021-.998 2.762C71.344 60.502 70.375 61 69 61c-1.375 0-2.344-.498-3.002-1.238C65.34 59.022 65 58.014 65 57s.34-2.021.998-2.762C66.656 53.498 67.625 53 69 53zm-27.5 1a.5.5 0 00-.5.5v.5c0 4.964 4.036 9 9 9s9-4.036 9-9v-.5a.5.5 0 00-.5-.5h-17zm.5 1h16c0 4.424-3.576 8-8 8-4.424 0-8-3.576-8-8z"/>
</svg>
