<?xml version="1.0" encoding="utf-8"?>
<svg xmlns="http://www.w3.org/2000/svg" viewBox="0 0 100 100" fill="#12529e"><path d="M 70 11 C 62.126086 11 57.666327 12.449168 55.105469 14.285156 C 52.54461 16.121144 52.001953 18.343505 52.001953 19.5 C 52.001953 22.009185 53.026938 23.700798 54.070312 24.669922 C 54.427967 25.002124 54.729029 25.202683 54.992188 25.351562 C 54.874156 25.529743 54.752953 25.714617 54.621094 25.939453 C 53.971145 27.047699 53.129505 28.788849 52.296875 31.382812 C 50.800542 36.044465 49.34322 43.498667 49.060547 54.988281 C 47.8932 51.891486 45.995619 48.719357 42.888672 46.371094 C 43.829594 45.390716 46 42.908862 46 39 C 46 37.158817 45.450605 34.82797 43.460938 33.019531 C 41.471269 31.211092 38.169736 30 32.896484 30 C 27.871925 30 24.016665 31.031251 21.410156 32.074219 C 18.803648 33.117187 17.384766 34.216797 17.384766 34.216797 A 1.0001 1.0001 0 0 0 17.464844 35.849609 C 18.14168 36.278982 18.912052 37.672123 19.572266 39.617188 C 20.232479 41.562252 20.846156 43.985391 21.673828 46.367188 C 22.5015 48.748984 23.539362 51.105915 25.160156 52.929688 C 26.780948 54.753459 29.05503 56 32 56 C 36.315015 56 39.049993 53.604271 40.554688 51.296875 C 41.277915 50.187828 41.728822 49.100403 42.025391 48.248047 C 48.786205 53.767659 49 65 49 65 L 49 65.113281 C 46.018864 65.365534 43.365269 66.68454 41.404297 68.71875 C 39.834417 67.69085 38.014444 67 36 67 C 31.889909 67 28.435524 69.538229 26.902344 73.095703 C 26.601994 73.06064 26.31153 73 26 73 C 22.989386 73 20.420742 74.71236 19.056641 77.181641 C 18.708427 77.110137 18.384214 77 18 77 C 14.698375 77 12 79.698375 12 83 C 12 86.301625 14.698375 89 18 89 L 82 89 C 85.301625 89 88 86.301625 88 83 C 88 79.698375 85.301625 77 82 77 C 81.615786 77 81.291573 77.110137 80.943359 77.181641 C 79.579258 74.71236 77.010614 73 74 73 C 73.68847 73 73.398006 73.060643 73.097656 73.095703 C 71.564476 69.538232 68.110091 67 64 67 C 61.985556 67 60.165583 67.69085 58.595703 68.71875 C 56.634731 66.68454 53.981136 65.365534 51 65.113281 L 51 65 C 51 58.261386 53.59377 54.333849 56.171875 51.990234 C 57.933324 50.388998 59.34395 49.727355 60.263672 49.365234 C 60.43524 50.291159 60.698465 51.440105 61.203125 52.638672 C 61.743605 53.922311 62.530625 55.243689 63.720703 56.271484 C 64.910781 57.299279 66.52381 58 68.5 58 C 70.895282 58 72.830124 57.11722 74.326172 55.810547 C 75.82222 54.503874 76.916549 52.806232 77.880859 51.09375 C 79.80948 47.668785 81.342289 44.263464 83.412109 43.328125 A 1.0001 1.0001 0 0 0 83.566406 41.591797 C 81.436255 40.130627 74.784948 35 66.679688 35 C 63.828766 35 61.616896 35.924578 60.154297 37.378906 C 58.691698 38.833235 58 40.771691 58 42.681641 C 58 45.295806 58.97395 46.666445 59.681641 47.457031 C 58.643395 47.848391 56.921092 48.607164 54.828125 50.509766 C 53.436039 51.775235 52.095166 53.538847 51.046875 55.789062 C 51.280822 44.025824 52.748651 36.523433 54.203125 31.992188 C 54.995495 29.52365 55.778855 27.921051 56.347656 26.951172 C 56.385874 26.886005 56.397892 26.877373 56.433594 26.818359 C 57.30425 28.114308 59.127758 30 62.5 30 C 66.080308 30 68.209586 28.00653 69.121094 25.630859 C 70.032602 23.255189 70 20.5295 70 18.5 C 70 17.267733 70.03514 15.984414 70.167969 14.898438 C 70.3008 13.812459 70.571912 12.925839 70.818359 12.574219 A 1.0001 1.0001 0 0 0 70 11 z M 68.673828 13.064453 C 68.524563 13.600337 68.255709 14.048737 68.181641 14.654297 C 68.031221 15.884069 68 17.232267 68 18.5 C 68 20.5295 67.9674 23.054483 67.253906 24.914062 C 66.540414 26.773642 65.419692 28 62.5 28 C 58.592593 28 57.435547 24.648438 57.435547 24.648438 A 1.0001 1.0001 0 0 0 57.347656 24.46875 C 57.454878 24.193346 57.594448 23.901225 57.740234 23.605469 C 58.920488 21.622337 61.544922 21.341797 61.544922 21.341797 A 0.50005 0.50005 0 0 0 61.488281 20.34375 A 0.50005 0.50005 0 0 0 61.455078 20.345703 C 61.455078 20.345703 60.546786 20.432287 59.482422 20.892578 C 60.997675 18.974984 63.210103 16.928935 66.283203 15.099609 C 66.520203 14.957609 66.599031 14.651063 66.457031 14.414062 C 66.314031 14.175063 66.005484 14.099234 65.771484 14.240234 C 64.341928 15.091183 63.094031 15.992767 62 16.910156 L 62 15.5 A 0.50005 0.50005 0 0 0 61.492188 14.992188 A 0.50005 0.50005 0 0 0 61 15.5 L 61 17.791016 C 59.027569 19.629034 57.686054 21.482756 56.871094 23.103516 C 56.864259 23.115088 56.856374 23.12505 56.849609 23.136719 A 0.50014708 0.50014708 0 0 0 56.794922 23.275391 C 56.687691 23.496832 56.591185 23.712618 56.503906 23.923828 C 56.262448 23.822261 55.901708 23.641694 55.431641 23.205078 C 54.725515 22.549202 54.001953 21.490815 54.001953 19.5 C 54.001953 18.918495 54.207843 17.389668 56.271484 15.910156 C 58.200238 14.527351 61.977992 13.233828 68.673828 13.064453 z M 64.5 20 C 64.136673 20 63.792866 20.016512 63.464844 20.039062 A 0.50005 0.50005 0 1 0 63.535156 21.035156 C 63.847136 21.01371 64.165327 21 64.5 21 A 0.50005 0.50005 0 1 0 64.5 20 z M 32.896484 32 C 37.864232 32 40.615605 33.135189 42.117188 34.5 C 43.618769 35.864811 44 37.534183 44 39 C 44 42.096004 41.875319 44.630376 41.146484 45.416016 C 39.892127 43.819165 38.49698 42.435385 37.011719 41.246094 C 37.127915 38.043401 39.701172 36.958984 39.701172 36.958984 A 0.50005 0.50005 0 0 0 39.478516 35.998047 A 0.50005 0.50005 0 0 0 39.298828 36.041016 C 39.298828 36.041016 36.553374 37.299698 36.078125 40.509766 C 35.385638 40.003053 34.675223 39.548821 33.958984 39.117188 A 0.50005 0.50005 0 0 0 33.802734 39.025391 C 29.223676 36.304317 24.308969 35.044645 20.578125 34.652344 C 20.941262 34.4561 21.409428 34.229692 22.154297 33.931641 C 24.552288 32.972109 28.145043 32 32.896484 32 z M 19.753906 35.587891 C 23.026612 35.849886 27.492921 36.848105 31.810547 39.082031 C 30.793381 39.176409 30.000947 39.340208 29.351562 39.542969 A 0.50007733 0.50007733 0 0 0 29.648438 40.498047 C 30.522638 40.225089 31.629312 40.015567 33.457031 40.001953 C 36.047638 41.561294 38.504576 43.60915 40.533203 46.251953 A 1.0001 1.0001 0 0 0 40.517578 46.316406 C 40.517578 46.316406 40.147666 48.260521 38.880859 50.203125 C 37.614053 52.145729 35.598985 54 32 54 C 29.59147 54 27.983456 53.093026 26.65625 51.599609 C 25.329044 50.106193 24.351828 47.982391 23.5625 45.710938 C 22.773172 43.439484 22.167083 41.037732 21.466797 38.974609 C 21.012724 37.636858 20.450924 36.525414 19.753906 35.587891 z M 66.679688 37 C 72.718807 37 77.653599 40.058654 80.537109 42.027344 C 76.425132 42.083322 72.946532 42.298064 70.003906 42.888672 C 70.985251 41.360556 71 39.513672 71 39.513672 A 0.50005 0.50005 0 0 0 70.505859 38.992188 A 0.50005 0.50005 0 0 0 70 39.486328 C 70 39.486328 69.846112 42.194655 68.271484 43.291016 C 67.243976 43.572425 66.284696 43.918283 65.380859 44.328125 A 0.50005 0.50005 0 0 0 65.134766 44.443359 C 63.85305 45.049839 62.68567 45.794101 61.625 46.71875 A 1.0001 1.0001 0 0 0 61.59375 46.695312 C 61.59375 46.695312 60 45.623559 60 42.681641 C 60 41.25059 60.507052 39.848296 61.564453 38.796875 C 62.621854 37.745454 64.250608 37 66.679688 37 z M 27.482422 40.351562 A 0.50005 0.50005 0 0 0 27.257812 40.416016 C 26.576269 40.791967 26.183594 41.113281 26.183594 41.113281 A 0.50005 0.50005 0 1 0 26.816406 41.886719 C 26.816406 41.886719 27.12573 41.631064 27.742188 41.291016 A 0.50005 0.50005 0 0 0 27.482422 40.351562 z M 80.625 43.025391 C 78.739985 44.870144 77.537337 47.629445 76.138672 50.113281 C 75.217982 51.748299 74.217468 53.24986 73.009766 54.304688 C 71.802063 55.359515 70.424718 56 68.5 56 C 66.97619 56 65.901719 55.513221 65.029297 54.759766 C 64.156875 54.006311 63.506395 52.952689 63.046875 51.861328 C 62.284882 50.051597 62.074228 48.286065 62.021484 47.708984 C 63.064581 46.750615 64.212249 45.984742 65.496094 45.371094 C 65.917615 45.53803 67.390542 46.19862 68.556641 47.794922 A 0.50043446 0.50043446 0 1 0 69.365234 47.205078 C 68.49122 46.008617 67.460902 45.290095 66.691406 44.859375 C 67.618186 44.504326 68.606191 44.206545 69.683594 43.96875 C 72.644022 43.315349 76.262383 43.083835 80.625 43.025391 z M 70.15625 48.994141 A 0.50005 0.50005 0 0 0 69.699219 49.691406 C 69.824576 49.995708 69.935578 50.299997 70.015625 50.621094 A 0.50005 0.50005 0 1 0 70.984375 50.378906 C 70.888422 49.994003 70.761643 49.640292 70.625 49.308594 A 0.50005 0.50005 0 0 0 70.15625 48.994141 z M 50 67 C 53.084169 67 55.827965 68.392907 57.664062 70.582031 A 1.0001 1.0001 0 0 0 57.6875 70.607422 C 57.191615 71.09814 56.747122 71.640416 56.375 72.234375 A 0.50018678 0.50018678 0 1 0 57.222656 72.765625 C 57.735618 71.946866 58.39494 71.231664 59.158203 70.646484 C 59.226493 70.594313 59.297262 70.546103 59.367188 70.496094 C 59.544952 70.368659 59.7278 70.247532 59.916016 70.134766 C 59.984606 70.093672 60.051225 70.048841 60.121094 70.009766 C 60.360558 69.875956 60.609388 69.757435 60.863281 69.648438 C 60.940699 69.615123 61.019007 69.583638 61.097656 69.552734 C 61.346391 69.455275 61.59909 69.367356 61.859375 69.294922 C 61.890812 69.286141 61.921531 69.27598 61.953125 69.267578 C 62.241099 69.191284 62.537897 69.133725 62.837891 69.089844 C 62.912333 69.078937 62.987374 69.069375 63.0625 69.060547 C 63.370729 69.024382 63.681732 69 64 69 C 67.53201 69 70.507424 71.283241 71.574219 74.443359 C 70.139261 74.9769 68.921296 75.960685 68.107422 77.230469 A 0.50005 0.50005 0 1 0 68.949219 77.769531 C 69.845284 76.371514 71.303042 75.377096 73.005859 75.091797 C 73.103336 75.075386 73.200274 75.056715 73.298828 75.044922 C 73.529314 75.018006 73.762054 75 74 75 C 76.492893 75 78.616197 76.512693 79.527344 78.662109 A 1.0001 1.0001 0 0 0 80.761719 79.220703 C 81.181498 79.082202 81.588333 79 82 79 C 84.220375 79 86 80.779625 86 83 C 86 85.220375 84.220375 87 82 87 L 18 87 C 15.779625 87 14 85.220375 14 83 C 14 80.779625 15.779625 79 18 79 C 18.411667 79 18.818502 79.0822 19.238281 79.220703 A 1.0001 1.0001 0 0 0 20.472656 78.662109 C 21.383803 76.512693 23.507107 75 26 75 C 26.237448 75 26.471067 75.017995 26.701172 75.044922 C 26.797804 75.056485 26.892685 75.075792 26.988281 75.091797 C 28.690592 75.376156 30.150185 76.370693 31.048828 77.769531 A 0.50005 0.50005 0 1 0 31.890625 77.230469 C 31.075858 75.962193 29.858988 74.979337 28.425781 74.445312 C 29.492077 71.284303 32.467349 69 36 69 C 37.874438 69 39.583938 69.6461 40.949219 70.724609 A 1.0001 1.0001 0 0 0 42.335938 70.582031 C 44.172035 68.392907 46.915831 67 50 67 z M 55.869141 73.994141 A 0.50005 0.50005 0 0 0 55.396484 74.353516 C 55.288473 74.704554 55.211768 75.059117 55.148438 75.412109 A 0.50005 0.50005 0 1 0 56.132812 75.587891 C 56.191482 75.260883 56.261527 74.945446 56.353516 74.646484 A 0.50005 0.50005 0 0 0 55.869141 73.994141 z M 32.292969 78.994141 A 0.50005 0.50005 0 0 0 31.832031 79.615234 C 31.903231 79.915764 31.952596 80.22186 31.976562 80.537109 A 0.50005 0.50005 0 1 0 32.972656 80.462891 C 32.944626 80.09414 32.887486 79.734236 32.804688 79.384766 A 0.50005 0.50005 0 0 0 32.292969 78.994141 z" fill="#12529e"/></svg>
