<svg xmlns="http://www.w3.org/2000/svg" viewBox="0 0 100 100">
  <path fill="#fefdef" d="M22 70.217C22 77 22 83 18 87c6.709 0 15-2 20.18-9.376A50.815 50.815 0 0050 79c22.091 0 40-13.879 40-31S72.091 17 50 17 10 30.879 10 48c0 8.671 4.595 16.514 12 22.141v.076z"/>
  <path fill="#1f212b" d="M18 88a1 1 0 01-.707-1.707c3.63-3.63 3.706-9.199 3.707-15.66C13.257 64.594 9 56.573 9 48c0-17.645 18.393-32 41-32s41 14.355 41 32-18.393 32-41 32c-3.879 0-7.711-.421-11.4-1.252C32.585 86.781 23.156 88 18 88zm32-70c-21.505 0-39 13.458-39 30 0 8.078 4.122 15.658 11.605 21.345a.997.997 0 01.395.796v.077c0 5.901 0 11.519-2.823 15.706 5.067-.356 12.451-2.135 17.184-8.874a1.003 1.003 0 011.051-.398A49.866 49.866 0 0050 78c21.505 0 39-13.458 39-30S71.505 18 50 18z"/>
  <path fill="#1f212b" d="M20.298 63a.497.497 0 01-.375-.17C16.048 58.423 14 53.295 14 48c0-14.888 16.149-27 36-27 9.38 0 18.264 2.697 25.016 7.596a.5.5 0 11-.587.808C67.846 24.63 59.17 22 50 22c-19.299 0-35 11.663-35 26 0 5.048 1.962 9.947 5.674 14.17a.501.501 0 01-.376.83zM50 75c-1.184 0-2.374-.044-3.537-.129-.275-.021-.482-.261-.462-.536s.257-.492.535-.462C47.675 73.957 48.84 74 50 74c19.299 0 35-11.663 35-26 0-4.445-1.546-8.836-4.471-12.698-.167-.22-.124-.533.097-.7s.534-.124.7.097C84.384 38.735 86 43.335 86 48c0 14.888-16.149 27-36 27zM79.702 34a.497.497 0 01-.375-.17c-.292-.333-.595-.66-.907-.981a.5.5 0 11.717-.697c.324.333.638.674.941 1.019a.501.501 0 01-.045.706.51.51 0 01-.331.123zM77.212 31.5a.498.498 0 01-.333-.127 27.341 27.341 0 00-.7-.604.499.499 0 01-.062-.704.499.499 0 01.704-.063c.246.206.487.414.724.626a.5.5 0 01-.333.872z"/>
  <path fill="#1f212b" d="M41 35.635c0-1.06.781-2.098 2.343-3.114C44.904 31.508 46.886 31 49.286 31c3.011 0 5.383.738 7.116 2.217C58.133 34.694 59 36.576 59 38.86c0 .945-.144 1.851-.432 2.719a8.16 8.16 0 01-1.248 2.377 25.991 25.991 0 01-1.465 1.782c-.432.471-.976.989-1.632 1.554s-1.048.906-1.173 1.028c-.947.823-1.531 1.661-1.753 2.513-.221.854-.33 2.149-.33 3.884 0 .945-.737 1.418-2.207 1.418-.736 0-1.261-.154-1.576-.459-.315-.305-.473-.854-.473-1.649 0-3.48.93-5.984 2.79-7.51.206-.184.646-.518 1.318-1.007.672-.488 1.173-.892 1.502-1.214.329-.32.713-.749 1.153-1.283.439-.534.76-1.113.964-1.74a6.382 6.382 0 00.307-1.993c0-1.465-.497-2.602-1.49-3.411-.993-.809-2.369-1.214-4.127-1.214-1.02 0-1.888.148-2.606.443-.717.295-1.219.629-1.506 1.001a6.366 6.366 0 01-.956 1.003c-.351.295-.718.443-1.1.443-.478 0-.925-.172-1.339-.514-.414-.338-.621-.805-.621-1.396zm4.995 26.85c0-.698.271-1.291.812-1.778.542-.49 1.211-.734 2.007-.734.818 0 1.524.245 2.121.734.596.488.894 1.08.894 1.778 0 .672-.298 1.258-.894 1.76-.598.504-1.304.755-2.122.755-.796 0-1.465-.251-2.007-.755-.541-.501-.811-1.088-.811-1.76z"/>
</svg>
