<svg xmlns="http://www.w3.org/2000/svg" fill="#767676" viewBox="0 0 100 100">
  <path d="M29.988 10.955c-4.447 0-8.027 4.726-8.027 8.637l-.055 42.394-8.918-.025h-.002a1 1 0 00-1 .977c-.003.167-.004 20.71.041 21.17.536 5.506 5.941 6.894 9.391 6.894.357 0 .693-.015 1-.041l58.28-.004c3.862.373 5.985-6.113 6.216-6.852.03-.097.047-.196.047-.298V20.904l3.143-.006a1 1 0 00.998-.972c.07-2.515-.69-4.568-2.258-6.102-3.176-3.106-8.513-2.872-8.69-2.863l-50.166-.006zm.002 2l50.213.006c.044-.005 4.704-.195 7.248 2.299.95.932 1.495 2.152 1.625 3.638l-37.117.063a1 1 0 00.002 2l33-.055v62.742c-.624 1.896-2.353 5.507-4.172 5.313l-58.457.004c-.316.03-7.764.598-8.312-5.014-.03-.694-.036-15.937-.036-19.988l7.92.021-.025 19.002c0 .071.006.14.021.21.004.014.311 1.596-.65 2.21a1 1 0 101.076 1.686c1.646-1.051 1.76-3.081 1.555-4.201l.025-19.631c.025-.087.055-.173.055-.268 0-.096-.03-.183-.055-.271l.055-43.127c0-2.988 2.782-6.639 6.03-6.639zm11.97 6.006a1 1 0 000 2h5a1 1 0 000-2h-5zm-13.5 9a.5.5 0 000 1h23a.5.5 0 000-1h-23zm26 0a.5.5 0 000 1h14a.5.5 0 000-1h-14zm17 0a.5.5 0 000 1h11a.5.5 0 000-1h-11zm-43 6a.5.5 0 000 1h18a.5.5 0 000-1h-18zm21 0a.5.5 0 000 1h33a.5.5 0 000-1h-33zm-21 8a.5.5 0 00-.5.5v16a.5.5 0 00.5.5h17a.5.5 0 00.5-.5v-13a.5.5 0 00-1 0v12.5h-16v-15h13.5a.5.5 0 000-1h-14zm23 2a.5.5 0 000 1h31a.5.5 0 000-1h-31zm0 7a.5.5 0 000 1h31a.5.5 0 000-1h-31zm0 7a.5.5 0 000 1h31a.5.5 0 000-1h-31zm-23 8a.5.5 0 000 1h31a.5.5 0 000-1h-31zm36 0a.5.5 0 00-.5.5v14a.5.5 0 001 0v-13.5h16v15h-12.5a.5.5 0 000 1h13a.5.5 0 00.5-.5v-16a.5.5 0 00-.5-.5h-17zm-36 7a.5.5 0 000 1h31a.5.5 0 000-1h-31zm0 7a.5.5 0 000 1h31a.5.5 0 000-1h-31z"/>
</svg>
