<svg xmlns="http://www.w3.org/2000/svg" viewBox="0 0 100 100">
  <path fill="#60be92" d="M73 63a11 11 0 100 22 11 11 0 100-22z"/>
  <path fill="#f9e65c" d="M27 16a11 11 0 100 22 11 11 0 100-22z"/>
  <path fill="#39c2d8" d="M16 64h19v19H16z"/>
  <path fill="#f15b6c" d="M60 28l12-12 12 12-12 12z"/>
  <path fill="#b3b2c3" d="M52.067 22.944a1.5 1.5 0 10-2.121 2.121L51.38 26.5H43a1.5 1.5 0 000 3h8.36l-1.42 1.42a1.5 1.5 0 102.121 2.121l4.003-4.003a1.483 1.483 0 000-2.097l-3.997-3.997zM19.944 48.925a1.5 1.5 0 102.121 2.121l1.434-1.434v8.38a1.5 1.5 0 003 0v-8.36l1.42 1.42a1.5 1.5 0 102.121-2.121l-4.003-4.003a1.483 1.483 0 00-2.097 0l-3.996 3.997zm47 5.136a1.5 1.5 0 112.121-2.121l1.434 1.434v-8.38a1.5 1.5 0 013 0v8.36l1.42-1.42a1.5 1.5 0 112.121 2.121l-4.003 4.003a1.483 1.483 0 01-2.097 0l-3.996-3.997z"/>
  <path fill="#1f212b" d="M72 35a.502.502 0 01-.354-.146l-5-5a.5.5 0 01.707-.707L72 33.793 77.793 28l-.146-.146a.5.5 0 01.707-.707l.5.5a.5.5 0 010 .707l-6.5 6.5A.502.502 0 0172 35zm-5-8a.5.5 0 01-.354-.853l1-1a.5.5 0 01.707.707l-1 1A.498.498 0 0167 27zm9-1a.502.502 0 01-.354-.146L72 22.207l-1.646 1.646a.5.5 0 01-.707-.707l2-2a.5.5 0 01.707 0l4 4A.5.5 0 0176 26zm-3 60c-6.617 0-12-5.383-12-12s5.383-12 12-12 12 5.383 12 12-5.383 12-12 12zm0-22c-5.514 0-10 4.486-10 10s4.486 10 10 10 10-4.486 10-10-4.486-10-10-10zM27 39c-6.617 0-12-5.383-12-12s5.383-12 12-12 12 5.383 12 12-5.383 12-12 12zm0-22c-5.514 0-10 4.486-10 10s4.486 10 10 10 10-4.486 10-10-4.486-10-10-10z"/>
  <path fill="#1f212b" d="M25.5 33.826a.466.466 0 01-.116-.014A6.97 6.97 0 0120 27c0-3.859 3.14-7 7-7 .543 0 1.087.062 1.615.188a.499.499 0 01.372.601.497.497 0 01-.602.372A6.006 6.006 0 0021 27a5.977 5.977 0 004.615 5.84.5.5 0 01-.115.986zm7-9.792a.498.498 0 01-.423-.233 6.065 6.065 0 00-1.878-1.878.5.5 0 01.533-.845 7.067 7.067 0 012.191 2.19.5.5 0 01-.423.766zM33.48 27a.5.5 0 01-.498-.462 5.93 5.93 0 00-.143-.923.501.501 0 01.974-.231c.083.352.139.715.167 1.077a.501.501 0 01-.461.537c-.013.002-.026.002-.039.002zM73 81a6.947 6.947 0 01-1.614-.188.497.497 0 01-.372-.601.494.494 0 01.601-.372A6.006 6.006 0 0079 74a5.976 5.976 0 00-4.615-5.84.5.5 0 01-.371-.602.495.495 0 01.602-.371A6.974 6.974 0 0180 74c0 3.859-3.141 7-7 7zm-3.466-1a.492.492 0 01-.267-.077 7.064 7.064 0 01-2.19-2.19.501.501 0 01.845-.534 6.076 6.076 0 001.878 1.878.5.5 0 01-.266.923zm-2.86-4a.497.497 0 01-.486-.386 7.017 7.017 0 01-.167-1.076.499.499 0 01.46-.536c.259-.045.516.184.536.46.024.31.072.62.144.924a.5.5 0 01-.487.614zM35 84H16a1 1 0 01-1-1V64a1 1 0 011-1h19a1 1 0 011 1v19a1 1 0 01-1 1zm-18-2h17V65H17v17z"/>
  <path fill="#1f212b" d="M31.5 73a.5.5 0 01-.5-.5v-1a.5.5 0 011 0v1a.5.5 0 01-.5.5zm0 7h-10a.5.5 0 010-1H31v-3.5a.5.5 0 011 0v4a.5.5 0 01-.5.5zm-12-3a.5.5 0 01-.5-.5v-9a.5.5 0 01.5-.5h12a.5.5 0 01.5.5v2a.5.5 0 01-1 0V68H20v8.5a.5.5 0 01-.5.5zM72 41a.997.997 0 01-.707-.293l-12-12a.999.999 0 010-1.414l12-12a.999.999 0 011.414 0l12 12a.999.999 0 010 1.414l-12 12A.997.997 0 0172 41zM61.414 28L72 38.586 82.586 28 72 17.414 61.414 28zM51 33.98a1.993 1.993 0 01-1.414-.585A1.983 1.983 0 0149 31.981c0-.535.208-1.037.586-1.414l.567-.567H43c-1.103 0-2-.897-2-2s.897-2 2-2h7.173l-.581-.581a2.003 2.003 0 010-2.828 2.004 2.004 0 012.829 0l3.997 3.997c.375.374.581.872.581 1.401 0 .53-.206 1.028-.581 1.402l-4.004 4.004c-.39.39-.902.585-1.414.585zM43 27a1.001 1.001 0 000 2h8.359a.5.5 0 01.354.854l-1.42 1.421a.99.99 0 00-.293.706.999.999 0 001.707.707l4.004-4.004a.984.984 0 000-1.39l-3.997-3.997a1 1 0 10-1.415 1.414l1.435 1.435a.499.499 0 01-.353.854H43zM25 59.992c-1.103 0-2-.897-2-2v-7.174l-.581.581c-.755.756-2.072.756-2.828 0a1.983 1.983 0 01-.586-1.414c0-.534.208-1.036.586-1.414l3.997-3.997c.748-.75 2.054-.751 2.804 0l4.004 4.004a2.003 2.003 0 010 2.828c-.756.756-2.073.756-2.829 0L27 50.84v7.152c0 1.103-.897 2-2 2zm-1.5-10.88a.501.501 0 01.5.5v8.38a1.001 1.001 0 002 0v-8.359a.5.5 0 01.854-.354l1.42 1.42a1.027 1.027 0 001.415 0 1 1 0 000-1.414l-4.004-4.004a.986.986 0 00-1.39 0l-3.997 3.997a.993.993 0 00-.293.707c0 .268.104.519.292.707a1.027 1.027 0 001.415 0l1.435-1.434a.5.5 0 01.353-.146zm48.489 9.88a1.966 1.966 0 01-1.401-.581l-3.997-3.996a2.003 2.003 0 010-2.829 2.003 2.003 0 012.828 0l.581.581v-7.173c0-1.103.897-2 2-2s2 .897 2 2v7.153l.567-.567c.753-.756 2.071-.756 2.828 0 .378.377.586.879.586 1.414 0 .534-.208 1.036-.586 1.414l-4.004 4.003a1.963 1.963 0 01-1.402.581zm-4.691-5.284l3.997 3.996a.984.984 0 001.39 0l4.004-4.003a.997.997 0 000-1.414 1.023 1.023 0 00-1.414 0l-1.421 1.42a.499.499 0 01-.854-.353v-8.359a1 1 0 00-2 0v8.38a.5.5 0 01-.854.354l-1.435-1.435a1.003 1.003 0 00-1.414 0 1.002 1.002 0 00.001 1.414z"/>
</svg>
