<?xml version="1.0" encoding="utf-8"?>
<svg xmlns="http://www.w3.org/2000/svg" viewBox="0 0 100 100" fill="#767676"><path d="M 76.679688 13 C 70.715687 13 67.998047 16.981641 67.998047 20.681641 C 67.998047 23.078368 68.901284 24.617289 69.603516 25.476562 C 66.788989 26.663505 59.353767 30.848349 59.019531 42.220703 C 56.551443 42.730271 54.410612 44.152869 52.892578 46.111328 C 52.515603 46.062603 52.144232 46 51.75 46 C 48.375211 46 45.478257 47.860498 43.865234 50.570312 C 43.577729 50.53597 43.29819 50.478516 43 50.478516 C 42.196938 50.478516 41.419451 50.604096 40.691406 50.839844 A 1.0009081 1.0009081 0 0 0 40.431641 50.966797 L 39.005859 50.234375 L 38.777344 50.123047 L 38.767578 50.119141 C 35.689528 48.699043 32.399212 47.972924 29.009766 47.96875 L 29.007812 47.96875 L 28.976562 47.96875 C 26.034834 47.96875 23.14755 48.516222 20.404297 49.597656 L 11.632812 53.0625 A 1.0004811 1.0004811 0 1 0 12.367188 54.923828 L 21.138672 51.458984 C 23.651419 50.468419 26.282291 49.96875 28.976562 49.96875 L 29.007812 49.96875 C 32.113663 49.97285 35.108367 50.633914 37.929688 51.935547 L 38.109375 52.023438 L 39.796875 52.888672 A 1.0001 1.0001 0 0 0 39.984375 52.970703 L 56.855469 61.666016 C 58.847354 62.887522 59.573627 65.47388 58.503906 67.556641 C 57.727168 69.067716 56.197009 70.001953 54.496094 70.001953 C 53.775788 70.001953 53.091147 69.836415 52.435547 69.5 L 52.431641 69.498047 L 43.720703 65.208984 A 0.50050727 0.50050727 0 1 0 43.279297 66.107422 L 51.980469 70.388672 C 52.770868 70.794257 53.6204 71.001953 54.496094 71.001953 C 55.599773 71.001953 56.643868 70.666303 57.527344 70.082031 L 60.705078 71.988281 A 0.50005 0.50005 0 0 0 61.158203 72.019531 L 81.185547 63.433594 A 0.50005 0.50005 0 0 0 81.212891 63.421875 C 81.520872 63.267351 81.855318 63.172263 82.203125 63.105469 A 1.0003223 1.0003223 0 0 0 83.025391 63.5 C 83.863852 63.47944 84.608232 63.59167 85.193359 63.855469 C 85.778487 64.119264 86.226598 64.507491 86.578125 65.210938 C 87.571473 67.197632 86.775758 69.584777 84.789062 70.578125 L 60.789062 82.578125 C 60.226776 82.859669 59.614023 83 59 83 C 58.432044 83 57.866302 82.880894 57.337891 82.638672 L 57.335938 82.636719 L 25.033203 67.916016 L 11.640625 73.066406 A 1.000374 1.000374 0 1 0 12.359375 74.933594 L 24.966797 70.083984 L 56.503906 84.455078 C 57.297542 84.818903 58.149956 85 59 85 C 59.919977 85 60.839882 84.78769 61.683594 84.365234 L 61.683594 84.367188 L 85.683594 72.367188 C 88.636898 70.890489 89.84384 67.269711 88.367188 64.316406 C 87.823713 63.228853 86.973748 62.463205 86.015625 62.03125 C 85.691357 61.885059 85.354238 61.785025 85.013672 61.703125 C 85.636875 60.608351 86 59.344787 86 58 C 86 53.86961 82.63039 50.5 78.5 50.5 C 78.181204 50.5 77.883635 50.560519 77.578125 50.599609 C 76.025288 48.160012 73.349129 46.5 70.25 46.5 C 69.962954 46.5 69.7012 46.543696 69.429688 46.572266 C 67.52843 43.844193 64.49014 42.023786 61.021484 42.013672 C 61.418914 32.005646 67.730936 28.407242 70.222656 27.363281 C 70.896963 31.064308 73.151086 36.001953 78.498047 36.001953 C 84.237047 36.001953 86.729688 31.30225 88.929688 27.15625 C 90.293688 24.58325 91.583109 22.153172 93.412109 21.326172 C 93.741109 21.177172 93.964094 20.862906 93.996094 20.503906 C 94.028094 20.143906 93.862453 19.795797 93.564453 19.591797 L 93.048828 19.232422 C 90.382828 17.367422 84.138688 13 76.679688 13 z M 76.679688 15.001953 C 82.582398 15.001953 87.74586 18.060637 90.667969 20.029297 C 86.468494 20.086461 82.936631 20.309789 79.984375 20.904297 C 80.928682 19.42366 80.996969 17.614884 81 17.515625 C 81.008 17.239625 80.790625 17.009953 80.515625 17.001953 C 80.226625 16.995953 80.009 17.210328 80 17.486328 C 79.999004 17.51322 79.89495 20.192372 78.248047 21.310547 C 77.205569 21.595779 76.236684 21.943294 75.330078 22.355469 C 75.282723 22.370066 75.240443 22.390275 75.199219 22.417969 C 73.883016 23.030289 72.696857 23.785697 71.619141 24.726562 C 71.608838 24.718313 71.604415 24.705131 71.59375 24.697266 C 71.57775 24.685266 69.998047 23.442594 69.998047 20.683594 C 69.998047 18.062594 71.748688 15.001953 76.679688 15.001953 z M 90.503906 21.029297 C 89.20253 22.383973 88.199159 24.263175 87.160156 26.220703 C 85.132156 30.045703 83.034047 34.001953 78.498047 34.001953 C 72.960136 34.001953 72.128559 26.999708 72.021484 25.712891 C 73.062163 24.76052 74.218464 23.995719 75.513672 23.380859 C 75.967454 23.566776 77.421034 24.243555 78.556641 25.796875 C 78.653641 25.930875 78.807937 26.001953 78.960938 26.001953 C 79.062937 26.001953 79.165859 25.969297 79.255859 25.904297 C 79.477859 25.741297 79.526281 25.428078 79.363281 25.205078 C 78.492584 24.012614 77.476992 23.299581 76.710938 22.869141 C 80.178031 21.546734 84.639321 21.115822 90.503906 21.029297 z M 80.166016 27.001953 C 80.101016 27.001203 80.034703 27.013313 79.970703 27.039062 C 79.715703 27.145062 79.594219 27.436406 79.699219 27.691406 C 79.842219 28.040406 79.942672 28.335094 80.013672 28.621094 C 80.069672 28.848094 80.273047 29.001953 80.498047 29.001953 C 80.538047 29.001953 80.578141 28.995328 80.619141 28.986328 C 80.886141 28.919328 81.050375 28.648859 80.984375 28.380859 C 80.901375 28.045859 80.786047 27.705547 80.623047 27.310547 C 80.545047 27.119297 80.361016 27.004203 80.166016 27.001953 z M 60.847656 44.003906 C 63.801002 43.94947 66.408839 45.499274 67.980469 47.910156 C 67.152034 48.184867 66.382107 48.58858 65.699219 49.101562 A 0.50078155 0.50078155 0 0 0 66.300781 49.902344 C 67.445928 49.042114 68.861643 48.532017 70.400391 48.509766 C 72.900246 48.565039 75.048053 49.969535 76.169922 52.023438 C 75.04599 52.489671 74.069907 53.242039 73.349609 54.201172 A 0.50078155 0.50078155 0 1 0 74.150391 54.802734 C 75.181772 53.429369 76.811461 52.537658 78.65625 52.507812 C 81.632173 52.590596 84 55.003155 84 58 C 84 59.280767 83.565884 60.450738 82.835938 61.384766 A 1.0001 1.0001 0 0 0 82.732422 61.537109 A 1.0003223 1.0003223 0 0 0 82.083984 62.101562 C 81.621647 62.18324 81.176811 62.320059 80.763672 62.527344 L 61 71 L 58.353516 69.412109 C 58.763345 69.007827 59.120296 68.543374 59.392578 68.013672 C 60.700422 65.467281 59.815223 62.303657 57.376953 60.810547 L 57.361328 60.800781 L 41.595703 52.675781 C 42.044577 52.55668 42.510537 52.478516 43 52.478516 C 43.389566 52.478516 43.769837 52.520956 44.142578 52.599609 A 1.0001 1.0001 0 0 0 45.248047 52.0625 C 46.429494 49.65829 48.884634 48 51.75 48 C 52.214207 48 52.669409 48.04859 53.117188 48.134766 A 1.0001 1.0001 0 0 0 54.130859 47.71875 C 55.654603 45.501167 58.078401 44.054694 60.847656 44.003906 z M 64.007812 51.251953 A 0.50005 0.50005 0 0 0 63.566406 51.507812 C 63.324289 51.928052 63.119204 52.371449 62.955078 52.833984 A 0.50069512 0.50069512 0 1 0 63.898438 53.169922 C 64.042311 52.764458 64.221711 52.375574 64.433594 52.007812 A 0.50005 0.50005 0 0 0 64.007812 51.251953 z M 39.478516 63.185547 A 0.50005 0.50005 0 0 0 39.279297 64.136719 L 41.279297 65.121094 A 0.50005 0.50005 0 1 0 41.720703 64.224609 L 39.720703 63.240234 A 0.50005 0.50005 0 0 0 39.478516 63.185547 z" fill="#12529e"/></svg>
