<svg xmlns="http://www.w3.org/2000/svg" viewBox="0 0 100 100"><path fill="#ead6c7" d="M12,74l13-5l31.921,14.547C57.582,83.85,58.291,84,59,84c0.767,0,1.533-0.176,2.236-0.528l24-12	c2.47-1.235,3.471-4.238,2.236-6.708c-0.895-1.791-2.721-2.81-4.597-2.764l0.007,0.015c-0.086-0.424-0.207-0.845-0.41-1.251	c-1.093-2.186-3.57-3.215-5.836-2.568l0,0c-0.056-0.144-0.094-0.291-0.164-0.432c-1.235-2.471-4.24-3.472-6.708-2.236L57.396,60.83	l-0.021-0.019c-0.117-0.072-0.238-0.139-0.362-0.203l-18.455-9.479l-0.209-0.102c-2.95-1.361-6.093-2.054-9.341-2.058	c-0.011,0-0.021,0-0.032,0c-2.818,0-5.576,0.523-8.204,1.559L12,53.993"/><path fill="none" stroke="#1f212b" stroke-miterlimit="10" d="M76.774,58.676c-0.3,0.086-0.557,0.184-0.786,0.298l-16.522,7.083"/><path fill="none" stroke="#1f212b" stroke-linecap="round" stroke-miterlimit="10" stroke-width="2" d="M82.882,62.015	c-0.086-0.424-0.207-0.845-0.41-1.251c-1.093-2.186-3.57-3.215-5.836-2.568l0,0c-0.056-0.144-0.094-0.291-0.164-0.432	c-1.235-2.471-4.24-3.472-6.708-2.236L57.396,60.83"/><path fill="#eaa871" d="M81.204,63c3.59,0,3.5-1.41,3.5-5s-2.91-6.5-6.5-6.5c-0.477,0-0.941,0.055-1.389,0.152	c-1.296-2.467-3.88-4.152-6.861-4.152c-0.43,0-0.85,0.044-1.261,0.112c-1.722-2.82-4.741-4.671-8.159-4.608	c-3.108,0.057-5.833,1.687-7.524,4.148C52.505,47.055,51.986,47,51.454,47c-3.252,0-6.056,1.886-7.4,4.621	c-0.436-0.092-2.424-0.138-2.887-0.138c-3.59,0,8.333,6.042,11.652,7.425C61.077,62.348,60.704,66.5,58.204,69	c-0.865,0.865,1.881,2.5,3,2.5L81.204,63z"/><path fill="#a0d2a1" d="M76.679,14.001c7.68,0,14.107,4.899,16.32,6.417c-5.28,2.386-5.86,14.583-14.5,14.583	c-7,0-7.5-9.5-7.5-9.5s-2-1.477-2-4.818S71.399,14.001,76.679,14.001z"/><path fill="#8cc78c" d="M71.041,25.961c0.205,1.889,1.382,9.04,7.458,9.04c8.55,0,9.21-11.937,14.339-14.499	C81.971,20.51,75.549,21.305,71.041,25.961z"/><path fill="none" stroke="#1f212b" stroke-linecap="round" stroke-linejoin="round" stroke-miterlimit="10" stroke-width="2" d="M83.327,62c0.862-1.103,1.376-2.492,1.376-4c0-3.59-2.91-6.5-6.5-6.5c-0.477,0-0.941,0.055-1.389,0.152	c-1.296-2.467-3.88-4.152-6.861-4.152c-0.43,0-0.85,0.044-1.261,0.112c-1.722-2.82-4.741-4.671-8.159-4.608	c-3.108,0.057-5.833,1.687-7.524,4.148C52.505,47.055,51.986,47,51.454,47c-3.252,0-6.056,1.886-7.4,4.621	c-0.436-0.092-0.887-0.143-1.35-0.143c-0.698,0-1.37,0.11-2,0.314"/><path fill="none" stroke="#1f212b" stroke-linecap="round" stroke-linejoin="round" stroke-miterlimit="10" d="M65.703,49.502	c1.254-0.942,2.812-1.5,4.501-1.5"/><path fill="none" stroke="#1f212b" stroke-linecap="round" stroke-linejoin="round" stroke-miterlimit="10" d="M63.13,53.002	c0.154-0.434,0.346-0.85,0.573-1.244"/><path fill="none" stroke="#1f212b" stroke-linejoin="round" stroke-miterlimit="10" d="M82.893,62.515	c-0.686,0.015-1.327,0.17-1.905,0.46L60.962,71.56l-3.447-2.068"/><path fill="none" stroke="#1f212b" stroke-linecap="round" stroke-linejoin="round" stroke-miterlimit="10" d="M73.453,54.502	c1.14-1.518,2.956-2.5,5-2.5"/><path fill="none" stroke="#1f212b" stroke-linecap="round" stroke-miterlimit="10" stroke-width="2" d="M40.254,52l-1.696-0.871	l-0.209-0.102c-2.95-1.361-6.093-2.054-9.341-2.058c-0.011,0-0.021,0-0.032,0c-2.818,0-5.576,0.523-8.204,1.559L12,53.993 M12,74	l13-5l31.921,14.547C57.582,83.85,58.291,84,59,84c0.767,0,1.533-0.176,2.236-0.528l24-12c2.47-1.235,3.471-4.238,2.236-6.708	c-0.895-1.791-2.596-2.31-4.472-2.264"/><path fill="none" stroke="#1f212b" stroke-linecap="round" stroke-miterlimit="10" d="M39.5,63.689l2,0.984 M43.5,65.658	l8.708,4.286c0.723,0.371,1.49,0.557,2.288,0.557c1.885,0,3.591-1.041,4.452-2.716c1.189-2.315,0.383-5.191-1.833-6.548	L39.639,52.23"/><path fill="#1f212b" d="M78.499,36.001c-6.052,0-8.151-6.331-8.47-10.028c-0.678-0.673-2.03-2.38-2.03-5.291	c0-3.7,2.716-7.682,8.68-7.682c7.459,0,13.703,4.367,16.369,6.232l0.517,0.359c0.298,0.204,0.463,0.553,0.431,0.913	c-0.032,0.359-0.255,0.674-0.584,0.823c-1.829,0.827-3.118,3.257-4.482,5.83C86.73,31.303,84.238,36.001,78.499,36.001z M76.679,15.001c-4.931,0-6.68,3.061-6.68,5.682c0,2.759,1.578,4.002,1.594,4.014c0.24,0.177,0.389,0.453,0.405,0.75	c0.019,0.349,0.539,8.554,6.501,8.554c4.536,0,6.634-3.955,8.662-7.78c1.216-2.291,2.378-4.481,4.033-5.84	C88.39,18.45,82.932,15.001,76.679,15.001z"/><path fill="#1f212b" d="M60.999,43.001h-2c0-14.596,11.619-17.933,11.737-17.965l0.525,1.93	C70.846,27.082,60.999,29.972,60.999,43.001z"/><path fill="#1f212b" d="M71.359,26.348l-0.721-0.693c4.593-4.779,11.134-5.654,22.361-5.654v1	C82.055,21.001,75.703,21.828,71.359,26.348z"/><path fill="#1f212b" d="M78.508,22.242c-0.161,0-0.319-0.078-0.416-0.223c-0.153-0.23-0.091-0.54,0.139-0.693	c1.666-1.11,1.768-3.812,1.769-3.839c0.009-0.276,0.226-0.491,0.515-0.485C80.79,17.01,81.008,17.24,81,17.516	c-0.004,0.131-0.114,3.243-2.214,4.643C78.7,22.214,78.603,22.242,78.508,22.242z"/><path fill="#1f212b" d="M78.96,26.001c-0.153,0-0.306-0.071-0.403-0.205c-1.343-1.837-3.226-2.492-3.244-2.499	c-0.262-0.088-0.402-0.372-0.314-0.633c0.089-0.262,0.375-0.401,0.632-0.315c0.089,0.03,2.196,0.752,3.733,2.857	c0.163,0.223,0.114,0.536-0.108,0.699C79.166,25.97,79.062,26.001,78.96,26.001z"/><path fill="#1f212b" d="M80.499,29.001c-0.225,0-0.429-0.152-0.485-0.379c-0.071-0.286-0.171-0.581-0.314-0.93	c-0.105-0.255,0.016-0.547,0.271-0.653c0.256-0.103,0.548,0.017,0.652,0.272c0.163,0.395,0.278,0.735,0.361,1.07	c0.066,0.268-0.097,0.539-0.364,0.606C80.579,28.996,80.539,29.001,80.499,29.001z"/></svg>