<svg xmlns="http://www.w3.org/2000/svg" viewBox="0 0 100 100">
  <path fill="#6b6aaf" d="M51 17h23a4 4 0 014 4v21l-6-6H51a4 4 0 01-4-4V21a4 4 0 014-4z"/>
  <path fill="#1f212b" d="M78 43a1 1 0 01-.707-.293L71.586 37H51c-2.757 0-5-2.243-5-5V21c0-2.757 2.243-5 5-5h23c2.757 0 5 2.243 5 5v21a1 1 0 01-1 1zM51 18c-1.654 0-3 1.346-3 3v11c0 1.654 1.346 3 3 3h21c.266 0 .52.105.707.293L77 39.586V21c0-1.654-1.346-3-3-3H51z"/>
  <path fill="#a2a2cc" d="M49 13H26a4 4 0 00-4 4v21l6-6h21a4 4 0 004-4V17a4 4 0 00-4-4z"/>
  <path fill="#1f212b" d="M22 39a1.002 1.002 0 01-1-1V17c0-2.757 2.243-5 5-5h23c2.757 0 5 2.243 5 5v11c0 2.757-2.243 5-5 5H28.414l-5.707 5.707A1 1 0 0122 39zm4-25c-1.654 0-3 1.346-3 3v18.586l4.293-4.293A.997.997 0 0128 31h21c1.654 0 3-1.346 3-3V17c0-1.654-1.346-3-3-3H26z"/>
  <path fill="#ead6c7" d="M42.665 61.344a32.355 32.355 0 00-.665-.756v-3.647C42 50.784 37.053 46 31.029 46l-.029.001-.029-.001C24.947 46 20 50.784 20 56.941v3.647s-.567.629-.665.756a1.714 1.714 0 00-.334.99c-.01.271.642 3.695.831 4.283.208.66.624 1.201 1.168 1.383v.49c0 1.216.569 2.394.993 3.039 1.272 1.937 3.199 3.355 5.007 4.263V76c0 2.031-2 2.75-2 2.75S26 83 31 83s6-4.25 6-4.25S35 78 35 76v-.208c1.808-.908 3.736-2.326 5.007-4.263.424-.645.993-1.823.993-3.039V68c.544-.182.96-.723 1.168-1.384.189-.588.841-4.012.831-4.283a1.72 1.72 0 00-.334-.989z"/>
  <path fill="#00ac9c" d="M46.974 85.641l-.006-.006a7.12 7.12 0 00-4.378-5.054L37 78.75l-.867-.253-.006.015C36.118 78.527 35.142 80 31 80c-4.134 0-5.115-1.467-5.125-1.482l-.018-.018-.857.25-5.59 1.832a7.122 7.122 0 00-4.378 5.054l-.006.006c-.153.698.387 1.358 1.115 1.358H45.86c.727 0 1.267-.66 1.114-1.359z"/>
  <path fill="#b77748" d="M21.5 63a.502.502 0 01-.416-.222C19.063 61.119 18 58.598 18 55.5 18 49.355 23.042 43 31.478 43c4.334 0 6.794 1.912 7.667 3.66C41.976 47.089 44 50.733 44 55.5c0 5.075-3.08 7.315-3.211 7.408a.501.501 0 01-.789-.416c0-.031.019-3.14-1.999-5.411-1.265-1.422-1.733-2.449-1.905-3.448C34.802 55.931 32.58 58 29.5 58a.502.502 0 01-.391-.812c1.054-1.317 1.598-2.798 1.798-3.844-3.375 1.88-5.945 6.355-5.972 6.403a.5.5 0 01-.788.107c-.034-.034-.633-.646-.952-1.829C22.016 60.397 22 62.476 22 62.5a.501.501 0 01-.5.5z"/>
  <path fill="#1f212b" d="M30.971 77c-1.934 0-6.587-1.828-8.978-5.471l.836-.549c2.132 3.248 6.497 5.02 8.142 5.02 1.712 0 6.038-1.724 8.201-5.02l.836.549C37.617 75.172 32.926 77 30.971 77z"/>
  <path fill="#1f212b" d="M45.86 88H16.141a2.134 2.134 0 01-1.673-.799 2.1 2.1 0 01-.419-1.773.922.922 0 01.03-.106c.614-2.579 2.465-4.694 4.968-5.671l5.642-1.851c.018-.008 1.058-.415 1.273-1.426-1.538-.852-3.446-2.229-4.804-4.296-.266-.404-1.123-1.835-1.156-3.489-.503-.376-.897-.955-1.123-1.671-.176-.549-.895-4.124-.877-4.62a2.715 2.715 0 01.537-1.559c.111-.144.719-.821.719-.821l1.485 1.34c-.001.001-.512.565-.618.7-.049.063-.116.196-.124.412.031.34.628 3.458.784 3.941.137.436.366.685.533.74A1 1 0 0122 68v.49c0 .906.428 1.88.829 2.49 1.01 1.537 2.651 2.929 4.62 3.918a1 1 0 01.551.894V76c0 2.703-2.553 3.652-2.662 3.691l-5.617 1.841a6.094 6.094 0 00-3.716 4.332c.042.109.077.136.136.136H45.86a.137.137 0 00.115-.053l.041-.012a1.072 1.072 0 01-.022-.081 6.111 6.111 0 00-3.766-4.342L36.689 79.7C36.541 79.646 34 78.662 34 76v-.208a1 1 0 01.551-.894c1.97-.99 3.611-2.381 4.62-3.918.401-.61.829-1.584.829-2.49V68c0-.431.275-.813.683-.948.167-.056.396-.305.531-.735.157-.489.754-3.607.787-4.017a.691.691 0 00-.131-.352c-.095-.123-.545-.726-.545-.726l1.603-1.197c0 .001.434.581.53.706.235.31.516.826.542 1.565.017.476-.707 4.09-.878 4.625-.224.713-.618 1.291-1.121 1.667-.033 1.654-.89 3.085-1.157 3.489-1.355 2.066-3.264 3.444-4.803 4.296.221 1.019 1.299 1.436 1.312 1.439l5.551 1.817c2.557.994 4.41 3.113 5.023 5.697.011.032.02.065.027.099a2.103 2.103 0 01-.419 1.775c-.41.509-1.02.8-1.675.8z"/>
  <path fill="#1f212b" d="M33.5 80.786a.5.5 0 01-.093-.991c2.137-.403 2.715-1.275 2.721-1.284a.484.484 0 01.662-.207c.247.124.338.44.214.688-.006.013-.663 1.268-3.412 1.786a.572.572 0 01-.092.008zM31 81c-4.674 0-5.862-1.766-5.982-1.967a.5.5 0 01.857-.516C25.897 78.552 26.894 80 31 80c.13 0 .251-.004.374-.008l.112-.004c.264.008.506.209.515.485a.501.501 0 01-.485.515l-.109.003c-.134.005-.266.009-.407.009zm8.536-22a.501.501 0 01-.45-.28 7.586 7.586 0 00-.546-.938.499.499 0 11.826-.562c.23.338.438.695.618 1.062a.5.5 0 01-.448.718zm-2.123-3a.499.499 0 01-.419-.226c-.528-.807-.777-1.495-.893-2.171a10.942 10.942 0 01-1.222 1.749.5.5 0 01-.758-.652 10.35 10.35 0 001.904-3.358.5.5 0 01.975.158v.25c-.003 1.325-.005 2.2.831 3.476a.5.5 0 01-.418.774z"/>
  <path fill="#1f212b" d="M21.5 63a.502.502 0 01-.416-.222C19.063 61.118 18 58.598 18 55.5 18 49.355 23.042 43 31.478 43c4.335 0 6.795 1.912 7.667 3.66C41.977 47.089 44 50.733 44 55.5c0 5.075-3.08 7.315-3.211 7.408a.502.502 0 01-.789-.415c0-.008.007-.808-.243-1.88a.5.5 0 11.974-.227c.09.385.15.737.19 1.039C41.749 60.506 43 58.602 43 55.5c0-4.395-1.777-7.707-4.227-7.876a.499.499 0 01-.428-.31C37.72 45.785 35.547 44 31.478 44 23.667 44 19 49.847 19 55.5c0 1.751.381 4.122 2.091 5.938a12.747 12.747 0 011.993-5.215.496.496 0 01.561-.201.498.498 0 01.355.478c0 .954.246 1.646.474 2.083.972-1.524 3.574-5.194 6.835-6.545A.5.5 0 0132 52.5c0 1.079-.463 2.806-1.464 4.402a5.577 5.577 0 001.717-.639.5.5 0 11.494.87A6.504 6.504 0 0129.5 58a.502.502 0 01-.391-.812c1.054-1.316 1.598-2.799 1.798-3.845-3.379 1.882-5.945 6.355-5.972 6.404a.496.496 0 01-.368.248.497.497 0 01-.421-.142c-.034-.034-.633-.646-.952-1.829C22.016 60.397 22 62.476 22 62.5a.502.502 0 01-.5.5z"/>
  <path fill="#ccac94" d="M80.665 61.344c-.098-.127-.665-.756-.665-.756v-3.647C80 50.784 75.053 46 69.029 46l-.029.001-.029-.001C62.947 46 58 50.784 58 56.941v3.647s-.567.629-.665.756a1.714 1.714 0 00-.334.99c-.01.271.642 3.695.831 4.283.208.66.624 1.201 1.168 1.383v.49c0 1.216.569 2.394.993 3.039 1.272 1.937 3.199 3.355 5.007 4.263V76c0 2.031-2 2.75-2 2.75S64 83 69 83s6-4.25 6-4.25S73 78 73 76v-.208c1.808-.908 3.736-2.326 5.007-4.263.424-.645.993-1.823.993-3.039V68c.544-.182.96-.723 1.168-1.384.189-.588.841-4.012.831-4.283a1.72 1.72 0 00-.334-.989z"/>
  <path fill="#eddc67" d="M84.974 85.641l-.006-.006a7.12 7.12 0 00-4.378-5.054L75 78.75l-.867-.253-.006.015C74.118 78.527 73.142 80 69 80c-4.134 0-5.115-1.467-5.125-1.482l-.018-.018-.857.25-5.59 1.832a7.122 7.122 0 00-4.378 5.054l-.006.006c-.153.698.387 1.358 1.115 1.358H83.86c.727 0 1.267-.66 1.114-1.359z"/>
  <path fill="#b77748" d="M59.5 63a.502.502 0 01-.416-.222C57.063 61.119 56 58.598 56 55.5 56 49.355 61.042 43 69.478 43c4.334 0 6.794 1.912 7.667 3.66C79.976 47.089 82 50.733 82 55.5c0 5.075-3.08 7.315-3.211 7.408a.501.501 0 01-.789-.416c0-.031.019-3.14-1.999-5.411-1.265-1.422-1.733-2.449-1.905-3.448C72.802 55.931 70.58 58 67.5 58a.502.502 0 01-.391-.812c1.054-1.317 1.598-2.798 1.798-3.844-3.375 1.88-5.945 6.355-5.972 6.403a.5.5 0 01-.788.107c-.034-.034-.633-.646-.952-1.829C60.016 60.397 60 62.476 60 62.5a.501.501 0 01-.5.5z"/>
  <path fill="#1f212b" d="M68.971 77c-1.934 0-6.587-1.828-8.978-5.471l.836-.549c2.132 3.248 6.496 5.02 8.142 5.02 1.712 0 6.038-1.724 8.201-5.02l.836.549C75.617 75.172 70.926 77 68.971 77z"/>
  <path fill="#1f212b" d="M83.86 88H54.14a2.134 2.134 0 01-1.673-.799 2.098 2.098 0 01-.391-1.875c.613-2.582 2.465-4.699 4.97-5.676l5.642-1.851c.019-.008 1.058-.415 1.272-1.426-1.538-.852-3.447-2.229-4.804-4.296-.267-.405-1.123-1.837-1.156-3.489-.503-.376-.897-.955-1.123-1.671-.17-.528-.894-4.143-.876-4.62a2.707 2.707 0 01.536-1.559c.109-.142.72-.821.72-.821l1.484 1.34c-.001.002-.509.563-.617.698a.728.728 0 00-.125.413c.032.343.629 3.46.784 3.941.138.437.366.686.532.741.41.138.685.519.685.95v.49c0 .905.429 1.88.829 2.49 1.009 1.537 2.649 2.928 4.62 3.918a1 1 0 01.551.894V76c0 2.703-2.553 3.652-2.662 3.691l-5.616 1.841a6.096 6.096 0 00-3.714 4.323l-.002.008c.041.11.076.137.135.137h29.72a.136.136 0 00.114-.052l.041-.013a.57.57 0 01-.022-.081c-.444-1.974-1.853-3.597-3.766-4.342l-5.54-1.812C74.541 79.646 72 78.662 72 76v-.208a1 1 0 01.551-.894c1.972-.99 3.612-2.382 4.62-3.918.4-.61.829-1.585.829-2.49V68c0-.431.275-.813.684-.948.166-.056.395-.305.53-.735.157-.488.754-3.605.786-4.017a.674.674 0 00-.131-.352c-.096-.125-.545-.726-.545-.726l1.602-1.197s.436.583.532.708a2.7 2.7 0 01.54 1.564c.018.477-.706 4.091-.878 4.625-.225.712-.618 1.29-1.121 1.666-.033 1.652-.89 3.084-1.156 3.489-1.355 2.065-3.265 3.443-4.804 4.296.222 1.019 1.3 1.436 1.313 1.439l5.551 1.817c2.557.994 4.409 3.113 5.021 5.697a2.098 2.098 0 01-.391 1.873A2.129 2.129 0 0183.86 88z"/>
  <path fill="#1f212b" d="M71.499 80.786a.5.5 0 01-.092-.991c2.137-.403 2.715-1.274 2.72-1.283.116-.25.402-.336.653-.22.25.117.347.437.229.688-.006.012-.667 1.278-3.417 1.798a.574.574 0 01-.093.008zM69 81c-4.834 0-5.945-1.9-5.99-1.98a.502.502 0 01.194-.681.502.502 0 01.672.181C63.909 78.567 64.917 80 69 80c.13 0 .252-.004.373-.008l.112-.004a.501.501 0 01.03 1l-.108.003c-.134.005-.265.009-.407.009zm8.535-22a.5.5 0 01-.449-.28 7.627 7.627 0 00-.546-.938.499.499 0 11.826-.562c.232.341.439.697.618 1.062a.5.5 0 01-.449.718zm-2.123-3a.497.497 0 01-.418-.227c-.528-.806-.777-1.494-.894-2.17a10.878 10.878 0 01-1.222 1.749.5.5 0 11-.758-.652 10.35 10.35 0 001.904-3.358.5.5 0 01.555-.335.5.5 0 01.421.493v.248c-.004 1.326-.006 2.201.83 3.479a.498.498 0 01-.418.773z"/>
  <path fill="#1f212b" d="M59.5 63a.502.502 0 01-.416-.222C57.063 61.118 56 58.598 56 55.5 56 49.355 61.041 43 69.478 43c4.335 0 6.795 1.912 7.668 3.66C79.977 47.089 82 50.733 82 55.5c0 5.075-3.08 7.315-3.211 7.408a.502.502 0 01-.789-.415c0-.008.007-.808-.243-1.88a.5.5 0 11.975-.227c.089.385.149.737.189 1.04.827-.92 2.079-2.824 2.079-5.926 0-4.395-1.777-7.707-4.227-7.876a.501.501 0 01-.429-.31C75.72 45.785 73.547 44 69.478 44 61.667 44 57 49.847 57 55.5c0 1.751.381 4.122 2.092 5.938a12.757 12.757 0 011.992-5.215.499.499 0 01.916.277c0 .954.245 1.646.474 2.083.973-1.524 3.573-5.194 6.835-6.545A.498.498 0 0170 52.5c0 1.079-.463 2.806-1.465 4.402a5.608 5.608 0 001.718-.639c.239-.138.545-.053.682.188s.053.546-.188.682A6.507 6.507 0 0167.5 58a.499.499 0 01-.39-.812c1.054-1.316 1.598-2.799 1.798-3.845-3.379 1.882-5.945 6.355-5.973 6.404a.499.499 0 01-.788.106c-.034-.034-.633-.646-.951-1.829C60.016 60.397 60 62.476 60 62.5a.502.502 0 01-.5.5z"/>
</svg>
