<svg xmlns="http://www.w3.org/2000/svg" fill="#767676" viewBox="0 0 100 100">
  <path d="M21 20c-2.757 0-5 2.243-5 5v4h-1c-2.757 0-5 2.243-5 5v39c0 2.757 2.243 5 5 5h23.674c2.884 0 5.477-1.529 6.906-4h8.84c1.427 2.472 4.022 4 6.906 4H85c2.757 0 5-2.243 5-5V34c0-2.757-2.243-5-5-5h-1v-4c0-2.757-2.243-5-5-5H21zm0 2h58c1.654 0 3 1.346 3 3v4H18v-4c0-1.654 1.346-3 3-3zm-6 9h70c1.654 0 3 1.346 3 3v39c0 1.654-1.346 3-3 3H61.326a5.968 5.968 0 01-5.367-3.316l-3.605-7.211A2.617 2.617 0 0050 64.018a2.62 2.62 0 00-2.355 1.455l-3.606 7.21A5.964 5.964 0 0138.674 76H15c-1.654 0-3-1.346-3-3V34c0-1.654 1.346-3 3-3zm0 2a.99.99 0 00-1 1v32.5a.5.5 0 001 0V34h39.5a.5.5 0 000-1H15zm42.5 0a.5.5 0 000 1h3a.5.5 0 000-1h-3zm8 0a.5.5 0 000 1H85v9.5a.5.5 0 001 0V34a.99.99 0 00-1-1H65.5zm-34 8C24.607 41 19 46.607 19 53.5S24.607 66 31.5 66 44 60.393 44 53.5 38.393 41 31.5 41zm37 0C61.607 41 56 46.607 56 53.5S61.607 66 68.5 66 81 60.393 81 53.5 75.393 41 68.5 41zm-37 2C37.29 43 42 47.71 42 53.5S37.29 64 31.5 64 21 59.29 21 53.5 25.71 43 31.5 43zm37 0C74.29 43 79 47.71 79 53.5S74.29 64 68.5 64 58 59.29 58 53.5 62.71 43 68.5 43zm0 2a.5.5 0 000 1c.635 0 1.267.08 1.875.236a.5.5 0 00.25-.969A8.524 8.524 0 0068.5 45zm-38.06.064c-3.429.428-6.311 2.964-7.172 6.311a.5.5 0 10.968.248c.76-2.952 3.303-5.19 6.326-5.566a.5.5 0 00-.123-.993zm2.12.002a.49.49 0 00-.556.434.5.5 0 00.434.559c.32.04.633.1.939.177a.497.497 0 00.605-.36.5.5 0 00-.359-.608 8.325 8.325 0 00-1.062-.202zm34.014.192a.505.505 0 00-.199.01 8.56 8.56 0 00-5.236 3.982A8.498 8.498 0 0060 53.5a.5.5 0 001 0c0-1.318.348-2.614 1.004-3.748a7.548 7.548 0 014.621-3.516.5.5 0 00-.05-.978zm-31.01.816a.501.501 0 00-.314.93A7.53 7.53 0 0139 53.5a.5.5 0 001 0 8.528 8.528 0 00-4.25-7.361.483.483 0 00-.186-.065zm36.998 0a.501.501 0 00-.313.93c.328.189.643.404.938.64a.498.498 0 10.626-.779 8.358 8.358 0 00-1.063-.728.498.498 0 00-.188-.063zM49.721 61.031a5.67 5.67 0 00-3.012 1.04.5.5 0 10.584.812c1.157-.83 2.695-1.075 4.064-.664a.496.496 0 00.622-.336.498.498 0 00-.334-.623 5.706 5.706 0 00-1.924-.229zm3.896 1.469a.498.498 0 00-.351.854c.356.354.65.763.877 1.218a.5.5 0 10.894-.445 5.58 5.58 0 00-1.066-1.482.498.498 0 00-.354-.145zm-8.25 1.502a.5.5 0 00-.478.275l-3.537 7.07A2.97 2.97 0 0138.67 73H19.5a.5.5 0 000 1h19.17a3.966 3.966 0 003.578-2.205l3.535-7.07a.502.502 0 00-.416-.723zm4.635 2.016c.117 0 .407.034.564.35L53.383 72h-6.764l2.817-5.633a.617.617 0 01.566-.35zm8.17 5.044a.498.498 0 00-.42.72A3.959 3.959 0 0061.33 74H82.5a.5.5 0 000-1H61.33a2.965 2.965 0 01-2.682-1.66.498.498 0 00-.476-.278z"/>
</svg>
