<svg xmlns="http://www.w3.org/2000/svg" viewBox="0 0 100 100">
  <path fill="#f59173" d="M35 71.5c0 13-19.5 13-19.5 13s0-19.5 13-19.5"/>
  <path fill="#eddc67" d="M31.5 67.5c-10 0-10 11-10 11s11 0 11-10"/>
  <path fill="#e3e2e3" d="M43 70s28-22 33-27c8-8 8-17 8-20 0-5-1-6-1-6s-1-1-6-1c-3 0-12 0-20 8-5 5-27 33-27 33l13 13z"/>
  <path fill="#b2b1c2" d="M30 57l4.854-4.854 13.5 13.5L43 69.5z"/>
  <path fill="#f05b6c" d="M81.496 35.203C83.992 29.832 84 25.035 84 23c0-5-1-6-1-6s-1-1-6-1c-2.035 0-6.832.008-12.203 2.504l16.699 16.699zM30 57l-14-4 3-4 21.5-5M43 70l4 14 4-3 5-21.5"/>
  <path fill="#9898ad" d="M41 68l-6 3-6-6 3-6"/>
  <circle cx="61.5" cy="38.5" r="8" fill="#b2b1c2"/>
  <circle cx="61.5" cy="38.5" r="5.5" fill="#c4e7ed"/>
  <path fill="#1f212b" d="M61.5 47c-4.687 0-8.5-3.813-8.5-8.5s3.813-8.5 8.5-8.5 8.5 3.813 8.5 8.5-3.813 8.5-8.5 8.5zm0-16c-4.136 0-7.5 3.364-7.5 7.5s3.364 7.5 7.5 7.5 7.5-3.364 7.5-7.5-3.364-7.5-7.5-7.5z"/>
  <path fill="#1f212b" d="M61.5 44a5.506 5.506 0 01-5.5-5.5 5.516 5.516 0 014.4-5.39.5.5 0 11.199.981A4.511 4.511 0 0057 38.5c0 2.481 2.019 4.5 4.5 4.5a4.5 4.5 0 004.12-2.701.5.5 0 01.916.402A5.5 5.5 0 0161.5 44zM64.473 35a.499.499 0 01-.299-.099 4.442 4.442 0 00-1.773-.811.5.5 0 01-.391-.589.503.503 0 01.59-.39 5.446 5.446 0 012.172.988.5.5 0 01-.299.901zM66.398 38a.5.5 0 01-.489-.4 4.536 4.536 0 00-.289-.9.5.5 0 11.916-.399c.16.367.279.737.354 1.1a.5.5 0 01-.492.599zM29.726 57.961l-14-4a1.004 1.004 0 01-.674-.643 1.004 1.004 0 01.148-.919l3-4a.999.999 0 01.573-.374l21.5-5 .453 1.948L19.58 49.89l-1.909 2.546 12.603 3.601-.548 1.924z"/>
  <path fill="#1f212b" d="M43 71a.998.998 0 01-.707-.293l-13-13a1 1 0 01-.079-1.325c.899-1.146 22.094-28.104 27.079-33.089C64.586 15 73.93 15 77 15c5.023 0 6.404.99 6.707 1.293C84.011 16.596 85 17.976 85 23c0 3.07 0 12.414-8.293 20.707-4.985 4.985-31.944 26.18-33.089 27.079A.992.992 0 0143 71zM31.335 56.921l11.744 11.744c4.356-3.432 27.751-21.909 32.214-26.372C83 34.586 83 25.866 83 23c0-3.664-.558-4.978-.719-5.281C81.978 17.558 80.664 17 77 17c-2.865 0-11.586 0-19.293 7.707-4.463 4.463-22.937 27.855-26.372 32.214z"/>
  <path fill="#1f212b" d="M65.145 18.854l.707-.707 16 16-.707.706zM47 85a1 1 0 01-.962-.725l-4-14 1.924-.55 3.601 12.603 2.546-1.91 4.918-21.145 1.947.453-5 21.5a.999.999 0 01-.374.573l-4 3A.99.99 0 0147 85zM35 72a1 1 0 01-.707-.293l-6-6a1 1 0 01-.188-1.154l3-6 1.789.895-2.678 5.355 4.98 4.98 5.355-2.678.895 1.789-6 3A.991.991 0 0135 72z"/>
  <path fill="#1f212b" d="M15.5 85a.5.5 0 01-.5-.5c0-.2.154-20 13.5-20v1c-11.189 0-12.364 15.447-12.486 18.486C19.054 83.864 34.5 82.69 34.5 71.5h1c0 13.346-19.8 13.5-20 13.5z"/>
  <path fill="#1f212b" d="M21.5 79a.5.5 0 01-.5-.5c0-.115.12-11.5 10.5-11.5v1c-8.286 0-9.346 7.839-9.48 9.98 2.14-.138 9.98-1.208 9.98-9.48h1C33 78.88 21.615 79 21.5 79zM48 66.5a.502.502 0 01-.354-.146l-2.5-2.5a.5.5 0 01.707-.707l2.5 2.5A.5.5 0 0148 66.5zM43.5 62a.502.502 0 01-.354-.146l-9-9a.5.5 0 01.707-.707l9 9A.5.5 0 0143.5 62z"/>
</svg>
