<svg xmlns="http://www.w3.org/2000/svg" fill="#767676" viewBox="0 0 100 100">
  <path d="M26 12c-2.75 0-5 2.25-5 5v21a1 1 0 001.707.707L28.414 33h17.688c.466 2.275 2.49 4 4.898 4h20.586l5.707 5.707A1 1 0 0079 42V21c0-2.75-2.25-5-5-5H53.898c-.466-2.275-2.49-4-4.898-4H26zm0 2h23c1.668 0 3 1.332 3 3v11c0 1.668-1.332 3-3 3H28a1 1 0 00-.707.293L23 35.586V17c0-1.668 1.332-3 3-3zm28 4h20c1.668 0 3 1.332 3 3v18.586l-4.293-4.293A1 1 0 0072 35H51a2.974 2.974 0 01-2.818-2H49c2.75 0 5-2.25 5-5V18zM31.479 43C23.249 43 18 49.222 18 55.5c0 2.004.455 3.537 1.023 4.68l-.066.074c-.157.176-.283.309-.414.478a1 1 0 00-.004.008c-.272.36-.513.896-.537 1.557-.01.273.014.28.033.416.02.135.046.3.078.49.065.38.153.855.246 1.342.187.972.355 1.859.52 2.373l.002.002v.004c.195.615.6 1.139 1.119 1.549v.017c0 1.528.653 2.82 1.158 3.588h-.002c1.241 1.89 3.003 3.21 4.725 4.176-.198 1.099-1.208 1.55-1.215 1.553l-.004.002-5.564 1.822a1 1 0 00-.051.02c-2.371.924-4.07 2.93-4.772 5.331a1 1 0 00-.226.446c-.287 1.307.76 2.572 2.092 2.572h29.718c1.333 0 2.378-1.265 2.092-2.572a1 1 0 00-.226-.45c-.702-2.399-2.401-4.406-4.772-5.33a1 1 0 00-.05-.017l-5.56-1.82c-.013-.005-1.022-.488-1.222-1.559 1.722-.966 3.483-2.285 4.723-4.174h-.002C41.347 71.31 42 70.018 42 68.49v-.017c.52-.41.924-.935 1.12-1.551v-.004c.164-.514.333-1.4.52-2.373.094-.487.182-.965.247-1.344.032-.19.058-.353.078-.488.02-.136.043-.143.033-.416a2.75 2.75 0 00-.537-1.559 1 1 0 00-.004-.006c-.062-.08-.41-.545-.482-.64C43.543 58.936 44 57.415 44 55.5c0-2.414-.505-4.537-1.395-6.12-.824-1.466-2.04-2.407-3.453-2.634C38.383 45.107 36.098 43 31.48 43zm38 0C61.249 43 56 49.222 56 55.5c0 2.004.455 3.537 1.023 4.68l-.066.074c-.157.176-.283.309-.414.478a1 1 0 00-.004.008c-.272.36-.513.896-.537 1.557-.01.273.014.28.033.416.02.135.046.3.078.49.065.38.153.855.246 1.342.187.972.355 1.859.52 2.373l.002.002v.004c.195.615.6 1.139 1.119 1.549v.017c0 1.528.653 2.82 1.158 3.588h-.002c1.241 1.89 3.003 3.21 4.725 4.176-.198 1.099-1.208 1.55-1.215 1.553l-.004.002-5.564 1.822a1 1 0 00-.051.02c-2.371.924-4.07 2.93-4.772 5.331a1 1 0 00-.226.446c-.287 1.307.76 2.572 2.092 2.572h29.718c1.333 0 2.378-1.265 2.092-2.572a1 1 0 00-.226-.45c-.702-2.399-2.401-4.406-4.772-5.33a1 1 0 00-.05-.017l-5.56-1.82c-.013-.005-1.022-.488-1.222-1.559 1.722-.966 3.483-2.285 4.723-4.174h-.002C79.347 71.31 80 70.018 80 68.49v-.017c.52-.41.924-.935 1.12-1.551v-.004c.164-.514.333-1.4.52-2.373.094-.487.182-.965.247-1.344.032-.19.058-.353.078-.488.02-.136.043-.143.033-.416a2.75 2.75 0 00-.537-1.559 1 1 0 00-.004-.006c-.062-.08-.41-.545-.482-.64C81.543 58.936 82 57.415 82 55.5c0-2.414-.505-4.537-1.395-6.12-.824-1.466-2.04-2.407-3.453-2.634C76.383 45.107 74.098 43 69.48 43zm-38 1c4.477 0 6.371 2.102 6.867 3.314a.5.5 0 00.427.309c1.148.08 2.18.859 2.96 2.246C42.512 51.256 43 53.227 43 55.5c0 3.59-1.382 5.16-2.145 5.877-.034-.372.007-.426-.125-.99a.5.5 0 10-.972.226c.256 1.097.242 1.88.242 1.88a.5.5 0 00.79.415s.459-.336 1.03-1.025l.05.066a.697.697 0 01.122.373c-.001.033-.002.069-.008.108-.015.105-.04.256-.07.435-.06.358-.147.825-.238 1.301-.183.952-.435 2.07-.46 2.145a1 1 0 00-.001.005c-.14.446-.407.693-.531.735A1 1 0 0040 68v.49c0 .904-.486 1.97-.828 2.49-.14.213-.29.42-.447.62-.033.041-.069.08-.102.12a9.881 9.881 0 01-.385.448c-.278.304-.58.587-.888.857-.075.065-.147.131-.223.194-.095.078-.195.145-.291.22-.31.243-.625.479-.947.688-.1.065-.2.12-.301.182a14.21 14.21 0 01-.936.53C33.15 75.608 31.692 76 30.971 76c-.681 0-2.104-.386-3.582-1.137a14.194 14.194 0 01-1.04-.592c-.075-.047-.15-.087-.226-.136-.327-.212-.646-.45-.96-.696-.097-.075-.197-.142-.292-.22-.075-.062-.147-.128-.22-.192-.313-.273-.618-.559-.899-.867a9.343 9.343 0 01-.924-1.18c-.342-.52-.828-1.586-.828-2.49V68a1 1 0 00-.684-.95c-.124-.04-.39-.289-.53-.734a1 1 0 00-.003-.005 51.643 51.643 0 01-.459-2.143 65.151 65.151 0 01-.238-1.3c-.03-.18-.055-.333-.07-.438-.006-.04-.007-.075-.008-.108a.696.696 0 01.125-.373l.037-.04c.171.195.335.368.476.503.154.146.285.259.377.336l.104.086c.006.005-.016-.022-.012-.016A.5.5 0 0022 62.5s.25-2.086 1.355-4.406c.086.266.098.68.198.879.28.56.593.88.593.88a.5.5 0 00.79-.107s.738-1.305 1.966-2.816c1.015-1.25 2.4-2.507 3.88-3.377-.209 1.018-.629 2.33-1.673 3.635A.5.5 0 0029.5 58c1.233 0 2.319-.34 3.246-.867a.5.5 0 10-.492-.87c-.512.291-1.155.35-1.764.471.994-1.641 1.51-3.28 1.51-4.234a.5.5 0 00-.691-.463c-2.117.877-3.9 2.686-5.182 4.264-1.006 1.239-1.366 1.897-1.62 2.318-.03-.054-.027-.026-.06-.092-.22-.44-.447-1.11-.447-2.027a.5.5 0 00-.916-.277c-1.529 2.293-1.837 4.161-1.945 5.228-.234-.24-.485-.496-.758-.906C19.69 59.51 19 57.903 19 55.5 19 49.778 23.751 44 31.479 44zm38 0c4.477 0 6.371 2.102 6.867 3.314a.5.5 0 00.427.309c1.148.08 2.18.859 2.96 2.246C80.512 51.256 81 53.227 81 55.5c0 3.59-1.382 5.16-2.145 5.877-.034-.372.007-.426-.125-.99a.5.5 0 10-.972.226c.256 1.097.242 1.88.242 1.88a.5.5 0 00.79.415s.459-.336 1.03-1.025l.05.066a.697.697 0 01.122.373c-.001.033-.002.069-.008.108-.015.105-.04.256-.07.435-.06.358-.147.825-.238 1.301-.183.952-.435 2.07-.46 2.145a1 1 0 00-.001.005c-.14.446-.407.693-.531.735A1 1 0 0078 68v.49c0 .904-.486 1.97-.828 2.49-.14.213-.29.42-.447.62-.033.041-.069.08-.102.12a9.881 9.881 0 01-.385.448c-.278.304-.58.587-.888.857-.075.065-.147.131-.223.194-.095.078-.195.145-.291.22-.31.243-.625.479-.947.688-.1.065-.2.12-.301.182a14.21 14.21 0 01-.936.53C71.15 75.608 69.692 76 68.971 76c-.681 0-2.104-.386-3.582-1.137a14.194 14.194 0 01-1.04-.592c-.075-.047-.15-.087-.226-.136-.327-.212-.646-.45-.96-.696-.097-.075-.197-.142-.292-.22-.075-.062-.147-.128-.22-.192-.313-.273-.618-.559-.899-.867a9.343 9.343 0 01-.924-1.18c-.342-.52-.828-1.586-.828-2.49V68a1 1 0 00-.684-.95c-.124-.04-.39-.289-.53-.734a1 1 0 00-.003-.005 51.643 51.643 0 01-.459-2.143 65.151 65.151 0 01-.238-1.3c-.03-.18-.055-.333-.07-.438-.006-.04-.007-.075-.008-.108a.696.696 0 01.125-.373l.037-.04c.171.195.335.368.476.503.154.146.285.259.377.336l.104.086c.006.005-.016-.022-.012-.016A.5.5 0 0060 62.5s.25-2.086 1.355-4.406c.086.266.098.68.198.879.28.56.593.88.593.88a.5.5 0 00.79-.107s.738-1.305 1.966-2.816c1.015-1.25 2.4-2.507 3.88-3.377-.209 1.018-.629 2.33-1.673 3.635A.5.5 0 0067.5 58c1.233 0 2.319-.34 3.246-.867a.5.5 0 10-.492-.87c-.512.291-1.155.35-1.764.471.994-1.641 1.51-3.28 1.51-4.234a.5.5 0 00-.691-.463c-2.117.877-3.9 2.686-5.182 4.264-1.006 1.239-1.366 1.897-1.62 2.318-.03-.054-.027-.026-.06-.092-.22-.44-.447-1.11-.447-2.027a.5.5 0 00-.916-.277c-1.529 2.293-1.837 4.161-1.945 5.228-.234-.24-.485-.496-.758-.906C57.69 59.51 57 57.903 57 55.5 57 49.778 61.751 44 69.479 44zm-32.995 7a.5.5 0 00-.459.342c-.323.97-.962 2.264-1.904 3.357a.5.5 0 10.758.653c.605-.703.838-1.406 1.209-2.131.09.807.295 1.62.906 2.552a.5.5 0 10.836-.546c-.91-1.39-.83-2.222-.83-3.727a.5.5 0 00-.516-.5zm38 0a.5.5 0 00-.459.342c-.323.97-.962 2.264-1.904 3.357a.5.5 0 10.758.653c.605-.703.838-1.406 1.209-2.131.09.807.295 1.62.906 2.552a.5.5 0 10.836-.546c-.91-1.39-.83-2.222-.83-3.727a.5.5 0 00-.516-.5zm-35.543 5.994a.5.5 0 00-.402.787c.211.31.393.626.547.94a.5.5 0 10.898-.442 8.586 8.586 0 00-.619-1.06.5.5 0 00-.424-.225zm38 0a.5.5 0 00-.402.787c.211.31.393.626.547.94a.5.5 0 10.898-.442 8.586 8.586 0 00-.619-1.06.5.5 0 00-.424-.225zM34.016 76.246c.086 1.344.843 2.23 1.529 2.77-.41.265-1.069.577-2.137.779a.5.5 0 10.184.982c1.276-.24 2.109-.644 2.63-1.007.1-.07.138-.121.215-.186.075.034.211.102.211.102a1 1 0 00.041.015l5.541 1.815a6.116 6.116 0 013.764 4.34 1 1 0 000 .003c.016.086-.014.141-.135.141H16.141c-.12 0-.151-.056-.135-.14a1 1 0 00.002-.005c.443-1.962 1.845-3.588 3.76-4.337L25.31 79.7a1 1 0 00.027-.01l.209-.1c.189.157.417.323.74.493.904.474 2.376.916 4.713.916.188 0 .355-.007.516-.012a.5.5 0 00-.032-1c-.169.005-.322.012-.484.012-2.212 0-3.514-.415-4.248-.8-.12-.064-.205-.122-.297-.182.684-.54 1.442-1.422 1.53-2.766 1.163.488 2.215.748 2.986.748.791 0 1.864-.262 3.045-.754zm38 0c.086 1.344.843 2.23 1.529 2.77-.41.265-1.069.577-2.137.779a.5.5 0 10.184.982c1.276-.24 2.109-.644 2.63-1.007.1-.07.138-.121.216-.186.074.034.21.102.21.102a1 1 0 00.041.015l5.541 1.815a6.116 6.116 0 013.764 4.34 1 1 0 000 .003c.016.086-.014.141-.135.141H54.141c-.12 0-.151-.056-.135-.14a1 1 0 00.002-.005c.443-1.962 1.845-3.588 3.76-4.337L63.31 79.7a1 1 0 00.027-.01l.209-.1c.189.157.417.323.74.493.904.474 2.376.916 4.713.916.188 0 .355-.007.516-.012a.5.5 0 00-.032-1c-.169.005-.322.012-.484.012-2.212 0-3.514-.415-4.248-.8-.12-.064-.203-.123-.295-.182.686-.538 1.44-1.42 1.527-2.766 1.164.488 2.216.748 2.987.748.791 0 1.864-.262 3.045-.754z"/>
</svg>
