<svg xmlns="http://www.w3.org/2000/svg" viewBox="0 0 100 100">
  <path fill="#ceccbe" d="M68.461 28.018v-5.5c0-.412.338-.75.75-.75h1.5c.412 0 .75.337.75.75v5.5c0 .413-.337.75-.75.75h-1.5a.752.752 0 01-.75-.75z"/>
  <path fill="#1f212b" d="M70.711 29.268h-1.5c-.689 0-1.25-.561-1.25-1.25v-5.5c0-.689.561-1.25 1.25-1.25h1.5c.689 0 1.25.561 1.25 1.25v5.5c0 .689-.561 1.25-1.25 1.25zm-1.5-7a.253.253 0 00-.25.25v5.5c0 .136.114.25.25.25h1.5c.136 0 .25-.114.25-.25v-5.5a.253.253 0 00-.25-.25h-1.5z"/>
  <path fill="#fefdef" d="M63.961 85.268h-29c-2.75 0-5-2.25-5-5v-61c0-2.75 2.25-5 5-5h29c2.75 0 5 2.25 5 5v61c0 2.75-2.25 5-5 5z"/>
  <path fill="#1f212b" d="M63.961 86.268h-29c-3.309 0-6-2.691-6-6v-61c0-3.309 2.691-6 6-6h29c3.309 0 6 2.691 6 6v61c0 3.308-2.692 6-6 6zm-29-71c-2.206 0-4 1.794-4 4v61c0 2.206 1.794 4 4 4h29c2.206 0 4-1.794 4-4v-61c0-2.206-1.794-4-4-4h-29z"/>
  <path fill="#c7dff1" d="M64.961 32.268v41h-30v-50h30z"/>
  <path fill="#1f212b" d="M34.461 54.268a.5.5 0 01-.5-.5v-31a.5.5 0 01.5-.5h26a.5.5 0 010 1h-25.5v30.5a.5.5 0 01-.5.5zm30 19h-30a.5.5 0 01-.5-.5v-9a.5.5 0 011 0v8.5h29v-40.5a.5.5 0 011 0v41a.5.5 0 01-.5.5z"/>
  <path fill="#ceccbe" d="M48.961 75.768a2.5 2.5 0 100 5 2.5 2.5 0 100-5z"/>
  <path fill="#1f212b" d="M48.961 81.268c-1.654 0-3-1.346-3-3s1.346-3 3-3 3 1.346 3 3-1.346 3-3 3zm0-5c-1.103 0-2 .897-2 2s.897 2 2 2 2-.897 2-2-.897-2-2-2zm4.545-57h-8.091a.455.455 0 01-.454-.454v-.091c0-.25.204-.454.454-.454h8.091c.25 0 .454.204.454.454v.091a.455.455 0 01-.454.454z"/>
  <path fill="#a1d3a2" d="M42.315 32.768h-3.708a1.15 1.15 0 01-1.146-1.146v-3.708c0-.63.516-1.146 1.146-1.146h3.708c.63 0 1.146.516 1.146 1.146v3.708a1.15 1.15 0 01-1.146 1.146z"/>
  <path fill="#1f212b" d="M42.315 33.268h-3.708a1.647 1.647 0 01-1.646-1.646v-3.709c0-.907.738-1.646 1.646-1.646h3.708c.908 0 1.646.738 1.646 1.646v3.709c0 .907-.739 1.646-1.646 1.646zm-3.708-6a.647.647 0 00-.646.646v3.709c0 .355.29.646.646.646h3.708c.356 0 .646-.29.646-.646v-3.709a.648.648 0 00-.646-.646h-3.708z"/>
  <path fill="#78a2d2" d="M51.315 32.768h-3.708a1.15 1.15 0 01-1.146-1.146v-3.708c0-.63.516-1.146 1.146-1.146h3.708c.63 0 1.146.516 1.146 1.146v3.708a1.15 1.15 0 01-1.146 1.146z"/>
  <path fill="#1f212b" d="M51.315 33.268h-3.708a1.647 1.647 0 01-1.646-1.646v-3.709c0-.907.738-1.646 1.646-1.646h3.708c.908 0 1.646.738 1.646 1.646v3.709c0 .907-.739 1.646-1.646 1.646zm-3.708-6a.647.647 0 00-.646.646v3.709c0 .355.29.646.646.646h3.708c.356 0 .646-.29.646-.646v-3.709a.648.648 0 00-.646-.646h-3.708z"/>
  <path fill="#fef6aa" d="M60.315 32.768h-3.708a1.15 1.15 0 01-1.146-1.146v-3.708c0-.63.516-1.146 1.146-1.146h3.708c.63 0 1.146.516 1.146 1.146v3.708a1.15 1.15 0 01-1.146 1.146z"/>
  <path fill="#1f212b" d="M60.315 33.268h-3.708a1.647 1.647 0 01-1.646-1.646v-3.709c0-.907.738-1.646 1.646-1.646h3.708c.908 0 1.646.738 1.646 1.646v3.709c0 .907-.739 1.646-1.646 1.646zm-3.708-6a.647.647 0 00-.646.646v3.709c0 .355.29.646.646.646h3.708c.356 0 .646-.29.646-.646v-3.709a.648.648 0 00-.646-.646h-3.708z"/>
  <path fill="#f69272" d="M42.315 41.768h-3.708a1.15 1.15 0 01-1.146-1.146v-3.708c0-.63.516-1.146 1.146-1.146h3.708c.63 0 1.146.516 1.146 1.146v3.708a1.15 1.15 0 01-1.146 1.146z"/>
  <path fill="#1f212b" d="M42.315 42.268h-3.708a1.647 1.647 0 01-1.646-1.646v-3.709c0-.907.738-1.646 1.646-1.646h3.708c.908 0 1.646.738 1.646 1.646v3.709c0 .907-.739 1.646-1.646 1.646zm-3.708-6a.647.647 0 00-.646.646v3.709c0 .355.29.646.646.646h3.708c.356 0 .646-.29.646-.646v-3.709a.648.648 0 00-.646-.646h-3.708z"/>
  <path fill="#f37e98" d="M51.315 41.768h-3.708a1.15 1.15 0 01-1.146-1.146v-3.708c0-.63.516-1.146 1.146-1.146h3.708c.63 0 1.146.516 1.146 1.146v3.708a1.15 1.15 0 01-1.146 1.146z"/>
  <path fill="#1f212b" d="M51.315 42.268h-3.708a1.647 1.647 0 01-1.646-1.646v-3.709c0-.907.738-1.646 1.646-1.646h3.708c.908 0 1.646.738 1.646 1.646v3.709c0 .907-.739 1.646-1.646 1.646zm-3.708-6a.647.647 0 00-.646.646v3.709c0 .355.29.646.646.646h3.708c.356 0 .646-.29.646-.646v-3.709a.648.648 0 00-.646-.646h-3.708z"/>
  <path fill="#00a7a7" d="M60.315 41.768h-3.708a1.15 1.15 0 01-1.146-1.146v-3.708c0-.63.516-1.146 1.146-1.146h3.708c.63 0 1.146.516 1.146 1.146v3.708a1.15 1.15 0 01-1.146 1.146z"/>
  <path fill="#1f212b" d="M60.315 42.268h-3.708a1.647 1.647 0 01-1.646-1.646v-3.709c0-.907.738-1.646 1.646-1.646h3.708c.908 0 1.646.738 1.646 1.646v3.709c0 .907-.739 1.646-1.646 1.646zm-3.708-6a.647.647 0 00-.646.646v3.709c0 .355.29.646.646.646h3.708c.356 0 .646-.29.646-.646v-3.709a.648.648 0 00-.646-.646h-3.708zm7.854-10a.5.5 0 01-.5-.5v-3a.5.5 0 011 0v3a.5.5 0 01-.5.5zm0 2c-.07 0-.13-.01-.19-.04a.372.372 0 01-.16-.11c-.1-.09-.15-.22-.15-.35s.05-.26.15-.351c.04-.05.1-.09.16-.109.18-.08.41-.03.54.109.1.091.15.221.15.351s-.05.26-.15.35a.47.47 0 01-.35.15zm-30 34a.5.5 0 01-.5-.5v-2a.5.5 0 011 0v2a.5.5 0 01-.5.5z"/>
</svg>
