<svg xmlns="http://www.w3.org/2000/svg" viewBox="0 0 1200 800">
  <path fill="#383a48" d="M1076.684 108.046C1066.627 96.36 1052.063 90 1035.834 90H900.73c-34.262 0-66.373 28.763-71.644 64.163L771.592 540.8c-2.636 17.977 1.803 34.709 12.553 47.154C794.202 599.64 808.766 606 824.995 606h135.103c34.262 0 66.373-28.763 71.644-64.163l57.495-386.637c2.636-17.977-1.803-34.709-12.553-47.154z"/>
  <path fill="#f3f6e6" d="M1010.935 93.457H875.902c-32.667 0-63.183 27.45-68.176 61.26L750.23 541.352c-5.063 33.81 17.338 61.26 50.004 61.26H935.34c32.666 0 63.182-27.45 68.176-61.26l57.495-386.637c4.993-33.88-17.408-61.259-50.075-61.259z"/>
  <path fill="#383a48" d="M935.2 606H800.166c-16.229 0-30.793-6.43-40.85-18.046-10.75-12.445-15.258-29.177-12.553-47.154l57.495-386.637C809.53 118.763 841.64 90 875.902 90h135.103c16.229 0 30.793 6.43 40.85 18.046 10.75 12.445 15.258 29.177 12.553 47.154l-57.495 386.637C1001.573 577.237 969.46 606 935.2 606zM875.902 96.914c-30.933 0-59.992 26.135-64.778 58.286L753.63 541.837c-2.358 15.903 1.526 30.699 10.958 41.623 8.739 10.095 21.361 15.695 35.58 15.695h135.102c30.933 0 59.992-26.135 64.778-58.286l57.495-386.637c2.358-15.902-1.526-30.699-10.958-41.623-8.739-10.094-21.361-15.695-35.58-15.695H875.903z"/>
  <path fill="#383a48" d="M1010.935 90H871.948c-1.942 0-3.467 1.521-3.467 3.457s1.525 3.457 3.467 3.457h10.75c1.873 0 3.537.692 4.647 2.005 1.249 1.452 1.734 3.457 1.457 5.67-.625 4.148.485 8.228 3.051 11.2 2.428 2.835 5.965 4.426 9.918 4.426H978.2c7.976 0 15.189-6.43 16.437-14.59.694-4.7 5.063-8.71 9.571-8.71h6.866c1.942 0 3.468-1.522 3.468-3.458-.139-1.936-1.665-3.457-3.607-3.457zM926.115 585.465h-110.76c-1.942 0-3.468-1.521-3.468-3.457s1.526-3.457 3.468-3.457h110.69c1.942 0 3.468 1.521 3.468 3.457s-1.526 3.457-3.398 3.457zM97.277 248.01C107.305 236.35 121.827 230 138.01 230h134.71c34.162 0 66.18 28.707 71.435 64.039l57.328 385.887c2.628 17.942-1.798 34.642-12.516 47.063C378.939 738.651 364.416 745 348.234 745h-134.71c-34.162 0-66.18-28.707-71.435-64.039L84.76 295.074c-2.628-17.942 1.798-34.642 12.516-47.063z"/>
  <path fill="#f3f6e6" d="M162.835 233.45h134.641c32.571 0 62.999 27.396 67.978 61.14l57.328 385.888c5.048 33.745-17.289 61.14-49.86 61.14h-134.71c-32.571 0-62.999-27.395-67.978-61.14l-57.328-385.887c-4.979-33.814 17.358-61.14 49.929-61.14z"/>
  <path fill="#383a48" d="M238.35 745h134.641c16.182 0 30.704-6.418 40.732-18.01 10.718-12.422 15.213-29.122 12.516-47.064L368.911 294.04C363.656 258.707 331.638 230 297.476 230h-134.71c-16.182 0-30.705 6.418-40.732 18.01-10.718 12.422-15.213 29.122-12.516 47.064l57.328 385.887C172.17 716.293 204.188 745 238.35 745zm59.126-508.1c30.842 0 59.818 26.085 64.59 58.174l57.327 385.887c2.351 15.872-1.521 30.64-10.926 41.543-8.713 10.075-21.3 15.664-35.476 15.664h-134.71c-30.842 0-59.818-26.084-64.59-58.173l-57.327-385.887c-2.352-15.872 1.521-30.64 10.926-41.543 8.713-10.075 21.3-15.664 35.476-15.664h134.71z"/>
  <path fill="#383a48" d="M162.835 230h138.583c1.936 0 3.457 1.518 3.457 3.45s-1.521 3.45-3.457 3.45h-10.719c-1.867 0-3.527.69-4.633 2.002-1.245 1.45-1.73 3.45-1.452 5.658.622 4.14-.485 8.212-3.043 11.18-2.42 2.829-5.947 4.416-9.89 4.416h-76.206c-7.953 0-15.145-6.418-16.39-14.56-.69-4.693-5.048-8.695-9.542-8.695h-6.847c-1.936 0-3.457-1.518-3.457-3.45.138-1.933 1.66-3.451 3.596-3.451z"/>
  <g>
    <path fill="#383a48" d="M247.41 724.505h110.437c1.936 0 3.457-1.518 3.457-3.45 0-1.933-1.52-3.45-3.457-3.45H247.478c-1.936 0-3.457 1.517-3.457 3.45 0 1.932 1.52 3.45 3.388 3.45z"/>
  </g>
  <g>
    <g transform="matrix(.59698 0 0 .59801 293 167)">
      <defs>
        <linearGradient id="a" x1="-106.267" x2="45.371" y1="48.832" y2="48.832" gradientTransform="rotate(-14.193 2023.98 -236.416)" gradientUnits="userSpaceOnUse">
          <stop offset="0" stop-color="#f3f6e6"/>
          <stop offset="1" stop-color="#f6e049"/>
        </linearGradient>
        <linearGradient id="b" x1="698.345" x2="907.032" y1="50.823" y2="50.823" gradientTransform="rotate(-14.193 2023.98 -236.416)" gradientUnits="userSpaceOnUse">
          <stop offset="0" stop-color="#f6e049"/>
          <stop offset="1" stop-color="#f3f6e6"/>
        </linearGradient>
      </defs>
      <path fill="#f6e049" d="M10.3 441.581l365-102.6 66.6 244.1-306.1 80.8-125.5-222.3z"/>
      <path fill="#383a48" d="M135.8 668.881a4.994 4.994 0 01-4.4-2.5L6 443.981a4.86 4.86 0 01-.3-4.4 5.034 5.034 0 013.3-2.9l365-102.5a4.594 4.594 0 013.8.5 5.11 5.11 0 012.4 3l66.5 244.1a4.594 4.594 0 01-.5 3.8 4.8 4.8 0 01-3.1 2.3l-306.1 80.8a4.3 4.3 0 01-1.2.2zm-118-224.2l120.5 213.4 297.5-78.5-64-234.4z"/>
      <path fill="#383a48" d="M291.5 621.681l13.7-97.9 121.4 63.7-135.1 34.2z"/>
      <path fill="#383a48" d="M291.5 626.681a4.6 4.6 0 01-3.3-1.3 5.194 5.194 0 01-1.6-4.4l13.7-97.9a5.04 5.04 0 012.7-3.8 5.3 5.3 0 014.6 0l121.4 63.8a4.99 4.99 0 012.6 5 4.906 4.906 0 01-3.7 4.3l-135.2 34.2c-.4 0-.8.1-1.2.1zm17.7-95.2l-11.7 83.5 115.3-29.1zM247.1 374.681l12.2 52.2-63.1-37.3 50.9-14.9z"/>
      <path fill="#383a48" d="M259.3 431.881a4.3 4.3 0 01-2.5-.7l-63.1-37.3a5 5 0 011.2-9.1l50.9-14.8a4.875 4.875 0 013.9.5 4.757 4.757 0 012.3 3.2l12.3 52.1a4.968 4.968 0 01-1.9 5.2 6.931 6.931 0 01-3.1.9zm-50.6-40.8l43.1 25.5-8.4-35.6z"/>
      <path fill="#f6e049" d="M432.3 285.581l-124.3 31.5c-37.9 9.6-60.8 49-50.9 87.9l19.6 77.6c18.7 74 92.7 119.4 164.9 101.2 72.2-18.3 115.7-93.4 97-167.4l-19.6-77.6c-9.9-39-48.8-62.8-86.7-53.2z"/>
      <path fill="#383a48" d="M409.1 592.781a137.792 137.792 0 01-72.6-20.8 143.84 143.84 0 01-64.6-88.2l-19.6-77.6c-10.5-41.6 14-83.7 54.6-94l124.2-31.4c40.6-10.3 82.2 15.2 92.7 56.8l19.6 77.6c19.4 76.6-25.7 154.4-100.6 173.4a138.269 138.269 0 01-33.7 4.2zm23.2-307.2l1.2 4.8-124.3 31.5c-35.2 8.9-56.5 45.6-47.3 81.9l19.6 77.6a134.517 134.517 0 0060.2 82.2c30 18.4 65.1 23.9 98.7 15.4 69.5-17.6 111.4-90 93.3-161.3l-19.6-77.6c-9.2-36.2-45.3-58.4-80.5-49.5z"/>
      <path fill="#f6e049" d="M516.9 326.381l23 90.8a135.781 135.781 0 01-4.8 82.2 140.487 140.487 0 01-17.6 32.3h-.1l-7.2-1.4-87.4-17.2-29.8-5.8-110.2-21.6-5.5-1.1-2.1-.4-23-90.8a71.216 71.216 0 01-1.7-9 67.68 67.68 0 01-.5-10 71.931 71.931 0 0147.2-66 69.514 69.514 0 016.9-2.1l125.7-31.8c1.2-.3 2.3-.6 3.5-.8.9-.2 1.8-.3 2.7-.5a71.863 71.863 0 0180.9 53.2z"/>
      <path fill="#383a48" d="M517.4 536.681h-.7a.6.6 0 01-.4-.1l-242.2-47.5a5.08 5.08 0 01-3.9-3.7l-23-90.8a80.957 80.957 0 01-1.8-9.6 77.193 77.193 0 0150-81.4c2.4-.9 4.9-1.6 7.4-2.3l125.7-31.8c1.3-.3 2.6-.6 3.8-.9a20.165 20.165 0 012.8-.5 76.837 76.837 0 0186.5 57l23 90.8a140.994 140.994 0 01-5 85.2 143.5 143.5 0 01-18.3 33.5 4.843 4.843 0 01-3.9 2.1zm-238.2-56.8l4.6.9 231.4 45.3a134.545 134.545 0 0015.2-28.5 131.27 131.27 0 004.7-79.1l-23-90.8a65.816 65.816 0 00-28.2-39.4 67 67 0 00-47.1-10.1c-.9.1-1.7.3-2.4.4-1.1.2-2.2.5-3.3.7l-125.7 31.8c-2.2.6-4.3 1.2-6.4 2a67.025 67.025 0 00-43.9 61.4 58 58 0 00.5 9.3 62.1 62.1 0 001.6 8.4z"/>
      <path fill="#f6e049" d="M473 151.781l48.6 192c.3 1.4.6 2.7.8 4.1 0 .2.1.4.1.6a29.023 29.023 0 01.2 5.1 36.005 36.005 0 01-70.9 7.8l-48.6-192a36.586 36.586 0 01-.4-16.1 44.443 44.443 0 011.5-5.2 35.985 35.985 0 0168.7 3.7z"/>
      <path fill="#383a48" d="M486.7 393.681a41.15 41.15 0 01-39.8-31l-48.6-192a40.827 40.827 0 01-.4-18.4 33.89 33.89 0 011.7-5.9 41.039 41.039 0 0178.3 4.1l48.6 192a37.346 37.346 0 01.9 4.6c0 .2.1.5.1.7a57.811 57.811 0 01.3 5.8 38.788 38.788 0 01-1.9 11.3 41.054 41.054 0 01-29 27.4 36.83 36.83 0 01-10.2 1.4zm-48.5-264.1a29.079 29.079 0 00-7.7 1 30.825 30.825 0 00-21.5 19.4 31.914 31.914 0 00-1.3 4.4 29.707 29.707 0 00.3 13.9l48.6 192a31.054 31.054 0 0059.7 1.8 31.7 31.7 0 001.5-8.6 30.245 30.245 0 00-.2-4.3c0-.2 0-.3-.1-.4v-.1c-.2-1.2-.4-2.4-.7-3.5l-48.6-192a30.681 30.681 0 00-14.2-19 29.294 29.294 0 00-15.8-4.6z"/>
      <path fill="#f6e049" d="M423 379.881a35.9 35.9 0 01-43.7-26.1l-52.1-206a35.992 35.992 0 1169.8-17.6l52.1 206a35.995 35.995 0 01-26.1 43.7z"/>
      <path fill="#383a48" d="M414.1 385.981a41.122 41.122 0 01-39.7-31l-52.1-206a41.049 41.049 0 0179.6-20.1l52.1 206a41.031 41.031 0 01-29.7 49.9 44.4 44.4 0 01-10.2 1.2zm-52-278.1a29.079 29.079 0 00-7.7 1 31.073 31.073 0 00-22.5 37.7l52.1 206a31.012 31.012 0 0037.7 22.4 31.012 31.012 0 0022.4-37.7l-52.1-206a30.681 30.681 0 00-14.2-19 30.021 30.021 0 00-15.7-4.4z"/>
      <path fill="#f6e049" d="M356.6 396.681a35.9 35.9 0 01-43.7-26.1l-60.1-237.4a35.992 35.992 0 1169.8-17.6l60.1 237.4a35.995 35.995 0 01-26.1 43.7z"/>
      <path fill="#383a48" d="M347.7 402.781a41.122 41.122 0 01-39.7-31l-60.1-237.4a41.049 41.049 0 0179.6-20.1l60.1 237.4a41.083 41.083 0 01-29.7 49.8 39.641 39.641 0 01-10.2 1.3zm-59.9-309.5a29.079 29.079 0 00-7.7 1 31.073 31.073 0 00-22.5 37.7l60.1 237.4a31.012 31.012 0 0037.7 22.4 31.073 31.073 0 0022.5-37.7l-60.1-237.4a31.133 31.133 0 00-30-23.4z"/>
      <path fill="#f6e049" d="M296.4 423.081c-19.3 4.9-35.4 6.8-40.3-12.5l-55.5-219.6a35.992 35.992 0 1169.8-17.6l52.1 206a35.995 35.995 0 01-26.1 43.7z"/>
      <path fill="#383a48" d="M276.4 431.381c-10.9 0-21.2-4.1-25.1-19.6l-55.5-219.6a41 41 0 0179.5-20.1l52.1 206a41.083 41.083 0 01-29.7 49.8c-6.1 1.5-13.8 3.5-21.3 3.5zm20-8.3zm-60.9-272a28.35 28.35 0 00-7.6 1 31.073 31.073 0 00-22.5 37.7l55.5 219.6c3.2 12.7 11.2 14.7 34.2 8.9a31.073 31.073 0 0022.5-37.7l-52.1-206a30.923 30.923 0 00-30-23.5z"/>
      <path fill="#f6e049" d="M431.4 288.881l-120.2 30.4c-36.7 9.3-58.7 47.6-49.1 85.4l19.1 75.5c18.2 72 89.8 116.3 159.6 98.6s111.7-90.6 93.5-162.6l-19.1-75.5c-9.5-37.8-47.1-61-83.8-51.8z"/>
      <path fill="#f6e049" d="M403.7 478.781c-15.5-92.3-103.7-50.7-129.1-73.2l-60.8-53.3a41.417 41.417 0 10-53.9 62.9s138.4 132.4 206 164.9"/>
      <path fill="#383a48" d="M365.9 585.081a5.852 5.852 0 01-2.2-.5c-28.4-13.7-72-45.7-129.4-95.3-41.5-35.9-75.7-68.4-77.8-70.3a46.45 46.45 0 0160.5-70.5l60.8 53.3c7 6.2 21 6.7 37.2 7.2 34.8 1.2 82.5 2.8 93.6 69a5.022 5.022 0 01-9.9 1.7c-9.8-58.1-49.2-59.4-84.1-60.6-18.1-.6-33.8-1.1-43.5-9.7l-60.7-53.3a36.44 36.44 0 00-51.3 4 36.444 36.444 0 004 51.4l.2.2c1.4 1.3 138.6 132.2 204.7 164a5 5 0 012.3 6.7 4.768 4.768 0 01-4.4 2.7z"/>
      <path fill="url(#a)" d="M204.8 640.281l-81.6 22L0 448.981l146.2-40 58.6 231.3z"/>
      <path fill="#383a48" d="M514 336.081a36.671 36.671 0 01-12.5 11.6c5.1-.2 10.3-.3 15.6-.1 1.4.1 2.8.1 4.3.2.4 0 .7.1 1.1.1h.1c0 .2.1.4.1.6l17.4 68.7c7.2 28.3 1.7 44.1-8.1 69.4l-.6-.3c-1.7-.9-3.4-1.8-5.2-2.7-41.8-22.5-177.5-121.6-177.5-121.6a44.11 44.11 0 01-9.6-9.7 41.424 41.424 0 01-5.8-35.8 23.008 23.008 0 011.2-3.4 43.99 43.99 0 014.9-9 44.7 44.7 0 014.4-5.2 41.41 41.41 0 0128.9-12c1.2 0 2.5 0 3.8.1a37.307 37.307 0 018.1 1.5 43.977 43.977 0 0112.7 6.2l2.3 1.7 3.1 2.3 40.3 27.1 4 3 3.7 2.7-46.2-183.6a36.064 36.064 0 0168.8 3.6l44.7 176.8c-.1.2-.1.3-.2.5-.3.7-.6 1.5-.9 2.2a46.326 46.326 0 01-2.9 5.1z"/>
      <path fill="#383a48" d="M531.8 491.681a4.645 4.645 0 01-2.3-.6l-.6-.3c-1.7-.9-3.5-1.8-5.3-2.8-41.6-22.4-172.5-117.9-178.1-121.9a44.308 44.308 0 01-10.7-10.9 46.868 46.868 0 01-6.5-40.1c.4-1.3.8-2.6 1.3-3.8a48.746 48.746 0 015.5-10 46.676 46.676 0 0137.3-19.2 29.537 29.537 0 014.2.2 41.64 41.64 0 019.1 1.7 44.827 44.827 0 0114.2 7l5.4 4 36.9 24.8-42.8-170.3a4.765 4.765 0 01.2-2.9 41.039 41.039 0 0178.3 4.1l44.7 176.8a4.926 4.926 0 01-.1 2.7 6.89 6.89 0 01-.3.8c-.3.8-.7 1.6-1 2.4a42.855 42.855 0 01-3.1 5.5c-.8 1.3-1.8 2.5-2.7 3.7a10.869 10.869 0 011.8.1c1.5.1 2.9.1 4.4.2h.3a2.2 2.2 0 01.8.1h.2a4.9 4.9 0 014.5 4.2.9.9 0 00.1.5l17.3 68.4c7.4 29.3 2 45.8-8.2 72.5a5.168 5.168 0 01-2.9 2.9c-.7 0-1.3.2-1.9.2zM373 292.081h-.4a36.468 36.468 0 00-25.4 10.5 35.042 35.042 0 00-3.9 4.6 33.606 33.606 0 00-4.3 7.9 17.6 17.6 0 00-1 3 36.7 36.7 0 005.1 31.5 35.7 35.7 0 008.4 8.5c1.4 1 135.9 99.1 177 121.2.2.1.5.3.7.4 8.4-22.4 12.1-36.6 5.9-61.2l-16.6-65.8a9.151 9.151 0 01-1.6-.1c-4.4-.2-9.2-.1-15.2.1a4.937 4.937 0 01-5-3.7 5.046 5.046 0 012.4-5.7 31.3 31.3 0 0010.8-10 23.776 23.776 0 002.3-4.1c.1-.3.3-.6.4-.9l-44.3-175.3a30.992 30.992 0 00-58.6-4.4l45.8 182.1a5.054 5.054 0 01-2.1 5.4 5.121 5.121 0 01-5.8-.1l-3.7-2.7c-.1 0-.1-.1-.2-.2l-3.7-2.8-40.2-27c-.1 0-.1-.1-.2-.1l-5.5-4.1a34.7 34.7 0 00-11.1-5.4 34.159 34.159 0 00-7.1-1.3 9.877 9.877 0 00-2.9-.3z"/>
      <path fill="#f6e049" d="M497.4 326.681l-4.2-16.6a71.8 71.8 0 0151.9-87.1l125.7-31.8a71.8 71.8 0 0187.1 51.9l28.3 111.7"/>
      <path fill="#383a48" d="M786.3 359.881a4.906 4.906 0 01-4.8-3.8l-28.3-111.7a66.748 66.748 0 00-81-48.3l-125.8 31.7a66.743 66.743 0 00-48.3 81l4.2 16.6a5.008 5.008 0 11-9.7 2.5l-4.2-16.6a76.762 76.762 0 0155.6-93.2l125.7-31.8a76.767 76.767 0 0193.2 55.6l28.3 111.7a4.979 4.979 0 01-3.6 6.1 6.882 6.882 0 01-1.3.2z"/>
      <path fill="#f6e049" d="M740.2 318.181a35.9 35.9 0 01-43.7-26.1l-52.1-206a35.992 35.992 0 1169.8-17.6l52.1 206a35.98 35.98 0 01-26.1 43.7z"/>
      <path fill="#383a48" d="M731.3 324.281a41.15 41.15 0 01-39.8-31l-52.1-206a41 41 0 1179.5-20.1l52.1 206a41.031 41.031 0 01-29.7 49.9 42.092 42.092 0 01-10 1.2zm8.9-6.1zm-61-271.9a28.35 28.35 0 00-7.6 1 31.073 31.073 0 00-22.5 37.7l52.1 206a31.073 31.073 0 0037.7 22.5 31.012 31.012 0 0022.4-37.7l-52.1-206a30.923 30.923 0 00-30-23.5z"/>
      <path fill="#f6e049" d="M664.1 296.581a35.9 35.9 0 01-43.7-26.1l-52.1-206a35.992 35.992 0 1169.8-17.6l52.1 206a35.995 35.995 0 01-26.1 43.7z"/>
      <path fill="#383a48" d="M655.3 302.681a41.15 41.15 0 01-39.8-31l-52.1-206a41.062 41.062 0 1179.6-20.2l52.1 206a41.083 41.083 0 01-29.7 49.8 35.652 35.652 0 01-10.1 1.4zm8.8-6.1zm-60.9-271.9a29.079 29.079 0 00-7.7 1 31.012 31.012 0 00-22.4 37.7l52.1 206a31.073 31.073 0 0037.7 22.5 31.073 31.073 0 0022.5-37.7l-52.1-206a30.681 30.681 0 00-14.2-19 29.516 29.516 0 00-15.9-4.5z"/>
      <path fill="#f6e049" d="M597.8 313.381a35.9 35.9 0 01-43.7-26.1L494 49.881a35.992 35.992 0 1169.8-17.6l60.1 237.4a36.073 36.073 0 01-26.1 43.7z"/>
      <path fill="#383a48" d="M588.9 319.481a41.15 41.15 0 01-39.8-31L489 51.081a41.049 41.049 0 0179.6-20.1l60.1 237.4a41.083 41.083 0 01-29.7 49.8 38.889 38.889 0 01-10.1 1.3zm8.9-6.1zm-68.9-303.4a29.079 29.079 0 00-7.7 1 31.073 31.073 0 00-22.5 37.7l60.1 237.4a31.073 31.073 0 0037.7 22.5 31.073 31.073 0 0022.5-37.7l-60.1-237.4a30.681 30.681 0 00-14.2-19 29.561 29.561 0 00-15.8-4.5z"/>
      <path fill="#f6e049" d="M537.6 339.781a35.9 35.9 0 01-43.7-26.1l-52.1-206a35.992 35.992 0 1169.8-17.6l52.1 206a36.073 36.073 0 01-26.1 43.7z"/>
      <path fill="#383a48" d="M528.7 345.881a41.122 41.122 0 01-39.7-31l-52.1-206a41.049 41.049 0 0179.6-20.1l52.1 206a41.031 41.031 0 01-29.7 49.9 45.718 45.718 0 01-10.2 1.2zm-52-278.1a29.079 29.079 0 00-7.7 1 31.073 31.073 0 00-22.5 37.7l52.1 206a31.012 31.012 0 0037.7 22.4 31.012 31.012 0 0022.4-37.7l-52.1-206a30.681 30.681 0 00-14.2-19 30.282 30.282 0 00-15.7-4.4z"/>
      <path fill="#f6e049" d="M631.2 394.081c-23-90.8-107.5-42.1-134.7-62.5l-64.9-48.2a41.4 41.4 0 00-48.5 67.1s148.8 120.7 218.7 147.6"/>
      <path fill="#383a48" d="M601.8 503.081a5.663 5.663 0 01-1.8-.3c-29.4-11.3-75.4-39.7-136.7-84.5-44.3-32.4-81-62-83.2-63.8a46.425 46.425 0 0154.6-75.1l64.9 48.2c7.5 5.6 21.5 4.9 37.7 4.2 34.8-1.7 82.4-3.9 98.9 61.1a5.008 5.008 0 11-9.7 2.5c-14.5-57.1-53.9-55.2-88.7-53.6-18.1.9-33.8 1.6-44.1-6.1l-64.9-48.2a36.436 36.436 0 00-50.8 8.2 36.541 36.541 0 008.1 50.9l.2.2c1.5 1.2 148.9 120.5 217.4 146.8a5.025 5.025 0 012.9 6.5 5.459 5.459 0 01-4.8 3z"/>
      <path fill="#f6e049" d="M550.8 236.381l121.5-30.7c37.1-9.4 74.9 13.5 84.4 50.9l18.9 74.7c18 71.3-24.7 143.9-95.3 161.7-70.6 17.9-142.7-25.7-160.7-97l-18.8-74.6c-9.5-37.5 13-75.6 50-85z"/>
      <path fill="#f6e049" d="M693.8 267.181l276-71.6 1.1 261.3-225.1 56.9a204.768 204.768 0 01-160.3-21.6l-18.5-11.1"/>
      <path fill="#383a48" d="M691.1 526.281a211.2 211.2 0 01-108.1-29.7l-18.5-11.1a5.025 5.025 0 115.2-8.6l18.5 11.1a200.706 200.706 0 00156.4 21h.1l221.4-55.9-1.1-251-269.8 70a5.008 5.008 0 01-2.5-9.7l276-71.6a4.762 4.762 0 014.3.9 4.928 4.928 0 011.9 3.9l1.1 261.3a5.018 5.018 0 01-3.8 4.9l-225.1 56.9a212.933 212.933 0 01-56 7.6z"/>
      <path fill="url(#b)" d="M980.5 449.881l-141.4 35.2-59.3-234.5 201.8-53.2-1.1 252.5z"/>
    </g>
  </g>
  <g>
    <path fill="#383a48" d="M341.957 172.328l13.094-19.187 71.42 48.417-13.093 19.187zM650.132 132.98l36.42-77.803 21.098 9.811-36.421 77.803zM500.096 73.076l22.441-6.18 21.142 76.274-22.442 6.18z"/>
  </g>
  <g>
    <circle cx="445" cy="5" r="5" fill="#383a48" transform="matrix(-.38214 .1196 .11042 .41388 462.925 392.783)"/>
    <circle cx="445" cy="49" r="5" fill="#383a48" transform="matrix(-.38214 .1196 .11042 .41388 462.925 392.783)"/>
    <circle cx="445" cy="93" r="5" fill="#383a48" transform="matrix(-.38214 .1196 .11042 .41388 462.925 392.783)"/>
    <circle cx="445" cy="137" r="5" fill="#383a48" transform="matrix(-.38214 .1196 .11042 .41388 462.925 392.783)"/>
    <circle cx="445" cy="181" r="5" fill="#383a48" transform="matrix(-.38214 .1196 .11042 .41388 462.925 392.783)"/>
    <circle cx="445" cy="225" r="5" fill="#383a48" transform="matrix(-.38214 .1196 .11042 .41388 462.925 392.783)"/>
    <circle cx="445" cy="269" r="5" fill="#383a48" transform="matrix(-.38214 .1196 .11042 .41388 462.925 392.783)"/>
    <circle cx="445" cy="313" r="5" fill="#383a48" transform="matrix(-.38214 .1196 .11042 .41388 462.925 392.783)"/>
    <circle cx="401" cy="5" r="5" fill="#383a48" transform="matrix(-.38214 .1196 .11042 .41388 462.925 392.783)"/>
    <circle cx="401" cy="49" r="5" fill="#383a48" transform="matrix(-.38214 .1196 .11042 .41388 462.925 392.783)"/>
    <circle cx="401" cy="93" r="5" fill="#383a48" transform="matrix(-.38214 .1196 .11042 .41388 462.925 392.783)"/>
    <circle cx="401" cy="137" r="5" fill="#383a48" transform="matrix(-.38214 .1196 .11042 .41388 462.925 392.783)"/>
    <circle cx="401" cy="181" r="5" fill="#383a48" transform="matrix(-.38214 .1196 .11042 .41388 462.925 392.783)"/>
    <circle cx="401" cy="225" r="5" fill="#383a48" transform="matrix(-.38214 .1196 .11042 .41388 462.925 392.783)"/>
    <circle cx="401" cy="269" r="5" fill="#383a48" transform="matrix(-.38214 .1196 .11042 .41388 462.925 392.783)"/>
    <circle cx="401" cy="313" r="5" fill="#383a48" transform="matrix(-.38214 .1196 .11042 .41388 462.925 392.783)"/>
    <circle cx="357" cy="5" r="5" fill="#383a48" transform="matrix(-.38214 .1196 .11042 .41388 462.925 392.783)"/>
    <circle cx="357" cy="49" r="5" fill="#383a48" transform="matrix(-.38214 .1196 .11042 .41388 462.925 392.783)"/>
    <circle cx="357" cy="93" r="5" fill="#383a48" transform="matrix(-.38214 .1196 .11042 .41388 462.925 392.783)"/>
    <circle cx="357" cy="137" r="5" fill="#383a48" transform="matrix(-.38214 .1196 .11042 .41388 462.925 392.783)"/>
    <circle cx="357" cy="181" r="5" fill="#383a48" transform="matrix(-.38214 .1196 .11042 .41388 462.925 392.783)"/>
    <circle cx="357" cy="225" r="5" fill="#383a48" transform="matrix(-.38214 .1196 .11042 .41388 462.925 392.783)"/>
    <circle cx="357" cy="269" r="5" fill="#383a48" transform="matrix(-.38214 .1196 .11042 .41388 462.925 392.783)"/>
    <circle cx="357" cy="313" r="5" fill="#383a48" transform="matrix(-.38214 .1196 .11042 .41388 462.925 392.783)"/>
    <circle cx="313" cy="5" r="5" fill="#383a48" transform="matrix(-.38214 .1196 .11042 .41388 462.925 392.783)"/>
    <circle cx="313" cy="49" r="5" fill="#383a48" transform="matrix(-.38214 .1196 .11042 .41388 462.925 392.783)"/>
    <circle cx="313" cy="93" r="5" fill="#383a48" transform="matrix(-.38214 .1196 .11042 .41388 462.925 392.783)"/>
    <circle cx="313" cy="137" r="5" fill="#383a48" transform="matrix(-.38214 .1196 .11042 .41388 462.925 392.783)"/>
    <circle cx="313" cy="181" r="5" fill="#383a48" transform="matrix(-.38214 .1196 .11042 .41388 462.925 392.783)"/>
    <circle cx="313" cy="225" r="5" fill="#383a48" transform="matrix(-.38214 .1196 .11042 .41388 462.925 392.783)"/>
    <circle cx="313" cy="269" r="5" fill="#383a48" transform="matrix(-.38214 .1196 .11042 .41388 462.925 392.783)"/>
    <circle cx="313" cy="313" r="5" fill="#383a48" transform="matrix(-.38214 .1196 .11042 .41388 462.925 392.783)"/>
    <circle cx="269" cy="5" r="5" fill="#383a48" transform="matrix(-.38214 .1196 .11042 .41388 462.925 392.783)"/>
    <circle cx="269" cy="49" r="5" fill="#383a48" transform="matrix(-.38214 .1196 .11042 .41388 462.925 392.783)"/>
    <circle cx="269" cy="93" r="5" fill="#383a48" transform="matrix(-.38214 .1196 .11042 .41388 462.925 392.783)"/>
    <circle cx="269" cy="137" r="5" fill="#383a48" transform="matrix(-.38214 .1196 .11042 .41388 462.925 392.783)"/>
    <circle cx="269" cy="181" r="5" fill="#383a48" transform="matrix(-.38214 .1196 .11042 .41388 462.925 392.783)"/>
    <circle cx="269" cy="225" r="5" fill="#383a48" transform="matrix(-.38214 .1196 .11042 .41388 462.925 392.783)"/>
    <circle cx="269" cy="269" r="5" fill="#383a48" transform="matrix(-.38214 .1196 .11042 .41388 462.925 392.783)"/>
    <circle cx="269" cy="313" r="5" fill="#383a48" transform="matrix(-.38214 .1196 .11042 .41388 462.925 392.783)"/>
    <circle cx="225" cy="137" r="5" fill="#383a48" transform="matrix(-.38214 .1196 .11042 .41388 462.925 392.783)"/>
    <circle cx="225" cy="181" r="5" fill="#383a48" transform="matrix(-.38214 .1196 .11042 .41388 462.925 392.783)"/>
    <circle cx="225" cy="225" r="5" fill="#383a48" transform="matrix(-.38214 .1196 .11042 .41388 462.925 392.783)"/>
    <circle cx="225" cy="269" r="5" fill="#383a48" transform="matrix(-.38214 .1196 .11042 .41388 462.925 392.783)"/>
    <circle cx="225" cy="313" r="5" fill="#383a48" transform="matrix(-.38214 .1196 .11042 .41388 462.925 392.783)"/>
    <circle cx="181" cy="137" r="5" fill="#383a48" transform="matrix(-.38214 .1196 .11042 .41388 462.925 392.783)"/>
    <circle cx="181" cy="181" r="5" fill="#383a48" transform="matrix(-.38214 .1196 .11042 .41388 462.925 392.783)"/>
    <circle cx="181" cy="225" r="5" fill="#383a48" transform="matrix(-.38214 .1196 .11042 .41388 462.925 392.783)"/>
    <circle cx="181" cy="269" r="5" fill="#383a48" transform="matrix(-.38214 .1196 .11042 .41388 462.925 392.783)"/>
    <circle cx="181" cy="313" r="5" fill="#383a48" transform="matrix(-.38214 .1196 .11042 .41388 462.925 392.783)"/>
    <circle cx="137" cy="137" r="5" fill="#383a48" transform="matrix(-.38214 .1196 .11042 .41388 462.925 392.783)"/>
    <circle cx="137" cy="181" r="5" fill="#383a48" transform="matrix(-.38214 .1196 .11042 .41388 462.925 392.783)"/>
    <circle cx="137" cy="225" r="5" fill="#383a48" transform="matrix(-.38214 .1196 .11042 .41388 462.925 392.783)"/>
    <circle cx="137" cy="269" r="5" fill="#383a48" transform="matrix(-.38214 .1196 .11042 .41388 462.925 392.783)"/>
    <circle cx="137" cy="313" r="5" fill="#383a48" transform="matrix(-.38214 .1196 .11042 .41388 462.925 392.783)"/>
    <circle cx="93" cy="225" r="5" fill="#383a48" transform="matrix(-.38214 .1196 .11042 .41388 462.925 392.783)"/>
    <circle cx="93" cy="269" r="5" fill="#383a48" transform="matrix(-.38214 .1196 .11042 .41388 462.925 392.783)"/>
    <circle cx="93" cy="313" r="5" fill="#383a48" transform="matrix(-.38214 .1196 .11042 .41388 462.925 392.783)"/>
    <circle cx="49" cy="225" r="5" fill="#383a48" transform="matrix(-.38214 .1196 .11042 .41388 462.925 392.783)"/>
    <circle cx="49" cy="269" r="5" fill="#383a48" transform="matrix(-.38214 .1196 .11042 .41388 462.925 392.783)"/>
    <circle cx="49" cy="313" r="5" fill="#383a48" transform="matrix(-.38214 .1196 .11042 .41388 462.925 392.783)"/>
    <circle cx="5" cy="225" r="5" fill="#383a48" transform="matrix(-.38214 .1196 .11042 .41388 462.925 392.783)"/>
    <circle cx="5" cy="269" r="5" fill="#383a48" transform="matrix(-.38214 .1196 .11042 .41388 462.925 392.783)"/>
    <circle cx="5" cy="313" r="5" fill="#383a48" transform="matrix(-.38214 .1196 .11042 .41388 462.925 392.783)"/>
  </g>
  <g>
    <circle cx="445" cy="5" r="5" fill="#383a48" transform="matrix(.38363 -.105 .09641 .41783 713.355 338.692)"/>
    <circle cx="445" cy="49" r="5" fill="#383a48" transform="matrix(.38363 -.105 .09641 .41783 713.355 338.692)"/>
    <circle cx="445" cy="93" r="5" fill="#383a48" transform="matrix(.38363 -.105 .09641 .41783 713.355 338.692)"/>
    <circle cx="445" cy="137" r="5" fill="#383a48" transform="matrix(.38363 -.105 .09641 .41783 713.355 338.692)"/>
    <circle cx="445" cy="181" r="5" fill="#383a48" transform="matrix(.38363 -.105 .09641 .41783 713.355 338.692)"/>
    <circle cx="445" cy="225" r="5" fill="#383a48" transform="matrix(.38363 -.105 .09641 .41783 713.355 338.692)"/>
    <circle cx="445" cy="269" r="5" fill="#383a48" transform="matrix(.38363 -.105 .09641 .41783 713.355 338.692)"/>
    <circle cx="445" cy="313" r="5" fill="#383a48" transform="matrix(.38363 -.105 .09641 .41783 713.355 338.692)"/>
    <circle cx="401" cy="5" r="5" fill="#383a48" transform="matrix(.38363 -.105 .09641 .41783 713.355 338.692)"/>
    <circle cx="401" cy="49" r="5" fill="#383a48" transform="matrix(.38363 -.105 .09641 .41783 713.355 338.692)"/>
    <circle cx="401" cy="93" r="5" fill="#383a48" transform="matrix(.38363 -.105 .09641 .41783 713.355 338.692)"/>
    <circle cx="401" cy="137" r="5" fill="#383a48" transform="matrix(.38363 -.105 .09641 .41783 713.355 338.692)"/>
    <circle cx="401" cy="181" r="5" fill="#383a48" transform="matrix(.38363 -.105 .09641 .41783 713.355 338.692)"/>
    <circle cx="401" cy="225" r="5" fill="#383a48" transform="matrix(.38363 -.105 .09641 .41783 713.355 338.692)"/>
    <circle cx="401" cy="269" r="5" fill="#383a48" transform="matrix(.38363 -.105 .09641 .41783 713.355 338.692)"/>
    <circle cx="401" cy="313" r="5" fill="#383a48" transform="matrix(.38363 -.105 .09641 .41783 713.355 338.692)"/>
    <circle cx="357" cy="5" r="5" fill="#383a48" transform="matrix(.38363 -.105 .09641 .41783 713.355 338.692)"/>
    <circle cx="357" cy="49" r="5" fill="#383a48" transform="matrix(.38363 -.105 .09641 .41783 713.355 338.692)"/>
    <circle cx="357" cy="93" r="5" fill="#383a48" transform="matrix(.38363 -.105 .09641 .41783 713.355 338.692)"/>
    <circle cx="357" cy="137" r="5" fill="#383a48" transform="matrix(.38363 -.105 .09641 .41783 713.355 338.692)"/>
    <circle cx="357" cy="181" r="5" fill="#383a48" transform="matrix(.38363 -.105 .09641 .41783 713.355 338.692)"/>
    <circle cx="357" cy="225" r="5" fill="#383a48" transform="matrix(.38363 -.105 .09641 .41783 713.355 338.692)"/>
    <circle cx="357" cy="269" r="5" fill="#383a48" transform="matrix(.38363 -.105 .09641 .41783 713.355 338.692)"/>
    <circle cx="357" cy="313" r="5" fill="#383a48" transform="matrix(.38363 -.105 .09641 .41783 713.355 338.692)"/>
    <circle cx="313" cy="5" r="5" fill="#383a48" transform="matrix(.38363 -.105 .09641 .41783 713.355 338.692)"/>
    <circle cx="313" cy="49" r="5" fill="#383a48" transform="matrix(.38363 -.105 .09641 .41783 713.355 338.692)"/>
    <circle cx="313" cy="93" r="5" fill="#383a48" transform="matrix(.38363 -.105 .09641 .41783 713.355 338.692)"/>
    <circle cx="313" cy="137" r="5" fill="#383a48" transform="matrix(.38363 -.105 .09641 .41783 713.355 338.692)"/>
    <circle cx="313" cy="181" r="5" fill="#383a48" transform="matrix(.38363 -.105 .09641 .41783 713.355 338.692)"/>
    <circle cx="313" cy="225" r="5" fill="#383a48" transform="matrix(.38363 -.105 .09641 .41783 713.355 338.692)"/>
    <circle cx="313" cy="269" r="5" fill="#383a48" transform="matrix(.38363 -.105 .09641 .41783 713.355 338.692)"/>
    <circle cx="313" cy="313" r="5" fill="#383a48" transform="matrix(.38363 -.105 .09641 .41783 713.355 338.692)"/>
    <circle cx="269" cy="5" r="5" fill="#383a48" transform="matrix(.38363 -.105 .09641 .41783 713.355 338.692)"/>
    <circle cx="269" cy="49" r="5" fill="#383a48" transform="matrix(.38363 -.105 .09641 .41783 713.355 338.692)"/>
    <circle cx="269" cy="93" r="5" fill="#383a48" transform="matrix(.38363 -.105 .09641 .41783 713.355 338.692)"/>
    <circle cx="269" cy="137" r="5" fill="#383a48" transform="matrix(.38363 -.105 .09641 .41783 713.355 338.692)"/>
    <circle cx="269" cy="181" r="5" fill="#383a48" transform="matrix(.38363 -.105 .09641 .41783 713.355 338.692)"/>
    <circle cx="269" cy="225" r="5" fill="#383a48" transform="matrix(.38363 -.105 .09641 .41783 713.355 338.692)"/>
    <circle cx="269" cy="269" r="5" fill="#383a48" transform="matrix(.38363 -.105 .09641 .41783 713.355 338.692)"/>
    <circle cx="269" cy="313" r="5" fill="#383a48" transform="matrix(.38363 -.105 .09641 .41783 713.355 338.692)"/>
    <circle cx="225" cy="137" r="5" fill="#383a48" transform="matrix(.38363 -.105 .09641 .41783 713.355 338.692)"/>
    <circle cx="225" cy="181" r="5" fill="#383a48" transform="matrix(.38363 -.105 .09641 .41783 713.355 338.692)"/>
    <circle cx="225" cy="225" r="5" fill="#383a48" transform="matrix(.38363 -.105 .09641 .41783 713.355 338.692)"/>
    <circle cx="225" cy="269" r="5" fill="#383a48" transform="matrix(.38363 -.105 .09641 .41783 713.355 338.692)"/>
    <circle cx="225" cy="313" r="5" fill="#383a48" transform="matrix(.38363 -.105 .09641 .41783 713.355 338.692)"/>
    <circle cx="181" cy="137" r="5" fill="#383a48" transform="matrix(.38363 -.105 .09641 .41783 713.355 338.692)"/>
    <circle cx="181" cy="181" r="5" fill="#383a48" transform="matrix(.38363 -.105 .09641 .41783 713.355 338.692)"/>
    <circle cx="181" cy="225" r="5" fill="#383a48" transform="matrix(.38363 -.105 .09641 .41783 713.355 338.692)"/>
    <circle cx="181" cy="269" r="5" fill="#383a48" transform="matrix(.38363 -.105 .09641 .41783 713.355 338.692)"/>
    <circle cx="181" cy="313" r="5" fill="#383a48" transform="matrix(.38363 -.105 .09641 .41783 713.355 338.692)"/>
    <circle cx="137" cy="137" r="5" fill="#383a48" transform="matrix(.38363 -.105 .09641 .41783 713.355 338.692)"/>
    <circle cx="137" cy="181" r="5" fill="#383a48" transform="matrix(.38363 -.105 .09641 .41783 713.355 338.692)"/>
    <circle cx="137" cy="225" r="5" fill="#383a48" transform="matrix(.38363 -.105 .09641 .41783 713.355 338.692)"/>
    <circle cx="137" cy="269" r="5" fill="#383a48" transform="matrix(.38363 -.105 .09641 .41783 713.355 338.692)"/>
    <circle cx="137" cy="313" r="5" fill="#383a48" transform="matrix(.38363 -.105 .09641 .41783 713.355 338.692)"/>
    <circle cx="93" cy="225" r="5" fill="#383a48" transform="matrix(.38363 -.105 .09641 .41783 713.355 338.692)"/>
    <circle cx="93" cy="269" r="5" fill="#383a48" transform="matrix(.38363 -.105 .09641 .41783 713.355 338.692)"/>
    <circle cx="93" cy="313" r="5" fill="#383a48" transform="matrix(.38363 -.105 .09641 .41783 713.355 338.692)"/>
    <circle cx="49" cy="225" r="5" fill="#383a48" transform="matrix(.38363 -.105 .09641 .41783 713.355 338.692)"/>
    <circle cx="49" cy="269" r="5" fill="#383a48" transform="matrix(.38363 -.105 .09641 .41783 713.355 338.692)"/>
    <circle cx="49" cy="313" r="5" fill="#383a48" transform="matrix(.38363 -.105 .09641 .41783 713.355 338.692)"/>
    <circle cx="5" cy="225" r="5" fill="#383a48" transform="matrix(.38363 -.105 .09641 .41783 713.355 338.692)"/>
    <circle cx="5" cy="269" r="5" fill="#383a48" transform="matrix(.38363 -.105 .09641 .41783 713.355 338.692)"/>
    <circle cx="5" cy="313" r="5" fill="#383a48" transform="matrix(.38363 -.105 .09641 .41783 713.355 338.692)"/>
  </g>
</svg>
