<svg width="265" height="178" xmlns="http://www.w3.org/2000/svg">
  <g fill="none" fill-rule="evenodd">
    <g transform="translate(-174 -191)">
      <g transform="translate(174 191)">
        <path d="M35.436 57.558l.948 107.636s-13.26 3.298-13.26 12.118l49.734.046s-7.422-65.549 11.605-70.843c19.029-5.293 56.164-3.523 66.446 31.336 0 0 16.852-46.344-100.851-91.853l-14.622 11.56" id="Fill-1" fill="#723F08"/>
        <path d="M34.939 61.194l25.633 80.508 3.174-82.579s4.271 4.438-28.807 2.071" id="Fill-2" fill="#DB9C58"/>
        <path d="M89.657 38.42c0 20.954-17.191 37.941-38.397 37.941-21.207 0-38.398-16.987-38.398-37.941C12.862 17.466 30.053.48 51.26.48c21.206 0 38.397 16.986 38.397 37.94" id="Fill-3" fill="#A36228"/>
        <path d="M146.991 177.238l-2.775-14.722c32.879-6.055 43.551-40.205 46.988-60.024 1.253-7.256 1.651-14.87 2.074-22.928.75-14.323 1.527-29.127 7.373-42.948 7.358-17.381 25.11-23.697 38.852-20.943 14.887 2.982 24.562 15.476 24.645 31.833l-14.922.076c-.067-13.319-8.871-16.52-12.656-17.278-7.807-1.576-17.934 2.101-22.174 12.123-4.83 11.408-5.5 24.286-6.219 37.914-.423 8.143-.867 16.562-2.276 24.697-7.072 40.829-27.942 66.502-58.91 72.2" id="Fill-4" fill="#723F08"/>
        <path d="M264.092 51.872l.064-4.77-14.97.053-.043 4.702h-.002v1.138a7.472 7.472 0 1 0 14.945 0v-1.123h.006" id="Fill-5" fill="#60330A"/>
        <path d="M60.098 57.558l.949 107.636s-13.261 3.298-13.261 12.118l49.735.046s-7.422-65.549 11.605-70.843c19.029-5.293 56.164-3.523 66.445 31.336 0 0 16.852-46.344-100.85-91.853l-14.623 11.56" id="Fill-6" fill="#A36228"/>
        <path d="M176.267 133.202c0-7.501-3.59-17.583-8.039-23.81-2.824-3.949-9.57-7.782-14.031-9.953-17.105-8.333-41.213-4.967-53.658 9.082-8.267 9.339-11.779 23.387-11.874 35.293-.058 7.397 2.625 14.291 7.131 20.034l-1.38.016c-17.151 0-15.132 13.448-15.132 13.448l67.703-.074h.004l.191-.072c18.32-6.427 29.085-23.267 29.085-43.964" id="Fill-7" fill="#723F08"/>
        <path d="M54.711 64.205h-6.903c-6.864 0-12.48-5.616-12.48-12.479 0-6.864 5.616-12.48 12.48-12.48h6.903c6.864 0 12.48 5.616 12.48 12.48 0 6.863-5.616 12.479-12.48 12.479" id="Fill-8" fill="#DB9C58"/>
        <path d="M65.598 46.681H36.921c-6.717 0-12.214-5.497-12.214-12.214 0-6.718 5.497-12.214 12.214-12.214h28.677c6.718 0 12.214 5.496 12.214 12.214 0 6.717-5.496 12.214-12.214 12.214" id="Fill-9" fill="#DB9C58"/>
        <path d="M40.221 34.313a4.177 4.177 0 0 1-3.214 4.964 4.177 4.177 0 0 1-4.964-3.219 4.175 4.175 0 0 1 3.216-4.963 4.178 4.178 0 0 1 4.962 3.218" id="Fill-10" fill="#7A410A"/>
        <path d="M62.398 34.31a4.185 4.185 0 0 0 3.213 4.969 4.183 4.183 0 0 0 4.964-3.219 4.174 4.174 0 0 0-3.211-4.964 4.176 4.176 0 0 0-4.966 3.214" id="Fill-11" fill="#7A410A"/>
        <path d="M101.399 25.116c0 5.805-4.705 10.511-10.51 10.511s-10.511-4.706-10.511-10.511c0-5.805 4.706-10.51 10.511-10.51 5.805 0 10.51 4.705 10.51 10.51" id="Fill-12" fill="#A36228"/>
        <path d="M21.953 25.116c0 5.805-4.706 10.511-10.511 10.511-5.805 0-10.51-4.706-10.51-10.511 0-5.805 4.705-10.51 10.51-10.51s10.511 4.705 10.511 10.51" id="Fill-13" fill="#A36228"/>
        <path d="M17.519 25.116a6.076 6.076 0 1 1-12.153 0 6.076 6.076 0 0 1 12.153 0" id="Fill-14" fill="#DB9C58"/>
        <path d="M96.965 25.116a6.076 6.076 0 1 1-12.153 0 6.076 6.076 0 0 1 12.153 0" id="Fill-15" fill="#DB9C58"/>
        <path id="Fill-16" fill="#AA5119" d="M39.244 55.391h23.37v-3.022h-23.37z"/>
        <path d="M48.838 45.415a3.063 3.063 0 0 1-3.058 3.057c-1.665 0-3.026-1.377-3.026-3.057 0-1.666 1.361-3.043 3.026-3.043 1.689 0 3.058 1.377 3.058 3.043" id="Fill-17" fill="#AA5119"/>
        <path d="M58.801 45.422a3.034 3.034 0 0 1-3.049 3.043 3.053 3.053 0 0 1-3.05-3.043 3.048 3.048 0 0 1 3.05-3.042 3.028 3.028 0 0 1 3.049 3.042" id="Fill-18" fill="#AA5119"/>
      </g>
    </g>
  </g>
</svg>
