<svg id="bear" xmlns="http://www.w3.org/2000/svg" viewBox="0 0 355 243">
  <g fill="none" fill-rule="evenodd">
    <g transform="translate(-463 -224)">
      <g transform="translate(463 221)">
        <g id="body" transform="translate(0 97.956)">
          <g id="fur-and-ears">
            <path id="body-bg" fill="#9D6537" d="M323.962 87.805a53.483 53.483 0 0 0 6.947-9.364c13.423-22.919 7.666-51.265-12.853-63.32-17.723-10.412-40.66-5.258-55.232 11.108C236.924 9.414 207.945 0 177.35 0c-27.899 0-54.453 7.827-78.558 21.96C84.183 7.054 62.32 2.675 45.28 12.685 24.76 24.742 19.007 53.091 32.427 76.01a53.226 53.226 0 0 0 3.185 4.822C21.378 100.498 9.332 123.219 0 148.042h354.892c-8.28-22.134-18.716-42.126-30.93-60.237z"/>
            <path id="belly" fill="#F7CB9C" d="M82.123 148.043h179.595a158.76 158.76 0 0 0-89.666-27.672c-33.597 0-64.669 10.333-89.929 27.672z"/>
            <path id="ears" fill="#F7CB9C" d="M50.015 26.01c9.9-7.433 22.552-7.273 28.264.36 5.716 7.632-.848 15.35-10.748 22.784-9.897 7.432-19.38 11.767-25.092 4.135-5.712-7.633-2.32-19.848 7.576-27.28zm263.303 2.43c9.9 7.435 13.29 19.648 7.578 27.28-5.712 7.632-15.195 3.297-25.095-4.135-9.893-7.434-16.46-15.152-10.745-22.784 5.713-7.63 18.368-7.792 28.262-.36z"/>
          </g>
          <g id="eyes,-cheeks" transform="translate(81.705 44.605)">
            <path id="eyes-bg" fill="#502218" d="M26.345 0a5.642 5.642 0 0 1 5.638 5.647 5.642 5.642 0 0 1-5.638 5.646 5.64 5.64 0 0 1-5.637-5.646A5.64 5.64 0 0 1 26.345 0zm136.011 1.572c3.113 0 5.637 2.531 5.637 5.65a5.642 5.642 0 0 1-5.637 5.646 5.642 5.642 0 0 1-5.637-5.647c0-3.118 2.524-5.65 5.637-5.65z"/>
            <path id="eyes-fg" fill="#FFFFFE" d="M23.98 2.318a1.637 1.637 0 0 1 0 3.275 1.635 1.635 0 0 1-1.63-1.637c0-.904.729-1.638 1.63-1.638zm136.012 1.575a1.635 1.635 0 0 1 0 3.272 1.637 1.637 0 0 1 0-3.272z"/>
            <path id="cheeks" fill="#EB938E" d="M30.288 24.786c0 3.642-6.617 6.594-14.775 6.594-8.162 0-14.78-2.952-14.78-6.594 0-3.642 6.618-6.594 14.78-6.594 8.158 0 14.775 2.952 14.775 6.594zm156.8 0c0 3.642-6.617 6.594-14.779 6.594-8.161 0-14.776-2.952-14.776-6.594 0-3.642 6.615-6.594 14.776-6.594 8.162 0 14.78 2.952 14.78 6.594z"/>
          </g>
          <path id="snout" fill="#F7CB9C" d="M173.48 44.442c-18.588 0-33.658 9.226-33.658 20.607 0 11.382 15.07 20.608 33.658 20.608 18.587 0 33.65-9.226 33.65-20.608 0-11.38-15.063-20.607-33.65-20.607"/>
          <path id="nose,-mouth" fill="#502218" d="M174.404 53.732c2.03 8.074 7.463 14.672 15.937 16.334.883.169.77 1.574-.134 1.411-8.98-1.6-14.69-8.285-17.227-16.608-2.503 8.3-8.258 15.013-17.176 16.599-.902.16-1.143-1.22-.248-1.396 8.478-1.66 13.978-8.23 16.004-16.342-1.879-.413-3.238-1.617-3.238-3.045 0-1.766 2.088-3.197 4.666-3.197 2.577 0 4.663 1.43 4.663 3.197 0 1.43-1.363 2.637-3.247 3.047z"/>
        </g>
        <g id="word-balloon" transform="translate(21.232 .325)">
          <path id="Fill-5" fill="#FFF" d="M213.967 11.892c-.111 22.467-1.313 42.238-3.605 59.31-18.18.424-112.261 2.676-130.446 2.453-3.424 10.305-2.673 18.755 2.253 25.348-11.692-3.359-18.908-11.692-21.649-25a358.962 358.962 0 0 1-45.823-3.256c-1.014-.138-2.086-.304-2.872-.958-.965-.802-1.263-2.132-1.496-3.361-3.158-16.605-5.405-33.47-6.28-50.345 46.724-7.591 140.478-7.582 209.918-4.19z" transform="rotate(-5 109.008 54.36)"/>
          <path id="Hey,Thanks!" fill="#502218" fill-rule="nonzero" d="M31.982 40.308c.677.605 1.783.57 2.781.57.999-.036 2.247-.214 2.604-.677.749-1.745.82-6.234.856-8.62-.036-1.104-.143-2.03.178-2.707.464-.962 2.175-1.746 3.317-.855.927.748.178 4.737.142 6.66-.035 3.883-.214 9.155-.749 12.967-.178 1.282-.32 4.06-.677 4.702-.535 1.282-2.14.748-2.925.427-1.604-.427.535-6.376-.356-8.122-.57-.249-1.32-.035-2.069-.035-1.176 0-2.389-.25-3.21.142-.926 2.779-.463 6.412-.89 9.226-.25.784-1.605 2.173-3.139 1.567-1.248-.463-.856-1.78-.713-3.633-.072-2.636.356-5.379.57-8.086.143-3.277.214-6.875.678-10.187.178-2.672-.071-6.27 1.961-6.59.82-.107 1.748.178 1.997.463.856.926.107 4.488-.035 6.127-.214 2.529-.464 4.452-.321 6.66zm16.94 7.979c.285 1.175 1.212 1.496 2.781 1.816 2.39.5 3.388-1.424 4.743-.605.785.82.606 1.923 0 2.422-1.819 1.318-5.314 1.781-7.132.82-2.889-1.176-3.816-2.21-4.78-5.13-.677-3.063-.284-5.307.857-6.875.856-1.603 2.46-2.992 3.887-3.42 3.495-1.21 6.42-.177 7.953 3.42.25.428.749 1.853.749 2.494.07.961-.607 2.173-1.57 2.493-1.604.57-2.425 1.069-4.065 1.532-1.106.32-2.568.748-3.424 1.033zm0-6.732c-.928.748-1.07 2.635-.785 3.277.642.106 2.817-.606 4.065-.855.82-.178 1.855-.784 2.033-1.39-.927-2.707-3.067-2.85-5.314-1.032zm18.33 6.803c.677-1.14 2.425-9.154 3.744-10.722.57-.712 2.104-1.21 2.782.356.713 1.532-2.71 11.898-5.35 16.635-.998 1.71-1.462 3.313-2.71 4.738-.463.534-2.71 3.704-4.85 2.137-1.89-1.354.963-3.063 1.57-3.776 1.14-1.282 2.139-3.241 2.531-4.951.107-1.104-.998-2.066-1.498-3.135-1.07-2.315-2.246-3.74-3.102-6.269-.428-1.14-1.213-2.6-1.034-3.882.214-1.639 1.676-2.743 3.138-1.96.57.321.785 1.46 1.07 2.53.856 2.635 2.104 6.197 3.709 8.299zm8.095.784c2.96-.25 1.57 6.09.713 7.48-.677 1.033-2.175 2.814-3.423 2.814-.714 0-1.498-.392-1.605-1.14.107-1.532 2.282-2.529 2.21-4.346.18-1.389-.249-2.35.108-3.241.285-.82.998-1.46 1.997-1.567zm24.357 3.455c-.428 1.425-2.71 1.496-3.423.107-.714-.926-.393-3.527-.286-4.987.107-1.781.214-4.595.214-6.27-.107-1.46.179-5.2-.713-6.59-.606-.64-4.672.393-5.956-.676-.356-.285-.748-1.603-.356-2.422.606-1.282 6.134-1.104 8.06-.926 1.783.142 5.598-.143 7.31-.178.678-.072 2.104.213 2.247.997.143.962-.392 1.96-.999 2.28-.998.498-3.958.107-4.778.89-.928.82-.57 3.491-.642 5.77-.179 4.596.214 9.013-.678 12.005zm12.66-14.711c1.855-.072 2.675-1.853 4.779-1.425 1.57.32 2.282 2.85 2.425 5.307.107 1.746-.036 4.488-.036 6.626.036 2.244.143 4.63-.749 5.52-.784.82-2.353.5-2.746-.142-.392-.64-.035-3.811 0-7.622-.035-.855.107-4.916-.499-5.45-1.177 0-1.961.57-2.532 1.14-.642.57-1.141 1.424-1.462 2.315-.57 2.529-.5 4.203-.892 7.017-.178 1.817-.178 3.562-2.425 3.384-1.569-.214-1.604-2.173-1.355-4.203.428-3.384.82-4.987 1.248-8.727.25-2.6.535-4.168.75-6.376.213-2.316.178-5.557 1.782-5.913.82-.178 1.784.142 2.14.712.678 1.14 0 2.743-.107 3.776-.178 1.496-.677 4.096-.32 4.06zm12.375 2.707c-.678-.25-.856-.677-.963-1.318-.178-1.425 1.177-2.102 2.318-2.6 2.247-1.14 3.994-1.888 6.241-1.39 1.284.463 2.496 2.173 2.782 4.025.392 2.28-.143 4.845-.428 6.661-.393 2.066-.75 4.026-1.32 5.95-.25.711-1.177 1.994-2.033 2.1-.606.108-2.068-.142-2.674-.391-2.104-.82-3.71-1.46-5.278-3.135-.642-.57-1.355-1.318-1.462-2.137-.393-1.888.535-3.135 1.32-3.918.498-.499 1.747-1.247 2.745-1.568 1.748-.534 4.815-.32 5.385-1.033.892-1.21-.32-3.063-1.141-3.17-2.675.428-4.173 2.03-5.492 1.924zm3.887 5.022c-1.355.071-2.568.428-3.102 1.14.035 2.066 2.674 2.814 4.386 3.063 1.106-.284 1.212-2.778 1.212-4.025-.463-.391-1.818-.213-2.496-.178zm13.623-2.137c.642-.606 1.106-1.033 1.498-1.639.784-1.175 1.783-2.315 2.995-3.241.928-.677 2.319-1.639 3.71-.712.427.249.998 1.567 1.105 2.707.214 2.458-.678 6.518-.713 9.119 0 .64.142 1.496 0 1.887-.464 1.212-2.889 1.782-3.71.5-.106-1.746.072-3.634.322-5.38.214-1.71.392-2.707.178-4.31-1.105.143-1.819 1.496-2.532 2.494-1.783 2.35-1.533 2.315-2.603 4.096-.607 1.069-1.783 4.168-2.746 4.346-2.568.534-2.14-1.781-1.89-4.025.25-2.494.606-4.667.713-7.196.071-2.03-.036-4.559 1.605-4.88 2.853-.534 1.604 3.919 2.068 6.234zm16.975-16.563c.072 3.383-.606 7.515-.891 11.113-.072.89-.143 2.458-.072 3.277.607-.25 1.605-.89 2.069-1.175.535-.357 1.747-1.176 2.246-1.532.963-.712 1.82-1.888 3.246-.57 1.426 1.282-1.034 2.921-2.318 3.883-.714.498-1.926 1.14-2.033 1.888-.107.676.535.997.998 1.567a73.532 73.532 0 0 0 3.246 3.42c.606.57 1.39 1.14 1.498 2.137.107 1.282-.678 2.493-2.39 2.066-1.212-.499-3.316-3.242-4.636-4.417-.107-.107-1.676-1.888-2.247-2.173 0 .712-.035 3.669-.285 4.737-.143.748-.606 1.14-1.426 1.354-2.497.534-2.211-1.888-2.104-4.381.25-5.593.677-12.04 1.319-17.668.25-2.173.428-3.455 1.997-3.918.713-.214 1.427 0 1.783.392zm15.763 9.546c.178-.036 2.033.071 2.746.356 1.426.57 2.817 1.46 2.96 2.707.107.926-.678 1.639-1.034 1.852-.714.57-2.354-.676-3.067-.997-1.962-.534-3.103-.214-3.174.926-.072.998 1.783 1.924 2.104 2.173 1.462 1.14 3.709 2.636 3.637 5.272-.071 1.959-1.212 3.455-2.603 4.381-.999.677-2.96.962-4.244.677-3.031-.677-3.53-1.14-3.21-2.957.072-.32.5-.712.857-.854 1.925-.82 3.316 1.959 5.456-.962.214-1.532-2.211-2.779-3.21-3.491-1.212-.89-2.71-2.066-2.817-3.562-.071-.926.107-2.493.606-3.135 1.284-1.567 3.067-2.172 4.993-2.386zm12.018-9.012c.678-.214 2.104-.32 2.532.285.713.962-.143 2.92-.285 3.954-.357 2.707-.642 5.592-1.034 8.3-.214 1.424-.357 2.92-.928 3.668-.749 1.033-3.566 1.96-4.065.036-.357-1.283.5-3.135.82-5.023.25-1.531.642-3.669.82-5.058.321-2.493-.107-5.414 2.14-6.162zm-2.532 22.94c1.783-.321 2.853 1.175 1.854 2.707-1.034 1.567-4.422 1.246-4.35-.891.035-1.318 1.283-1.603 2.496-1.817z" transform="rotate(-5 108.388 44.186)"/>
        </g>
      </g>
    </g>
  </g>
</svg>
