<svg id="paws" xmlns="http://www.w3.org/2000/svg" viewBox="0 0 326 62">
  <g fill="none" fill-rule="evenodd">
    <g transform="translate(-476 -439)">
      <g transform="translate(474 433)">
        <g id="paw-R" transform="translate(239.954)">
          <path id="paw-R-BG" fill="#8A5930" d="M46.47 63.555c22.525-.011 40.791-14.029 40.8-31.31.008-17.281-18.248-25.024-40.773-25.013-22.525.01-40.788 7.77-40.796 25.052-.009 17.281 18.244 31.282 40.77 31.27z" transform="rotate(10 46.485 35.393)"/>
          <path id="paw-R-FG" fill="#9D6537" d="M45.658 66.772c22.525-.01 40.791-14.028 40.8-31.31.008-17.28-18.248-25.023-40.773-25.013C23.16 10.46 4.897 18.22 4.889 35.501c-.009 17.281 18.244 31.282 40.77 31.271z" transform="rotate(10 45.673 38.61)"/>
        </g>
        <g id="paw-L" transform="translate(0 9.471)">
          <path id="paw-L-BG" fill="#8A5930" d="M39.336 54.082c19.927.005 36.077-13.298 36.072-29.714C75.403 7.952 59.248 4.025 39.322 4.02 19.395 4.014 3.242 7.93 3.247 24.347c.005 16.416 16.163 29.729 36.09 29.735z" transform="rotate(-6 39.328 29.05)"/>
          <path id="paw-L-FG" fill="#9D6537" d="M39.336 57.299c19.927.006 36.077-13.298 36.072-29.714-.005-16.416-16.16-20.342-36.086-20.348-19.927-.006-36.08 3.911-36.075 20.327.005 16.417 16.163 29.73 36.09 29.735z" transform="rotate(-6 39.328 32.268)"/>
        </g>
      </g>
    </g>
  </g>
</svg>
