<svg xmlns="http://www.w3.org/2000/svg" viewBox="0 0 40 40">
  <path d="M18 38.5c-.827 0-1.5-.673-1.5-1.5V12.5h7v8.072l9.829-4.914a1.494 1.494 0 0 1 2.013.671c.37.74.069 1.643-.671 2.013L19.5 25.926V37c0 .827-.673 1.5-1.5 1.5z" fill="#ffeea3">
</path>
  <path d="M23 13v8.381l1.447-.724 9.106-4.553a.996.996 0 0 1 1.34.447 1.002 1.002 0 0 1-.447 1.342L19.552 25.34l-.552.278V37c0 .551-.449 1-1 1s-1-.449-1-1V13h6m1-1h-8v25c0 1.1.9 2 2 2s2-.9 2-2V26.236l14.894-7.447a2.002 2.002 0 0 0-1.789-3.579L24 19.763V12z" fill="#ba9b48">
</path>
  <circle cx="24.5" cy="29.5" r="3" fill="#ffeea3">
</circle>
  <path d="M24.5 27c1.378 0 2.5 1.122 2.5 2.5S25.878 32 24.5 32 22 30.878 22 29.5s1.122-2.5 2.5-2.5m0-1a3.5 3.5 0 1 0 0 7 3.5 3.5 0 0 0 0-7z" fill="#ba9b48">
</path>
  <g>
    <path fill="#8bb7f0" d="M16.5 30.5v-17h7v7.072l5-2.5v3.354l-9 4.5V30.5z">
</path>
    <path d="M23 14v7.381l1.447-.724L28 18.881v2.237l-8.447 4.224-.553.276V30h-2V14h6m1-1h-8v18h4v-4.765l9-4.5v-4.473l-5 2.5V13z" fill="#4e7ab5">
</path>
  </g>
  <g>
    <path d="M16 14.5L3.112 12.506C2.174 12.5 1.5 11.841 1.5 11s.674-1.5 1.536-1.5H21.13l14.029-7.772c.254-.152.527-.228.804-.228a1.537 1.537 0 0 1 .792 2.853L23.827 14.5H16z" fill="#f78f8f">
</path>
    <path d="M35.963 2a1.036 1.036 0 0 1 .534 1.924l-.054.032-.049.039L23.654 14h-7.578L3.188 12.012 3.112 12h-.076C2.455 12 2 11.561 2 11s.455-1 1.036-1H21.258l.226-.125L35.43 2.148c.162-.097.346-.148.533-.148m0-1a2.04 2.04 0 0 0-1.047.29L21 9H3.036C1.911 9 1 9.875 1 11s.911 2 2.036 2L16 15h8L37.012 4.781A2.036 2.036 0 0 0 35.963 1z" fill="#c74343">
</path>
  </g>
</svg>
