<svg xmlns="http://www.w3.org/2000/svg" viewBox="0 0 40 40">
  <path d="M29 11h-1c0-6.8 5.8-7.1 5.9-7.1v1c-.2 0-4.9.3-4.9 6.1zm-17-.1h-1c0-5.8-4.8-6-5-6v-1c.1 0 6 .3 6 7z" fill="#8b75a1">
</path>
  <path d="M20 37.5C9.7 37.5 3.5 32.8 3.5 25c0-9.1 7.9-17.5 16.5-17.5S36.5 15.8 36.5 25c0 7.8-6.2 12.5-16.5 12.5z" fill="#dcd5f2">
</path>
  <path d="M20 8c9.2 0 16 9 16 17 0 7.5-6 12-16 12S4 32.5 4 25c0-8 6.8-17 16-17m0-1C10.7 7 3 16 3 25s7.7 13 17 13 17-4.1 17-13c0-9-7.7-18-17-18z" fill="#8b75a1">
</path>
  <circle cx="4.5" cy="4.5" r="2" fill="#dcd5f2">
</circle>
  <path d="M4.5 3C5.3 3 6 3.7 6 4.5S5.3 6 4.5 6 3 5.3 3 4.5 3.7 3 4.5 3m0-1C3.1 2 2 3.1 2 4.5S3.1 7 4.5 7 7 5.9 7 4.5 5.9 2 4.5 2z" fill="#8b75a1">
</path>
  <path d="M20 29.5c-4.8 0-8.5-3.7-8.5-8.5s3.7-8.5 8.5-8.5 8.5 3.7 8.5 8.5-3.7 8.5-8.5 8.5z" fill="#fff">
</path>
  <path d="M20 13c4.5 0 8 3.5 8 8s-3.5 8-8 8-8-3.5-8-8 3.5-8 8-8m0-1c-5 0-9 4-9 9s4 9 9 9 9-4 9-9-4-9-9-9z" fill="#8b75a1">
</path>
  <path d="M20 24.5c-1.9 0-3.5-1.6-3.5-3.5s1.6-3.5 3.5-3.5 3.5 1.6 3.5 3.5-1.6 3.5-3.5 3.5z" fill="#839cb2">
</path>
  <path d="M20 18c1.7 0 3 1.3 3 3s-1.3 3-3 3-3-1.3-3-3 1.3-3 3-3m0-1c-2.2 0-4 1.8-4 4s1.8 4 4 4 4-1.8 4-4-1.8-4-4-4z" fill="#66798f">
</path>
  <circle cx="22" cy="19" r="2" fill="#fff">
</circle>
  <circle cx="35.5" cy="4.5" r="2" fill="#dcd5f2">
</circle>
  <path d="M35.5 3c.8 0 1.5.7 1.5 1.5S36.3 6 35.5 6 34 5.3 34 4.5 34.7 3 35.5 3m0-1C34.1 2 33 3.1 33 4.5S34.1 7 35.5 7 38 5.9 38 4.5 36.9 2 35.5 2zM20 34c-4.1 0-6.3-1.3-6.4-1.3l.5-.9s2.2 1.1 5.9 1.1c3.6 0 5.8-1.2 5.9-1.3l.5.9c-.3.2-2.6 1.5-6.4 1.5z" fill="#8b75a1">
</path>
</svg>
