<svg xmlns="http://www.w3.org/2000/svg" viewBox="0 0 40 40">
  <path fill="#ffc49c" d="M6.5 2.5h21v24h-21z"/>
  <path d="M27 3v23H7V3h20m1-1H6v25h22V2z" fill="#a16a4a"/>
  <path d="M3.5 28V5c0-1.378 1.122-2.5 2.5-2.5h.5V28h-3z" fill="#ffc49c"/>
  <path d="M6 3v24.5H4V5c0-1.103.897-2 2-2m1-1H6a3 3 0 0 0-3 3v23.5h4V2z" fill="#a16a4a"/>
  <path fill="#ffd5b8" d="M7 3h1v23H7z"/>
  <path d="M7 3H6a2 2 0 0 0-2 2v23.231h3V3z" fill="#db996c"/>
  <path d="M5.5 30.5c-1.103 0-2-.897-2-2s.897-2 2-2h22v.34c-.179.272-.5.87-.5 1.66s.321 1.388.5 1.66v.34h-22z" fill="#fff"/>
  <path d="M26.839 27a3.533 3.533 0 0 0-.339 1.5c0 .616.165 1.13.339 1.5H5.5c-.827 0-1.5-.673-1.5-1.5S4.673 27 5.5 27h21.339M28 26H5.5a2.5 2.5 0 1 0 0 5H28v-1s-.5-.597-.5-1.5.5-1.5.5-1.5v-1z" fill="#a16a4a"/>
  <path fill="#ffc49c" d="M15.5 9.5h21v24h-21z"/>
  <path d="M36 10v23H16V10h20m1-1H15v25h22V9z" fill="#a16a4a"/>
  <g>
    <path d="M12.5 35V12c0-1.378 1.122-2.5 2.5-2.5h.5V35h-3z" fill="#ffc49c"/>
    <path d="M15 10v24.5h-2V12c0-1.103.897-2 2-2m1-1h-1a3 3 0 0 0-3 3v23.5h4V9z" fill="#a16a4a"/>
  </g>
  <g>
    <path fill="#ffd5b8" d="M16 10h1v23h-1z"/>
  </g>
  <g>
    <path d="M16 10h-1a2 2 0 0 0-2 2v23.231h3V10z" fill="#db996c"/>
  </g>
  <g>
    <path d="M14.5 37.5c-1.103 0-2-.897-2-2s.897-2 2-2h22v.34c-.179.272-.5.87-.5 1.66s.321 1.388.5 1.66v.34h-22z" fill="#fff"/>
    <path d="M35.839 34a3.533 3.533 0 0 0-.339 1.5c0 .616.165 1.13.339 1.5H14.5c-.827 0-1.5-.673-1.5-1.5s.673-1.5 1.5-1.5h21.339M37 33H14.5a2.5 2.5 0 1 0 0 5H37v-1s-.5-.597-.5-1.5.5-1.5.5-1.5v-1z" fill="#a16a4a"/>
  </g>
</svg>
