<?xml version="1.0" encoding="iso-8859-1"?>
<!-- Generator: Adobe Illustrator 22.0.1, SVG Export Plug-In . SVG Version: 6.00 Build 0)  -->
<svg xmlns="http://www.w3.org/2000/svg" xmlns:xlink="http://www.w3.org/1999/xlink" version="1.1" id="Layer_1" x="0px" y="0px" viewBox="0 0 40 40" style="enable-background:new 0 0 40 40;" xml:space="preserve">
<g>
	<rect x="6.5" y="2.5" style="fill:#FFC49C;" width="21" height="24"/>
	<g>
		<path style="fill:#A16A4A;" d="M27,3v23L7,26V3H27 M28,2H6v25l22,0V2L28,2z"/>
	</g>
</g>
<g>
	<path style="fill:#FFC49C;" d="M3.5,28V5c0-1.378,1.122-2.5,2.5-2.5h0.5V28H3.5z"/>
	<g>
		<path style="fill:#A16A4A;" d="M6,3v24.5H4V5C4,3.897,4.897,3,6,3 M7,2H6C4.343,2,3,3.343,3,5v23.5h4V2L7,2z"/>
	</g>
</g>
<g>
	<rect x="7" y="3" style="fill:#FFD5B8;" width="1" height="23"/>
</g>
<g>
	<path style="fill:#DB996C;" d="M7,3H6C4.895,3,4,3.895,4,5v23.231h3V3z"/>
</g>
<g>
	<path style="fill:#FFFFFF;" d="M5.5,30.5c-1.103,0-2-0.897-2-2s0.897-2,2-2h22v0.34C27.321,27.112,27,27.71,27,28.5   s0.321,1.388,0.5,1.66v0.34H5.5z"/>
	<g>
		<path style="fill:#A16A4A;" d="M26.839,27c-0.174,0.371-0.339,0.884-0.339,1.5c0,0.616,0.165,1.13,0.339,1.5H5.5    C4.673,30,4,29.327,4,28.5S4.673,27,5.5,27H26.839 M28,26H5.5C4.119,26,3,27.119,3,28.5S4.119,31,5.5,31H28v-1    c0,0-0.5-0.597-0.5-1.5c0-0.903,0.5-1.5,0.5-1.5V26L28,26z"/>
	</g>
</g>
<g>
	<rect x="15.5" y="9.5" style="fill:#FFC49C;" width="21" height="24"/>
	<g>
		<path style="fill:#A16A4A;" d="M36,10v23l-20,0V10H36 M37,9H15v25l22,0V9L37,9z"/>
	</g>
</g>
<g>
	<path style="fill:#FFC49C;" d="M12.5,35V12c0-1.378,1.122-2.5,2.5-2.5h0.5V35H12.5z"/>
	<g>
		<path style="fill:#A16A4A;" d="M15,10v24.5h-2V12C13,10.897,13.897,10,15,10 M16,9h-1c-1.657,0-3,1.343-3,3v23.5h4V9L16,9z"/>
	</g>
</g>
<g>
	<rect x="16" y="10" style="fill:#FFD5B8;" width="1" height="23"/>
</g>
<g>
	<path style="fill:#DB996C;" d="M16,10h-1c-1.105,0-2,0.895-2,2v23.231h3V10z"/>
</g>
<g>
	<path style="fill:#FFFFFF;" d="M14.5,37.5c-1.103,0-2-0.897-2-2s0.897-2,2-2h22v0.34C36.321,34.112,36,34.71,36,35.5   s0.321,1.388,0.5,1.66v0.34H14.5z"/>
	<g>
		<path style="fill:#A16A4A;" d="M35.839,34c-0.174,0.371-0.339,0.884-0.339,1.5c0,0.616,0.165,1.13,0.339,1.5H14.5    c-0.827,0-1.5-0.673-1.5-1.5s0.673-1.5,1.5-1.5H35.839 M37,33H14.5c-1.381,0-2.5,1.119-2.5,2.5s1.119,2.5,2.5,2.5H37v-1    c0,0-0.5-0.597-0.5-1.5c0-0.903,0.5-1.5,0.5-1.5V33L37,33z"/>
	</g>
</g>
</svg>
