<svg xmlns="http://www.w3.org/2000/svg" viewBox="0 0 40 40">
  <path fill="#99c99e" d="M37.995 38.46c-2.113-.165-4.481-.831-6.779-1.917l-.193-.091-.199.076a14.904 14.904 0 0 1-5.324.972c-7.168 0-13-4.935-13-11s5.832-11 13-11 13 4.935 13 11c0 2.53-1.042 5.001-2.935 6.958l-.242.25.151.314c.818 1.702 1.664 3.189 2.521 4.438z"/>
  <path fill="#5e9c76" d="M25.5 16C32.393 16 38 20.71 38 26.5c0 2.4-.992 4.748-2.794 6.611l-.484.501.302.628a36.867 36.867 0 0 0 1.968 3.602c-1.775-.267-3.691-.866-5.563-1.751l-.385-.182-.398.152A14.411 14.411 0 0 1 25.5 37C18.607 37 13 32.29 13 26.5S18.607 16 25.5 16m0-1C18.044 15 12 20.149 12 26.5S18.044 38 25.5 38c1.961 0 3.82-.364 5.501-1.005C33.547 38.198 36.405 39 39 39c-1.176-1.549-2.201-3.377-3.075-5.194C37.846 31.82 39 29.275 39 26.5 39 20.149 32.956 15 25.5 15z"/>
  <path fill="#8bb7f0" d="M2.005 24.46c.857-1.249 1.702-2.736 2.521-4.437l.151-.314-.242-.25C2.542 17.501 1.5 15.03 1.5 12.5c0-6.065 5.832-11 13-11s13 4.935 13 11-5.832 11-13 11c-1.839 0-3.63-.327-5.323-.972l-.199-.076-.193.091c-2.298 1.086-4.666 1.752-6.78 1.917z"/>
  <path fill="#4e7ab5" d="M14.5 2C21.393 2 27 6.71 27 12.5S21.393 23 14.5 23c-1.778 0-3.509-.316-5.145-.939l-.398-.152-.385.182c-1.872.885-3.788 1.484-5.563 1.751a37.08 37.08 0 0 0 1.968-3.602l.302-.628-.484-.501C2.992 17.248 2 14.9 2 12.5 2 6.71 7.607 2 14.5 2m0-1C7.044 1 1 6.149 1 12.5c0 2.775 1.154 5.32 3.075 7.306C3.201 21.623 2.176 23.451 1 25c2.595 0 5.453-.802 7.999-2.005A15.43 15.43 0 0 0 14.5 24C21.956 24 28 18.851 28 12.5S21.956 1 14.5 1z"/>
</svg>
