<svg xmlns="http://www.w3.org/2000/svg" viewBox="0 0 50 50" fill="#12529e">
  <path d="M1 0C.45 0 0 .45 0 1v12c0 .55.45 1 1 1h12c.55 0 1-.45 1-1V1c0-.55-.45-1-1-1zm9.25 3.344l1.5 1.312-5.156 5.75-4.25-3.656 1.312-1.5 2.75 2.344zM20 6v2h30V6zM1 18c-.55 0-1 .45-1 1v12a1 1 0 0 0 1 1h12a1 1 0 0 0 1-1V19c0-.55-.45-1-1-1zm9.25 3.344l1.5 1.312-5.156 5.75-4.25-3.656 1.312-1.5 2.75 2.344zM20 24v2h30v-2zM1 36a1 1 0 0 0-1 1v12a1 1 0 0 0 1 1h12a1 1 0 0 0 1-1V37a1 1 0 0 0-1-1zm19 6v2h30v-2z">
</path>
</svg>
