<svg xmlns="http://www.w3.org/2000/svg" viewBox="0 0 40 40">
  <path fill="#ffc49c" d="M14.5 7.5h11v31h-11z"/>
  <path d="M25 8v30H15V8h10m1-1H14v32h12V7z" fill="#a16a4a"/>
  <path fill="#a16a4a" d="M14.5 11h11v1h-11zM14.5 34h11v1h-11zM19 16h2v14h-2z"/>
  <path fill="#8bb7f0" d="M27.5 1.5h11v37h-11z"/>
  <path d="M38 2v36H28V2h10m1-1H27v38h12V1z" fill="#4e7ab5"/>
  <path fill="#4e7ab5" d="M27.5 5h11v1h-11zM27.5 34h11v1h-11zM32 11h2v18h-2z"/>
  <path fill="#bae0bd" d="M1.5 1.5h11v37h-11z"/>
  <path d="M12 2v36H2V2h10m1-1H1v38h12V1z" fill="#5e9c76"/>
  <path fill="#5e9c76" d="M1.5 5h11v1h-11zM1.5 34h11v1h-11zM6 11h2v18H6z"/>
</svg>
