<svg xmlns="http://www.w3.org/2000/svg" viewBox="0 0 40 40">
  <path fill="#fff" d="M2.5 2.5h35v35h-35z">
</path>
  <path d="M37 3v34H3V3h34m1-1H2v36h36V2z" fill="#788b9c">
</path>
  <path fill="#c2e8ff" d="M2.5 2.5h7v7h-7z">
</path>
  <path d="M9 3v6H3V3h6m1-1H2v8h8V2z" fill="#7496c4">
</path>
  <path fill="#c2e8ff" d="M2.5 9.5h7v7h-7z">
</path>
  <path d="M9 10v6H3v-6h6m1-1H2v8h8V9z" fill="#7496c4">
</path>
  <path fill="#c2e8ff" d="M2.5 16.5h7v7h-7z">
</path>
  <path d="M9 17v6H3v-6h6m1-1H2v8h8v-8z" fill="#7496c4">
</path>
  <path fill="#c2e8ff" d="M2.5 23.5h7v7h-7z">
</path>
  <path d="M9 24v6H3v-6h6m1-1H2v8h8v-8z" fill="#7496c4">
</path>
  <g>
    <path fill="#c2e8ff" d="M2.5 30.5h7v7h-7z">
</path>
    <path d="M9 31v6H3v-6h6m1-1H2v8h8v-8z" fill="#7496c4">
</path>
  </g>
  <path fill="#c5d4de" d="M10 9h27v1H10zM10 16h27v1H10zM10 23h27v1H10zM10 30h27v1H10z">
</path>
</svg>
