<svg xmlns="http://www.w3.org/2000/svg" viewBox="0 0 40 40">
  <path fill="#8bb7f0" d="M1.685 8.474l6.788-6.788 29.84 29.84-6.788 6.788z">
</path>
  <path d="M8.5 2.4l29.1 29.1-6.1 6.1L2.4 8.5l6.1-6.1m0-1.4L1 8.5 31.5 39l7.5-7.5L8.5 1z" fill="#4e7ab5">
</path>
  <path fill="#f5ce85" d="M6.8 28.5l2.6-2.6 5.1 4.4-2.9 2.9-8.3 3.5z">
</path>
  <path d="M9.5 26.5l4.3 3.7-2.5 2.5-7 3 3-7 2.2-2.2m-.1-1.3l-3 3-4.1 9.5 9.5-4.1 3.4-3.4-5.8-5z" fill="#967a44">
</path>
  <path fill="#36404d" d="M4.7 32.3l-2.3 5.3 5.3-2.3z">
</path>
  <path d="M29.2 6.1l2.2-2.2c.6-.6 1.5-1 2.4-1 .9 0 1.7.3 2.4 1s1 1.5 1 2.4-.3 1.7-1 2.4L34 10.9l-4.8-4.8z" fill="#f78f8f">
</path>
  <path d="M33.8 3.4c.8 0 1.5.3 2 .8 1.1 1.1 1.1 2.9 0 4l-1.9 1.9-4-4 1.9-1.9c.5-.5 1.2-.8 2-.8m0-1c-1 0-2 .4-2.7 1.1l-2.6 2.6 5.4 5.4 2.6-2.6C38 7.4 38 5 36.5 3.5c-.7-.8-1.7-1.1-2.7-1.1z" fill="#c74343">
</path>
  <path d="M12.2 32.5c-.1-.2-.2-.3-.3-.5-.3-.4-.7-.6-1.3-.7-.2-1.3-1.2-1.8-2-2-.1-.9-.6-1.3-1.2-1.6L29 6.2l4.7 4.7-21.5 21.6z" fill="#ffeea3">
</path>
  <path d="M29 6.9l4 4-20.7 20.8c-.3-.2-.7-.6-1.3-.7-.3-1.1-1.2-1.7-2-1.9-.2-.5-.4-1-.8-1.3L29 6.9m0-1.4L6.4 28.2c.2 0 1.7.1 1.7 1.7 0 0 2 .1 2 2 2 0 1.7 1.7 1.7 1.7L34.5 11 29 5.5z" fill="#ba9b48">
</path>
  <path fill="#d9e7f5" d="M27.178 8.126l3.465-3.465 4.738 4.738-3.465 3.464z">
</path>
  <path d="M30.7 5.3l4 4-2.8 2.8-4-4 2.8-2.8m0-1.4l-4.2 4.2 5.4 5.4 4.2-4.2-5.4-5.4z" fill="#788b9c">
</path>
  <path fill="#4e7ab5" d="M7.906 6.933l2.687-2.687.707.707L8.613 7.64zM11.83 8.409l1.556-1.556.707.707-1.555 1.556zM13.365 12.29l2.687-2.686.707.707-2.687 2.687zM17.289 13.907l1.555-1.555.707.707-1.555 1.556zM25.441 21.98l1.556-1.556.707.707-1.556 1.556zM26.906 25.933l2.686-2.687.708.707-2.687 2.687zM30.83 27.409l1.556-1.556.707.707-1.556 1.556zM32.364 31.291l2.687-2.687.707.707-2.687 2.687z">
</path>
</svg>
