<svg xmlns="http://www.w3.org/2000/svg" viewBox="0 0 40 40">
  <path transform="rotate(-45.001 20 20.001)" fill="#8bb7f0" d="M15.2-1.1h9.6v42.2h-9.6z"/>
  <path d="M8.5 2.4l29.1 29.1-6.1 6.1L2.4 8.5l6.1-6.1m0-1.4L1 8.5 31.5 39l7.5-7.5L8.5 1z" fill="#4e7ab5"/>
  <path fill="#f5ce85" d="M6.8 28.5l2.6-2.6 5.1 4.4-2.9 2.9-8.3 3.5z"/>
  <path d="M9.5 26.5l4.3 3.7-2.5 2.5-7 3 3-7 2.2-2.2m-.1-1.3l-3 3-4.1 9.5 9.5-4.1 3.4-3.4-5.8-5z" fill="#967a44"/>
  <path fill="#36404d" d="M4.7 32.3l-2.3 5.3 5.3-2.3z"/>
  <path d="M29.2 6.1l2.2-2.2c.6-.6 1.5-1 2.4-1 .9 0 1.7.3 2.4 1s1 1.5 1 2.4-.3 1.7-1 2.4L34 10.9l-4.8-4.8z" fill="#f78f8f"/>
  <path d="M33.8 3.4c.8 0 1.5.3 2 .8 1.1 1.1 1.1 2.9 0 4l-1.9 1.9-4-4 1.9-1.9c.5-.5 1.2-.8 2-.8m0-1c-1 0-2 .4-2.7 1.1l-2.6 2.6 5.4 5.4 2.6-2.6C38 7.4 38 5 36.5 3.5c-.7-.8-1.7-1.1-2.7-1.1z" fill="#c74343"/>
  <path d="M12.2 32.5c-.1-.2-.2-.3-.3-.5-.3-.4-.7-.6-1.3-.7-.2-1.3-1.2-1.8-2-2-.1-.9-.6-1.3-1.2-1.6L29 6.2l4.7 4.7-21.5 21.6z" fill="#ffeea3"/>
  <path d="M29 6.9l4 4-20.7 20.8c-.3-.2-.7-.6-1.3-.7-.3-1.1-1.2-1.7-2-1.9-.2-.5-.4-1-.8-1.3L29 6.9m0-1.4L6.4 28.2c.2 0 1.7.1 1.7 1.7 0 0 2 .1 2 2 2 0 1.7 1.7 1.7 1.7L34.5 11 29 5.5z" fill="#ba9b48"/>
  <path transform="rotate(-45.001 31.28 8.72)" fill="#d9e7f5" d="M28.8 5.4h4.9v6.7h-4.9z"/>
  <path d="M30.7 5.3l4 4-2.8 2.8-4-4 2.8-2.8m0-1.4l-4.2 4.2 5.4 5.4 4.2-4.2-5.4-5.4z" fill="#788b9c"/>
  <path transform="rotate(-45.001 9.653 5.918)" fill="#4e7ab5" d="M7.7 5.4h3.8v1H7.7z"/>
  <path transform="rotate(-45.001 12.962 8.038)" fill="#4e7ab5" d="M11.9 7.5h2.2v1h-2.2z"/>
  <path transform="rotate(-45.001 15.082 11.347)" fill="#4e7ab5" d="M13.2 10.8H17v1h-3.8z"/>
  <path transform="rotate(-45.001 18.39 13.467)" fill="#4e7ab5" d="M17.3 13h2.2v1h-2.2z"/>
  <path transform="rotate(-45.001 26.533 21.61)" fill="#4e7ab5" d="M25.5 21.1h2.2v1h-2.2z"/>
  <path transform="rotate(-45.001 28.653 24.918)" fill="#4e7ab5" d="M26.7 24.4h3.8v1h-3.8z"/>
  <path transform="rotate(-45.001 31.962 27.039)" fill="#4e7ab5" d="M30.9 26.5h2.2v1h-2.2z"/>
  <path transform="rotate(-45.001 34.082 30.347)" fill="#4e7ab5" d="M32.2 29.8H36v1h-3.8z"/>
</svg>
