<svg xmlns="http://www.w3.org/2000/svg" viewBox="0 0 50 50" fill="#12529e">
  <path d="M9.938.531L.53 9.937 15.47 24.813l9.375-9.375L23.406 14l-3.687 3.719-1.438-1.438L22 12.594 20.406 11l-2.687 2.719-1.438-1.438L19 9.594 17.406 8l-3.687 3.719-1.438-1.438L16 6.594 14.406 5 11.72 7.719 10.28 6.28 13 3.594zM43.124 2a4.857 4.857 0 0 0-3.438 1.438l-1.78 1.75-21.032 21.03-12.438 12.47a.987.987 0 0 0-.406.562l-2 7.5a.997.997 0 0 0 .262.957c.25.25.613.352.957.262l7.5-2a1.02 1.02 0 0 0 .438-.282l.062-.03a.954.954 0 0 0 .125-.157l33.438-33.406v-.031l.656-.657 1.093-1.094a4.861 4.861 0 0 0 0-6.874A4.864 4.864 0 0 0 43.126 2zm0 2c.766 0 1.492.305 2.031.844a2.881 2.881 0 0 1 0 4.062l-.343.344-4.063-4.063.344-.343A2.858 2.858 0 0 1 43.125 4zm-7.719 21.781L32.72 28.47l-.844-.844-6.719 6.719L40.063 49.25l9.406-9.406-2.063-2.063-2.687 2.688-1.438-1.407L46 36.344l-1.594-1.563-3.687 3.688-1.438-1.407L43 33.344l-1.594-1.563-2.687 2.688-1.438-1.407L40 30.345l-1.594-1.563-3.687 3.688-1.438-1.407L37 27.345zM5.531 41.438l3.032 3.03-4.157 1.126z">
</path>
</svg>
