<?xml version="1.0" encoding="utf-8"?>
<!-- Generator: Adobe Illustrator 21.0.2, SVG Export Plug-In . SVG Version: 6.00 Build 0)  -->
<svg xmlns="http://www.w3.org/2000/svg" xmlns:xlink="http://www.w3.org/1999/xlink" version="1.1" id="Layer_1" x="0px" y="0px" viewBox="0 0 40 40" style="enable-background:new 0 0 40 40;" xml:space="preserve">
<g>
	
		<rect x="15.2" y="-1.1" transform="matrix(0.7071 -0.7071 0.7071 0.7071 -8.2851 20.0001)" style="fill:#8BB7F0;" width="9.6" height="42.2"/>
	<path style="fill:#4E7AB5;" d="M8.5,2.4l29.1,29.1l-6.1,6.1L2.4,8.5L8.5,2.4 M8.5,1L1,8.5L31.5,39l7.5-7.5L8.5,1L8.5,1z"/>
</g>
<g>
	<polygon style="fill:#F5CE85;" points="6.8,28.5 9.4,25.9 14.5,30.3 11.6,33.2 3.3,36.7  "/>
	<path style="fill:#967A44;" d="M9.5,26.5l4.3,3.7l-2.5,2.5l-7,3l3-7L9.5,26.5 M9.4,25.2l-3,3l-4.1,9.5l9.5-4.1l3.4-3.4L9.4,25.2   L9.4,25.2z"/>
</g>
<g>
	<polygon style="fill:#36404D;" points="4.7,32.3 2.4,37.6 7.7,35.3  "/>
</g>
<g>
	<path style="fill:#F78F8F;" d="M29.2,6.1l2.2-2.2c0.6-0.6,1.5-1,2.4-1c0.9,0,1.7,0.3,2.4,1s1,1.5,1,2.4s-0.3,1.7-1,2.4l-2.2,2.2   L29.2,6.1z"/>
	<g>
		<path style="fill:#C74343;" d="M33.8,3.4c0.8,0,1.5,0.3,2,0.8c1.1,1.1,1.1,2.9,0,4l-1.9,1.9l-4-4l1.9-1.9    C32.3,3.7,33,3.4,33.8,3.4 M33.8,2.4c-1,0-2,0.4-2.7,1.1l-2.6,2.6l5.4,5.4l2.6-2.6C38,7.4,38,5,36.5,3.5    C35.8,2.7,34.8,2.4,33.8,2.4L33.8,2.4z"/>
	</g>
</g>
<g>
	<path style="fill:#FFEEA3;" d="M12.2,32.5c-0.1-0.2-0.2-0.3-0.3-0.5c-0.3-0.4-0.7-0.6-1.3-0.7c-0.2-1.3-1.2-1.8-2-2   c-0.1-0.9-0.6-1.3-1.2-1.6L29,6.2l4.7,4.7L12.2,32.5z"/>
	<g>
		<path style="fill:#BA9B48;" d="M29,6.9l4,4L12.3,31.7C12,31.5,11.6,31.1,11,31c-0.3-1.1-1.2-1.7-2-1.9c-0.2-0.5-0.4-1-0.8-1.3    L29,6.9 M29,5.5L6.4,28.2c0,0,0,0,0,0c0.2,0,1.7,0.1,1.7,1.7c0,0,2,0.1,2,2c2,0,1.7,1.7,1.7,1.7L34.5,11L29,5.5L29,5.5z"/>
	</g>
</g>
<g>
	
		<rect x="28.8" y="5.4" transform="matrix(0.7071 -0.7071 0.7071 0.7071 2.9956 24.6719)" style="fill:#D9E7F5;" width="4.9" height="6.7"/>
	<g>
		<path style="fill:#788B9C;" d="M30.7,5.3l4,4l-2.8,2.8l-4-4L30.7,5.3 M30.7,3.9l-4.2,4.2l5.4,5.4l4.2-4.2L30.7,3.9L30.7,3.9z"/>
	</g>
</g>
<rect x="7.7" y="5.4" transform="matrix(0.7071 -0.7071 0.7071 0.7071 -1.3572 8.5594)" style="fill:#4E7AB5;" width="3.8" height="1"/>
<rect x="11.9" y="7.5" transform="matrix(0.7071 -0.7071 0.7071 0.7071 -1.8871 11.5199)" style="fill:#4E7AB5;" width="2.2" height="1"/>
<rect x="13.2" y="10.8" transform="matrix(0.7071 -0.7071 0.7071 0.7071 -3.6057 13.9879)" style="fill:#4E7AB5;" width="3.8" height="1"/>
<rect x="17.3" y="13" transform="matrix(0.7071 -0.7071 0.7071 0.7071 -4.1364 16.948)" style="fill:#4E7AB5;" width="2.2" height="1"/>
<rect x="25.5" y="21.1" transform="matrix(0.7071 -0.7071 0.7071 0.7071 -7.5095 25.091)" style="fill:#4E7AB5;" width="2.2" height="1"/>
<rect x="26.7" y="24.4" transform="matrix(0.7071 -0.7071 0.7071 0.7071 -9.2273 27.5593)" style="fill:#4E7AB5;" width="3.8" height="1"/>
<rect x="30.9" y="26.5" transform="matrix(0.7071 -0.7071 0.7071 0.7071 -9.7574 30.5198)" style="fill:#4E7AB5;" width="2.2" height="1"/>
<rect x="32.2" y="29.8" transform="matrix(0.7071 -0.7071 0.7071 0.7071 -11.4759 32.988)" style="fill:#4E7AB5;" width="3.8" height="1"/>
</svg>
