<svg xmlns="http://www.w3.org/2000/svg" viewBox="0 0 40 40">
  <path d="M29 22.5c-.827 0-1.5-.673-1.5-1.5v-7.319L20.436 7.5H14c-.827 0-1.5-.673-1.5-1.5s.673-1.5 1.5-1.5h7c.363 0 .714.132.988.371l8 7c.325.285.512.696.512 1.129v6.5H36c.827 0 1.5.673 1.5 1.5s-.673 1.5-1.5 1.5h-7z" fill="#ffeea3"/>
  <path d="M21 5c.242 0 .477.088.659.247l8 7c.216.19.341.465.341.753v7h6c.551 0 1 .449 1 1s-.449 1-1 1h-7c-.551 0-1-.449-1-1V13.454l-.342-.299-6.752-5.908L20.624 7H14c-.551 0-1-.449-1-1s.449-1 1-1h7m0-1h-7a2 2 0 0 0 0 4h6.248L27 13.908V21a2 2 0 0 0 2 2h7a2 2 0 0 0 0-4h-5v-6a2 2 0 0 0-.683-1.505l-8-7A2.002 2.002 0 0 0 21 4z" fill="#ba9b48"/>
  <path fill="#e1ebf2" d="M2 16h15v1H2z"/>
  <path fill="#a3b7cc" d="M17 16H2v1h15v-1z"/>
  <path fill="#e1ebf2" d="M2 12h20v1H2z"/>
  <path fill="#a3b7cc" d="M22 12H2v1h20v-1z"/>
  <path fill="#e1ebf2" d="M2 20h17v1H2z"/>
  <path fill="#a3b7cc" d="M19 20H2v1h17v-1z"/>
  <path d="M34 8.5c-1.93 0-3.5-1.57-3.5-3.5s1.57-3.5 3.5-3.5 3.5 1.57 3.5 3.5-1.57 3.5-3.5 3.5z" fill="#ffeea3"/>
  <path d="M34 2c1.654 0 3 1.346 3 3s-1.346 3-3 3-3-1.346-3-3 1.346-3 3-3m0-1a4 4 0 1 0 0 8 4 4 0 0 0 0-8z" fill="#ba9b48"/>
  <g>
    <path d="M19.04 21.04a3.072 3.072 0 0 1-2.479-1.238c-.325-.433-.315-1.075-.249-1.538.229-1.61 1.397-3.452 2.346-4.163l7.543-5.622 3.733 3.331c.365.303.566.733.566 1.19v.214l-9.606 7.208a3.07 3.07 0 0 1-1.854.618z" fill="#ffb5d2"/>
    <path d="M26.173 9.123l3.455 3.081c.228.19.362.466.372.761l-9.406 7.057a2.567 2.567 0 0 1-1.553.518 2.576 2.576 0 0 1-2.079-1.038c-.303-.403-.23-1.336.186-2.378.423-1.062 1.168-2.14 1.81-2.621l7.215-5.38m.056-1.29L18.358 13.7c-1.589 1.191-3.389 4.816-2.197 6.401a3.591 3.591 0 0 0 2.879 1.438c.751 0 1.508-.233 2.154-.718L31 13.464V13c0-.604-.268-1.177-.732-1.564l-4.039-3.603z" fill="#ea4c89"/>
  </g>
  <g>
    <path d="M17.036 38.5c-.443 0-.865-.191-1.155-.524a1.53 1.53 0 0 1 .143-2.167l7.953-7.95a1.52 1.52 0 0 1 .986-.358c.443 0 .864.191 1.155.525a1.53 1.53 0 0 1-.143 2.167l-7.953 7.951a1.523 1.523 0 0 1-.986.356z" fill="#ffeea3"/>
    <path d="M24.964 28a1.036 1.036 0 0 1 .682 1.817l-.025.022-.023.023-7.901 7.9a1.035 1.035 0 0 1-1.343-1.577l.025-.022.023-.023 7.901-7.9c.186-.155.42-.24.661-.24m0-1c-.476 0-.954.166-1.341.505l-7.928 7.927A2.035 2.035 0 0 0 17.036 39c.476 0 .954-.166 1.34-.504l7.928-7.927a2.035 2.035 0 0 0 .191-2.872A2.02 2.02 0 0 0 24.964 27z" fill="#ba9b48"/>
  </g>
  <g>
    <path d="M14 30.5c-.827 0-1.5-.673-1.5-1.5s.673-1.5 1.5-1.5h7.62l-5.406-7.503-.081-.081a3.062 3.062 0 0 1-.595-2.297 3.077 3.077 0 0 1 1.207-2.039l1.469-1.135 7.999 13.677c.195.283.287.576.287.878 0 .827-.673 1.5-1.5 1.5H14z" fill="#ffeea3"/>
    <path d="M18.07 15.187l7.711 13.185.019.033.022.031A.994.994 0 0 1 25 30H14c-.551 0-1-.449-1-1 0-.551.449-1 1-1h8.596l-1.141-1.585-4.807-6.673-.023-.033-.026-.031a1.43 1.43 0 0 0-.101-.107 2.575 2.575 0 0 1-.464-1.883 2.581 2.581 0 0 1 1.024-1.718l1.012-.783m.288-1.487l-1.913 1.479a3.594 3.594 0 0 0-.719 5.032c.033.044.075.074.11.115L20.643 27H14c-1.1 0-2 .9-2 2s.9 2 2 2h11c1.1 0 2-.9 2-2 0-.42-.133-.809-.356-1.132L18.358 13.7z" fill="#ba9b48"/>
  </g>
  <g>
    <path d="M20.899 26.5l-4.686-6.503-.081-.081a3.062 3.062 0 0 1-.595-2.297 3.077 3.077 0 0 1 1.207-2.039l1.469-1.135L25.269 26.5h-4.37z" fill="#839cb2"/>
    <path d="M18.07 15.187L24.397 26h-3.241l-4.508-6.258-.024-.033-.026-.031a1.41 1.41 0 0 0-.101-.106 2.57 2.57 0 0 1-.464-1.883 2.581 2.581 0 0 1 1.024-1.718l1.013-.784m.288-1.487l-1.913 1.479a3.594 3.594 0 0 0-.719 5.032c.033.044.075.074.11.115L20.643 27h5.497l-7.782-13.3z" fill="#66798f"/>
  </g>
</svg>
