<svg xmlns="http://www.w3.org/2000/svg" viewBox="0 0 40 40">
  <path fill="#c2e8ff" d="M1.5 5.5h33v33h-33z"/>
  <path d="M34 6v32H2V6h32m1-1H1v34h34V5z" fill="#7496c4"/>
  <path transform="rotate(90 33.833 14.778)" fill="#c2e8ff" d="M30.611 13.611h6.444v2.333h-6.444z"/>
  <path fill="#c2e8ff" d="M22 5h6.444v2.333H22z"/>
  <g>
    <path fill="#8bb7f0" d="M18.707 16l10-10-4.5-4.5H38.5v14.293l-4.5-4.5-10 10z"/>
    <path d="M38 2v12.586l-3.293-3.293-.707-.707-.707.707L24 20.586 19.414 16l9.293-9.293.707-.707-.707-.707L25.414 2H38m1-1H23l5 5-10 10 6 6 10-10 5 5V1z" fill="#4e7ab5"/>
  </g>
</svg>
