<svg xmlns="http://www.w3.org/2000/svg" viewBox="0 0 40 40">
  <path d="M20 38.5c-10.313 0-17.5-2.635-17.5-5s7.187-5 17.5-5 17.5 2.635 17.5 5-7.187 5-17.5 5z" fill="#e1ebf2">
</path>
  <path d="M20 29c10.378 0 17 2.665 17 4.5S30.378 38 20 38 3 35.335 3 33.5 9.622 29 20 29m0-1c-9.941 0-18 2.462-18 5.5S10.059 39 20 39s18-2.462 18-5.5S29.941 28 20 28z" fill="#a3b7cc">
</path>
  <path d="M20.001 33.203c-1.823-2.301-9.538-12.418-10.403-19.9A8.637 8.637 0 0 1 9.5 11.99C9.522 6.206 14.232 1.5 20 1.5c5.79 0 10.5 4.705 10.5 10.488 0 .392-.027.766-.086 1.177-.791 7.559-8.578 17.733-10.413 20.038z" fill="#f78f8f">
</path>
  <path d="M20 2c5.514 0 10 4.481 10 9.988 0 .364-.026.716-.085 1.143-.729 6.962-7.583 16.274-9.913 19.263-2.315-2.982-9.109-12.241-9.912-19.177a8.075 8.075 0 0 1-.09-1.225C10.022 6.482 14.508 2 20 2m0-1C13.925 1 9.024 5.92 9 11.988c-.002.508.04.953.1 1.373C10.107 22.059 20 34 20 34s9.992-11.997 10.909-20.765c.055-.384.091-.791.091-1.247C31 5.919 26.075 1 20 1z" fill="#c74343">
</path>
  <g>
    <path d="M20 16.464c-2.481 0-4.5-2.019-4.5-4.5s2.019-4.5 4.5-4.5 4.5 2.019 4.5 4.5-2.019 4.5-4.5 4.5z" fill="#f2faff">
</path>
    <path d="M20 7.964a4 4 0 1 1 0 8 4 4 0 0 1 0-8m0-1c-2.757 0-5 2.243-5 5s2.243 5 5 5 5-2.243 5-5-2.243-5-5-5z" fill="#c74343">
</path>
  </g>
</svg>
