<svg xmlns="http://www.w3.org/2000/svg" viewBox="0 0 40 40">
  <path fill="#c2e8ff" d="M39 20c0 10.578-8.618 19-19 19C9.619 39 1 30.578 1 20S9.422 1 20 1s19 8.422 19 19z"/>
  <path fill="#bae0bd" d="M30.933 34.296c-.19-.597-.388-1.213-.511-1.83l-.013-.065-.03-.06c-.409-.818-.621-1.667-.826-2.488-.068-.209-.107-.415-.151-.633-.12-.607-.269-1.358-.79-1.919-.246-.426-.631-.56-.942-.669-.104-.036-.214-.073-.322-.127-.698-.3-1.403-.326-2.085-.351-1.083-.04-1.772-.099-2.265-.788-.204-.307-.193-.62-.152-1.191.012-.167.023-.342.028-.526.192-.306.343-.606.488-.898.159-.319.309-.62.508-.917l.029-.043.019-.049c.157-.391.344-.753.526-1.107.311-.604.631-1.227.785-1.944.129-.303.13-.625.13-.913 0-.17 0-.344.029-.462.188-.146.542-.324.859-.484l.071-.036.08-.068a.754.754 0 0 1 .144-.105c.142-.087.435-.268.435-.681a.743.743 0 0 0-.194-.506 1.43 1.43 0 0 1 .264-.435 40.503 40.503 0 0 1 1.602-1.494c.51-.459 1.021-.919 1.531-1.423a.707.707 0 0 0 .437-.462.707.707 0 0 0 .068-.663.804.804 0 0 0-.614-.472 4.4 4.4 0 0 0-.518-.2c-.143-.048-.286-.095-.478-.19l-.105-.053h-.126a.689.689 0 0 1 .146-.225l.711-1.048.648-.972c.089-.075.241-.272.399-.481.262-.345.558-.736.854-.835a1.358 1.358 0 0 1 .983-.069C36.4 9.937 38.5 14.759 38.5 20c0 5.861-2.701 11.238-7.416 14.776l-.151-.48z"/>
  <path fill="#5e9c76" d="M32.17 6.85c.054 0 .112.005.172.016C35.992 10.29 38 14.945 38 20c0 5.479-2.427 10.523-6.656 13.942a15.09 15.09 0 0 1-.432-1.573l-.026-.131-.06-.12c-.387-.773-.591-1.593-.788-2.385l-.01-.039-.013-.038c-.043-.129-.082-.326-.124-.534-.123-.622-.29-1.463-.878-2.122-.341-.547-.86-.729-1.181-.841-.085-.03-.175-.059-.264-.103l-.025-.013-.026-.011c-.758-.326-1.544-.354-2.238-.38-1.067-.039-1.536-.102-1.858-.553-.118-.177-.116-.374-.079-.892.009-.133.019-.27.025-.412.17-.284.307-.558.44-.824.152-.305.296-.592.477-.864l.058-.087.039-.097c.145-.362.32-.703.506-1.064.319-.621.649-1.262.819-2.023.151-.38.151-.755.151-1.063v-.176c.181-.107.444-.239.636-.335l.138-.067.113-.113c.02-.016.041-.027.059-.038.166-.103.672-.415.672-1.107 0-.215-.051-.392-.119-.534a.355.355 0 0 1 .041-.054c.521-.521 1.036-.984 1.581-1.474.481-.433.978-.88 1.475-1.367a1.2 1.2 0 0 0 .614-.675c.191-.328.223-.715.077-1.07a1.304 1.304 0 0 0-.921-.759c-.206-.093-.375-.149-.515-.196l-.085-.029 1.09-1.634c.154-.166.295-.351.431-.53.162-.214.465-.612.615-.663l.045-.015.044-.019a.786.786 0 0 1 .322-.068m0-1c-.242 0-.485.048-.727.155-.648.217-1.079 1.081-1.511 1.512L28.637 9.46c-.217.216-.432.648-.217.864 0 .216.217.216.432.216.432.217.649.217 1.081.432.216 0 .432.217.216.432 0 0 0 .217-.216.217-1.081 1.08-2.159 1.943-3.239 3.022-.216.216-.432.648-.432.864 0 .216.216.216.216.432 0 .217-.216.217-.432.432-.432.217-.864.432-1.08.649-.216.432 0 1.08-.216 1.511-.216 1.079-.865 1.943-1.297 3.023-.432.647-.647 1.295-1.078 1.943 0 .864-.217 1.511.215 2.159 1.081 1.511 3.023.648 4.534 1.296.432.215.864.215 1.081.647.647.649.647 1.728.864 2.376.215.864.432 1.727.864 2.591.216 1.081.648 2.16.864 3.023.141-.11.306-.213.463-.318C35.927 31.822 39 26.302 39 20c0-5.597-2.373-10.575-6.161-14.037a2.16 2.16 0 0 0-.669-.113z"/>
  <path fill="#bae0bd" d="M20.245 9.581c-.177-.414-.177-1.245-.177-1.633 0-.396.108-.735.224-1.094.161-.505.345-1.078.198-1.811.01-.131-.158-1.495-.21-1.907l-.042-.34-.333-.083a5.616 5.616 0 0 0-.639-.112c-.184-.025-.462-.062-.526-.114.003-.001-.017-.074.022-.271.035-.094.165-.361.363-.691.291-.014.581-.025.875-.025 2.178 0 4.312.371 6.346 1.104.034.195-.174.783-.646 1.686l-.102.196c-.282.833-.693 1.464-1.125 1.752-.492.478-1.12 1.106-1.729 1.511-.345.23-.683.512-1.01.784-.312.259-.622.52-.934.727a4.002 4.002 0 0 0-.398.227c-.05.031-.111.068-.157.094z"/>
  <path fill="#5e9c76" d="M20 2c1.973 0 3.909.313 5.766.932-.072.225-.222.577-.509 1.126l-.105.203-.032.064-.022.068c-.215.646-.569 1.206-.901 1.428l-.082.055-.07.07c-.402.402-1.009 1.009-1.576 1.387-.367.245-.716.536-1.054.817-.287.239-.56.466-.819.646-.026-.326-.026-.681-.026-.848 0-.318.092-.607.199-.941.166-.52.372-1.163.227-1.987-.02-.289-.093-.941-.218-1.946l-.085-.68-.665-.166a6.098 6.098 0 0 0-.656-.118l.053-.098C19.612 2.005 19.806 2 20 2m0-1c-.391 0-.776.019-1.161.041-.27.419-.485.832-.566 1.078-.216 1.079.648.864 1.511 1.079 0 0 .216 1.727.216 1.943.216 1.081-.432 1.727-.432 2.807 0 .648 0 1.727.432 2.159h.216c.216 0 .432-.216.864-.432.648-.432 1.296-1.079 1.943-1.511.649-.432 1.296-1.079 1.728-1.511.648-.432 1.079-1.295 1.295-1.944.216-.432.956-1.704.739-2.351-.017-.034-.039-.094-.06-.147A19.182 19.182 0 0 0 20 1z"/>
  <path fill="#bae0bd" d="M14.488 37.641a18.47 18.47 0 0 1-3.237-1.356.911.911 0 0 0-.056-.075c-.021-.184-.056-.44-.093-.697-.049-.342-.1-.684-.103-.795l-.002-.075-.023-.081c-.106-.318-.212-.69-.318-1.062-.109-.384-.22-.769-.329-1.098-.148-.374-.329-.72-.514-1.073-.372-.711-.757-1.447-.757-2.223 0-.211.009-.422.018-.632.034-.858.07-1.745-.443-2.539h4.165c.14.044.295.089.458.136.466.134 1.093.314 1.37.531.061.143.099.294.141.465.057.227.121.485.254.75l.036.072.058.058c.881.882 1.876 1.122 2.839 1.354.339.082.684.164 1.027.279.181.096.204.165.331.546.162.486-.017 1.219-.188 1.562l-.136.402c-.159.505-.358 1.135-.635 1.41-.375.376-.759.568-1.165.771-.505.332-.85.786-1.183 1.225-.213.28-.433.57-.675.812l-.146.146v.207a7.77 7.77 0 0 1-.694.98zM7.16 24.809a10.828 10.828 0 0 0-.979-.345c-.478-.152-.929-.295-1.211-.506-1.352-.901-2.527-2.151-3.091-3.278a9.173 9.173 0 0 0-.376-.575L1.5 20c0-5.098 1.993-9.825 5.616-13.325 1.803-.598 3.756-.967 5.12-.967.473 0 .856.043 1.143.129a4.152 4.152 0 0 1 1.518.953c.349.349.933.933.933 1.375l.001.008-.07.07c-.063.063-.093.07-.294.07-.542 0-1.101 0-1.438-.134l-.882-.882-.112-.037a1.39 1.39 0 0 0-.441-.071c-1.634 0-3.428 2.749-3.656 3.661-.155.462-.246 1.474.185 2.215.24.414.608.681 1.066.772h.019c.677 0 1.359-.524 2.257-1.261.264-.217.505-.417.69-.54.184-.088.361-.206.539-.324.127-.084.253-.169.41-.253.062-.005.122-.008.182-.008 1.334 0 2.307 1.277 2.646 2.464a.804.804 0 0 1-.023.675c-.413.866-2.1 1.688-3.541 2.167a.362.362 0 0 1-.117.021c-.046 0-.078-.011-.106-.02a1.38 1.38 0 0 0-.449-.088c-.16 0-.318.039-.471.114-1.256.5-2.652 1.979-2.652 3.47-.079.357-.131.771-.175 1.19-.173-.33-.425-.604-.776-.756-.227-.216-.361-.288-.713-.288-.152 0-.347-.073-.553-.15-.268-.1-.57-.214-.904-.214a1.36 1.36 0 0 0-.764.232c-.38.366-1.086 1.177-1.086 2.144 0 .239 0 .64.363 1.001l.057.056.071.036a1.1 1.1 0 0 0 .499.116c.187 0 .351-.041.496-.078.097-.024.189-.047.253-.047l.104.053.095.005c.005.053.005.118.005.152v.151a84.437 84.437 0 0 0 .615.952z"/>
  <path fill="#5e9c76" d="M12.236 6.208c.528 0 .835.059.972.1.453.15.977.479 1.335.836.124.124.413.413.604.668-.315-.004-.646-.017-.849-.069l-.716-.716-.167-.167-.224-.075a1.89 1.89 0 0 0-.6-.096c-1.958 0-3.843 2.98-4.13 3.997-.224.703-.248 1.814.226 2.63.314.541.799.891 1.401 1.011l.097.019h.099c.753 0 1.477-.548 2.495-1.385.233-.191.454-.373.608-.481.239-.125.42-.246.582-.353.095-.064.182-.121.276-.176h.037c1.027 0 1.867 1.057 2.165 2.102l.011.039.014.038c.028.075.033.136-.019.245-.278.582-1.562 1.34-3.203 1.893a1.788 1.788 0 0 0-.56-.098c-.223 0-.442.049-.651.146-1.436.588-2.909 2.161-2.97 3.832l-.035.192a1.803 1.803 0 0 0-.138-.074c-.282-.256-.523-.366-.986-.366-.065-.001-.253-.072-.378-.118-.292-.11-.656-.246-1.08-.246-.375 0-.726.106-1.04.316l-.082.055-.07.07c-.348.348-1.156 1.281-1.156 2.435 0 .067 0 .152.007.249-.778-.693-1.42-1.479-1.783-2.206l-.017-.035-.02-.033A10.413 10.413 0 0 0 2 19.942c.015-4.9 1.923-9.444 5.381-12.828 1.726-.561 3.568-.906 4.855-.906m.483 20.227c.124.038.257.077.396.117.286.082.831.239 1.096.378.024.077.045.163.069.259.06.24.135.538.292.852l.073.145.115.115c.981.982 2.093 1.25 3.075 1.487.316.076.617.149.91.242.023.049.061.163.092.256.106.319-.022.901-.161 1.178l-.032.064-.023.068c-.037.11-.073.225-.111.344-.128.406-.322 1.019-.512 1.209-.317.318-.634.476-1.035.676l-.056.028-.052.035c-.521.348-.892.835-1.25 1.307-.212.279-.412.543-.63.761l-.293.293v.236c-.08.148-.231.382-.371.574a17.958 17.958 0 0 1-2.644-1.119 83.821 83.821 0 0 0-.07-.497c-.037-.259-.093-.649-.098-.722v-.162l-.051-.154c-.104-.312-.208-.677-.312-1.041-.112-.391-.224-.783-.336-1.119l-.009-.028-.011-.028c-.151-.377-.34-.739-.523-1.089-.36-.689-.7-1.34-.7-1.992 0-.204.008-.408.017-.611.026-.65.055-1.359-.166-2.06h3.311m-.483-21.229c-1.514 0-3.601.427-5.386 1.029C3.24 9.685 1 14.553 1 20c0 .091.009.18.01.271.154.218.302.432.422.632.648 1.295 1.943 2.592 3.239 3.454.864.648 2.591.648 3.454 1.727.648.865.432 1.943.432 3.023 0 1.295.864 2.375 1.295 3.453.216.649.432 1.512.648 2.16 0 .216.216 1.511.216 1.727.069.035.126.114.177.212a18.914 18.914 0 0 0 3.657 1.524h.002c.014 0 .03-.008.044-.008l.007.001c.216 0 1.08-1.296 1.08-1.512.648-.648 1.079-1.511 1.727-1.943.432-.216.864-.432 1.295-.865.432-.432.648-1.295.864-1.943.216-.431.432-1.294.216-1.942-.137-.41-.216-.648-.648-.864-1.295-.432-2.591-.432-3.67-1.512-.216-.432-.216-.864-.432-1.295-.432-.432-1.511-.648-2.159-.864H8.557c-.648-.216-1.079-1.08-1.511-1.727 0-.216 0-.649-.432-.649a.603.603 0 0 0-.273-.062c-.249 0-.499.125-.748.125a.6.6 0 0 1-.275-.063c-.216-.215-.216-.432-.216-.647 0-.649.432-1.296.864-1.728a.85.85 0 0 1 .486-.148c.486 0 .971.364 1.457.364.216 0 .216 0 .432.216.648.216.864 1.079.864 1.728v.432c0 .216.216.216.432.216.216-1.079.216-2.16.432-3.239 0-1.295 1.295-2.592 2.375-3.023a.549.549 0 0 1 .248-.062c.208 0 .374.125.582.125a.549.549 0 0 0 .25-.063c1.295-.432 4.534-1.727 3.886-3.453-.404-1.415-1.564-2.827-3.126-2.827-.108 0-.217.007-.328.021-.432.217-.648.432-1.079.649-.648.432-1.943 1.727-2.591 1.727-1.079-.216-1.079-1.727-.864-2.376.201-.803 1.893-3.282 3.171-3.282.097 0 .192.014.284.045l.864.864c.432.216 1.08.216 1.727.216.216 0 .432 0 .648-.216.216-.216.216-.216.216-.432 0-.648-.648-1.296-1.08-1.728a4.677 4.677 0 0 0-1.727-1.078c-.346-.106-.786-.153-1.289-.153z"/>
  <path fill="#7496c4" d="M20 2c10.093 0 18 7.907 18 18 0 9.925-8.075 18-18 18S2 29.925 2 20C2 9.907 9.907 2 20 2m0-1C9.422 1 1 9.422 1 20s8.619 19 19 19c10.382 0 19-8.422 19-19S30.578 1 20 1z"/>
</svg>
