<svg xmlns="http://www.w3.org/2000/svg" viewBox="0 0 48 48">
  <path fill="#FF3D00" d="M24 5C13.5 5 5 13.5 5 24s8.5 19 19 19 19-8.5 19-19S34.5 5 24 5z"/>
  <path fill="#FFF" d="M24 9C15.7 9 9 15.7 9 24s6.7 15 15 15 15-6.7 15-15S32.3 9 24 9zm0 26c-6.1 0-11-4.9-11-11s4.9-11 11-11 11 4.9 11 11-4.9 11-11 11zm0-18c-3.9 0-7 3.1-7 7s3.1 7 7 7 7-3.1 7-7-3.1-7-7-7zm0 10c-1.7 0-3-1.3-3-3s1.3-3 3-3 3 1.3 3 3-1.3 3-3 3z"/>
  <path fill="#1976D2" d="M43 9s-.6 2.3-2.2 3.8c-1.6 1.6-8 2.4-8 2.4s.8-6.5 2.4-8C36.7 5.6 39 5 39 5v4h4z"/>
  <path fill="#37474F" d="M42.7 5.3c-.4-.4-1-.4-1.4 0l-18 18c-.4.4-.4 1 0 1.4.2.2.5.3.7.3s.5-.1.7-.3l18-18c.4-.4.4-1 0-1.4z"/>
  <path fill="#42A5F5" d="M38.978 7.728l1.414 1.414-5.869 5.869-1.414-1.414z"/>
</svg>
