<svg xmlns="http://www.w3.org/2000/svg" viewBox="0 0 40 40">
  <path fill="#ffcfcf" d="M20.014 35.424C17.823 34.082 1.5 23.78 1.5 15c0-4.593 2.233-9.5 8.5-9.5 4.515 0 7.978 3.102 9.571 5.757l.429.715.429-.714C22.099 8.474 25.49 5.5 30 5.5c5.872 0 8.5 4.771 8.5 9.5 0 9.929-16.274 19.209-18.486 20.424z"/>
  <path fill="#f7a3a3" d="M30 6c5.526 0 8 4.52 8 9 0 9.333-15.036 18.202-17.973 19.845C17.112 33.034 2 23.245 2 15c0-4.351 2.102-9 8-9 4.306 0 7.616 2.971 9.143 5.515L20 12.944l.857-1.429C22.457 8.849 25.699 6 30 6m0-1c-4.643 0-8.212 3.02-10 6-1.788-2.98-5.428-6-10-6-6.106 0-9 4.609-9 10 0 9.761 19 21 19 21s19-9.976 19-21c0-5.333-3.072-10-9-10z"/>
</svg>
