<?xml version="1.0" encoding="UTF-8"?>
<svg xmlns="http://www.w3.org/2000/svg" xmlns:xlink="http://www.w3.org/1999/xlink" viewBox="0 0 50 50" version="1.1" fill="#12529e"><g id="surface1" fill="#12529e"><path style=" " d="M 34.84375 7.9375 C 33.699219 7.9375 32.679688 8.429688 31.40625 9 L 31.40625 8.96875 C 29.273438 9.882813 24.6875 12 24.6875 12 L 4 12 C 1.800781 12 0 13.800781 0 16 L 0 35 C 0 37.199219 1.800781 39 4 39 L 33 39 C 34.007813 39 34.90625 38.640625 35.59375 38.0625 C 37.449219 38.738281 39.140625 39 41.3125 39 C 42.847656 39 44.519531 38.59375 46 38.15625 C 47.480469 37.71875 48.769531 37.242188 49.3125 37.0625 C 49.730469 36.925781 50.007813 36.53125 50 36.09375 L 50 21.8125 C 49.996094 21.554688 49.898438 21.308594 49.71875 21.125 C 49.71875 21.125 42.648438 13.640625 39.5 10.59375 C 37.898438 8.992188 36.699219 8.136719 35.34375 7.96875 C 35.175781 7.949219 35.007813 7.9375 34.84375 7.9375 Z M 34.5625 9.9375 C 34.75 9.910156 34.933594 9.917969 35.09375 9.9375 C 35.738281 10.019531 36.597656 10.503906 38.09375 12 C 38.09375 12.011719 38.09375 12.019531 38.09375 12.03125 C 41.058594 14.902344 47.632813 21.828125 48 22.21875 L 48 35.375 C 47.3125 35.617188 46.539063 35.925781 45.4375 36.25 C 44.042969 36.664063 42.476563 37 41.3125 37 C 38.988281 37 37.546875 36.769531 35.5625 35.9375 C 33.582031 35.109375 31.046875 33.609375 26.8125 31.21875 C 26.804688 31.214844 26.789063 31.222656 26.78125 31.21875 C 25.484375 30.472656 24.230469 29.726563 23.5625 29.03125 C 23.226563 28.679688 23.058594 28.371094 23 28.09375 C 22.941406 27.816406 22.945313 27.527344 23.1875 27.0625 C 23.597656 26.246094 24.007813 26.050781 24.96875 26 C 25.929688 25.949219 27.375 26.210938 29.15625 26.65625 C 32.488281 27.464844 37.28125 28.46875 37.28125 28.46875 C 37.644531 28.597656 38.050781 28.503906 38.324219 28.234375 C 38.59375 27.960938 38.6875 27.554688 38.558594 27.191406 C 38.429688 26.828125 38.101563 26.570313 37.71875 26.53125 C 37.71875 26.53125 37.144531 26.40625 37 26.375 L 37 16 C 37 13.800781 35.199219 12 33 12 L 29.53125 12 C 30.488281 11.570313 31.523438 11.097656 32.1875 10.8125 C 32.199219 10.8125 32.207031 10.8125 32.21875 10.8125 C 33.304688 10.328125 34.003906 10.019531 34.5625 9.9375 Z M 12.5 18 C 14.300781 18 15.90625 19.292969 15.90625 21.59375 C 15.90625 23.09375 15.085938 24.59375 14.1875 25.59375 C 13.789063 26.695313 14.398438 27.3125 14.5 27.3125 C 16.5 28.011719 18 29.199219 18 30.5 L 18 31 C 18 32.699219 15.5 33.09375 12.5 33.09375 C 9.5 33.09375 7 32.699219 7 31 L 7 30.5 C 7 29.199219 8.507813 28.011719 10.40625 27.3125 C 10.507813 27.210938 11.210938 26.59375 10.8125 25.59375 C 9.8125 24.695313 9.09375 23.09375 9.09375 21.59375 C 9.09375 19.195313 10.699219 18 12.5 18 Z " fill="#12529e"/></g></svg>
