<svg xmlns="http://www.w3.org/2000/svg" viewBox="0 0 40 40">
  <path fill="#ffc49c" d="M.486 31.5v-13h12v-7h15v9h12v11z"/>
  <path d="M26.986 12v9h12v10h-38V19h12v-7h14m1-1h-16v7h-12v14h40V20h-12v-9z" fill="#b08159"/>
  <path d="M27.5 20.5v-3h11.152c.459 0 .833.374.833.833V20.5H27.5z" fill="#99c99e"/>
  <path d="M38.652 18c.181 0 .333.153.333.333V20H28v-2h10.652m0-1H27v4h12.986v-2.667c0-.733-.6-1.333-1.334-1.333z" fill="#5e9c76"/>
  <path d="M.486 18.5v-2.167c0-.459.374-.833.833-.833H12.5v3H.486z" fill="#8bb7f0"/>
  <path d="M12 16v2H.986v-1.667c0-.18.152-.333.333-.333H12m1-1H1.319c-.733 0-1.333.6-1.333 1.333V19H13v-4z" fill="#4e7ab5"/>
  <path d="M12.486 11.5V9.333c0-.459.374-.833.833-.833h13.333c.459 0 .833.374.833.833V11.5H12.486z" fill="#f78f8f"/>
  <path d="M26.652 9c.181 0 .333.153.333.333V11h-14V9.333A.335.335 0 0 1 13.319 9h13.333m0-1H13.319c-.736 0-1.333.597-1.333 1.333V12h16V9.333c0-.733-.6-1.333-1.334-1.333z" fill="#c74343"/>
  <path d="M21 15v8h-1.333v-6.156c-.219.156-.329.289-.581.398s-.43.206-.753.289v-1.396c.201-.066.286-.135.474-.208a6.64 6.64 0 0 0 .555-.245A7.772 7.772 0 0 0 20.49 15H21zM9 29H4v-.609c0-.249.036-.482.106-.7.069-.217.164-.422.283-.615a3.47 3.47 0 0 1 .417-.543c.158-.17.331-.335.511-.494.181-.159.367-.313.556-.461.189-.148.375-.297.556-.447.169-.143.325-.283.467-.42.142-.137.261-.279.361-.425.1-.146.178-.301.233-.464a1.62 1.62 0 0 0 .083-.529c0-.209-.033-.39-.097-.546-.064-.156-.156-.285-.272-.39s-.256-.183-.414-.236a1.638 1.638 0 0 0-.522-.08c-.325 0-.658.075-.994.225s-.663.377-.974.676v-1.224a4.22 4.22 0 0 1 .494-.316 3.214 3.214 0 0 1 1.078-.359c.197-.029.406-.043.628-.043.358 0 .686.047.978.14.292.093.542.23.75.412.208.181.367.407.481.678.114.271.169.582.169.933 0 .318-.039.604-.119.859a2.8 2.8 0 0 1-.339.711c-.147.219-.322.428-.531.626s-.439.401-.694.609c-.214.172-.428.34-.642.502a8.233 8.233 0 0 0-.575.477 2.79 2.79 0 0 0-.414.466.827.827 0 0 0-.158.469v.027H9V29zM31 29.584v-1.177a2.984 2.984 0 0 0 1.822.599c.551 0 .989-.117 1.318-.351.329-.234.493-.551.493-.95 0-.878-.718-1.317-2.151-1.317h-.64v-1.004h.611c1.272 0 1.909-.414 1.909-1.242 0-.763-.496-1.144-1.488-1.144-.554 0-1.076.186-1.563.556v-1.112c.563-.294 1.226-.442 1.99-.442.735 0 1.324.173 1.765.518.441.345.663.788.663 1.328 0 1.018-.554 1.673-1.661 1.965v.022c.597.054 1.067.249 1.413.586.346.336.519.756.519 1.26 0 .694-.28 1.255-.836 1.682-.557.426-1.292.639-2.203.639-.819 0-1.474-.138-1.961-.416z" fill="#b08159"/>
</svg>
