<?xml version="1.0" encoding="UTF-8"?>
<svg xmlns="http://www.w3.org/2000/svg" xmlns:xlink="http://www.w3.org/1999/xlink" viewBox="0 0 50 50" version="1.1" fill="#12529e"><g id="surface1" fill="#12529e"><path style=" " d="M 23 2 C 9 2 3 11.5 3 22 C 3 26.199219 4.300781 30.101563 6.5 33.300781 C 8.699219 36.5 10 40.300781 10 44.199219 L 10 49 L 32 49 L 32 44.699219 L 35.097656 44.902344 C 39.398438 45.300781 43 41.898438 43 37.597656 L 43 32.199219 L 47 30.199219 C 47.898438 29.699219 48.199219 28.597656 47.699219 27.699219 L 43 19.597656 C 41.898438 10.300781 37 2 23 2 Z M 27 8 L 29 8 L 29 10.101563 C 29.636719 10.230469 30.230469 10.484375 30.753906 10.832031 L 32.242188 9.34375 L 33.65625 10.757813 L 32.167969 12.246094 C 32.515625 12.769531 32.769531 13.363281 32.898438 14 L 35 14 L 35 16 L 32.898438 16 C 32.769531 16.636719 32.515625 17.230469 32.167969 17.753906 L 33.65625 19.242188 L 32.242188 20.65625 L 30.753906 19.167969 C 30.230469 19.515625 29.636719 19.769531 29 19.898438 L 29 22 L 27 22 L 27 19.898438 C 26.363281 19.769531 25.769531 19.515625 25.246094 19.167969 L 23.757813 20.65625 L 22.34375 19.242188 L 23.832031 17.753906 C 23.484375 17.230469 23.230469 16.636719 23.101563 16 L 21 16 L 21 14 L 23.101563 14 C 23.230469 13.363281 23.484375 12.769531 23.832031 12.246094 L 22.34375 10.757813 L 23.757813 9.34375 L 25.246094 10.832031 C 25.769531 10.484375 26.363281 10.230469 27 10.101563 Z M 28 12 C 26.34375 12 25 13.34375 25 15 C 25 16.65625 26.34375 18 28 18 C 29.65625 18 31 16.65625 31 15 C 31 13.34375 29.65625 12 28 12 Z M 15 16 L 17 16 L 17 18.101563 C 17.636719 18.230469 18.230469 18.484375 18.753906 18.832031 L 20.242188 17.34375 L 21.65625 18.757813 L 20.167969 20.246094 C 20.515625 20.769531 20.769531 21.363281 20.898438 22 L 23 22 L 23 24 L 20.898438 24 C 20.769531 24.636719 20.515625 25.230469 20.167969 25.753906 L 21.65625 27.242188 L 20.242188 28.65625 L 18.753906 27.167969 C 18.230469 27.515625 17.636719 27.769531 17 27.898438 L 17 30 L 15 30 L 15 27.898438 C 14.363281 27.769531 13.769531 27.515625 13.246094 27.167969 L 11.757813 28.65625 L 10.34375 27.242188 L 11.832031 25.753906 C 11.484375 25.230469 11.230469 24.636719 11.101563 24 L 9 24 L 9 22 L 11.101563 22 C 11.230469 21.363281 11.484375 20.769531 11.832031 20.246094 L 10.34375 18.757813 L 11.757813 17.34375 L 13.246094 18.832031 C 13.769531 18.484375 14.363281 18.230469 15 18.101563 Z M 16 20 C 14.34375 20 13 21.34375 13 23 C 13 24.65625 14.34375 26 16 26 C 17.65625 26 19 24.65625 19 23 C 19 21.34375 17.65625 20 16 20 Z " fill="#12529e"/></g></svg>
