<svg xmlns="http://www.w3.org/2000/svg" viewBox="0 0 40 40">
  <path d="M26.555 20.404a7.01 7.01 0 0 1-4.995-2.06 7.014 7.014 0 0 1-2.06-4.995c0-1.893.732-3.667 2.06-4.995l4.858-4.791A7.01 7.01 0 0 1 31.416 1.5a7.01 7.01 0 0 1 4.995 2.06 7.014 7.014 0 0 1 2.06 4.995 7.014 7.014 0 0 1-2.06 4.995l-4.858 4.791a7.016 7.016 0 0 1-4.998 2.063zM31.445 4.5a4.032 4.032 0 0 0-2.874 1.181l-4.858 4.792c-.764.764-1.184 1.784-1.184 2.876a4.032 4.032 0 0 0 4.055 4.055 4.032 4.032 0 0 0 2.874-1.181l4.858-4.792c.764-.764 1.184-1.785 1.184-2.876A4.034 4.034 0 0 0 31.445 4.5z" fill="#8bb7f0"/>
  <path d="M31.415 2c1.759 0 3.408.68 4.642 1.913a6.515 6.515 0 0 1 1.913 4.641c0 1.759-.68 3.408-1.909 4.637l-4.865 4.799a6.516 6.516 0 0 1-4.642 1.913 6.522 6.522 0 0 1-4.642-1.913C20.68 16.756 20 15.108 20 13.349s.68-3.408 1.909-4.637l4.865-4.799A6.52 6.52 0 0 1 31.415 2m-4.83 15.904a4.526 4.526 0 0 0 3.223-1.323l4.865-4.799A4.533 4.533 0 0 0 36 8.555a4.526 4.526 0 0 0-1.328-3.227A4.53 4.53 0 0 0 31.445 4a4.522 4.522 0 0 0-3.222 1.323l-4.865 4.799a4.53 4.53 0 0 0-1.328 3.227c0 1.225.471 2.371 1.328 3.227a4.528 4.528 0 0 0 3.227 1.328M31.415 1a7.54 7.54 0 0 0-5.349 2.206L21.206 8c-2.942 2.942-2.942 7.756 0 10.697a7.54 7.54 0 0 0 5.349 2.206 7.54 7.54 0 0 0 5.349-2.206l4.86-4.794c2.942-2.942 2.942-7.756 0-10.697A7.54 7.54 0 0 0 31.415 1zm-4.83 15.904a3.533 3.533 0 0 1-3.555-3.555c0-.958.367-1.853 1.035-2.52l4.86-4.794A3.533 3.533 0 0 1 31.445 5 3.533 3.533 0 0 1 35 8.555c0 .958-.367 1.853-1.035 2.52l-4.86 4.794a3.538 3.538 0 0 1-2.52 1.035z" fill="#4e7ab5"/>
  <path d="M8.555 38.5a7.01 7.01 0 0 1-4.995-2.06 7.014 7.014 0 0 1-2.06-4.995c0-1.893.732-3.667 2.06-4.995l4.89-4.89c1.328-1.329 3.102-2.06 4.995-2.06s3.667.731 4.995 2.06a7.014 7.014 0 0 1 2.06 4.995 7.014 7.014 0 0 1-2.06 4.995l-4.89 4.89a7.01 7.01 0 0 1-4.995 2.06zm4.92-16a4.032 4.032 0 0 0-2.874 1.181l-4.89 4.89c-.762.761-1.181 1.782-1.181 2.874A4.032 4.032 0 0 0 8.584 35.5a4.034 4.034 0 0 0 2.874-1.181l4.89-4.89c.762-.761 1.181-1.782 1.181-2.874a4.032 4.032 0 0 0-4.054-4.055z" fill="#8bb7f0"/>
  <path d="M13.445 20c1.759 0 3.408.68 4.642 1.913A6.522 6.522 0 0 1 20 26.555c0 1.759-.68 3.408-1.913 4.642l-4.89 4.89A6.522 6.522 0 0 1 8.555 38a6.522 6.522 0 0 1-4.642-1.913C2.68 34.853 2 33.204 2 31.445s.68-3.408 1.913-4.642l4.89-4.89A6.522 6.522 0 0 1 13.445 20m-4.86 16a4.526 4.526 0 0 0 3.227-1.328l4.89-4.89a4.53 4.53 0 0 0 1.328-3.227 4.526 4.526 0 0 0-1.328-3.227A4.526 4.526 0 0 0 13.475 22a4.526 4.526 0 0 0-3.227 1.328l-4.89 4.89a4.526 4.526 0 0 0-1.328 3.227c0 1.225.471 2.371 1.328 3.227A4.524 4.524 0 0 0 8.585 36m4.86-17a7.54 7.54 0 0 0-5.349 2.206l-4.89 4.89c-2.942 2.942-2.942 7.756 0 10.697A7.538 7.538 0 0 0 8.555 39a7.54 7.54 0 0 0 5.349-2.206l4.89-4.89c2.942-2.942 2.942-7.756 0-10.697A7.538 7.538 0 0 0 13.445 19zm-4.86 16a3.533 3.533 0 0 1-3.555-3.555c0-.958.367-1.853 1.035-2.52l4.89-4.89A3.533 3.533 0 0 1 13.475 23a3.533 3.533 0 0 1 3.555 3.555c0 .958-.367 1.853-1.035 2.52l-4.89 4.89A3.534 3.534 0 0 1 8.585 35z" fill="#4e7ab5"/>
  <g>
    <path d="M14.879 26.5c-.491 0-.928-.243-1.2-.667-.348-.541-.23-1.303.278-1.812l10.029-10.029a1.606 1.606 0 0 1 1.124-.474 1.3 1.3 0 0 1 .769.242c.346.25.555.619.587 1.037.033.412-.116.816-.408 1.108L15.876 26.087a1.4 1.4 0 0 1-.997.413z" fill="#8bb7f0"/>
    <path d="M25.11 14.018c.18 0 .34.05.475.147a.911.911 0 0 1 .119 1.386L15.522 25.734a.906.906 0 0 1-.642.266.918.918 0 0 1-.78-.437c-.218-.34-.127-.85.211-1.188l10.029-10.03c.205-.205.493-.327.77-.327m0-1c-.537 0-1.079.222-1.477.62L13.604 23.667c-.644.644-.837 1.669-.345 2.436a1.912 1.912 0 0 0 2.971.338l10.182-10.182a1.91 1.91 0 0 0-.24-2.904 1.798 1.798 0 0 0-1.062-.337z" fill="#4e7ab5"/>
  </g>
</svg>
