<svg xmlns="http://www.w3.org/2000/svg" viewBox="0 0 40 40">
  <path d="M20.207 38.5a18.527 18.527 0 0 1-13.799-6.178c-3.557-3.979-5.183-9.12-4.579-14.476.937-8.303 7.623-15.111 15.899-16.184a19.35 19.35 0 0 1 2.48-.162 18.476 18.476 0 0 1 17.554 12.646c.342 1.022 1.021 3.589-.031 5.315-.545.894-1.511 1.453-2.869 1.664-.514.079-1.457.199-2.554.33a6.785 6.785 0 0 0-4.673 2.747 6.764 6.764 0 0 0-1.153 5.284l.215 1.077a6.61 6.61 0 0 1-1.369 5.501 6.617 6.617 0 0 1-5.121 2.436zM19 27.5c-1.93 0-3.5 1.57-3.5 3.5s1.57 3.5 3.5 3.5 3.5-1.57 3.5-3.5-1.57-3.5-3.5-3.5z" fill="#f5c276"/>
  <path d="M20.208 2a17.978 17.978 0 0 1 17.08 12.304c.249.747.985 3.306.015 4.898-.471.773-1.295 1.24-2.519 1.43-.456.071-1.309.181-2.536.328a7.288 7.288 0 0 0-5.019 2.949 7.271 7.271 0 0 0-1.239 5.677l.215 1.077a6.114 6.114 0 0 1-1.267 5.087 6.111 6.111 0 0 1-4.732 2.251A18.03 18.03 0 0 1 6.779 31.99c-3.46-3.872-5.043-8.875-4.455-14.086.913-8.08 7.417-14.702 15.468-15.747A18.882 18.882 0 0 1 20.208 2M19 35c2.206 0 4-1.794 4-4s-1.794-4-4-4-4 1.794-4 4 1.794 4 4 4m1.208-34c-.837 0-1.686.054-2.545.166C9.13 2.273 2.297 9.24 1.332 17.791.038 29.273 8.987 39 20.208 39c4.495-.011 7.861-4.126 6.979-8.534l-.215-1.077c-.716-3.578 1.773-7.003 5.396-7.437a91.964 91.964 0 0 0 2.57-.332c5.014-.777 3.93-5.743 3.3-7.632C35.721 6.441 28.599 1 20.208 1zM19 34a3 3 0 1 1 0-6 3 3 0 0 1 0 6z" fill="#c29653"/>
  <circle cx="9.5" cy="24.5" r="3" fill="#f78f8f"/>
  <path d="M9.5 22c1.379 0 2.5 1.121 2.5 2.5S10.879 27 9.5 27 7 25.878 7 24.5 8.121 22 9.5 22m0-1a3.5 3.5 0 1 0 0 7 3.5 3.5 0 0 0 0-7z" fill="#c74343"/>
  <circle cx="9.5" cy="14.5" r="3" fill="#ffeea3"/>
  <path d="M9.5 12c1.379 0 2.5 1.121 2.5 2.5S10.879 17 9.5 17 7 15.879 7 14.5 8.121 12 9.5 12m0-1a3.5 3.5 0 1 0 0 7 3.5 3.5 0 0 0 0-7z" fill="#ba9b48"/>
  <g>
    <circle cx="17.5" cy="8.5" r="3" fill="#bae0bd"/>
    <path d="M17.5 6C18.879 6 20 7.121 20 8.5S18.879 11 17.5 11 15 9.879 15 8.5 16.121 6 17.5 6m0-1a3.5 3.5 0 1 0 0 7 3.5 3.5 0 0 0 0-7z" fill="#5e9c76"/>
  </g>
  <g>
    <circle cx="27.5" cy="10.5" r="3" fill="#8bb7f0"/>
    <path d="M27.5 8c1.379 0 2.5 1.121 2.5 2.5S28.879 13 27.5 13 25 11.879 25 10.5 26.121 8 27.5 8m0-1a3.5 3.5 0 1 0 0 7 3.5 3.5 0 0 0 0-7z" fill="#4e7ab5"/>
  </g>
</svg>
