<svg xmlns="http://www.w3.org/2000/svg" viewBox="0 0 40 40">
  <path fill="#f78f8f" d="M1.5 16.5h11v8h-11z">
</path>
  <path d="M12 17v7H2v-7h10m1-1H1v9h12v-9z" fill="#c74343">
</path>
  <path fill="#8bb7f0" d="M27.5 16.5h11v8h-11z">
</path>
  <path d="M38 17v7H28v-7h10m1-1H27v9h12v-9z" fill="#4e7ab5">
</path>
  <path fill="#8bb7f0" d="M27.5 30.5h11v8h-11z">
</path>
  <path d="M38 31v7H28v-7h10m1-1H27v9h12v-9z" fill="#4e7ab5">
</path>
  <g>
    <path fill="#8bb7f0" d="M27.5 2.5h11v8h-11z">
</path>
    <path d="M38 3v7H28V3h10m1-1H27v9h12V2z" fill="#4e7ab5">
</path>
  </g>
  <path fill="#66798f" d="M13 21v-1h14v1z">
</path>
  <path fill="#66798f" d="M27 7V6h-8v29h8v-1h-7V7z">
</path>
</svg>
