<svg xmlns="http://www.w3.org/2000/svg" viewBox="0 0 40 40">
  <path fill="#b0c1d4" d="M16 32.5a2.503 2.503 0 0 1-2.5-2.5V4c0-1.378 1.122-2.5 2.5-2.5h19c1.378 0 2.5 1.122 2.5 2.5v26c0 1.378-1.122 2.5-2.5 2.5H16z"/>
  <path fill="#66798f" d="M35 2c1.103 0 2 .897 2 2v26c0 1.103-.897 2-2 2H16c-1.103 0-2-.897-2-2V4c0-1.103.897-2 2-2h19m0-1H16a3 3 0 0 0-3 3v26a3 3 0 0 0 3 3h19a3 3 0 0 0 3-3V4a3 3 0 0 0-3-3z"/>
  <circle cx="30.5" cy="15.5" r="1.5" fill="#fff"/>
  <circle cx="25.5" cy="15.5" r="1.5" fill="#fff"/>
  <circle cx="20.5" cy="15.5" r="1.5" fill="#fff"/>
  <circle cx="30.5" cy="20.5" r="1.5" fill="#fff"/>
  <circle cx="25.5" cy="20.5" r="1.5" fill="#fff"/>
  <circle cx="20.5" cy="20.5" r="1.5" fill="#fff"/>
  <circle cx="30.5" cy="25.5" r="1.5" fill="#fff"/>
  <circle cx="25.5" cy="25.5" r="1.5" fill="#fff"/>
  <circle cx="20.5" cy="25.5" r="1.5" fill="#fff"/>
  <path fill="#b0c1d4" d="M5 32.5A2.503 2.503 0 0 1 2.5 30v-4.343c0-.935.364-1.813 1.025-2.475l.975-.975V11.793l-.975-.975A3.477 3.477 0 0 1 2.5 8.343V4c0-1.378 1.122-2.5 2.5-2.5h6c1.378 0 2.5 1.122 2.5 2.5v4.343c0 .935-.364 1.813-1.025 2.475l-.975.975v10.414l.975.975a3.477 3.477 0 0 1 1.025 2.475V30c0 1.378-1.122 2.5-2.5 2.5H5z"/>
  <path fill="#66798f" d="M11 2c1.103 0 2 .897 2 2v4.343c0 .801-.312 1.555-.879 2.121l-.828.828-.293.294v10.828l.293.293.828.828c.567.567.879 1.321.879 2.122V30c0 1.103-.897 2-2 2H5c-1.103 0-2-.897-2-2v-4.343c0-.801.312-1.555.879-2.121l.828-.828.293-.294V11.586l-.293-.293-.828-.828A2.982 2.982 0 0 1 3 8.343V4c0-1.103.897-2 2-2h6m0-1H5a3 3 0 0 0-3 3v4.343c0 1.061.421 2.078 1.172 2.828L4 12v10l-.828.828A4 4 0 0 0 2 25.657V30a3 3 0 0 0 3 3h6a3 3 0 0 0 3-3v-4.343a3.995 3.995 0 0 0-1.172-2.828L12 22V12l.828-.828A4 4 0 0 0 14 8.343V4a3 3 0 0 0-3-3z"/>
  <path fill="#dbf2ff" d="M17.5 5.5h16v5h-16z"/>
  <path fill="#7496c4" d="M33 6v4H18V6h15m1-1H17v6h17V5z"/>
</svg>
