<svg xmlns="http://www.w3.org/2000/svg" viewBox="0 0 40 40">
  <path fill="#8b75a1" d="M8 17h24v1H8z">
</path>
  <path d="M18 26.5c-2.5 0-4.5-2-4.5-4.5V6c0-2.5 2-4.5 4.5-4.5h4c2.5 0 4.5 2 4.5 4.5v16c0 2.5-2 4.5-4.5 4.5h-4z" fill="#dcd5f2">
</path>
  <path d="M22 2c2.2 0 4 1.8 4 4v16c0 2.2-1.8 4-4 4h-4c-2.2 0-4-1.8-4-4V6c0-2.2 1.8-4 4-4h4m0-1h-4c-2.8 0-5 2.2-5 5v16c0 2.8 2.2 5 5 5h4c2.8 0 5-2.2 5-5V6c0-2.8-2.2-5-5-5z" fill="#8b75a1">
</path>
  <path fill="#dcd5f2" d="M18.5 31.5h3v6h-3z">
</path>
  <path d="M21 32v5h-2v-5h2m1-1h-4v7h4v-7z" fill="#8b75a1">
</path>
  <path d="M11.5 38.5V38c0-1.4 1.1-2.5 2.5-2.5h9.5v3h-12z" fill="#dcd5f2">
</path>
  <path d="M23 36v2H12c0-1.1.9-2 2-2h9m1-1H14c-1.7 0-3 1.3-3 3v1h13v-4z" fill="#8b75a1">
</path>
  <circle cx="20" cy="20" r="1" fill="#c74343">
</circle>
  <path fill="#8b75a1" d="M8 16h1v3H8zM31 16h1v3h-1z">
</path>
  <circle cx="16.5" cy="2.5" r=".5" fill="#8b75a1">
</circle>
  <circle cx="18.5" cy="2.5" r=".5" fill="#8b75a1">
</circle>
  <circle cx="20.5" cy="2.5" r=".5" fill="#8b75a1">
</circle>
  <circle cx="22.5" cy="2.5" r=".5" fill="#8b75a1">
</circle>
  <circle cx="17.5" cy="4.5" r=".5" fill="#8b75a1">
</circle>
  <circle cx="19.5" cy="4.5" r=".5" fill="#8b75a1">
</circle>
  <circle cx="21.5" cy="4.5" r=".5" fill="#8b75a1">
</circle>
  <circle cx="23.5" cy="4.5" r=".5" fill="#8b75a1">
</circle>
  <circle cx="25.5" cy="4.5" r=".5" fill="#8b75a1">
</circle>
  <circle cx="15.5" cy="4.5" r=".5" fill="#8b75a1">
</circle>
  <circle cx="16.5" cy="6.5" r=".5" fill="#8b75a1">
</circle>
  <circle cx="18.5" cy="6.5" r=".5" fill="#8b75a1">
</circle>
  <circle cx="20.5" cy="6.5" r=".5" fill="#8b75a1">
</circle>
  <circle cx="22.5" cy="6.5" r=".5" fill="#8b75a1">
</circle>
  <circle cx="24.5" cy="6.5" r=".5" fill="#8b75a1">
</circle>
  <circle cx="14.5" cy="6.5" r=".5" fill="#8b75a1">
</circle>
  <circle cx="17.5" cy="8.5" r=".5" fill="#8b75a1">
</circle>
  <circle cx="19.5" cy="8.5" r=".5" fill="#8b75a1">
</circle>
  <circle cx="21.5" cy="8.5" r=".5" fill="#8b75a1">
</circle>
  <circle cx="23.5" cy="8.5" r=".5" fill="#8b75a1">
</circle>
  <circle cx="25.5" cy="8.5" r=".5" fill="#8b75a1">
</circle>
  <circle cx="15.5" cy="8.5" r=".5" fill="#8b75a1">
</circle>
  <circle cx="16.5" cy="10.5" r=".5" fill="#8b75a1">
</circle>
  <circle cx="18.5" cy="10.5" r=".5" fill="#8b75a1">
</circle>
  <circle cx="20.5" cy="10.5" r=".5" fill="#8b75a1">
</circle>
  <circle cx="22.5" cy="10.5" r=".5" fill="#8b75a1">
</circle>
  <circle cx="24.5" cy="10.5" r=".5" fill="#8b75a1">
</circle>
  <circle cx="14.5" cy="10.5" r=".5" fill="#8b75a1">
</circle>
  <circle cx="16.5" cy="14.5" r=".5" fill="#8b75a1">
</circle>
  <circle cx="18.5" cy="14.5" r=".5" fill="#8b75a1">
</circle>
  <circle cx="20.5" cy="14.5" r=".5" fill="#8b75a1">
</circle>
  <circle cx="22.5" cy="14.5" r=".5" fill="#8b75a1">
</circle>
  <circle cx="24.5" cy="14.5" r=".5" fill="#8b75a1">
</circle>
  <circle cx="14.5" cy="14.5" r=".5" fill="#8b75a1">
</circle>
  <circle cx="17.5" cy="12.5" r=".5" fill="#8b75a1">
</circle>
  <circle cx="19.5" cy="12.5" r=".5" fill="#8b75a1">
</circle>
  <circle cx="21.5" cy="12.5" r=".5" fill="#8b75a1">
</circle>
  <circle cx="23.5" cy="12.5" r=".5" fill="#8b75a1">
</circle>
  <circle cx="25.5" cy="12.5" r=".5" fill="#8b75a1">
</circle>
  <circle cx="15.5" cy="12.5" r=".5" fill="#8b75a1">
</circle>
  <path fill="#8b75a1" d="M13.2 16h13.6v1H13.2zM20 32c-5.5 0-10-4.5-10-10v-4.5h1V22c0 5 4 9 9 9v1z">
</path>
  <path d="M20 32c-5.5 0-10-4.5-10-10v-4.5h1V22c0 5 4 9 9 9v1zM20 32v-1c5 0 9-4 9-9v-4.5h1V22c0 5.5-4.5 10-10 10z" fill="#8b75a1">
</path>
  <g>
    <path fill="#8bb7f0" d="M23.5 22.8L38.9 31l-15.4 8.2z">
</path>
    <path d="M24 23.7L37.9 31 24 38.3V23.7M23 22v18l17-9-17-9z" fill="#4e7ab5">
</path>
  </g>
</svg>
