<svg xmlns="http://www.w3.org/2000/svg" viewBox="0 0 40 40">
  <path fill="#8bb7f0" d="M9.512 26.5c.262-5.559 4.866-10 10.488-10s10.227 4.441 10.488 10H9.512z"/>
  <path fill="#4e7ab5" d="M20 17c5.176 0 9.447 3.954 9.95 9h-19.9c.503-5.046 4.774-9 9.95-9m0-1c-6.075 0-11 4.925-11 11h22c0-6.075-4.925-11-11-11z"/>
  <circle fill="#ffeea3" cx="20" cy="8" r="6.5"/>
  <path fill="#ba9b48" d="M20 2c3.308 0 6 2.692 6 6s-2.692 6-6 6-6-2.692-6-6 2.692-6 6-6m0-1a7 7 0 1 0 0 14 7 7 0 0 0 0-14z"/>
  <path stroke="#788b9c" d="M5.5 24.179v-2.714a5.462 5.462 0 0 1 5.429-5.462" fill="none" stroke-miterlimit="10"/>
  <path fill="#36404d" d="M10 13.999c-.235 0 .235 0 0 0a2 2 0 1 0 0 4c.235 0-.235 0 0 0a2 2 0 1 0 0-4z"/>
  <path fill="#b0c1d4" d="M2.5 24.5h35v4h-35z"/>
  <path fill="#66798f" d="M37 25v3H3v-3h34m1-1H2v5h36v-5z"/>
  <path fill="#b0c1d4" d="M9.647 38.5l-4.849-10h30.404l-4.849 10z"/>
  <path fill="#66798f" d="M34.404 29l-4.364 9H9.96l-4.364-9h28.808M36 28H4l5.333 11h21.333L36 28z"/>
</svg>
