<?xml version="1.0" encoding="utf-8"?>
<!-- Generator: Adobe Illustrator 21.0.2, SVG Export Plug-In . SVG Version: 6.00 Build 0)  -->
<svg xmlns="http://www.w3.org/2000/svg" xmlns:xlink="http://www.w3.org/1999/xlink" version="1.1" id="Layer_1" x="0px" y="0px" viewBox="0 0 40 40" style="enable-background:new 0 0 40 40;" xml:space="preserve">
<path style="fill:#4E7AB5;" d="M32.2,39.4l-0.5-0.8c2.8-1.7,5.1-4.1,6.9-6.9l0.8,0.5C37.5,35.1,35.1,37.5,32.2,39.4z"/>
<path style="fill:#4E7AB5;" d="M1.5,8.3L0.6,7.8c1.8-2.9,4.3-5.4,7.2-7.2l0.5,0.8C5.6,3.2,3.2,5.6,1.5,8.3z"/>
<g>
	<g>
		<path style="fill:#8BB7F0;" d="M20,38.5C9.8,38.5,1.5,30.2,1.5,20S9.8,1.5,20,1.5S38.5,9.8,38.5,20S30.2,38.5,20,38.5z"/>
	</g>
	<g>
		<path style="fill:#4E7AB5;" d="M20,2c9.9,0,18,8.1,18,18s-8.1,18-18,18S2,29.9,2,20S10.1,2,20,2 M20,1C9.5,1,1,9.5,1,20    s8.5,19,19,19s19-8.5,19-19S30.5,1,20,1L20,1z"/>
	</g>
</g>
<g>
	<path style="fill:#FFFFFF;" d="M20,35.5c-8.5,0-15.5-7-15.5-15.5S11.5,4.5,20,4.5s15.5,7,15.5,15.5S28.5,35.5,20,35.5z"/>
	<g>
		<path style="fill:#4E7AB5;" d="M20,5c8.3,0,15,6.7,15,15s-6.7,15-15,15S5,28.3,5,20S11.7,5,20,5 M20,4C11.2,4,4,11.2,4,20    s7.2,16,16,16s16-7.2,16-16S28.8,4,20,4L20,4z"/>
	</g>
</g>
<path style="fill:#66798F;" d="M25.8,26.8c-0.3,0-0.5-0.1-0.7-0.3l-6.4-6.4l7.5-11c0.3-0.5,0.9-0.6,1.4-0.3c0.5,0.3,0.6,0.9,0.3,1.4  l-6.5,9.7l5.3,5.3c0.4,0.4,0.4,1,0,1.4C26.4,26.7,26.1,26.8,25.8,26.8z"/>
<g>
	<circle style="fill:#66798F;" cx="20" cy="20" r="1.5"/>
</g>
<g>
	<circle style="fill:#C5D4DE;" cx="20" cy="7" r="1"/>
</g>
<g>
	<circle style="fill:#C5D4DE;" cx="20" cy="33" r="1"/>
</g>
<g>
	<circle style="fill:#C5D4DE;" cx="33" cy="20" r="1"/>
</g>
<g>
	<circle style="fill:#C5D4DE;" cx="7" cy="20" r="1"/>
</g>
</svg>
