<svg xmlns="http://www.w3.org/2000/svg" viewBox="0 0 40 40">
  <path d="M32.2 39.4l-.5-.8c2.8-1.7 5.1-4.1 6.9-6.9l.8.5c-1.9 2.9-4.3 5.3-7.2 7.2zM1.5 8.3l-.9-.5C2.4 4.9 4.9 2.4 7.8.6l.5.8C5.6 3.2 3.2 5.6 1.5 8.3z" fill="#4e7ab5"/>
  <path d="M20 38.5C9.8 38.5 1.5 30.2 1.5 20S9.8 1.5 20 1.5 38.5 9.8 38.5 20 30.2 38.5 20 38.5z" fill="#8bb7f0"/>
  <path d="M20 2c9.9 0 18 8.1 18 18s-8.1 18-18 18S2 29.9 2 20 10.1 2 20 2m0-1C9.5 1 1 9.5 1 20s8.5 19 19 19 19-8.5 19-19S30.5 1 20 1z" fill="#4e7ab5"/>
  <path d="M20 35.5c-8.5 0-15.5-7-15.5-15.5S11.5 4.5 20 4.5s15.5 7 15.5 15.5-7 15.5-15.5 15.5z" fill="#fff"/>
  <path d="M20 5c8.3 0 15 6.7 15 15s-6.7 15-15 15S5 28.3 5 20 11.7 5 20 5m0-1C11.2 4 4 11.2 4 20s7.2 16 16 16 16-7.2 16-16S28.8 4 20 4z" fill="#4e7ab5"/>
  <path d="M25.8 26.8c-.3 0-.5-.1-.7-.3l-6.4-6.4 7.5-11c.3-.5.9-.6 1.4-.3.5.3.6.9.3 1.4l-6.5 9.7 5.3 5.3c.4.4.4 1 0 1.4-.3.1-.6.2-.9.2z" fill="#66798f"/>
  <circle cx="20" cy="20" r="1.5" fill="#66798f"/>
  <circle cx="20" cy="7" r="1" fill="#c5d4de"/>
  <circle cx="20" cy="33" r="1" fill="#c5d4de"/>
  <g>
    <circle cx="33" cy="20" r="1" fill="#c5d4de"/>
  </g>
  <g>
    <circle cx="7" cy="20" r="1" fill="#c5d4de"/>
  </g>
</svg>
