<?xml version="1.0" encoding="UTF-8"?>
<svg xmlns="http://www.w3.org/2000/svg" xmlns:xlink="http://www.w3.org/1999/xlink" viewBox="0 0 50 50" version="1.1" fill="#12529e"><g id="surface1" fill="#12529e"><path style=" " d="M 25 1 C 18.382813 1 13 6.382813 13 13 L 13 16 L 15 16 L 15 13 C 15 7.484375 19.484375 3 25 3 C 30.515625 3 35 7.484375 35 13 L 35 16 L 37 16 L 37 13 C 37 6.382813 31.617188 1 25 1 Z M 9 18 C 7.347656 18 6 19.347656 6 21 L 6 45 C 6 46.652344 7.347656 48 9 48 L 41 48 C 42.652344 48 44 46.652344 44 45 L 44 21 C 44 19.347656 42.652344 18 41 18 Z M 25 26 C 28.867188 26 32 29.132813 32 33 C 32 36.867188 28.867188 40 25 40 C 21.132813 40 18 36.867188 18 33 C 18 29.132813 21.132813 26 25 26 Z M 25 29 C 22.800781 29 21 30.800781 21 33 C 21 35.199219 22.800781 37 25 37 C 27.199219 37 29 35.199219 29 33 C 29 32.601563 28.914063 32.210938 28.8125 31.8125 C 28.511719 32.511719 27.800781 33 27 33 C 25.898438 33 25 32.101563 25 31 C 25 30.199219 25.488281 29.488281 26.1875 29.1875 C 25.789063 29.085938 25.398438 29 25 29 Z " fill="#12529e"/></g></svg>
