<svg xmlns="http://www.w3.org/2000/svg" viewBox="0 0 40 40">
  <path fill="#c2e8ff" d="M9.5 38.5V27.577l-.728.372A4.931 4.931 0 0 1 6.5 28.5c-2.757 0-5-2.243-5-5s2.243-5 5-5c.794 0 1.559.185 2.272.551l.728.372V9.5h10.924l-.373-.728A4.938 4.938 0 0 1 19.5 6.5c0-2.757 2.243-5 5-5s5 2.243 5 5c0 .795-.186 1.56-.551 2.272l-.373.728H38.5v8.345a5.924 5.924 0 0 0-2-.345c-3.309 0-6 2.691-6 6s2.691 6 6 6c.688 0 1.358-.116 2-.345V38.5h-29z"/>
  <path fill="#8bb7f0" d="M24.5 2C26.981 2 29 4.019 29 6.5c0 .714-.167 1.402-.495 2.044L27.76 10H38v7.175a6.508 6.508 0 0 0-8 6.325 6.508 6.508 0 0 0 8 6.325V38H10V26.76l-1.456.745A4.454 4.454 0 0 1 6.5 28C4.019 28 2 25.981 2 23.5S4.019 19 6.5 19c.714 0 1.402.167 2.044.495L10 20.24V10h11.24l-.745-1.456A4.454 4.454 0 0 1 20 6.5C20 4.019 22.019 2 24.5 2m0-1A5.5 5.5 0 0 0 19 6.5c0 .901.221 1.749.605 2.5H9v9.605A5.474 5.474 0 0 0 6.5 18 5.5 5.5 0 1 0 9 28.395V39h30V28.395a5.474 5.474 0 0 1-2.5.605A5.5 5.5 0 1 1 39 18.605V9h-9.605A5.474 5.474 0 0 0 30 6.5 5.5 5.5 0 0 0 24.5 1z"/>
</svg>
