<svg xmlns="http://www.w3.org/2000/svg" viewBox="0 0 40 40">
  <path fill="#f78f8f" d="M3.293 37.72c.225-2.446.939-7.464 2.295-8.859.838-.861 1.951-1.336 3.134-1.336s2.296.475 3.134 1.336c1.739 1.789 1.739 4.7 0 6.488-1.35 1.389-6.188 2.132-8.563 2.371z"/>
  <path fill="#c74343" d="M8.723 28.024c1.047 0 2.032.421 2.775 1.185 1.552 1.597 1.552 4.195 0 5.791-1.053 1.083-4.853 1.837-7.648 2.158.304-2.894 1.034-6.854 2.099-7.949a3.842 3.842 0 0 1 2.774-1.185m0-1a4.853 4.853 0 0 0-3.492 1.488c-1.929 1.984-2.485 9.759-2.485 9.759s7.54-.589 9.469-2.573 1.929-5.201 0-7.185a4.853 4.853 0 0 0-3.492-1.489z"/>
  <path fill="#ffeea3" d="M9.887 33.302c-.643.661-3.112.823-3.112.823s.141-2.557.784-3.218 1.685-.661 2.328 0 .642 1.734 0 2.395z"/>
  <path fill="#8bb7f0" d="M13.379 35.694c-.304 0-.589-.123-.805-.346l-6.985-7.186a1.226 1.226 0 0 1 0-1.697l4.298-4.421 8.615 8.862-4.317 4.441a1.116 1.116 0 0 1-.806.347z"/>
  <path fill="#4e7ab5" d="M9.887 22.762l7.917 8.146-3.979 4.093c-.121.124-.28.193-.447.193s-.326-.069-.447-.193l-6.984-7.185a.732.732 0 0 1 0-1.001l3.94-4.053m0-1.435l-4.656 4.79a1.728 1.728 0 0 0 0 2.395l6.984 7.185a1.616 1.616 0 0 0 2.328 0l4.656-4.79-9.312-9.58z"/>
  <path fill="#8bb7f0" d="M18.449 34.209L6.696 22.117l-4.128-2.124 4.104-4.222a2.729 2.729 0 0 1 2.513-.785l3.941.812 11.43 11.758.79 4.064a2.943 2.943 0 0 1-.768 2.615l-4.077 4.195-2.052-4.221z"/>
  <path fill="#4e7ab5" d="M8.641 15.431c.148 0 .298.015.444.045l3.791.78 11.218 11.542.762 3.918a2.444 2.444 0 0 1-.636 2.172l-3.581 3.684-1.705-3.508-.07-.145-.112-.115L7.111 21.827l-.114-.117-.146-.075-3.455-1.777L7.03 16.12a2.235 2.235 0 0 1 1.611-.689m0-1a3.25 3.25 0 0 0-2.328.992l-4.574 4.706 4.656 2.395L18.034 34.5l2.328 4.79 4.574-4.706a3.451 3.451 0 0 0 .9-3.059l-.819-4.21-11.64-11.976-4.092-.842a3.192 3.192 0 0 0-.644-.066z"/>
  <path fill="#c2e8ff" d="M5.928 23.722L24.213 4.909c1.51-1.554 5.021-2.409 9.885-2.409 1.458 0 2.663.079 3.263.127.159 1.98.665 10.587-2.225 13.561L16.871 34.979 5.928 23.722z"/>
  <path fill="#7496c4" d="M34.1 3c1.154 0 2.147.05 2.8.094.247 3.361.234 10.32-2.123 12.745L16.871 34.263 6.625 23.722 24.572 5.258C25.987 3.802 29.371 3 34.1 3m0-1c-3.385 0-8.16.415-10.246 2.561L5.231 23.722l11.64 11.976 18.624-19.161c3.462-3.561 2.328-14.371 2.328-14.371S36.239 2 34.1 2z"/>
  <ellipse fill="#8bb7f0" cx="28.431" cy="11.845" rx="3.025" ry="3.127"/>
  <path fill="#4e7ab5" d="M28.431 9.218c1.393 0 2.525 1.178 2.525 2.627s-1.133 2.627-2.525 2.627c-1.393 0-2.525-1.179-2.525-2.627s1.133-2.627 2.525-2.627m0-1c-1.947 0-3.525 1.624-3.525 3.627 0 2.003 1.578 3.627 3.525 3.627 1.947 0 3.525-1.624 3.525-3.627 0-2.003-1.578-3.627-3.525-3.627z"/>
  <ellipse fill="#8bb7f0" cx="21.38" cy="19.099" rx="3.025" ry="3.127"/>
  <path fill="#4e7ab5" d="M21.38 16.472c1.393 0 2.525 1.178 2.525 2.627s-1.133 2.627-2.525 2.627-2.525-1.178-2.525-2.627 1.133-2.627 2.525-2.627m0-1c-1.947 0-3.525 1.624-3.525 3.627s1.578 3.627 3.525 3.627c1.947 0 3.525-1.624 3.525-3.627s-1.578-3.627-3.525-3.627z"/>
</svg>
