<svg xmlns="http://www.w3.org/2000/svg" viewBox="0 0 40 40">
  <path fill="#f5ce85" d="M17.9 12.7l1.2-5.8h1.8l1.2 5.8z">
</path>
  <path d="M20.5 7.4l1 4.8h-3l1-4.8h1m.9-1h-2.7l-1.4 6.8h5.4l-1.3-6.8z" fill="#967a44">
</path>
  <path d="M1.5 35.5v-4c2.1-.2 3.7-1.9 4-4h29.1c.2 2.1 1.9 3.7 4 4v4H1.5z" fill="#f5ce85">
</path>
  <path d="M34.1 28c.4 2 1.9 3.5 3.9 3.9V35H2v-3.1c2-.4 3.5-1.9 3.9-3.9h28.2m.9-1H5c0 2.2-1.8 4-4 4v5h38v-5c-2.2 0-4-1.8-4-4z" fill="#967a44">
</path>
  <path d="M3.5 27.5v-1.6c0-8.5 6.9-15.4 15.4-15.4H21c8.5 0 15.4 6.9 15.4 15.4v1.6H3.5z" fill="#ffeea3">
</path>
  <path d="M21.1 11C29.3 11 36 17.7 36 25.9V27H4v-1.1C4 17.7 10.7 11 18.9 11h2.2m0-1H19c-8.9 0-16 7.1-16 15.9V28h34v-2.1C37 17.1 29.9 10 21.1 10z" fill="#ba9b48">
</path>
  <path fill="#967a44" d="M1.7 31h36.6v1H1.7z">
</path>
  <g>
    <path d="M16.5 7.5v-.8c0-1.2 1-2.2 2.2-2.2h2.7c1.2 0 2.2 1 2.2 2.2v.8h-7.1z" fill="#ffeea3">
</path>
    <path d="M21.3 5c1 0 1.7.7 1.7 1.7V7h-6v-.3c0-1 .7-1.7 1.7-1.7h2.6m0-1h-2.7C17.2 4 16 5.2 16 6.7V8h8V6.7C24 5.2 22.8 4 21.3 4z" fill="#ba9b48">
</path>
  </g>
</svg>
