<svg xmlns="http://www.w3.org/2000/svg" viewBox="0 0 40 40">
  <path fill="#c2e8ff" d="M27.953 20.5l-.21-2.101-.354-.078a7.45 7.45 0 0 1-3.917-2.268l-.245-.267-1.93.871-1.047-1.814 1.711-1.23-.109-.345a7.496 7.496 0 0 1-.001-4.536l.109-.345-1.711-1.23 1.047-1.814 1.93.871.245-.267a7.447 7.447 0 0 1 3.917-2.268l.354-.078.21-2.101h2.095l.21 2.101.354.078a7.45 7.45 0 0 1 3.917 2.268l.245.267 1.93-.871 1.047 1.814-1.711 1.23.109.345a7.496 7.496 0 0 1 .001 4.536l-.109.345 1.711 1.23-1.047 1.814-1.93-.871-.245.267a7.447 7.447 0 0 1-3.917 2.268l-.354.078-.21 2.101h-2.095zM29 6.5c-2.481 0-4.5 2.019-4.5 4.5s2.019 4.5 4.5 4.5 4.5-2.019 4.5-4.5-2.019-4.5-4.5-4.5z"/>
  <path fill="#788b9c" d="M29.595 2l.129 1.289.072.722.709.155a6.948 6.948 0 0 1 3.656 2.117l.489.535.66-.298 1.187-.536.595 1.031-1.05.754-.589.423.219.691a6.98 6.98 0 0 1 .001 4.233l-.219.691.589.423 1.05.754-.595 1.031-1.188-.535-.66-.298-.489.535a6.951 6.951 0 0 1-3.656 2.117l-.709.155-.072.722L29.595 20h-1.19l-.129-1.289-.072-.722-.709-.155a6.948 6.948 0 0 1-3.656-2.117l-.489-.535-.66.298-1.187.536-.595-1.031 1.05-.754.589-.423-.219-.691a6.98 6.98 0 0 1-.001-4.233l.219-.691-.588-.423-1.05-.754.595-1.031 1.187.535.66.298.489-.535a6.948 6.948 0 0 1 3.656-2.117l.709-.155.072-.722L28.405 2h1.19M29 16c2.757 0 5-2.243 5-5s-2.243-5-5-5-5 2.243-5 5 2.243 5 5 5m1.5-15h-3l-.219 2.19a7.977 7.977 0 0 0-4.179 2.419l-2.012-.908-1.5 2.598 1.784 1.283a7.984 7.984 0 0 0 0 4.836l-1.784 1.283 1.5 2.598 2.012-.908a7.981 7.981 0 0 0 4.179 2.419L27.5 21h3l.219-2.19a7.97 7.97 0 0 0 4.179-2.419l2.012.908 1.5-2.598-1.784-1.283a7.984 7.984 0 0 0 0-4.836l1.784-1.283-1.5-2.598-2.012.908a7.981 7.981 0 0 0-4.179-2.419L30.5 1zM29 15a4 4 0 1 1 0-8 4 4 0 0 1 0 8z"/>
  <g>
    <path fill="#dcd5f2" d="M11.953 38.5l-.32-3.199-.34-.086a8.98 8.98 0 0 1-4.241-2.444l-.245-.251-2.926 1.32-1.547-2.68 2.608-1.875-.096-.337c-.229-.814-.346-1.637-.346-2.448s.117-1.634.346-2.448l.096-.337-2.608-1.875 1.547-2.68 2.926 1.32.245-.251a8.98 8.98 0 0 1 4.241-2.444l.34-.086.32-3.199h3.095l.32 3.199.34.086a8.98 8.98 0 0 1 4.241 2.444l.245.251 2.926-1.32 1.547 2.68-2.608 1.875.096.337c.229.814.346 1.638.346 2.448s-.117 1.634-.346 2.448l-.096.337 2.608 1.875-1.547 2.68-2.926-1.32-.245.251a8.98 8.98 0 0 1-4.241 2.444l-.34.086-.32 3.199h-3.095zm1.547-17c-2.757 0-5 2.243-5 5s2.243 5 5 5 5-2.243 5-5-2.243-5-5-5z"/>
    <path fill="#788b9c" d="M14.595 15l.24 2.399.07.698.68.172a8.49 8.49 0 0 1 4.005 2.308l.489.503.639-.288 2.194-.99 1.095 1.897-1.956 1.406-.569.409.191.675c.217.768.327 1.546.327 2.311s-.11 1.543-.327 2.312l-.191.675.569.409 1.956 1.406-1.095 1.897-2.194-.99-.639-.288-.489.503a8.473 8.473 0 0 1-4.005 2.308l-.68.172-.07.698-.24 2.398h-2.19l-.24-2.399-.07-.698-.68-.172a8.49 8.49 0 0 1-4.005-2.308l-.489-.503-.639.288-2.194.99-1.095-1.897 1.956-1.406.569-.409-.191-.675C5.11 28.043 5 27.265 5 26.5s.11-1.543.327-2.312l.191-.675-.569-.409-1.956-1.406 1.095-1.897 2.194.99.639.288.489-.503a8.473 8.473 0 0 1 4.005-2.308l.68-.172.07-.698.24-2.398h2.19M13.5 32c3.033 0 5.5-2.467 5.5-5.5S16.533 21 13.5 21 8 23.467 8 26.5s2.467 5.5 5.5 5.5m2-18h-4l-.33 3.3a9.469 9.469 0 0 0-4.476 2.581l-3.019-1.362-2 3.464 2.69 1.934C4.133 24.739 4 25.603 4 26.5s.133 1.761.365 2.584l-2.69 1.934 2 3.464 3.019-1.362a9.485 9.485 0 0 0 4.477 2.581L11.5 39h4l.33-3.3a9.477 9.477 0 0 0 4.477-2.581l3.019 1.362 2-3.464-2.69-1.934c.231-.822.364-1.686.364-2.583s-.133-1.761-.365-2.584l2.69-1.934-2-3.464-3.019 1.362a9.495 9.495 0 0 0-4.476-2.581L15.5 14zm-2 17a4.5 4.5 0 1 1 0-9 4.5 4.5 0 0 1 0 9z"/>
  </g>
</svg>
