<svg xmlns="http://www.w3.org/2000/svg" viewBox="0 0 40 40">
  <path stroke="#788b9c" fill="none" stroke-miterlimit="10" d="M12 37.5l6.667-12"/>
  <path fill="#36404d" d="M12 36c-.176 0 .176 0 0 0a1.5 1.5 0 0 0 0 3c.176 0-.176 0 0 0a1.5 1.5 0 0 0 0-3z"/>
  <path stroke="#788b9c" fill="none" stroke-miterlimit="10" d="M28 37.5l-6.667-12"/>
  <path fill="#36404d" d="M28 36c.176 0-.176 0 0 0a1.5 1.5 0 0 1 0 3c-.176 0 .176 0 0 0a1.5 1.5 0 0 1 0-3z"/>
  <path fill="#66798f" d="M21 34h-2V2a1 1 0 0 1 2 0v32z"/>
  <path fill="#c2e8ff" d="M1.5 5.5h37v26h-37z"/>
  <path fill="#7496c4" d="M38 6v25H2V6h36m1-1H1v27h38V5z"/>
  <path stroke="#c74343" fill="none" stroke-miterlimit="10" d="M8.667 25.833l4.772-6.666 3.579 2.666 3.578-6 3.579 2.667 2.386-3.333 2.386.666 2.386-4.666"/>
  <path fill="#e1ebf2" d="M.5 2.5h39v3H.5z"/>
  <path fill="#788b9c" d="M39 3v2H1V3h38m1-1H0v4h40V2z"/>
</svg>
