<svg xmlns="http://www.w3.org/2000/svg" viewBox="0 0 40 40">
  <path d="M12.1 37.5c-1.5 0-2.6-1.2-2.6-2.6V5.1c0-1.5 1.2-2.6 2.6-2.6h15.7c1.5 0 2.6 1.2 2.6 2.6v29.7c0 1.5-1.2 2.6-2.6 2.6H12.1z" fill="#b0c1d4"/>
  <path d="M27.9 3C29 3 30 4 30 5.1v29.7c0 1.2-1 2.1-2.1 2.1H12.1c-1.1.1-2.1-.9-2.1-2V5.1C10 4 11 3 12.1 3h15.8m0-1H12.1C10.4 2 9 3.4 9 5.1v29.7c0 1.7 1.4 3.1 3.1 3.1h15.7c1.7 0 3.1-1.4 3.1-3.1V5.1c.1-1.7-1.3-3.1-3-3.1z" fill="#66798f"/>
  <path fill="#f2faff" d="M9.5 6.5h21v27h-21z"/>
  <path d="M30 7v26H10V7h20m1-1H9v28h22V6z" fill="#66798f"/>
  <circle cx="20" cy="4.5" r=".5" fill="#66798f"/>
  <path fill="#66798f" d="M18 35h4v1h-4z"/>
  <path d="M20 28c-4.4 0-8-3.6-8-8s3.6-8 8-8 8 3.6 8 8-3.6 8-8 8zm0-15c-3.9 0-7 3.1-7 7s3.1 7 7 7 7-3.1 7-7-3.1-7-7-7z" fill="#f78f8f"/>
  <path d="M20 25c-2.8 0-5-2.2-5-5s2.2-5 5-5 5 2.2 5 5-2.2 5-5 5zm0-9c-2.2 0-4 1.8-4 4s1.8 4 4 4 4-1.8 4-4-1.8-4-4-4z" fill="#c74343"/>
  <g>
    <circle cx="20" cy="20" r="1.5" fill="#f78f8f"/>
    <path d="M20 19c.6 0 1 .4 1 1s-.4 1-1 1-1-.4-1-1 .4-1 1-1m0-1c-1.1 0-2 .9-2 2s.9 2 2 2 2-.9 2-2-.9-2-2-2z" fill="#c74343"/>
  </g>
</svg>
