<?xml version="1.0" encoding="utf-8"?>
<!-- Generator: Adobe Illustrator 21.0.2, SVG Export Plug-In . SVG Version: 6.00 Build 0)  -->
<svg xmlns="http://www.w3.org/2000/svg" xmlns:xlink="http://www.w3.org/1999/xlink" version="1.1" id="Layer_1" x="0px" y="0px" viewBox="0 0 40 40" style="enable-background:new 0 0 40 40;" xml:space="preserve">
<g>
	<path style="fill:#B0C1D4;" d="M12.1,37.5c-1.5,0-2.6-1.2-2.6-2.6V5.1c0-1.5,1.2-2.6,2.6-2.6h15.7c1.5,0,2.6,1.2,2.6,2.6v29.7   c0,1.5-1.2,2.6-2.6,2.6H12.1z"/>
	<g>
		<path style="fill:#66798F;" d="M27.9,3C29,3,30,4,30,5.1v29.7c0,1.2-1,2.1-2.1,2.1H12.1C11,37,10,36,10,34.9V5.1C10,4,11,3,12.1,3    H27.9 M27.9,2H12.1C10.4,2,9,3.4,9,5.1v29.7c0,1.7,1.4,3.1,3.1,3.1h15.7c1.7,0,3.1-1.4,3.1-3.1V5.1C31,3.4,29.6,2,27.9,2L27.9,2z"/>
	</g>
</g>
<g>
	<rect x="9.5" y="6.5" style="fill:#F2FAFF;" width="21" height="27"/>
	<g>
		<path style="fill:#66798F;" d="M30,7v26H10V7H30 M31,6H9v28h22V6L31,6z"/>
	</g>
</g>
<circle style="fill:#66798F;" cx="20" cy="4.5" r="0.5"/>
<rect x="18" y="35" style="fill:#66798F;" width="4" height="1"/>
<path style="fill:#F78F8F;" d="M20,28c-4.4,0-8-3.6-8-8s3.6-8,8-8s8,3.6,8,8S24.4,28,20,28z M20,13c-3.9,0-7,3.1-7,7  c0,3.9,3.1,7,7,7c3.9,0,7-3.1,7-7C27,16.1,23.9,13,20,13z"/>
<path style="fill:#C74343;" d="M20,25c-2.8,0-5-2.2-5-5s2.2-5,5-5s5,2.2,5,5S22.8,25,20,25z M20,16c-2.2,0-4,1.8-4,4  c0,2.2,1.8,4,4,4c2.2,0,4-1.8,4-4C24,17.8,22.2,16,20,16z"/>
<g>
	<circle style="fill:#F78F8F;" cx="20" cy="20" r="1.5"/>
	<path style="fill:#C74343;" d="M20,19c0.6,0,1,0.4,1,1s-0.4,1-1,1s-1-0.4-1-1S19.4,19,20,19 M20,18c-1.1,0-2,0.9-2,2s0.9,2,2,2   s2-0.9,2-2S21.1,18,20,18L20,18z"/>
</g>
</svg>
