<svg xmlns="http://www.w3.org/2000/svg" viewBox="0 0 40 40">
  <path transform="rotate(-60.908 19.334 30.501)" fill="#788b9c" d="M12.5 30h13.7v1H12.5z"/>
  <path d="M16 35c-.2 0 .2 0 0 0-.8 0-1.5.7-1.5 1.5S15.2 38 16 38c.2 0-.2 0 0 0 .8 0 1.5-.7 1.5-1.5S16.8 35 16 35z" fill="#36404d"/>
  <path transform="rotate(-29.061 28.661 30.499)" fill="#788b9c" d="M28.2 23.6h1v13.7h-1z"/>
  <path d="M32 35c.2 0-.2 0 0 0 .8 0 1.5.7 1.5 1.5S32.8 38 32 38c-.2 0 .2 0 0 0-.8 0-1.5-.7-1.5-1.5S31.2 35 32 35z" fill="#36404d"/>
  <path d="M25 33h-2V5c0-.6.4-1 1-1s1 .4 1 1v28z" fill="#66798f"/>
  <path fill="#fff" d="M9.5 8.5h29v20h-29z"/>
  <path d="M38 9v19H10V9h28m1-1H9v21h30V8z" fill="#788b9c"/>
  <path fill="#e1ebf2" d="M8.5 5.5h31v3h-31z"/>
  <path d="M39 6v2H9V6h30m1-1H8v4h32V5z" fill="#788b9c"/>
  <path d="M8 9h1v20h2.8l1.3-15.2L10 13v-2.6l.7-.4C12.1 9 13 7.4 13 5.5V5H8v4z" fill="#e1ebf2"/>
  <g>
    <circle cx="7.5" cy="5.5" r="4" fill="#ffeea3"/>
    <path d="M7.5 2C9.4 2 11 3.6 11 5.5S9.4 9 7.5 9 4 7.4 4 5.5 5.6 2 7.5 2m0-1C5 1 3 3 3 5.5S5 10 7.5 10 12 8 12 5.5 10 1 7.5 1z" fill="#ba9b48"/>
  </g>
  <g>
    <path d="M4.5 38.5V27.8l-3-3V17c0-3 2.5-5.5 5.5-5.5h15c.8 0 1.5.7 1.5 1.5s-.7 1.5-1.5 1.5H11.5l-2 24h-5z" fill="#8bb7f0"/>
    <path d="M22 12c.6 0 1 .4 1 1s-.4 1-1 1H11.1l-.1.9L9.1 38H5V27.6l-.3-.3L2 24.6V17c0-2.8 2.2-5 5-5h15m0-1H7c-3.3 0-6 2.7-6 6v8l3 3v11h6l2-24h10c1.1 0 2-.9 2-2s-.9-2-2-2z" fill="#4e7ab5"/>
  </g>
</svg>
