<?xml version="1.0" encoding="utf-8"?>
<!-- Generator: Adobe Illustrator 21.0.2, SVG Export Plug-In . SVG Version: 6.00 Build 0)  -->
<svg xmlns="http://www.w3.org/2000/svg" xmlns:xlink="http://www.w3.org/1999/xlink" version="1.1" id="Layer_1" x="0px" y="0px" viewBox="0 0 40 40" style="enable-background:new 0 0 40 40;" xml:space="preserve">
<rect x="12.5" y="30" transform="matrix(0.4862 -0.8738 0.8738 0.4862 -16.7189 32.5645)" style="fill:#788B9C;" width="13.7" height="1"/>
<path style="fill:#36404D;" d="M16,35C15.8,35,16.2,35,16,35c-0.8,0-1.5,0.7-1.5,1.5S15.2,38,16,38c0.2,0-0.2,0,0,0  c0.8,0,1.5-0.7,1.5-1.5S16.8,35,16,35z"/>
<rect x="28.2" y="23.6" transform="matrix(0.8741 -0.4857 0.4857 0.8741 -11.2049 17.7607)" style="fill:#788B9C;" width="1" height="13.7"/>
<path style="fill:#36404D;" d="M32,35C32.2,35,31.8,35,32,35c0.8,0,1.5,0.7,1.5,1.5S32.8,38,32,38c-0.2,0,0.2,0,0,0  c-0.8,0-1.5-0.7-1.5-1.5S31.2,35,32,35z"/>
<path style="fill:#66798F;" d="M25,33h-2V5c0-0.6,0.4-1,1-1l0,0c0.6,0,1,0.4,1,1V33z"/>
<g>
	<rect x="9.5" y="8.5" style="fill:#FFFFFF;" width="29" height="20"/>
	<g>
		<path style="fill:#788B9C;" d="M38,9v19H10V9H38 M39,8H9v21h30V8L39,8z"/>
	</g>
</g>
<g>
	<rect x="8.5" y="5.5" style="fill:#E1EBF2;" width="31" height="3"/>
	<g>
		<path style="fill:#788B9C;" d="M39,6v2H9V6H39 M40,5H8v4h32V5L40,5z"/>
	</g>
</g>
<path style="fill:#E1EBF2;" d="M8,9h1v20h2.8l1.3-15.2L10,13v-2.6l0.7-0.4C12.1,9,13,7.4,13,5.5c0-0.2,0-0.3,0-0.5H8V9z"/>
<g>
	<circle style="fill:#FFEEA3;" cx="7.5" cy="5.5" r="4"/>
	<path style="fill:#BA9B48;" d="M7.5,2C9.4,2,11,3.6,11,5.5S9.4,9,7.5,9S4,7.4,4,5.5S5.6,2,7.5,2 M7.5,1C5,1,3,3,3,5.5S5,10,7.5,10   S12,8,12,5.5S10,1,7.5,1L7.5,1z"/>
</g>
<g>
	<path style="fill:#8BB7F0;" d="M4.5,38.5V27.8l-3-3V17c0-3,2.5-5.5,5.5-5.5h15c0.8,0,1.5,0.7,1.5,1.5s-0.7,1.5-1.5,1.5H11.5l-2,24   H4.5z"/>
	<path style="fill:#4E7AB5;" d="M22,12c0.6,0,1,0.4,1,1s-0.4,1-1,1H12h-0.9L11,14.9L9.1,38H5V28v-0.4l-0.3-0.3L2,24.6V17   c0-2.8,2.2-5,5-5H22 M22,11H7c-3.3,0-6,2.7-6,6v8l3,3v11h6l2-24h10c1.1,0,2-0.9,2-2S23.1,11,22,11L22,11z"/>
</g>
</svg>
