<svg xmlns="http://www.w3.org/2000/svg" viewBox="0 0 40 40">
  <path fill="#ffeea3" d="M14.006 33.475L1.5 37.323V6.37l12.524-3.835 11.97 3.99L38.5 2.677v30.954l-12.494 3.844z">
</path>
  <path d="M14.017 3.06l11.667 3.889.304.101.306-.094L38 3.354v29.907L26.012 36.95l-11.696-3.899-.304-.101-.306.094L2 36.646V6.74l12.017-3.68M39 2L26 6 14.062 2.021V2l-.032.01L14 2v.019L1 6v32l13-4 12 4 13-4V2z" fill="#ba9b48">
</path>
  <path d="M26 37l-12-4V3l12 4v30z" fill="#fff">
</path>
  <circle cx="33" cy="23" r="1" fill="#704e34">
</circle>
  <circle cx="32" cy="27" r="1" fill="#704e34">
</circle>
  <circle cx="17" cy="15" r="1" fill="#704e34">
</circle>
  <circle cx="13" cy="17" r="1" fill="#704e34">
</circle>
  <circle cx="20" cy="12" r="1" fill="#704e34">
</circle>
  <circle cx="24" cy="11" r="1" fill="#704e34">
</circle>
  <circle cx="28" cy="13" r="1" fill="#704e34">
</circle>
  <circle cx="31" cy="16" r="1" fill="#704e34">
</circle>
  <circle cx="33" cy="19" r="1" fill="#704e34">
</circle>
  <circle cx="28" cy="29" r="1" fill="#704e34">
</circle>
  <circle cx="24" cy="28" r="1" fill="#704e34">
</circle>
  <circle cx="21" cy="26" r="1" fill="#704e34">
</circle>
  <circle cx="17" cy="26" r="1" fill="#704e34">
</circle>
  <circle cx="9" cy="15" r="1" fill="#704e34">
</circle>
  <g>
    <path fill="#f78f8f" d="M10 27.293l-2 2L6.707 28l2-2-2-2L8 22.707l2 2 2-2L13.293 24l-2 2 2 2L12 29.293z">
</path>
    <path d="M12 23.414l.586.586-1.293 1.293-.707.707.707.707L12.586 28l-.586.586-1.293-1.293-.707-.707-.707.707L8 28.586 7.414 28l1.293-1.293.707-.707-.707-.707L7.414 24 8 23.414l1.293 1.293.707.707.707-.707L12 23.414M12 22l-2 2-2-2-2 2 2 2-2 2 2 2 2-2 2 2 2-2-2-2 2-2-2-2z" fill="#c74343">
</path>
  </g>
</svg>
