<?xml version="1.0" encoding="iso-8859-1"?>
<!-- Generator: Adobe Illustrator 19.2.1, SVG Export Plug-In . SVG Version: 6.00 Build 0)  -->
<svg version="1.1" id="Layer_1" xmlns="http://www.w3.org/2000/svg" xmlns:xlink="http://www.w3.org/1999/xlink" x="0px" y="0px"
	 viewBox="0 0 40 40" style="enable-background:new 0 0 40 40;" xml:space="preserve">
<g>
	<rect x="24.5" y="28.5" style="fill:#8BB7F0;" width="14" height="10"/>
	<g>
		<path style="fill:#4E7AB5;" d="M38,29v9H25v-9H38 M39,28H24v11h15V28L39,28z"/>
	</g>
</g>
<g>
	<rect x="24.5" y="13.5" style="fill:#8BB7F0;" width="14" height="10"/>
	<g>
		<path style="fill:#4E7AB5;" d="M38,14v9H25v-9H38 M39,13H24v11h15V13L39,13z"/>
	</g>
</g>
<g>
	<rect x="1.5" y="1.5" style="fill:#F78F8F;" width="14" height="10"/>
	<g>
		<path style="fill:#C74343;" d="M15,2v9H2V2H15 M16,1H1v11h15V1L16,1z"/>
	</g>
</g>
<polygon style="fill:#66798F;" points="24,33 9,33 9,12 8,12 8,34 24,34 "/>
<rect x="15.5" y="10.5" transform="matrix(4.547480e-11 -1 1 4.547480e-11 -2.5 34.5)" style="fill:#66798F;" width="1" height="16"/>
</svg>
