<svg xmlns="http://www.w3.org/2000/svg" viewBox="0 0 40 40">
  <path fill="#8bb7f0" d="M24.5 28.5h14v10h-14z"/>
  <path d="M38 29v9H25v-9h13m1-1H24v11h15V28z" fill="#4e7ab5"/>
  <path fill="#8bb7f0" d="M24.5 13.5h14v10h-14z"/>
  <path d="M38 14v9H25v-9h13m1-1H24v11h15V13z" fill="#4e7ab5"/>
  <path fill="#f78f8f" d="M1.5 1.5h14v10h-14z"/>
  <path d="M15 2v9H2V2h13m1-1H1v11h15V1z" fill="#c74343"/>
  <path fill="#66798f" d="M24 33H9V12H8v22h16z"/>
  <path transform="rotate(-90 16 18.5)" fill="#66798f" d="M15.5 10.5h1v16h-1z"/>
</svg>
