<?xml version="1.0" encoding="UTF-8"?>
<svg xmlns="http://www.w3.org/2000/svg" xmlns:xlink="http://www.w3.org/1999/xlink" viewBox="0 0 50 50" version="1.1" fill="#12529e"><g id="surface1" fill="#12529e"><path style=" " d="M 25 0 C 20.03125 0 16 4.03125 16 9 C 16 13.96875 20.03125 18 25 18 C 29.96875 18 34 13.96875 34 9 C 34 4.03125 29.96875 0 25 0 Z M 17.5 20 C 15.546875 20 14.03125 20.886719 12.625 22.34375 C 12.445313 22.441406 12.3125 22.585938 12.21875 22.78125 C 11.941406 23.09375 11.648438 23.425781 11.375 23.78125 C 11.339844 23.828125 11.316406 23.890625 11.28125 23.9375 C 11.019531 24.285156 10.761719 24.652344 10.5 25.03125 C 10.453125 25.097656 10.390625 25.152344 10.34375 25.21875 C 10.082031 25.601563 9.832031 25.996094 9.5625 26.40625 C 9.511719 26.480469 9.457031 26.546875 9.40625 26.625 C 9.136719 27.039063 8.875 27.46875 8.59375 27.90625 C 7.890625 29.003906 7.132813 30.1875 6.28125 31.4375 C 0.59375 39.851563 1.636719 44.722656 2.78125 46.875 C 3.820313 48.832031 5.71875 50 7.8125 50 L 40.1875 50 C 41.324219 50 42.308594 49.539063 43 48.65625 C 45.417969 45.582031 44.140625 37.667969 42.65625 31.5625 C 40.714844 23.894531 37.308594 20 32.5 20 Z M 17.5 22 L 23 22 L 25.65625 33.125 L 26.375 36 L 31 36 C 34.859375 36 38 39.140625 38 43 C 38 44.957031 37.175781 46.730469 35.875 48 L 31 48 C 33.757813 48 36 45.757813 36 43 C 36 40.242188 33.757813 38 31 38 L 26.84375 38 L 27 38.71875 L 27.0625 38.90625 L 29.21875 48 L 12.03125 48 C 7.6875 44.800781 11.808594 29.867188 13.9375 23.875 C 15.046875 22.6875 16.152344 22 17.5 22 Z " fill="#12529e"/></g></svg>
