<?xml version="1.0" encoding="utf-8"?>
<!-- Generator: Adobe Illustrator 21.0.2, SVG Export Plug-In . SVG Version: 6.00 Build 0)  -->
<svg xmlns="http://www.w3.org/2000/svg" xmlns:xlink="http://www.w3.org/1999/xlink" version="1.1" id="Layer_1" x="0px" y="0px" viewBox="0 0 40 40" style="enable-background:new 0 0 40 40;" xml:space="preserve">
<path style="fill:#66798F;" d="M36,28h-1v-2c0-8.3-6.7-15-15-15c-8.3,0-15,6.7-15,15v2H4v-2c0-8.8,7.2-16,16-16s16,7.2,16,16V28z"/>
<rect x="3" y="10" style="fill:#66798F;" width="34" height="1"/>
<g>
	<rect x="16.5" y="7.5" style="fill:#8BB7F0;" width="7" height="7"/>
	<path style="fill:#4E7AB5;" d="M23,8v6h-6V8H23 M24,7h-8v8h8V7L24,7z"/>
</g>
<g>
	<rect x="32.5" y="25.5" style="fill:#8BB7F0;" width="6" height="6"/>
	<path style="fill:#4E7AB5;" d="M38,26v5h-5v-5H38 M39,25h-7v7h7V25L39,25z"/>
</g>
<g>
	<rect x="1.5" y="25.5" style="fill:#8BB7F0;" width="6" height="6"/>
	<path style="fill:#4E7AB5;" d="M7,26v5H2v-5H7 M8,25H1v7h7V25L8,25z"/>
</g>
<g>
	<circle style="fill:#F78F8F;" cx="36.5" cy="10.5" r="2"/>
	<g>
		<path style="fill:#C74343;" d="M36.5,9c0.8,0,1.5,0.7,1.5,1.5S37.3,12,36.5,12S35,11.3,35,10.5S35.7,9,36.5,9 M36.5,8    C35.1,8,34,9.1,34,10.5s1.1,2.5,2.5,2.5s2.5-1.1,2.5-2.5S37.9,8,36.5,8L36.5,8z"/>
	</g>
</g>
<g>
	<circle style="fill:#F78F8F;" cx="3.5" cy="10.5" r="2"/>
	<g>
		<path style="fill:#C74343;" d="M3.5,9C4.3,9,5,9.7,5,10.5S4.3,12,3.5,12S2,11.3,2,10.5S2.7,9,3.5,9 M3.5,8C2.1,8,1,9.1,1,10.5    S2.1,13,3.5,13S6,11.9,6,10.5S4.9,8,3.5,8L3.5,8z"/>
	</g>
</g>
</svg>
