<svg xmlns="http://www.w3.org/2000/svg" viewBox="0 0 40 40">
  <path fill="#8bb7f0" d="M1.5 9.5h36v21h-36z">
</path>
  <path d="M37 10v20H2V10h35m1-1H1v22h37V9z" fill="#4e7ab5">
</path>
  <path fill="#7496c4" d="M30 30H16V16z">
</path>
  <path d="M37 6v3H2V6h35m1-1H1v5h37V5z" fill="#4e7ab5">
</path>
  <path fill="#4e7ab5" d="M5 5h1v5H5zM9 5h1v5H9zM13 5h1v5h-1zM17 5h1v5h-1zM21 5h1v5h-1zM25 5h1v5h-1zM29 5h1v5h-1zM33 5h1v5h-1zM37 31v3H2v-3h35m1-1H1v5h37v-5z">
</path>
  <path fill="#4e7ab5" d="M5 30h1v5H5zM9 30h1v5H9zM13 30h1v5h-1zM17 30h1v5h-1zM21 30h1v5h-1zM25 30h1v5h-1zM29 30h1v5h-1zM33 30h1v5h-1z">
</path>
  <path fill="#f5ce85" d="M19.058 23.704l-2.274-6.92 6.897 2.275 2.527 2.525-4.316 4.955z">
</path>
  <path d="M17.568 17.569l5.843 1.927 2.112 2.112-3.657 4.199-2.372-2.372-1.926-5.866M16 15.999l2.62 7.975 3.298 3.298 4.973-5.71-2.94-2.94L16 15.999z" fill="#967a44">
</path>
  <path d="M36.223 39.5a3.256 3.256 0 0 1-2.317-.96l-2.196-2.196 4.635-4.635 2.196 2.196c.619.619.96 1.442.96 2.317 0 .876-.341 1.698-.96 2.317s-1.443.961-2.318.961z" fill="#f78f8f">
</path>
  <path d="M36.344 32.416l1.843 1.842a2.78 2.78 0 0 1 0 3.928 2.759 2.759 0 0 1-1.964.814 2.762 2.762 0 0 1-1.964-.813l-1.843-1.842 3.928-3.929m0-1.414l-5.342 5.342 2.55 2.55c.737.737 1.704 1.106 2.671 1.106s1.933-.369 2.671-1.106a3.778 3.778 0 0 0 0-5.342l-2.55-2.55z" fill="#c74343">
</path>
  <g>
    <path d="M19.67 24.315c.532-.232.972-.721 1.089-1.562 1.245-.199 1.773-1.186 1.934-1.958a1.987 1.987 0 0 0 1.157-.579c.18-.187.307-.394.396-.595L34.83 30.193l-4.634 4.635L19.67 24.315z" fill="#ffeea3">
</path>
    <path d="M24.337 20.42l9.784 9.774-3.928 3.928-9.731-9.721c.328-.287.59-.689.726-1.232 1.056-.305 1.653-1.138 1.909-1.952a2.438 2.438 0 0 0 1.24-.797m-.386-1.799s.061 1.708-1.703 1.708c0 0-.061 1.961-1.958 1.961 0 1.531-1.028 1.696-1.471 1.696-.121 0-.199-.012-.199-.012l11.574 11.562 5.342-5.342-11.585-11.573z" fill="#ba9b48">
</path>
  </g>
  <g>
    <path fill="#d9e7f5" d="M37.755 33.12l-4.635 4.635-3.397-3.397 4.635-4.635z">
</path>
    <path d="M34.358 30.43l2.69 2.69-3.928 3.928-2.69-2.69 3.928-3.928m0-1.414l-5.342 5.342 4.104 4.104 5.342-5.342-4.104-4.104z" fill="#788b9c">
</path>
  </g>
  <g>
    <path fill="#967a44" d="M17.587 20.83l2.913-3.346L16 16z">
</path>
  </g>
</svg>
