<svg xmlns="http://www.w3.org/2000/svg" viewBox="0 0 40 40">
  <path d="M35.5 23.5v-7H38c.3 0 .5.2.5.5v6c0 .3-.2.5-.5.5h-2.5z" fill="#ffeea3"/>
  <path d="M38 17v6h-2v-6h2m0-1h-3v8h3c.6 0 1-.4 1-1v-6c0-.6-.4-1-1-1z" fill="#ba9b48"/>
  <path fill="#8bb7f0" d="M10.5 1.5h19v37h-19z"/>
  <path d="M29 2v36H11V2h18m1-1H10v38h20V1z" fill="#4e7ab5"/>
  <path fill="#8bb7f0" d="M11 1h18v38H11z"/>
  <path d="M20 35.5c-8.5 0-15.5-7-15.5-15.5S11.5 4.5 20 4.5s15.5 7 15.5 15.5-7 15.5-15.5 15.5z" fill="#ffeea3"/>
  <path d="M20 5c8.3 0 15 6.7 15 15s-6.7 15-15 15S5 28.3 5 20 11.7 5 20 5m0-1C11.2 4 4 11.2 4 20s7.2 16 16 16 16-7.2 16-16S28.8 4 20 4z" fill="#ba9b48"/>
  <g>
    <path d="M20 33.5c-7.4 0-13.5-6.1-13.5-13.5S12.6 6.5 20 6.5 33.5 12.6 33.5 20 27.4 33.5 20 33.5z" fill="#fff"/>
    <path d="M20 7c7.2 0 13 5.8 13 13s-5.8 13-13 13S7 27.2 7 20 12.8 7 20 7m0-1C12.3 6 6 12.3 6 20s6.3 14 14 14 14-6.3 14-14S27.7 6 20 6z" fill="#ba9b48"/>
  </g>
  <path d="M24.5 25c-.1 0-.3 0-.4-.1l-4.8-4.8 5.6-8.3c.2-.2.5-.3.7-.1.2.2.3.5.1.7l-5.2 7.7 4.2 4.2c.2.2.2.5 0 .7h-.2z" fill="#66798f"/>
  <g>
    <circle cx="20" cy="20" r="1.5" fill="#66798f"/>
  </g>
</svg>
