<?xml version="1.0" encoding="utf-8"?>
<!-- Generator: Adobe Illustrator 21.0.2, SVG Export Plug-In . SVG Version: 6.00 Build 0)  -->
<svg xmlns="http://www.w3.org/2000/svg" xmlns:xlink="http://www.w3.org/1999/xlink" version="1.1" id="Layer_1" x="0px" y="0px" viewBox="0 0 40 40" style="enable-background:new 0 0 40 40;" xml:space="preserve">
<g>
	<path style="fill:#FFEEA3;" d="M35.5,23.5v-7H38c0.3,0,0.5,0.2,0.5,0.5v6c0,0.3-0.2,0.5-0.5,0.5H35.5z"/>
	<path style="fill:#BA9B48;" d="M38,17v6h-2v-6H38 M38,16h-3v8h3c0.6,0,1-0.4,1-1v-6C39,16.4,38.6,16,38,16L38,16z"/>
</g>
<g>
	<rect x="10.5" y="1.5" style="fill:#8BB7F0;" width="19" height="37"/>
	<g>
		<path style="fill:#4E7AB5;" d="M29,2v36H11V2H29 M30,1H10v38h20V1L30,1z"/>
	</g>
</g>
<g>
	<rect x="11" y="1" style="fill:#8BB7F0;" width="18" height="38"/>
</g>
<g>
	<path style="fill:#FFEEA3;" d="M20,35.5c-8.5,0-15.5-7-15.5-15.5S11.5,4.5,20,4.5s15.5,7,15.5,15.5S28.5,35.5,20,35.5z"/>
	<g>
		<path style="fill:#BA9B48;" d="M20,5c8.3,0,15,6.7,15,15s-6.7,15-15,15S5,28.3,5,20S11.7,5,20,5 M20,4C11.2,4,4,11.2,4,20    s7.2,16,16,16s16-7.2,16-16S28.8,4,20,4L20,4z"/>
	</g>
</g>
<g>
	<path style="fill:#FFFFFF;" d="M20,33.5c-7.4,0-13.5-6.1-13.5-13.5S12.6,6.5,20,6.5S33.5,12.6,33.5,20S27.4,33.5,20,33.5z"/>
	<g>
		<path style="fill:#BA9B48;" d="M20,7c7.2,0,13,5.8,13,13s-5.8,13-13,13S7,27.2,7,20S12.8,7,20,7 M20,6C12.3,6,6,12.3,6,20    s6.3,14,14,14s14-6.3,14-14S27.7,6,20,6L20,6z"/>
	</g>
</g>
<path style="fill:#66798F;" d="M24.5,25c-0.1,0-0.3,0-0.4-0.1l-4.8-4.8l5.6-8.3c0.2-0.2,0.5-0.3,0.7-0.1c0.2,0.2,0.3,0.5,0.1,0.7  l-5.2,7.7l4.2,4.2c0.2,0.2,0.2,0.5,0,0.7C24.8,25,24.7,25,24.5,25z"/>
<g>
	<circle style="fill:#66798F;" cx="20" cy="20" r="1.5"/>
</g>
</svg>
