<svg xmlns="http://www.w3.org/2000/svg" id="Layer_1" data-name="Layer 1" viewBox="0 0 960 528">
  <defs>
    <style>
      .cls-2{fill:#333}
    </style>
  </defs>
  <rect width="930" height="390" x="15" y="66" fill="#eee" stroke="#ddd" stroke-miterlimit="10" stroke-width="2" rx="12" ry="12"/>
  <path d="M117.66 405.88h-5.32v-1.24h4.07v-53.18h-77v53.18h48.7v1.24H38.17v-55.67h79.49v55.67z" class="cls-2"/>
  <path d="M45.94 393.27h32.01v1.24H45.94zm0-13.64H88.5v1.24H45.94zm0 6.82H88.5v1.24H45.94zm0-14.06H88.5v1.24H45.94zm71.72-20.93H38.17V341h79.48zm-78.24-1.24h77v-8h-77z" class="cls-2"/>
  <path d="M42.37 345.54h2.97v1.24h-2.97zm5.14 0h2.97v1.24h-2.97zm5.14 0h2.97v1.24h-2.97zm20.13 19.99H46.91v-7.19h25.87zm-24.62-1.24h23.37v-4.7H48.15zm57.45 6.97v-1.76l-5.3-9.06-5.3 9.06v1.76h-1.24v-2.1l6.54-11.18 6.55 11.18v2.09l-1.25.01z" class="cls-2"/>
  <path d="M95.01 404.95h-1.24v-35.03l13.09-.01v35.04h-1.24l-.01-33.8-10.6.01v33.79zm9.92 16.05h-9.24a1.77 1.77 0 01-1.92-1.61v-2.84H95v2.84c0 .15.27.37.68.37h9.25c.41 0 .69-.22.69-.37v-2.84h1.24v2.84a1.77 1.77 0 01-1.93 1.61z" class="cls-2"/>
  <path d="M93.77 412.72v-8.07h13.09v8.07zm1.23-6.84v5.59h10.61v-5.59zM52.7 181a12.84 12.84 0 1112.7-12.84A12.78 12.78 0 0152.7 181zm0-24.43a11.59 11.59 0 1011.45 11.59 11.53 11.53 0 00-11.45-11.59z" class="cls-2"/>
  <path d="M52.7 171.79a5.14 5.14 0 115.08-5.14 5.12 5.12 0 01-5.08 5.14zm0-9a3.89 3.89 0 103.83 3.89 3.86 3.86 0 00-3.83-3.91z" class="cls-2"/>
  <path d="M61.12 176.55h-1.25v-.37a3.86 3.86 0 00-3.87-3.89h-6.65a3.87 3.87 0 00-3.83 3.89v.37h-1.25v-.37a5.12 5.12 0 015.08-5.18H56a5.12 5.12 0 015.08 5.14zm25.75-13.25A30.22 30.22 0 0168 156.73l-7.35 2 2-7.43a30.71 30.71 0 1124.28 12zm-18.62-7.95l.25.2a29 29 0 0018.37 6.5 29.77 29.77 0 10-23.11-11.29l.24.24-1.57 5.94z" class="cls-2"/>
  <path d="M87 155h-.09a22.48 22.48 0 01-2.54-.14l.14-1.24a21.4 21.4 0 002.4.14H87zm2.54-.15l-.15-1.24a21.17 21.17 0 002.37-.42l.29 1.22a22.5 22.5 0 01-2.55.42zm-7.68-.42a22.54 22.54 0 01-2.44-.72l.42-1.18a21.16 21.16 0 002.31.68zm12.63-.75l-.49-1.19a21.26 21.26 0 002.21-.94l.56 1.12a22.48 22.48 0 01-2.32.99zM77 152.7a22.44 22.44 0 01-2.22-1.25l.68-1.05a21.21 21.21 0 002.09 1.18zm22-1.3l-.68-1a21.65 21.65 0 001.94-1.42l.79 1A22.91 22.91 0 0199 151.4zM72.76 150a22.9 22.9 0 01-1.88-1.71l.89-.88a21.82 21.82 0 001.77 1.59zm30.17-1.77l-.89-.87a21.59 21.59 0 001.58-1.81l1 .77a23.1 23.1 0 01-1.69 1.87zm-33.73-1.85a23.1 23.1 0 01-1.46-2.08l1.06-.66a22 22 0 001.38 2zm36.8-2.2l-1.06-.65a21.75 21.75 0 001.14-2.12l1.13.53a22.89 22.89 0 01-1.21 2.24zM66.52 142a22.93 22.93 0 01-1-2.35l1.18-.41a21.76 21.76 0 00.91 2.23zm41.69-2.44l-1.18-.4a21.73 21.73 0 00.65-2.32l1.22.27a23 23 0 01-.69 2.47zm-43.35-2.36a23 23 0 01-.42-2.51l1.24-.14a21.91 21.91 0 00.4 2.37zm44.45-2.6l-1.24-.13a22.09 22.09 0 00.12-2.34v-.07h1.25v.07a23.29 23.29 0 01-.13 2.49zm-45-2.45a23.13 23.13 0 01.14-2.49l1.24.13a22.16 22.16 0 00-.13 2.38zm43.75-2.49a21.67 21.67 0 00-.4-2.37l1.22-.28a23.12 23.12 0 01.42 2.51zm-42-2.29l-1.22-.27a22.87 22.87 0 01.69-2.45l1.18.41a21.66 21.66 0 00-.64 2.34zM107 125a21.64 21.64 0 00-.91-2.22l1.13-.54a22.88 22.88 0 011 2.35zm-39.36-2.15l-1.13-.53a23.32 23.32 0 011.21-2.24l1.06.66a22 22 0 00-1.15 2.12zm37.29-2.18a21.93 21.93 0 00-1.38-2l1-.77A23.25 23.25 0 01106 120zm-34.77-1.9l-1-.77a23.19 23.19 0 011.68-1.91l.89.87a21.87 21.87 0 00-1.58 1.81zm31.79-1.87a21.57 21.57 0 00-1.78-1.61l.79-1a22.68 22.68 0 011.88 1.71zm-28.43-1.56l-.79-1a22.65 22.65 0 012.06-1.5l.68 1.05a21.44 21.44 0 00-1.96 1.45zm24.7-1.46a21.24 21.24 0 00-2.1-1.18l.55-1.12a22.52 22.52 0 012.22 1.25zm-20.66-1.14l-.56-1.12a22.3 22.3 0 012.34-1l.42 1.18a21 21 0 00-2.21.94zm16.35-1a21.05 21.05 0 00-2.31-.67l.28-1.22a22.2 22.2 0 012.45.71zm-11.84-.65l-.29-1.22a22.19 22.19 0 012.51-.44l.14 1.24a21 21 0 00-2.37.45zm7.16-.42a21.26 21.26 0 00-2.36-.13v-1.25a22.51 22.51 0 012.5.14zm-1.4 21.63l-.8-1 2.43-2c1.06-.68 1.59-1.39 1.59-2.1v-2.29a2.72 2.72 0 00-2.7-2.74h-2.66a2.72 2.72 0 00-2.7 2.74V126h-1.25v-1.07a4 4 0 013.95-4h2.67a4 4 0 013.95 4v2.29c0 1.16-.72 2.21-2.14 3.13z" class="cls-2"/>
  <path d="M85.95 136.91H84.7v-2.29c0-1.16.72-2.21 2.14-3.13l2.34-1.94.8 1-2.43 2c-1.06.68-1.59 1.39-1.59 2.1zm-1.25 2.55h1.25v3.26H84.7z" class="cls-2"/>
  <g id="Pie_Chart">
    <path d="M115.52 268.66l-35.76-9.21a.78.78 0 01-.59-.75v-36.92a.8.8 0 01.23-.55.78.78 0 01.6-.23 37.73 37.73 0 0136.52 47.11.76.76 0 01-.36.47.73.73 0 01-.39.11.68.68 0 01-.25-.03zM80.73 258.1l34.42 8.9a36.15 36.15 0 00-34.42-44.4zM76.12 221a.77.77 0 01.55.22.78.78 0 01.23.55v36.93a.78.78 0 01-.42.69.82.82 0 01-.35.09.76.76 0 01-.46-.15l-29.93-21.62a.77.77 0 01-.17-1.08A37.64 37.64 0 0176.12 221zm-.78 36.18v-34.62a36.08 36.08 0 00-28.06 14.35zm40.42 14.12a.77.77 0 01.56.94 37.78 37.78 0 01-20.25 24.61.8.8 0 01-.6 0 .79.79 0 01-.44-.4L79.1 263.17a.77.77 0 01.1-.83.77.77 0 01.79-.26zm-19.67 23.81a36.22 36.22 0 0018.52-22.5L81.22 264zM38 263.3a37.53 37.53 0 017.14-22.07.77.77 0 011.08-.17l29.93 21.61a.75.75 0 01.25.29l15.93 33.32a.78.78 0 01-.36 1 37.72 37.72 0 01-54-34zm1.55 0a36.17 36.17 0 0051 32.95L75 263.81l-29.13-21a36 36 0 00-6.36 20.49z" class="cls-2"/>
    <path d="M83.55 253.83a.77.77 0 010-1.1l18.38-18.38a.78.78 0 011.1 1.1l-18.39 18.38a.78.78 0 01-1.1 0zm-.01-11.04a.78.78 0 010-1.1l12-12a.78.78 0 111.1 1.1l-12 12a.79.79 0 01-1.1 0z" class="cls-2"/>
    <path d="M83.54 242.79a.78.78 0 010-1.1l12-12a.78.78 0 111.1 1.1l-12 12a.79.79 0 01-1.1 0zm.01-11.05a.77.77 0 010-1.1l4.2-4.2a.78.78 0 011.1 1.1l-4.2 4.19a.77.77 0 01-1.1 0zm7.02 26.11a.78.78 0 010-1.1l16.37-16.37a.78.78 0 111.1 1.1l-16.37 16.37a.78.78 0 01-.55.23.79.79 0 01-.55-.23zm17.56 4.52a.77.77 0 010-1.1l4-4a.78.78 0 011.1 1.1l-4 4a.78.78 0 01-1.1 0zm-8.78-2.26a.78.78 0 010-1.1l11.17-11.17a.78.78 0 111.1 1.1l-11.17 11.18a.77.77 0 01-.54.23.77.77 0 01-.56-.24z" class="cls-2"/>
  </g>
  <path d="M42.13 19.89h2.48v11.52h15.74V19.89h2.48v25.17h-2.48V33.64H44.62v11.42h-2.49zm40.65 7.44a8.69 8.69 0 013.38 3.37 9.76 9.76 0 011.22 4.9 9.93 9.93 0 01-1.22 4.95 8.66 8.66 0 01-3.38 3.38 10.54 10.54 0 01-9.79 0 8.65 8.65 0 01-3.38-3.38 9.92 9.92 0 01-1.22-4.95 9.75 9.75 0 011.22-4.9A8.69 8.69 0 0173 27.33a10.54 10.54 0 019.79 0zm-8.57 1.82a6.49 6.49 0 00-2.52 2.63 8.77 8.77 0 000 7.74 6.48 6.48 0 002.52 2.63 7.67 7.67 0 007.34 0 6.48 6.48 0 002.52-2.63 8.77 8.77 0 000-7.74 6.49 6.49 0 00-2.52-2.63 7.67 7.67 0 00-7.34 0zm14.33-2.96h2.59l5.8 16.45 5.72-16.45h2.56L111 42.64l5.76-16.45h2.52l-7.06 18.86h-2.52l-5.76-15.95-5.79 15.96h-2.52zm53.56 17.57a7.71 7.71 0 01-4.18 1.4 4.48 4.48 0 01-3.42-1.33 5.62 5.62 0 01-1.26-4V28.6h-2.7v-1.87h2.74v-4.86h2.41v4.86h6.12v1.87h-6.12v10.84q0 3.49 2.59 3.49a6.21 6.21 0 003.13-1zm16.53-16.43a8.69 8.69 0 013.37 3.36 9.76 9.76 0 011.22 4.9 9.93 9.93 0 01-1.22 4.95 8.66 8.66 0 01-3.38 3.38 10.54 10.54 0 01-9.79 0 8.65 8.65 0 01-3.38-3.38 9.92 9.92 0 01-1.22-4.95 9.75 9.75 0 011.22-4.9 8.69 8.69 0 013.38-3.37 10.54 10.54 0 019.79 0zm-8.57 1.82a6.49 6.49 0 00-2.52 2.63 8.77 8.77 0 000 7.74 6.48 6.48 0 002.52 2.63 7.67 7.67 0 007.34 0 6.48 6.48 0 002.52-2.63 8.77 8.77 0 000-7.74 6.49 6.49 0 00-2.52-2.63 7.67 7.67 0 00-7.34 0zm35.68-.91a7.13 7.13 0 00-3.64.94 6.52 6.52 0 00-2.52 2.61 8 8 0 00-.9 3.83 8.07 8.07 0 00.9 3.85 6.48 6.48 0 002.52 2.63 7.13 7.13 0 003.64.94 8.54 8.54 0 003.37-.65 6.83 6.83 0 002.57-1.87L193 42a8.41 8.41 0 01-3.17 2.34 10.56 10.56 0 01-4.25.83 9.59 9.59 0 01-4.82-1.21 8.59 8.59 0 01-3.33-3.38 10.61 10.61 0 010-9.83 8.6 8.6 0 013.33-3.38 9.6 9.6 0 014.82-1.21 10.81 10.81 0 014 .72 9.07 9.07 0 013.11 2l-1.37 1.62a7.81 7.81 0 00-5.58-2.26zm17.8-.95a7.75 7.75 0 014.19-1.17v2.27a6.45 6.45 0 00-4.81 1.75 7.36 7.36 0 00-2.06 4.86v10.06h-2.41V26.19h2.41v4.39a7.22 7.22 0 012.68-3.29zm22.12 1.62a10.75 10.75 0 012.12 7.51h-15.73a7.24 7.24 0 002.23 4.88 6.89 6.89 0 004.9 1.85 8.58 8.58 0 003.35-.65 7.67 7.67 0 002.66-1.84l1.37 1.34a9.4 9.4 0 01-3.29 2.29 10.81 10.81 0 01-4.23.81 9.67 9.67 0 01-4.86-1.21 8.63 8.63 0 01-3.33-3.37 10.65 10.65 0 010-9.85 8.6 8.6 0 013.33-3.38 9.53 9.53 0 014.82-1.17 8.19 8.19 0 016.66 2.79zm0 5.63a6.9 6.9 0 00-2-4.7A6.38 6.38 0 00219 28.1a6.73 6.73 0 00-4.75 1.76 7.07 7.07 0 00-2.2 4.68zm19.01 10.52v-3.17a6.84 6.84 0 01-2.92 2.47 10 10 0 01-4.14.81 7.35 7.35 0 01-3.37-.74 5.38 5.38 0 01-3-5 4.54 4.54 0 011.89-3.85 8.56 8.56 0 015.2-1.4h6.34v-1.4a4.46 4.46 0 00-1.33-3.46 5.55 5.55 0 00-3.89-1.22 10.2 10.2 0 00-6.08 2.27l-1.08-1.66a16.09 16.09 0 013.64-2 11.54 11.54 0 014-.63 7.57 7.57 0 015.29 1.71 6.2 6.2 0 011.78 4.77v12.49zm-2.4-3.06a5.73 5.73 0 002.36-3.29v-2.62h-6.08a7.07 7.07 0 00-3.78.83 2.75 2.75 0 00-1.3 2.48 3.35 3.35 0 001.24 2.72 5 5 0 003.29 1 7.49 7.49 0 004.27-1.12zM263 43.76a7.71 7.71 0 01-4.18 1.4 4.48 4.48 0 01-3.42-1.33 5.62 5.62 0 01-1.26-4V28.6h-2.7v-1.87h2.74v-4.86h2.41v4.86h6.12v1.87h-6.12v10.84q0 3.49 2.59 3.49a6.2 6.2 0 003.13-1zm18.1-14.85a10.76 10.76 0 012.12 7.51h-15.73a7.24 7.24 0 002.23 4.88 6.88 6.88 0 004.9 1.85 8.58 8.58 0 003.38-.65 7.67 7.67 0 002.66-1.84L282 42a9.39 9.39 0 01-3.29 2.29 10.81 10.81 0 01-4.23.81 9.67 9.67 0 01-4.86-1.21 8.63 8.63 0 01-3.33-3.37 10.65 10.65 0 010-9.85 8.6 8.6 0 013.33-3.38 9.53 9.53 0 014.79-1.21 8.19 8.19 0 016.69 2.83zm0 5.63a6.9 6.9 0 00-2-4.7 6.38 6.38 0 00-4.66-1.75 6.73 6.73 0 00-4.75 1.76 7.06 7.06 0 00-2.2 4.68zM310 45.06v-3.17a6.84 6.84 0 01-2.92 2.47 10 10 0 01-4.14.81 7.35 7.35 0 01-3.37-.74 5.38 5.38 0 01-3-5 4.54 4.54 0 011.89-3.85 8.56 8.56 0 015.2-1.4H310v-1.4a4.46 4.46 0 00-1.33-3.46 5.55 5.55 0 00-3.89-1.22 10.2 10.2 0 00-6.08 2.27l-1.08-1.66a16.09 16.09 0 013.64-2 11.54 11.54 0 014-.63 7.57 7.57 0 015.29 1.71 6.2 6.2 0 011.91 4.73v12.49zM307.61 42a5.73 5.73 0 002.39-3.32v-2.59h-6.08a7.07 7.07 0 00-3.78.83 2.75 2.75 0 00-1.3 2.48 3.35 3.35 0 001.24 2.72 5 5 0 003.29 1 7.49 7.49 0 004.24-1.12zM334 28.08a7.36 7.36 0 011.93 5.38v11.6h-2.45V34a5.73 5.73 0 00-1.48-4.14 5.47 5.47 0 00-4.1-1.51 6.38 6.38 0 00-4.66 1.8 7.38 7.38 0 00-2 4.75v10.16h-2.41V26.19h2.41v4.39a7 7 0 012.86-3.31 9.13 9.13 0 014.59-1.15 7.1 7.1 0 015.31 1.96zm32.31.83a10.76 10.76 0 012.12 7.51H352.7a7.24 7.24 0 002.23 4.88 6.88 6.88 0 004.9 1.85 8.58 8.58 0 003.35-.65 7.67 7.67 0 002.66-1.84l1.37 1.34a9.39 9.39 0 01-3.29 2.29 10.81 10.81 0 01-4.23.81 9.67 9.67 0 01-4.86-1.21 8.63 8.63 0 01-3.33-3.37 10.65 10.65 0 010-9.85 8.6 8.6 0 013.33-3.38 9.53 9.53 0 014.79-1.21 8.19 8.19 0 016.69 2.83zm0 5.63a6.9 6.9 0 00-2-4.7 6.38 6.38 0 00-4.66-1.75 6.73 6.73 0 00-4.75 1.76 7.06 7.06 0 00-2.2 4.68zm7.59-14.65h2.48v22.93h11.09v2.23H373.9zm32.1 9.02a10.76 10.76 0 012.12 7.51h-15.75a7.24 7.24 0 002.23 4.88 6.88 6.88 0 004.9 1.85 8.58 8.58 0 003.35-.65 7.67 7.67 0 002.66-1.84l1.37 1.34a9.39 9.39 0 01-3.29 2.29 10.81 10.81 0 01-4.23.81 9.67 9.67 0 01-4.86-1.21 8.63 8.63 0 01-3.33-3.37 10.65 10.65 0 010-9.85 8.6 8.6 0 013.33-3.38 9.53 9.53 0 014.79-1.21 8.19 8.19 0 016.71 2.83zm0 5.63a6.9 6.9 0 00-2-4.7 6.38 6.38 0 00-4.66-1.75 6.73 6.73 0 00-4.75 1.76 7.06 7.06 0 00-2.2 4.68zm19 10.52v-3.17a6.84 6.84 0 01-3 2.46 10 10 0 01-4.14.81 7.35 7.35 0 01-3.37-.74 5.38 5.38 0 01-3-5 4.54 4.54 0 011.89-3.85 8.56 8.56 0 015.2-1.4h6.34v-1.39a4.46 4.46 0 00-1.33-3.46 5.55 5.55 0 00-3.89-1.22 10.2 10.2 0 00-6.08 2.27l-1.08-1.66a16.09 16.09 0 013.64-2 11.54 11.54 0 014-.63 7.57 7.57 0 015.29 1.71 6.2 6.2 0 011.91 4.73v12.49zM422.59 42a5.73 5.73 0 002.41-3.32v-2.59h-6.08a7.07 7.07 0 00-3.78.83 2.75 2.75 0 00-1.3 2.48 3.35 3.35 0 001.16 2.72 5 5 0 003.29 1 7.49 7.49 0 004.3-1.12zm16.31-14.71a7.75 7.75 0 014.19-1.17v2.27a6.45 6.45 0 00-4.81 1.75 7.36 7.36 0 00-2.06 4.86v10.06h-2.41V26.19h2.41v4.39a7.22 7.22 0 012.68-3.29zm23.26.79a7.36 7.36 0 011.93 5.38v11.6h-2.45V34a5.73 5.73 0 00-1.48-4.18 5.47 5.47 0 00-4.1-1.51 6.38 6.38 0 00-4.66 1.8 7.38 7.38 0 00-2 4.75v10.2H447V26.19h2.41v4.39a7 7 0 012.86-3.31 9.13 9.13 0 014.59-1.15 7.1 7.1 0 015.3 1.96zm10.78-8.53a1.67 1.67 0 01.47 1.21 1.7 1.7 0 01-.49 1.22 1.57 1.57 0 01-1.17.5 1.61 1.61 0 01-1.21-.5 1.7 1.7 0 01-.49-1.22 1.66 1.66 0 011.69-1.69 1.58 1.58 0 011.2.48zm-2.41 6.64h2.41v18.87h-2.41zm24.6 1.89a7.36 7.36 0 011.93 5.38v11.6h-2.45V34a5.73 5.73 0 00-1.48-4.18 5.47 5.47 0 00-4.1-1.51 6.38 6.38 0 00-4.66 1.8 7.38 7.38 0 00-2 4.75v10.2H480V26.19h2.41v4.39a7 7 0 012.86-3.31 9.13 9.13 0 014.59-1.15 7.1 7.1 0 015.27 1.96zm24.68-1.89v16.89a9.61 9.61 0 01-1.15 4.79 7.74 7.74 0 01-3.3 3.13 10.7 10.7 0 01-4.95 1.1 12.06 12.06 0 01-7.74-2.88l1.15-1.73a10.83 10.83 0 003 1.91 9 9 0 003.46.65 7.06 7.06 0 005.17-1.89 6.77 6.77 0 001.93-5.06v-3.05a7.47 7.47 0 01-2.88 3.1 8.27 8.27 0 01-4.32 1.12 8.58 8.58 0 01-4.48-1.17 8.12 8.12 0 01-3.06-3.24 9.86 9.86 0 01-1.1-4.7 9.76 9.76 0 011.1-4.68 8 8 0 013.08-3.2 8.79 8.79 0 014.5-1.15 8.19 8.19 0 014.28 1.1 7.62 7.62 0 012.88 3.11v-4.15zm-5.69 15.21a6.38 6.38 0 002.41-2.54 7.6 7.6 0 00.86-3.64 7.68 7.68 0 00-.86-3.67 6.38 6.38 0 00-2.41-2.55 7.1 7.1 0 00-7 0 6.51 6.51 0 00-2.43 2.54 7.54 7.54 0 00-.88 3.67 7.44 7.44 0 00.88 3.65 6.58 6.58 0 002.41 2.52 7.14 7.14 0 007 0zm29.63-13.16a7.13 7.13 0 00-3.64.94 6.52 6.52 0 00-2.52 2.61 8 8 0 00-.9 3.83 8.07 8.07 0 00.9 3.85 6.48 6.48 0 002.52 2.63 7.13 7.13 0 003.64.94 8.54 8.54 0 003.37-.65 6.84 6.84 0 002.57-1.87l1.37 1.48a8.41 8.41 0 01-3.17 2.34 10.56 10.56 0 01-4.25.83 9.6 9.6 0 01-4.82-1.21 8.6 8.6 0 01-3.33-3.38 10.61 10.61 0 010-9.83 8.6 8.6 0 013.33-3.38 9.6 9.6 0 014.82-1.21 10.81 10.81 0 014 .72 9.07 9.07 0 013.11 2l-1.37 1.62a7.81 7.81 0 00-5.63-2.26zm24.25-.91a8.69 8.69 0 013.38 3.37 9.76 9.76 0 011.22 4.9 9.93 9.93 0 01-1.22 4.95 8.66 8.66 0 01-3.38 3.37 10.54 10.54 0 01-9.79 0 8.66 8.66 0 01-3.38-3.38 9.93 9.93 0 01-1.22-4.95 9.76 9.76 0 011.22-4.9 8.69 8.69 0 013.38-3.37 10.54 10.54 0 019.79 0zm-8.57 1.82a6.49 6.49 0 00-2.52 2.63 8.77 8.77 0 000 7.74 6.48 6.48 0 002.52 2.63 7.67 7.67 0 007.34 0 6.49 6.49 0 002.52-2.63 8.78 8.78 0 000-7.74 6.5 6.5 0 00-2.52-2.63 7.67 7.67 0 00-7.34 0zm34.47-2.96v18.87h-2.45v-4.5a7.07 7.07 0 01-2.79 3.38 8.55 8.55 0 01-4.48 1.19 6.93 6.93 0 01-5.24-2 7.43 7.43 0 01-1.94-5.35V26.19h2.45v11a5.7 5.7 0 001.55 4.18 5.35 5.35 0 004 1.49 6 6 0 004.75-2.07 8 8 0 001.73-5.35v-9.25zm12.1 1.1a7.75 7.75 0 014.19-1.17v2.27a6.45 6.45 0 00-4.81 1.75 7.36 7.36 0 00-2.05 4.86v10.06h-2.41V26.19h2.41v4.39a7.22 7.22 0 012.67-3.29zm15.44 1.19a9.6 9.6 0 00-2.63-.38 5.31 5.31 0 00-2.9.7 2.33 2.33 0 00-1.1 2.11 2.18 2.18 0 00.59 1.58 4.49 4.49 0 001.48 1 23.13 23.13 0 002.47.85 25 25 0 013.17 1.13 5.74 5.74 0 012.09 1.62 4.28 4.28 0 01.86 2.79 4.46 4.46 0 01-1.94 3.91 8.32 8.32 0 01-4.86 1.35 11.65 11.65 0 01-4-.68 8.75 8.75 0 01-3.2-1.94l1-1.73a9.16 9.16 0 002.9 1.76 9.35 9.35 0 003.4.65 5.58 5.58 0 003.11-.79 2.59 2.59 0 001.21-2.3 2.43 2.43 0 00-.61-1.71 4.24 4.24 0 00-1.53-1q-.92-.38-2.54-.88a25.36 25.36 0 01-3.1-1.12 5.46 5.46 0 01-2-1.57 4.13 4.13 0 01-.83-2.68 4.23 4.23 0 011.85-3.74 8 8 0 014.67-1.33 11.34 11.34 0 013.13.43 10.23 10.23 0 012.7 1.19l-.94 1.84a9.16 9.16 0 00-2.45-1.06zm22.86.43a10.76 10.76 0 012.12 7.51h-15.73a7.24 7.24 0 002.23 4.88 6.88 6.88 0 004.9 1.85 8.58 8.58 0 003.35-.65 7.67 7.67 0 002.66-1.84L645.2 42a9.39 9.39 0 01-3.29 2.29 10.81 10.81 0 01-4.23.81 9.67 9.67 0 01-4.86-1.21 8.63 8.63 0 01-3.33-3.37 10.65 10.65 0 010-9.85 8.6 8.6 0 013.33-3.38 9.53 9.53 0 014.79-1.21 8.19 8.19 0 016.69 2.83zm0 5.63a6.9 6.9 0 00-2-4.7 6.38 6.38 0 00-4.66-1.75 6.73 6.73 0 00-4.75 1.76 7.06 7.06 0 00-2.2 4.68zm-494.67 95.4h9.6v1.83h-7.7v4.54h6.89v1.83h-6.89v4.68h7.94v1.83h-9.83zm16.99 5.37a4.85 4.85 0 00-1.49-.25 2.43 2.43 0 00-1.33.33 1.11 1.11 0 00-.5 1 1.12 1.12 0 00.56 1 7.92 7.92 0 001.71.7 12.78 12.78 0 011.78.67 3.2 3.2 0 011.17 1 2.82 2.82 0 01.48 1.72 2.79 2.79 0 01-1.12 2.39 4.56 4.56 0 01-2.77.82 6.55 6.55 0 01-2.26-.4 5.07 5.07 0 01-1.85-1.13l.69-1.43a4.84 4.84 0 001.61 1 5.06 5.06 0 001.87.38 2.66 2.66 0 001.46-.36 1.21 1.21 0 00.55-1.09 1.26 1.26 0 00-.58-1.13 7.68 7.68 0 00-1.77-.76 11.34 11.34 0 01-1.71-.64 3.07 3.07 0 01-1.12-1 3.1 3.1 0 01.6-4 4.41 4.41 0 012.67-.78 6.29 6.29 0 011.87.28 5.46 5.46 0 011.59.77L168 136a6.08 6.08 0 00-1.38-.69zM177 143.9a4.31 4.31 0 01-2.45.82 2.69 2.69 0 01-2-.79 3.29 3.29 0 01-.77-2.38v-6.15h-1.48v-1.49h1.48v-3h1.86v3h3.2v1.49h-3.2v5.8a2.16 2.16 0 00.32 1.32 1.13 1.13 0 00.95.4 3.17 3.17 0 001.62-.52zm8.64.74v-1.55a4.17 4.17 0 01-3.65 1.64 4 4 0 01-1.91-.44 3.13 3.13 0 01-1.26-1.22 3.44 3.44 0 01-.44-1.74 2.92 2.92 0 011-2.36 4.45 4.45 0 012.89-.89h3.32v-.52a2.37 2.37 0 00-.68-1.82 2.79 2.79 0 00-2-.64 5.47 5.47 0 00-3.22 1.2l-.77-1.34a9.35 9.35 0 012.08-1.12 6.71 6.71 0 012.28-.35 4.2 4.2 0 013 1 3.81 3.81 0 011.09 2.85v7.31zm-1.1-2.19a2.63 2.63 0 001.08-1.75v-1.11h-3.06a3.39 3.39 0 00-1.85.4 1.4 1.4 0 00-.6 1.26 1.68 1.68 0 00.61 1.36 2.5 2.5 0 001.64.5 3.58 3.58 0 002.18-.67zm14.6-8.27a4.79 4.79 0 011.78 2 7.14 7.14 0 010 5.85 4.68 4.68 0 01-1.76 2 4.82 4.82 0 01-2.6.7 4.53 4.53 0 01-2.33-.59 4.1 4.1 0 01-1.58-1.68v2.21h-1.84v-15.61h1.84v6.68a4.12 4.12 0 011.57-1.68 4.45 4.45 0 012.3-.59 4.83 4.83 0 012.62.71zM198 142.5a3.39 3.39 0 001.24-1.41 4.56 4.56 0 00.44-2 4.42 4.42 0 00-.45-2 3.48 3.48 0 00-1.24-1.41 3.26 3.26 0 00-1.8-.5 3.31 3.31 0 00-1.81.5 3.46 3.46 0 00-1.25 1.41 4.77 4.77 0 000 4.06 3.47 3.47 0 001.25 1.4 3.49 3.49 0 003.61 0zm6.22-13.44h1.84v15.58h-1.84zm7.25.39a1.41 1.41 0 010 1.81 1.12 1.12 0 01-1.64 0 1.41 1.41 0 010-1.81 1.12 1.12 0 011.64 0zm-1.73 4.07h1.84v11.11h-1.84zm9.69 1.79a4.85 4.85 0 00-1.49-.25 2.43 2.43 0 00-1.33.33 1.11 1.11 0 00-.5 1 1.12 1.12 0 00.56 1 7.92 7.92 0 001.71.7 12.78 12.78 0 011.78.67 3.2 3.2 0 011.17 1 2.82 2.82 0 01.48 1.72 2.79 2.79 0 01-1.12 2.39 4.56 4.56 0 01-2.77.82 6.55 6.55 0 01-2.26-.4 5.07 5.07 0 01-1.85-1.13l.69-1.43a4.84 4.84 0 001.61 1 5.06 5.06 0 001.87.38 2.66 2.66 0 001.46-.36 1.21 1.21 0 00.55-1.09 1.26 1.26 0 00-.58-1.13 7.68 7.68 0 00-1.77-.76 11.34 11.34 0 01-1.71-.64 3.07 3.07 0 01-1.12-1 3.1 3.1 0 01.6-4 4.41 4.41 0 012.67-.78 6.29 6.29 0 011.87.28 5.46 5.46 0 011.59.77l-.67 1.49a6.08 6.08 0 00-1.44-.58zm13.57-.7a4.51 4.51 0 011 3.16v6.87h-1.84v-6.34a3.08 3.08 0 00-.74-2.19 2.67 2.67 0 00-2-.79 3 3 0 00-2.41 1.09 4.2 4.2 0 00-.89 2.77v5.46h-1.84v-15.58h1.84v6.87a4 4 0 014-2.46 3.71 3.71 0 012.88 1.14zm15.14 9.29a4.31 4.31 0 01-2.45.82 2.69 2.69 0 01-2-.79 3.29 3.29 0 01-.77-2.38v-6.15h-1.48v-1.49h1.48v-3h1.86v3H248v1.49h-3.2v5.8a2.16 2.16 0 00.32 1.32 1.13 1.13 0 00.95.4 3.17 3.17 0 001.62-.52zm11.04-9.29a4.51 4.51 0 011 3.16v6.87h-1.84v-6.34a3.08 3.08 0 00-.74-2.19 2.67 2.67 0 00-2-.79 3 3 0 00-2.41 1.09 4.2 4.2 0 00-.89 2.77v5.46h-1.84v-15.58h1.84v6.87a4 4 0 014-2.46 3.71 3.71 0 012.88 1.14zm12.18.39a6.51 6.51 0 011.24 4.23v.63h-8.25a3.86 3.86 0 001.17 2.37 3.35 3.35 0 002.36.88 4.18 4.18 0 001.73-.36 4.14 4.14 0 001.39-1l1 1.11a5.27 5.27 0 01-1.86 1.37 5.86 5.86 0 01-2.41.48A5.28 5.28 0 01265 144a4.8 4.8 0 01-1.86-2 6.27 6.27 0 01-.66-2.92 6.21 6.21 0 01.66-2.91 5 5 0 011.85-2 5.07 5.07 0 012.7-.72 4.46 4.46 0 013.67 1.55zm-.42 3.35A3.5 3.5 0 00270 136a3.09 3.09 0 00-2.29-.87 3.19 3.19 0 00-2.3.88 3.79 3.79 0 00-1.1 2.37zm7.61-4.82h1.92l2.92 9.18 2.88-9.18h1.92l2.9 9.18 2.88-9.18h1.9L292 144.64h-1.92l-2.88-8.74-2.88 8.74h-1.92zm27.83 1.08a4.51 4.51 0 011 3.16v6.87h-1.84v-6.34a3.08 3.08 0 00-.74-2.19 2.67 2.67 0 00-2-.79 3 3 0 00-2.41 1.09 4.2 4.2 0 00-.89 2.77v5.46h-1.84v-15.58h1.84v6.87a4 4 0 014-2.46 3.71 3.71 0 012.88 1.14zm6.29 13.53a3 3 0 01-1.93.65 3.43 3.43 0 01-1.22-.21 3.61 3.61 0 01-1.07-.65l.79-1.53a2.3 2.3 0 001.4.52 1.92 1.92 0 001.78-1.43l.4-1-4.32-11h1.94l3.32 8.9 3.14-8.9h1.88L314 146.21a4.44 4.44 0 01-1.33 1.93zm20.1-13.96a5 5 0 011.9 2 6.06 6.06 0 01.68 2.91 6.12 6.12 0 01-.68 2.92 5 5 0 01-1.9 2 5.78 5.78 0 01-5.57 0 5 5 0 01-1.9-2 6.59 6.59 0 010-5.84 5 5 0 011.9-2 5.78 5.78 0 015.57 0zm-4.6 1.49a3.4 3.4 0 00-1.24 1.4 4.49 4.49 0 00-.44 2 4.61 4.61 0 00.44 2.06 3.32 3.32 0 001.24 1.4 3.4 3.4 0 001.83.47 3.37 3.37 0 001.81-.49 3.32 3.32 0 001.24-1.4 4.6 4.6 0 00.44-2.06 4.48 4.48 0 00-.44-2 3.4 3.4 0 00-1.24-1.4 3.31 3.31 0 00-1.81-.5 3.35 3.35 0 00-1.83.52zm12.33-4.54a1.76 1.76 0 00-.47 1.32v1.45h2.88v1.49H340v9.24h-1.84v-9.23h-1.36v-1.49h1.36v-1.2a4.12 4.12 0 01.48-2.07 3.24 3.24 0 011.27-1.28 3.49 3.49 0 011.7-.43 3.87 3.87 0 011.82.5L343 131a3 3 0 00-1.34-.36 1.63 1.63 0 00-1.16.49zm11.6 17.01a3 3 0 01-1.93.65 3.43 3.43 0 01-1.22-.21 3.61 3.61 0 01-1.07-.65l.79-1.53a2.3 2.3 0 001.4.52 1.92 1.92 0 001.78-1.43l.4-1-4.32-11h1.94l3.32 8.9 3.14-8.9h1.88l-4.78 12.68a4.44 4.44 0 01-1.33 1.97zm14.57-13.96a5 5 0 011.9 2 6.06 6.06 0 01.68 2.91 6.12 6.12 0 01-.68 2.92 5 5 0 01-1.9 2 5.78 5.78 0 01-5.57 0 5 5 0 01-1.9-2 6.59 6.59 0 010-5.84 5 5 0 011.9-2 5.78 5.78 0 015.57 0zm-4.6 1.49a3.4 3.4 0 00-1.24 1.4 4.49 4.49 0 00-.44 2 4.61 4.61 0 00.44 2.06 3.32 3.32 0 001.24 1.4 3.4 3.4 0 001.83.49 3.37 3.37 0 001.81-.49 3.32 3.32 0 001.24-1.4 4.6 4.6 0 00.44-2.06 4.48 4.48 0 00-.44-2 3.4 3.4 0 00-1.24-1.4 3.31 3.31 0 00-1.81-.5 3.35 3.35 0 00-1.83.5zm18.93-2.14v11.11h-1.86v-2.35a3.9 3.9 0 01-3.87 2.42 3.62 3.62 0 01-2.84-1.14 4.56 4.56 0 01-1-3.16v-6.87h1.86v6.34a3.13 3.13 0 00.72 2.19 2.56 2.56 0 002 .79 2.86 2.86 0 002.32-1.1 4.3 4.3 0 00.86-2.76v-5.46zm6.92.58a4.15 4.15 0 012.25-.64v1.89a3.38 3.38 0 00-2.59.88 3.83 3.83 0 00-1.12 2.54v5.86h-1.84v-11.11h1.84v2.39a4 4 0 011.46-1.81zm-230.06 25.27a4.79 4.79 0 011.78 2 7.14 7.14 0 010 5.85 4.68 4.68 0 01-1.76 2 4.82 4.82 0 01-2.6.7 4.53 4.53 0 01-2.33-.59 4.1 4.1 0 01-1.58-1.68v6.28h-1.84v-15.21h1.84v2.21a4.12 4.12 0 011.57-1.68 4.45 4.45 0 012.3-.59 4.83 4.83 0 012.62.71zm-1.16 8.32a3.39 3.39 0 001.24-1.41 4.56 4.56 0 00.44-2 4.42 4.42 0 00-.45-2 3.48 3.48 0 00-1.24-1.41 3.26 3.26 0 00-1.8-.5 3.31 3.31 0 00-1.81.5 3.46 3.46 0 00-1.25 1.41 4.77 4.77 0 000 4.06 3.47 3.47 0 001.25 1.4 3.49 3.49 0 003.61 0zm9.43-8.39a4.15 4.15 0 012.25-.64v1.89a3.38 3.38 0 00-2.59.88 3.83 3.83 0 00-1.12 2.54v5.86h-1.84v-11.11h1.84v2.39a4 4 0 011.46-1.81zm11.37.07a5 5 0 011.9 2 6.06 6.06 0 01.68 2.91 6.12 6.12 0 01-.68 2.92 5 5 0 01-1.9 2 5.78 5.78 0 01-5.57 0 5 5 0 01-1.9-2 6.59 6.59 0 010-5.84 5 5 0 011.9-2 5.78 5.78 0 015.57 0zm-4.6 1.49a3.4 3.4 0 00-1.24 1.4 4.49 4.49 0 00-.44 2 4.61 4.61 0 00.44 2.06 3.32 3.32 0 001.24 1.4 3.4 3.4 0 001.83.49 3.37 3.37 0 001.81-.49 3.32 3.32 0 001.24-1.4 4.6 4.6 0 00.44-2.06 4.48 4.48 0 00-.44-2 3.4 3.4 0 00-1.24-1.4 3.31 3.31 0 00-1.81-.5 3.35 3.35 0 00-1.83.5zm8.16 11.45a1.26 1.26 0 001.15-.55 2.9 2.9 0 00.4-1.66v-11.38h1.86v11.65a4 4 0 01-.78 2.66 2.71 2.71 0 01-2.2.93 4.65 4.65 0 01-1.8-.38l.43-1.49a3.4 3.4 0 00.94.22zm3.27-17.66a1.41 1.41 0 010 1.81 1.12 1.12 0 01-1.64 0 1.41 1.41 0 010-1.81 1.12 1.12 0 011.64 0zm11.36 5.53a6.51 6.51 0 011.24 4.23v.63h-8.25a3.86 3.86 0 001.17 2.37 3.35 3.35 0 002.36.88 4.18 4.18 0 001.73-.36 4.14 4.14 0 001.39-1l1 1.11a5.27 5.27 0 01-1.86 1.37 5.86 5.86 0 01-2.41.48 5.28 5.28 0 01-2.73-.7 4.8 4.8 0 01-1.86-2 6.27 6.27 0 01-.66-2.92 6.21 6.21 0 01.66-2.91 5 5 0 011.85-2 5.07 5.07 0 012.7-.72 4.46 4.46 0 013.67 1.54zm-.42 3.35a3.5 3.5 0 00-.95-2.38 3.09 3.09 0 00-2.29-.87 3.19 3.19 0 00-2.3.88 3.79 3.79 0 00-1.1 2.37zm8.51-3.13a3.46 3.46 0 00-1.83.48 3.34 3.34 0 00-1.25 1.36 4.39 4.39 0 00-.45 2 4.47 4.47 0 00.44 2 3.39 3.39 0 001.22 1.38 3.27 3.27 0 001.79.49 4.45 4.45 0 001.82-.36 3.47 3.47 0 001.34-1l1 1.13a4.65 4.65 0 01-1.81 1.45 5.86 5.86 0 01-2.48.5 5.13 5.13 0 01-2.7-.71 4.91 4.91 0 01-1.85-2 6.21 6.21 0 01-.66-2.91 6.27 6.27 0 01.66-2.92 4.9 4.9 0 011.85-2 5.14 5.14 0 012.7-.71 6.26 6.26 0 012.38.43 4.6 4.6 0 011.77 1.25l-1 1.34a4 4 0 00-2.94-1.2zm12.36 8.69a4.31 4.31 0 01-2.45.82 2.69 2.69 0 01-2-.79 3.29 3.29 0 01-.77-2.38v-6.15h-1.48v-1.49h1.48v-3h1.86v3H216v1.49h-3.2v5.8a2.16 2.16 0 00.32 1.32 1.13 1.13 0 00.95.4 3.17 3.17 0 001.62-.52zm-57.27 56.72a9.16 9.16 0 00-2.77-.55 2.57 2.57 0 00-1.39.32 1.06 1.06 0 00-.51.95 1.3 1.3 0 00.44 1 3.36 3.36 0 001.09.65q.65.25 1.92.64a25.06 25.06 0 013.13 1.09 5.49 5.49 0 012.12 1.68 4.66 4.66 0 01.88 3 5 5 0 01-1 3.11 5.83 5.83 0 01-2.64 1.94 10.27 10.27 0 01-3.73.65 13.49 13.49 0 01-4.51-.79 12.35 12.35 0 01-3.89-2.17l1.85-3.72a11.48 11.48 0 003.26 2 8.91 8.91 0 003.34.78 3.1 3.1 0 001.68-.39 1.27 1.27 0 00.61-1.14 1.35 1.35 0 00-.45-1 3.37 3.37 0 00-1.14-.66q-.69-.25-1.94-.58a23.89 23.89 0 01-3.09-1.05 5.48 5.48 0 01-2.09-1.61 4.43 4.43 0 01-.87-2.87 5 5 0 01.9-3 5.71 5.71 0 012.55-2 9.9 9.9 0 013.83-.69 13.92 13.92 0 013.9.56 12.85 12.85 0 013.38 1.49l-1.79 3.8a16 16 0 00-3.07-1.44zm5.76-4.08h15.63v3.93h-5.46V240H170v-14.3h-5.41zm17.55 0h14.38v3.8h-9.62v3.41h8.68v3.77h-8.68v3.43h9.88V240h-14.64zm30.97 1.68a5.93 5.93 0 011.92 4.72 6.48 6.48 0 01-1.92 5 7.66 7.66 0 01-5.41 1.78h-3.25v5h-4.76v-18.18h8a8 8 0 015.42 1.68zm-3.39 7a2.72 2.72 0 00.79-2.11 2.61 2.61 0 00-.79-2 3.25 3.25 0 00-2.25-.72h-3v5.59h3a3.21 3.21 0 002.25-.78zm30.06-1.24h-3.51l-.47 3.59h3.48L239 236h-3.51l-.49 4h-3.33l.49-4h-3.54l-.49 4h-3.33l.49-4h-3.48l.36-3.22h3.51l.47-3.59h-3.48l.36-3.25h3.51l.52-4.19h3.33l-.52 4.19h3.54l.52-4.19h3.33l-.52 4.19h3.48zm-7.31 3.59l.47-3.59h-3.54l-.47 3.59zm22.91 3.37V240h-13.88v-3.15l6.63-6.81a9.38 9.38 0 001.27-1.61 2.78 2.78 0 00.49-1.38 1.35 1.35 0 00-.55-1.16 2.55 2.55 0 00-1.53-.4 5.93 5.93 0 00-2.43.61 10.64 10.64 0 00-2.59 1.7l-1.83-3.54a12.84 12.84 0 017.57-2.73 8.46 8.46 0 013.26.6 5.27 5.27 0 012.26 1.69 4.05 4.05 0 01.82 2.5 5.53 5.53 0 01-.92 2.9 18.08 18.08 0 01-2.61 3.19l-3.72 3.74zm-96.23 22.23h1.68v5.4a8.25 8.25 0 01-2.45 1.41 7.9 7.9 0 01-2.78.52 7 7 0 01-3.65-1 7.18 7.18 0 01-2.62-2.73 7.71 7.71 0 01-1-3.79 7.53 7.53 0 011-3.77 7.2 7.2 0 016.36-3.69 7.75 7.75 0 015.19 2l-1.09 1.47a6 6 0 00-1.91-1.27 5.63 5.63 0 00-2.2-.45 5.15 5.15 0 00-2.72.76 5.46 5.46 0 00-2 2.06 6 6 0 000 5.72 5.59 5.59 0 002 2.08 5.09 5.09 0 002.72.77 5.48 5.48 0 001.77-.3 6.45 6.45 0 001.67-.85zm11.47 7.18V264a4.17 4.17 0 01-3.65 1.64 4 4 0 01-1.91-.44 3.13 3.13 0 01-1.26-1.22 3.44 3.44 0 01-.44-1.74 2.92 2.92 0 011-2.36 4.45 4.45 0 012.89-.89h3.32v-.52a2.37 2.37 0 00-.68-1.82 2.79 2.79 0 00-2-.64 5.47 5.47 0 00-3.22 1.2l-.77-1.34a9.35 9.35 0 012.08-1.12 6.71 6.71 0 012.28-.35 4.2 4.2 0 013 1 3.81 3.81 0 011.09 2.85v7.31zm-1.1-2.19a2.63 2.63 0 001.08-1.75v-1.11h-3.06a3.39 3.39 0 00-1.85.4 1.4 1.4 0 00-.6 1.26 1.68 1.68 0 00.61 1.37 2.5 2.5 0 001.64.5 3.58 3.58 0 002.18-.68zm11.8 1.45a4.31 4.31 0 01-2.45.82 2.69 2.69 0 01-2-.79 3.28 3.28 0 01-.77-2.38v-6.15h-1.48v-1.49h1.48v-3H178v3h3.2v1.49H178v5.8a2.16 2.16 0 00.32 1.32 1.14 1.14 0 00.95.4 3.17 3.17 0 001.62-.52zm11.03-9.29a4.51 4.51 0 011 3.16v6.87h-1.79v-6.34a3.08 3.08 0 00-.74-2.19 2.67 2.67 0 00-2-.79 3 3 0 00-2.41 1.09 4.2 4.2 0 00-.89 2.77v5.46h-1.84V250h1.84v6.87a4 4 0 014-2.46 3.71 3.71 0 012.83 1.11zm12.18.38a6.51 6.51 0 011.24 4.23v.63h-8.25a3.86 3.86 0 001.17 2.37 3.35 3.35 0 002.36.88 4.18 4.18 0 001.73-.36 4.13 4.13 0 001.39-1l1 1.11a5.29 5.29 0 01-1.86 1.37 5.86 5.86 0 01-2.41.48 5.29 5.29 0 01-2.73-.7 4.81 4.81 0 01-1.86-2 6.27 6.27 0 01-.66-2.92 6.21 6.21 0 01.66-2.91 5 5 0 011.85-2 5.07 5.07 0 012.7-.72 4.46 4.46 0 013.67 1.54zm-.42 3.35a3.5 3.5 0 00-.95-2.38 3.09 3.09 0 00-2.29-.87 3.19 3.19 0 00-2.3.88 3.79 3.79 0 00-1.1 2.37zm7.47-4.25a4.15 4.15 0 012.25-.64v1.89a3.38 3.38 0 00-2.59.88 3.83 3.83 0 00-1.12 2.54v5.86h-1.84v-11.09h1.84v2.39a4 4 0 011.46-1.83zm11.76 14.05a3 3 0 01-1.93.65 3.43 3.43 0 01-1.22-.21 3.62 3.62 0 01-1.07-.65l.79-1.53a2.3 2.3 0 001.4.53 1.92 1.92 0 001.78-1.43l.4-1-4.32-11h1.94l3.32 8.9 3.14-8.9h1.88l-4.78 12.68a4.44 4.44 0 01-1.33 1.96zm14.57-13.96a5 5 0 011.9 2 6.57 6.57 0 010 5.83 5 5 0 01-1.9 2 5.78 5.78 0 01-5.57 0 5 5 0 01-1.9-2 6.6 6.6 0 010-5.84 5 5 0 011.9-2 5.78 5.78 0 015.57 0zm-4.6 1.49a3.4 3.4 0 00-1.24 1.4 4.49 4.49 0 00-.44 2 4.6 4.6 0 00.44 2.06 3.32 3.32 0 001.24 1.4 3.4 3.4 0 001.83.49 3.37 3.37 0 001.81-.49 3.31 3.31 0 001.24-1.4 4.6 4.6 0 00.44-2.06 4.48 4.48 0 00-.44-2 3.4 3.4 0 00-1.24-1.4 3.31 3.31 0 00-1.81-.5 3.35 3.35 0 00-1.83.5zm18.98-2.14v11.11h-1.86v-2.35a3.9 3.9 0 01-3.87 2.42 3.62 3.62 0 01-2.84-1.14 4.56 4.56 0 01-1-3.16v-6.87h1.86v6.34a3.13 3.13 0 00.72 2.2 2.56 2.56 0 002 .79 2.86 2.86 0 002.32-1.1 4.3 4.3 0 00.86-2.76v-5.46zm6.87.56a4.15 4.15 0 012.25-.64v1.89a3.38 3.38 0 00-2.59.88 3.83 3.83 0 00-1.12 2.54v5.86h-1.84v-11.09h1.84v2.39a4 4 0 011.46-1.83zm13.8 1.12a3.46 3.46 0 00-1.83.48 3.34 3.34 0 00-1.25 1.36 4.39 4.39 0 00-.45 2 4.47 4.47 0 00.44 2 3.39 3.39 0 001.22 1.38 3.27 3.27 0 001.79.49 4.45 4.45 0 001.82-.36 3.47 3.47 0 001.34-1l1 1.13a4.65 4.65 0 01-1.81 1.45 5.86 5.86 0 01-2.48.5 5.13 5.13 0 01-2.7-.71 4.91 4.91 0 01-1.85-2 6.21 6.21 0 01-.66-2.91 6.27 6.27 0 01.66-2.92 4.9 4.9 0 011.85-2 5.14 5.14 0 012.7-.71 6.26 6.26 0 012.38.43 4.6 4.6 0 011.77 1.25l-1 1.34a4 4 0 00-2.94-1.2zm16-1.68v11.11h-1.86v-2.35a3.9 3.9 0 01-3.87 2.42 3.62 3.62 0 01-2.84-1.14 4.56 4.56 0 01-1-3.16v-6.87h1.86v6.34a3.13 3.13 0 00.72 2.2 2.56 2.56 0 002 .79 2.86 2.86 0 002.32-1.1 4.3 4.3 0 00.86-2.76v-5.46zm6.82.56a4.15 4.15 0 012.25-.64v1.89a3.38 3.38 0 00-2.59.88 3.83 3.83 0 00-1.12 2.54v5.86h-1.84v-11.09h1.84v2.39a4 4 0 011.46-1.83zm7.54 0a4.15 4.15 0 012.25-.64v1.89a3.38 3.38 0 00-2.59.88 3.83 3.83 0 00-1.12 2.54v5.86h-1.84v-11.09h1.84v2.39a4 4 0 011.46-1.83zm12.1.9a6.51 6.51 0 011.24 4.23v.63h-8.25a3.86 3.86 0 001.17 2.37 3.35 3.35 0 002.38.87 4.18 4.18 0 001.73-.36 4.13 4.13 0 001.39-1l1 1.11a5.29 5.29 0 01-1.86 1.37 5.86 5.86 0 01-2.41.48 5.29 5.29 0 01-2.73-.7 4.81 4.81 0 01-1.86-2 6.27 6.27 0 01-.66-2.92 6.21 6.21 0 01.66-2.91 5 5 0 011.85-2 5.07 5.07 0 012.7-.72 4.46 4.46 0 013.65 1.55zm-.42 3.35a3.5 3.5 0 00-.95-2.38 3.09 3.09 0 00-2.29-.87 3.19 3.19 0 00-2.3.88 3.79 3.79 0 00-1.1 2.37zm12.86-3.73a4.51 4.51 0 011 3.16v6.87h-1.84v-6.34a3.08 3.08 0 00-.74-2.19 2.67 2.67 0 00-2-.79 3.06 3.06 0 00-2.28 1 3.87 3.87 0 00-1 2.43v5.94h-1.84v-11.16h1.84v2.35a4 4 0 014-2.42 3.71 3.71 0 012.86 1.15zm9.93 9.29a4.31 4.31 0 01-2.45.82 2.69 2.69 0 01-2-.79 3.28 3.28 0 01-.77-2.38v-6.15h-1.48v-1.49h1.48v-3h1.86v3h3.2v1.49h-3.2v5.8a2.16 2.16 0 00.32 1.32 1.14 1.14 0 00.95.4 3.17 3.17 0 001.62-.52zm23.71-9.28a4.57 4.57 0 011 3.15v6.87h-1.86v-6.34A3.17 3.17 0 00360 257a2.54 2.54 0 00-2-.8 2.93 2.93 0 00-2.33 1.11 4.29 4.29 0 00-.85 2.75v5.48H353v-6.34a3.2 3.2 0 00-.71-2.21 2.53 2.53 0 00-2-.8 3 3 0 00-2.34 1.11 4.26 4.26 0 00-.86 2.75v5.48h-1.84v-11.09h1.84v2.33a3.92 3.92 0 013.89-2.39 3.82 3.82 0 012.4.73 3.62 3.62 0 011.29 2.06 4 4 0 014.07-2.79 3.59 3.59 0 012.8 1.15zm10.68 10.02V264a4.17 4.17 0 01-3.65 1.64 4 4 0 01-1.91-.44 3.13 3.13 0 01-1.26-1.2 3.44 3.44 0 01-.44-1.74 2.92 2.92 0 011-2.36 4.45 4.45 0 012.89-.89h3.32v-.52a2.37 2.37 0 00-.68-1.82 2.79 2.79 0 00-2-.64 5.47 5.47 0 00-3.22 1.2l-.77-1.34a9.35 9.35 0 012.08-1.12 6.71 6.71 0 012.28-.35 4.2 4.2 0 013 1 3.81 3.81 0 011.09 2.85v7.31zm-1.1-2.19a2.63 2.63 0 001.08-1.75v-1.11h-3.06a3.39 3.39 0 00-1.85.4 1.4 1.4 0 00-.6 1.26 1.68 1.68 0 00.61 1.37 2.5 2.5 0 001.64.5 3.58 3.58 0 002.19-.68zm11.8 1.45a4.31 4.31 0 01-2.45.82 2.69 2.69 0 01-2-.79 3.28 3.28 0 01-.77-2.38v-6.15h-1.48v-1.49h1.48v-3h1.86v3h3.2v1.49h-3.2v5.8a2.16 2.16 0 00.32 1.32 1.14 1.14 0 00.95.4 3.17 3.17 0 001.62-.52zm9.95-8.91a6.51 6.51 0 011.24 4.23v.63h-8.25a3.86 3.86 0 001.17 2.37 3.35 3.35 0 002.36.88 4.18 4.18 0 001.73-.36 4.13 4.13 0 001.39-1l1 1.11a5.29 5.29 0 01-1.86 1.37 5.86 5.86 0 01-2.41.48 5.29 5.29 0 01-2.73-.7 4.81 4.81 0 01-1.86-2A6.27 6.27 0 01384 260a6.21 6.21 0 01.66-2.91 5 5 0 011.85-2 5.07 5.07 0 012.7-.72 4.46 4.46 0 013.66 1.53zm-.42 3.35a3.5 3.5 0 00-.95-2.38 3.09 3.09 0 00-2.29-.87 3.19 3.19 0 00-2.3.88 3.79 3.79 0 00-1.1 2.37zm7.47-4.25a4.15 4.15 0 012.25-.64v1.89a3.38 3.38 0 00-2.59.88 3.83 3.83 0 00-1.12 2.54v5.86h-1.84v-11.09h1.84v2.39a4 4 0 011.46-1.83zm5.97-4.64a1.41 1.41 0 010 1.81 1.12 1.12 0 01-1.64 0 1.41 1.41 0 010-1.81 1.12 1.12 0 011.64 0zm-1.73 4.07H406v11.11h-1.84zM416 265.55V264a4.17 4.17 0 01-3.65 1.64 4 4 0 01-1.91-.44 3.13 3.13 0 01-1.26-1.22 3.44 3.44 0 01-.44-1.74 2.92 2.92 0 011-2.36 4.45 4.45 0 012.89-.89h3.32v-.52a2.37 2.37 0 00-.68-1.82 2.79 2.79 0 00-2-.64 5.47 5.47 0 00-3.22 1.2l-.77-1.34a9.35 9.35 0 012.08-1.12 6.71 6.71 0 012.28-.35 4.2 4.2 0 013 1 3.81 3.81 0 011.09 2.85v7.31zm-1.1-2.19a2.63 2.63 0 001.08-1.75v-1.11h-3.06a3.39 3.39 0 00-1.85.4 1.4 1.4 0 00-.6 1.26 1.68 1.68 0 00.61 1.37 2.5 2.5 0 001.64.5 3.58 3.58 0 002.13-.68zm6.24-13.36H423v15.58h-1.84zm9.8 6.22a4.85 4.85 0 00-1.49-.25 2.43 2.43 0 00-1.33.33 1.11 1.11 0 00-.5 1 1.12 1.12 0 00.56 1 7.92 7.92 0 001.71.7 12.78 12.78 0 011.78.67 3.2 3.2 0 011.17 1 2.82 2.82 0 01.48 1.72 2.79 2.79 0 01-1.12 2.39 4.56 4.56 0 01-2.77.82 6.56 6.56 0 01-2.26-.4 5.07 5.07 0 01-1.85-1.13l.69-1.43a4.84 4.84 0 001.61 1 5.06 5.06 0 001.87.38 2.66 2.66 0 001.46-.36 1.21 1.21 0 00.55-1.09 1.27 1.27 0 00-.58-1.13 7.68 7.68 0 00-1.77-.76 11.34 11.34 0 01-1.71-.64 3.07 3.07 0 01-1.12-1 3.1 3.1 0 01.6-4 4.41 4.41 0 012.67-.78 6.29 6.29 0 011.87.28 5.46 5.46 0 011.59.77l-.67 1.49a6.08 6.08 0 00-1.44-.58zm-272.07 88.6a9.17 9.17 0 00-2.77-.55 2.56 2.56 0 00-1.39.33 1.06 1.06 0 00-.51.95 1.3 1.3 0 00.44 1 3.36 3.36 0 001.09.65q.65.25 1.92.64a24.9 24.9 0 013.13 1.09 5.49 5.49 0 012.12 1.68 4.66 4.66 0 01.88 3 5 5 0 01-1 3.11 5.83 5.83 0 01-2.64 1.94 10.27 10.27 0 01-3.73.65 13.49 13.49 0 01-4.51-.79 12.36 12.36 0 01-3.89-2.17l1.85-3.72a11.46 11.46 0 003.26 2 8.9 8.9 0 003.34.78 3.1 3.1 0 001.68-.39 1.27 1.27 0 00.61-1.14 1.35 1.35 0 00-.45-1 3.37 3.37 0 00-1.14-.66q-.69-.25-1.94-.58a23.89 23.89 0 01-3.09-1.05 5.48 5.48 0 01-2.09-1.61 4.43 4.43 0 01-.87-2.87 5 5 0 01.9-3 5.72 5.72 0 012.55-2 9.9 9.9 0 013.83-.69 13.94 13.94 0 013.9.56 12.87 12.87 0 013.38 1.5l-1.79 3.8a16 16 0 00-3.07-1.46zm5.76-4.08h15.63v3.93h-5.46V359H170v-14.3h-5.41zm17.55 0h14.38v3.8h-9.62v3.41h8.68v3.77h-8.68v3.43h9.88V359h-14.64zm30.97 1.68a5.93 5.93 0 011.92 4.72 6.48 6.48 0 01-1.92 5 7.66 7.66 0 01-5.41 1.78h-3.25v5h-4.76v-18.18h8a8 8 0 015.42 1.68zm-3.39 7a2.72 2.72 0 00.79-2.11 2.61 2.61 0 00-.79-2 3.25 3.25 0 00-2.25-.72h-3v5.59h3a3.21 3.21 0 002.25-.78zm30.06-1.24h-3.51l-.47 3.59h3.48L239 355h-3.51l-.49 4h-3.33l.49-4h-3.54l-.49 4h-3.33l.49-4h-3.48l.36-3.22h3.51l.47-3.59h-3.48l.36-3.25h3.51l.52-4.19h3.33l-.52 4.19h3.54l.52-4.19h3.33l-.52 4.19h3.48zm-7.31 3.59l.47-3.59h-3.54l-.47 3.59zm21.49-1.92a4.51 4.51 0 011.34 3.37 5.41 5.41 0 01-.91 3.09 6 6 0 01-2.57 2.11 9.37 9.37 0 01-3.9.75 13 13 0 01-3.94-.61 10.55 10.55 0 01-3.26-1.62l1.77-3.35A8.46 8.46 0 00245 355a7.28 7.28 0 002.6.49 3.89 3.89 0 002.31-.58 2 2 0 00.81-1.68 1.91 1.91 0 00-.81-1.66 4 4 0 00-2.34-.57h-3.07v-2.6l4.21-4.06h-7v-3.64h12.74v2.76l-5 4.55 1 .18a6.14 6.14 0 013.55 1.66zm-95.1 20.95a6.81 6.81 0 012.56 2.64 8 8 0 010 7.52 6.87 6.87 0 01-2.58 2.63 7.16 7.16 0 01-3.67 1h-5.57v-14.7h5.63a7.06 7.06 0 013.63.91zm-1 11.2a5.08 5.08 0 001.86-2 6.16 6.16 0 000-5.65 5.21 5.21 0 00-1.89-2 5 5 0 00-2.66-.72h-3.69v11h3.77a4.93 4.93 0 002.62-.63zm8.74-12.64a1.41 1.41 0 010 1.81 1.12 1.12 0 01-1.64 0 1.41 1.41 0 010-1.81 1.12 1.12 0 011.64 0zm-1.73 4.07h1.84v11.11h-1.84zm9.68 1.79a4.85 4.85 0 00-1.49-.25 2.43 2.43 0 00-1.33.33 1.11 1.11 0 00-.5 1 1.12 1.12 0 00.56 1 7.89 7.89 0 001.71.7 12.84 12.84 0 011.78.67 3.19 3.19 0 011.17 1 2.82 2.82 0 01.48 1.72 2.78 2.78 0 01-1.12 2.39 4.55 4.55 0 01-2.77.82 6.54 6.54 0 01-2.26-.4 5.07 5.07 0 01-1.85-1.13l.69-1.43a4.84 4.84 0 001.61 1 5.06 5.06 0 001.87.38 2.66 2.66 0 001.46-.36 1.21 1.21 0 00.55-1.09 1.26 1.26 0 00-.58-1.13 7.68 7.68 0 00-1.77-.76 11.29 11.29 0 01-1.71-.64 3.07 3.07 0 01-1.12-1 3.1 3.1 0 01.6-4 4.41 4.41 0 012.67-.78 6.3 6.3 0 011.87.28 5.43 5.43 0 011.59.77l-.7 1.59a6.1 6.1 0 00-1.41-.68zm10.41 8.59a4.31 4.31 0 01-2.45.82 2.69 2.69 0 01-2-.79 3.29 3.29 0 01-.77-2.38v-6.15h-1.48v-1.49h1.48v-3h1.86v3h3.2v1.49h-3.2v5.8a2.15 2.15 0 00.32 1.32 1.13 1.13 0 00.95.4 3.17 3.17 0 001.62-.52zm4-14.45a1.41 1.41 0 010 1.81 1.12 1.12 0 01-1.64 0 1.41 1.41 0 010-1.81 1.12 1.12 0 011.64 0zm-1.73 4.07h1.84v11.11h-1.84zm5.48-4.43h1.84v15.58h-1.84zm5.62 0h1.84v15.58h-1.84zm13.04 19.05a3 3 0 01-1.93.65 3.45 3.45 0 01-1.22-.21 3.61 3.61 0 01-1.07-.65l.79-1.53a2.3 2.3 0 001.4.52 1.92 1.92 0 001.78-1.43l.4-1-4.32-11h1.94l3.32 8.9 3.14-8.9h1.88l-4.78 12.68a4.44 4.44 0 01-1.33 1.97zM226 374.09a5 5 0 011.9 2 6.06 6.06 0 01.68 2.91 6.12 6.12 0 01-.68 2.92 5 5 0 01-1.9 2 5.78 5.78 0 01-5.57 0 5 5 0 01-1.9-2 6.59 6.59 0 010-5.84 5 5 0 011.9-2 5.78 5.78 0 015.57 0zm-4.6 1.49a3.41 3.41 0 00-1.24 1.4 4.5 4.5 0 00-.44 2 4.61 4.61 0 00.44 2.06 3.32 3.32 0 001.24 1.4 3.4 3.4 0 001.83.49 3.37 3.37 0 001.81-.49 3.31 3.31 0 001.24-1.4 4.6 4.6 0 00.44-2.06 4.49 4.49 0 00-.44-2 3.4 3.4 0 00-1.24-1.4 3.32 3.32 0 00-1.81-.5 3.35 3.35 0 00-1.85.5zm18.96-2.14v11.11h-1.86v-2.35a3.9 3.9 0 01-3.87 2.42 3.62 3.62 0 01-2.84-1.14 4.56 4.56 0 01-1-3.16v-6.87h1.86v6.34a3.13 3.13 0 00.72 2.19 2.55 2.55 0 002 .79 2.86 2.86 0 002.32-1.1 4.3 4.3 0 00.86-2.76v-5.46zm6.87.56a4.16 4.16 0 012.25-.64v1.89a3.38 3.38 0 00-2.59.88 3.84 3.84 0 00-1.12 2.54v5.86h-1.84v-11.09h1.84v2.39a4 4 0 011.46-1.83zm15.03 9.81a4.31 4.31 0 01-2.45.82 2.69 2.69 0 01-2-.79 3.29 3.29 0 01-.77-2.38v-6.15h-1.48v-1.49H257v-3h1.86v3h3.2v1.49h-3.2v5.8a2.15 2.15 0 00.32 1.32 1.13 1.13 0 00.95.4 3.17 3.17 0 001.62-.52zm9.21-9.72a5 5 0 011.9 2A6.06 6.06 0 01274 379a6.12 6.12 0 01-.68 2.92 5 5 0 01-1.9 2 5.78 5.78 0 01-5.57 0 5 5 0 01-1.9-2 6.59 6.59 0 010-5.84 5 5 0 011.9-2 5.78 5.78 0 015.57 0zm-4.6 1.49a3.41 3.41 0 00-1.24 1.4 4.5 4.5 0 00-.44 2 4.61 4.61 0 00.44 2.06 3.32 3.32 0 001.24 1.4 3.4 3.4 0 001.83.49 3.37 3.37 0 001.81-.49 3.31 3.31 0 001.24-1.4 4.6 4.6 0 00.44-2.06 4.49 4.49 0 00-.44-2 3.4 3.4 0 00-1.24-1.4 3.32 3.32 0 00-1.81-.5 3.35 3.35 0 00-1.83.5zm18.13-1.49a4.79 4.79 0 011.78 2 7.14 7.14 0 010 5.85 4.68 4.68 0 01-1.76 2 4.82 4.82 0 01-2.6.7 4.54 4.54 0 01-2.33-.59 4.1 4.1 0 01-1.58-1.68v6.28h-1.84v-15.21h1.84v2.21a4.13 4.13 0 011.57-1.68 4.46 4.46 0 012.3-.59 4.82 4.82 0 012.62.71zm-1.16 8.32a3.39 3.39 0 001.24-1.41 4.56 4.56 0 00.44-2 4.42 4.42 0 00-.45-2 3.48 3.48 0 00-1.24-1.41 3.26 3.26 0 00-1.8-.5 3.31 3.31 0 00-1.81.5 3.46 3.46 0 00-1.25 1.41 4.77 4.77 0 000 4.06 3.47 3.47 0 001.25 1.4 3.49 3.49 0 003.61 0zm7.88-13.05a1.41 1.41 0 010 1.81 1.12 1.12 0 01-1.64 0 1.41 1.41 0 010-1.81 1.12 1.12 0 011.64 0zm-1.72 4.08h1.84v11.11H290zm9.75 1.68a3.46 3.46 0 00-1.83.48 3.34 3.34 0 00-1.25 1.37 4.39 4.39 0 00-.45 2 4.47 4.47 0 00.44 2 3.39 3.39 0 001.22 1.38 3.27 3.27 0 001.79.49 4.45 4.45 0 001.82-.36 3.47 3.47 0 001.34-1l1 1.13a4.66 4.66 0 01-1.81 1.45 5.86 5.86 0 01-2.48.5 5.13 5.13 0 01-2.7-.71 4.91 4.91 0 01-1.85-2 6.21 6.21 0 01-.66-2.91 6.27 6.27 0 01.66-2.92 4.9 4.9 0 011.85-2 5.13 5.13 0 012.7-.71 6.27 6.27 0 012.38.43 4.61 4.61 0 011.77 1.25l-1 1.34a4 4 0 00-2.94-1.21zm13.65-5.76a1.41 1.41 0 010 1.81 1.12 1.12 0 01-1.64 0 1.41 1.41 0 010-1.81 1.12 1.12 0 011.64 0zm-1.73 4.07h1.84v11.11h-1.84zm14.1 1.09a4.51 4.51 0 011 3.16v6.87H325v-6.34a3.08 3.08 0 00-.74-2.19 2.67 2.67 0 00-2-.79 3.06 3.06 0 00-2.28 1 3.87 3.87 0 00-1 2.43v5.94h-1.84v-11.16h1.84v2.35a4 4 0 014-2.42 3.71 3.71 0 012.79 1.15zm9.93 9.29a4.31 4.31 0 01-2.45.82 2.69 2.69 0 01-2-.79 3.29 3.29 0 01-.77-2.38v-6.15H329v-1.49h1.48v-3h1.86v3h3.2v1.49h-3.2v5.8a2.15 2.15 0 00.32 1.32 1.13 1.13 0 00.95.4 3.17 3.17 0 001.62-.52zm9.21-9.72a5 5 0 011.9 2 6.06 6.06 0 01.68 2.91 6.12 6.12 0 01-.68 2.92 5 5 0 01-1.9 2 5.78 5.78 0 01-5.57 0 5 5 0 01-1.9-2 6.59 6.59 0 010-5.84 5 5 0 011.9-2 5.78 5.78 0 015.57 0zm-4.6 1.49a3.41 3.41 0 00-1.24 1.4 4.5 4.5 0 00-.44 2 4.61 4.61 0 00.44 2.06 3.32 3.32 0 001.24 1.4 3.4 3.4 0 001.83.49 3.37 3.37 0 001.81-.49 3.31 3.31 0 001.24-1.4 4.6 4.6 0 00.44-2.06 4.49 4.49 0 00-.44-2 3.4 3.4 0 00-1.24-1.4 3.32 3.32 0 00-1.81-.5 3.35 3.35 0 00-1.83.5zm21.29 8.97V383a4.17 4.17 0 01-3.65 1.64 4 4 0 01-1.91-.44 3.13 3.13 0 01-1.26-1.22 3.45 3.45 0 01-.44-1.74 2.92 2.92 0 011-2.36 4.44 4.44 0 012.89-.89h3.32v-.53a2.37 2.37 0 00-.68-1.82 2.79 2.79 0 00-2-.64 5.47 5.47 0 00-3.22 1.2l-.77-1.34a9.37 9.37 0 012.08-1.12 6.7 6.7 0 012.28-.35 4.2 4.2 0 013 1 3.81 3.81 0 011.09 2.84v7.31zm-1.1-2.19a2.63 2.63 0 001.08-1.75v-1.11h-3.06a3.4 3.4 0 00-1.85.4 1.4 1.4 0 00-.6 1.26 1.67 1.67 0 00.61 1.36 2.5 2.5 0 001.64.5 3.58 3.58 0 002.18-.67zm14.88-7.84a4.51 4.51 0 011 3.16v6.87h-1.84v-6.34a3.08 3.08 0 00-.74-2.19 2.67 2.67 0 00-2-.79 3.06 3.06 0 00-2.28 1 3.87 3.87 0 00-1 2.43v5.94h-1.84v-11.16h1.84v2.35a4 4 0 014-2.42 3.71 3.71 0 012.86 1.15zM157.31 400.1a6.51 6.51 0 011.24 4.23v.63h-8.25a3.86 3.86 0 001.17 2.37 3.35 3.35 0 002.36.88 4.15 4.15 0 003.12-1.37l1 1.11a5.29 5.29 0 01-1.86 1.37 5.86 5.86 0 01-2.41.48 5.29 5.29 0 01-2.73-.7 4.81 4.81 0 01-1.86-2 6.28 6.28 0 01-.66-2.92 6.21 6.21 0 01.66-2.91 5 5 0 011.85-2 5.07 5.07 0 012.7-.72 4.47 4.47 0 013.67 1.55zm-.42 3.35a3.5 3.5 0 00-.95-2.38 3.09 3.09 0 00-2.29-.87 3.19 3.19 0 00-2.3.88 3.79 3.79 0 00-1.1 2.37zm4.35-8.45h1.9v12.87h6v1.83h-7.94zm18.02 5.1a6.51 6.51 0 011.24 4.23v.63h-8.25a3.86 3.86 0 001.17 2.37 3.35 3.35 0 002.36.88 4.15 4.15 0 003.12-1.37l1 1.11a5.29 5.29 0 01-1.86 1.37 5.86 5.86 0 01-2.41.48 5.29 5.29 0 01-2.73-.7 4.81 4.81 0 01-1.86-2 6.28 6.28 0 01-.66-2.92 6.21 6.21 0 01.66-2.91 5 5 0 011.85-2 5.07 5.07 0 012.7-.72 4.47 4.47 0 013.67 1.55zm-.42 3.35a3.5 3.5 0 00-.95-2.38 3.09 3.09 0 00-2.29-.87 3.19 3.19 0 00-2.3.88 3.79 3.79 0 00-1.1 2.37zm10.55 6.3v-1.55a4.18 4.18 0 01-3.65 1.64 4 4 0 01-1.91-.44 3.12 3.12 0 01-1.26-1.22 3.44 3.44 0 01-.44-1.74 2.93 2.93 0 011-2.36 4.45 4.45 0 012.89-.89h3.32v-.52a2.37 2.37 0 00-.68-1.82 2.79 2.79 0 00-2-.64 5.47 5.47 0 00-3.22 1.2l-.77-1.34a9.33 9.33 0 012.08-1.12 6.72 6.72 0 012.28-.35 4.2 4.2 0 013 1 3.81 3.81 0 011.09 2.85v7.31zm-1.1-2.2a2.63 2.63 0 001.08-1.75v-1.11h-3.06a3.39 3.39 0 00-1.85.4 1.4 1.4 0 00-.6 1.26 1.68 1.68 0 00.61 1.37 2.5 2.5 0 001.64.5 3.58 3.58 0 002.18-.67zm9.49-8.33a4.14 4.14 0 012.25-.64v1.89a3.38 3.38 0 00-2.59.88 3.83 3.83 0 00-1.12 2.54v5.86h-1.84v-11.11h1.84V401a4 4 0 011.46-1.78zm12.93.5a4.51 4.51 0 011 3.16v6.87h-1.84v-6.34a3.08 3.08 0 00-.74-2.2 2.67 2.67 0 00-2-.79 3.05 3.05 0 00-2.28 1 3.87 3.87 0 00-1 2.43v5.94H202v-11.15h1.84V401a4 4 0 014-2.41 3.71 3.71 0 012.87 1.13zm6.05-5.16a1.42 1.42 0 010 1.81 1.12 1.12 0 01-1.64 0 1.42 1.42 0 010-1.81 1.12 1.12 0 011.64 0zm-1.76 4.08h1.84v11.11H215zm14.13 1.08a4.51 4.51 0 011 3.16v6.87h-1.84v-6.34a3.08 3.08 0 00-.74-2.2 2.67 2.67 0 00-2-.79 3.05 3.05 0 00-2.28 1 3.87 3.87 0 00-1 2.43v5.94h-1.84v-11.15h1.84V401a4 4 0 014-2.41 3.71 3.71 0 012.86 1.13zm13.56-1.08v10a5.68 5.68 0 01-.66 2.79 4.51 4.51 0 01-1.87 1.84 5.89 5.89 0 01-2.8.64 6.86 6.86 0 01-4.3-1.55l.81-1.43a5.51 5.51 0 001.6 1 4.93 4.93 0 001.82.33 3.33 3.33 0 003.55-3.55v-1.55a4 4 0 01-1.5 1.56 4.21 4.21 0 01-2.17.56 4.45 4.45 0 01-4.15-2.58 6.3 6.3 0 01-.59-2.79 6.12 6.12 0 01.59-2.75 4.5 4.5 0 011.67-1.87 4.58 4.58 0 012.48-.67 4.26 4.26 0 012.18.54 4 4 0 011.49 1.55v-2zm-3.46 8.55a3.3 3.3 0 001.17-1.33 4.24 4.24 0 00.42-1.92 4.3 4.3 0 00-.42-1.94 3.3 3.3 0 00-1.17-1.33 3.1 3.1 0 00-1.72-.48 3.15 3.15 0 00-1.73.48 3.35 3.35 0 00-1.18 1.33 4.21 4.21 0 00-.43 1.94 4 4 0 00.95 2.69 3.06 3.06 0 002.41 1 3.1 3.1 0 001.71-.44zm16.27-6.77a4.85 4.85 0 00-1.49-.25 2.43 2.43 0 00-1.33.33 1.11 1.11 0 00-.5 1 1.12 1.12 0 00.56 1 7.94 7.94 0 001.71.7 12.72 12.72 0 011.78.67 3.2 3.2 0 011.17 1 2.82 2.82 0 01.48 1.72 2.79 2.79 0 01-1.12 2.39 4.57 4.57 0 01-2.77.82 6.56 6.56 0 01-2.26-.4 5.07 5.07 0 01-1.85-1.13l.69-1.43a4.84 4.84 0 001.61 1 5.06 5.06 0 001.87.38 2.66 2.66 0 001.46-.36 1.21 1.21 0 00.55-1.09 1.26 1.26 0 00-.58-1.13 7.68 7.68 0 00-1.77-.76 11.39 11.39 0 01-1.71-.64 3.07 3.07 0 01-1.12-1 3.1 3.1 0 01.6-4 4.41 4.41 0 012.67-.78 6.27 6.27 0 011.87.28 5.48 5.48 0 011.59.77l-.67 1.49a6.05 6.05 0 00-1.44-.58zm9.15-.1a3.46 3.46 0 00-1.83.48 3.33 3.33 0 00-1.25 1.36 4.39 4.39 0 00-.45 2 4.47 4.47 0 00.44 2 3.39 3.39 0 001.22 1.38 3.27 3.27 0 001.79.49 4.45 4.45 0 001.82-.36 3.46 3.46 0 001.34-1l1 1.13a4.65 4.65 0 01-1.81 1.45 5.86 5.86 0 01-2.48.5 5.14 5.14 0 01-2.7-.71 4.91 4.91 0 01-1.85-2 6.2 6.2 0 01-.66-2.91 6.27 6.27 0 01.66-2.92 4.9 4.9 0 011.85-2 5.15 5.15 0 012.7-.71 6.25 6.25 0 012.38.43 4.59 4.59 0 011.77 1.25l-1 1.34a4 4 0 00-2.94-1.2zm10.05-1.1a4.14 4.14 0 012.25-.64v1.89a3.38 3.38 0 00-2.59.88 3.83 3.83 0 00-1.12 2.54v5.86h-1.84v-11.11h1.84V401a4 4 0 011.46-1.78zm5.97-4.66a1.42 1.42 0 010 1.81 1.12 1.12 0 01-1.64 0 1.42 1.42 0 010-1.81 1.12 1.12 0 011.64 0zm-1.73 4.07h1.84v11.11h-1.84zm13.82.66a4.79 4.79 0 011.78 2 7.14 7.14 0 010 5.85 4.68 4.68 0 01-1.76 2 4.83 4.83 0 01-2.6.7 4.53 4.53 0 01-2.33-.59 4.1 4.1 0 01-1.58-1.68v6.28h-1.84v-15.21h1.84v2.21a4.11 4.11 0 011.57-1.68 4.44 4.44 0 012.3-.59 4.84 4.84 0 012.62.71zm-1.16 8.32a3.39 3.39 0 001.24-1.41 4.56 4.56 0 00.44-2 4.43 4.43 0 00-.45-2 3.49 3.49 0 00-1.24-1.41 3.27 3.27 0 00-1.8-.5 3.32 3.32 0 00-1.81.5 3.46 3.46 0 00-1.25 1.41 4.77 4.77 0 000 4.06 3.47 3.47 0 001.25 1.4 3.49 3.49 0 003.61 0zm11.74 1.39a4.31 4.31 0 01-2.45.82 2.69 2.69 0 01-2-.79 3.29 3.29 0 01-.77-2.38v-6.15h-1.48V399h1.48v-3H300v3h3.2v1.49H300v5.8a2.16 2.16 0 00.32 1.32 1.14 1.14 0 00.95.4 3.16 3.16 0 001.62-.53zm239.89-145.61h-1.35v-34.73a6.28 6.28 0 00-6.23-6.31H501v41h-1.35V221h36a7.63 7.63 0 017.58 7.66z" class="cls-2"/>
  <path d="M586 288.74h-7v-1.35h5.64v-65H550a6.28 6.28 0 00-6.23 6.31v34.73h-1.35v-34.77A7.63 7.63 0 01550 221h36zm-78.63-58.53h16.43v1.35h-16.43zm0 10.8h27.67v1.35h-27.67zm0 7.93h27.67v1.35h-27.67zm0 7.93h19.76v1.35h-19.76z" class="cls-2"/>
  <path d="M572.06 301h-70.62a1.86 1.86 0 01-1.85-1.86v-29.42a1.86 1.86 0 011.85-1.86h70.62a1.86 1.86 0 011.85 1.86v29.41a1.86 1.86 0 01-1.85 1.87zm-70.62-31.79a.51.51 0 00-.5.51v29.41a.51.51 0 00.5.51h70.62a.51.51 0 00.5-.51v-29.41a.51.51 0 00-.5-.51z" class="cls-2"/>
  <path d="M506.2 275.97h5.54v1.35h-5.54zm9.26 0H521v1.35h-5.54zm9.26 0h5.53v1.35h-5.53zm9.26 0h5.53v1.35h-5.53zm9.26 0h5.53v1.35h-5.53zm9.26 0h5.53v1.35h-5.53zm9.26 0h5.53v1.35h-5.53zm-55.56 7.78h5.54v1.35h-5.54zm9.26 0H521v1.35h-5.54zm9.26 0h5.53v1.35h-5.53zm9.26 0h5.53v1.35h-5.53zm9.26 0h5.53v1.35h-5.53zm9.26 0h5.53v1.35h-5.53zm9.26 0h5.53v1.35h-5.53zm-55.56 7.79h5.54v1.35h-5.54zm9.26 0H521v1.35h-5.54zm9.26 0h33.4v1.35h-33.4zm37.04 0h5.53v1.35h-5.53zm1.37-62.08h1.35V235h-1.35zm-9.58 6.697l.68-1.166 4.742 2.77-.68 1.166zm.35 10.66l4.743-2.767.68 1.166-4.74 2.767zm12.11-1.16l.676-1.16 4.722 2.745-.675 1.16zm2.933-8.407l4.74-2.77.68 1.164-4.74 2.772zm1.997 20.25l-13.62-.13 6.92-11.88zm-11.29-1.5l9 .08-4.42-7.91z" class="cls-2"/>
  <path d="M564.087 263.683l.068-6.73 1.35.014-.068 6.73zm9.563 118.447h-1.24v-37.84a2.07 2.07 0 00-2.08-2.05H525a2.07 2.07 0 00-2.08 2.05v30h-1.24v-30A3.31 3.31 0 01525 341h45.37a3.31 3.31 0 013.32 3.29zm-33.07 28.05h11.69v1.24h-11.69zm-8.19-5.82h15.84v1.24h-15.84z" class="cls-2"/>
  <path d="M526.94 348.87h41.41v1.24h-41.41zm55.6 72.13h-1.24v-4.42l.25-.19a7.79 7.79 0 003.21-6.31v-14.77l-.16-3.23a2.57 2.57 0 00-2.6-2.58c-1.71 0-2.58.59-2.58 1.75h-1.22v-.79a2.58 2.58 0 00-5.15 0h-1.24v-1.58a2.58 2.58 0 00-5.15 0v1.77h-1.24v-18.23a2.69 2.69 0 00-5.38 0v32h-1.24l-.07-1.56v-6.57a4.24 4.24 0 00-4.27-4.21h-1v5.38l.07.5h-.07v7.34l9 10.65a16.9 16.9 0 003.61 1.74l.47.11v3.2h-1.24v-2.2a21 21 0 01-3.59-1.8l-.14-.12-9.41-11.07v-14.98h2.23a5.52 5.52 0 014.34 2.1v-20.5a3.93 3.93 0 017.86 0v13.67a3.83 3.83 0 016.25 1.72 3.83 3.83 0 016.28 1.25 4.48 4.48 0 012.85-.81 3.81 3.81 0 013.82 3.79l.16 3.23v14.8a9 9 0 01-3.46 7.12zm-55.37-10.16l-1.15-.47a17.56 17.56 0 001.29-6.67c0-5.07-2.1-9.75-5.47-12.21l-.37-.27 2-5.86 1.65.05a4.76 4.76 0 003.42-1.34 4.7 4.7 0 001.46-3.34v-1.4l-9.86-.15-4.63 10.37v20.8h-1.24v-21.07l5.08-11.36 11.85.18v.58a2.71 2.71 0 010 .28v1.78a5.93 5.93 0 01-1.84 4.21 6.06 6.06 0 01-4.3 1.68h-.74l-1.39 4.14c3.47 2.75 5.61 7.66 5.61 12.94a18.82 18.82 0 01-1.37 7.13z" class="cls-2"/>
  <path d="M536.83 421h-1.24v-9.49h-24.07V421h-1.24v-10.73h26.55V421zm7.74-54.74h-14.35v-11h14.35zM531.46 365h11.87v-8.49h-11.87zm-2.46 6.51h24.92v1.24H529zm5.73 6.48h19.18v1.24h-19.18zm0 6.49h19.18v1.24h-19.18zm-5.73 6.48h18.57v1.24H529zm34.32-27.07h-1.24v-2.48h1.24zm0-5h-1.24v-2.48h1.24zm0-5h-1.24v-.21h1.24zm63.9-248.98a9.16 9.16 0 00-2.77-.55 2.57 2.57 0 00-1.39.32 1.06 1.06 0 00-.51.95 1.3 1.3 0 00.44 1 3.36 3.36 0 001.09.65q.65.25 1.92.64a25.06 25.06 0 013.13 1.09 5.49 5.49 0 012.12 1.68 4.66 4.66 0 01.88 3 5 5 0 01-1 3.11 5.83 5.83 0 01-2.64 1.94 10.27 10.27 0 01-3.73.65 13.49 13.49 0 01-4.51-.79 12.35 12.35 0 01-3.89-2.17l1.85-3.72a11.48 11.48 0 003.26 2 8.91 8.91 0 003.34.78 3.1 3.1 0 001.68-.39 1.27 1.27 0 00.61-1.14 1.35 1.35 0 00-.45-1 3.37 3.37 0 00-1.14-.66q-.69-.25-1.94-.58a23.89 23.89 0 01-3.09-1.05 5.48 5.48 0 01-2.09-1.61 4.43 4.43 0 01-.87-2.87 5 5 0 01.9-3 5.71 5.71 0 012.55-2 9.9 9.9 0 013.83-.69 13.92 13.92 0 013.9.56 12.85 12.85 0 013.38 1.49l-1.79 3.8a16 16 0 00-3.07-1.44zm5.78-4.08h15.6v3.93h-5.46v14.3h-4.76v-14.3H633zm17.53 0h14.38v3.8h-9.62V108H664v3.77h-8.68v3.43h9.88v3.8h-14.67zm30.96 1.68a5.93 5.93 0 011.92 4.72 6.48 6.48 0 01-1.92 5 7.66 7.66 0 01-5.41 1.78h-3.25v5h-4.76v-18.18h8a8 8 0 015.42 1.68zm-3.39 7a2.72 2.72 0 00.79-2.11 2.61 2.61 0 00-.79-2 3.25 3.25 0 00-2.25-.72h-3v5.59h3a3.21 3.21 0 002.25-.78zm30.07-1.24h-3.51l-.47 3.59h3.48l-.36 3.22h-3.51l-.49 4H700l.49-4h-3.54l-.49 4h-3.33l.49-4h-3.48l.36-3.22h3.5l.47-3.59H691l.36-3.25h3.51l.52-4.19h3.33l-.52 4.19h3.54l.52-4.19h3.33L705 105h3.48zm-7.31 3.59l.47-3.59h-3.54l-.47 3.59zm22.96-.34v3.61h-2.34v3.93h-4.37v-3.93h-8.24v-3.22l5.13-11.08h4.52l-4.86 10.69h3.41v-3.87h4.37v3.87zm-96.58 19.37a6.81 6.81 0 012.56 2.64 8 8 0 010 7.52 6.86 6.86 0 01-2.58 2.64 7.16 7.16 0 01-3.67 1H618v-14.7h5.63a7.06 7.06 0 013.61.9zm-1 11.2a5.08 5.08 0 001.86-2 6.15 6.15 0 000-5.65 5.2 5.2 0 00-1.88-2 5 5 0 00-2.66-.72h-3.69v11h3.77a4.93 4.93 0 002.62-.62zm14.87-7.09a6.51 6.51 0 011.24 4.23v.63h-8.25a3.87 3.87 0 001.17 2.37 3.36 3.36 0 002.36.88 4.19 4.19 0 001.73-.36 4.14 4.14 0 001.39-1l1 1.11a5.29 5.29 0 01-1.86 1.37 5.86 5.86 0 01-2.41.48 5.28 5.28 0 01-2.73-.7 4.81 4.81 0 01-1.86-2 6.28 6.28 0 01-.66-2.92 6.21 6.21 0 01.66-2.91 5 5 0 011.85-2 5.07 5.07 0 012.7-.72 4.47 4.47 0 013.67 1.54zm-.42 3.35a3.5 3.5 0 00-.95-2.38 3.09 3.09 0 00-2.29-.87 3.18 3.18 0 00-2.3.88 3.79 3.79 0 00-1.1 2.37zm6.76-7.22a1.76 1.76 0 00-.47 1.32v1.45h2.88v1.49H647v9.24h-1.84v-9.23h-1.36v-1.49h1.36v-1.2a4.13 4.13 0 01.48-2.07 3.24 3.24 0 011.27-1.28 3.49 3.49 0 011.7-.43 3.87 3.87 0 011.82.5L650 131a3 3 0 00-1.34-.36 1.63 1.63 0 00-1.21.49zm5.81-1.68a1.42 1.42 0 010 1.81 1.12 1.12 0 01-1.64 0 1.41 1.41 0 010-1.81 1.12 1.12 0 011.64 0zm-1.73 4.07h1.84v11.11h-1.84zm14.1 1.09a4.51 4.51 0 011 3.16v6.87h-1.84v-6.34a3.08 3.08 0 00-.74-2.19 2.67 2.67 0 00-2-.79 3.06 3.06 0 00-2.28 1 3.87 3.87 0 00-1 2.43v5.94h-1.84v-11.16h1.84v2.35a4 4 0 014-2.42 3.71 3.71 0 012.86 1.15zm12.18.39a6.5 6.5 0 011.24 4.23v.63h-8.25a3.86 3.86 0 001.17 2.37 3.35 3.35 0 002.36.88 4.18 4.18 0 001.73-.36 4.14 4.14 0 001.39-1l1 1.11a5.27 5.27 0 01-1.86 1.37 5.86 5.86 0 01-2.41.48 5.29 5.29 0 01-2.73-.7 4.81 4.81 0 01-1.86-2 6.27 6.27 0 01-.66-2.92 6.2 6.2 0 01.66-2.91 5 5 0 011.85-2 5.08 5.08 0 012.71-.72 4.46 4.46 0 013.66 1.54zm-.41 3.35a3.5 3.5 0 00-.95-2.38 3.1 3.1 0 00-2.29-.87 3.19 3.19 0 00-2.3.88 3.79 3.79 0 00-1.1 2.37zm14.94 5.55a4.31 4.31 0 01-2.45.82 2.69 2.69 0 01-2-.79 3.28 3.28 0 01-.77-2.38v-6.15h-1.48v-1.49h1.48v-3H689v3h3.2v1.49H689v5.8a2.15 2.15 0 00.32 1.32 1.13 1.13 0 00.95.4 3.17 3.17 0 001.62-.52zm11.04-9.29a4.51 4.51 0 011 3.16v6.87h-1.84v-6.34a3.08 3.08 0 00-.74-2.19 2.67 2.67 0 00-2-.79 3 3 0 00-2.41 1.09 4.2 4.2 0 00-.89 2.77v5.46h-1.84v-15.58h1.84v6.87a4 4 0 014-2.46 3.71 3.71 0 012.88 1.14zm12.18.39a6.51 6.51 0 011.24 4.23v.63h-8.25a3.87 3.87 0 001.17 2.37 3.36 3.36 0 002.36.88 4.19 4.19 0 001.73-.36 4.14 4.14 0 001.39-1l1 1.11a5.29 5.29 0 01-1.86 1.37 5.86 5.86 0 01-2.41.48 5.28 5.28 0 01-2.73-.7 4.81 4.81 0 01-1.86-2 6.28 6.28 0 01-.66-2.92 6.21 6.21 0 01.66-2.91 5 5 0 011.85-2 5.07 5.07 0 012.7-.72 4.47 4.47 0 013.67 1.54zm-.42 3.35a3.5 3.5 0 00-.95-2.38 3.09 3.09 0 00-2.29-.87 3.18 3.18 0 00-2.3.88 3.79 3.79 0 00-1.1 2.37zm7.61-4.82h2l3.14 9.18 3.12-9.18h1.86l-4.07 11.11h-1.92zm13.53-4.08a1.42 1.42 0 010 1.81 1.12 1.12 0 01-1.64 0 1.42 1.42 0 010-1.81 1.12 1.12 0 011.64 0zm-1.73 4.07h1.84v11.11h-1.84zm9.68 1.79a4.84 4.84 0 00-1.49-.25 2.43 2.43 0 00-1.33.33 1.11 1.11 0 00-.5 1 1.12 1.12 0 00.56 1 7.89 7.89 0 001.71.7 12.74 12.74 0 011.78.67 3.2 3.2 0 011.17 1 2.82 2.82 0 01.48 1.72 2.79 2.79 0 01-1.12 2.39 4.56 4.56 0 01-2.77.82 6.56 6.56 0 01-2.26-.4 5.07 5.07 0 01-1.85-1.13l.69-1.43a4.84 4.84 0 001.61 1 5.06 5.06 0 001.87.38 2.66 2.66 0 001.46-.36 1.21 1.21 0 00.55-1.09 1.26 1.26 0 00-.58-1.13 7.68 7.68 0 00-1.77-.76 11.32 11.32 0 01-1.71-.64 3.06 3.06 0 01-1.12-1 3.1 3.1 0 01.6-4 4.41 4.41 0 012.67-.78 6.29 6.29 0 011.87.28 5.47 5.47 0 011.59.77l-.67 1.49a6.1 6.1 0 00-1.44-.58zm14.05-1.78v11.11h-1.86v-2.35a3.91 3.91 0 01-3.87 2.42 3.62 3.62 0 01-2.84-1.14 4.56 4.56 0 01-1-3.16v-6.87h1.86v6.34a3.13 3.13 0 00.72 2.19 2.56 2.56 0 002 .79 2.86 2.86 0 002.32-1.1 4.3 4.3 0 00.86-2.76v-5.46zm9.95 11.11v-1.55a4.17 4.17 0 01-3.65 1.64 4 4 0 01-1.9-.44 3.12 3.12 0 01-1.26-1.22 3.44 3.44 0 01-.44-1.74 2.92 2.92 0 011-2.36 4.45 4.45 0 012.89-.89h3.32v-.52a2.37 2.37 0 00-.68-1.82 2.8 2.8 0 00-2-.64 5.46 5.46 0 00-3.22 1.2l-.77-1.34a9.34 9.34 0 012.08-1.12 6.72 6.72 0 012.28-.35 4.2 4.2 0 013 1 3.81 3.81 0 011.09 2.85v7.31zm-1.1-2.19a2.62 2.62 0 001.08-1.75v-1.11h-3.06a3.4 3.4 0 00-1.85.4 1.4 1.4 0 00-.6 1.26 1.68 1.68 0 00.61 1.36 2.5 2.5 0 001.64.5 3.58 3.58 0 002.18-.67zm6.29-13.39h1.84v15.58h-1.84zm10.8 0h1.84v15.58h-1.84zm12.65 5.12a5 5 0 011.89 2 6 6 0 01.68 2.91 6.11 6.11 0 01-.68 2.92 5 5 0 01-1.89 2 5.79 5.79 0 01-5.57 0 5 5 0 01-1.89-2 6.59 6.59 0 010-5.84 5 5 0 011.89-2 5.79 5.79 0 015.57 0zm-4.6 1.49a3.4 3.4 0 00-1.24 1.4 4.48 4.48 0 00-.44 2 4.59 4.59 0 00.44 2.06 3.32 3.32 0 001.24 1.4 3.59 3.59 0 003.63 0 3.31 3.31 0 001.24-1.4 4.59 4.59 0 00.45-2.06 4.48 4.48 0 00-.45-2 3.39 3.39 0 00-1.24-1.4 3.52 3.52 0 00-3.63 0zm16.86-1.49a5 5 0 011.89 2 6 6 0 01.68 2.91 6.11 6.11 0 01-.7 2.91 5 5 0 01-1.89 2 5.79 5.79 0 01-5.57 0 5 5 0 01-1.89-2 6.59 6.59 0 010-5.84 5 5 0 011.89-2 5.79 5.79 0 015.57 0zm-4.6 1.49a3.4 3.4 0 00-1.24 1.4 4.48 4.48 0 00-.44 2 4.59 4.59 0 00.44 2.06 3.32 3.32 0 001.24 1.4 3.59 3.59 0 003.63 0 3.31 3.31 0 001.24-1.4 4.59 4.59 0 00.45-2.06 4.48 4.48 0 00-.45-2 3.39 3.39 0 00-1.24-1.4 3.52 3.52 0 00-3.63 0zm17.04 8.97l-3.34-5.4-2 2.25v3.15h-1.84v-15.58h1.84V139l5.05-5.46h2.15l-3.89 4.3 4.26 6.8zm3.64-7.08h4.72V139h-4.72zm14.15 7.08v-1.55a4.17 4.17 0 01-3.65 1.64 4 4 0 01-1.91-.44 3.12 3.12 0 01-1.26-1.22 3.44 3.44 0 01-.45-1.74 2.93 2.93 0 011-2.36 4.45 4.45 0 012.89-.89h3.32v-.52a2.37 2.37 0 00-.68-1.82 2.79 2.79 0 00-2-.64 5.46 5.46 0 00-3.22 1.2l-.77-1.34a9.35 9.35 0 012.08-1.12 6.72 6.72 0 012.28-.35 4.2 4.2 0 013 1 3.81 3.81 0 011.09 2.85v7.31zm-1.1-2.19a2.63 2.63 0 001.08-1.75v-1.11h-3.06a3.39 3.39 0 00-1.85.4 1.4 1.4 0 00-.6 1.26 1.67 1.67 0 00.61 1.36 2.5 2.5 0 001.64.5 3.58 3.58 0 002.19-.67zm14.88-7.84a4.51 4.51 0 011 3.16v6.87h-1.84v-6.34a3.08 3.08 0 00-.74-2.19 2.67 2.67 0 00-2-.79 3.06 3.06 0 00-2.28 1 3.87 3.87 0 00-1 2.43v5.94h-1.84v-11.16h1.84v2.35a4 4 0 014-2.42 3.71 3.71 0 012.86 1.15zm14.06-5.55v15.58h-1.84v-2.21a4.29 4.29 0 01-1.59 1.71 4.43 4.43 0 01-2.32.6 4.76 4.76 0 01-2.62-.72 4.86 4.86 0 01-1.77-2 6.62 6.62 0 01-.63-3 6.44 6.44 0 01.63-2.91 4.72 4.72 0 014.36-2.7 4.58 4.58 0 012.35.59 4.07 4.07 0 011.58 1.7v-6.68zm-3.54 13.5a3.46 3.46 0 001.25-1.41 4.47 4.47 0 00.45-2 4.52 4.52 0 00-.45-2.06 3.46 3.46 0 00-1.25-1.41 3.35 3.35 0 00-1.83-.5 3.3 3.3 0 00-1.83.51 3.54 3.54 0 00-1.25 1.42 4.81 4.81 0 000 4.07 3.46 3.46 0 001.25 1.41 3.56 3.56 0 003.65 0zm6.68-5h4.72V139h-4.72zm10.44-6.43a1.76 1.76 0 00-.47 1.32v1.45h2.88v1.49h-2.88v9.24h-1.84v-9.23h-1.36v-1.49h1.36v-1.2a4.12 4.12 0 01.48-2.07 3.24 3.24 0 011.27-1.28 3.49 3.49 0 011.7-.43 3.87 3.87 0 011.82.5l-.43 1.6a3 3 0 00-1.34-.36 1.63 1.63 0 00-1.19.46zm11.75 3.87a6.5 6.5 0 011.24 4.23v.63h-8.27a3.86 3.86 0 001.17 2.37 3.35 3.35 0 002.36.88 4.18 4.18 0 001.73-.36 4.14 4.14 0 001.39-1l1 1.11a5.27 5.27 0 01-1.86 1.37 5.86 5.86 0 01-2.41.48 5.29 5.29 0 01-2.73-.7 4.81 4.81 0 01-1.86-2 6.27 6.27 0 01-.66-2.92 6.2 6.2 0 01.66-2.91 5 5 0 011.85-2 5.08 5.08 0 012.71-.72 4.46 4.46 0 013.68 1.54zm-.41 3.35a3.5 3.5 0 00-.95-2.38 3.1 3.1 0 00-2.29-.87 3.19 3.19 0 00-2.3.88 3.79 3.79 0 00-1.1 2.37zm12.02-3.35a6.51 6.51 0 011.24 4.23v.63h-8.25a3.87 3.87 0 001.17 2.37 3.35 3.35 0 002.36.88 4.19 4.19 0 001.73-.36 4.14 4.14 0 001.39-1l1 1.11a5.28 5.28 0 01-1.86 1.37 5.86 5.86 0 01-2.41.48 5.28 5.28 0 01-2.73-.7 4.8 4.8 0 01-1.86-2 6.28 6.28 0 01-.66-2.92 6.21 6.21 0 01.66-2.91 5 5 0 011.85-2 5.07 5.07 0 012.7-.72 4.47 4.47 0 013.67 1.54zm-.42 3.35a3.5 3.5 0 00-.95-2.38 3.09 3.09 0 00-2.29-.87 3.19 3.19 0 00-2.3.88 3.8 3.8 0 00-1.1 2.37zm4.28-9.29h1.84v15.58H908zm-283.09 30.32a5 5 0 011.89 2 6 6 0 01.68 2.91 6.11 6.11 0 01-.68 2.92 5 5 0 01-1.89 2 5.79 5.79 0 01-5.57 0 5 5 0 01-1.89-2 6.59 6.59 0 010-5.84 5 5 0 011.89-2 5.79 5.79 0 015.57 0zm-4.6 1.49a3.4 3.4 0 00-1.24 1.4 4.48 4.48 0 00-.44 2 4.59 4.59 0 00.44 2.06 3.32 3.32 0 001.24 1.4 3.59 3.59 0 003.63 0 3.31 3.31 0 001.24-1.4 4.59 4.59 0 00.45-2.06 4.48 4.48 0 00-.45-2 3.39 3.39 0 00-1.24-1.4 3.52 3.52 0 00-3.63 0zm12.33-4.54a1.76 1.76 0 00-.47 1.32v1.45h2.88v1.49h-2.88v9.24h-1.84v-9.23H629v-1.49h1.36v-1.2a4.13 4.13 0 01.48-2.07 3.24 3.24 0 011.27-1.28 3.49 3.49 0 011.7-.43 3.87 3.87 0 011.82.5l-.43 1.6a3 3 0 00-1.34-.36 1.63 1.63 0 00-1.22.46zm11.6 17.01a3 3 0 01-1.92.65 3.44 3.44 0 01-1.22-.21 3.62 3.62 0 01-1.07-.65l.79-1.53a2.3 2.3 0 001.4.52 1.92 1.92 0 001.78-1.42l.39-1-4.32-11H642l3.32 8.9 3.14-8.9h1.88l-4.78 12.68a4.44 4.44 0 01-1.32 1.96zm14.57-13.96a5 5 0 011.9 2 6.07 6.07 0 01.68 2.91 6.13 6.13 0 01-.68 2.92 5 5 0 01-1.9 2 5.78 5.78 0 01-5.57 0 5 5 0 01-1.9-2 6.6 6.6 0 010-5.84 5 5 0 011.9-2 5.78 5.78 0 015.57 0zm-4.6 1.49a3.41 3.41 0 00-1.24 1.4 4.5 4.5 0 00-.44 2 4.62 4.62 0 00.44 2.06 3.32 3.32 0 001.24 1.4 3.41 3.41 0 001.83.49 3.37 3.37 0 001.81-.49 3.32 3.32 0 001.24-1.4 4.61 4.61 0 00.44-2.06 4.49 4.49 0 00-.44-2 3.41 3.41 0 00-1.24-1.4 3.31 3.31 0 00-1.81-.5 3.35 3.35 0 00-1.83.5zm18.98-2.14v11.11h-1.86v-2.35a3.91 3.91 0 01-3.87 2.42 3.62 3.62 0 01-2.84-1.14 4.56 4.56 0 01-1-3.16v-6.87h1.86v6.34a3.13 3.13 0 00.72 2.19 2.56 2.56 0 002 .79 2.86 2.86 0 002.32-1.1 4.3 4.3 0 00.86-2.76v-5.46zm6.87.58a4.15 4.15 0 012.25-.64v1.89a3.38 3.38 0 00-2.59.88 3.83 3.83 0 00-1.12 2.56v5.86h-1.84v-11.13h1.84v2.39a4 4 0 011.46-1.81zm17.83.07a4.79 4.79 0 011.78 2 7.14 7.14 0 010 5.85 4.69 4.69 0 01-1.76 2 4.82 4.82 0 01-2.6.7 4.53 4.53 0 01-2.33-.59 4.1 4.1 0 01-1.58-1.68v6.28h-1.84v-15.21h1.84v2.21a4.13 4.13 0 011.57-1.68 4.45 4.45 0 012.3-.59 4.83 4.83 0 012.62.71zm-1.16 8.32a3.39 3.39 0 001.24-1.41 4.56 4.56 0 00.44-2 4.42 4.42 0 00-.46-2 3.48 3.48 0 00-1.24-1.41 3.26 3.26 0 00-1.8-.5 3.31 3.31 0 00-1.81.5 3.46 3.46 0 00-1.25 1.41 4.77 4.77 0 000 4.06 3.47 3.47 0 001.25 1.4 3.49 3.49 0 003.61 0zm9.43-8.39a4.15 4.15 0 012.25-.64v1.89a3.38 3.38 0 00-2.59.88 3.83 3.83 0 00-1.12 2.56v5.86h-1.84v-11.13h1.84v2.39a4 4 0 011.46-1.81zm11.36.07a5 5 0 011.9 2 6.07 6.07 0 01.68 2.91 6.13 6.13 0 01-.68 2.92 5 5 0 01-1.9 2 5.78 5.78 0 01-5.57 0 5 5 0 01-1.9-2 6.6 6.6 0 010-5.84 5 5 0 011.9-2 5.78 5.78 0 015.57 0zm-4.6 1.49a3.41 3.41 0 00-1.24 1.4 4.5 4.5 0 00-.44 2 4.62 4.62 0 00.44 2.06 3.32 3.32 0 001.24 1.4 3.41 3.41 0 001.83.49 3.37 3.37 0 001.81-.49 3.32 3.32 0 001.24-1.4 4.61 4.61 0 00.44-2.06 4.49 4.49 0 00-.44-2 3.41 3.41 0 00-1.24-1.4 3.31 3.31 0 00-1.81-.5 3.35 3.35 0 00-1.83.5zm8.17 11.45a1.26 1.26 0 001.14-.55 2.89 2.89 0 00.39-1.66v-11.38h1.86v11.65a4 4 0 01-.78 2.66 2.71 2.71 0 01-2.2.93 4.65 4.65 0 01-1.8-.38l.43-1.49a3.4 3.4 0 00.96.22zm3.27-17.66a1.41 1.41 0 010 1.81 1.12 1.12 0 01-1.64 0 1.42 1.42 0 010-1.81 1.12 1.12 0 011.64 0zm11.36 5.53a6.51 6.51 0 011.24 4.23v.63h-8.25a3.87 3.87 0 001.17 2.37 3.35 3.35 0 002.36.88 4.19 4.19 0 001.73-.36 4.14 4.14 0 001.39-1l1 1.11a5.28 5.28 0 01-1.86 1.37 5.86 5.86 0 01-2.41.48 5.28 5.28 0 01-2.73-.7 4.8 4.8 0 01-1.86-2 6.28 6.28 0 01-.66-2.92 6.21 6.21 0 01.66-2.91 5 5 0 011.85-2 5.07 5.07 0 012.7-.72 4.47 4.47 0 013.67 1.54zm-.42 3.35a3.5 3.5 0 00-.95-2.38 3.09 3.09 0 00-2.29-.87 3.19 3.19 0 00-2.3.88 3.8 3.8 0 00-1.1 2.37zm8.51-3.13a3.46 3.46 0 00-1.83.48 3.34 3.34 0 00-1.25 1.36 4.39 4.39 0 00-.45 2 4.46 4.46 0 00.44 2 3.39 3.39 0 001.22 1.38 3.27 3.27 0 001.79.49 4.45 4.45 0 001.82-.36 3.47 3.47 0 001.34-1l1 1.13a4.65 4.65 0 01-1.81 1.45 5.86 5.86 0 01-2.48.5 5.14 5.14 0 01-2.71-.71 4.92 4.92 0 01-1.85-2 6.2 6.2 0 01-.66-2.91 6.26 6.26 0 01.66-2.92 4.91 4.91 0 011.85-2 5.14 5.14 0 012.71-.71 6.26 6.26 0 012.38.43 4.61 4.61 0 011.77 1.25l-1 1.34a4 4 0 00-2.94-1.2zm12.36 8.69a4.31 4.31 0 01-2.45.82 2.69 2.69 0 01-2-.79 3.28 3.28 0 01-.77-2.38v-6.15h-1.48v-1.49h1.48v-3h1.86v3H756v1.49h-3.2v5.8a2.15 2.15 0 00.32 1.32 1.13 1.13 0 00.95.4 3.17 3.17 0 001.62-.52zm-128.95 56.72a9.16 9.16 0 00-2.77-.55 2.57 2.57 0 00-1.39.32 1.06 1.06 0 00-.51.95 1.3 1.3 0 00.44 1 3.36 3.36 0 001.09.65q.65.25 1.92.64a25.06 25.06 0 013.13 1.09 5.49 5.49 0 012.12 1.68 4.66 4.66 0 01.88 3 5 5 0 01-1 3.11 5.83 5.83 0 01-2.64 1.94 10.27 10.27 0 01-3.73.65 13.49 13.49 0 01-4.51-.79 12.35 12.35 0 01-3.89-2.17l1.85-3.72a11.48 11.48 0 003.26 2 8.91 8.91 0 003.34.78 3.1 3.1 0 001.68-.39 1.27 1.27 0 00.61-1.14 1.35 1.35 0 00-.45-1 3.37 3.37 0 00-1.14-.66q-.69-.25-1.94-.58a23.89 23.89 0 01-3.09-1.05 5.48 5.48 0 01-2.09-1.61 4.43 4.43 0 01-.87-2.87 5 5 0 01.9-3 5.71 5.71 0 012.55-2 9.9 9.9 0 013.83-.69 13.92 13.92 0 013.9.56 12.85 12.85 0 013.38 1.49l-1.79 3.8a16 16 0 00-3.07-1.44zm5.78-4.08h15.6v3.93h-5.46V240h-4.76v-14.3H633zm17.53 0h14.38v3.8h-9.62v3.41H664v3.77h-8.68v3.43h9.88V240h-14.67zm30.96 1.68a5.93 5.93 0 011.92 4.72 6.48 6.48 0 01-1.92 5 7.66 7.66 0 01-5.41 1.78h-3.25v5h-4.76v-18.18h8a8 8 0 015.42 1.68zm-3.39 7a2.72 2.72 0 00.79-2.11 2.61 2.61 0 00-.79-2 3.25 3.25 0 00-2.25-.72h-3v5.59h3a3.21 3.21 0 002.25-.78zm30.07-1.24h-3.51l-.47 3.59h3.48l-.36 3.22h-3.51l-.49 4H700l.49-4h-3.54l-.49 4h-3.33l.49-4h-3.48l.36-3.22h3.5l.47-3.59H691l.36-3.25h3.51l.52-4.19h3.33l-.52 4.19h3.54l.52-4.19h3.33l-.52 4.19h3.48zm-7.31 3.59l.47-3.59h-3.54l-.47 3.59zm20.06-3.77a5.74 5.74 0 012.47 1.95 4.87 4.87 0 01.87 2.86 6.06 6.06 0 01-.91 3.33 5.94 5.94 0 01-2.6 2.21 9.28 9.28 0 01-3.93.78 12.23 12.23 0 01-3.76-.62 13.6 13.6 0 01-3.44-1.64l1.77-3.43a7.92 7.92 0 004.91 2 3.26 3.26 0 002.11-.61 2 2 0 00.75-1.68 1.91 1.91 0 00-.74-1.62 3.67 3.67 0 00-2.22-.56q-3.46 0-5 .1v-10.4h12.25v3.82h-7.88v2.78h1.64a9.14 9.14 0 013.71.73zm-93.68 22.8a6.81 6.81 0 012.56 2.64 8 8 0 010 7.52 6.86 6.86 0 01-2.58 2.63 7.15 7.15 0 01-3.67 1H618v-14.7h5.63a7.06 7.06 0 013.61.91zm-1 11.2a5.08 5.08 0 001.86-2 6.15 6.15 0 000-5.65 5.2 5.2 0 00-1.88-2 5 5 0 00-2.66-.72h-3.69v11h3.77a4.94 4.94 0 002.62-.63zm14.87-7.1a6.51 6.51 0 011.24 4.23v.63h-8.25a3.87 3.87 0 001.17 2.37 3.36 3.36 0 002.36.88 4.19 4.19 0 001.73-.36 4.12 4.12 0 001.39-1l1 1.11a5.3 5.3 0 01-1.86 1.37 5.86 5.86 0 01-2.41.48 5.29 5.29 0 01-2.73-.7 4.82 4.82 0 01-1.86-2 6.28 6.28 0 01-.66-2.92 6.21 6.21 0 01.66-2.91 5 5 0 011.85-2 5.07 5.07 0 012.7-.72 4.47 4.47 0 013.67 1.54zm-.42 3.35a3.5 3.5 0 00-.95-2.38 3.09 3.09 0 00-2.29-.87 3.18 3.18 0 00-2.3.88 3.79 3.79 0 00-1.1 2.37zm2.08-4.81h2l3.14 9.18 3.12-9.18h1.86l-4.07 11.11h-1.92zm19.31 1.46a6.5 6.5 0 011.24 4.23v.63h-8.25a3.86 3.86 0 001.17 2.37 3.35 3.35 0 002.36.88 4.18 4.18 0 001.73-.36 4.13 4.13 0 001.39-1l1 1.11a5.28 5.28 0 01-1.86 1.37 5.86 5.86 0 01-2.41.48 5.29 5.29 0 01-2.73-.7 4.81 4.81 0 01-1.86-2 6.27 6.27 0 01-.66-2.92 6.2 6.2 0 01.66-2.91 5 5 0 011.85-2 5.08 5.08 0 012.71-.72 4.46 4.46 0 013.66 1.54zm-.41 3.35a3.5 3.5 0 00-.95-2.38 3.1 3.1 0 00-2.29-.87 3.19 3.19 0 00-2.3.88 3.79 3.79 0 00-1.1 2.37zm4.26-9.25h1.84v15.58h-1.84zm12.64 5.09a5 5 0 011.9 2 6.58 6.58 0 010 5.83 5 5 0 01-1.9 2 5.78 5.78 0 01-5.57 0 5 5 0 01-1.9-2 6.6 6.6 0 010-5.84 5 5 0 011.9-2 5.78 5.78 0 015.57 0zm-4.6 1.49a3.41 3.41 0 00-1.24 1.4 4.5 4.5 0 00-.44 2 4.62 4.62 0 00.44 2.06 3.32 3.32 0 001.24 1.4 3.41 3.41 0 001.83.49 3.37 3.37 0 001.81-.49 3.32 3.32 0 001.24-1.4 4.6 4.6 0 00.44-2.06 4.49 4.49 0 00-.44-2 3.41 3.41 0 00-1.24-1.4 3.31 3.31 0 00-1.81-.5 3.35 3.35 0 00-1.8.5zm18.16-1.49a4.79 4.79 0 011.78 2 7.13 7.13 0 010 5.85 4.68 4.68 0 01-1.76 2 4.83 4.83 0 01-2.6.7 4.53 4.53 0 01-2.33-.59 4.1 4.1 0 01-1.58-1.68v6.28h-1.84v-15.21h1.84v2.21a4.11 4.11 0 011.57-1.68 4.45 4.45 0 012.3-.59 4.83 4.83 0 012.62.71zm-1.13 8.32a3.39 3.39 0 001.24-1.41 4.56 4.56 0 00.44-2 4.42 4.42 0 00-.45-2 3.49 3.49 0 00-1.24-1.41 3.26 3.26 0 00-1.8-.5 3.31 3.31 0 00-1.81.5 3.46 3.46 0 00-1.25 1.41 4.77 4.77 0 000 4.06 3.46 3.46 0 001.25 1.4 3.49 3.49 0 003.61 0zm27.58-7.88a4.57 4.57 0 011 3.15v6.87h-1.86v-6.34A3.18 3.18 0 00717 257a2.54 2.54 0 00-2-.8 2.93 2.93 0 00-2.33 1.11 4.29 4.29 0 00-.85 2.75v5.48H710v-6.34a3.2 3.2 0 00-.71-2.21 2.53 2.53 0 00-2-.8 3 3 0 00-2.34 1.11 4.26 4.26 0 00-.86 2.75v5.48h-1.84v-11.09h1.84v2.33a3.92 3.92 0 013.89-2.39 3.82 3.82 0 012.4.73 3.62 3.62 0 011.29 2.06 4 4 0 014.07-2.79 3.58 3.58 0 012.84 1.15zm10.68 10.02V264a4.17 4.17 0 01-3.65 1.64 4 4 0 01-1.91-.44 3.13 3.13 0 01-1.26-1.22 3.45 3.45 0 01-.44-1.74 2.92 2.92 0 011-2.36 4.45 4.45 0 012.89-.89h3.32v-.52a2.38 2.38 0 00-.68-1.82 2.8 2.8 0 00-2-.64 5.47 5.47 0 00-3.22 1.2l-.77-1.34a9.35 9.35 0 012.08-1.12 6.71 6.71 0 012.28-.35 4.2 4.2 0 013 1 3.81 3.81 0 011.08 2.85v7.31zm-1.1-2.19a2.63 2.63 0 001.08-1.75v-1.11h-3.06a3.4 3.4 0 00-1.85.4 1.4 1.4 0 00-.6 1.26 1.68 1.68 0 00.61 1.37 2.5 2.5 0 001.64.5 3.58 3.58 0 002.19-.68zm11.84 1.45a4.31 4.31 0 01-2.45.82 2.69 2.69 0 01-2-.79 3.29 3.29 0 01-.77-2.38v-6.15h-1.48v-1.49h1.48v-3h1.86v3h3.2v1.49h-3.2v5.8a2.16 2.16 0 00.32 1.32 1.14 1.14 0 00.95.4 3.16 3.16 0 001.62-.52zm9.91-8.91a6.51 6.51 0 011.24 4.23v.63h-8.25a3.87 3.87 0 001.17 2.37 3.35 3.35 0 002.36.88 4.19 4.19 0 001.73-.36 4.13 4.13 0 001.39-1l1 1.11a5.29 5.29 0 01-1.86 1.37 5.86 5.86 0 01-2.41.48 5.29 5.29 0 01-2.73-.7 4.8 4.8 0 01-1.86-2A6.28 6.28 0 01741 260a6.21 6.21 0 01.66-2.91 5 5 0 011.85-2 5.07 5.07 0 012.7-.72 4.47 4.47 0 013.7 1.53zm-.42 3.35a3.5 3.5 0 00-.95-2.38 3.09 3.09 0 00-2.29-.87 3.19 3.19 0 00-2.3.88 3.8 3.8 0 00-1.1 2.37zM757 255a4.15 4.15 0 012.25-.64v1.89a3.38 3.38 0 00-2.59.88 3.83 3.83 0 00-1.12 2.54v5.86h-1.84v-11.09h1.84v2.39A4 4 0 01757 255zm5.93-4.64a1.42 1.42 0 010 1.81 1.12 1.12 0 01-1.64 0 1.41 1.41 0 010-1.81 1.12 1.12 0 011.64 0zm-1.73 4.07h1.8v11.11h-1.8zm11.8 11.12V264a4.17 4.17 0 01-3.65 1.64 4 4 0 01-1.91-.44 3.13 3.13 0 01-1.26-1.22 3.45 3.45 0 01-.44-1.74 2.93 2.93 0 011-2.36 4.45 4.45 0 012.89-.89H773v-.52a2.37 2.37 0 00-.68-1.82 2.79 2.79 0 00-2-.64 5.47 5.47 0 00-3.22 1.2l-.77-1.34a9.35 9.35 0 012.08-1.12 6.71 6.71 0 012.28-.35 4.2 4.2 0 013 1 3.81 3.81 0 011.08 2.85v7.31zm-1.1-2.19a2.63 2.63 0 001.1-1.76v-1.11h-3.06a3.39 3.39 0 00-1.85.4 1.4 1.4 0 00-.6 1.26 1.68 1.68 0 00.61 1.37 2.5 2.5 0 001.64.5 3.58 3.58 0 002.15-.67zm6.28-13.36H780v15.58h-1.84zm9.82 6.22a4.85 4.85 0 00-1.49-.25 2.43 2.43 0 00-1.33.33 1.11 1.11 0 00-.5 1 1.12 1.12 0 00.56 1 7.93 7.93 0 001.71.7 12.79 12.79 0 011.78.67 3.19 3.19 0 011.17 1 2.82 2.82 0 01.48 1.72 2.79 2.79 0 01-1.12 2.39 4.56 4.56 0 01-2.77.82 6.57 6.57 0 01-2.26-.4 5.07 5.07 0 01-1.85-1.13l.69-1.43a4.83 4.83 0 001.61 1 5.06 5.06 0 001.87.38 2.66 2.66 0 001.46-.36 1.21 1.21 0 00.55-1.09 1.27 1.27 0 00-.58-1.13 7.69 7.69 0 00-1.77-.76 11.34 11.34 0 01-1.71-.64 3.07 3.07 0 01-1.12-1 3.1 3.1 0 01.6-4 4.41 4.41 0 012.66-.78 6.29 6.29 0 011.87.28 5.45 5.45 0 011.59.77l-.67 1.49a6.09 6.09 0 00-1.43-.58zm12.63-4.22a1.76 1.76 0 00-.47 1.32v1.45H803v1.49h-2.88v9.24h-1.84v-9.24H797v-1.49h1.36v-1.2a4.13 4.13 0 01.48-2.07 3.24 3.24 0 011.27-1.28 3.49 3.49 0 011.7-.43 3.87 3.87 0 011.82.5l-.43 1.6a3 3 0 00-1.34-.36 1.63 1.63 0 00-1.23.47zm11 3.09a5 5 0 011.9 2 6.58 6.58 0 010 5.83 5 5 0 01-1.9 2 5.78 5.78 0 01-5.57 0 5 5 0 01-1.9-2 6.6 6.6 0 010-5.84 5 5 0 011.9-2 5.78 5.78 0 015.57 0zm-4.6 1.49a3.41 3.41 0 00-1.24 1.4 4.5 4.5 0 00-.44 2 4.62 4.62 0 00.44 2.06 3.32 3.32 0 001.24 1.4 3.41 3.41 0 001.83.49 3.37 3.37 0 001.81-.49 3.32 3.32 0 001.24-1.4 4.6 4.6 0 00.44-2.06 4.49 4.49 0 00-.44-2 3.41 3.41 0 00-1.24-1.4 3.31 3.31 0 00-1.81-.5 3.35 3.35 0 00-1.86.5zm13.05-1.58a4.15 4.15 0 012.25-.64v1.89a3.38 3.38 0 00-2.59.88 3.83 3.83 0 00-1.12 2.54v5.86h-1.84v-11.09h1.84v2.39a4 4 0 011.46-1.83zm11.75 14.05a3 3 0 01-1.93.65 3.43 3.43 0 01-1.22-.21 3.64 3.64 0 01-1.07-.65l.79-1.53a2.31 2.31 0 001.4.53 1.92 1.92 0 001.78-1.43l.4-1-4.32-11h1.93l3.32 8.9 3.14-8.9h1.88l-4.78 12.68a4.46 4.46 0 01-1.32 1.96zm14.57-13.96a5 5 0 011.9 2 6.58 6.58 0 010 5.83 5 5 0 01-1.9 2 5.78 5.78 0 01-5.57 0 5 5 0 01-1.9-2 6.6 6.6 0 010-5.84 5 5 0 011.9-2 5.78 5.78 0 015.57 0zm-4.6 1.49a3.41 3.41 0 00-1.24 1.4 4.5 4.5 0 00-.44 2 4.62 4.62 0 00.44 2.06 3.32 3.32 0 001.24 1.4 3.41 3.41 0 001.83.49 3.37 3.37 0 001.81-.49 3.32 3.32 0 001.24-1.4 4.6 4.6 0 00.44-2.06 4.49 4.49 0 00-.44-2 3.41 3.41 0 00-1.24-1.4 3.31 3.31 0 00-1.81-.5 3.35 3.35 0 00-1.83.5zm18.98-2.14v11.11h-1.86v-2.35a3.91 3.91 0 01-3.87 2.42 3.62 3.62 0 01-2.84-1.14 4.56 4.56 0 01-1-3.16v-6.87H853v6.34a3.13 3.13 0 00.72 2.2 2.56 2.56 0 002 .79 2.86 2.86 0 002.32-1.1 4.31 4.31 0 00.86-2.76v-5.46zm6.87.56a4.15 4.15 0 012.25-.64v1.89a3.38 3.38 0 00-2.59.88 3.83 3.83 0 00-1.12 2.54v5.86h-1.84v-11.09h1.84v2.39a4 4 0 011.46-1.83zm-245.51 26.32a3.45 3.45 0 00-1.83.48 3.34 3.34 0 00-1.25 1.37 4.39 4.39 0 00-.46 2 4.47 4.47 0 00.45 2 3.38 3.38 0 001.22 1.38 3.27 3.27 0 001.79.49 4.45 4.45 0 001.82-.36 3.47 3.47 0 001.34-1l1 1.13a4.64 4.64 0 01-1.81 1.45 5.86 5.86 0 01-2.48.5 5.13 5.13 0 01-2.71-.71 4.91 4.91 0 01-1.85-2 6.74 6.74 0 010-5.83 4.89 4.89 0 011.85-2 5.14 5.14 0 012.71-.71 6.28 6.28 0 012.38.43 4.6 4.6 0 011.77 1.25l-1 1.34a4 4 0 00-2.94-1.21zm13.41-1.03a5 5 0 011.9 2 6.06 6.06 0 01.68 2.91 6.12 6.12 0 01-.68 2.92 5 5 0 01-1.9 2 5.78 5.78 0 01-5.57 0 5 5 0 01-1.9-2 6.6 6.6 0 010-5.84 5 5 0 011.9-2 5.78 5.78 0 015.57 0zm-4.6 1.49a3.4 3.4 0 00-1.24 1.4 4.49 4.49 0 00-.44 2 4.6 4.6 0 00.44 2.06 3.32 3.32 0 001.24 1.4 3.4 3.4 0 001.83.49 3.37 3.37 0 001.81-.49 3.31 3.31 0 001.24-1.4 4.6 4.6 0 00.44-2.06 4.49 4.49 0 00-.44-2 3.39 3.39 0 00-1.24-1.4 3.31 3.31 0 00-1.81-.5 3.34 3.34 0 00-1.78.5zm18.99-2.14v11.11h-1.86v-2.35a3.9 3.9 0 01-3.87 2.42 3.62 3.62 0 01-2.84-1.14 4.56 4.56 0 01-1-3.16v-6.87h1.86V286a3.13 3.13 0 00.72 2.2 2.56 2.56 0 002 .79 2.86 2.86 0 002.32-1.1 4.31 4.31 0 00.86-2.76v-5.46zm6.87.58a4.15 4.15 0 012.25-.64v1.89a3.38 3.38 0 00-2.59.88 3.84 3.84 0 00-1.12 2.54v5.86h-1.84v-11.11h1.84V282a4 4 0 011.46-1.78zm8.52 1.2a4.85 4.85 0 00-1.49-.25 2.43 2.43 0 00-1.33.33 1.11 1.11 0 00-.5 1 1.12 1.12 0 00.56 1 8 8 0 001.71.7 12.85 12.85 0 011.78.67 3.2 3.2 0 011.17 1 2.82 2.82 0 01.48 1.72 2.79 2.79 0 01-1.12 2.39 4.56 4.56 0 01-2.77.82 6.57 6.57 0 01-2.26-.4 5.07 5.07 0 01-1.85-1.13l.69-1.43a4.83 4.83 0 001.61 1 5.06 5.06 0 001.87.38 2.66 2.66 0 001.46-.36 1.21 1.21 0 00.55-1.09 1.27 1.27 0 00-.58-1.13 7.69 7.69 0 00-1.77-.76 11.29 11.29 0 01-1.71-.64 3.07 3.07 0 01-1.12-1 3.1 3.1 0 01.6-4 4.41 4.41 0 012.66-.78 6.31 6.31 0 011.87.28 5.47 5.47 0 011.59.77l-.67 1.49a6.07 6.07 0 00-1.43-.58zm12.67-.32a6.5 6.5 0 011.24 4.23v.63H671a3.86 3.86 0 001.17 2.37 3.35 3.35 0 002.36.88 4.18 4.18 0 001.73-.36 4.13 4.13 0 001.39-1l1 1.11a5.28 5.28 0 01-1.86 1.37 5.86 5.86 0 01-2.41.48 5.29 5.29 0 01-2.73-.7 4.81 4.81 0 01-1.86-2 6.27 6.27 0 01-.66-2.92 6.2 6.2 0 01.66-2.91 5 5 0 011.85-2 5.08 5.08 0 012.71-.72 4.46 4.46 0 013.65 1.54zm-.41 3.35a3.5 3.5 0 00-.95-2.38 3.09 3.09 0 00-2.29-.87 3.18 3.18 0 00-2.3.88 3.79 3.79 0 00-1.1 2.37zm-50.37 60.37a9.17 9.17 0 00-2.77-.55 2.56 2.56 0 00-1.39.33 1.06 1.06 0 00-.51.95 1.3 1.3 0 00.44 1 3.36 3.36 0 001.09.65q.65.25 1.92.64a24.9 24.9 0 013.13 1.09 5.49 5.49 0 012.12 1.68 4.66 4.66 0 01.88 3 5 5 0 01-1 3.11 5.83 5.83 0 01-2.64 1.94 10.27 10.27 0 01-3.73.65 13.49 13.49 0 01-4.51-.79 12.36 12.36 0 01-3.89-2.17l1.85-3.72a11.46 11.46 0 003.26 2 8.9 8.9 0 003.34.78 3.1 3.1 0 001.68-.39 1.27 1.27 0 00.61-1.14 1.35 1.35 0 00-.45-1 3.37 3.37 0 00-1.14-.66q-.69-.25-1.94-.58a23.89 23.89 0 01-3.09-1.05 5.48 5.48 0 01-2.09-1.61 4.43 4.43 0 01-.87-2.87 5 5 0 01.9-3 5.72 5.72 0 012.55-2 9.9 9.9 0 013.83-.69 13.94 13.94 0 013.9.56 12.87 12.87 0 013.38 1.5l-1.79 3.8a16 16 0 00-3.07-1.46zm5.78-4.08h15.6v3.93h-5.46V359h-4.76v-14.3H633zm17.53 0h14.38v3.8h-9.62v3.41H664v3.77h-8.68v3.43h9.88V359h-14.67zm30.96 1.68a5.93 5.93 0 011.92 4.72 6.48 6.48 0 01-1.92 5 7.66 7.66 0 01-5.41 1.78h-3.25v5h-4.76v-18.18h8a8 8 0 015.42 1.68zm-3.39 7a2.72 2.72 0 00.79-2.11 2.61 2.61 0 00-.79-2 3.25 3.25 0 00-2.25-.72h-3v5.59h3a3.21 3.21 0 002.25-.78zm30.07-1.24h-3.51l-.47 3.59h3.48l-.36 3.22h-3.51l-.49 4H700l.49-4h-3.54l-.49 4h-3.33l.49-4h-3.48l.36-3.22h3.5l.47-3.59H691l.36-3.25h3.51l.52-4.19h3.33l-.52 4.19h3.54l.52-4.19h3.33l-.52 4.19h3.48zm-7.31 3.59l.47-3.59h-3.54l-.47 3.59zm19.28-7.33a6.84 6.84 0 00-2-.3 3.88 3.88 0 00-3.16 1.26 5.15 5.15 0 00-1 3.52 4.84 4.84 0 014.24-2 6.11 6.11 0 013.05.74 5.11 5.11 0 012 2.08 6.5 6.5 0 01.71 3.11 6.43 6.43 0 01-.83 3.32 5.56 5.56 0 01-2.35 2.18 7.72 7.72 0 01-3.52.77 7.63 7.63 0 01-4.13-1.09 7.06 7.06 0 01-2.68-3.13 11.41 11.41 0 01-.94-4.8 11.79 11.79 0 011-5.07 7.79 7.79 0 012.9-3.37 8 8 0 014.37-1.18 12.07 12.07 0 013.08.42 10.69 10.69 0 012.72 1.09l-1.77 3.28a5.53 5.53 0 00-1.69-.83zm-5 6.66a2.71 2.71 0 000 3.63 2.62 2.62 0 002 .7 2.69 2.69 0 001.92-.66 2.85 2.85 0 000-3.72 2.56 2.56 0 00-1.87-.66 2.72 2.72 0 00-2.01.71zm-86.9 33.45l-1.46-3.55h-7.29l-1.44 3.57h-2l6.14-14.7h2l6.12 14.7zm-8-5.4H626l-2.87-7.15zm16.16-3.93a4.85 4.85 0 00-1.49-.25 2.43 2.43 0 00-1.33.33 1.11 1.11 0 00-.5 1 1.12 1.12 0 00.56 1 7.9 7.9 0 001.71.7 12.85 12.85 0 011.78.67 3.19 3.19 0 011.17 1 2.82 2.82 0 01.48 1.72 2.79 2.79 0 01-1.12 2.39 4.56 4.56 0 01-2.77.82 6.54 6.54 0 01-2.26-.4 5.07 5.07 0 01-1.85-1.13l.69-1.43a4.83 4.83 0 001.61 1 5.06 5.06 0 001.92.36 2.66 2.66 0 001.46-.36 1.21 1.21 0 00.55-1.09 1.27 1.27 0 00-.58-1.13 7.69 7.69 0 00-1.77-.76 11.29 11.29 0 01-1.71-.64 3.07 3.07 0 01-1.12-1 3.1 3.1 0 01.6-4 4.41 4.41 0 012.66-.78 6.31 6.31 0 011.87.28 5.43 5.43 0 011.59.77l-.67 1.49a6.11 6.11 0 00-1.48-.56zm9.09 0A4.85 4.85 0 00644 375a2.42 2.42 0 00-1.33.33 1.11 1.11 0 00-.5 1 1.12 1.12 0 00.56 1 7.91 7.91 0 001.71.7 12.88 12.88 0 011.78.67 3.19 3.19 0 011.17 1 2.82 2.82 0 01.48 1.72 2.78 2.78 0 01-1.12 2.39 4.56 4.56 0 01-2.77.82 6.54 6.54 0 01-2.26-.4 5.07 5.07 0 01-1.85-1.13l.69-1.43a4.84 4.84 0 001.61 1 5.07 5.07 0 001.83.33 2.65 2.65 0 001.46-.36 1.21 1.21 0 00.55-1.09 1.26 1.26 0 00-.58-1.13 7.68 7.68 0 00-1.77-.76 11.3 11.3 0 01-1.71-.64 3.07 3.07 0 01-1.12-1 3.1 3.1 0 01.6-4 4.41 4.41 0 012.67-.78 6.3 6.3 0 011.87.28 5.42 5.42 0 011.59.77l-.67 1.49a6.07 6.07 0 00-1.4-.56zm12.66-.32a6.51 6.51 0 011.24 4.23v.63h-8.25a3.86 3.86 0 001.17 2.37 3.35 3.35 0 002.36.88 4.18 4.18 0 001.73-.36 4.13 4.13 0 001.39-1l1 1.11a5.25 5.25 0 01-1.86 1.37 5.85 5.85 0 01-2.41.48 5.28 5.28 0 01-2.73-.7 4.79 4.79 0 01-1.86-2 6.74 6.74 0 010-5.83 5 5 0 011.85-2 5.08 5.08 0 012.71-.72 4.46 4.46 0 013.66 1.54zm-.42 3.35a3.5 3.5 0 00-.95-2.38 3.09 3.09 0 00-2.29-.87 3.19 3.19 0 00-2.3.88 3.8 3.8 0 00-1.1 2.37zm20.48-3.72a4.58 4.58 0 011 3.15v6.87h-1.86v-6.34a3.17 3.17 0 00-.72-2.21 2.54 2.54 0 00-2-.8 2.93 2.93 0 00-2.33 1.11 4.3 4.3 0 00-.85 2.75v5.48h-1.86v-6.34a3.2 3.2 0 00-.71-2.21 2.54 2.54 0 00-2-.8 3 3 0 00-2.34 1.11 4.26 4.26 0 00-.86 2.75v5.48h-1.78v-11.09h1.84v2.33a3.92 3.92 0 013.89-2.39 3.83 3.83 0 012.4.74 3.62 3.62 0 011.29 2.06 4 4 0 014.07-2.79 3.59 3.59 0 012.82 1.14zm12.71-.44a4.79 4.79 0 011.78 2 7.15 7.15 0 010 5.85 4.67 4.67 0 01-1.76 2 4.82 4.82 0 01-2.6.7A4.54 4.54 0 01686 384a4.1 4.1 0 01-1.58-1.68v2.21h-1.84V369h1.84v6.68A4.12 4.12 0 01686 374a4.46 4.46 0 012.3-.59 4.82 4.82 0 012.62.68zm-1.15 8.32A3.39 3.39 0 00691 381a4.57 4.57 0 00.44-2 4.42 4.42 0 00-.45-2 3.49 3.49 0 00-1.24-1.41 3.26 3.26 0 00-1.8-.5 3.31 3.31 0 00-1.81.5 3.46 3.46 0 00-1.25 1.41 4.78 4.78 0 000 4.06 3.47 3.47 0 001.25 1.4 3.49 3.49 0 003.61 0zM696 369h1.84v15.58H696zm13.38 5.9a6.5 6.5 0 011.24 4.23v.63h-8.25a3.86 3.86 0 001.17 2.37 3.35 3.35 0 002.36.88 4.18 4.18 0 001.73-.36 4.13 4.13 0 001.39-1l1 1.11a5.26 5.26 0 01-1.86 1.37 5.86 5.86 0 01-2.41.48 5.28 5.28 0 01-2.73-.7 4.81 4.81 0 01-1.86-2 6.75 6.75 0 010-5.83 5 5 0 011.85-2 5.09 5.09 0 012.71-.72 4.46 4.46 0 013.66 1.54zm-.41 3.35a3.51 3.51 0 00-.95-2.38 3.1 3.1 0 00-2.29-.87 3.18 3.18 0 00-2.3.88 3.79 3.79 0 00-1.1 2.37zm11.03-8.89a1.41 1.41 0 010 1.81 1.12 1.12 0 01-1.64 0 1.42 1.42 0 010-1.81 1.12 1.12 0 011.64 0zm-1.73 4.07h1.84v11.11h-1.81zm14.13 1.09a4.51 4.51 0 011 3.16v6.87h-1.84v-6.34a3.08 3.08 0 00-.74-2.19 2.67 2.67 0 00-2-.79 3.06 3.06 0 00-2.28 1 3.87 3.87 0 00-1 2.43v5.94h-1.84v-11.16h1.84v2.35a4 4 0 014-2.42 3.71 3.71 0 012.86 1.15zm9.93 9.29a4.31 4.31 0 01-2.45.82 2.69 2.69 0 01-2-.79 3.28 3.28 0 01-.77-2.38v-6.15h-1.48v-1.49h1.48v-3H739v3h3.2v1.49H739v5.8a2.16 2.16 0 00.32 1.32 1.13 1.13 0 00.95.4 3.17 3.17 0 001.62-.52zm9.21-9.72a5 5 0 011.9 2 6.06 6.06 0 01.68 2.91 6.12 6.12 0 01-.68 2.92 5 5 0 01-1.9 2 5.78 5.78 0 01-5.57 0 5 5 0 01-1.89-2 6.59 6.59 0 010-5.84 5 5 0 011.89-2 5.78 5.78 0 015.57 0zm-4.6 1.49a3.4 3.4 0 00-1.24 1.4 4.5 4.5 0 00-.44 2 4.61 4.61 0 00.44 2.06 3.31 3.31 0 001.24 1.4 3.4 3.4 0 001.83.49 3.37 3.37 0 001.81-.49 3.31 3.31 0 001.24-1.4 4.59 4.59 0 00.44-2.06 4.48 4.48 0 00-.44-2 3.4 3.4 0 00-1.24-1.4 3.32 3.32 0 00-1.81-.5 3.35 3.35 0 00-1.83.5zm22.06-1.49a5 5 0 011.89 2 6 6 0 01.68 2.91 6.11 6.11 0 01-.68 2.92 5 5 0 01-1.89 2 5.79 5.79 0 01-5.57 0 5 5 0 01-1.89-2 6.59 6.59 0 010-5.84 5 5 0 011.89-2 5.78 5.78 0 015.57 0zm-4.6 1.49a3.4 3.4 0 00-1.24 1.4 4.48 4.48 0 00-.44 2 4.59 4.59 0 00.44 2.06 3.31 3.31 0 001.24 1.4 3.59 3.59 0 003.63 0 3.3 3.3 0 001.24-1.4 4.59 4.59 0 00.45-2.06 4.48 4.48 0 00-.45-2 3.39 3.39 0 00-1.24-1.4 3.52 3.52 0 00-3.63 0zm18.4-1.06a4.51 4.51 0 011 3.16v6.87H782v-6.34a3.07 3.07 0 00-.74-2.19 2.67 2.67 0 00-2-.79 3.06 3.06 0 00-2.28 1 3.87 3.87 0 00-1 2.43v5.94h-1.84v-11.16H776v2.35a4 4 0 014-2.42 3.71 3.71 0 012.8 1.15zm12.2.38a6.5 6.5 0 011.24 4.23v.63H788a3.86 3.86 0 001.17 2.37 3.35 3.35 0 002.36.88 4.18 4.18 0 001.73-.36 4.13 4.13 0 001.39-1l1 1.11a5.26 5.26 0 01-1.86 1.37 5.86 5.86 0 01-2.41.48 5.28 5.28 0 01-2.73-.7 4.81 4.81 0 01-1.86-2 6.75 6.75 0 010-5.83 5 5 0 011.85-2 5.09 5.09 0 012.71-.72 4.46 4.46 0 013.65 1.54zm-.41 3.35a3.51 3.51 0 00-.95-2.38 3.1 3.1 0 00-2.29-.87 3.18 3.18 0 00-2.3.88 3.79 3.79 0 00-1.1 2.37zm13.66-3.13a3.45 3.45 0 00-1.83.48 3.34 3.34 0 00-1.25 1.37 4.39 4.39 0 00-.46 2 4.47 4.47 0 00.45 2 3.38 3.38 0 001.22 1.38 3.27 3.27 0 001.79.49 4.45 4.45 0 001.82-.36 3.47 3.47 0 001.34-1l1 1.13a4.65 4.65 0 01-1.81 1.45 5.86 5.86 0 01-2.48.5 5.13 5.13 0 01-2.71-.71 4.91 4.91 0 01-1.85-2 6.2 6.2 0 01-.66-2.91 6.27 6.27 0 01.66-2.92 4.9 4.9 0 011.85-2 5.13 5.13 0 012.71-.71 6.28 6.28 0 012.38.43 4.61 4.61 0 011.77 1.25l-1 1.34a4 4 0 00-2.94-1.21zm13.41-1.03a5 5 0 011.9 2 6.07 6.07 0 01.68 2.91 6.13 6.13 0 01-.68 2.92 5 5 0 01-1.9 2 5.78 5.78 0 01-5.57 0 5 5 0 01-1.9-2 6.6 6.6 0 010-5.84 5 5 0 011.9-2 5.78 5.78 0 015.57 0zm-4.6 1.49a3.41 3.41 0 00-1.24 1.4 4.51 4.51 0 00-.44 2 4.62 4.62 0 00.44 2.06 3.32 3.32 0 001.24 1.4 3.41 3.41 0 001.83.49 3.37 3.37 0 001.81-.49 3.32 3.32 0 001.24-1.4 4.61 4.61 0 00.44-2.06 4.5 4.5 0 00-.44-2 3.41 3.41 0 00-1.24-1.4 3.32 3.32 0 00-1.81-.5 3.35 3.35 0 00-1.83.5zm18.55-1.06a4.51 4.51 0 011 3.16v6.87h-1.84v-6.34a3.07 3.07 0 00-.74-2.19 2.67 2.67 0 00-2-.79 3 3 0 00-2.41 1.09 4.19 4.19 0 00-.89 2.77v5.46h-1.84V369h1.84v6.87a4 4 0 014-2.46 3.71 3.71 0 012.88 1.11zm12.18.38a6.5 6.5 0 011.24 4.23v.63h-8.25a3.86 3.86 0 001.17 2.37 3.35 3.35 0 002.36.88 4.18 4.18 0 001.73-.36 4.13 4.13 0 001.39-1l1 1.11a5.26 5.26 0 01-1.86 1.37 5.86 5.86 0 01-2.41.48 5.28 5.28 0 01-2.73-.7 4.81 4.81 0 01-1.86-2 6.75 6.75 0 010-5.83 5 5 0 011.85-2 5.09 5.09 0 012.71-.72 4.46 4.46 0 013.66 1.54zm-.41 3.35a3.51 3.51 0 00-.95-2.38 3.1 3.1 0 00-2.29-.87 3.18 3.18 0 00-2.3.88 3.79 3.79 0 00-1.1 2.37zm8.44-3.03a4.84 4.84 0 00-1.49-.25 2.43 2.43 0 00-1.33.33 1.11 1.11 0 00-.5 1 1.12 1.12 0 00.56 1 7.87 7.87 0 001.71.7 12.8 12.8 0 011.78.67 3.19 3.19 0 011.17 1 2.82 2.82 0 01.48 1.72 2.78 2.78 0 01-1.12 2.39 4.55 4.55 0 01-2.77.82 6.55 6.55 0 01-2.26-.4 5.07 5.07 0 01-1.85-1.13l.69-1.43a4.84 4.84 0 001.61 1 5.06 5.06 0 001.87.38 2.66 2.66 0 001.46-.36 1.21 1.21 0 00.55-1.09 1.26 1.26 0 00-.58-1.13 7.68 7.68 0 00-1.77-.76 11.27 11.27 0 01-1.71-.64 3.06 3.06 0 01-1.12-1 3.1 3.1 0 01.6-4 4.41 4.41 0 012.67-.78 6.31 6.31 0 011.87.28 5.45 5.45 0 011.59.77l-.67 1.49a6.12 6.12 0 00-1.44-.58zm6.53-5.86a1.42 1.42 0 010 1.81 1.12 1.12 0 01-1.64 0 1.41 1.41 0 010-1.81 1.12 1.12 0 011.64 0zm-1.73 4.07h1.84v11.11h-1.84zm3.68.01h2l3.14 9.18 3.12-9.18h1.86l-4.07 11.11h-1.91zm19.31 1.46a6.51 6.51 0 011.24 4.23v.63h-8.25a3.86 3.86 0 001.17 2.37 3.35 3.35 0 002.36.88 4.18 4.18 0 001.73-.36 4.13 4.13 0 001.39-1l1 1.11a5.25 5.25 0 01-1.86 1.37 5.85 5.85 0 01-2.41.48 5.28 5.28 0 01-2.73-.7 4.79 4.79 0 01-1.86-2 6.74 6.74 0 010-5.83 5 5 0 011.85-2 5.08 5.08 0 012.71-.72 4.46 4.46 0 013.66 1.54zm-.42 3.35a3.5 3.5 0 00-.95-2.38A3.09 3.09 0 00880 375a3.19 3.19 0 00-2.3.88 3.8 3.8 0 00-1.1 2.37zm-261.05 22.07a3.45 3.45 0 00-1.83.48 3.33 3.33 0 00-1.25 1.36 4.39 4.39 0 00-.46 2 4.46 4.46 0 00.45 2 3.38 3.38 0 001.22 1.38 3.27 3.27 0 001.79.49 4.45 4.45 0 001.82-.36 3.46 3.46 0 001.34-1l1 1.13a4.64 4.64 0 01-1.81 1.45 5.86 5.86 0 01-2.48.5 5.14 5.14 0 01-2.71-.71 4.91 4.91 0 01-1.85-2 6.2 6.2 0 01-.66-2.91 6.26 6.26 0 01.66-2.92 4.9 4.9 0 011.85-2 5.15 5.15 0 012.71-.71 6.26 6.26 0 012.38.43 4.59 4.59 0 011.77 1.25l-1 1.34a4 4 0 00-2.94-1.2zm13.41-1.03a5 5 0 011.9 2 6.58 6.58 0 010 5.83 5 5 0 01-1.9 2 5.78 5.78 0 01-5.57 0 5 5 0 01-1.9-2 6.6 6.6 0 010-5.84 5 5 0 011.9-2 5.79 5.79 0 015.57 0zm-4.6 1.49a3.4 3.4 0 00-1.24 1.4 4.48 4.48 0 00-.44 2 4.61 4.61 0 00.44 2.06 3.33 3.33 0 001.24 1.4 3.4 3.4 0 001.83.49 3.37 3.37 0 001.81-.49 3.32 3.32 0 001.24-1.4 4.61 4.61 0 00.44-2.06 4.49 4.49 0 00-.44-2 3.39 3.39 0 00-1.24-1.4 3.31 3.31 0 00-1.81-.5 3.34 3.34 0 00-1.78.5zm18.99-2.14v11.11h-1.86v-2.35a3.9 3.9 0 01-3.87 2.42 3.62 3.62 0 01-2.84-1.14 4.56 4.56 0 01-1-3.16v-6.87h1.86V405a3.13 3.13 0 00.72 2.2 2.56 2.56 0 002 .79 2.86 2.86 0 002.32-1.1 4.3 4.3 0 00.86-2.76v-5.46zm6.87.58a4.15 4.15 0 012.25-.64v1.89a3.39 3.39 0 00-2.59.88 3.83 3.83 0 00-1.12 2.54v5.86h-1.84v-11.11h1.84V401a4 4 0 011.46-1.78zm8.52 1.2a4.85 4.85 0 00-1.49-.25 2.43 2.43 0 00-1.33.33 1.11 1.11 0 00-.5 1 1.12 1.12 0 00.56 1 8 8 0 001.71.7 12.73 12.73 0 011.78.67 3.2 3.2 0 011.17 1 2.82 2.82 0 01.48 1.72 2.79 2.79 0 01-1.12 2.39 4.57 4.57 0 01-2.77.82 6.57 6.57 0 01-2.26-.4 5.07 5.07 0 01-1.85-1.13l.69-1.43a4.83 4.83 0 001.61 1 5.06 5.06 0 001.87.38 2.66 2.66 0 001.46-.36 1.21 1.21 0 00.55-1.09 1.27 1.27 0 00-.58-1.13 7.69 7.69 0 00-1.77-.76 11.39 11.39 0 01-1.71-.64 3.07 3.07 0 01-1.12-1 3.1 3.1 0 01.6-4 4.41 4.41 0 012.66-.78 6.27 6.27 0 011.87.28 5.47 5.47 0 011.59.77l-.67 1.49a6.07 6.07 0 00-1.43-.58zm12.67-.32a6.51 6.51 0 011.24 4.23v.63H671a3.86 3.86 0 001.17 2.37 3.35 3.35 0 002.36.88 4.15 4.15 0 003.12-1.37l1 1.11a5.28 5.28 0 01-1.86 1.37 5.86 5.86 0 01-2.41.48 5.29 5.29 0 01-2.73-.7 4.81 4.81 0 01-1.86-2 6.27 6.27 0 01-.66-2.92 6.2 6.2 0 01.66-2.91 5 5 0 011.85-2 5.07 5.07 0 012.71-.72 4.46 4.46 0 013.65 1.55zm-.41 3.35a3.5 3.5 0 00-.95-2.38 3.09 3.09 0 00-2.29-.87 3.19 3.19 0 00-2.3.88 3.79 3.79 0 00-1.1 2.37z" class="cls-2"/>
  <g id="EdgePoint-Logo">
    <g id="epl-wordmark">
      <path id="learning" fill="#9e9fa3" d="M850.3 498h-1.64v-15.59h1.64zm4.79-4.9a3.86 3.86 0 003.88 3.73 4.55 4.55 0 003.47-1.55l1 .92a5.68 5.68 0 01-4.54 2.07 5.48 5.48 0 01-5.49-5.75c0-3.2 2.24-5.75 5.28-5.75 3.26 0 5.13 2.6 5.13 5.84a4.59 4.59 0 010 .51h-8.73zm0-1.21h7.09c-.17-2-1.32-3.75-3.51-3.75-1.92 0-3.37 1.6-3.58 3.75zm15.61-3.6a7.68 7.68 0 00-3.34.81l-.49-1.34a9.1 9.1 0 014-.92c3 0 4.69 1.53 4.69 4.43V498H874v-1.7a4.82 4.82 0 01-4 1.9c-2 0-4.11-1.15-4.11-3.45s1.91-3.58 4.7-3.58a11.78 11.78 0 013.39.47v-.38c0-2-1.22-3-3.28-3zm.06 4.13c-2.07 0-3.22.9-3.22 2.3s1.28 2.22 2.77 2.22c2 0 3.69-1.24 3.69-3v-1.07a11.49 11.49 0 00-3.24-.47zm9.93 1.19V498h-1.64v-11h1.64v2.88a4.72 4.72 0 014.49-3.07v1.77h-.13c-2.41 0-4.37 1.72-4.37 5zm8.63-1.92V498h-1.64v-11h1.64v1.92a4.17 4.17 0 013.77-2.15c2.66 0 4.21 1.79 4.21 4.41V498h-1.64v-6.43c0-2-1.11-3.32-3.05-3.32a3.24 3.24 0 00-3.31 3.45zm13.4-7.12h-1.87v-1.81h1.87zm5.32 7.11V498h-1.64v-11h1.6v1.92a4.17 4.17 0 013.77-2.15c2.66 0 4.22 1.79 4.22 4.41V498h-1.64v-6.43c0-2-1.1-3.32-3-3.32a3.24 3.24 0 00-3.3 3.45zM930 496c0 3.55-2.21 5.36-5.6 5.36a8.6 8.6 0 01-5-1.54l.74-1.28a7 7 0 004.23 1.4c2.42 0 4-1.34 4-3.92v-1.29a5.23 5.23 0 01-4.37 2.37 5.2 5.2 0 010-10.4 5.17 5.17 0 014.3 2.21v-2h1.7V496zm-5.62-.39a3.76 3.76 0 100-7.51 3.63 3.63 0 00-3.81 3.73 3.72 3.72 0 003.81 3.77zM902.59 498h-1.64v-11h1.64v11z"/>
      <path id="edgepoint" fill="#12519e" d="M734.17 493.42h8.75a4.73 4.73 0 000-.52c0-3.29-1.88-5.92-5.14-5.92-3.05 0-5.29 2.59-5.29 5.84a5.53 5.53 0 005.51 5.84 5.67 5.67 0 004.55-2.09l-1-.93a4.54 4.54 0 01-3.48 1.58 3.89 3.89 0 01-3.88-3.78zm0-1.23c.21-2.18 1.66-3.8 3.58-3.8 2.2 0 3.35 1.78 3.52 3.81h-7.11zm22.15 6.2v-15.77h-1.64v6.74a5 5 0 00-4.23-2.38c-2.65 0-5.27 2.16-5.27 5.84s2.63 5.82 5.27 5.82a5 5 0 004.23-2.49v2.25h1.64zm-1.58-5.6a4.14 4.14 0 01-4 4.34c-2.09 0-3.88-1.69-3.88-4.34s1.75-4.32 3.88-4.32a4.14 4.14 0 014 4.33zm15.75 3.65v-9.23h-1.65v2a5.24 5.24 0 10-4.31 8.3 5.23 5.23 0 004.33-2.35v1.32a3.65 3.65 0 01-4 4 7 7 0 01-4.25-1.43l-.75 1.29a8.56 8.56 0 005 1.56c3.39 0 5.61-1.83 5.61-5.45zm-1.58-4.19a3.9 3.9 0 01-4.06 3.8 3.75 3.75 0 01-3.82-3.83 3.66 3.66 0 013.81-3.79 3.89 3.89 0 014.06 3.8zm6.23 1.17h8.74a4.73 4.73 0 000-.52c0-3.29-1.88-5.92-5.14-5.92-3.06 0-5.3 2.59-5.3 5.84a5.52 5.52 0 005.5 5.84 5.67 5.67 0 004.54-2.09l-1-.93a4.54 4.54 0 01-3.48 1.58 3.88 3.88 0 01-3.88-3.78zm0-1.23c.21-2.18 1.66-3.8 3.58-3.8 2.2 0 3.35 1.78 3.52 3.81h-7.1zm22.79.61c0-3.7-2.62-5.81-5.27-5.81a5 5 0 00-4.23 2.49v-2.24h-1.65v14.63h1.64v-5.6a5 5 0 004.22 2.38c2.66 0 5.27-2.16 5.27-5.83zm-1.69 0c0 2.72-1.75 4.32-3.88 4.32a4.35 4.35 0 010-8.67c2.09 0 3.88 1.69 3.88 4.34zm15.53 0a5.75 5.75 0 10-5.79 5.86 5.72 5.72 0 005.79-5.86zm-1.69 0a4.1 4.1 0 01-4.06 4.32 4.17 4.17 0 01-4.02-4.32 4.08 4.08 0 014-4.34 4.2 4.2 0 014.1 4.39zm6.58-8.06v-1.84h-1.88v1.84h1.88zm-.13 13.62v-11.14h-1.65v11.18h1.65zM822 492a3.27 3.27 0 013.31-3.5c1.94 0 3.05 1.3 3.05 3.37v6.53H830v-6.94c0-2.66-1.56-4.48-4.22-4.48a4.18 4.18 0 00-3.78 2.18v-1.94h-1.65v11.18H822V492zm13.72-3.31h3.51v-1.47h-3.5v-3.37h-1.65v3.37h-1.54v1.47h1.54v6.75a2.83 2.83 0 003.11 3.16 4.1 4.1 0 002-.48v-1.42a3.42 3.42 0 01-1.6.39 1.64 1.64 0 01-1.86-1.86v-6.53z"/>
      <g id="epl-logomark">
        <path id="_e_" fill="#12529e" d="M705 508a37.48 37.48 0 0011.53-8.41v6.59a1.82 1.82 0 01-1.84 1.81zm-2.22-22.28c.16 2.08-3 9-14.46 9.87 1.15-6.12 5.19-12 10.47-12.4 2.62-.19 3.82.81 3.96 2.53zm-1-6.15c-6 .47-13.12 5.18-17.82 11.11v-13.13a1.82 1.82 0 011.83-1.82h28.9a1.83 1.83 0 011.84 1.82V487c-1.87 5.89-10.6 18.79-22.36 18.8-2.67 0-5-.88-6-3.2a9.35 9.35 0 01-.32-4.86h.15c12.76-1 22.38-8 21.92-13.77-.21-2.69-2.64-4.87-8.13-4.44z" data-name="&quot;e&quot;"/>
      </g>
    </g>
    <g id="epl-wordmark-2" data-name="epl-wordmark">
      <path id="learning-2" d="M850.3 498h-1.64v-15.59h1.64zm4.79-4.9a3.86 3.86 0 003.88 3.73 4.55 4.55 0 003.47-1.55l1 .92a5.68 5.68 0 01-4.54 2.07 5.48 5.48 0 01-5.49-5.75c0-3.2 2.24-5.75 5.28-5.75 3.26 0 5.13 2.6 5.13 5.84a4.59 4.59 0 010 .51h-8.73zm0-1.21h7.09c-.17-2-1.32-3.75-3.51-3.75-1.92 0-3.37 1.6-3.58 3.75zm15.61-3.6a7.68 7.68 0 00-3.34.81l-.49-1.34a9.1 9.1 0 014-.92c3 0 4.69 1.53 4.69 4.43V498H874v-1.7a4.82 4.82 0 01-4 1.9c-2 0-4.11-1.15-4.11-3.45s1.91-3.58 4.7-3.58a11.78 11.78 0 013.39.47v-.38c0-2-1.22-3-3.28-3zm.06 4.13c-2.07 0-3.22.9-3.22 2.3s1.28 2.22 2.77 2.22c2 0 3.69-1.24 3.69-3v-1.07a11.49 11.49 0 00-3.24-.47zm9.93 1.19V498h-1.64v-11h1.64v2.88a4.72 4.72 0 014.49-3.07v1.77h-.13c-2.41 0-4.37 1.72-4.37 5zm8.63-1.92V498h-1.64v-11h1.64v1.92a4.17 4.17 0 013.77-2.15c2.66 0 4.21 1.79 4.21 4.41V498h-1.64v-6.43c0-2-1.11-3.32-3.05-3.32a3.24 3.24 0 00-3.31 3.45zm13.4-7.12h-1.87v-1.81h1.87zm5.32 7.11V498h-1.64v-11h1.6v1.92a4.17 4.17 0 013.77-2.15c2.66 0 4.22 1.79 4.22 4.41V498h-1.64v-6.43c0-2-1.1-3.32-3-3.32a3.24 3.24 0 00-3.3 3.45zM930 496c0 3.55-2.21 5.36-5.6 5.36a8.6 8.6 0 01-5-1.54l.74-1.28a7 7 0 004.23 1.4c2.42 0 4-1.34 4-3.92v-1.29a5.23 5.23 0 01-4.37 2.37 5.2 5.2 0 010-10.4 5.17 5.17 0 014.3 2.21v-2h1.7V496zm-5.62-.39a3.76 3.76 0 100-7.51 3.63 3.63 0 00-3.81 3.73 3.72 3.72 0 003.81 3.77zM902.59 498h-1.64v-11h1.64v11z" class="cls-2" data-name="learning"/>
      <path id="edgepoint-2" d="M734.17 493.42h8.75a4.73 4.73 0 000-.52c0-3.29-1.88-5.92-5.14-5.92-3.05 0-5.29 2.59-5.29 5.84a5.53 5.53 0 005.51 5.84 5.67 5.67 0 004.55-2.09l-1-.93a4.54 4.54 0 01-3.48 1.58 3.89 3.89 0 01-3.88-3.78zm0-1.23c.21-2.18 1.66-3.8 3.58-3.8 2.2 0 3.35 1.78 3.52 3.81h-7.11zm22.15 6.2v-15.77h-1.64v6.74a5 5 0 00-4.23-2.38c-2.65 0-5.27 2.16-5.27 5.84s2.63 5.82 5.27 5.82a5 5 0 004.23-2.49v2.25h1.64zm-1.58-5.6a4.14 4.14 0 01-4 4.34c-2.09 0-3.88-1.69-3.88-4.34s1.75-4.32 3.88-4.32a4.14 4.14 0 014 4.33zm15.75 3.65v-9.23h-1.65v2a5.24 5.24 0 10-4.31 8.3 5.23 5.23 0 004.33-2.35v1.32a3.65 3.65 0 01-4 4 7 7 0 01-4.25-1.43l-.75 1.29a8.56 8.56 0 005 1.56c3.39 0 5.61-1.83 5.61-5.45zm-1.58-4.19a3.9 3.9 0 01-4.06 3.8 3.75 3.75 0 01-3.82-3.83 3.66 3.66 0 013.81-3.79 3.89 3.89 0 014.06 3.8zm6.23 1.17h8.74a4.73 4.73 0 000-.52c0-3.29-1.88-5.92-5.14-5.92-3.06 0-5.3 2.59-5.3 5.84a5.52 5.52 0 005.5 5.84 5.67 5.67 0 004.54-2.09l-1-.93a4.54 4.54 0 01-3.48 1.58 3.88 3.88 0 01-3.88-3.78zm0-1.23c.21-2.18 1.66-3.8 3.58-3.8 2.2 0 3.35 1.78 3.52 3.81h-7.1zm22.79.61c0-3.7-2.62-5.81-5.27-5.81a5 5 0 00-4.23 2.49v-2.24h-1.65v14.63h1.64v-5.6a5 5 0 004.22 2.38c2.66 0 5.27-2.16 5.27-5.83zm-1.69 0c0 2.72-1.75 4.32-3.88 4.32a4.35 4.35 0 010-8.67c2.09 0 3.88 1.69 3.88 4.34zm15.53 0a5.75 5.75 0 10-5.79 5.86 5.72 5.72 0 005.79-5.86zm-1.69 0a4.1 4.1 0 01-4.06 4.32 4.17 4.17 0 01-4.02-4.32 4.08 4.08 0 014-4.34 4.2 4.2 0 014.1 4.39zm6.58-8.06v-1.84h-1.88v1.84h1.88zm-.13 13.62v-11.14h-1.65v11.18h1.65zM822 492a3.27 3.27 0 013.31-3.5c1.94 0 3.05 1.3 3.05 3.37v6.53H830v-6.94c0-2.66-1.56-4.48-4.22-4.48a4.18 4.18 0 00-3.78 2.18v-1.94h-1.65v11.18H822V492zm13.72-3.31h3.51v-1.47h-3.5v-3.37h-1.65v3.37h-1.54v1.47h1.54v6.75a2.83 2.83 0 003.11 3.16 4.1 4.1 0 002-.48v-1.42a3.42 3.42 0 01-1.6.39 1.64 1.64 0 01-1.86-1.86v-6.53z" class="cls-2" data-name="edgepoint"/>
      <g id="epl-logomark-2" data-name="epl-logomark">
        <path id="_e_2" d="M705 508a37.48 37.48 0 0011.53-8.41v6.59a1.82 1.82 0 01-1.84 1.81zm-2.22-22.28c.16 2.08-3 9-14.46 9.87 1.15-6.12 5.19-12 10.47-12.4 2.62-.19 3.82.81 3.96 2.53zm-1-6.15c-6 .47-13.12 5.18-17.82 11.11v-13.13a1.82 1.82 0 011.83-1.82h28.9a1.83 1.83 0 011.84 1.82V487c-1.87 5.89-10.6 18.79-22.36 18.8-2.67 0-5-.88-6-3.2a9.35 9.35 0 01-.32-4.86h.15c12.76-1 22.38-8 21.92-13.77-.21-2.69-2.64-4.87-8.13-4.44z" class="cls-2" data-name="&quot;e&quot;"/>
      </g>
    </g>
  </g>
  <path d="M158.87 104.91a9.16 9.16 0 00-2.77-.55 2.56 2.56 0 00-1.39.32 1.06 1.06 0 00-.51.95 1.3 1.3 0 00.44 1 3.37 3.37 0 001.09.65q.65.25 1.92.64a25.07 25.07 0 013.15 1.08 5.49 5.49 0 012.12 1.68 4.66 4.66 0 01.88 3 5 5 0 01-1 3.11 5.83 5.83 0 01-2.64 1.94 10.26 10.26 0 01-3.73.65 13.49 13.49 0 01-4.51-.79 12.34 12.34 0 01-3.89-2.17l1.85-3.72a11.48 11.48 0 003.26 2 8.91 8.91 0 003.34.78 3.1 3.1 0 001.68-.39 1.27 1.27 0 00.61-1.14 1.35 1.35 0 00-.45-1 3.36 3.36 0 00-1.14-.66q-.69-.25-1.94-.58a23.88 23.88 0 01-3.09-1.05 5.47 5.47 0 01-2.09-1.61 4.43 4.43 0 01-.87-2.87 5 5 0 01.9-3 5.71 5.71 0 012.55-2 9.9 9.9 0 013.83-.69 13.92 13.92 0 013.9.56 12.85 12.85 0 013.38 1.49l-1.79 3.8a16 16 0 00-3.09-1.43zm5.76-4.08h15.63v3.93h-5.46v14.3H170v-14.3h-5.41zm17.55 0h14.38v3.8h-9.62V108h8.68v3.77h-8.68v3.43h9.88v3.8h-14.64zm30.97 1.68a5.93 5.93 0 011.92 4.72 6.48 6.48 0 01-1.92 5 7.66 7.66 0 01-5.41 1.78h-3.25v5h-4.76v-18.18h8a8 8 0 015.42 1.68zm-3.39 7a2.72 2.72 0 00.79-2.11 2.61 2.61 0 00-.79-2 3.24 3.24 0 00-2.25-.72h-3v5.59h3a3.21 3.21 0 002.25-.78zm30.06-1.24h-3.51l-.47 3.59h3.48l-.36 3.22h-3.51l-.49 4h-3.33l.49-4h-3.54l-.49 4h-3.33l.49-4h-3.48l.36-3.22h3.51l.47-3.59h-3.48L223 105h3.51l.52-4.19h3.33l-.52 4.19h3.54l.52-4.19h3.33l-.53 4.19h3.48zm-7.31 3.59l.47-3.59h-3.54l-.47 3.59zm7.65-11.03h8.27v18.23h-4.76v-14.33h-3.51zm295.26 29.91a21.33 21.33 0 1121.33 21.53 21.46 21.46 0 01-21.33-21.53zm1.24 0a20.09 20.09 0 1020.09-20.29 20.22 20.22 0 00-20.09 20.29z" class="cls-2"/>
  <path d="M556.7 160.15a29 29 0 01-20.76-8.72 29.74 29.74 0 01.05-41.77A29 29 0 01556.7 101a28.93 28.93 0 0120.73 8.71 29.73 29.73 0 010 41.77 28.94 28.94 0 01-20.69 8.67zm0-57.91a27.74 27.74 0 00-19.82 8.3 28.5 28.5 0 00-.05 40 27.75 27.75 0 0019.87 8.35 27.71 27.71 0 0019.81-8.3 28.5 28.5 0 000-40 27.69 27.69 0 00-19.85-8.34zm-48.39 66.55l18.55-18.73 10.54 10.64-18.55 18.73zm18.55-17l-16.8 17 8.8 8.88 16.81-17z" class="cls-2"/>
  <path d="M522.538 157.57l.88-.872 5.185 5.24-.88.87zM517.27 181l2.5-2.52-.88-.87-2.13 2.15a9.08 9.08 0 01-8.76-8.86l2.13-2.15-.88-.87-2.32 2.34-.18.18v.25A10.32 10.32 0 00517 181zm14.614-26.055l4.046-4.085.88.872-4.045 4.086zm9.536-17.595h30.56v.89h-30.56zm0-5h30.56v.89h-30.56zm5.28 10.01h20v.88h-20zm13.99-15.14h-18.57v-5.16h18.57zm-17.69-.89h16.8V123H543z" class="cls-2"/>
</svg>
