<svg xmlns="http://www.w3.org/2000/svg" viewBox="0 0 1280 800">
  <defs>
    <filter id="b" width="503.75" height="65.15" x="55.05" y="170.15" filterUnits="userSpaceOnUse">
      <feOffset dy="5"/>
      <feGaussianBlur result="blur" stdDeviation="3.5"/>
      <feFlood flood-opacity=".161"/>
      <feComposite in2="blur" operator="in"/>
      <feComposite in="SourceGraphic"/>
    </filter>
    <filter id="c" width="467.75" height="284.15" x="54.8" y="271.15" filterUnits="userSpaceOnUse">
      <feOffset dy="5"/>
      <feGaussianBlur result="blur-2" stdDeviation="3.5"/>
      <feFlood flood-opacity=".161"/>
      <feComposite in2="blur-2" operator="in"/>
      <feComposite in="SourceGraphic"/>
    </filter>
    <clipPath id="a">
      <path d="M0 0h1280v800H0z"/>
    </clipPath>
  </defs>
  <g clip-path="url(#a)" data-name="2017-05-17-what-is-mlearning-04">
    <path fill="#d08a82" d="M0 0h1280v800H0z"/>
    <g data-name="Group 147">
      <g data-name="Group 90">
        <path fill="#ffd8d2" d="M1064.654 124.549a33.066 33.066 0 00-10.507-6.791 34.129 34.129 0 00-25.505 0 33.06 33.06 0 00-10.508 6.791 31.975 31.975 0 00-7.18 10.216 31.123 31.123 0 00-2.666 12.649 32.509 32.509 0 001.033 7.318c.445 1.894 1.723 6.625 3.981 9.658 1.07 1.436 2.289 2.852 3.581 4.353 2.272 2.64 6.077 7.058 6.373 9.363v.079a1.85 1.85 0 001.847 1.772h.08a1.85 1.85 0 001.77-1.927 3.952 3.952 0 00-.033-.379v-.015c-.406-3.15-3.519-6.984-7.241-11.308-1.247-1.448-2.424-2.815-3.415-4.146-1.506-2.023-2.716-5.611-3.347-8.3a29.015 29.015 0 01-.934-6.469 27.447 27.447 0 012.351-11.155 28.294 28.294 0 016.354-9.038 29.388 29.388 0 019.338-6.034 30.429 30.429 0 0122.726 0 29.377 29.377 0 019.337 6.034 28.294 28.294 0 016.355 9.038 27.446 27.446 0 012.351 11.155 27.772 27.772 0 01-7.931 19.389c-.21.218-.515.526-.9.921-3.747 3.8-4.312 4.5-4.5 4.732-.025.032-.05.064-.073.1a15.512 15.512 0 00-2.291 4.35 1.85 1.85 0 103.558 1.019 11.611 11.611 0 011.727-3.192c.282-.341 1.206-1.362 4.216-4.411.4-.4.71-.719.925-.943a31.451 31.451 0 008.972-21.962 31.126 31.126 0 00-2.666-12.649 31.98 31.98 0 00-7.178-10.218z" data-name="Path 176"/>
        <g data-name="Group 76">
          <g data-name="Group 71">
            <g data-name="Group 67">
              <path fill="#ffd8d2" d="M1040.606 91.566a1.85 1.85 0 00-1.85 1.85v16.135a1.85 1.85 0 103.7 0V93.416a1.851 1.851 0 00-1.85-1.85z" data-name="Path 177"/>
            </g>
            <g data-name="Group 68">
              <path fill="#ffd8d2" d="M1015.702 100.067a1.85 1.85 0 10-3.2 1.85l8.067 13.973a1.85 1.85 0 103.205-1.85z" data-name="Path 178"/>
            </g>
            <g data-name="Group 69">
              <path fill="#ffd8d2" d="M1009.826 127.272l-13.973-8.068a1.85 1.85 0 00-1.85 3.2l13.974 8.068a1.85 1.85 0 001.85-3.205z" data-name="Path 179"/>
            </g>
            <g data-name="Group 70">
              <path fill="#ffd8d2" d="M1004.375 145.7h-16.136a1.85 1.85 0 000 3.7h16.135a1.85 1.85 0 000-3.7z" data-name="Path 180"/>
            </g>
          </g>
          <g data-name="Group 75">
            <g data-name="Group 72">
              <path fill="#ffd8d2" d="M1068.606 98.074a1.85 1.85 0 00-2.528.677l-8.068 13.973a1.85 1.85 0 103.2 1.85l8.068-13.973a1.85 1.85 0 00-.672-2.527z" data-name="Path 181"/>
            </g>
            <g data-name="Group 73">
              <path fill="#ffd8d2" d="M1086.886 116.925l-13.973 8.068a1.85 1.85 0 101.85 3.2l13.974-8.068a1.85 1.85 0 10-1.85-3.2z" data-name="Path 182"/>
            </g>
            <g data-name="Group 74">
              <path fill="#ffd8d2" d="M1095.817 143.068h-16.135a1.85 1.85 0 100 3.7h16.135a1.85 1.85 0 000-3.7z" data-name="Path 183"/>
            </g>
          </g>
        </g>
        <path fill="#ffd8d2" d="M1049.189 156.459a3.164 3.164 0 00-3.6.207 4.445 4.445 0 01-.9.517 4.385 4.385 0 01-.3-.718 3.143 3.143 0 00-3.109-3.067 3.188 3.188 0 00-.65.042 3.151 3.151 0 00-2.618 3.024 4.3 4.3 0 01-.3.722 4.221 4.221 0 01-.9-.521 3.152 3.152 0 00-5.039 3.1l3.575 17.647a1.85 1.85 0 003.627-.735l-3.319-16.381c1.014.541 2.516 1.068 3.745.364a1.833 1.833 0 113.6 0 3.383 3.383 0 003.029-.032 7.847 7.847 0 00.718-.336l-3.32 16.385a1.851 1.851 0 003.627.734l3.575-17.647a3.162 3.162 0 00-1.441-3.305zm-14.661 3.121zm10.361-2.091z" data-name="Path 184"/>
        <path fill="#ffd8d2" d="M1030.099 132.042a19.235 19.235 0 00-5.469 6.035 1.85 1.85 0 103.2 1.851 15.564 15.564 0 014.424-4.881 1.85 1.85 0 00-2.16-3z" data-name="Path 185"/>
        <path fill="#ffd8d2" d="M1041.394 128.391a19.25 19.25 0 00-5.572.825 1.85 1.85 0 001.072 3.542 15.635 15.635 0 0120.154 14.986v.094a1.85 1.85 0 001.783 1.915h.067a1.85 1.85 0 001.848-1.784v-.022-.2a19.375 19.375 0 00-19.352-19.356z" data-name="Path 186"/>
        <g data-name="Group 89">
          <g data-name="Group 78">
            <g data-name="Group 77">
              <path fill="#ffd8d2" d="M1053.684 193.921a1.851 1.851 0 00-.739 2.258 13 13 0 01-23.1 0 1.85 1.85 0 00-3.288-1.667 3.133 3.133 0 00-.155 3.057 16.7 16.7 0 0029.987 0 3.132 3.132 0 00-.155-3.056 1.85 1.85 0 00-2.55-.592z" data-name="Path 187"/>
            </g>
          </g>
          <g data-name="Group 83">
            <g data-name="Group 80">
              <g data-name="Group 79">
                <path fill="#ffd8d2" d="M1054.936 175.328h-27.084a6.4 6.4 0 100 12.8h27.084a6.4 6.4 0 100-12.8zm0 9.1h-27.084a2.7 2.7 0 110-5.4h27.084a2.7 2.7 0 110 5.4z" data-name="Path 188"/>
              </g>
            </g>
            <g data-name="Group 82">
              <g data-name="Group 81">
                <path fill="#ffd8d2" d="M1054.936 175.328h-27.084a6.4 6.4 0 100 12.8h27.084a6.4 6.4 0 100-12.8zm0 9.1h-27.084a2.7 2.7 0 110-5.4h27.084a2.7 2.7 0 110 5.4z" data-name="Path 189"/>
              </g>
            </g>
          </g>
          <g data-name="Group 88">
            <g data-name="Group 85">
              <g data-name="Group 84">
                <path fill="#ffd8d2" d="M1054.936 184.433h-27.084a6.4 6.4 0 100 12.8h27.084a6.4 6.4 0 100-12.8zm0 9.1h-27.084a2.7 2.7 0 110-5.4h27.084a2.7 2.7 0 110 5.4z" data-name="Path 190"/>
              </g>
            </g>
            <g data-name="Group 87">
              <g data-name="Group 86">
                <path fill="#ffd8d2" d="M1054.936 184.433h-27.084a6.4 6.4 0 100 12.8h27.084a6.4 6.4 0 100-12.8zm0 9.1h-27.084a2.7 2.7 0 110-5.4h27.084a2.7 2.7 0 110 5.4z" data-name="Path 191"/>
              </g>
            </g>
          </g>
        </g>
      </g>
      <g data-name="Group 92">
        <g data-name="Group 91">
          <path fill="#fff" d="M752.33 149.932c-7.431-7.568-23.369-5.205-35.589 5.26s-16.105 25.068-8.662 32.617l89.234 96.693c7.44 7.559 23.373 5.191 35.6-5.272 12.212-10.458 16.1-25.067 8.65-32.625z" data-name="Path 192"/>
          <path fill="#542d2a" d="M844.943 243.388l-89.184-96.621a1.18 1.18 0 00-.1-.1 18.615 18.615 0 00-7.06-4.46 24.514 24.514 0 00-8.319-1.37 36.629 36.629 0 00-13.525 2.814 47.393 47.393 0 00-13.049 8 44.988 44.988 0 00-10.045 12.1 30.35 30.35 0 00-4.01 13.248 20.321 20.321 0 001.046 7.541 17.347 17.347 0 004 6.493l89.185 96.64c.034.037.069.073.1.109a18.631 18.631 0 007.058 4.45 24.537 24.537 0 008.312 1.367 36.661 36.661 0 0013.531-2.815 47.473 47.473 0 0013.058-8 44.983 44.983 0 0010.038-12.094 30.359 30.359 0 004.008-13.247 20.338 20.338 0 00-1.045-7.546 17.368 17.368 0 00-3.999-6.509zm-12.031 35.841c-7.4 6.33-16.147 9.7-23.555 9.7-4.839 0-9.105-1.437-12.045-4.424l-89.234-96.692c-7.444-7.549-3.562-22.155 8.662-32.617 7.388-6.328 16.135-9.693 23.539-9.693 4.842 0 9.112 1.44 12.05 4.432l89.232 96.673c7.448 7.555 3.564 22.164-8.648 32.622z" data-name="Path 193"/>
        </g>
      </g>
      <path fill="#ffd8d2" d="M769.924 168.999v85.831l27.384 29.672c7.44 7.559 23.373 5.191 35.6-5.272 12.212-10.458 16.1-25.067 8.65-32.625z" data-name="Path 194"/>
      <g data-name="Group 93">
        <path fill="#fff" d="M965.818 311.356l-146.358 96.8-30.417-27.188c-7.521-7.48-16.417 12.625-28.513 23.233s-39.205 8.317-31.681 25.345c0 0 44.1 37.35 49.143 44.977l63.331 95.75a69.452 69.452 0 0096.241 19.613l89.889-59.454a69.451 69.451 0 0019.613-96.241z" data-name="Path 195"/>
        <path fill="#542d2a" d="M1049.011 432.908l-81.247-122.839a2.332 2.332 0 00-3.233-.659l-144.857 95.811-29.032-25.95a7.079 7.079 0 00-5.5-2.25c-5.006.295-9.429 5.875-15.029 12.938-3.5 4.417-7.123 8.986-11.121 12.491-4.087 3.583-10.212 5.626-16.135 7.6-7.422 2.475-14.431 4.813-16.822 10.219-1.291 2.92-1.069 6.263.68 10.22a2.335 2.335 0 00.626.837c12.195 10.329 44.718 38.456 48.7 44.484l63.331 95.75a71.725 71.725 0 0099.474 20.272l89.889-59.454a71.726 71.726 0 0020.272-99.474zm5.894 53a66.9 66.9 0 01-28.74 42.579l-89.889 59.454a67.061 67.061 0 01-93.008-18.955l-63.331-95.75c-4.957-7.495-44.344-41.025-49.159-45.112-1.007-2.461-1.162-4.417-.476-5.968 1.557-3.52 7.616-5.541 14.031-7.681 6.065-2.023 12.94-4.316 17.734-8.52 4.316-3.784 8.239-8.734 11.7-13.1 4.29-5.411 8.726-11.007 11.647-11.179a2.5 2.5 0 011.982.947q.044.044.091.085l30.417 27.188a2.332 2.332 0 002.842.206l144.412-95.517 79.961 120.893a66.9 66.9 0 019.785 50.43z" data-name="Path 196"/>
      </g>
      <g data-name="Group 95">
        <g data-name="Group 94">
          <path fill="#ffd8d2" d="M837.453 388.352l-53.728-58.959c-7.4-7.595-23.353-5.289-35.609 5.133s-16.194 25.011-8.778 32.585l62.615 68.269c7.413 7.585 23.354 5.274 35.619-5.146l-3.224-13.157c12.248-10.413 10.524-21.142 3.105-28.725z" data-name="Path 197"/>
          <path fill="#542d2a" d="M840.847 385.15l-53.675-58.9a3.842 3.842 0 00-.108-.114 18.624 18.624 0 00-7.092-4.5 24.588 24.588 0 00-8.371-1.383 36.723 36.723 0 00-13.485 2.787 47.415 47.415 0 00-13.024 7.933 44.966 44.966 0 00-10.088 12.059 30.342 30.342 0 00-4.057 13.233 20.309 20.309 0 001.019 7.545 17.337 17.337 0 003.979 6.507l62.568 68.218.1.107a18.637 18.637 0 007.089 4.492 24.6 24.6 0 008.364 1.379 36.747 36.747 0 0013.491-2.788 47.5 47.5 0 0013.033-7.934 4.666 4.666 0 001.511-4.667l-2.565-10.465a31.652 31.652 0 005.52-7.019 21.481 21.481 0 002.871-9.612 20.276 20.276 0 00-1.819-9.288 26.478 26.478 0 00-5.261-7.59zm-6.5 31.927l3.224 13.157c-7.391 6.279-16.114 9.613-23.5 9.613-4.875 0-9.17-1.452-12.116-4.467l-62.614-68.268c-7.417-7.574-3.483-22.167 8.778-32.585 7.381-6.276 16.1-9.608 23.486-9.608 4.879 0 9.177 1.455 12.123 4.476l53.728 58.958c7.416 7.578 9.139 18.311-3.108 28.725z" data-name="Path 198"/>
        </g>
      </g>
      <g data-name="Group 97">
        <g data-name="Group 96">
          <path fill="#ffd8d2" d="M839.181 317.776l-53.728-58.958c-7.4-7.6-23.352-5.289-35.609 5.132s-16.195 25.012-8.778 32.586l62.615 68.268c7.413 7.585 23.353 5.273 35.619-5.147l-3.225-13.157c12.25-10.413 10.526-21.141 3.106-28.724z" data-name="Path 199"/>
          <path fill="#542d2a" d="M842.576 314.574l-53.674-58.9a3.842 3.842 0 00-.108-.114 18.617 18.617 0 00-7.092-4.5 24.581 24.581 0 00-8.371-1.383 36.723 36.723 0 00-13.484 2.787 47.407 47.407 0 00-13.024 7.932 44.985 44.985 0 00-10.088 12.061 30.342 30.342 0 00-4.056 13.234 20.3 20.3 0 001.019 7.544 17.339 17.339 0 003.979 6.507l62.568 68.217.1.108a18.636 18.636 0 007.089 4.491 24.6 24.6 0 008.364 1.379 36.742 36.742 0 0013.491-2.788 47.5 47.5 0 0013.035-7.935 4.666 4.666 0 001.511-4.667l-2.565-10.464a31.648 31.648 0 005.52-7.019 21.476 21.476 0 002.87-9.611 20.268 20.268 0 00-1.819-9.289 26.469 26.469 0 00-5.265-7.59zm-6.5 31.927l3.225 13.156c-7.391 6.279-16.114 9.613-23.5 9.613-4.874 0-9.169-1.452-12.115-4.466l-62.615-68.268c-7.417-7.574-3.483-22.167 8.778-32.586 7.381-6.276 16.1-9.608 23.486-9.608 4.879 0 9.177 1.455 12.123 4.476l53.728 58.958c7.415 7.584 9.138 18.311-3.109 28.728z" data-name="Path 200"/>
        </g>
      </g>
      <g data-name="Group 98">
        <path fill="#ffd8d2" d="M878.234 58.993h-8.722c-1.477 0-2.675 3.821-2.675 8.533s1.2 8.533 2.675 8.533h8.722c1.478 0 2.675-3.821 2.675-8.533s-1.197-8.533-2.675-8.533z" data-name="Path 201"/>
        <path fill="#542d2a" d="M883.024 56.885a5.881 5.881 0 00-4.791-2.558h-8.722a5.879 5.879 0 00-4.79 2.558 10.671 10.671 0 00-1.554 3.212 28.177 28.177 0 000 14.859 10.67 10.67 0 001.554 3.212 5.879 5.879 0 004.79 2.558h8.722a5.881 5.881 0 004.791-2.558 10.683 10.683 0 001.554-3.212 28.179 28.179 0 000-14.859 10.692 10.692 0 00-1.554-3.212zm-4.791 19.174h-8.722c-1.478 0-2.675-3.821-2.675-8.533s1.2-8.533 2.675-8.533h8.722c1.478 0 2.676 3.821 2.676 8.533s-1.197 8.533-2.675 8.533z" data-name="Path 202"/>
      </g>
      <g data-name="Group 99">
        <path fill="#ffd8d2" d="M854.996 58.993h-27.819a8.533 8.533 0 100 17.066h27.819a8.533 8.533 0 000-17.066z" data-name="Path 203"/>
        <path fill="#542d2a" d="M854.995 54.327h-27.819a13.2 13.2 0 100 26.4h27.819a13.2 13.2 0 000-26.4zm0 21.732h-27.819a8.533 8.533 0 110-17.066h27.819a8.533 8.533 0 010 17.066z" data-name="Path 204"/>
      </g>
      <path fill="#ffd8d2" d="M819.461 408.159l-30.417-27.188a5.023 5.023 0 00-3.175-1.613V484.64s23.327 35.736 23.784 35.736h179.7a23.81 23.81 0 0023.784-23.784v-113.7l-47.318-71.541z" data-name="Path 205"/>
      <g data-name="Group 100">
        <path fill="#ffd8d2" d="M902.275 63.339a113.633 113.633 0 01113.634 113.633v220.667a113.634 113.634 0 01-113.634 113.629 113.634 113.634 0 01-113.634-113.634V176.973A113.634 113.634 0 01902.275 63.339z" data-name="Rectangle 80"/>
        <path fill="#542d2a" d="M992.125 61.006h-179.7a26.146 26.146 0 00-26.117 26.117v400.361a26.146 26.146 0 0026.117 26.117h179.7a26.146 26.146 0 0026.116-26.117V87.123a26.146 26.146 0 00-26.116-26.117zm21.451 426.478a21.475 21.475 0 01-21.451 21.451h-179.7a21.475 21.475 0 01-21.451-21.451V87.123a21.475 21.475 0 0121.451-21.451h179.7a21.475 21.475 0 0121.451 21.451z" data-name="Path 206"/>
      </g>
      <path fill="#e3998e" d="M902.274 70.521a105.963 105.963 0 01105.964 105.963v221.637a105.963 105.963 0 01-105.964 105.965 105.963 105.963 0 01-105.963-105.965V176.484A105.963 105.963 0 01902.274 70.521z" data-name="Rectangle 81"/>
      <g fill="#ffd8d2" data-name="Group 101">
        <path d="M895.867 78.469h-13.758a1.85 1.85 0 000 3.7h13.758a1.85 1.85 0 100-3.7z" data-name="Path 207"/>
        <path d="M983.059 78.469H914.07a1.85 1.85 0 100 3.7h68.993a12.725 12.725 0 0112.71 12.711 1.85 1.85 0 003.7 0 16.43 16.43 0 00-16.414-16.411z" data-name="Path 208"/>
        <path d="M997.619 100.397a1.85 1.85 0 00-1.851 1.85v7.159a1.85 1.85 0 103.7 0v-7.159a1.85 1.85 0 00-1.849-1.85z" data-name="Path 209"/>
        <path d="M997.619 114.073a1.85 1.85 0 00-1.851 1.85v.324a1.85 1.85 0 103.7 0v-.324a1.85 1.85 0 00-1.849-1.85z" data-name="Path 210"/>
      </g>
      <path fill="#72c8ed" d="M930.123 98.652h-55.7a5.063 5.063 0 000 10.127h55.7a5.063 5.063 0 100-10.127z" data-name="Path 211"/>
      <g data-name="Group 102">
        <path fill="#ffd8d2" d="M930.123 94.872h-55.7a5.063 5.063 0 000 10.127h55.7a5.063 5.063 0 100-10.127z" data-name="Path 212"/>
        <path fill="#542d2a" d="M930.123 90.206h-55.7a9.73 9.73 0 000 19.459h55.7a9.73 9.73 0 000-19.459zm0 14.793h-55.7a5.063 5.063 0 010-10.127h55.7a5.063 5.063 0 010 10.127z" data-name="Path 213"/>
      </g>
      <g data-name="Group 103">
        <path fill="#d08a82" d="M921.4 477.237h-38.251a3.985 3.985 0 100 7.97H921.4a3.985 3.985 0 100-7.97z" data-name="Path 214"/>
        <path fill="#542d2a" d="M921.4 472.571h-38.251a8.651 8.651 0 000 17.3H921.4a8.651 8.651 0 000-17.3zm0 12.637h-38.251a3.985 3.985 0 110-7.97H921.4a3.985 3.985 0 110 7.97z" data-name="Path 215"/>
      </g>
      <g data-name="Group 104">
        <path fill="#fff" d="M806.766 126.453h190.853v333.331H806.766z" data-name="Rectangle 82"/>
        <path fill="#542d2a" d="M997.619 121.787H806.766a4.666 4.666 0 00-4.666 4.666v333.331a4.666 4.666 0 004.666 4.666h190.853a4.666 4.666 0 004.666-4.666V126.453a4.666 4.666 0 00-4.666-4.666zm0 338H806.766V126.453h190.853z" data-name="Path 216"/>
      </g>
      <path fill="#fff" d="M1079.483 235.164a13.555 13.555 0 01-9.6-3.91 13.3 13.3 0 01-3.954-9.535 1.85 1.85 0 00-1.849-1.851 1.85 1.85 0 00-1.85 1.849 13.306 13.306 0 01-13.445 13.446 1.85 1.85 0 000 3.7 13.306 13.306 0 019.533 3.955 13.567 13.567 0 013.915 9.606 1.85 1.85 0 001.85 1.849 1.85 1.85 0 001.849-1.851 13.522 13.522 0 0113.559-13.558 1.85 1.85 0 000-3.7zm-12.217 5.046a3.331 3.331 0 11-6.328.006 17.021 17.021 0 00-4.353-3.19 5.635 5.635 0 1110.686-3.141 17.156 17.156 0 004.371 3.143 17.224 17.224 0 00-4.376 3.182z" data-name="Path 217"/>
      <path fill="#fff" d="M1101.76 292.029a4.878 4.878 0 01-4.93-4.929 1.85 1.85 0 10-3.7 0 4.906 4.906 0 01-4.981 4.93 1.85 1.85 0 100 3.7 4.963 4.963 0 014.976 4.98 1.85 1.85 0 001.85 1.849 1.85 1.85 0 001.85-1.851 4.987 4.987 0 011.435-3.533 4.874 4.874 0 013.492-1.447 1.85 1.85 0 000-3.7zm-6.126 2.545a9.013 9.013 0 00-.666.754 8.625 8.625 0 00-.677-.76 8.768 8.768 0 00-.761-.678 8.73 8.73 0 001.439-1.428 8.7 8.7 0 00.672.755 8.556 8.556 0 00.755.672 8.73 8.73 0 00-.762.686z" data-name="Path 218"/>
      <path fill="#fff" d="M766.712 105.708a4.878 4.878 0 01-4.93-4.929 1.85 1.85 0 00-3.7 0 4.905 4.905 0 01-4.981 4.931 1.85 1.85 0 000 3.7 4.963 4.963 0 014.975 4.98 1.85 1.85 0 001.85 1.85 1.85 1.85 0 001.85-1.851 4.983 4.983 0 011.435-3.533 4.872 4.872 0 013.492-1.447 1.85 1.85 0 000-3.7zm-6.125 2.545a.676.676 0 11-1.343-.006 8.766 8.766 0 00-.761-.678 8.732 8.732 0 001.44-1.428 8.631 8.631 0 001.427 1.427 8.748 8.748 0 00-.763.685z" data-name="Path 219"/>
      <path fill="#fff" d="M706.664 374.108a1.85 1.85 0 00-3.159-1.309.7.7 0 01-1.015-.014 1.85 1.85 0 00-2.615 2.619.719.719 0 010 1.026 1.85 1.85 0 002.617 2.616.735.735 0 01.516-.222.679.679 0 01.5.208 1.85 1.85 0 102.618-2.615.692.692 0 010-1 1.843 1.843 0 00.538-1.309z" data-name="Path 220"/>
      <g fill="#ffd8d2" data-name="Group 106">
        <path d="M707.469 293.066h-43.216a5.806 5.806 0 00-5.8 5.8v30.589a5.806 5.806 0 005.8 5.8h16.067l13.338 13.338a1.85 1.85 0 003.159-1.308v-12.03h10.653a5.806 5.806 0 005.8-5.8v-30.589a5.806 5.806 0 00-5.801-5.8zm2.1 36.388a2.1 2.1 0 01-2.1 2.1h-12.5a1.85 1.85 0 00-1.85 1.851v9.412l-10.721-10.721a1.85 1.85 0 00-1.309-.542h-16.833a2.1 2.1 0 01-2.1-2.1v-30.589a2.1 2.1 0 012.1-2.1h43.216a2.1 2.1 0 012.1 2.1z" data-name="Path 221"/>
        <g data-name="Group 105">
          <path d="M700.294 306.602h-28.868a1.85 1.85 0 000 3.7h28.868a1.85 1.85 0 000-3.7z" data-name="Path 222"/>
          <path d="M689.332 318.829h-17.906a1.85 1.85 0 100 3.7h17.906a1.85 1.85 0 000-3.7z" data-name="Path 223"/>
        </g>
      </g>
      <g data-name="Group 113">
        <g data-name="Group 108">
          <g data-name="Group 107">
            <path fill="#ffd8d2" d="M817.348 238.473h169.689v19.934H817.348z" data-name="Rectangle 83"/>
            <path fill="#d08a82" d="M987.037 236.623H817.348a1.85 1.85 0 00-1.85 1.85v19.934a1.85 1.85 0 001.85 1.851h169.689a1.851 1.851 0 001.85-1.851v-19.929a1.85 1.85 0 00-1.85-1.855zm-1.851 19.934H819.199v-16.234h165.987z" data-name="Path 224"/>
          </g>
          <path fill="#ffd8d2" d="M889.394 143.301h-22.585a1.85 1.85 0 100 3.7h22.585a1.85 1.85 0 100-3.7z" data-name="Path 225"/>
          <path fill="#ffd8d2" d="M977.288 143.301h-67.566a1.85 1.85 0 000 3.7h65.717v75.979a1.85 1.85 0 103.7 0v-77.829a1.85 1.85 0 00-1.851-1.85z" data-name="Path 226"/>
          <path fill="#d08a82" d="M916.074 246.31h-87.559a1.85 1.85 0 100 3.7h87.559a1.85 1.85 0 100-3.7z" data-name="Path 227"/>
          <path fill="#d08a82" d="M978.393 246.31h-56.51a1.85 1.85 0 100 3.7h56.51a1.85 1.85 0 100-3.7z" data-name="Path 228"/>
          <path fill="#d08a82" d="M919.121 243.554a4.611 4.611 0 104.612 4.611 4.616 4.616 0 00-4.612-4.611zm0 5.521a.911.911 0 11.911-.91.911.911 0 01-.911.906z" data-name="Path 229"/>
          <path fill="#542d2a" d="M987.037 136.416H817.348a2.333 2.333 0 00-2.333 2.333v119.658a2.333 2.333 0 002.333 2.333h169.688a2.333 2.333 0 002.333-2.333V138.749a2.333 2.333 0 00-2.332-2.333zm-2.333 119.658H819.681V141.082h165.023z" data-name="Path 230"/>
        </g>
        <g fill="#d08a82" data-name="Group 109">
          <path d="M987.037 273.972H817.348a2.333 2.333 0 000 4.666h169.688a2.333 2.333 0 000-4.666z" data-name="Path 231"/>
          <path d="M987.037 288.045H817.348a2.333 2.333 0 000 4.666h169.688a2.333 2.333 0 000-4.666z" data-name="Path 232"/>
          <path d="M903.47 302.118h-86.122a2.333 2.333 0 000 4.667h86.122a2.333 2.333 0 100-4.667z" data-name="Path 233"/>
          <path d="M987.037 316.191H817.348a2.333 2.333 0 000 4.666h169.688a2.333 2.333 0 000-4.666z" data-name="Path 234"/>
          <path d="M987.037 330.263H817.348a2.333 2.333 0 100 4.666h169.688a2.333 2.333 0 100-4.666z" data-name="Path 235"/>
          <path d="M987.037 344.336H817.348a2.333 2.333 0 100 4.666h169.688a2.333 2.333 0 100-4.666z" data-name="Path 236"/>
          <path d="M915.055 358.409h-97.707a2.333 2.333 0 100 4.666h97.707a2.333 2.333 0 000-4.666z" data-name="Path 237"/>
        </g>
        <g data-name="Group 112">
          <g data-name="Group 110" transform="translate(869.389 158.561)">
            <path fill="#ffd8d2" d="M33.133 4.026a28.778 28.778 0 10-.666 57.553h.338a28.778 28.778 0 00.328-57.555zm-.328 53.854h-.294a25.078 25.078 0 01.282-50.154h.3a25.078 25.078 0 01-.285 50.154z" data-name="Path 238"/>
            <circle cx="23.195" cy="23.195" r="23.195" fill="#e3998e" data-name="Ellipse 2" transform="rotate(-45 39.597 16.401)"/>
          </g>
          <g data-name="Group 111">
            <path fill="#fff" d="M899.952 175.757a1.609 1.609 0 00-2.747 1.138v28.935a1.609 1.609 0 002.747 1.138L914.42 192.5a1.609 1.609 0 000-2.276zm.471 26.189v-21.167l10.583 10.583z" data-name="Path 239"/>
          </g>
        </g>
      </g>
      <g data-name="Group 127">
        <g data-name="Group 115">
          <g data-name="Group 114">
            <path fill="#fff" d="M809.713 334.137l-37.984-18.89c-9.512-4.693-23.778 2.8-31.86 16.708s-6.931 28.979 2.587 33.648l37.993 18.914c9.518 4.68 23.776-2.814 31.867-16.726s6.921-28.975-2.603-33.654z" data-name="Path 240"/>
            <path fill="#542d2a" d="M817.768 334.801a17.362 17.362 0 00-5.985-4.845l-37.976-18.89-.014-.007a18.654 18.654 0 00-8.329-1.881c-5.317 0-10.966 1.982-16.338 5.733a46.285 46.285 0 00-13.292 14.7 44.991 44.991 0 00-5.491 14.733 30.346 30.346 0 00.587 13.829 20.321 20.321 0 003.475 6.773 17.34 17.34 0 005.982 4.838l37.981 18.908.021.01a18.666 18.666 0 008.312 1.872c5.318 0 10.97-1.983 16.345-5.735a46.361 46.361 0 0013.3-14.7 44.971 44.971 0 005.485-14.729 30.359 30.359 0 00-.588-13.826 20.341 20.341 0 00-3.475-6.783zm-5.453 32.989c-6.458 11.1-16.844 18.119-25.614 18.119a14.051 14.051 0 01-6.253-1.394l-37.993-18.914c-9.517-4.669-10.673-19.737-2.587-33.648 6.448-11.1 16.83-18.109 25.6-18.109a14.039 14.039 0 016.265 1.4l37.984 18.894c9.52 4.678 10.669 19.744 2.597 33.651z" data-name="Path 241"/>
          </g>
        </g>
        <g data-name="Group 117">
          <g data-name="Group 116">
            <path fill="#ffd8d2" d="M774.209 348.102c-5.112 8.805-3.124 18.958 4.452 22.688l10.671 5.246c3.215-2.632 4.477-2.474 12.243-15.575 6.252-10.559 6.3-16.335 6.3-16.335l-10.675-5.24c-7.578-3.725-17.871.4-22.991 9.216z" data-name="Path 242"/>
            <path fill="#542d2a" d="M809.929 339.937l-10.675-5.24a18.238 18.238 0 00-8.12-1.849 22.7 22.7 0 00-11.842 3.505 26.916 26.916 0 00-9.119 9.406 23.474 23.474 0 00-2.6 18.416 17.489 17.489 0 009.023 10.8l10.673 5.247a4.665 4.665 0 005.014-.577c.375-.306.725-.574 1.1-.858 3.118-2.382 5.375-4.427 12.205-15.949 6.7-11.317 6.945-17.957 6.951-18.677a4.666 4.666 0 00-2.61-4.224zm-8.355 20.523c-7.766 13.1-9.028 12.944-12.243 15.575l-10.671-5.246c-7.577-3.73-9.564-13.882-4.452-22.687 3.841-6.615 10.593-10.588 16.926-10.588a13.666 13.666 0 016.064 1.371l10.675 5.24s-.046 5.777-6.298 16.336z" data-name="Path 243"/>
          </g>
          <path fill="#fff" d="M774.209 348.103a19.7 19.7 0 00-2.755 11.716 21.8 21.8 0 0010.628-9.332 19.693 19.693 0 002.755-11.715 21.794 21.794 0 00-10.628 9.331z" data-name="Path 244"/>
        </g>
        <g data-name="Group 120">
          <g data-name="Group 119">
            <g data-name="Group 118">
              <path fill="#fff" d="M800.337 401.081l-37.984-18.894c-9.513-4.692-23.779 2.8-31.861 16.709s-6.93 28.98 2.587 33.65l37.993 18.912c9.518 4.681 23.776-2.812 31.866-16.725s6.926-28.974-2.601-33.652z" data-name="Path 245"/>
              <path fill="#542d2a" d="M808.392 401.744a17.36 17.36 0 00-5.985-4.845l-37.975-18.889-.014-.007a18.658 18.658 0 00-8.329-1.881c-5.317 0-10.967 1.983-16.339 5.733a46.293 46.293 0 00-13.293 14.7 44.99 44.99 0 00-5.49 14.734 30.342 30.342 0 00.587 13.829 20.324 20.324 0 003.475 6.774 17.346 17.346 0 005.982 4.839l37.983 18.907.02.01a18.664 18.664 0 008.313 1.873c5.318 0 10.97-1.984 16.344-5.736a46.349 46.349 0 0013.3-14.7 44.97 44.97 0 005.485-14.728 30.355 30.355 0 00-.588-13.826 20.329 20.329 0 00-3.476-6.787zm-5.453 32.988c-6.458 11.1-16.843 18.12-25.612 18.12a14.052 14.052 0 01-6.254-1.394l-37.993-18.912c-9.517-4.669-10.673-19.738-2.587-33.649 6.448-11.1 16.831-18.109 25.6-18.109a14.042 14.042 0 016.265 1.4l37.983 18.894c9.52 4.679 10.674 19.749 2.597 33.649z" data-name="Path 246"/>
            </g>
          </g>
        </g>
        <g data-name="Group 123">
          <g data-name="Group 122">
            <g data-name="Group 121">
              <path fill="#fff" d="M792.236 259.052l-14.719-7.963c-12.038-5.946-28.555.428-36.889 14.215s-5.341 29.767 6.7 35.69l14.73 7.984c12.044 5.934 28.551-.443 36.895-14.23 8.329-13.779 5.334-29.767-6.717-35.696z" data-name="Path 247"/>
              <path fill="#542d2a" d="M794.381 254.907l-14.645-7.923c-.051-.027-.1-.054-.154-.079a26.635 26.635 0 00-11.906-2.709 34.027 34.027 0 00-17.362 5.026 40.132 40.132 0 00-13.68 13.668c-5.172 8.55-6.715 18.314-4.234 26.786a24.753 24.753 0 0012.783 15.461l14.653 7.942q.08.043.161.083a26.649 26.649 0 0011.889 2.7 34.046 34.046 0 0017.369-5.027 40.2 40.2 0 0013.691-13.672c5.167-8.55 6.707-18.311 4.226-26.782a24.777 24.777 0 00-12.791-15.474zm4.573 39.839c-6.226 10.288-17 16.45-27.068 16.45a22.116 22.116 0 01-9.827-2.219l-14.731-7.984c-12.042-5.922-15.04-21.9-6.7-35.689 6.216-10.283 16.983-16.441 27.049-16.441a22.1 22.1 0 019.84 2.227l14.72 7.964c12.05 5.932 15.044 21.915 6.718 35.691z" data-name="Path 248"/>
            </g>
          </g>
        </g>
        <g data-name="Group 124">
          <path fill="#ffd8d2" d="M766.994 277.842c-5.01 8.855-3.989 18.529 2.295 21.617l8.847 4.341c2.953-2.761 4.031-2.695 11.623-15.883 6.113-10.628 6.548-16.211 6.548-16.211l-8.852-4.336c-6.283-3.084-15.445 1.604-20.461 10.472z" data-name="Path 249"/>
          <path fill="#542d2a" d="M798.359 267.514l-8.852-4.335a14.154 14.154 0 00-6.292-1.423 20.211 20.211 0 00-11.412 3.91 30.009 30.009 0 00-8.87 9.877 29.016 29.016 0 00-3.492 9.827 21.316 21.316 0 00.547 9.491 14.257 14.257 0 007.243 8.785l8.851 4.343a4.665 4.665 0 005.242-.781c.349-.326.672-.611 1.014-.912 2.885-2.542 4.841-4.542 11.467-16.051 6.453-11.22 7.1-17.5 7.156-18.178a4.666 4.666 0 00-2.602-4.553zm-8.6 20.4c-7.592 13.188-8.67 13.122-11.623 15.883l-8.848-4.341c-6.283-3.088-7.3-12.762-2.294-21.617 3.972-7.02 10.54-11.42 16.222-11.42a9.548 9.548 0 014.239.948l8.852 4.336s-.435 5.585-6.548 16.214z" data-name="Path 250"/>
        </g>
        <path fill="#fff" d="M766.991 277.842a22.465 22.465 0 00-3.128 12.478 23.837 23.837 0 0010.79-10.2 22.466 22.466 0 003.128-12.478 23.84 23.84 0 00-10.79 10.2z" data-name="Path 251"/>
        <g data-name="Group 126">
          <g data-name="Group 125">
            <path fill="#ffd8d2" d="M762.065 414.106c-5.112 8.8-3.125 18.957 4.452 22.687l10.671 5.246c3.215-2.632 4.477-2.474 12.243-15.576 6.253-10.559 6.3-16.334 6.3-16.334l-10.675-5.24c-7.578-3.725-17.871.4-22.991 9.217z" data-name="Path 252"/>
            <path fill="#542d2a" d="M797.786 405.941l-10.675-5.24a18.236 18.236 0 00-8.12-1.849 22.7 22.7 0 00-11.842 3.505 26.909 26.909 0 00-9.119 9.406 23.476 23.476 0 00-2.6 18.417 17.491 17.491 0 009.023 10.8l10.673 5.247a4.664 4.664 0 005.014-.576c.375-.306.725-.575 1.1-.858 3.118-2.382 5.375-4.427 12.205-15.949 6.7-11.317 6.945-17.957 6.951-18.677a4.666 4.666 0 00-2.61-4.226zm-8.355 20.523c-7.766 13.1-9.027 12.944-12.243 15.576l-10.671-5.247c-7.577-3.73-9.564-13.883-4.452-22.687 3.841-6.615 10.593-10.588 16.926-10.588a13.669 13.669 0 016.064 1.371l10.675 5.24s-.047 5.775-6.299 16.335z" data-name="Path 253"/>
          </g>
          <path fill="#fff" d="M762.065 414.106a19.693 19.693 0 00-2.755 11.716 21.8 21.8 0 0010.628-9.332 19.692 19.692 0 002.755-11.715 21.792 21.792 0 00-10.628 9.331z" data-name="Path 254"/>
        </g>
      </g>
      <path fill="#ffbdaf" d="M845.655 375.416H960.76a28.306 28.306 0 0128.306 28.306 28.307 28.307 0 01-28.307 28.307H845.655a28.307 28.307 0 01-28.307-28.306 28.307 28.307 0 0128.307-28.307z" data-name="Rectangle 84"/>
      <g fill="#fff" data-name="Group 129">
        <g data-name="Group 128">
          <path d="M958.975 401.814a1.578 1.578 0 00-1.578 1.578v11.179c0 .821-.848 1.774-2.326 2.615a1.578 1.578 0 001.561 2.743c3.24-1.844 3.921-3.931 3.921-5.358v-11.179a1.578 1.578 0 00-1.578-1.578z" data-name="Path 255"/>
          <path d="M952.199 418.412a31.2 31.2 0 01-9.411 1.331 29.11 29.11 0 01-10.838-1.855c-2.326-.97-3.771-2.241-3.771-3.317v-11.179a1.578 1.578 0 00-3.156 0v11.179c0 2.481 2.028 4.693 5.712 6.229a32.282 32.282 0 0012.053 2.1 34.377 34.377 0 0010.38-1.484 1.578 1.578 0 00-.969-3z" data-name="Path 256"/>
        </g>
        <path d="M967.278 394.069l-20.049-11.487a8.548 8.548 0 00-7.9 0l-20.049 11.487a3.459 3.459 0 000 6.366l20.049 11.487a8.548 8.548 0 007.9 0l20.048-11.487a3.459 3.459 0 000-6.366zm-1.569 3.627l-20.048 11.487a5.474 5.474 0 01-4.762 0l-20.048-11.487a.449.449 0 110-.889l20.048-11.487a5.475 5.475 0 014.762 0l20.048 11.487a.449.449 0 110 .889z" data-name="Path 257"/>
        <path d="M956.832 415.957a31.5 31.5 0 01-3.249-1.287 1.577 1.577 0 00-1.823 1.287l-1.471 8.539a1.578 1.578 0 001.555 1.846h4.9a1.578 1.578 0 001.555-1.846zm-3.115 7.229l.579-3.361.579 3.361z" data-name="Path 258"/>
        <path d="M955.067 400.882l-11.729-6.555a1.578 1.578 0 10-1.54 2.755l10.92 6.1v9.68a1.578 1.578 0 003.156 0v-10.603a1.578 1.578 0 00-.807-1.377z" data-name="Path 259"/>
        <path d="M954.297 411.286a3.274 3.274 0 103.365 3.272 3.324 3.324 0 00-3.365-3.272zm0 3.388c-.136 0-.21-.082-.21-.116s.073-.116.21-.116.208.083.208.116-.073.116-.208.116z" data-name="Path 260"/>
      </g>
      <g data-name="Group 132">
        <g data-name="Group 130">
          <path fill="#fff" d="M1047.783 294.615a41.121 41.121 0 00-41.122 41.122v82.945c-25.988 14.09-43.9 43.8-43.9 78.169a96.172 96.172 0 003.13 24.449l19.614 36.881 41.946-27.744a69.315 69.315 0 0030.882-52.058V305.166a10.551 10.551 0 00-10.55-10.551z" data-name="Path 261"/>
          <path fill="#542d2a" d="M1047.782 292.282a43.454 43.454 0 00-43.454 43.454v81.57A84.273 84.273 0 00972.942 449a96.3 96.3 0 00-12.513 47.849 98.6 98.6 0 003.206 25.042 2.333 2.333 0 004.513-1.185 93.928 93.928 0 01-3.053-23.856 91.631 91.631 0 0111.9-45.529 79.389 79.389 0 0130.782-30.589 2.333 2.333 0 001.221-2.051v-82.945a38.79 38.79 0 0138.788-38.789 8.228 8.228 0 018.219 8.219v173.112a67.806 67.806 0 01-8.871 28.044 66.415 66.415 0 01-20.964 22.168l-41.946 27.744a2.333 2.333 0 102.574 3.891l41.946-27.744a71.04 71.04 0 0022.424-23.713 72.51 72.51 0 009.5-30.092c.005-.066.008-.132.008-.2v-173.21a12.9 12.9 0 00-12.894-12.884z" data-name="Path 262"/>
        </g>
        <g data-name="Group 131">
          <path fill="#ffd8d2" d="M1054.52 307.657a17.278 17.278 0 00-17.277 17.278v18.018h21.091v-34.869a17.336 17.336 0 00-3.814-.427z" data-name="Path 263"/>
          <path fill="#542d2a" d="M1058.847 305.808a19.605 19.605 0 00-23.937 19.127v18.019a2.333 2.333 0 002.333 2.333h21.092a2.334 2.334 0 002.333-2.333v-34.871a2.334 2.334 0 00-1.821-2.275zm-2.846 34.812h-16.424v-15.686a14.962 14.962 0 0114.946-14.945q.738 0 1.48.074z" data-name="Path 264"/>
        </g>
      </g>
      <path fill="#542d2a" d="M1057.809 379.695h-17.425a2.333 2.333 0 100 4.666h17.425a2.333 2.333 0 000-4.666z" data-name="Path 265"/>
      <path fill="#542d2a" d="M1048.302 386.559h-7.92a2.333 2.333 0 100 4.666h7.92a2.333 2.333 0 100-4.666z" data-name="Path 266"/>
      <path fill="#ffd8d2" d="M892.048 600.01a69.158 69.158 0 0045.252-11.176l89.889-59.454c14.527-9.608 23.125-23.021 27.449-38.58L901.005 591.279a31.359 31.359 0 00-8.957 8.731z" data-name="Path 267"/>
      <path fill="#d08a82" d="M891.329 613.442s32.523 70.593 60.319 132.6h276.021l-156.092-251.3z" data-name="Path 268"/>
      <path fill="#542d2a" d="M1073.556 493.512a2.332 2.332 0 00-3.265-.718l-180.248 118.7a2.333 2.333 0 00-.836 2.924c.323.7 32.5 70.561 59.882 131.621h4.888a2.317 2.317 0 00-.2-.955c-25.017-55.805-54.208-119.317-59.49-130.8l176.572-116.28 154.063 248.031h5.077a2.312 2.312 0 00-.349-1.231z" data-name="Path 269"/>
      <g data-name="Group 146">
        <g data-name="Group 143">
          <g data-name="Group 142">
            <path fill="#fff" d="M938.223 575.342c-13.035-8.83-26.428-9.935-35.257 3.1l-36.813 54.345.973-5.579 27.655-213.749c2.02-15.615-8.9-24.77-24.516-26.791-15.614-2.02-30.009 3.861-32.028 19.476l-17.2 132.972a28.508 28.508 0 00-56.545-7.315l-2.049 15.842a28.508 28.508 0 00-24.614-31.93 28.508 28.508 0 00-31.929 24.615l-3.385 26.162a28.508 28.508 0 10-56.544-7.315l-5.016 38.774-6.133 47.406-1.033 7.984-11.452 92.7h237.144l28.571-34.464c.994-1.269 62.121-101.157 62.121-101.157 8.828-13.035 1.086-26.247-11.95-35.076z" data-name="Path 270"/>
            <g data-name="Group 133">
              <path fill="#fff" d="M870.264 386.667c-15.614-2.02-30.009 3.861-32.028 19.476l-19.603 151.543 45.692 91.2 30.457-235.429c2.018-15.614-8.904-24.77-24.518-26.79z" data-name="Path 271"/>
              <path fill="#542d2a" d="M870.563 384.354c-8.509-1.1-16.511.1-22.53 3.39a23.154 23.154 0 00-12.112 18.1l-19.605 151.544a2.333 2.333 0 004.628.6l19.605-151.544c.858-6.635 4.129-11.548 9.721-14.6 5.161-2.819 12.155-3.834 19.695-2.859 7.495.969 13.549 3.6 17.509 7.621 4.185 4.245 5.865 9.815 4.992 16.556l-30.457 235.429a2.333 2.333 0 002.014 2.613 2.3 2.3 0 00.3.02 2.333 2.333 0 002.311-2.034l30.457-235.429c1.051-8.121-1.127-15.186-6.3-20.43-4.689-4.77-11.689-7.872-20.228-8.977z" data-name="Path 272"/>
            </g>
            <g data-name="Group 134">
              <path fill="#fff" d="M796.418 507.186a28.508 28.508 0 00-31.93 24.615l-2.049 15.842a28.508 28.508 0 00-24.615-31.93 28.508 28.508 0 00-31.93 24.614l-3.384 26.162a28.508 28.508 0 00-24.615-31.929 28.508 28.508 0 00-31.93 24.614l-5.016 38.775 174.649-16.829 3.7-28.628 1.73-13.375a28.508 28.508 0 00-24.61-31.931z" data-name="Path 273"/>
              <path fill="#542d2a" d="M796.718 504.872a30.841 30.841 0 00-34.5 26.312 30.835 30.835 0 00-58.636 8.843l-1.289 9.965a31.089 31.089 0 00-3.629-5.991 30.841 30.841 0 00-55.011 14.873l-5.016 38.774a2.333 2.333 0 002.015 2.613 2.438 2.438 0 00.3.02 2.333 2.333 0 002.311-2.034l5.016-38.774a26.175 26.175 0 0151.917 6.717 2.333 2.333 0 004.627.6l3.385-26.162a26.175 26.175 0 1151.917 6.717 2.333 2.333 0 104.627.6l.005-.04 2.044-15.8a26.175 26.175 0 1151.917 6.716l-5.434 42a2.333 2.333 0 104.627.6l5.434-42a30.841 30.841 0 00-26.629-34.543z" data-name="Path 274"/>
            </g>
            <g data-name="Group 135">
              <path fill="#ffd8d2" d="M796.14 508.914a26.728 26.728 0 00-12.217 1.249 26.848 26.848 0 0124.89 22.264l6.466 37.722 4.033-31.176a26.838 26.838 0 00-23.172-30.059z" data-name="Path 275"/>
            </g>
            <g data-name="Group 136">
              <path fill="#ffd8d2" d="M737.159 517.322a26.72 26.72 0 00-12.217 1.249c35.046 5.072 31.947 55.423 31.947 55.423l3.443-26.613a26.837 26.837 0 00-23.173-30.059z" data-name="Path 276"/>
            </g>
            <g data-name="Group 137">
              <path fill="#ffd8d2" d="M677.479 536.266a26.723 26.723 0 00-12.217 1.249c27.027.3 34.717 34.011 34.717 34.011l.673-5.2a26.837 26.837 0 00-23.173-30.06z" data-name="Path 277"/>
            </g>
            <g data-name="Group 138">
              <path fill="#fff" d="M759.054 573.804l3.385-26.162" data-name="Line 1"/>
              <path fill="#542d2a" d="M762.738 545.329a2.334 2.334 0 00-2.613 2.014l-3.385 26.162a2.333 2.333 0 002.015 2.613 2.257 2.257 0 00.3.02 2.333 2.333 0 002.311-2.034l3.385-26.162a2.333 2.333 0 00-2.013-2.613z" data-name="Path 278"/>
            </g>
            <g fill="#542d2a" data-name="Group 139">
              <path d="M866.45 514.574l-26.549-3.435a2.333 2.333 0 10-.6 4.627l26.549 3.435a2.381 2.381 0 00.3.02 2.333 2.333 0 00.3-4.647z" data-name="Path 279"/>
              <path d="M861.431 521.555l-18.455-2.388a2.333 2.333 0 00-.6 4.627l18.456 2.387a2.22 2.22 0 00.3.02 2.333 2.333 0 00.3-4.646z" data-name="Path 280"/>
            </g>
            <g data-name="Group 141">
              <g data-name="Group 140">
                <path fill="#ffd8d2" d="M851.438 402.065l-1.72 11.85c-1.226 8.413 5.161 16.374 14.269 17.779s17.461-4.269 18.691-12.683l1.727-11.848c-3.173-1.98-3.374-3.206-16.951-5.44-10.94-1.796-16.016.342-16.016.342z" data-name="Path 281"/>
                <path fill="#542d2a" d="M886.873 403.204c-.355-.221-.677-.44-1.018-.671-3.035-2.056-5.511-3.418-17.645-5.415a55.65 55.65 0 00-8.943-.78c-5.954 0-9.077 1.189-9.642 1.427a4.668 4.668 0 00-2.806 3.63l-1.72 11.85a18.987 18.987 0 00.569 8.105 20.156 20.156 0 003.669 7 22.1 22.1 0 0013.937 7.952 22.881 22.881 0 003.474.268 21.571 21.571 0 0013.456-4.639 19.244 19.244 0 007.09-12.248l1.727-11.851a4.666 4.666 0 00-2.148-4.628zm-4.2 15.807c-1.105 7.554-7.959 12.9-15.929 12.9a18.113 18.113 0 01-2.762-.213c-9.108-1.4-15.5-9.365-14.269-17.778l1.72-11.85s2.518-1.061 7.831-1.061a50.683 50.683 0 018.186.717c13.576 2.234 13.777 3.461 16.95 5.44z" data-name="Path 282"/>
              </g>
              <path fill="#fff" d="M863.956 423.515a6.445 6.445 0 1011.042 6.3 17.326 17.326 0 00-11.042-6.3z" data-name="Path 283"/>
            </g>
            <path fill="#542d2a" d="M939.532 573.41c-7.292-4.939-14.228-7.311-20.61-7.048a20.637 20.637 0 00-9.739 2.845 25.8 25.8 0 00-8.148 7.927l-31 45.76 27.056-209.137c1.051-8.12-1.127-15.186-6.3-20.43-4.7-4.766-11.695-7.869-20.233-8.974h-.019c-8.5-1.1-16.5.108-22.511 3.393a23.153 23.153 0 00-12.112 18.1l-15.107 116.81a30.835 30.835 0 00-58.593 8.529 30.85 30.85 0 00-24.093-17.789h-.02a30.842 30.842 0 00-34.523 26.632l-1.294 10a30.835 30.835 0 00-58.635 8.846l-12.184 94.178-11.452 92.7a2.323 2.323 0 00-.016.286h4.682l11.415-92.4 12.182-94.165a26.175 26.175 0 0151.919 6.7v.016a2.333 2.333 0 104.627.6l3.385-26.161a26.175 26.175 0 0129.316-22.6h.016a26.2 26.2 0 0122.584 29.315 2.333 2.333 0 004.628.6l2.049-15.842a26.175 26.175 0 0151.918 6.716 2.333 2.333 0 004.627.6l17.2-132.972c.858-6.635 4.129-11.548 9.721-14.6 5.161-2.819 12.155-3.833 19.694-2.859h.017c7.487.971 13.535 3.605 17.491 7.619 4.185 4.245 5.865 9.815 4.993 16.556l-27.646 213.7-.965 5.529a2.333 2.333 0 004.23 1.709l36.813-54.345c3.765-5.558 8.548-8.494 14.216-8.727 5.289-.215 11.445 1.944 17.8 6.25 6.545 4.434 11.152 9.59 13.321 14.911 2.361 5.79 1.689 11.485-2 16.926-.02.029-.039.06-.058.09-20.7 33.834-60.115 98.163-61.988 100.959l-28.51 34.391a2.323 2.323 0 00-.536 1.489h5.363l27.336-32.975.041-.05c1-1.275 47.86-77.823 62.247-101.334 4.523-6.7 5.361-14.054 2.423-21.259-2.511-6.18-7.711-12.063-15.018-17.015z" data-name="Path 284"/>
          </g>
        </g>
        <g data-name="Group 145">
          <g data-name="Group 144">
            <path fill="#ffd8d2" d="M914.736 581.193l-8.45 12.861c-4.469 6.8-1.753 16.478 6.065 21.614 7.818 5.138 17.778 3.789 22.246-3.012l8.45-12.861-.3-.414a47.777 47.777 0 00-28.011-18.188z" data-name="Path 285"/>
            <path fill="#542d2a" d="M946.501 596.616a52.443 52.443 0 00-30.769-19.981 4.663 4.663 0 00-4.9 2l-8.451 12.861a17.641 17.641 0 00-2.764 7.487 19.383 19.383 0 00.6 7.766 22.845 22.845 0 009.57 12.823 23.149 23.149 0 0012.717 3.886 20.284 20.284 0 008.964-2.044 17.911 17.911 0 007.027-6.191l8.45-12.86a4.666 4.666 0 00-.141-5.328zm-11.9 16.041a14.169 14.169 0 01-12.091 6.131 18.562 18.562 0 01-10.155-3.119c-7.818-5.137-10.534-14.813-6.065-21.614l8.45-12.86a47.774 47.774 0 0128.007 18.188l.3.415z" data-name="Path 286"/>
          </g>
          <path fill="#fff" d="M904.306 603.612a17.916 17.916 0 008.045 12.058 17.911 17.911 0 0014.26 2.6 47.963 47.963 0 00-22.305-14.658z" data-name="Path 287"/>
        </g>
      </g>
    </g>
    <path fill="#542d2a" d="M0 726h1280v74H0z" data-name="Rectangle 44"/>
    <g fill="#fff" data-name="Group 52">
      <path d="M983.029 779.457h9.954a1.93 1.93 0 001.935-1.843v-6.821a36.608 36.608 0 01-11.889 8.664z" data-name="Path 137"/>
      <path d="M980.817 756.323c-.092-1.751-1.383-2.857-4.148-2.577-5.437.365-9.583 6.54-10.783 12.9 11.8-.922 15.023-8.111 14.931-10.323z" data-name="Path 138"/>
      <path d="M979.803 749.963c5.622-.369 8.2 1.843 8.387 4.608.461 6.083-9.493 13.272-22.581 14.378h-.184a10.209 10.209 0 00.369 5.069c.922 2.4 3.318 3.318 6.083 3.318 12.166 0 21.106-13.456 23.041-19.539v-9.954a1.871 1.871 0 00-1.935-1.843h-29.678a1.849 1.849 0 00-1.843 1.843v13.641c4.793-6.084 12.166-11.06 18.341-11.521z" data-name="Path 139"/>
      <g>
        <path d="M1019.344 768.673a4.855 4.855 0 003.779-1.659l1.106.922a6.365 6.365 0 01-4.885 2.3 5.892 5.892 0 01-5.9-6.175c0-3.41 2.4-6.175 5.714-6.175 3.5 0 5.53 2.857 5.53 6.267v.553h-9.493a4.081 4.081 0 004.149 3.967zm3.41-5.346c-.184-2.12-1.475-4.055-3.779-4.055-2.028 0-3.594 1.751-3.871 4.055z" data-name="Path 140"/>
        <path d="M1037.222 769.963v-2.4a5.23 5.23 0 01-4.516 2.673 5.856 5.856 0 01-5.714-6.171 5.856 5.856 0 015.714-6.175 5.228 5.228 0 014.516 2.581v-7.374h1.751v16.866zm-4.24-10.6c-2.3 0-4.147 1.751-4.147 4.608s1.935 4.608 4.147 4.608a4.452 4.452 0 004.332-4.608 4.452 4.452 0 00-4.331-4.607z" data-name="Path 141"/>
        <path d="M1048.284 773.65a9.258 9.258 0 01-5.439-1.66l.829-1.382a8.066 8.066 0 004.61 1.476c2.581 0 4.332-1.475 4.332-4.24v-1.383a5.681 5.681 0 01-4.7 2.581 5.427 5.427 0 01-5.53-5.53 5.5 5.5 0 015.528-5.622 5.773 5.773 0 014.7 2.4v-2.12h1.751v9.77c-.092 3.775-2.488 5.71-6.081 5.71zm-.092-14.286a3.892 3.892 0 00-4.147 4.055 4 4 0 004.147 4.055 4.176 4.176 0 004.422-4.054 4.23 4.23 0 00-4.424-4.055z" data-name="Path 142"/>
        <path d="M1063.491 768.673a4.855 4.855 0 003.779-1.659l1.106.922a6.365 6.365 0 01-4.885 2.3 5.892 5.892 0 01-5.9-6.175c0-3.41 2.4-6.175 5.714-6.175 3.5 0 5.53 2.857 5.53 6.267v.553h-9.4a3.948 3.948 0 004.056 3.967zm3.41-5.346c-.184-2.12-1.475-4.055-3.779-4.055-2.028 0-3.594 1.751-3.871 4.055z" data-name="Path 143"/>
        <path d="M1078.144 770.24a5.228 5.228 0 01-4.516-2.581v5.991h-1.751v-15.576h1.751v2.3a5.23 5.23 0 014.516-2.673 5.856 5.856 0 015.714 6.175c.001 3.967-2.857 6.364-5.714 6.364zm-.367-10.876a4.452 4.452 0 00-4.332 4.608 4.34 4.34 0 004.332 4.608c2.3 0 4.147-1.751 4.147-4.608a4.153 4.153 0 00-4.147-4.608z" data-name="Path 144"/>
        <path d="M1092.522 770.239a6.116 6.116 0 01-6.175-6.175 6.194 6.194 0 016.175-6.267 6.116 6.116 0 016.175 6.175 6.194 6.194 0 01-6.175 6.267zm0-10.876a4.339 4.339 0 00-4.332 4.608 4.491 4.491 0 004.424 4.7 4.412 4.412 0 004.424-4.608 4.625 4.625 0 00-4.516-4.7z" data-name="Path 145"/>
        <path d="M1101.923 755.493v-1.935h2.028v1.935zm.184 14.47v-11.889h1.751v11.889z" data-name="Path 146"/>
        <path d="M1109.757 769.963h-1.751v-11.89h1.751v2.024a4.43 4.43 0 014.055-2.3c2.857 0 4.516 1.935 4.516 4.7v7.373h-1.751v-6.912c0-2.212-1.2-3.594-3.318-3.594a3.51 3.51 0 00-3.594 3.687l.092 6.912z" data-name="Path 147"/>
        <path d="M1124.504 766.553a1.8 1.8 0 002.028 2.028 3.994 3.994 0 001.751-.369v1.475a4 4 0 01-2.12.461c-1.935 0-3.318-.922-3.318-3.318v-7.19h-1.659v-1.661h1.659v-3.5h1.751v3.5h3.779v1.567h-3.779v7z" data-name="Path 148"/>
      </g>
      <g>
        <path d="M1138.42 769.963v-16.866h1.751v16.866z" data-name="Path 149"/>
        <path d="M1149.666 768.673a4.855 4.855 0 003.779-1.659l1.106.922a6.365 6.365 0 01-4.885 2.3 5.892 5.892 0 01-5.9-6.175c0-3.41 2.4-6.175 5.714-6.175 3.5 0 5.53 2.857 5.53 6.267v.553h-9.4a3.948 3.948 0 004.055 3.963zm3.41-5.346c-.184-2.12-1.475-4.055-3.779-4.055-2.028 0-3.594 1.751-3.871 4.055z" data-name="Path 150"/>
        <path d="M1158.604 760.382l-.553-1.475a9.105 9.105 0 014.332-.925c3.226 0 5.069 1.659 5.069 4.793v7.281h-1.751v-1.751a5.161 5.161 0 01-4.332 2.028c-2.212 0-4.424-1.2-4.424-3.687 0-2.581 2.028-3.871 5.069-3.871a13.114 13.114 0 013.594.461v-.369c0-2.12-1.29-3.226-3.594-3.226a5.9 5.9 0 00-3.41.737zm.276 5.991c0 1.475 1.382 2.4 3.041 2.4 2.212 0 3.963-1.29 3.963-3.226v-1.2a11.937 11.937 0 00-3.5-.461c-2.212 0-3.5 1.014-3.5 2.488z" data-name="Path 151"/>
        <path d="M1173.074 769.963h-1.751v-11.889h1.751v3.041a5.068 5.068 0 014.885-3.318v1.843h-.092c-2.581 0-4.7 1.843-4.7 5.438v4.885z" data-name="Path 152"/>
        <path d="M1182.383 769.963h-1.751v-11.89h1.751v2.024a4.43 4.43 0 014.055-2.3c2.857 0 4.516 1.935 4.516 4.7v7.373h-1.751v-6.912c0-2.212-1.2-3.594-3.318-3.594a3.51 3.51 0 00-3.594 3.687v6.912z" data-name="Path 153"/>
        <path d="M1194.733 755.493v-1.935h2.028v1.935zm.184 14.47v-11.889h1.751v11.889z" data-name="Path 154"/>
        <path d="M1202.567 769.963h-1.751v-11.89h1.751v2.024a4.43 4.43 0 014.055-2.3c2.857 0 4.516 1.935 4.516 4.7v7.373h-1.751v-6.912c0-2.212-1.2-3.594-3.318-3.594a3.51 3.51 0 00-3.594 3.687l.092 6.912z" data-name="Path 155"/>
        <path d="M1220.265 773.65a9.258 9.258 0 01-5.439-1.66l.83-1.382a8.066 8.066 0 004.608 1.475c2.581 0 4.332-1.475 4.332-4.24v-1.382a5.681 5.681 0 01-4.7 2.581 5.427 5.427 0 01-5.53-5.53 5.5 5.5 0 015.53-5.622 5.641 5.641 0 014.7 2.4v-2.12h1.751v9.77c-.092 3.779-2.488 5.714-6.083 5.714zm-.092-14.286a3.892 3.892 0 00-4.147 4.055 4 4 0 004.147 4.055 4.176 4.176 0 004.424-4.055 4.23 4.23 0 00-4.426-4.054z" data-name="Path 156"/>
      </g>
    </g>
    <g filter="url(#b)">
      <path fill="#fff" d="M65.55 210H82.4c6.25 0 9.7-3.85 9.7-9 0-4.1-2.9-7.65-6.45-8.2a7.493 7.493 0 005.8-7.65c0-4.7-3.4-8.5-9.5-8.5h-16.4zm5.85-19.55v-8.65h9.35c3 0 4.7 1.85 4.7 4.35s-1.7 4.3-4.7 4.3zm0 14.4v-9.25H81c3.35 0 5.1 2.1 5.1 4.6 0 2.9-1.9 4.65-5.1 4.65zm24.9-6.95c0 7.65 5.4 12.7 12.65 12.7a14.077 14.077 0 009.8-3.5l-2.4-3.45a10.221 10.221 0 01-6.85 2.65 7.315 7.315 0 01-7.7-6.65h18.65v-1.25c0-7.6-4.65-13.15-11.9-13.15-7.15 0-12.25 5.65-12.25 12.65zm12.25-8.35a6.459 6.459 0 016.8 6.4h-13.6a6.662 6.662 0 016.8-6.4zm33.4 20.45h5.25v-17c0-4.95-2.6-7.75-7.8-7.75a11.426 11.426 0 00-8.5 3.9v-3.3h-5.25V210h5.25v-16.85a7.95 7.95 0 016.2-3.25c2.95 0 4.85 1.25 4.85 5zm10.55-12.1c0 7.65 5.4 12.7 12.65 12.7a14.077 14.077 0 009.8-3.5l-2.4-3.45a10.221 10.221 0 01-6.85 2.65 7.315 7.315 0 01-7.7-6.65h18.65v-1.25c0-7.6-4.65-13.15-11.9-13.15-7.15 0-12.25 5.65-12.25 12.65zm12.25-8.35a6.459 6.459 0 016.8 6.4h-13.6a6.662 6.662 0 016.8-6.4zm35.1-7.4a3.25 3.25 0 10-3.25-3.25 3.244 3.244 0 003.25 3.25zM183.1 210h5.25v-19.55h4.9v-4.6h-4.9v-1.35c0-2.7 1.3-4.05 3.35-4.05a3.617 3.617 0 012.1.55l1.15-3.9a8.7 8.7 0 00-4.2-.95c-4.45 0-7.65 2.95-7.65 8.35v1.35h-4v4.6h4zm14.15 0h5.25v-24.15h-5.25zm19.3.6a6.926 6.926 0 004.95-1.55l-1.25-3.95a3.389 3.389 0 01-2.35.85c-1.5 0-2.3-1.2-2.3-2.85v-12.65h4.9v-4.6h-4.9v-6.6h-5.25v6.6h-4v4.6h4v13.95c0 4 2.15 6.2 6.2 6.2zm6.6-3.75a14.688 14.688 0 0010.35 3.75c6.5 0 10.05-3.25 10.05-7.5 0-5.7-5.15-6.9-9.35-7.8-2.85-.65-5.25-1.3-5.25-3.15 0-1.7 1.75-2.7 4.5-2.7a9.739 9.739 0 017.15 2.9l2.2-3.7a13.806 13.806 0 00-9.4-3.4c-6.1 0-9.5 3.4-9.5 7.35 0 5.4 4.95 6.5 9.1 7.4 2.95.65 5.5 1.4 5.5 3.5 0 1.8-1.6 2.95-4.75 2.95a12.465 12.465 0 01-8.2-3.4zm49.45 3.75c7.75 0 12.45-5.75 12.45-12.7 0-6.9-4.7-12.65-12.45-12.65-7.65 0-12.4 5.75-12.4 12.65 0 6.95 4.75 12.7 12.4 12.7zm0-4.65c-4.45 0-6.95-3.75-6.95-8.05 0-4.25 2.5-8 6.95-8 4.5 0 7 3.75 7 8 0 4.3-2.5 8.05-7 8.05zm19 4.05h5.25v-19.55h4.9v-4.6h-4.9v-1.35c0-2.7 1.3-4.05 3.35-4.05a4.208 4.208 0 012.1.5l1.15-3.85a8.7 8.7 0 00-4.2-.95c-4.45 0-7.65 2.95-7.65 8.35v1.35h-4v4.6h4zm56.6 0h5.25v-17.45c0-4.9-2.5-7.3-6.95-7.3a10.242 10.242 0 00-8.2 4.45c-.8-2.65-3-4.45-6.6-4.45a10.43 10.43 0 00-7.85 3.9v-3.3h-5.25V210h5.25v-16.85a7.307 7.307 0 015.55-3.25c2.85 0 4 1.75 4 4.35V210h5.25v-16.9a7.328 7.328 0 015.6-3.2c2.8 0 3.95 1.75 3.95 4.35zm12.2 0h20.55v-5.15h-14.7v-28.2h-5.85zm23.45-12.1c0 7.65 5.4 12.7 12.65 12.7a14.077 14.077 0 009.8-3.5l-2.4-3.45a10.221 10.221 0 01-6.85 2.65 7.315 7.315 0 01-7.7-6.65H408v-1.25c0-7.6-4.65-13.15-11.9-13.15-7.15 0-12.25 5.65-12.25 12.65zm12.25-8.35a6.459 6.459 0 016.8 6.4h-13.6a6.662 6.662 0 016.8-6.4zM427.95 210h5.25v-16c0-6.5-4.7-8.75-10.05-8.75a14.361 14.361 0 00-10.15 3.9l2.15 3.65a9.889 9.889 0 017.15-3.05c3.35 0 5.65 1.7 5.65 4.5v3.6c-1.75-2.05-4.55-3.1-7.8-3.1-3.95 0-8.4 2.3-8.4 7.85 0 5.35 4.45 8 8.4 8a10.2 10.2 0 007.8-3.2zm0-5.5a7.069 7.069 0 01-5.75 2.5c-2.95 0-5.15-1.7-5.15-4.3 0-2.65 2.2-4.35 5.15-4.35a7.069 7.069 0 015.75 2.5zM440 210h5.25v-16.45a8.339 8.339 0 016.2-3.2 7.739 7.739 0 011.65.15v-5.2a10.313 10.313 0 00-7.85 4.1v-3.55H440zm33.65 0h5.25v-17c0-4.95-2.6-7.75-7.8-7.75a11.426 11.426 0 00-8.5 3.9v-3.3h-5.25V210h5.25v-16.85a7.95 7.95 0 016.2-3.25c2.95 0 4.85 1.25 4.85 5zm14.65-27.85a3.25 3.25 0 10-3.25-3.25 3.244 3.244 0 003.25 3.25zM485.7 210h5.25v-24.15h-5.25zm28.35 0h5.25v-17c0-4.95-2.6-7.75-7.8-7.75a11.426 11.426 0 00-8.5 3.9v-3.3h-5.25V210H503v-16.85a7.95 7.95 0 016.2-3.25c2.95 0 4.85 1.25 4.85 5zm11.75 6.2c2.95 2.7 6 3.6 10.1 3.6 5.95 0 12.4-2.35 12.4-11.05v-22.9h-5.25v3.35a9.618 9.618 0 00-7.75-3.95c-6.2 0-10.7 4.6-10.7 12.4 0 7.95 4.55 12.4 10.7 12.4a9.8 9.8 0 007.75-4v2.9c0 4.95-3.7 6.55-7.15 6.55-3.2 0-5.7-.85-7.65-3.1zm17.25-14.05a7.837 7.837 0 01-6.2 3.25c-4.15 0-6.8-3.1-6.8-7.75s2.65-7.75 6.8-7.75a7.837 7.837 0 016.2 3.25z" data-name="Path 804"/>
    </g>
    <g filter="url(#c)">
      <path fill="#fff" d="M71 304.55a5.675 5.675 0 10-5.7-5.65 5.687 5.687 0 005.7 5.65zm35 3.55a11.573 11.573 0 008.85 3.5c6.45 0 11.25-3.55 11.25-11.15v-22.8h-5.85v22.7c0 3.65-2.25 6.05-5.85 6.05a7.63 7.63 0 01-5.7-2.75zm43.35 2.9h5.25v-24.15h-5.25v16.95a8.032 8.032 0 01-6.2 3.15c-2.95 0-4.85-1.15-4.85-4.9v-15.2h-5.25v17.1c0 4.95 2.55 7.65 7.75 7.65a11.575 11.575 0 008.55-3.8zm9.95-3.15a14.688 14.688 0 0010.35 3.75c6.5 0 10.05-3.25 10.05-7.5 0-5.7-5.15-6.9-9.35-7.8-2.85-.65-5.25-1.3-5.25-3.15 0-1.7 1.75-2.7 4.5-2.7a9.739 9.739 0 017.15 2.9l2.2-3.7a13.806 13.806 0 00-9.4-3.4c-6.1 0-9.5 3.4-9.5 7.35 0 5.4 4.95 6.5 9.1 7.4 2.95.65 5.5 1.4 5.5 3.5 0 1.8-1.6 2.95-4.75 2.95a12.465 12.465 0 01-8.2-3.4zm32.95 3.75a6.926 6.926 0 004.95-1.55l-1.25-3.95a3.389 3.389 0 01-2.35.85c-1.5 0-2.3-1.2-2.3-2.85v-12.65h4.9v-4.6h-4.9v-6.6h-5.25v6.6h-4v4.6h4v13.95c0 4 2.15 6.2 6.2 6.2zm6.8-10.45h12v-4.5h-12zm19.5-18a3.25 3.25 0 10-3.25-3.25 3.244 3.244 0 003.25 3.25zm-2.6 27.85h5.25v-24.15h-5.25zm28.35 0h5.25v-17c0-4.95-2.6-7.75-7.8-7.75a11.426 11.426 0 00-8.5 3.9v-3.3H228V311h5.25v-16.85a7.95 7.95 0 016.2-3.25c2.95 0 4.85 1.25 4.85 5zm10.15-9.85h12v-4.5h-12zm24.15 10.45a6.926 6.926 0 004.95-1.55l-1.25-3.95a3.389 3.389 0 01-2.35.85c-1.5 0-2.3-1.2-2.3-2.85v-12.65h4.9v-4.6h-4.9v-6.6h-5.25v6.6h-4v4.6h4v13.95c0 4 2.15 6.2 6.2 6.2zm11.3-28.45a3.25 3.25 0 10-3.25-3.25 3.244 3.244 0 003.25 3.25zM287.3 311h5.25v-24.15h-5.25zm41.65 0h5.25v-17.45c0-4.9-2.5-7.3-6.95-7.3a10.242 10.242 0 00-8.2 4.45c-.8-2.65-3-4.45-6.6-4.45a10.43 10.43 0 00-7.85 3.9v-3.3h-5.25V311h5.25v-16.85a7.307 7.307 0 015.55-3.25c2.85 0 4 1.75 4 4.35V311h5.25v-16.9a7.328 7.328 0 015.6-3.2c2.8 0 3.95 1.75 3.95 4.35zm10.55-12.1c0 7.65 5.4 12.7 12.65 12.7a14.077 14.077 0 009.8-3.5l-2.4-3.45a10.221 10.221 0 01-6.85 2.65 7.315 7.315 0 01-7.7-6.65h18.65v-1.25c0-7.6-4.65-13.15-11.9-13.15-7.15 0-12.25 5.65-12.25 12.65zm12.25-8.35a6.459 6.459 0 016.8 6.4h-13.6a6.662 6.662 0 016.8-6.4zM71 377.55a5.675 5.675 0 10-5.7-5.65 5.687 5.687 0 005.7 5.65zm38.15 6.45H115v-12.45h8.8c6.95 0 10.9-4.8 10.9-10.45s-3.9-10.45-10.9-10.45h-14.65zm19.55-22.9c0 3.2-2.4 5.3-5.7 5.3h-8v-10.6h8c3.3 0 5.7 2.1 5.7 5.3zm20.85 23.5c7.75 0 12.45-5.75 12.45-12.7 0-6.9-4.7-12.65-12.45-12.65-7.65 0-12.4 5.75-12.4 12.65 0 6.95 4.75 12.7 12.4 12.7zm0-4.65c-4.45 0-6.95-3.75-6.95-8.05 0-4.25 2.5-8 6.95-8 4.5 0 7 3.75 7 8 0 4.3-2.5 8.05-7 8.05zM167.3 384h5.25v-16.45a8.339 8.339 0 016.2-3.2 7.739 7.739 0 011.65.15v-5.2a10.313 10.313 0 00-7.85 4.1v-3.55h-5.25zm24.6.6a6.926 6.926 0 004.95-1.55l-1.25-3.95a3.389 3.389 0 01-2.35.85c-1.5 0-2.3-1.2-2.3-2.85v-12.65h4.9v-4.6h-4.9v-6.6h-5.25v6.6h-4v4.6h4v13.95c0 4 2.15 6.2 6.2 6.2zm23.45-.6h5.25v-16c0-6.5-4.7-8.75-10.05-8.75a14.361 14.361 0 00-10.15 3.9l2.15 3.65a9.889 9.889 0 017.15-3.05c3.35 0 5.65 1.7 5.65 4.5v3.6c-1.75-2.05-4.55-3.1-7.8-3.1-3.95 0-8.4 2.3-8.4 7.85 0 5.35 4.45 8 8.4 8a10.2 10.2 0 007.8-3.2zm0-5.5a7.069 7.069 0 01-5.75 2.5c-2.95 0-5.15-1.7-5.15-4.3 0-2.65 2.2-4.35 5.15-4.35a7.069 7.069 0 015.75 2.5zm12.05 5.5h5.25v-3.3a9.708 9.708 0 007.75 3.9c6.15 0 10.7-4.7 10.7-12.65 0-7.8-4.5-12.7-10.7-12.7a9.55 9.55 0 00-7.75 3.95v-12.55h-5.25zm5.25-7.25v-9.55a7.881 7.881 0 016.2-3.3c4.2 0 6.85 3.35 6.85 8.05s-2.65 8-6.85 8a7.793 7.793 0 01-6.2-3.2zm23.8 7.25h5.25v-33.35h-5.25zM267 371.9c0 7.65 5.4 12.7 12.65 12.7a14.077 14.077 0 009.8-3.5l-2.4-3.45a10.221 10.221 0 01-6.85 2.65 7.315 7.315 0 01-7.7-6.65h18.65v-1.25c0-7.6-4.65-13.15-11.9-13.15-7.15 0-12.25 5.65-12.25 12.65zm12.25-8.35a6.459 6.459 0 016.8 6.4h-13.6a6.662 6.662 0 016.8-6.4zM71 450.55a5.675 5.675 0 10-5.7-5.65 5.687 5.687 0 005.7 5.65zm57.2 6.45h6.75l-8.15-13.1c4-.65 7.9-3.85 7.9-9.8 0-6.15-4.3-10.45-10.9-10.45h-14.65V457H115v-12.45h5.8zm.5-22.9c0 3.2-2.4 5.3-5.7 5.3h-8v-10.6h8c3.3 0 5.7 2.1 5.7 5.3zm8.7 10.8c0 7.65 5.4 12.7 12.65 12.7a14.077 14.077 0 009.8-3.5l-2.4-3.45a10.221 10.221 0 01-6.85 2.65 7.315 7.315 0 01-7.7-6.65h18.65v-1.25c0-7.6-4.65-13.15-11.9-13.15-7.15 0-12.25 5.65-12.25 12.65zm12.25-8.35a6.459 6.459 0 016.8 6.4h-13.6a6.662 6.662 0 016.8-6.4zM181.5 457h5.25v-16c0-6.5-4.7-8.75-10.05-8.75a14.361 14.361 0 00-10.15 3.9l2.15 3.65a9.889 9.889 0 017.15-3.05c3.35 0 5.65 1.7 5.65 4.5v3.6c-1.75-2.05-4.55-3.1-7.8-3.1-3.95 0-8.4 2.3-8.4 7.85 0 5.35 4.45 8 8.4 8a10.2 10.2 0 007.8-3.2zm0-5.5a7.069 7.069 0 01-5.75 2.5c-2.95 0-5.15-1.7-5.15-4.3 0-2.65 2.2-4.35 5.15-4.35a7.069 7.069 0 015.75 2.5zm29.05 5.5h5.25v-33.35h-5.25v12.55a9.688 9.688 0 00-7.75-3.95c-6.25 0-10.75 4.9-10.75 12.7 0 7.95 4.55 12.65 10.75 12.65a9.78 9.78 0 007.75-3.9zm0-7.25a7.891 7.891 0 01-6.25 3.2c-4.15 0-6.8-3.35-6.8-8 0-4.7 2.65-8.05 6.8-8.05a7.934 7.934 0 016.25 3.25zm14.65-20.6a3.25 3.25 0 10-3.25-3.25 3.244 3.244 0 003.25 3.25zM222.6 457h5.25v-24.15h-5.25zm12.05 0h5.25v-33.35h-5.25zm11.8 4.75l-.8 4.7a14.848 14.848 0 002.95.35c3.75-.05 6.65-1.35 8.3-5.45l11.65-28.5h-5.65l-7.05 18.1-7.05-18.1h-5.6l9.9 24.45-1.2 2.75a3.271 3.271 0 01-3.45 2.1 5.487 5.487 0 01-2-.4zm53-4.75h5.25v-16c0-6.5-4.7-8.75-10.05-8.75a14.361 14.361 0 00-10.15 3.9l2.15 3.65a9.889 9.889 0 017.15-3.05c3.35 0 5.65 1.7 5.65 4.5v3.6c-1.75-2.05-4.55-3.1-7.8-3.1-3.95 0-8.4 2.3-8.4 7.85 0 5.35 4.45 8 8.4 8a10.2 10.2 0 007.8-3.2zm0-5.5a7.069 7.069 0 01-5.75 2.5c-2.95 0-5.15-1.7-5.15-4.3 0-2.65 2.2-4.35 5.15-4.35a7.069 7.069 0 015.75 2.5zm10.55-6.6c0 7.35 5.15 12.7 12.5 12.7 4.7 0 7.55-2 9.25-4.3l-3.45-3.2a6.565 6.565 0 01-5.55 2.85c-4.4 0-7.3-3.35-7.3-8.05s2.9-8 7.3-8a6.446 6.446 0 015.55 2.85l3.45-3.2c-1.7-2.3-4.55-4.3-9.25-4.3-7.35 0-12.5 5.35-12.5 12.65zm24.85 0c0 7.35 5.15 12.7 12.5 12.7 4.7 0 7.55-2 9.25-4.3l-3.45-3.2a6.565 6.565 0 01-5.55 2.85c-4.4 0-7.3-3.35-7.3-8.05s2.9-8 7.3-8a6.446 6.446 0 015.55 2.85l3.45-3.2c-1.7-2.3-4.55-4.3-9.25-4.3-7.35 0-12.5 5.35-12.5 12.65zm24.85 0c0 7.65 5.4 12.7 12.65 12.7a14.077 14.077 0 009.8-3.5l-2.4-3.45a10.221 10.221 0 01-6.85 2.65 7.315 7.315 0 01-7.7-6.65h18.65v-1.25c0-7.6-4.65-13.15-11.9-13.15-7.15 0-12.25 5.65-12.25 12.65zm12.25-8.35a6.459 6.459 0 016.8 6.4h-13.6a6.662 6.662 0 016.8-6.4zm15 17.3a14.688 14.688 0 0010.35 3.75c6.5 0 10.05-3.25 10.05-7.5 0-5.7-5.15-6.9-9.35-7.8-2.85-.65-5.25-1.3-5.25-3.15 0-1.7 1.75-2.7 4.5-2.7a9.739 9.739 0 017.15 2.9l2.2-3.7a13.806 13.806 0 00-9.4-3.4c-6.1 0-9.5 3.4-9.5 7.35 0 5.4 4.95 6.5 9.1 7.4 2.95.65 5.5 1.4 5.5 3.5 0 1.8-1.6 2.95-4.75 2.95a12.465 12.465 0 01-8.2-3.4zm23.6 0a14.688 14.688 0 0010.35 3.75c6.5 0 10.05-3.25 10.05-7.5 0-5.7-5.15-6.9-9.35-7.8-2.85-.65-5.25-1.3-5.25-3.15 0-1.7 1.75-2.7 4.5-2.7a9.739 9.739 0 017.15 2.9l2.2-3.7a13.806 13.806 0 00-9.4-3.4c-6.1 0-9.5 3.4-9.5 7.35 0 5.4 4.95 6.5 9.1 7.4 2.95.65 5.5 1.4 5.5 3.5 0 1.8-1.6 2.95-4.75 2.95a12.465 12.465 0 01-8.2-3.4zm28.3-24.7a3.25 3.25 0 10-3.25-3.25 3.244 3.244 0 003.25 3.25zm-2.6 27.85h5.25v-24.15h-5.25zm12.05 0h5.25v-3.3a9.708 9.708 0 007.75 3.9c6.15 0 10.7-4.7 10.7-12.65 0-7.8-4.5-12.7-10.7-12.7a9.549 9.549 0 00-7.75 3.95v-12.55h-5.25zm5.25-7.25v-9.55a7.881 7.881 0 016.2-3.3c4.2 0 6.85 3.35 6.85 8.05s-2.65 8-6.85 8a7.793 7.793 0 01-6.2-3.2zm23.8 7.25h5.25v-33.35h-5.25zm10.55-12.1c0 7.65 5.4 12.7 12.65 12.7a14.077 14.077 0 009.8-3.5l-2.4-3.45a10.221 10.221 0 01-6.85 2.65 7.315 7.315 0 01-7.7-6.65h18.65v-1.25c0-7.6-4.65-13.15-11.9-13.15-7.15 0-12.25 5.65-12.25 12.65zm12.25-8.35a6.459 6.459 0 016.8 6.4h-13.6a6.662 6.662 0 016.8-6.4zM71 523.55a5.675 5.675 0 10-5.7-5.65 5.687 5.687 0 005.7 5.65zm38.15 6.45H132v-5.15h-17v-9.25h16.65v-5.15H115v-8.65h17v-5.15h-22.85zm45 0h5.25v-17c0-4.95-2.6-7.75-7.8-7.75a11.426 11.426 0 00-8.5 3.9v-3.3h-5.25V530h5.25v-16.85a7.95 7.95 0 016.2-3.25c2.95 0 4.85 1.25 4.85 5zm26.8 0h5.25v-16c0-6.5-4.7-8.75-10.05-8.75a14.361 14.361 0 00-10.15 3.9l2.15 3.65a9.889 9.889 0 017.15-3.05c3.35 0 5.65 1.7 5.65 4.5v3.6c-1.75-2.05-4.55-3.1-7.8-3.1-3.95 0-8.4 2.3-8.4 7.85 0 5.35 4.45 8 8.4 8a10.2 10.2 0 007.8-3.2zm0-5.5a7.069 7.069 0 01-5.75 2.5c-2.95 0-5.15-1.7-5.15-4.3 0-2.65 2.2-4.35 5.15-4.35a7.069 7.069 0 015.75 2.5zm11.75 11.7c2.95 2.7 6 3.6 10.1 3.6 5.95 0 12.4-2.35 12.4-11.05v-22.9h-5.25v3.35a9.618 9.618 0 00-7.75-3.95c-6.2 0-10.7 4.6-10.7 12.4 0 7.95 4.55 12.4 10.7 12.4a9.8 9.8 0 007.75-4v2.9c0 4.95-3.7 6.55-7.15 6.55-3.2 0-5.7-.85-7.65-3.1zm17.25-14.05a7.836 7.836 0 01-6.2 3.25c-4.15 0-6.8-3.1-6.8-7.75s2.65-7.75 6.8-7.75a7.837 7.837 0 016.2 3.25zm26.8 7.85H242v-16c0-6.5-4.7-8.75-10.05-8.75a14.361 14.361 0 00-10.15 3.9l2.15 3.65a9.889 9.889 0 017.15-3.05c3.35 0 5.65 1.7 5.65 4.5v3.6c-1.75-2.05-4.55-3.1-7.8-3.1-3.95 0-8.4 2.3-8.4 7.85 0 5.35 4.45 8 8.4 8a10.2 10.2 0 007.8-3.2zm0-5.5A7.069 7.069 0 01231 527c-2.95 0-5.15-1.7-5.15-4.3 0-2.65 2.2-4.35 5.15-4.35a7.069 7.069 0 015.75 2.5zm11.75 11.7c2.95 2.7 6 3.6 10.1 3.6 5.95 0 12.4-2.35 12.4-11.05v-22.9h-5.25v3.35a9.618 9.618 0 00-7.75-3.95c-6.2 0-10.7 4.6-10.7 12.4 0 7.95 4.55 12.4 10.7 12.4a9.8 9.8 0 007.75-4v2.9c0 4.95-3.7 6.55-7.15 6.55-3.2 0-5.7-.85-7.65-3.1zm17.25-14.05a7.836 7.836 0 01-6.2 3.25c-4.15 0-6.8-3.1-6.8-7.75s2.65-7.75 6.8-7.75a7.837 7.837 0 016.2 3.25zm14.65-20a3.25 3.25 0 10-3.25-3.25 3.244 3.244 0 003.25 3.25zM277.8 530h5.25v-24.15h-5.25zm28.35 0h5.25v-17c0-4.95-2.6-7.75-7.8-7.75a11.426 11.426 0 00-8.5 3.9v-3.3h-5.25V530h5.25v-16.85a7.95 7.95 0 016.2-3.25c2.95 0 4.85 1.25 4.85 5zm11.75 6.2c2.95 2.7 6 3.6 10.1 3.6 5.95 0 12.4-2.35 12.4-11.05v-22.9h-5.25v3.35a9.618 9.618 0 00-7.75-3.95c-6.2 0-10.7 4.6-10.7 12.4 0 7.95 4.55 12.4 10.7 12.4a9.8 9.8 0 007.75-4v2.9c0 4.95-3.7 6.55-7.15 6.55-3.2 0-5.7-.85-7.65-3.1zm17.25-14.05a7.836 7.836 0 01-6.2 3.25c-4.15 0-6.8-3.1-6.8-7.75s2.65-7.75 6.8-7.75a7.837 7.837 0 016.2 3.25z" data-name="Path 803"/>
    </g>
  </g>
</svg>
