<svg xmlns="http://www.w3.org/2000/svg" viewBox="0 0 1280 800">
  <defs>
    <filter id="b" width="295.156" height="214.201" x="904.876" y="346.958" filterUnits="userSpaceOnUse">
      <feOffset dy="3"/>
      <feGaussianBlur result="blur" stdDeviation="3"/>
      <feFlood flood-opacity=".161"/>
      <feComposite in2="blur" operator="in"/>
      <feComposite in="SourceGraphic"/>
    </filter>
    <filter id="c" width="295.156" height="98.954" x="904.876" y="266.004" filterUnits="userSpaceOnUse">
      <feOffset dy="3"/>
      <feGaussianBlur result="blur-2" stdDeviation="3"/>
      <feFlood flood-opacity=".161"/>
      <feComposite in2="blur-2" operator="in"/>
      <feComposite in="SourceGraphic"/>
    </filter>
    <filter id="d" width="1201" height="121" x="39.5" y="105.5" filterUnits="userSpaceOnUse">
      <feOffset dy="5"/>
      <feGaussianBlur result="blur-3" stdDeviation="3.5"/>
      <feFlood flood-opacity=".161"/>
      <feComposite in2="blur-3" operator="in"/>
      <feComposite in="SourceGraphic"/>
    </filter>
    <filter id="e" width="802" height="222" x="82.5" y="339.5" filterUnits="userSpaceOnUse">
      <feOffset dy="5"/>
      <feGaussianBlur result="blur-4" stdDeviation="3.5"/>
      <feFlood flood-opacity=".161"/>
      <feComposite in2="blur-4" operator="in"/>
      <feComposite in="SourceGraphic"/>
    </filter>
    <clipPath id="a">
      <path d="M0 0h1280v800H0z"/>
    </clipPath>
  </defs>
  <g clip-path="url(#a)" data-name="2018-11-14-benefits-of-experiential-learning01">
    <path fill="#89d4e3" d="M0 0h1280v800H0z"/>
    <g data-name="Group 64" transform="translate(913.876 251.748)">
      <g filter="url(#b)" transform="translate(-913.88 -251.75)">
        <path fill="#fafafa" d="M913.875 352.955v162.942a33.356 33.356 0 0033.259 33.259h210.638a33.356 33.356 0 0033.259-33.259V352.955z" data-name="Path 158"/>
      </g>
      <g fill="#c8c8c8" data-name="Group 54" transform="translate(27.716 154.399)">
        <rect width="22.172" height="22.172" data-name="Rectangle 46" rx="2.087" transform="translate(166.293)"/>
        <path d="M135.122 0h18a2.088 2.088 0 012.088 2.088v18a2.087 2.087 0 01-2.087 2.087h-18a2.087 2.087 0 01-2.088-2.09v-18A2.087 2.087 0 01135.122 0z" data-name="Rectangle 47"/>
        <path d="M101.863 0h18a2.088 2.088 0 012.088 2.088v18a2.087 2.087 0 01-2.087 2.087h-18a2.087 2.087 0 01-2.088-2.09v-18A2.087 2.087 0 01101.863 0z" data-name="Rectangle 48"/>
        <path d="M68.604 0h18a2.088 2.088 0 012.088 2.088v18a2.087 2.087 0 01-2.087 2.087h-18a2.087 2.087 0 01-2.088-2.09v-18A2.087 2.087 0 0168.604 0z" data-name="Rectangle 49"/>
        <path d="M35.347 0h18a2.087 2.087 0 012.087 2.087v18a2.087 2.087 0 01-2.087 2.087h-18a2.087 2.087 0 01-2.088-2.089v-18A2.088 2.088 0 0135.347 0z" data-name="Rectangle 50"/>
        <path d="M201.639 0h18a2.088 2.088 0 012.088 2.088v18a2.087 2.087 0 01-2.087 2.087h-18a2.087 2.087 0 01-2.088-2.09v-18A2.087 2.087 0 01201.639 0z" data-name="Rectangle 51"/>
        <path d="M2.087 0h18a2.088 2.088 0 012.088 2.088v18a2.087 2.087 0 01-2.087 2.087h-18A2.087 2.087 0 010 20.085v-18A2.087 2.087 0 012.087 0z" data-name="Rectangle 52"/>
      </g>
      <g data-name="Group 55">
        <path d="M196.096 187.658h18a2.087 2.087 0 012.087 2.087v18a2.088 2.088 0 01-2.088 2.088h-18a2.087 2.087 0 01-2.086-2.09v-18a2.087 2.087 0 012.087-2.085z" data-name="Rectangle 53"/>
        <path d="M162.838 187.658h18a2.087 2.087 0 012.087 2.087v18a2.087 2.087 0 01-2.087 2.087h-18a2.088 2.088 0 01-2.087-2.089v-18a2.087 2.087 0 012.087-2.085z" data-name="Rectangle 54"/>
        <path d="M129.579 187.658h18a2.087 2.087 0 012.087 2.087v18a2.087 2.087 0 01-2.087 2.087h-18a2.088 2.088 0 01-2.087-2.089v-18a2.087 2.087 0 012.087-2.085z" data-name="Rectangle 55"/>
        <path d="M96.32 187.658h18a2.087 2.087 0 012.087 2.087v18a2.087 2.087 0 01-2.087 2.087h-18a2.088 2.088 0 01-2.087-2.089v-18a2.087 2.087 0 012.087-2.085z" data-name="Rectangle 56"/>
        <path d="M63.062 187.658h18a2.087 2.087 0 012.087 2.087v18a2.088 2.088 0 01-2.088 2.088h-18a2.087 2.087 0 01-2.086-2.09v-18a2.087 2.087 0 012.087-2.085z" data-name="Rectangle 57"/>
        <path d="M229.355 187.658h18a2.087 2.087 0 012.087 2.087v18a2.087 2.087 0 01-2.087 2.087h-18a2.088 2.088 0 01-2.087-2.089v-18a2.087 2.087 0 012.087-2.085z" data-name="Rectangle 58"/>
        <path d="M29.803 187.658h18a2.087 2.087 0 012.087 2.087v18a2.087 2.087 0 01-2.087 2.087h-18a2.088 2.088 0 01-2.087-2.089v-18a2.087 2.087 0 012.087-2.085z" data-name="Rectangle 59"/>
      </g>
      <g data-name="Group 56">
        <path d="M196.096 220.917h18a2.087 2.087 0 012.087 2.087v18a2.088 2.088 0 01-2.088 2.088h-18a2.087 2.087 0 01-2.086-2.09v-18a2.087 2.087 0 012.087-2.085z" data-name="Rectangle 60"/>
        <path d="M162.838 220.917h18a2.087 2.087 0 012.087 2.087v18a2.087 2.087 0 01-2.087 2.087h-18a2.088 2.088 0 01-2.087-2.089v-18a2.087 2.087 0 012.087-2.085z" data-name="Rectangle 61"/>
        <path d="M129.579 220.917h18a2.087 2.087 0 012.087 2.087v18a2.087 2.087 0 01-2.087 2.087h-18a2.088 2.088 0 01-2.087-2.089v-18a2.087 2.087 0 012.087-2.085z" data-name="Rectangle 62"/>
        <path d="M96.32 220.917h18a2.087 2.087 0 012.087 2.087v18a2.087 2.087 0 01-2.087 2.087h-18a2.088 2.088 0 01-2.087-2.089v-18a2.087 2.087 0 012.087-2.085z" data-name="Rectangle 63"/>
        <path d="M63.062 220.917h18a2.087 2.087 0 012.087 2.087v18a2.088 2.088 0 01-2.088 2.088h-18a2.087 2.087 0 01-2.086-2.09v-18a2.087 2.087 0 012.087-2.085z" data-name="Rectangle 64"/>
        <path d="M229.355 220.917h18a2.087 2.087 0 012.087 2.087v18a2.087 2.087 0 01-2.087 2.087h-18a2.088 2.088 0 01-2.087-2.089v-18a2.087 2.087 0 012.087-2.085z" data-name="Rectangle 65"/>
        <path d="M29.803 220.917h18a2.087 2.087 0 012.087 2.087v18a2.087 2.087 0 01-2.087 2.087h-18a2.088 2.088 0 01-2.087-2.089v-18a2.087 2.087 0 012.087-2.085z" data-name="Rectangle 66"/>
      </g>
      <rect width="22.172" height="22.172" fill="#c8c8c8" data-name="Rectangle 67" rx="2.087" transform="translate(194.009 121.141)"/>
      <rect width="22.172" height="22.172" fill="#c8c8c8" data-name="Rectangle 68" rx="2.087" transform="translate(160.75 121.141)"/>
      <path fill="#c8c8c8" d="M229.355 121.141h18a2.088 2.088 0 012.088 2.088v18a2.087 2.087 0 01-2.087 2.087h-18a2.087 2.087 0 01-2.088-2.09v-18a2.087 2.087 0 012.087-2.085z" data-name="Rectangle 69"/>
      <rect width="22.172" height="22.172" fill="#c8c8c8" data-name="Rectangle 70" rx="2.087" transform="translate(194.009 254.175)"/>
      <rect width="22.172" height="22.172" fill="#c8c8c8" data-name="Rectangle 71" rx="2.087" transform="translate(160.75 254.175)"/>
      <rect width="22.172" height="22.172" fill="#c8c8c8" data-name="Rectangle 72" rx="2.087" transform="translate(127.492 254.175)"/>
      <rect width="22.172" height="22.172" fill="#c8c8c8" data-name="Rectangle 73" rx="2.087" transform="translate(94.233 254.175)"/>
      <rect width="22.172" height="22.172" fill="#c8c8c8" data-name="Rectangle 74" rx="2.087" transform="translate(60.974 254.175)"/>
      <rect width="22.172" height="22.172" fill="#c8c8c8" data-name="Rectangle 75" rx="2.087" transform="translate(27.716 254.175)"/>
      <g data-name="Group 62">
        <g filter="url(#c)" transform="translate(-913.88 -251.75)">
          <path d="M1157.772 272H947.134a33.356 33.356 0 00-33.259 33.259v47.7h277.156v-47.7A33.356 33.356 0 001157.772 272zm-188.466 40.53a16.63 16.63 0 1116.63-16.63 16.63 16.63 0 01-16.63 16.63zm166.293 0a16.63 16.63 0 1116.63-16.63 16.63 16.63 0 01-16.629 16.63z" data-name="Path 159"/>
        </g>
        <g data-name="Group 58">
          <path d="M221.724 21.987a22.173 22.173 0 1022.172 22.172 22.173 22.173 0 00-22.172-22.172zm0 38.8a16.63 16.63 0 1116.63-16.63 16.63 16.63 0 01-16.63 16.63z" data-name="Path 160" opacity=".05" style="mix-blend-mode:overlay;isolation:isolate"/>
          <path d="M55.431 21.987a22.173 22.173 0 1022.172 22.172 22.173 22.173 0 00-22.172-22.172zm0 38.8a16.63 16.63 0 1116.63-16.63 16.63 16.63 0 01-16.63 16.63z" data-name="Path 161" opacity=".05" style="mix-blend-mode:overlay;isolation:isolate"/>
        </g>
        <g data-name="Group 61">
          <g fill="#d2d2d2" data-name="Group 59">
            <path d="M55.431 0A11.906 11.906 0 0043.56 11.871V44.16a11.871 11.871 0 1023.742 0V11.871A11.906 11.906 0 0055.431 0z" data-name="Path 162"/>
            <path d="M221.724 0a11.906 11.906 0 00-11.874 11.871V44.16a11.871 11.871 0 1023.742 0V11.871A11.906 11.906 0 00221.724 0z" data-name="Path 163"/>
          </g>
          <g fill="#f0f0f0" data-name="Group 60">
            <path d="M50.728 7.414a3.151 3.151 0 00-3.141 3.142v34.921a3.141 3.141 0 006.282 0V10.556a3.151 3.151 0 00-3.141-3.142z" data-name="Path 164"/>
            <path d="M217.022 7.414a3.15 3.15 0 00-3.141 3.142v34.921a3.141 3.141 0 106.282 0V10.556a3.151 3.151 0 00-3.141-3.142z" data-name="Path 165"/>
          </g>
        </g>
      </g>
      <path d="M0 90.124h277.156v11.086H0z" data-name="Rectangle 76" opacity=".05" style="mix-blend-mode:overlay;isolation:isolate"/>
    </g>
    <path d="M0 726h1280v74H0z" data-name="Rectangle 44"/>
    <g fill="#fff" data-name="Group 52">
      <path d="M529.567 779.457h9.954a1.93 1.93 0 001.935-1.843v-6.821a36.608 36.608 0 01-11.889 8.664z" data-name="Path 137"/>
      <path d="M527.355 756.323c-.092-1.751-1.383-2.857-4.148-2.577-5.437.365-9.583 6.54-10.783 12.9 11.8-.922 15.023-8.111 14.931-10.323z" data-name="Path 138"/>
      <path d="M526.341 749.963c5.622-.369 8.2 1.843 8.387 4.608.461 6.083-9.493 13.272-22.581 14.378h-.184a10.209 10.209 0 00.369 5.069c.922 2.4 3.318 3.318 6.083 3.318 12.166 0 21.106-13.456 23.041-19.539v-9.954a1.871 1.871 0 00-1.935-1.843h-29.678a1.849 1.849 0 00-1.843 1.843v13.641c4.793-6.084 12.166-11.06 18.341-11.521z" data-name="Path 139"/>
      <g>
        <path d="M565.882 768.673a4.855 4.855 0 003.779-1.659l1.106.922a6.365 6.365 0 01-4.885 2.3 5.892 5.892 0 01-5.9-6.175c0-3.41 2.4-6.175 5.714-6.175 3.5 0 5.53 2.857 5.53 6.267v.553h-9.493a4.081 4.081 0 004.149 3.967zm3.41-5.346c-.184-2.12-1.475-4.055-3.779-4.055-2.028 0-3.594 1.751-3.871 4.055z" data-name="Path 140"/>
        <path d="M583.76 769.963v-2.4a5.23 5.23 0 01-4.516 2.673 5.856 5.856 0 01-5.714-6.171 5.856 5.856 0 015.714-6.175 5.228 5.228 0 014.516 2.581v-7.374h1.751v16.866zm-4.24-10.6c-2.3 0-4.147 1.751-4.147 4.608s1.935 4.608 4.147 4.608a4.452 4.452 0 004.332-4.608 4.452 4.452 0 00-4.331-4.607z" data-name="Path 141"/>
        <path d="M594.822 773.65a9.258 9.258 0 01-5.439-1.66l.829-1.382a8.066 8.066 0 004.61 1.476c2.581 0 4.332-1.475 4.332-4.24v-1.383a5.681 5.681 0 01-4.7 2.581 5.427 5.427 0 01-5.53-5.53 5.5 5.5 0 015.528-5.622 5.773 5.773 0 014.7 2.4v-2.12h1.751v9.77c-.092 3.775-2.488 5.71-6.081 5.71zm-.092-14.286a3.892 3.892 0 00-4.147 4.055 4 4 0 004.147 4.055 4.176 4.176 0 004.422-4.054 4.23 4.23 0 00-4.424-4.055z" data-name="Path 142"/>
        <path d="M610.029 768.673a4.855 4.855 0 003.779-1.659l1.106.922a6.365 6.365 0 01-4.885 2.3 5.892 5.892 0 01-5.9-6.175c0-3.41 2.4-6.175 5.714-6.175 3.5 0 5.53 2.857 5.53 6.267v.553h-9.4a3.948 3.948 0 004.056 3.967zm3.41-5.346c-.184-2.12-1.475-4.055-3.779-4.055-2.028 0-3.594 1.751-3.871 4.055z" data-name="Path 143"/>
        <path d="M624.682 770.24a5.228 5.228 0 01-4.516-2.581v5.991h-1.751v-15.576h1.751v2.3a5.23 5.23 0 014.516-2.673 5.856 5.856 0 015.714 6.175c.001 3.967-2.857 6.364-5.714 6.364zm-.367-10.876a4.452 4.452 0 00-4.332 4.608 4.34 4.34 0 004.332 4.608c2.3 0 4.147-1.751 4.147-4.608a4.153 4.153 0 00-4.147-4.608z" data-name="Path 144"/>
        <path d="M639.06 770.239a6.116 6.116 0 01-6.175-6.175 6.194 6.194 0 016.175-6.267 6.116 6.116 0 016.175 6.175 6.194 6.194 0 01-6.175 6.267zm0-10.876a4.339 4.339 0 00-4.332 4.608 4.491 4.491 0 004.424 4.7 4.412 4.412 0 004.424-4.608 4.625 4.625 0 00-4.516-4.7z" data-name="Path 145"/>
        <path d="M648.461 755.493v-1.935h2.028v1.935zm.184 14.47v-11.889h1.751v11.889z" data-name="Path 146"/>
        <path d="M656.295 769.963h-1.751v-11.89h1.751v2.024a4.43 4.43 0 014.055-2.3c2.857 0 4.516 1.935 4.516 4.7v7.373h-1.751v-6.912c0-2.212-1.2-3.594-3.318-3.594a3.51 3.51 0 00-3.594 3.687l.092 6.912z" data-name="Path 147"/>
        <path d="M671.042 766.553a1.8 1.8 0 002.028 2.028 3.994 3.994 0 001.751-.369v1.475a4 4 0 01-2.12.461c-1.935 0-3.318-.922-3.318-3.318v-7.19h-1.659v-1.661h1.659v-3.5h1.751v3.5h3.779v1.567h-3.779v7z" data-name="Path 148"/>
      </g>
      <g>
        <path d="M684.958 769.963v-16.866h1.751v16.866z" data-name="Path 149"/>
        <path d="M696.204 768.673a4.855 4.855 0 003.779-1.659l1.106.922a6.365 6.365 0 01-4.885 2.3 5.892 5.892 0 01-5.9-6.175c0-3.41 2.4-6.175 5.714-6.175 3.5 0 5.53 2.857 5.53 6.267v.553h-9.4a3.948 3.948 0 004.055 3.963zm3.41-5.346c-.184-2.12-1.475-4.055-3.779-4.055-2.028 0-3.594 1.751-3.871 4.055z" data-name="Path 150"/>
        <path d="M705.142 760.382l-.553-1.475a9.105 9.105 0 014.332-.925c3.226 0 5.069 1.659 5.069 4.793v7.281h-1.751v-1.751a5.161 5.161 0 01-4.332 2.028c-2.212 0-4.424-1.2-4.424-3.687 0-2.581 2.028-3.871 5.069-3.871a13.114 13.114 0 013.594.461v-.369c0-2.12-1.29-3.226-3.594-3.226a5.9 5.9 0 00-3.41.737zm.276 5.991c0 1.475 1.382 2.4 3.041 2.4 2.212 0 3.963-1.29 3.963-3.226v-1.2a11.937 11.937 0 00-3.5-.461c-2.212 0-3.5 1.014-3.5 2.488z" data-name="Path 151"/>
        <path d="M719.612 769.963h-1.751v-11.889h1.751v3.041a5.068 5.068 0 014.885-3.318v1.843h-.092c-2.581 0-4.7 1.843-4.7 5.438v4.885z" data-name="Path 152"/>
        <path d="M728.921 769.963h-1.751v-11.89h1.751v2.024a4.43 4.43 0 014.055-2.3c2.857 0 4.516 1.935 4.516 4.7v7.373h-1.751v-6.912c0-2.212-1.2-3.594-3.318-3.594a3.51 3.51 0 00-3.594 3.687v6.912z" data-name="Path 153"/>
        <path d="M741.271 755.493v-1.935h2.028v1.935zm.184 14.47v-11.889h1.751v11.889z" data-name="Path 154"/>
        <path d="M749.105 769.963h-1.751v-11.89h1.751v2.024a4.43 4.43 0 014.055-2.3c2.857 0 4.516 1.935 4.516 4.7v7.373h-1.751v-6.912c0-2.212-1.2-3.594-3.318-3.594a3.51 3.51 0 00-3.594 3.687l.092 6.912z" data-name="Path 155"/>
        <path d="M766.803 773.65a9.258 9.258 0 01-5.439-1.66l.83-1.382a8.066 8.066 0 004.608 1.475c2.581 0 4.332-1.475 4.332-4.24v-1.382a5.681 5.681 0 01-4.7 2.581 5.427 5.427 0 01-5.53-5.53 5.5 5.5 0 015.53-5.622 5.641 5.641 0 014.7 2.4v-2.12h1.751v9.77c-.092 3.779-2.488 5.714-6.083 5.714zm-.092-14.286a3.892 3.892 0 00-4.147 4.055 4 4 0 004.147 4.055 4.176 4.176 0 004.424-4.055 4.23 4.23 0 00-4.426-4.054z" data-name="Path 156"/>
      </g>
    </g>
    <g filter="url(#d)">
      <text data-name="Information retention after 2 weeks" font-family="ProximaNova-Semibold, Proxima Nova" font-size="70" font-weight="600" transform="translate(50 111)">
        <tspan x="39.94" y="64">Information retention after 2 weeks</tspan>
      </text>
    </g>
    <g filter="url(#e)">
      <text data-name="• 68% of those who practiced • 29% of those who read material" font-family="ProximaNova-Semibold, Proxima Nova" font-size="50" font-weight="600" transform="translate(93 345)">
        <tspan x="0" y="46">• 68% of those who practiced</tspan><tspan x="0" y="119">• 29% of those who read material</tspan>
      </text>
    </g>
  </g>
</svg>
