<svg xmlns="http://www.w3.org/2000/svg" viewBox="0 0 1280 800">
  <defs>
    <clipPath id="a">
      <path d="M0 0h1280v800H0z"/>
    </clipPath>
    <filter id="b" width="700.02" height="163.98" x="290.79" y="50.28" filterUnits="userSpaceOnUse">
      <feOffset dy="5"/>
      <feGaussianBlur result="blur" stdDeviation="3.5"/>
      <feFlood flood-opacity=".161"/>
      <feComposite in2="blur" operator="in"/>
      <feComposite in="SourceGraphic"/>
    </filter>
  </defs>
  <g clip-path="url(#a)" data-name="2018-08-22-restaurant-managers-training-program01">
    <path fill="#e6f9ff" d="M0 0h1280v800H0z"/>
    <path fill="#1aa6b7" d="M0 726h1280v74H0z" data-name="Rectangle 44"/>
    <g fill="#d9ecf2" data-name="Group 83" transform="translate(212 240)">
      <path d="M785.67 471.189c17.59-21.3 27.637-49.41 24.474-76.855s-20.515-53.533-45.887-64.466c-26.611-11.468-57.476-5.622-84.737 4.2-38.458 13.86-74.548 27.483-114.971 34.816-32.193 5.841-55.994-.34-72.636-30.4C446.363 256.209 717.871-.001 401.266-.001 272.929-.001.001 43.835.001 331.84c0 66.276 17.5 115.787 44.555 153.374h727.4a118.927 118.927 0 0013.714-14.025z" data-name="Path 198"/>
      <circle cx="94.982" cy="94.982" r="94.982" data-name="Ellipse 12" transform="translate(621.152 3.723)"/>
    </g>
    <g data-name="Group 92">
      <g data-name="Group 89">
        <path fill="#fff" fill-rule="evenodd" d="M571.964 725.639l3.248-3.876a45.308 45.308 0 0010.441-25.1l4.266-46.758h98.4l4.266 46.758a45.314 45.314 0 0010.441 25.1l3.247 3.876z" data-name="Path 205"/>
        <path fill="#194253" d="M686.16 652.269l4.07 44.611a47.876 47.876 0 0010.983 26.4H577.022a47.876 47.876 0 0010.983-26.4l4.07-44.611h94.084m4.31-4.721H587.766l-.391 4.292-4.07 44.611a42.961 42.961 0 01-9.9 23.795l-6.5 7.753h144.424l-6.5-7.753a42.962 42.962 0 01-9.9-23.795l-4.07-44.611-.391-4.292z" data-name="Path 206"/>
      </g>
      <path fill="#194253" fill-rule="evenodd" d="M589.065 661.471v7.926l101.773 3.814v-11.74z" data-name="Path 207"/>
      <g data-name="Group 91">
        <g data-name="Group 90">
          <path fill="#194253" d="M678.884 712.276H599.35a2.361 2.361 0 010-4.722h79.533a2.361 2.361 0 010 4.722z" data-name="Path 208"/>
        </g>
      </g>
    </g>
    <g data-name="Group 93" transform="translate(366.438 338.704)">
      <rect width="540.638" height="319.551" fill="#fff" data-name="Rectangle 48" rx="8.432" transform="translate(2.361 2.361)"/>
      <path fill="#194253" d="M530.306 0H15.053A15.054 15.054 0 000 15.053V309.22a15.054 15.054 0 0015.053 15.053h515.253a15.054 15.054 0 0015.054-15.053V15.053A15.054 15.054 0 00530.306 0zM15.053 4.72h515.253a10.344 10.344 0 0110.335 10.333v259.006H4.721V15.053A10.344 10.344 0 0115.053 4.72zm515.253 314.83H15.053a10.344 10.344 0 01-10.332-10.33v-30.44h535.92v30.44a10.344 10.344 0 01-10.335 10.332z" data-name="Path 209"/>
      <circle cx="7.527" cy="7.527" r="7.527" fill="#194253" data-name="Ellipse 14" transform="translate(265.153 291.639)"/>
    </g>
    <path fill="#fff" d="M783.516 704.965c-3.413.409-6.032 4.349-6.032 9.073v8.44c0 1.746 1.025 3.16 2.291 3.16h59.268c1.266 0 2.291-1.414 2.291-3.16v-8.44c0-4.724-2.619-8.663-6.032-9.073a217.026 217.026 0 00-51.786 0z" data-name="Path 210"/>
    <path fill="#194253" d="M839.044 727.998h-59.269c-2.609 0-4.652-2.425-4.652-5.52v-8.442c0-5.952 3.488-10.86 8.111-11.415a220.147 220.147 0 0152.347 0c4.624.555 8.112 5.463 8.112 11.415v8.442c.003 3.095-2.04 5.52-4.649 5.52zm-58.94-4.627zm-.072-.093h58.757a1.641 1.641 0 00.187-.8v-8.442c0-3.447-1.773-6.467-3.955-6.729a215.394 215.394 0 00-51.222 0c-2.181.262-3.955 3.282-3.955 6.729v8.442a1.641 1.641 0 00.187.8z" data-name="Path 211"/>
    <g data-name="Group 94">
      <path fill="#fff" d="M1000.562 612.317a1.51 1.51 0 00-1.927.914 25.129 25.129 0 0017.484 32.153 25.134 25.134 0 00-15.558-33.066z" data-name="Path 212"/>
      <path fill="#194253" d="M1017.552 648.208l-2.038-.542a27.492 27.492 0 01-19.12-35.171 3.768 3.768 0 011.9-2.2 3.958 3.958 0 013.011-.22 27.487 27.487 0 0117.015 36.166zm-16.94-33.372a22.583 22.583 0 00-.872 6.205 22.86 22.86 0 0014.885 21.4 22.517 22.517 0 00.873-6.205 22.8 22.8 0 00-14.886-21.4zm-.79-.277z" data-name="Path 213"/>
    </g>
    <g data-name="Group 95">
      <path fill="#fff" d="M991.783 627.878a1.487 1.487 0 00-1.557 1.269 25.2 25.2 0 0024.649 28.62 25.2 25.2 0 00-23.092-29.889z" data-name="Path 214"/>
      <path fill="#194253" d="M1016.822 660.151l-1.975-.023a27.555 27.555 0 01-26.959-31.3 3.843 3.843 0 014.048-3.3 27.558 27.558 0 0125.257 32.678zm-24.356-29.845a22.841 22.841 0 0020.385 24.987 22.842 22.842 0 00-20.385-24.987z" data-name="Path 215"/>
    </g>
    <g data-name="Group 96">
      <path fill="#fff" d="M1043.117 612.317a1.51 1.51 0 011.927.914 25.129 25.129 0 01-17.484 32.153 25.134 25.134 0 0115.558-33.066z" data-name="Path 216"/>
      <path fill="#194253" d="M1026.128 648.207l-.768-1.964a27.491 27.491 0 0117.016-36.166 3.871 3.871 0 014.907 2.416 27.485 27.485 0 01-19.121 35.174zm16.941-33.372a22.8 22.8 0 00-14.888 21.4 22.559 22.559 0 00.872 6.205 22.859 22.859 0 0014.888-21.4 22.583 22.583 0 00-.872-6.205zm.787-.277z" data-name="Path 217"/>
    </g>
    <g data-name="Group 97">
      <path fill="#fff" d="M1051.897 627.878a1.485 1.485 0 011.555 1.269 25.2 25.2 0 01-24.647 28.62 25.2 25.2 0 0123.092-29.889z" data-name="Path 218"/>
      <path fill="#194253" d="M1026.859 660.151l-.372-1.94a27.558 27.558 0 0125.257-32.689 3.855 3.855 0 014.048 3.306 27.556 27.556 0 01-26.958 31.3zm24.355-29.845a22.841 22.841 0 00-20.385 24.987 22.841 22.841 0 0020.385-24.987z" data-name="Path 219"/>
    </g>
    <g data-name="Group 98">
      <path fill="#fff" d="M1023.047 600.999a1.492 1.492 0 00-2.415 0 50.641 50.641 0 001.207 60.473 50.641 50.641 0 001.207-60.473z" data-name="Path 220"/>
      <path fill="#194253" d="M1021.835 665.322l-1.864-2.4a52.994 52.994 0 01-1.265-63.292 3.847 3.847 0 013.128-1.6 3.843 3.843 0 013.127 1.6 53 53 0 01-1.263 63.289zm0-61.925a48.295 48.295 0 000 54.06 48.3 48.3 0 000-54.06z" data-name="Path 221"/>
    </g>
    <g>
      <path fill="#fff" d="M985.067 657.386a44.032 44.032 0 1073.282-.393 14.8 14.8 0 00-12.3-6.371h-48.4a15.073 15.073 0 00-12.582 6.764z" data-name="Path 222"/>
      <g data-name="Group 100">
        <g fill="#194253" data-name="Group 99" transform="translate(975.447 648.262)">
          <path d="M84.858 7.411A17.109 17.109 0 0070.601 0h-48.4A17.385 17.385 0 007.653 7.823 46.128 46.128 0 00.03 34.978a46.725 46.725 0 0043.414 44.668q1.5.093 2.987.092a45.961 45.961 0 0031.733-12.585 46.386 46.386 0 006.7-59.743zm-73.267 3.015a12.671 12.671 0 0110.608-5.705h48.4a12.4 12.4 0 0110.346 5.332 41.357 41.357 0 016.632 16.941c-2.97.875-4.792 3.021-6.307 4.84-1.894 2.27-3.083 3.554-5.529 3.554s-3.635-1.284-5.529-3.554c-1.949-2.341-4.378-5.252-9.154-5.252s-7.2 2.911-9.151 5.252c-1.891 2.27-3.08 3.554-5.523 3.554s-3.635-1.284-5.528-3.554c-1.948-2.341-4.376-5.252-9.151-5.252s-7.2 2.913-9.151 5.252c-1.891 2.27-3.078 3.554-5.522 3.554s-3.631-1.284-5.522-3.554C10 30.02 8.188 27.879 5.233 27a41.254 41.254 0 016.358-16.574zm63.336 53.288a41.286 41.286 0 01-31.192 11.219A41.96 41.96 0 014.748 34.817a43.672 43.672 0 01.01-2.941 11.737 11.737 0 013.124 2.979c1.949 2.341 4.376 5.254 9.149 5.254s7.2-2.911 9.15-5.252c1.891-2.27 3.078-3.553 5.523-3.553s3.634 1.283 5.526 3.553c1.949 2.341 4.377 5.252 9.152 5.252s7.2-2.911 9.151-5.252c1.891-2.27 3.08-3.553 5.523-3.553s3.635 1.283 5.529 3.553c1.951 2.341 4.378 5.252 9.154 5.252s7.2-2.911 9.154-5.252a11.834 11.834 0 013.117-2.976c.016.488.054.972.054 1.462a41.278 41.278 0 01-13.137 30.371z" data-name="Path 223"/>
          <circle cx="2.36" cy="2.36" r="2.36" data-name="Ellipse 15" transform="translate(73.386 26.581)"/>
          <circle cx="2.36" cy="2.36" r="2.36" data-name="Ellipse 16" transform="translate(58.709 35.388)"/>
          <circle cx="2.36" cy="2.36" r="2.36" data-name="Ellipse 17" transform="translate(44.032 26.581)"/>
          <circle cx="2.36" cy="2.36" r="2.36" data-name="Ellipse 18" transform="translate(29.355 35.388)"/>
          <circle cx="2.36" cy="2.36" r="2.36" data-name="Ellipse 19" transform="translate(14.678 26.581)"/>
        </g>
      </g>
    </g>
    <g fill="#194253">
      <path d="M381.491 326.973a2.36 2.36 0 01-2.36-2.36v-15.054a2.36 2.36 0 114.721 0v15.053a2.36 2.36 0 01-2.361 2.361z" data-name="Path 224"/>
      <path d="M360.882 335.51a2.355 2.355 0 01-1.669-.691l-10.645-10.644a2.361 2.361 0 113.339-3.339l10.641 10.644a2.36 2.36 0 01-1.669 4.03z" data-name="Path 225"/>
      <path d="M352.345 356.118h-15.054a2.36 2.36 0 110-4.719h15.053a2.36 2.36 0 110 4.719z" data-name="Path 226"/>
    </g>
    <g>
      <g data-name="Group 101">
        <path fill="#fff" d="M221.453 598.226l12.977 127.413h59.017l12.978-127.413z" data-name="Path 227"/>
        <path fill="#194253" d="M295.579 727.999h-63.281L218.84 595.864h90.2zm-59.017-4.721h54.752l12.5-122.692h-79.747z" data-name="Path 228"/>
      </g>
      <g data-name="Group 102">
        <path fill="#fff" d="M308.922 582.92a3.009 3.009 0 00-2.9-2.2h-84.168a3.011 3.011 0 00-2.9 2.2l-3.209 11.484a3.011 3.011 0 002.9 3.821h90.586a3.01 3.01 0 002.9-3.821z" data-name="Path 229"/>
        <path fill="#194253" d="M309.232 600.585h-90.584a5.371 5.371 0 01-5.174-6.816l3.209-11.483a5.392 5.392 0 015.174-3.927h84.165a5.389 5.389 0 015.172 3.927l3.211 11.483a5.372 5.372 0 01-5.174 6.816zm-87.375-17.5a.651.651 0 00-.626.476l-3.209 11.483a.648.648 0 00.626.823h90.584a.65.65 0 00.626-.823l-3.209-11.483a.651.651 0 00-.626-.476z" data-name="Path 230"/>
      </g>
      <g data-name="Group 103">
        <path fill="#fff" d="M228.65 571.129l-2.681 9.592h75.94l-2.681-9.592a3.012 3.012 0 00-2.9-2.2h-64.779a3.011 3.011 0 00-2.899 2.2z" data-name="Path 231"/>
        <path fill="#194253" d="M305.019 583.082h-82.16l3.52-12.59a5.391 5.391 0 015.172-3.924h64.78a5.389 5.389 0 015.172 3.926zm-75.94-4.722h69.719l-1.844-6.595a.649.649 0 00-.625-.474h-64.78a.656.656 0 00-.628.476z" data-name="Path 232"/>
      </g>
      <g data-name="Group 104">
        <path fill="#fff" d="M221.813 635.706l5.544 54.439a3.012 3.012 0 003 2.705h67.166a3.01 3.01 0 002.994-2.705l5.546-54.439a3.01 3.01 0 00-3-3.315h-78.254a3.01 3.01 0 00-2.996 3.315z" data-name="Path 233"/>
        <path fill="#194253" d="M297.53 695.21h-67.178a5.359 5.359 0 01-5.344-4.826l-5.544-54.438a5.373 5.373 0 015.344-5.918h78.262a5.373 5.373 0 015.344 5.916l-5.544 54.439a5.359 5.359 0 01-5.34 4.827zm-72.717-60.459a.651.651 0 00-.647.716l5.544 54.438a.649.649 0 00.647.584h67.173a.647.647 0 00.646-.584l5.546-54.438a.652.652 0 00-.164-.5.639.639 0 00-.483-.214z" data-name="Path 234"/>
      </g>
      <g>
        <g fill="#194253" data-name="Group 105">
          <path d="M231.091 691.345h65.7l-.966 8.536-64.167-3.317z" data-name="Path 235"/>
          <path d="M221.453 598.225l.547 4.179 83.374 3.84 1.05-8.019z" data-name="Path 236"/>
        </g>
      </g>
    </g>
    <g>
      <path fill="#fff" d="M512.725 615.122V340.484a12.707 12.707 0 0112.692-12.693h227.4a12.707 12.707 0 0112.692 12.693v274.638z" data-name="Path 237"/>
      <g data-name="Group 112">
        <g data-name="Group 107">
          <g data-name="Group 106">
            <circle cx="4.516" cy="4.516" r="4.516" fill="#194253" data-name="Ellipse 20" transform="translate(524.116 336.549)"/>
          </g>
        </g>
        <g data-name="Group 109">
          <g data-name="Group 108">
            <circle cx="4.516" cy="4.516" r="4.516" fill="#194253" data-name="Ellipse 21" transform="translate(542.18 336.549)"/>
          </g>
        </g>
        <g data-name="Group 111">
          <g data-name="Group 110">
            <circle cx="4.516" cy="4.516" r="4.516" fill="#194253" data-name="Ellipse 22" transform="translate(560.244 336.549)"/>
          </g>
        </g>
      </g>
      <path fill="#194253" d="M752.82 325.431h-227.4a15.054 15.054 0 00-15.053 15.053v277h257.51v-277a15.054 15.054 0 00-15.057-15.053zm-227.4 4.722h227.4a10.344 10.344 0 0110.333 10.331v11.492H515.084v-11.492a10.344 10.344 0 0110.332-10.331zm-10.336 282.609V356.697h248.069v256.065z" data-name="Path 238"/>
      <g>
        <g data-name="Group 113" transform="translate(536.065 387.458)">
          <rect width="50.805" height="50.805" fill="#1aa6b7" data-name="Rectangle 49" rx="2"/>
          <path fill="#fff" d="M34.82 16.069L22.829 28.06l-6.843-6.843-3.338 3.338 10.181 10.181 15.329-15.329z" data-name="Path 239"/>
        </g>
        <g fill="#b4d0d9" data-name="Group 114">
          <path d="M606.691 392.179h120.428v4.721H606.691z" data-name="Rectangle 50"/>
          <path d="M606.691 401.621h120.428v4.721H606.691z" data-name="Rectangle 51"/>
          <path d="M606.691 411.062h60.214v4.721h-60.214z" data-name="Rectangle 52"/>
        </g>
        <g data-name="Group 115" transform="translate(536.065 452.691)">
          <rect width="50.805" height="50.805" fill="#1aa6b7" data-name="Rectangle 53" rx="2"/>
          <path fill="#fff" d="M34.82 16.069L22.829 28.06l-6.843-6.843-3.338 3.338 10.181 10.181 15.329-15.329z" data-name="Path 240"/>
        </g>
        <g fill="#b4d0d9" data-name="Group 116">
          <path d="M606.691 457.412h120.428v4.721H606.691z" data-name="Rectangle 54"/>
          <path d="M606.691 466.854h120.428v4.721H606.691z" data-name="Rectangle 55"/>
          <path d="M606.691 476.295h60.214v4.721h-60.214z" data-name="Rectangle 56"/>
        </g>
        <g data-name="Group 117" transform="translate(536.065 517.924)">
          <rect width="50.805" height="50.805" fill="#1aa6b7" data-name="Rectangle 57" rx="2"/>
          <path fill="#fff" d="M34.82 16.069l-11.991 11.99-6.843-6.843-3.338 3.338 10.181 10.181 15.329-15.329z" data-name="Path 241"/>
        </g>
        <g fill="#b4d0d9" data-name="Group 118">
          <path d="M606.691 522.645h120.428v4.721H606.691z" data-name="Rectangle 58"/>
          <path d="M606.691 532.086h120.428v4.721H606.691z" data-name="Rectangle 59"/>
          <path d="M606.691 541.528h60.214v4.721h-60.214z" data-name="Rectangle 60"/>
        </g>
      </g>
    </g>
    <g fill="#fff" data-name="Group 52">
      <path d="M529.567 779.457h9.954a1.93 1.93 0 001.935-1.843v-6.821a36.608 36.608 0 01-11.889 8.664z" data-name="Path 137"/>
      <path d="M527.355 756.323c-.092-1.751-1.383-2.857-4.148-2.577-5.437.365-9.583 6.54-10.783 12.9 11.8-.922 15.023-8.111 14.931-10.323z" data-name="Path 138"/>
      <path d="M526.341 749.963c5.622-.369 8.2 1.843 8.387 4.608.461 6.083-9.493 13.272-22.581 14.378h-.184a10.209 10.209 0 00.369 5.069c.922 2.4 3.318 3.318 6.083 3.318 12.166 0 21.106-13.456 23.041-19.539v-9.954a1.871 1.871 0 00-1.935-1.843h-29.678a1.849 1.849 0 00-1.843 1.843v13.641c4.793-6.084 12.166-11.06 18.341-11.521z" data-name="Path 139"/>
      <g>
        <path d="M565.882 768.673a4.855 4.855 0 003.779-1.659l1.106.922a6.365 6.365 0 01-4.885 2.3 5.892 5.892 0 01-5.9-6.175c0-3.41 2.4-6.175 5.714-6.175 3.5 0 5.53 2.857 5.53 6.267v.553h-9.493a4.081 4.081 0 004.149 3.967zm3.41-5.346c-.184-2.12-1.475-4.055-3.779-4.055-2.028 0-3.594 1.751-3.871 4.055z" data-name="Path 140"/>
        <path d="M583.76 769.963v-2.4a5.23 5.23 0 01-4.516 2.673 5.856 5.856 0 01-5.714-6.171 5.856 5.856 0 015.714-6.175 5.228 5.228 0 014.516 2.581v-7.374h1.751v16.866zm-4.24-10.6c-2.3 0-4.147 1.751-4.147 4.608s1.935 4.608 4.147 4.608a4.452 4.452 0 004.332-4.608 4.452 4.452 0 00-4.331-4.607z" data-name="Path 141"/>
        <path d="M594.822 773.65a9.258 9.258 0 01-5.439-1.66l.829-1.382a8.066 8.066 0 004.61 1.476c2.581 0 4.332-1.475 4.332-4.24v-1.383a5.681 5.681 0 01-4.7 2.581 5.427 5.427 0 01-5.53-5.53 5.5 5.5 0 015.528-5.622 5.773 5.773 0 014.7 2.4v-2.12h1.751v9.77c-.092 3.775-2.488 5.71-6.081 5.71zm-.092-14.286a3.892 3.892 0 00-4.147 4.055 4 4 0 004.147 4.055 4.176 4.176 0 004.422-4.054 4.23 4.23 0 00-4.424-4.055z" data-name="Path 142"/>
        <path d="M610.029 768.673a4.855 4.855 0 003.779-1.659l1.106.922a6.365 6.365 0 01-4.885 2.3 5.892 5.892 0 01-5.9-6.175c0-3.41 2.4-6.175 5.714-6.175 3.5 0 5.53 2.857 5.53 6.267v.553h-9.4a3.948 3.948 0 004.056 3.967zm3.41-5.346c-.184-2.12-1.475-4.055-3.779-4.055-2.028 0-3.594 1.751-3.871 4.055z" data-name="Path 143"/>
        <path d="M624.682 770.24a5.228 5.228 0 01-4.516-2.581v5.991h-1.751v-15.576h1.751v2.3a5.23 5.23 0 014.516-2.673 5.856 5.856 0 015.714 6.175c.001 3.967-2.857 6.364-5.714 6.364zm-.367-10.876a4.452 4.452 0 00-4.332 4.608 4.34 4.34 0 004.332 4.608c2.3 0 4.147-1.751 4.147-4.608a4.153 4.153 0 00-4.147-4.608z" data-name="Path 144"/>
        <path d="M639.06 770.239a6.116 6.116 0 01-6.175-6.175 6.194 6.194 0 016.175-6.267 6.116 6.116 0 016.175 6.175 6.194 6.194 0 01-6.175 6.267zm0-10.876a4.339 4.339 0 00-4.332 4.608 4.491 4.491 0 004.424 4.7 4.412 4.412 0 004.424-4.608 4.625 4.625 0 00-4.516-4.7z" data-name="Path 145"/>
        <path d="M648.461 755.493v-1.935h2.028v1.935zm.184 14.47v-11.889h1.751v11.889z" data-name="Path 146"/>
        <path d="M656.295 769.963h-1.751v-11.89h1.751v2.024a4.43 4.43 0 014.055-2.3c2.857 0 4.516 1.935 4.516 4.7v7.373h-1.751v-6.912c0-2.212-1.2-3.594-3.318-3.594a3.51 3.51 0 00-3.594 3.687l.092 6.912z" data-name="Path 147"/>
        <path d="M671.042 766.553a1.8 1.8 0 002.028 2.028 3.994 3.994 0 001.751-.369v1.475a4 4 0 01-2.12.461c-1.935 0-3.318-.922-3.318-3.318v-7.19h-1.659v-1.661h1.659v-3.5h1.751v3.5h3.779v1.567h-3.779v7z" data-name="Path 148"/>
      </g>
      <g>
        <path d="M684.958 769.963v-16.866h1.751v16.866z" data-name="Path 149"/>
        <path d="M696.204 768.673a4.855 4.855 0 003.779-1.659l1.106.922a6.365 6.365 0 01-4.885 2.3 5.892 5.892 0 01-5.9-6.175c0-3.41 2.4-6.175 5.714-6.175 3.5 0 5.53 2.857 5.53 6.267v.553h-9.4a3.948 3.948 0 004.055 3.963zm3.41-5.346c-.184-2.12-1.475-4.055-3.779-4.055-2.028 0-3.594 1.751-3.871 4.055z" data-name="Path 150"/>
        <path d="M705.142 760.382l-.553-1.475a9.105 9.105 0 014.332-.925c3.226 0 5.069 1.659 5.069 4.793v7.281h-1.751v-1.751a5.161 5.161 0 01-4.332 2.028c-2.212 0-4.424-1.2-4.424-3.687 0-2.581 2.028-3.871 5.069-3.871a13.114 13.114 0 013.594.461v-.369c0-2.12-1.29-3.226-3.594-3.226a5.9 5.9 0 00-3.41.737zm.276 5.991c0 1.475 1.382 2.4 3.041 2.4 2.212 0 3.963-1.29 3.963-3.226v-1.2a11.937 11.937 0 00-3.5-.461c-2.212 0-3.5 1.014-3.5 2.488z" data-name="Path 151"/>
        <path d="M719.612 769.963h-1.751v-11.889h1.751v3.041a5.068 5.068 0 014.885-3.318v1.843h-.092c-2.581 0-4.7 1.843-4.7 5.438v4.885z" data-name="Path 152"/>
        <path d="M728.921 769.963h-1.751v-11.89h1.751v2.024a4.43 4.43 0 014.055-2.3c2.857 0 4.516 1.935 4.516 4.7v7.373h-1.751v-6.912c0-2.212-1.2-3.594-3.318-3.594a3.51 3.51 0 00-3.594 3.687v6.912z" data-name="Path 153"/>
        <path d="M741.271 755.493v-1.935h2.028v1.935zm.184 14.47v-11.889h1.751v11.889z" data-name="Path 154"/>
        <path d="M749.105 769.963h-1.751v-11.89h1.751v2.024a4.43 4.43 0 014.055-2.3c2.857 0 4.516 1.935 4.516 4.7v7.373h-1.751v-6.912c0-2.212-1.2-3.594-3.318-3.594a3.51 3.51 0 00-3.594 3.687l.092 6.912z" data-name="Path 155"/>
        <path d="M766.803 773.65a9.258 9.258 0 01-5.439-1.66l.83-1.382a8.066 8.066 0 004.608 1.475c2.581 0 4.332-1.475 4.332-4.24v-1.382a5.681 5.681 0 01-4.7 2.581 5.427 5.427 0 01-5.53-5.53 5.5 5.5 0 015.53-5.622 5.641 5.641 0 014.7 2.4v-2.12h1.751v9.77c-.092 3.779-2.488 5.714-6.083 5.714zm-.092-14.286a3.892 3.892 0 00-4.147 4.055 4 4 0 004.147 4.055 4.176 4.176 0 004.424-4.055 4.23 4.23 0 00-4.426-4.054z" data-name="Path 156"/>
      </g>
    </g>
    <g filter="url(#b)">
      <path fill="#194253" d="M304.05 97h27.42v-6.18h-20.4v-11.1h19.98v-6.18h-19.98V63.16h20.4v-6.18h-27.42zm35.94 0h6.3V73.54h5.88v-5.52h-5.88V66.4c0-3.24 1.56-4.86 4.02-4.86a5.05 5.05 0 012.52.6l1.38-4.62a10.435 10.435 0 00-5.04-1.14c-5.34 0-9.18 3.54-9.18 10.02v1.62h-4.8v5.52h4.8zm18.48 0h6.3V73.54h5.88v-5.52h-5.88V66.4c0-3.24 1.56-4.86 4.02-4.86a5.05 5.05 0 012.52.6l1.38-4.62a10.435 10.435 0 00-5.04-1.14c-5.34 0-9.18 3.54-9.18 10.02v1.62h-4.8v5.52h4.8zm15.18-14.52c0 9.18 6.48 15.24 15.18 15.24a16.892 16.892 0 0011.76-4.2l-2.88-4.14a12.265 12.265 0 01-8.22 3.18c-5.46 0-8.76-3.6-9.24-7.98h22.38v-1.5c0-9.12-5.58-15.78-14.28-15.78-8.58 0-14.7 6.78-14.7 15.18zm14.7-10.02a7.751 7.751 0 018.16 7.68h-16.32c.3-3.54 2.76-7.68 8.16-7.68zm18.72 10.02c0 8.82 6.18 15.24 15 15.24 5.64 0 9.06-2.4 11.1-5.16l-4.14-3.84a7.878 7.878 0 01-6.66 3.42c-5.28 0-8.76-4.02-8.76-9.66s3.48-9.6 8.76-9.6a7.735 7.735 0 016.66 3.42l4.14-3.84c-2.04-2.76-5.46-5.16-11.1-5.16-8.82 0-15 6.42-15 15.18zm40.32 15.24c2.94 0 4.8-.78 5.94-1.86l-1.5-4.74a4.067 4.067 0 01-2.82 1.02c-1.8 0-2.76-1.44-2.76-3.42V73.54h5.88v-5.52h-5.88V60.1h-6.3v7.92h-4.8v5.52h4.8v16.74c0 4.8 2.58 7.44 7.44 7.44zm13.56-34.14a3.9 3.9 0 10-3.9-3.9 3.892 3.892 0 003.9 3.9zM457.83 97h6.3V68.02h-6.3zm22.08 0h6.78l11.82-28.98h-6.78l-8.46 21.72-8.46-21.72h-6.72zm20.76-14.52c0 9.18 6.48 15.24 15.18 15.24a16.892 16.892 0 0011.76-4.2l-2.88-4.14a12.265 12.265 0 01-8.22 3.18c-5.46 0-8.76-3.6-9.24-7.98h22.38v-1.5c0-9.12-5.58-15.78-14.28-15.78-8.58 0-14.7 6.78-14.7 15.18zm14.7-10.02a7.751 7.751 0 018.16 7.68h-16.32c.3-3.54 2.76-7.68 8.16-7.68zm44.64 25.26c2.94 0 4.8-.78 5.94-1.86l-1.5-4.74a4.067 4.067 0 01-2.82 1.02c-1.8 0-2.76-1.44-2.76-3.42V73.54h5.88v-5.52h-5.88V60.1h-6.3v7.92h-4.8v5.52h4.8v16.74c0 4.8 2.58 7.44 7.44 7.44zm10.44-.72h6.3V77.26c1.26-2.04 4.8-3.84 7.44-3.84a9.287 9.287 0 011.98.18v-6.24a12.376 12.376 0 00-9.42 4.92v-4.26h-6.3zm38.52 0h6.3V77.8c0-7.8-5.64-10.5-12.06-10.5a17.234 17.234 0 00-12.18 4.68l2.58 4.38a11.866 11.866 0 018.58-3.66c4.02 0 6.78 2.04 6.78 5.4v4.32c-2.1-2.46-5.46-3.72-9.36-3.72-4.74 0-10.08 2.76-10.08 9.42 0 6.42 5.34 9.6 10.08 9.6a12.234 12.234 0 009.36-3.84zm0-6.6c-1.44 1.98-4.14 3-6.9 3-3.54 0-6.18-2.04-6.18-5.16 0-3.18 2.64-5.22 6.18-5.22 2.76 0 5.46 1.02 6.9 3zm17.58-26.82a3.9 3.9 0 10-3.9-3.9 3.892 3.892 0 003.9 3.9zM623.43 97h6.3V68.02h-6.3zm34.02 0h6.3V76.6c0-5.94-3.12-9.3-9.36-9.3a13.711 13.711 0 00-10.2 4.68v-3.96h-6.3V97h6.3V76.78a9.54 9.54 0 017.44-3.9c3.54 0 5.82 1.5 5.82 6zm17.58-33.42a3.9 3.9 0 10-3.9-3.9 3.892 3.892 0 003.9 3.9zM671.91 97h6.3V68.02h-6.3zm34.02 0h6.3V76.6c0-5.94-3.12-9.3-9.36-9.3a13.711 13.711 0 00-10.2 4.68v-3.96h-6.3V97h6.3V76.78a9.54 9.54 0 017.44-3.9c3.54 0 5.82 1.5 5.82 6zm14.1 7.44c3.54 3.24 7.2 4.32 12.12 4.32 7.14 0 14.88-2.82 14.88-13.26V68.02h-6.3v4.02a11.542 11.542 0 00-9.3-4.74c-7.44 0-12.84 5.52-12.84 14.88 0 9.54 5.46 14.88 12.84 14.88a11.763 11.763 0 009.3-4.8v3.48c0 5.94-4.44 7.86-8.58 7.86-3.84 0-6.84-1.02-9.18-3.72zm20.7-16.86a9.4 9.4 0 01-7.44 3.9c-4.98 0-8.16-3.72-8.16-9.3s3.18-9.3 8.16-9.3a9.4 9.4 0 017.44 3.9zM770.61 97h6.3V77.26c1.26-2.04 4.8-3.84 7.44-3.84a9.287 9.287 0 011.98.18v-6.24a12.376 12.376 0 00-9.42 4.92v-4.26h-6.3zm19.02-14.52c0 9.18 6.48 15.24 15.18 15.24a16.892 16.892 0 0011.76-4.2l-2.88-4.14a12.266 12.266 0 01-8.22 3.18c-5.46 0-8.76-3.6-9.24-7.98h22.38v-1.5c0-9.12-5.58-15.78-14.28-15.78-8.58 0-14.7 6.78-14.7 15.18zm14.7-10.02a7.751 7.751 0 018.16 7.68h-16.32c.3-3.54 2.76-7.68 8.16-7.68zM845.25 97h6.3V56.98h-6.3v15.06a11.626 11.626 0 00-9.3-4.74c-7.5 0-12.9 5.88-12.9 15.24 0 9.54 5.46 15.18 12.9 15.18a11.736 11.736 0 009.3-4.68zm0-8.7a9.469 9.469 0 01-7.5 3.84c-4.98 0-8.16-4.02-8.16-9.6 0-5.64 3.18-9.66 8.16-9.66a9.521 9.521 0 017.5 3.9zm34.02 8.7h6.3V68.02h-6.3v20.34a9.639 9.639 0 01-7.44 3.78c-3.54 0-5.82-1.38-5.82-5.88V68.02h-6.3v20.52c0 5.94 3.06 9.18 9.3 9.18a13.89 13.89 0 0010.26-4.56zm12.66-14.52c0 8.82 6.18 15.24 15 15.24 5.64 0 9.06-2.4 11.1-5.16l-4.14-3.84a7.878 7.878 0 01-6.66 3.42c-5.28 0-8.76-4.02-8.76-9.66s3.48-9.6 8.76-9.6a7.735 7.735 0 016.66 3.42l4.14-3.84c-2.04-2.76-5.46-5.16-11.1-5.16-8.82 0-15 6.42-15 15.18zm29.82 0c0 9.18 6.48 15.24 15.18 15.24a16.892 16.892 0 0011.76-4.2l-2.88-4.14a12.266 12.266 0 01-8.22 3.18c-5.46 0-8.76-3.6-9.24-7.98h22.38v-1.5c0-9.12-5.58-15.78-14.28-15.78-8.58 0-14.7 6.78-14.7 15.18zm14.7-10.02a7.751 7.751 0 018.16 7.68h-16.32c.3-3.54 2.76-7.68 8.16-7.68zm18 20.76c3 2.94 7.5 4.5 12.42 4.5 7.8 0 12.06-3.9 12.06-9 0-6.84-6.18-8.28-11.22-9.36-3.42-.78-6.3-1.56-6.3-3.78 0-2.04 2.1-3.24 5.4-3.24a11.687 11.687 0 018.58 3.48l2.64-4.44a16.567 16.567 0 00-11.28-4.08c-7.32 0-11.4 4.08-11.4 8.82 0 6.48 5.94 7.8 10.92 8.88 3.54.78 6.6 1.68 6.6 4.2 0 2.16-1.92 3.54-5.7 3.54a14.958 14.958 0 01-9.84-4.08zm-653.16 79.26c0 9.18 6.48 15.24 15.18 15.24a16.892 16.892 0 0011.76-4.2l-2.88-4.14a12.265 12.265 0 01-8.22 3.18c-5.46 0-8.76-3.6-9.24-7.98h22.38v-1.5c0-9.12-5.58-15.78-14.28-15.78-8.58 0-14.7 6.78-14.7 15.18zm14.7-10.02a7.751 7.751 0 018.16 7.68h-16.32c.3-3.54 2.76-7.68 8.16-7.68zM372.03 187h6.3v-20.94c0-5.88-3-8.76-8.34-8.76a12.291 12.291 0 00-9.84 5.34c-.96-3.18-3.6-5.34-7.92-5.34a12.516 12.516 0 00-9.42 4.68v-3.96h-6.3V187h6.3v-20.22c1.32-1.92 3.9-3.9 6.66-3.9 3.42 0 4.8 2.1 4.8 5.22V187h6.3v-20.28a8.793 8.793 0 016.72-3.84c3.36 0 4.74 2.1 4.74 5.22zm20.76 11.04v-15.06a11.379 11.379 0 009.3 4.74c7.5 0 12.84-5.7 12.84-15.24s-5.34-15.18-12.84-15.18a11.564 11.564 0 00-9.3 4.68v-3.96h-6.3v40.02zm15.6-25.56c0 5.64-3.18 9.66-8.16 9.66a9.576 9.576 0 01-7.44-3.9v-11.46a9.4 9.4 0 017.44-3.9c4.98 0 8.16 4.02 8.16 9.6zm12.9 14.52h6.3v-40.02h-6.3zm27.54.72c9.3 0 14.94-6.9 14.94-15.24 0-8.28-5.64-15.18-14.94-15.18-9.18 0-14.88 6.9-14.88 15.18 0 8.34 5.7 15.24 14.88 15.24zm0-5.58c-5.34 0-8.34-4.5-8.34-9.66 0-5.1 3-9.6 8.34-9.6 5.4 0 8.4 4.5 8.4 9.6 0 5.16-3 9.66-8.4 9.66zm21 10.56l-.96 5.64a17.817 17.817 0 003.54.42c4.5-.06 7.98-1.62 9.96-6.54l13.98-34.2h-6.78l-8.46 21.72-8.46-21.72h-6.72l11.88 29.34-1.44 3.3c-.84 1.92-2.16 2.52-4.14 2.52a6.584 6.584 0 01-2.4-.48zm28.68-20.22c0 9.18 6.48 15.24 15.18 15.24a16.892 16.892 0 0011.76-4.2l-2.88-4.14a12.265 12.265 0 01-8.22 3.18c-5.46 0-8.76-3.6-9.24-7.98h22.38v-1.5c0-9.12-5.58-15.78-14.28-15.78-8.58 0-14.7 6.78-14.7 15.18zm14.7-10.02a7.751 7.751 0 018.16 7.68h-16.32c.3-3.54 2.76-7.68 8.16-7.68zm18.72 10.02c0 9.18 6.48 15.24 15.18 15.24a16.892 16.892 0 0011.76-4.2l-2.88-4.14a12.266 12.266 0 01-8.22 3.18c-5.46 0-8.76-3.6-9.24-7.98h22.38v-1.5c0-9.12-5.58-15.78-14.28-15.78-8.58 0-14.7 6.78-14.7 15.18zm14.7-10.02a7.751 7.751 0 018.16 7.68h-16.32c.3-3.54 2.76-7.68 8.16-7.68zm44.64 25.26c2.94 0 4.8-.78 5.94-1.86l-1.5-4.74a4.067 4.067 0 01-2.82 1.02c-1.8 0-2.76-1.44-2.76-3.42v-15.18h5.88v-5.52h-5.88v-7.92h-6.3v7.92h-4.8v5.52h4.8v16.74c0 4.8 2.58 7.44 7.44 7.44zm30-.72h6.3v-28.98h-6.3v20.34a9.639 9.639 0 01-7.44 3.78c-3.54 0-5.82-1.38-5.82-5.88v-18.24h-6.3v20.52c0 5.94 3.06 9.18 9.3 9.18a13.89 13.89 0 0010.26-4.56zm14.46 0h6.3v-19.74c1.26-2.04 4.8-3.84 7.44-3.84a9.287 9.287 0 011.98.18v-6.24a12.376 12.376 0 00-9.42 4.92v-4.26h-6.3zm40.38 0h6.3v-20.4c0-5.94-3.12-9.3-9.36-9.3a13.711 13.711 0 00-10.2 4.68v-3.96h-6.3V187h6.3v-20.22a9.54 9.54 0 017.44-3.9c3.54 0 5.82 1.5 5.82 6zm27.54.72c9.3 0 14.94-6.9 14.94-15.24 0-8.28-5.64-15.18-14.94-15.18-9.18 0-14.88 6.9-14.88 15.18 0 8.34 5.7 15.24 14.88 15.24zm0-5.58c-5.34 0-8.34-4.5-8.34-9.66 0-5.1 3-9.6 8.34-9.6 5.4 0 8.4 4.5 8.4 9.6 0 5.16-3 9.66-8.4 9.66zm28.92 4.86h6.78l11.82-28.98h-6.78l-8.46 21.72-8.46-21.72h-6.72zm20.76-14.52c0 9.18 6.48 15.24 15.18 15.24a16.892 16.892 0 0011.76-4.2l-2.88-4.14a12.265 12.265 0 01-8.22 3.18c-5.46 0-8.76-3.6-9.24-7.98h22.38v-1.5c0-9.12-5.58-15.78-14.28-15.78-8.58 0-14.7 6.78-14.7 15.18zm14.7-10.02a7.751 7.751 0 018.16 7.68h-16.32c.3-3.54 2.76-7.68 8.16-7.68zM788.55 187h6.3v-19.74c1.26-2.04 4.8-3.84 7.44-3.84a9.287 9.287 0 011.98.18v-6.24a12.376 12.376 0 00-9.42 4.92v-4.26h-6.3zm36.24 0h6.3v-3.96a11.649 11.649 0 009.3 4.68c7.38 0 12.84-5.64 12.84-15.18 0-9.36-5.4-15.24-12.84-15.24a11.459 11.459 0 00-9.3 4.74v-15.06h-6.3zm6.3-8.7v-11.46a9.457 9.457 0 017.44-3.96c5.04 0 8.22 4.02 8.22 9.66s-3.18 9.6-8.22 9.6a9.352 9.352 0 01-7.44-3.84zm28.26 14.4l-.96 5.64a17.817 17.817 0 003.54.42c4.5-.06 7.98-1.62 9.96-6.54l13.98-34.2h-6.78l-8.46 21.72-8.46-21.72h-6.72l11.88 29.34-1.44 3.3c-.84 1.92-2.16 2.52-4.14 2.52a6.584 6.584 0 01-2.4-.48zm46.26-9.48a15.727 15.727 0 0011.46 4.44c11.58 0 17.64-9.12 17.64-20.64 0-11.16-4.74-20.7-16.5-20.7-8.94 0-14.76 6.06-14.76 13.44 0 8.52 6.24 12.96 13.44 12.96a13.876 13.876 0 0010.74-5.64v1.2c0 6.54-3.3 13.14-10.56 13.14a10.509 10.509 0 01-8.22-3.48zm21.9-21.24a10.818 10.818 0 01-8.76 4.68c-4.32 0-8.16-2.22-8.16-7.14 0-3.18 2.76-6.96 7.98-6.96 6.18 0 8.58 5.1 8.94 9.42zm11.4-5.58a9.5 9.5 0 009.9 9.84c6 0 10.02-4.26 10.02-9.84a9.674 9.674 0 00-10.02-10.02c-5.94 0-9.9 4.38-9.9 10.02zm6.06 30.6h3.96l25.62-40.02h-4.02zm9.18-30.6c0 3.42-2.22 5.88-5.34 5.88-3.06 0-5.28-2.46-5.28-5.88 0-3.6 2.22-6 5.28-6 3.12 0 5.34 2.4 5.34 6zm6.3 21.48a9.93 9.93 0 0019.86 0 9.66 9.66 0 00-9.96-10.02c-5.94 0-9.9 4.38-9.9 10.02zm15.24 0c0 3.48-2.22 5.88-5.34 5.88s-5.28-2.4-5.28-5.88c0-3.6 2.16-6 5.28-6s5.34 2.4 5.34 6z" data-name="Path 242"/>
    </g>
  </g>
</svg>
