<svg xmlns="http://www.w3.org/2000/svg" viewBox="0 0 1280 800">
  <defs>
    <clipPath id="a">
      <path d="M0 0h1280v800H0z"/>
    </clipPath>
  </defs>
  <g clip-path="url(#a)" data-name="2019-05-29-accessible-elearning-programs-01">
    <path fill="#42b5b8" d="M0 0h1280v800H0z"/>
    <g data-name="Group 1238">
      <g data-name="Group 1237">
        <g data-name="Group 836">
          <g data-name="Group 835" opacity=".8">
            <path fill="#1d877d" d="M1287.105 724.555V332.823l-169.6-169.6a27.07 27.07 0 00-6.144-6.144l-.082-.081-.015.009a26.958 26.958 0 00-1.886-1.222c-.486-.29-.977-.566-1.481-.825-.158-.081-.321-.153-.48-.23a26.507 26.507 0 00-2.65-1.117c-.271-.1-.535-.208-.81-.3-.357-.115-.722-.209-1.085-.309a26.066 26.066 0 00-1.3-.335q-.5-.111-1-.2c-.517-.1-1.038-.173-1.567-.239-.28-.034-.556-.076-.839-.1a26.846 26.846 0 00-2.485-.125H707.584a26.9 26.9 0 00-26.9 26.9v279.559a4.882 4.882 0 00-1.382 1.522l-51.13 104.87a.031.031 0 01-.01.026l-.022.024h.014a2.018 2.018 0 00-.153.755v3.746a2 2 0 00.094.474 1.807 1.807 0 00-.094.463v3.758a1.873 1.873 0 00.13.654c.026.07.048.139.081.208a2.02 2.02 0 00.264.393 1.952 1.952 0 00.316.3l-.014.019L793.098 740h494.007z" data-name="Path 268"/>
          </g>
        </g>
        <g data-name="Group 1236">
          <g data-name="Group 1235">
            <g data-name="Group 1234">
              <g data-name="Group 1233">
                <g data-name="Group 1232">
                  <g data-name="Group 1231">
                    <g data-name="Group 1230">
                      <g data-name="Group 1229">
                        <g data-name="Group 1221">
                          <g data-name="Group 841">
                            <g data-name="Group 840">
                              <g data-name="Group 839">
                                <g data-name="Group 838">
                                  <g data-name="Group 837">
                                    <path fill="#3a3e44" d="M1122.577 461.541H680.685V178.927a26.9 26.9 0 0126.9-26.9h388.089a26.906 26.906 0 0126.9 26.9z" data-name="Path 269"/>
                                  </g>
                                </g>
                              </g>
                            </g>
                          </g>
                          <g data-name="Group 845">
                            <g data-name="Group 844">
                              <g data-name="Group 843">
                                <g data-name="Group 842">
                                  <path fill="#fff" d="M702.673 172.993h397.921v274.006H702.673z" data-name="Rectangle 69"/>
                                </g>
                              </g>
                            </g>
                          </g>
                          <g data-name="Group 849">
                            <g data-name="Group 848">
                              <g data-name="Group 847">
                                <g data-name="Group 846">
                                  <path fill="#fff" d="M1173.802 566.17h.007l-.007-.026s-.022-.012-.022-.031l-51.14-101.44c-1.512-2.881-8.648-5.2-15.95-5.2H695.269c-7.311 0-14.445 2.318-15.965 5.2l-51.132 101.441a.03.03 0 01-.01.026l-.022.031h.014a1.9 1.9 0 00-.153.741v7.191a2 2 0 002 2h541.96a1.992 1.992 0 001.992-2v-7.191a2.023 2.023 0 00-.151-.742z" data-name="Path 270"/>
                                </g>
                              </g>
                            </g>
                          </g>
                          <g data-name="Group 853">
                            <g data-name="Group 852">
                              <g data-name="Group 851">
                                <g data-name="Group 850">
                                  <path fill="#e2e2e1" d="M1173.802 564.906h.007l-.007-.019s-.022-.012-.022-.031l-51.139-104.87c-1.512-2.871-8.648-5.2-15.95-5.2H695.269c-7.311 0-14.445 2.332-15.965 5.2l-51.132 104.87a.031.031 0 01-.01.026l-.022.024h.014a2.018 2.018 0 00-.153.755v3.746a2 2 0 002 2.008h541.96a2 2 0 001.992-2.008v-3.746a2.156 2.156 0 00-.151-.755z" data-name="Path 271"/>
                                </g>
                              </g>
                            </g>
                          </g>
                          <g data-name="Group 1220">
                            <g data-name="Group 857">
                              <g data-name="Group 856">
                                <g data-name="Group 855">
                                  <g data-name="Group 854">
                                    <path fill="silver" d="M1116.104 530.542c.39.856-1.388 1.546-3.937 1.546H689.812c-2.569 0-4.328-.69-3.957-1.546l26.439-65.8c.381-.849 2.5-1.553 4.728-1.553h367.927c2.221 0 4.337.7 4.724 1.553z" data-name="Path 272"/>
                                  </g>
                                </g>
                              </g>
                            </g>
                            <g data-name="Group 861">
                              <g data-name="Group 860">
                                <g data-name="Group 859">
                                  <g data-name="Group 858">
                                    <path fill="#a0a09f" d="M1084.949 463.189H717.021c-2.231 0-4.347.7-4.728 1.553l-1.023 2.32c.367-.849 2.5-1.556 4.743-1.556h369.939c2.224 0 4.357.707 4.74 1.556l-1.019-2.32c-.388-.846-2.504-1.553-4.724-1.553z" data-name="Path 273"/>
                                  </g>
                                </g>
                              </g>
                            </g>
                            <g data-name="Group 865">
                              <g data-name="Group 864">
                                <g data-name="Group 863">
                                  <g data-name="Group 862">
                                    <path fill="#a0a09f" d="M968.185 568.931H833.776l-.329 2.484h135.058z" data-name="Path 274"/>
                                  </g>
                                </g>
                              </g>
                            </g>
                            <g data-name="Group 882">
                              <g data-name="Group 869">
                                <g data-name="Group 868">
                                  <g data-name="Group 867">
                                    <g data-name="Group 866">
                                      <path fill="silver" d="M967.688 561.902c.117.824-1.889 1.476-4.5 1.476H838.802c-2.634 0-4.658-.652-4.544-1.476l3.527-23.369c.108-.827 2.2-1.486 4.666-1.486h117.081c2.459 0 4.532.659 4.656 1.486z" data-name="Path 275"/>
                                    </g>
                                  </g>
                                </g>
                              </g>
                              <g data-name="Group 873">
                                <g data-name="Group 872">
                                  <g data-name="Group 871">
                                    <g data-name="Group 870">
                                      <path fill="#a0a09f" d="M841.927 538.799h118.427a9.2 9.2 0 013.975.733l-.146-1c-.124-.827-2.2-1.486-4.656-1.486H842.45c-2.466 0-4.558.659-4.666 1.486l-.187 1.217a8.015 8.015 0 014.33-.95z" data-name="Path 276"/>
                                    </g>
                                  </g>
                                </g>
                              </g>
                              <g data-name="Group 877">
                                <g data-name="Group 876">
                                  <g data-name="Group 875">
                                    <g data-name="Group 874">
                                      <path fill="#a0a09f" d="M959.527 537.047H842.451c-2.466 0-4.558.659-4.666 1.486l-.2 1.277c.117-.82 2.222-1.479 4.694-1.479h117.428c2.459 0 4.539.659 4.663 1.479l-.187-1.277c-.123-.825-2.197-1.486-4.656-1.486z" data-name="Path 277"/>
                                    </g>
                                  </g>
                                </g>
                              </g>
                              <g data-name="Group 881">
                                <g data-name="Group 880" opacity=".22">
                                  <g data-name="Group 879">
                                    <g data-name="Group 878">
                                      <path fill="#fff" d="M919.578 563.378h43.605c2.614 0 4.62-.652 4.5-1.476l-3.5-23.369c-.124-.827-2.2-1.486-4.656-1.486h-95.658z" data-name="Path 278"/>
                                    </g>
                                  </g>
                                </g>
                              </g>
                            </g>
                            <g data-name="Group 886">
                              <g data-name="Group 885">
                                <g data-name="Group 884">
                                  <g data-name="Group 883">
                                    <path fill="#3a3b3d" d="M1062.968 458.949H738.996l1.6-4.167h320.771z" data-name="Path 279"/>
                                  </g>
                                </g>
                              </g>
                            </g>
                            <g data-name="Group 1219">
                              <g data-name="Group 891">
                                <g data-name="Group 890">
                                  <g data-name="Group 889">
                                    <g data-name="Group 888">
                                      <g data-name="Group 887">
                                        <path fill="#3b3d41" d="M749.47 494.472c-.134.408-1.16.735-2.3.735h-32.5c-1.131 0-1.91-.326-1.737-.735l2.7-6.441c.173-.417 1.213-.741 2.322-.741h31.929c1.115 0 1.9.324 1.768.741z" data-name="Path 280"/>
                                      </g>
                                    </g>
                                  </g>
                                </g>
                              </g>
                              <g data-name="Group 896">
                                <g data-name="Group 895">
                                  <g data-name="Group 894">
                                    <g data-name="Group 893">
                                      <g data-name="Group 892">
                                        <path fill="#3b3d41" d="M752.084 505.549c-.127.4-1.193.736-2.349.736h-39.121c-1.15 0-1.944-.333-1.786-.736l2.706-6.442c.161-.405 1.229-.738 2.373-.738h38.428c1.16 0 1.968.333 1.835.738z" data-name="Path 281"/>
                                      </g>
                                    </g>
                                  </g>
                                </g>
                              </g>
                              <g data-name="Group 901">
                                <g data-name="Group 900">
                                  <g data-name="Group 899">
                                    <g data-name="Group 898">
                                      <g data-name="Group 897">
                                        <path fill="#3b3d41" d="M763.337 516.559c-.108.395-1.176.716-2.387.716h-54.4c-1.169 0-1.987-.321-1.829-.716l2.7-6.456c.166-.4 1.248-.733 2.4-.733h53.49c1.188 0 2.047.329 1.932.733z" data-name="Path 282"/>
                                      </g>
                                    </g>
                                  </g>
                                </g>
                              </g>
                              <g data-name="Group 906">
                                <g data-name="Group 905">
                                  <g data-name="Group 904">
                                    <g data-name="Group 903">
                                      <g data-name="Group 902">
                                        <path fill="#3b3d41" d="M1093.191 505.549c.161.4-.644.736-1.823.736h-41.727c-1.146 0-2.214-.333-2.341-.736l-2.058-6.442c-.129-.405.7-.738 1.845-.738h41c1.157 0 2.217.333 2.392.738z" data-name="Path 283"/>
                                      </g>
                                    </g>
                                  </g>
                                </g>
                              </g>
                              <g data-name="Group 911">
                                <g data-name="Group 910">
                                  <g data-name="Group 909">
                                    <g data-name="Group 908">
                                      <g data-name="Group 907">
                                        <path fill="#3b3d41" d="M1097.2 516.559c.17.395-.669.716-1.86.716h-57.412c-1.182 0-2.228-.321-2.351-.716l-1.848-6.456c-.117-.4.745-.733 1.89-.733h56.44c1.176 0 2.267.329 2.444.733z" data-name="Path 284"/>
                                      </g>
                                    </g>
                                  </g>
                                </g>
                              </g>
                              <g data-name="Group 916">
                                <g data-name="Group 915">
                                  <g data-name="Group 914">
                                    <g data-name="Group 913">
                                      <g data-name="Group 912">
                                        <path fill="#3b3d41" d="M1020.702 527.637c.093.407-.8.723-2.015.723h-19.306c-1.22 0-2.262-.316-2.344-.723l-1.294-6.454c-.089-.407.8-.738 2.006-.738h18.989c1.2 0 2.253.331 2.343.738z" data-name="Path 285"/>
                                      </g>
                                    </g>
                                  </g>
                                </g>
                              </g>
                              <g data-name="Group 937">
                                <g data-name="Group 921">
                                  <g data-name="Group 920">
                                    <g data-name="Group 919">
                                      <g data-name="Group 918">
                                        <g data-name="Group 917">
                                          <path fill="#3b3d41" d="M724.313 527.637c-.151.407-1.277.723-2.49.723h-19.31c-1.217 0-2.053-.316-1.884-.723l2.71-6.454c.154-.407 1.267-.738 2.442-.738h19.021c1.191 0 2.044.331 1.884.738z" data-name="Path 286"/>
                                        </g>
                                      </g>
                                    </g>
                                  </g>
                                </g>
                                <g data-name="Group 926">
                                  <g data-name="Group 925">
                                    <g data-name="Group 924">
                                      <g data-name="Group 923">
                                        <g data-name="Group 922">
                                          <path fill="#3b3d41" d="M754.22 527.637c-.12.407-1.2.723-2.43.723h-19.313c-1.225 0-2.082-.316-1.948-.723l2.3-6.454c.156-.407 1.237-.738 2.447-.738h18.992c1.2 0 2.07.331 1.939.738z" data-name="Path 287"/>
                                        </g>
                                      </g>
                                    </g>
                                  </g>
                                </g>
                                <g data-name="Group 931">
                                  <g data-name="Group 930">
                                    <g data-name="Group 929">
                                      <g data-name="Group 928">
                                        <g data-name="Group 927">
                                          <path fill="#3b3d41" d="M784.357 527.637c-.088.407-1.15.723-2.367.723h-19.3c-1.229 0-2.1-.316-1.994-.723l1.893-6.454c.113-.407 1.182-.738 2.384-.738h19c1.182 0 2.07.331 1.968.738z" data-name="Path 288"/>
                                        </g>
                                      </g>
                                    </g>
                                  </g>
                                </g>
                                <g data-name="Group 936">
                                  <g data-name="Group 935">
                                    <g data-name="Group 934">
                                      <g data-name="Group 933">
                                        <g data-name="Group 932">
                                          <path fill="#3b3d41" d="M821.62 527.637c-.07.407-1.107.723-2.313.723H792.88c-1.236 0-2.13-.316-2.04-.723l1.479-6.454c.1-.41 1.153-.738 2.355-.738h25.97c1.2 0 2.118.328 2.047.738z" data-name="Path 289"/>
                                        </g>
                                      </g>
                                    </g>
                                  </g>
                                </g>
                              </g>
                              <g data-name="Group 942">
                                <g data-name="Group 941">
                                  <g data-name="Group 940">
                                    <g data-name="Group 939">
                                      <g data-name="Group 938">
                                        <path fill="#3b3d41" d="M953.313 527.593c.041.419-.964.767-2.246.767H830.274c-1.258 0-2.245-.348-2.181-.767l.98-6.382c.063-.417 1.131-.765 2.373-.765h118.8c1.256 0 2.317.348 2.354.765z" data-name="Path 290"/>
                                      </g>
                                    </g>
                                  </g>
                                </g>
                              </g>
                              <g data-name="Group 947">
                                <g data-name="Group 946">
                                  <g data-name="Group 945">
                                    <g data-name="Group 944">
                                      <g data-name="Group 943">
                                        <path fill="#3b3d41" d="M990.554 527.637c.074.407-.849.723-2.056.723h-26.445c-1.2 0-2.234-.316-2.279-.723l-.795-6.457c-.046-.41.882-.738 2.061-.738h26c1.193 0 2.219.328 2.291.738z" data-name="Path 291"/>
                                      </g>
                                    </g>
                                  </g>
                                </g>
                              </g>
                              <g data-name="Group 1002">
                                <g data-name="Group 996">
                                  <g data-name="Group 951">
                                    <g data-name="Group 950">
                                      <g data-name="Group 949">
                                        <g data-name="Group 948">
                                          <path fill="#3b3d41" d="M738.764 483.392c-.153.4-1.182.731-2.291.731h-17.747c-1.112 0-1.864-.331-1.692-.731l2.7-6.437c.161-.415 1.186-.738 2.265-.738h17.431c1.1 0 1.865.323 1.723.738z" data-name="Path 292"/>
                                        </g>
                                      </g>
                                    </g>
                                  </g>
                                  <g data-name="Group 955">
                                    <g data-name="Group 954">
                                      <g data-name="Group 953">
                                        <g data-name="Group 952">
                                          <path fill="#3b3d41" d="M766.445 483.392c-.124.4-1.134.731-2.246.731h-17.746c-1.119 0-1.893-.331-1.756-.731l2.294-6.437c.151-.415 1.138-.738 2.257-.738h17.405c1.1 0 1.886.323 1.768.738z" data-name="Path 293"/>
                                        </g>
                                      </g>
                                    </g>
                                  </g>
                                  <g data-name="Group 959">
                                    <g data-name="Group 958">
                                      <g data-name="Group 957">
                                        <g data-name="Group 956">
                                          <path fill="#3b3d41" d="M794.127 483.392c-.1.4-1.1.731-2.19.731h-17.74c-1.115 0-1.936-.331-1.812-.731l1.891-6.437c.115-.415 1.119-.738 2.2-.738h17.414c1.086 0 1.917.323 1.809.738z" data-name="Path 294"/>
                                        </g>
                                      </g>
                                    </g>
                                  </g>
                                  <g data-name="Group 963">
                                    <g data-name="Group 962">
                                      <g data-name="Group 961">
                                        <g data-name="Group 960">
                                          <path fill="#3b3d41" d="M821.819 483.392c-.082.4-1.049.731-2.174.731h-17.733c-1.114 0-1.943-.331-1.852-.731l1.481-6.437c.094-.415 1.067-.738 2.164-.738h17.4c1.112 0 1.936.323 1.865.738z" data-name="Path 295"/>
                                        </g>
                                      </g>
                                    </g>
                                  </g>
                                  <g data-name="Group 967">
                                    <g data-name="Group 966">
                                      <g data-name="Group 965">
                                        <g data-name="Group 964">
                                          <path fill="#3b3d41" d="M849.5 483.392c-.057.4-1 .731-2.109.731h-17.742c-1.122 0-1.98-.331-1.917-.731l1.071-6.437c.07-.415 1.014-.738 2.133-.738h17.407c1.1 0 1.95.323 1.912.738z" data-name="Path 296"/>
                                        </g>
                                      </g>
                                    </g>
                                  </g>
                                  <g data-name="Group 971">
                                    <g data-name="Group 970">
                                      <g data-name="Group 969">
                                        <g data-name="Group 968">
                                          <path fill="#3b3d41" d="M877.156 483.392c-.017.4-.923.731-2.047.731h-17.746c-1.11 0-1.994-.331-1.946-.731l.662-6.437c.05-.415.985-.738 2.071-.738h17.417c1.1 0 1.956.323 1.941.738z" data-name="Path 297"/>
                                        </g>
                                      </g>
                                    </g>
                                  </g>
                                  <g data-name="Group 975">
                                    <g data-name="Group 974">
                                      <g data-name="Group 973">
                                        <g data-name="Group 972">
                                          <path fill="#3b3d41" d="M904.85 483.392c0 .4-.892.731-2.03.731h-17.719c-1.119 0-2.025-.331-2-.731l.263-6.437c.019-.415.913-.738 2.016-.738h17.417c1.1 0 1.987.323 1.987.738z" data-name="Path 298"/>
                                        </g>
                                      </g>
                                    </g>
                                  </g>
                                  <g data-name="Group 979">
                                    <g data-name="Group 978">
                                      <g data-name="Group 977">
                                        <g data-name="Group 976">
                                          <path fill="#3b3d41" d="M932.535 483.392c.033.4-.865.731-1.98.731h-17.74c-1.112 0-2.032-.331-2.037-.731l-.149-6.437c0-.415.874-.738 1.977-.738h17.416c1.1 0 2.006.323 2.044.738z" data-name="Path 299"/>
                                        </g>
                                      </g>
                                    </g>
                                  </g>
                                  <g data-name="Group 983">
                                    <g data-name="Group 982">
                                      <g data-name="Group 981">
                                        <g data-name="Group 980">
                                          <path fill="#3b3d41" d="M960.205 483.392c.051.4-.812.731-1.917.731h-17.74c-1.114 0-2.047-.331-2.085-.731l-.546-6.437c-.033-.415.824-.738 1.924-.738h17.41c1.093 0 2.013.323 2.08.738z" data-name="Path 300"/>
                                        </g>
                                      </g>
                                    </g>
                                  </g>
                                  <g data-name="Group 987">
                                    <g data-name="Group 986">
                                      <g data-name="Group 985">
                                        <g data-name="Group 984">
                                          <path fill="#3b3d41" d="M987.886 483.392c.086.4-.767.731-1.879.731h-17.728c-1.121 0-2.075-.331-2.142-.731l-.961-6.437c-.05-.415.786-.738 1.9-.738h17.4c1.095 0 2.059.323 2.145.738z" data-name="Path 301"/>
                                        </g>
                                      </g>
                                    </g>
                                  </g>
                                  <g data-name="Group 991">
                                    <g data-name="Group 990">
                                      <g data-name="Group 989">
                                        <g data-name="Group 988">
                                          <path fill="#3b3d41" d="M1015.569 483.392c.118.4-.712.731-1.828.731h-17.742c-1.112 0-2.073-.331-2.155-.731l-1.366-6.437c-.094-.415.714-.738 1.8-.738h17.436c1.09 0 2.059.323 2.167.738z" data-name="Path 302"/>
                                        </g>
                                      </g>
                                    </g>
                                  </g>
                                  <g data-name="Group 995">
                                    <g data-name="Group 994">
                                      <g data-name="Group 993">
                                        <g data-name="Group 992">
                                          <path fill="#3b3d41" d="M1043.239 483.392c.13.4-.656.731-1.756.731h-17.752c-1.122 0-2.106-.331-2.214-.731l-1.776-6.437c-.108-.415.681-.738 1.783-.738h17.424c1.081 0 2.073.323 2.2.738z" data-name="Path 303"/>
                                        </g>
                                      </g>
                                    </g>
                                  </g>
                                </g>
                                <g data-name="Group 1001">
                                  <g data-name="Group 1000">
                                    <g data-name="Group 999">
                                      <g data-name="Group 998">
                                        <g data-name="Group 997">
                                          <path fill="#3b3d41" d="M1084.909 483.392c.163.4-.618.731-1.73.731h-32.82c-1.117 0-2.128-.331-2.269-.731l-2.157-6.437c-.142-.415.637-.738 1.737-.738h32.222c1.1 0 2.13.323 2.3.738z" data-name="Path 304"/>
                                        </g>
                                      </g>
                                    </g>
                                  </g>
                                </g>
                              </g>
                              <g data-name="Group 1007">
                                <g data-name="Group 1006">
                                  <g data-name="Group 1005">
                                    <g data-name="Group 1004">
                                      <g data-name="Group 1003">
                                        <path fill="#3b3d41" d="M1047.675 527.509c.136.414-.8.764-2.073.764h-16.28c-1.261 0-2.387-.35-2.494-.764l-.819-3.141c-.117-.432.812-.767 2.066-.767h16.121c1.246 0 2.377.335 2.512.767z" data-name="Path 305"/>
                                      </g>
                                    </g>
                                  </g>
                                </g>
                              </g>
                              <g data-name="Group 1012">
                                <g data-name="Group 1011">
                                  <g data-name="Group 1010">
                                    <g data-name="Group 1009">
                                      <g data-name="Group 1008">
                                        <path fill="#3b3d41" d="M1071.553 520.445h-19.7c-1.248 0-2.161.348-2.027.765l1 3.158.844 2.687.151.453c.124.414 1.272.764 2.552.764h20.034c1.268 0 2.178-.35 2.015-.764l-.161-.453-1-2.687-1.145-3.158c-.16-.417-1.301-.765-2.563-.765z" data-name="Path 306"/>
                                      </g>
                                    </g>
                                  </g>
                                </g>
                              </g>
                              <g data-name="Group 1017">
                                <g data-name="Group 1016">
                                  <g data-name="Group 1015">
                                    <g data-name="Group 1014">
                                      <g data-name="Group 1013">
                                        <path fill="#3b3d41" d="M1101.333 527.509c.184.414-.692.764-1.982.764h-16.265c-1.287 0-2.432-.35-2.605-.764l-1.17-3.141c-.161-.432.729-.767 1.991-.767h16.115c1.261 0 2.418.335 2.6.767z" data-name="Path 307"/>
                                      </g>
                                    </g>
                                  </g>
                                </g>
                              </g>
                              <g data-name="Group 1022">
                                <g data-name="Group 1021">
                                  <g data-name="Group 1020">
                                    <g data-name="Group 1019">
                                      <g data-name="Group 1018">
                                        <path fill="#3b3d41" d="M724.313 527.637c-.151.407-1.277.723-2.49.723h-19.31c-1.217 0-2.053-.316-1.884-.723l2.71-6.454c.154-.407 1.267-.738 2.442-.738h19.021c1.191 0 2.044.331 1.884.738z" data-name="Path 308"/>
                                      </g>
                                    </g>
                                  </g>
                                </g>
                              </g>
                              <g data-name="Group 1068">
                                <g data-name="Group 1027">
                                  <g data-name="Group 1026">
                                    <g data-name="Group 1025">
                                      <g data-name="Group 1024">
                                        <g data-name="Group 1023">
                                          <path fill="#3b3d41" d="M792.87 516.559c-.11.395-1.138.716-2.318.716h-18.948c-1.188 0-2.059-.321-1.951-.716l1.826-6.456c.1-.4 1.138-.733 2.31-.733h18.618c1.165 0 2.04.329 1.944.733z" data-name="Path 309"/>
                                        </g>
                                      </g>
                                    </g>
                                  </g>
                                </g>
                                <g data-name="Group 1032">
                                  <g data-name="Group 1031">
                                    <g data-name="Group 1030">
                                      <g data-name="Group 1029">
                                        <g data-name="Group 1028">
                                          <path fill="#3b3d41" d="M822.401 516.559c-.07.395-1.093.716-2.286.716h-18.929c-1.186 0-2.077-.321-1.987-.716l1.4-6.456c.086-.4 1.107-.733 2.286-.733h18.6c1.16 0 2.063.329 2 .733z" data-name="Path 310"/>
                                        </g>
                                      </g>
                                    </g>
                                  </g>
                                </g>
                                <g data-name="Group 1037">
                                  <g data-name="Group 1036">
                                    <g data-name="Group 1035">
                                      <g data-name="Group 1034">
                                        <g data-name="Group 1033">
                                          <path fill="#3b3d41" d="M851.928 516.559c-.045.395-1.043.716-2.25.716h-18.9c-1.179 0-2.109-.321-2.04-.716l1-6.456c.057-.4 1.064-.733 2.231-.733h18.584c1.184 0 2.09.329 2.046.733z" data-name="Path 311"/>
                                        </g>
                                      </g>
                                    </g>
                                  </g>
                                </g>
                                <g data-name="Group 1042">
                                  <g data-name="Group 1041">
                                    <g data-name="Group 1040">
                                      <g data-name="Group 1039">
                                        <g data-name="Group 1038">
                                          <path fill="#3b3d41" d="M881.467 516.559c-.012.395-1 .716-2.186.716h-18.919c-1.208 0-2.125-.321-2.089-.716l.585-6.456c.051-.4 1-.733 2.188-.733h18.6c1.153 0 2.1.329 2.078.733z" data-name="Path 312"/>
                                        </g>
                                      </g>
                                    </g>
                                  </g>
                                </g>
                                <g data-name="Group 1047">
                                  <g data-name="Group 1046">
                                    <g data-name="Group 1045">
                                      <g data-name="Group 1044">
                                        <g data-name="Group 1043">
                                          <path fill="#3b3d41" d="M910.986 516.559c.026.395-.934.716-2.135.716h-18.91c-1.2 0-2.149-.321-2.142-.716l.173-6.456c.015-.4.976-.733 2.155-.733h18.589c1.189 0 2.13.329 2.142.733z" data-name="Path 313"/>
                                        </g>
                                      </g>
                                    </g>
                                  </g>
                                </g>
                                <g data-name="Group 1052">
                                  <g data-name="Group 1051">
                                    <g data-name="Group 1050">
                                      <g data-name="Group 1049">
                                        <g data-name="Group 1048">
                                          <path fill="#3b3d41" d="M940.534 516.559c.026.395-.918.716-2.123.716h-18.9c-1.2 0-2.155-.321-2.185-.716l-.228-6.456c-.015-.4.923-.733 2.087-.733h18.6c1.179 0 2.162.329 2.209.733z" data-name="Path 314"/>
                                        </g>
                                      </g>
                                    </g>
                                  </g>
                                </g>
                                <g data-name="Group 1057">
                                  <g data-name="Group 1056">
                                    <g data-name="Group 1055">
                                      <g data-name="Group 1054">
                                        <g data-name="Group 1053">
                                          <path fill="#3b3d41" d="M970.059 516.559c.051.395-.872.716-2.066.716H949.09c-1.188 0-2.193-.321-2.231-.716l-.625-6.456c-.057-.4.868-.733 2.041-.733h18.584c1.179 0 2.186.329 2.246.733z" data-name="Path 315"/>
                                        </g>
                                      </g>
                                    </g>
                                  </g>
                                </g>
                                <g data-name="Group 1062">
                                  <g data-name="Group 1061">
                                    <g data-name="Group 1060">
                                      <g data-name="Group 1059">
                                        <g data-name="Group 1058">
                                          <path fill="#3b3d41" d="M999.602 516.559c.077.395-.829.716-2.025.716h-18.912c-1.182 0-2.212-.321-2.3-.716l-1.018-6.456c-.076-.4.837-.733 2.01-.733h18.6c1.163 0 2.205.329 2.279.733z" data-name="Path 316"/>
                                        </g>
                                      </g>
                                    </g>
                                  </g>
                                </g>
                                <g data-name="Group 1067">
                                  <g data-name="Group 1066">
                                    <g data-name="Group 1065">
                                      <g data-name="Group 1064">
                                        <g data-name="Group 1063">
                                          <path fill="#3b3d41" d="M1029.109 516.559c.112.395-.757.716-1.962.716h-18.9c-1.2 0-2.253-.321-2.331-.716l-1.447-6.456c-.1-.4.786-.733 1.951-.733h18.6c1.179 0 2.228.329 2.332.733z" data-name="Path 317"/>
                                        </g>
                                      </g>
                                    </g>
                                  </g>
                                </g>
                              </g>
                              <g data-name="Group 1118">
                                <g data-name="Group 1117">
                                  <g data-name="Group 1072">
                                    <g data-name="Group 1071">
                                      <g data-name="Group 1070">
                                        <g data-name="Group 1069">
                                          <path fill="#3b3d41" d="M743.392 472.256c-.161.441-1.261.786-2.43.786h-18c-1.186 0-1.994-.345-1.8-.786l1.236-2.948c.175-.439 1.261-.8 2.437-.8h17.8c1.191 0 2 .359 1.847.8z" data-name="Path 318"/>
                                        </g>
                                      </g>
                                    </g>
                                  </g>
                                  <g data-name="Group 1076">
                                    <g data-name="Group 1075">
                                      <g data-name="Group 1074">
                                        <g data-name="Group 1073">
                                          <path fill="#3b3d41" d="M774.06 472.256c-.13.441-1.2.786-2.38.786h-17.99c-1.194 0-2.02-.345-1.874-.786l1.03-2.948c.153-.439 1.22-.8 2.394-.8h17.8c1.2 0 2.028.359 1.893.8z" data-name="Path 319"/>
                                        </g>
                                      </g>
                                    </g>
                                  </g>
                                  <g data-name="Group 1080">
                                    <g data-name="Group 1079">
                                      <g data-name="Group 1078">
                                        <g data-name="Group 1077">
                                          <path fill="#3b3d41" d="M804.726 472.256c-.086.441-1.126.786-2.3.786h-18.02c-1.186 0-2.035-.345-1.917-.786l.824-2.948c.113-.439 1.157-.8 2.336-.8h17.815c1.158 0 2.02.359 1.924.8z" data-name="Path 320"/>
                                        </g>
                                      </g>
                                    </g>
                                  </g>
                                  <g data-name="Group 1084">
                                    <g data-name="Group 1083">
                                      <g data-name="Group 1082">
                                        <g data-name="Group 1081">
                                          <path fill="#3b3d41" d="M835.398 472.256c-.079.441-1.088.786-2.265.786H815.11c-1.16 0-2.054-.345-1.958-.786l.6-2.948c.091-.439 1.128-.8 2.277-.8h17.817c1.179 0 2.073.359 2 .8z" data-name="Path 321"/>
                                        </g>
                                      </g>
                                    </g>
                                  </g>
                                  <g data-name="Group 1088">
                                    <g data-name="Group 1087">
                                      <g data-name="Group 1086">
                                        <g data-name="Group 1085">
                                          <path fill="#3b3d41" d="M866.068 472.256c-.031.441-1.026.786-2.2.786h-18c-1.2 0-2.092-.345-2.025-.786l.381-2.948c.064-.439 1.045-.8 2.231-.8h17.815c1.152 0 2.087.359 2.042.8z" data-name="Path 322"/>
                                        </g>
                                      </g>
                                    </g>
                                  </g>
                                  <g data-name="Group 1092">
                                    <g data-name="Group 1091">
                                      <g data-name="Group 1090">
                                        <g data-name="Group 1089">
                                          <path fill="#3b3d41" d="M896.728 472.256c0 .441-.966.786-2.164.786h-17.975c-1.165 0-2.111-.345-2.085-.786l.187-2.948c.026-.439.985-.8 2.159-.8h17.791c1.188 0 2.126.359 2.113.8z" data-name="Path 323"/>
                                        </g>
                                      </g>
                                    </g>
                                  </g>
                                  <g data-name="Group 1096">
                                    <g data-name="Group 1095">
                                      <g data-name="Group 1094">
                                        <g data-name="Group 1093">
                                          <path fill="#3b3d41" d="M927.418 472.256c.026.441-.92.786-2.092.786h-18c-1.182 0-2.155-.345-2.155-.786l-.019-2.948c-.007-.439.922-.8 2.1-.8h17.817c1.157 0 2.142.359 2.161.8z" data-name="Path 324"/>
                                        </g>
                                      </g>
                                    </g>
                                  </g>
                                  <g data-name="Group 1100">
                                    <g data-name="Group 1099">
                                      <g data-name="Group 1098">
                                        <g data-name="Group 1097">
                                          <path fill="#3b3d41" d="M958.089 472.256c.063.441-.856.786-2.047.786h-17.991c-1.17 0-2.162-.345-2.2-.786l-.232-2.948c-.045-.439.879-.8 2.028-.8h17.822c1.17 0 2.186.359 2.231.8z" data-name="Path 325"/>
                                        </g>
                                      </g>
                                    </g>
                                  </g>
                                  <g data-name="Group 1104">
                                    <g data-name="Group 1103">
                                      <g data-name="Group 1102">
                                        <g data-name="Group 1101">
                                          <path fill="#3b3d41" d="M988.761 472.256c.086.441-.8.786-1.977.786h-17.989c-1.206 0-2.216-.345-2.284-.786l-.444-2.948c-.069-.439.824-.8 2-.8h17.81c1.164 0 2.188.359 2.279.8z" data-name="Path 326"/>
                                        </g>
                                      </g>
                                    </g>
                                  </g>
                                  <g data-name="Group 1108">
                                    <g data-name="Group 1107">
                                      <g data-name="Group 1106">
                                        <g data-name="Group 1105">
                                          <path fill="#3b3d41" d="M1019.429 472.256c.127.441-.741.786-1.924.786h-17.978c-1.2 0-2.234-.345-2.322-.786l-.68-2.948c-.089-.439.777-.8 1.939-.8h17.817c1.164 0 2.216.359 2.329.8z" data-name="Path 327"/>
                                        </g>
                                      </g>
                                    </g>
                                  </g>
                                  <g data-name="Group 1112">
                                    <g data-name="Group 1111">
                                      <g data-name="Group 1110">
                                        <g data-name="Group 1109">
                                          <path fill="#3b3d41" d="M1050.101 472.256c.153.441-.671.786-1.86.786h-18c-1.179 0-2.258-.345-2.373-.786l-.872-2.948c-.132-.439.71-.8 1.874-.8h17.8c1.179 0 2.246.359 2.4.8z" data-name="Path 328"/>
                                        </g>
                                      </g>
                                    </g>
                                  </g>
                                  <g data-name="Group 1116">
                                    <g data-name="Group 1115">
                                      <g data-name="Group 1114">
                                        <g data-name="Group 1113">
                                          <path fill="#3b3d41" d="M1080.778 472.256c.187.441-.637.786-1.812.786h-18c-1.188 0-2.272-.345-2.434-.786l-1.081-2.948c-.151-.439.644-.8 1.829-.8h17.81c1.172 0 2.265.359 2.452.8z" data-name="Path 329"/>
                                        </g>
                                      </g>
                                    </g>
                                  </g>
                                </g>
                              </g>
                              <g data-name="Group 1167">
                                <g data-name="Group 1122">
                                  <g data-name="Group 1121">
                                    <g data-name="Group 1120">
                                      <g data-name="Group 1119">
                                        <path fill="#3b3d41" d="M777.712 494.472c-.093.408-1.122.735-2.264.735h-18.12c-1.153 0-1.967-.326-1.828-.735l2.085-6.441c.13-.417 1.15-.741 2.279-.741h17.81c1.109 0 1.932.324 1.805.741z" data-name="Path 330"/>
                                      </g>
                                    </g>
                                  </g>
                                </g>
                                <g data-name="Group 1126">
                                  <g data-name="Group 1125">
                                    <g data-name="Group 1124">
                                      <g data-name="Group 1123">
                                        <path fill="#3b3d41" d="M806.037 494.472c-.1.408-1.1.735-2.241.735h-18.129c-1.148 0-1.984-.326-1.867-.735l1.687-6.441c.094-.417 1.09-.741 2.212-.741h17.812c1.133 0 1.975.324 1.889.741z" data-name="Path 331"/>
                                      </g>
                                    </g>
                                  </g>
                                </g>
                                <g data-name="Group 1130">
                                  <g data-name="Group 1129">
                                    <g data-name="Group 1128">
                                      <g data-name="Group 1127">
                                        <path fill="#3b3d41" d="M834.322 494.472c-.064.408-1.04.735-2.178.735h-18.136c-1.15 0-2-.326-1.924-.735l1.28-6.441c.079-.417 1.049-.741 2.185-.741h17.812c1.117 0 1.984.324 1.922.741z" data-name="Path 332"/>
                                      </g>
                                    </g>
                                  </g>
                                </g>
                                <g data-name="Group 1134">
                                  <g data-name="Group 1133">
                                    <g data-name="Group 1132">
                                      <g data-name="Group 1131">
                                        <path fill="#3b3d41" d="M862.608 494.472c-.038.408-.985.735-2.123.735h-18.121c-1.152 0-2.025-.326-1.975-.735l.875-6.441c.038-.417.992-.741 2.137-.741h17.8c1.112 0 2 .324 1.965.741z" data-name="Path 333"/>
                                      </g>
                                    </g>
                                  </g>
                                </g>
                                <g data-name="Group 1138">
                                  <g data-name="Group 1137">
                                    <g data-name="Group 1136">
                                      <g data-name="Group 1135">
                                        <path fill="#3b3d41" d="M890.914 494.472c0 .408-.947.735-2.092.735h-18.126c-1.117 0-2.037-.326-2.018-.735l.472-6.441c.019-.417.964-.741 2.085-.741h17.8c1.131 0 2.03.324 2.025.741z" data-name="Path 334"/>
                                      </g>
                                    </g>
                                  </g>
                                </g>
                                <g data-name="Group 1142">
                                  <g data-name="Group 1141">
                                    <g data-name="Group 1140">
                                      <g data-name="Group 1139">
                                        <path fill="#3b3d41" d="M919.205 494.472c.012.408-.891.735-2.032.735h-18.121c-1.153 0-2.085-.326-2.078-.735l.046-6.441c.007-.417.939-.741 2.058-.741h17.807c1.126 0 2.034.324 2.056.741z" data-name="Path 335"/>
                                      </g>
                                    </g>
                                  </g>
                                </g>
                                <g data-name="Group 1146">
                                  <g data-name="Group 1145">
                                    <g data-name="Group 1144">
                                      <g data-name="Group 1143">
                                        <path fill="#3b3d41" d="M947.51 494.472c.041.408-.856.735-1.994.735h-18.129c-1.129 0-2.1-.326-2.107-.735l-.348-6.441c-.024-.417.861-.741 1.989-.741h17.8c1.124 0 2.075.324 2.123.741z" data-name="Path 336"/>
                                      </g>
                                    </g>
                                  </g>
                                </g>
                                <g data-name="Group 1150">
                                  <g data-name="Group 1149">
                                    <g data-name="Group 1148">
                                      <g data-name="Group 1147">
                                        <path fill="#3b3d41" d="M975.809 494.472c.064.408-.8.735-1.965.735h-18.11c-1.16 0-2.118-.326-2.162-.735l-.767-6.441c-.043-.417.831-.741 1.968-.741h17.776c1.157 0 2.113.324 2.183.741z" data-name="Path 337"/>
                                      </g>
                                    </g>
                                  </g>
                                </g>
                                <g data-name="Group 1154">
                                  <g data-name="Group 1153">
                                    <g data-name="Group 1152">
                                      <g data-name="Group 1151">
                                        <path fill="#3b3d41" d="M1004.1 494.472c.1.408-.764.735-1.9.735h-18.119c-1.164 0-2.152-.326-2.219-.735l-1.164-6.441c-.076-.417.781-.741 1.912-.741h17.819c1.11 0 2.1.324 2.19.741z" data-name="Path 338"/>
                                      </g>
                                    </g>
                                  </g>
                                </g>
                                <g data-name="Group 1158">
                                  <g data-name="Group 1157">
                                    <g data-name="Group 1156">
                                      <g data-name="Group 1155">
                                        <path fill="#3b3d41" d="M1032.403 494.472c.1.408-.7.735-1.864.735h-18.117c-1.153 0-2.152-.326-2.246-.735l-1.57-6.441c-.1-.417.726-.741 1.852-.741h17.8c1.146 0 2.13.324 2.25.741z" data-name="Path 339"/>
                                      </g>
                                    </g>
                                  </g>
                                </g>
                                <g data-name="Group 1162">
                                  <g data-name="Group 1161">
                                    <g data-name="Group 1160">
                                      <g data-name="Group 1159">
                                        <path fill="#3b3d41" d="M1060.705 494.472c.132.408-.678.735-1.823.735h-18.12c-1.143 0-2.167-.326-2.294-.735l-1.965-6.441c-.139-.417.669-.741 1.8-.741h17.8c1.124 0 2.149.324 2.3.741z" data-name="Path 340"/>
                                      </g>
                                    </g>
                                  </g>
                                </g>
                                <g data-name="Group 1166">
                                  <g data-name="Group 1165">
                                    <g data-name="Group 1164">
                                      <g data-name="Group 1163">
                                        <path fill="#3b3d41" d="M1089.007 494.472c.161.408-.637.735-1.768.735h-18.134c-1.15 0-2.212-.326-2.355-.735l-2.38-6.441c-.148-.417.654-.741 1.769-.741h17.812c1.119 0 2.18.324 2.339.741z" data-name="Path 341"/>
                                      </g>
                                    </g>
                                  </g>
                                </g>
                              </g>
                              <g data-name="Group 1218">
                                <g data-name="Group 1172">
                                  <g data-name="Group 1171">
                                    <g data-name="Group 1170">
                                      <g data-name="Group 1169">
                                        <g data-name="Group 1168">
                                          <path fill="#3b3d41" d="M780.948 505.549c-.1.4-1.143.736-2.322.736h-18.514c-1.176 0-2.018-.333-1.889-.736l2.006-6.442c.124-.405 1.167-.738 2.317-.738h18.2c1.141 0 2 .333 1.9.738z" data-name="Path 342"/>
                                        </g>
                                      </g>
                                    </g>
                                  </g>
                                </g>
                                <g data-name="Group 1177">
                                  <g data-name="Group 1176">
                                    <g data-name="Group 1175">
                                      <g data-name="Group 1174">
                                        <g data-name="Group 1173">
                                          <path fill="#3b3d41" d="M809.851 505.549c-.086.4-1.079.736-2.255.736h-18.52c-1.182 0-2.04-.333-1.934-.736l1.591-6.442c.1-.405 1.126-.738 2.274-.738h18.2c1.153 0 2 .333 1.917.738z" data-name="Path 343"/>
                                        </g>
                                      </g>
                                    </g>
                                  </g>
                                </g>
                                <g data-name="Group 1182">
                                  <g data-name="Group 1181">
                                    <g data-name="Group 1180">
                                      <g data-name="Group 1179">
                                        <g data-name="Group 1178">
                                          <path fill="#3b3d41" d="M838.776 505.549c-.06.4-1.057.736-2.221.736h-18.521c-1.165 0-2.052-.333-1.98-.736l1.208-6.442c.06-.405 1.064-.738 2.193-.738h18.209c1.152 0 2.032.333 1.987.738z" data-name="Path 344"/>
                                        </g>
                                      </g>
                                    </g>
                                  </g>
                                </g>
                                <g data-name="Group 1187">
                                  <g data-name="Group 1186">
                                    <g data-name="Group 1185">
                                      <g data-name="Group 1184">
                                        <g data-name="Group 1183">
                                          <path fill="#3b3d41" d="M867.696 505.549c-.033.4-1.011.736-2.171.736h-18.541c-1.176 0-2.073-.333-2.032-.736l.789-6.442c.055-.405 1.018-.738 2.185-.738h18.2c1.155 0 2.059.333 2.03.738z" data-name="Path 345"/>
                                        </g>
                                      </g>
                                    </g>
                                  </g>
                                </g>
                                <g data-name="Group 1192">
                                  <g data-name="Group 1191">
                                    <g data-name="Group 1190">
                                      <g data-name="Group 1189">
                                        <g data-name="Group 1188">
                                          <path fill="#3b3d41" d="M896.586 505.549c0 .4-.951.736-2.116.736h-18.53c-1.157 0-2.092-.333-2.066-.736l.386-6.442c.026-.405.973-.738 2.118-.738h18.187c1.15 0 2.092.333 2.092.738z" data-name="Path 346"/>
                                        </g>
                                      </g>
                                    </g>
                                  </g>
                                </g>
                                <g data-name="Group 1197">
                                  <g data-name="Group 1196">
                                    <g data-name="Group 1195">
                                      <g data-name="Group 1194">
                                        <g data-name="Group 1193">
                                          <path fill="#3b3d41" d="M925.509 505.549c.021.4-.913.736-2.078.736H904.91c-1.169 0-2.113-.333-2.113-.736l-.026-6.442c0-.405.913-.738 2.059-.738h18.229c1.138 0 2.082.333 2.089.738z" data-name="Path 347"/>
                                        </g>
                                      </g>
                                    </g>
                                  </g>
                                </g>
                                <g data-name="Group 1202">
                                  <g data-name="Group 1201">
                                    <g data-name="Group 1200">
                                      <g data-name="Group 1199">
                                        <g data-name="Group 1198">
                                          <path fill="#3b3d41" d="M954.427 505.549c.038.4-.856.736-2.028.736h-18.524c-1.179 0-2.164-.333-2.169-.736l-.444-6.442c-.026-.405.9-.738 2.04-.738h18.2c1.155 0 2.116.333 2.173.738z" data-name="Path 348"/>
                                        </g>
                                      </g>
                                    </g>
                                  </g>
                                </g>
                                <g data-name="Group 1207">
                                  <g data-name="Group 1206">
                                    <g data-name="Group 1205">
                                      <g data-name="Group 1204">
                                        <g data-name="Group 1203">
                                          <path fill="#3b3d41" d="M983.336 505.549c.057.4-.812.736-1.975.736h-18.526c-1.176 0-2.156-.333-2.219-.736l-.827-6.442c-.046-.405.827-.738 1.977-.738h18.21c1.134 0 2.118.333 2.19.738z" data-name="Path 349"/>
                                        </g>
                                      </g>
                                    </g>
                                  </g>
                                </g>
                                <g data-name="Group 1212">
                                  <g data-name="Group 1211">
                                    <g data-name="Group 1210">
                                      <g data-name="Group 1209">
                                        <g data-name="Group 1208">
                                          <path fill="#3b3d41" d="M1012.246 505.549c.1.4-.76.736-1.932.736h-18.53c-1.157 0-2.162-.333-2.231-.736l-1.249-6.442c-.079-.405.776-.738 1.917-.738h18.2c1.148 0 2.162.333 2.264.738z" data-name="Path 350"/>
                                        </g>
                                      </g>
                                    </g>
                                  </g>
                                </g>
                                <g data-name="Group 1217">
                                  <g data-name="Group 1216">
                                    <g data-name="Group 1215">
                                      <g data-name="Group 1214">
                                        <g data-name="Group 1213">
                                          <path fill="#3b3d41" d="M1041.162 505.549c.124.4-.707.736-1.893.736h-18.51c-1.191 0-2.221-.333-2.325-.736l-1.642-6.442c-.1-.405.74-.738 1.9-.738h18.2c1.16 0 2.18.333 2.31.738z" data-name="Path 351"/>
                                        </g>
                                      </g>
                                    </g>
                                  </g>
                                </g>
                              </g>
                            </g>
                          </g>
                        </g>
                        <g data-name="Group 1225">
                          <g data-name="Group 1224">
                            <g data-name="Group 1223">
                              <g data-name="Group 1222">
                                <path fill="#3a3e44" d="M697.662 446.999h411.345v7.777H697.662z" data-name="Rectangle 70"/>
                              </g>
                            </g>
                          </g>
                        </g>
                        <g data-name="Group 1228">
                          <g data-name="Group 1227">
                            <g data-name="Group 1226">
                              <path fill="#f1644a" d="M905.913 162.58a4.277 4.277 0 11-4.289-4.275 4.273 4.273 0 014.289 4.275z" data-name="Path 352"/>
                            </g>
                          </g>
                        </g>
                      </g>
                    </g>
                  </g>
                </g>
              </g>
            </g>
          </g>
        </g>
      </g>
      <g data-name="Group 832">
        <g fill="#191916" data-name="Group 427">
          <path d="M1001.63 381.352h-164a18.943 18.943 0 01-18.928-18.924V226.81a18.943 18.943 0 0118.924-18.924h164a18.943 18.943 0 0118.924 18.924v135.618a18.943 18.943 0 01-18.92 18.924zm-164-167.158a12.628 12.628 0 00-12.616 12.616v135.618a12.628 12.628 0 0012.616 12.616h164a12.628 12.628 0 0012.616-12.616V226.81a12.628 12.628 0 00-12.616-12.616z" data-name="Path 264"/>
          <path d="M822 238.968h196v7H822z" data-name="Rectangle 57"/>
          <path d="M970.091 409.737h-164a18.943 18.943 0 01-18.928-18.924V255.195a18.943 18.943 0 0118.924-18.924h6.308v6.308h-6.308a12.628 12.628 0 00-12.616 12.616v135.618a12.628 12.628 0 0012.616 12.616h164a12.628 12.628 0 0012.616-12.616v-3.154h6.308v3.154a18.943 18.943 0 01-18.92 18.924z" data-name="Path 265"/>
          <path d="M791 270.968h21v7h-21z" data-name="Rectangle 58"/>
          <path d="M843 222.968h7v7h-7z" data-name="Rectangle 59"/>
          <path d="M862 222.968h7v7h-7z" data-name="Rectangle 60"/>
          <path d="M881 222.968h6v7h-6z" data-name="Rectangle 61"/>
        </g>
        <g data-name="Group 428">
          <path fill="#191916" d="M872.319 346.658a34.693 34.693 0 1117.362-64.734l-3.16 5.456a28.336 28.336 0 1012.887 16.076l6.018-1.884a34.714 34.714 0 01-33.107 45.089z" data-name="Path 266"/>
          <path fill="#d71a11" d="M872.744 329.407l-18.976-18.534 4.41-4.512 13.709 13.395 29.4-41.162 5.132 3.665z" data-name="Path 267"/>
        </g>
        <g fill="#191916" data-name="Group 429">
          <path d="M926 277.968h75v5h-75z" data-name="Rectangle 62"/>
          <path d="M926 296.968h75v5h-75z" data-name="Rectangle 63"/>
        </g>
        <g fill="#191916" data-name="Group 430">
          <path d="M926 320.968h75v8h-75z" data-name="Rectangle 64"/>
          <path d="M926 338.968h75v8h-75z" data-name="Rectangle 65"/>
        </g>
      </g>
    </g>
    <path fill="#3a3e44" d="M0 726h1280v74H0z" data-name="Rectangle 44"/>
    <g fill="#fff" data-name="Group 52">
      <path d="M983.029 779.457h9.954a1.93 1.93 0 001.935-1.843v-6.821a36.608 36.608 0 01-11.889 8.664z" data-name="Path 137"/>
      <path d="M980.817 756.323c-.092-1.751-1.383-2.857-4.148-2.577-5.437.365-9.583 6.54-10.783 12.9 11.8-.922 15.023-8.111 14.931-10.323z" data-name="Path 138"/>
      <path d="M979.803 749.963c5.622-.369 8.2 1.843 8.387 4.608.461 6.083-9.493 13.272-22.581 14.378h-.184a10.209 10.209 0 00.369 5.069c.922 2.4 3.318 3.318 6.083 3.318 12.166 0 21.106-13.456 23.041-19.539v-9.954a1.871 1.871 0 00-1.935-1.843h-29.678a1.849 1.849 0 00-1.843 1.843v13.641c4.793-6.084 12.166-11.06 18.341-11.521z" data-name="Path 139"/>
      <g>
        <path d="M1019.344 768.673a4.855 4.855 0 003.779-1.659l1.106.922a6.365 6.365 0 01-4.885 2.3 5.892 5.892 0 01-5.9-6.175c0-3.41 2.4-6.175 5.714-6.175 3.5 0 5.53 2.857 5.53 6.267v.553h-9.493a4.081 4.081 0 004.149 3.967zm3.41-5.346c-.184-2.12-1.475-4.055-3.779-4.055-2.028 0-3.594 1.751-3.871 4.055z" data-name="Path 140"/>
        <path d="M1037.222 769.963v-2.4a5.23 5.23 0 01-4.516 2.673 5.856 5.856 0 01-5.714-6.171 5.856 5.856 0 015.714-6.175 5.228 5.228 0 014.516 2.581v-7.374h1.751v16.866zm-4.24-10.6c-2.3 0-4.147 1.751-4.147 4.608s1.935 4.608 4.147 4.608a4.452 4.452 0 004.332-4.608 4.452 4.452 0 00-4.331-4.607z" data-name="Path 141"/>
        <path d="M1048.284 773.65a9.258 9.258 0 01-5.439-1.66l.829-1.382a8.066 8.066 0 004.61 1.476c2.581 0 4.332-1.475 4.332-4.24v-1.383a5.681 5.681 0 01-4.7 2.581 5.427 5.427 0 01-5.53-5.53 5.5 5.5 0 015.528-5.622 5.773 5.773 0 014.7 2.4v-2.12h1.751v9.77c-.092 3.775-2.488 5.71-6.081 5.71zm-.092-14.286a3.892 3.892 0 00-4.147 4.055 4 4 0 004.147 4.055 4.176 4.176 0 004.422-4.054 4.23 4.23 0 00-4.424-4.055z" data-name="Path 142"/>
        <path d="M1063.491 768.673a4.855 4.855 0 003.779-1.659l1.106.922a6.365 6.365 0 01-4.885 2.3 5.892 5.892 0 01-5.9-6.175c0-3.41 2.4-6.175 5.714-6.175 3.5 0 5.53 2.857 5.53 6.267v.553h-9.4a3.948 3.948 0 004.056 3.967zm3.41-5.346c-.184-2.12-1.475-4.055-3.779-4.055-2.028 0-3.594 1.751-3.871 4.055z" data-name="Path 143"/>
        <path d="M1078.144 770.24a5.228 5.228 0 01-4.516-2.581v5.991h-1.751v-15.576h1.751v2.3a5.23 5.23 0 014.516-2.673 5.856 5.856 0 015.714 6.175c.001 3.967-2.857 6.364-5.714 6.364zm-.367-10.876a4.452 4.452 0 00-4.332 4.608 4.34 4.34 0 004.332 4.608c2.3 0 4.147-1.751 4.147-4.608a4.153 4.153 0 00-4.147-4.608z" data-name="Path 144"/>
        <path d="M1092.522 770.239a6.116 6.116 0 01-6.175-6.175 6.194 6.194 0 016.175-6.267 6.116 6.116 0 016.175 6.175 6.194 6.194 0 01-6.175 6.267zm0-10.876a4.339 4.339 0 00-4.332 4.608 4.491 4.491 0 004.424 4.7 4.412 4.412 0 004.424-4.608 4.625 4.625 0 00-4.516-4.7z" data-name="Path 145"/>
        <path d="M1101.923 755.493v-1.935h2.028v1.935zm.184 14.47v-11.889h1.751v11.889z" data-name="Path 146"/>
        <path d="M1109.757 769.963h-1.751v-11.89h1.751v2.024a4.43 4.43 0 014.055-2.3c2.857 0 4.516 1.935 4.516 4.7v7.373h-1.751v-6.912c0-2.212-1.2-3.594-3.318-3.594a3.51 3.51 0 00-3.594 3.687l.092 6.912z" data-name="Path 147"/>
        <path d="M1124.504 766.553a1.8 1.8 0 002.028 2.028 3.994 3.994 0 001.751-.369v1.475a4 4 0 01-2.12.461c-1.935 0-3.318-.922-3.318-3.318v-7.19h-1.659v-1.661h1.659v-3.5h1.751v3.5h3.779v1.567h-3.779v7z" data-name="Path 148"/>
      </g>
      <g>
        <path d="M1138.42 769.963v-16.866h1.751v16.866z" data-name="Path 149"/>
        <path d="M1149.666 768.673a4.855 4.855 0 003.779-1.659l1.106.922a6.365 6.365 0 01-4.885 2.3 5.892 5.892 0 01-5.9-6.175c0-3.41 2.4-6.175 5.714-6.175 3.5 0 5.53 2.857 5.53 6.267v.553h-9.4a3.948 3.948 0 004.055 3.963zm3.41-5.346c-.184-2.12-1.475-4.055-3.779-4.055-2.028 0-3.594 1.751-3.871 4.055z" data-name="Path 150"/>
        <path d="M1158.604 760.382l-.553-1.475a9.105 9.105 0 014.332-.925c3.226 0 5.069 1.659 5.069 4.793v7.281h-1.751v-1.751a5.161 5.161 0 01-4.332 2.028c-2.212 0-4.424-1.2-4.424-3.687 0-2.581 2.028-3.871 5.069-3.871a13.114 13.114 0 013.594.461v-.369c0-2.12-1.29-3.226-3.594-3.226a5.9 5.9 0 00-3.41.737zm.276 5.991c0 1.475 1.382 2.4 3.041 2.4 2.212 0 3.963-1.29 3.963-3.226v-1.2a11.937 11.937 0 00-3.5-.461c-2.212 0-3.5 1.014-3.5 2.488z" data-name="Path 151"/>
        <path d="M1173.074 769.963h-1.751v-11.889h1.751v3.041a5.068 5.068 0 014.885-3.318v1.843h-.092c-2.581 0-4.7 1.843-4.7 5.438v4.885z" data-name="Path 152"/>
        <path d="M1182.383 769.963h-1.751v-11.89h1.751v2.024a4.43 4.43 0 014.055-2.3c2.857 0 4.516 1.935 4.516 4.7v7.373h-1.751v-6.912c0-2.212-1.2-3.594-3.318-3.594a3.51 3.51 0 00-3.594 3.687v6.912z" data-name="Path 153"/>
        <path d="M1194.733 755.493v-1.935h2.028v1.935zm.184 14.47v-11.889h1.751v11.889z" data-name="Path 154"/>
        <path d="M1202.567 769.963h-1.751v-11.89h1.751v2.024a4.43 4.43 0 014.055-2.3c2.857 0 4.516 1.935 4.516 4.7v7.373h-1.751v-6.912c0-2.212-1.2-3.594-3.318-3.594a3.51 3.51 0 00-3.594 3.687l.092 6.912z" data-name="Path 155"/>
        <path d="M1220.265 773.65a9.258 9.258 0 01-5.439-1.66l.83-1.382a8.066 8.066 0 004.608 1.475c2.581 0 4.332-1.475 4.332-4.24v-1.382a5.681 5.681 0 01-4.7 2.581 5.427 5.427 0 01-5.53-5.53 5.5 5.5 0 015.53-5.622 5.641 5.641 0 014.7 2.4v-2.12h1.751v9.77c-.092 3.779-2.488 5.714-6.083 5.714zm-.092-14.286a3.892 3.892 0 00-4.147 4.055 4 4 0 004.147 4.055 4.176 4.176 0 004.424-4.055 4.23 4.23 0 00-4.426-4.054z" data-name="Path 156"/>
      </g>
    </g>
    <path fill="#fff" d="M70.9 194h15.2c6.1 0 9.65-3.65 9.65-9 0-4-2.95-7.65-6.5-8.2a7.58 7.58 0 005.85-7.65c0-5-3.55-8.5-9.35-8.5H70.9zm4.15-18.9v-10.75h10c3.75 0 5.75 2.4 5.75 5.4 0 3.05-2 5.35-5.75 5.35zm0 15.2v-11.5h10.2c4.1 0 6.2 2.7 6.2 5.75 0 3.55-2.3 5.75-6.2 5.75zm26.4 9.75l-.6 3.4a12.174 12.174 0 002.75.35 7.179 7.179 0 007.1-4.9l12.1-29.05h-4.1l-8 19.8-8.05-19.8H98.6l10.1 24.4-1.6 3.65c-.85 2-1.95 2.55-3.6 2.55a5.752 5.752 0 01-2.05-.4zm35.8-10.75c2.95 3.15 7.4 5.3 13.55 5.3 9 0 12.9-4.75 12.9-10.3 0-7.25-6.55-8.95-12.05-10.35-3.95-1-7.35-1.85-7.35-4.45 0-2.5 2.2-4.15 5.65-4.15a13.557 13.557 0 019.65 3.8l3.35-4.35c-3.1-3-7.3-4.65-12.5-4.65-7.3 0-12.15 4.25-12.15 9.75 0 7.05 6.4 8.65 11.85 10 4.05 1.05 7.6 1.95 7.6 4.95 0 2.2-1.9 4.55-6.7 4.55a14.386 14.386 0 01-10.55-4.6zm30.2-7.4c0 7.65 5.4 12.7 12.65 12.7a14.077 14.077 0 009.8-3.5l-2.4-3.45a10.221 10.221 0 01-6.85 2.65 7.315 7.315 0 01-7.7-6.65h18.65v-1.25c0-7.6-4.65-13.15-11.9-13.15-7.15 0-12.25 5.65-12.25 12.65zm12.25-8.35a6.459 6.459 0 016.8 6.4h-13.6a6.662 6.662 0 016.8-6.4zm22.35 29.65v-12.55a9.482 9.482 0 007.75 3.95c6.25 0 10.7-4.75 10.7-12.7s-4.45-12.65-10.7-12.65a9.636 9.636 0 00-7.75 3.9v-3.3h-5.25v33.35zm13-21.3c0 4.7-2.65 8.05-6.8 8.05a7.98 7.98 0 01-6.2-3.25v-9.55a7.837 7.837 0 016.2-3.25c4.15 0 6.8 3.35 6.8 8zm18 12.7a6.926 6.926 0 004.95-1.55l-1.25-3.95a3.389 3.389 0 01-2.35.85c-1.5 0-2.3-1.2-2.3-2.85v-12.65h4.9v-4.6h-4.9v-6.6h-5.25v6.6h-4v4.6h4v13.95c0 4 2.15 6.2 6.2 6.2zm7.2-12.7c0 7.65 5.4 12.7 12.65 12.7a14.077 14.077 0 009.8-3.5l-2.4-3.45a10.221 10.221 0 01-6.85 2.65 7.315 7.315 0 01-7.7-6.65h18.65v-1.25c0-7.6-4.65-13.15-11.9-13.15-7.15 0-12.25 5.65-12.25 12.65zm12.25-8.35a6.459 6.459 0 016.8 6.4h-13.6a6.662 6.662 0 016.8-6.4zM299.2 194h5.25v-17.45c0-4.9-2.5-7.3-6.95-7.3a10.242 10.242 0 00-8.2 4.45c-.8-2.65-3-4.45-6.6-4.45a10.43 10.43 0 00-7.85 3.9v-3.3h-5.25V194h5.25v-16.85a7.307 7.307 0 015.55-3.25c2.85 0 4 1.75 4 4.35V194h5.25v-16.9a7.328 7.328 0 015.6-3.2c2.8 0 3.95 1.75 3.95 4.35zm12.05 0h5.25v-3.3a9.708 9.708 0 007.75 3.9c6.15 0 10.7-4.7 10.7-12.65 0-7.8-4.5-12.7-10.7-12.7a9.55 9.55 0 00-7.75 3.95v-12.55h-5.25zm5.25-7.25v-9.55a7.881 7.881 0 016.2-3.3c4.2 0 6.85 3.35 6.85 8.05s-2.65 8-6.85 8a7.793 7.793 0 01-6.2-3.2zm22.3-4.85c0 7.65 5.4 12.7 12.65 12.7a14.077 14.077 0 009.8-3.5l-2.4-3.45a10.221 10.221 0 01-6.85 2.65 7.315 7.315 0 01-7.7-6.65h18.65v-1.25c0-7.6-4.65-13.15-11.9-13.15-7.15 0-12.25 5.65-12.25 12.65zm12.25-8.35a6.459 6.459 0 016.8 6.4h-13.6a6.662 6.662 0 016.8-6.4zm17.1 20.45h5.25v-16.45a8.339 8.339 0 016.2-3.2 7.739 7.739 0 011.65.15v-5.2a10.313 10.313 0 00-7.85 4.1v-3.55h-5.25zm29.3 0h24.15v-5.15h-14.8c8.95-6.75 14.6-12.25 14.6-18.4 0-6.65-5.65-10.3-12.1-10.3a15.983 15.983 0 00-12.3 5.35l3.4 3.85a11.579 11.579 0 019-4c3.05 0 6.05 1.6 6.05 5.1 0 4.8-5.05 9.15-18 18.95zm29.3-16.65c0 8.4 4 17.25 13.35 17.25s13.35-8.85 13.35-17.25-4-17.2-13.35-17.2-13.35 8.8-13.35 17.2zm20.75 0c0 6.35-1.95 12.05-7.4 12.05s-7.4-5.7-7.4-12.05 1.95-12 7.4-12 7.4 5.65 7.4 12zM458 194h24.15v-5.15h-14.8c8.95-6.75 14.6-12.25 14.6-18.4 0-6.65-5.65-10.3-12.1-10.3a15.983 15.983 0 00-12.3 5.35l3.4 3.85a11.579 11.579 0 019-4c3.05 0 6.05 1.6 6.05 5.1 0 4.8-5.05 9.15-18 18.95zm29.3-16.65c0 8.4 4 17.25 13.35 17.25S514 185.75 514 177.35s-4-17.2-13.35-17.2-13.35 8.8-13.35 17.2zm20.75 0c0 6.35-1.95 12.05-7.4 12.05s-7.4-5.7-7.4-12.05 1.95-12 7.4-12 7.4 5.65 7.4 12zm12.7 23a9.652 9.652 0 004.1-7.55c0-2.4-1.5-3.8-3.15-3.8a2.678 2.678 0 00-2.65 2.7 2.379 2.379 0 002.4 2.55 2.318 2.318 0 00.7-.1 7.463 7.463 0 01-3.25 4.65zM85.85 267h3.75v-16.6c0-5.85-4.25-8.15-9.35-8.15a12.642 12.642 0 00-9.65 4l1.75 2.6a9.593 9.593 0 017.4-3.35c3.5 0 6.1 1.85 6.1 5.1v4.35a10.1 10.1 0 00-8-3.3c-4.1 0-8.45 2.55-8.45 7.95 0 5.25 4.35 8 8.45 8a10.446 10.446 0 008-3.35zm0-5.1a8.087 8.087 0 01-6.65 3c-3.5 0-5.95-2.2-5.95-5.25 0-3.1 2.45-5.3 5.95-5.3a8.087 8.087 0 016.65 3zM97.1 267h3.75v-33.35H97.1zm11.25 0h3.75v-33.35h-3.75zm24.3 0h21.85v-3.7h-17.7v-11.5h17.35v-3.7H136.8v-10.75h17.7v-3.7h-21.85zm28.45-12.95c0 8.2 4.55 13.55 13.6 13.55s13.6-5.3 13.6-13.6v-20.35h-4.15v20.3c0 6.1-3.3 9.95-9.45 9.95s-9.45-3.85-9.45-9.95v-20.3h-4.15zm51.5 22.15v-12.85a9.9 9.9 0 008.15 4.25c6.35 0 10.75-4.9 10.75-12.7 0-7.85-4.4-12.65-10.75-12.65a10.1 10.1 0 00-8.15 4.2v-3.6h-3.75v33.35zm14.95-21.3c0 5.35-2.9 9.35-7.75 9.35a8.971 8.971 0 01-7.2-3.9v-10.9a8.929 8.929 0 017.2-3.85c4.85 0 7.75 3.95 7.75 9.3zm26.3 12.1h3.75v-24.15h-3.75v17.75a9.239 9.239 0 01-7.15 3.65c-3.25 0-5.4-1.25-5.4-5.5v-15.9h-3.75v17.05c0 5.25 2.65 7.7 7.7 7.7a11.813 11.813 0 008.6-4zm11.25 0h3.75v-3.6a10.167 10.167 0 008.15 4.2c6.3 0 10.75-4.8 10.75-12.65 0-7.7-4.45-12.7-10.75-12.7a10.027 10.027 0 00-8.15 4.25v-12.85h-3.75zm3.75-6.55V249.5a8.971 8.971 0 017.2-3.9c4.9 0 7.8 4 7.8 9.35s-2.9 9.3-7.8 9.3a8.887 8.887 0 01-7.2-3.8zm25 6.55h3.75v-33.35h-3.75zm13.1-28.05a2.518 2.518 0 002.55-2.5 2.525 2.525 0 10-5.05 0 2.507 2.507 0 002.5 2.5zM305.1 267h3.75v-24.15h-3.75zm9.85-12.1c0 7.2 4.85 12.7 12.05 12.7a10.337 10.337 0 008.85-4.2l-2.5-2.3a7.282 7.282 0 01-6.15 3.15c-5.15 0-8.35-4-8.35-9.35s3.2-9.3 8.35-9.3a7.161 7.161 0 016.15 3.15l2.5-2.3a10.337 10.337 0 00-8.85-4.2c-7.2 0-12.05 5.5-12.05 12.65zm23.9 1.65h12v-3.3h-12zm18.3 10.45h3.75v-20.85h4.9v-3.3h-4.9V241c0-3.05 1.35-4.75 3.8-4.75a4.158 4.158 0 012.15.55l.95-2.8a6.925 6.925 0 00-3.65-.85c-4.2 0-7 2.85-7 7.85v1.85h-4v3.3h4zm28.2 0h3.75v-16.6c0-5.85-4.25-8.15-9.35-8.15a12.642 12.642 0 00-9.65 4l1.75 2.6a9.593 9.593 0 017.4-3.35c3.5 0 6.1 1.85 6.1 5.1v4.35a10.1 10.1 0 00-8-3.3c-4.1 0-8.45 2.55-8.45 7.95 0 5.25 4.35 8 8.45 8a10.446 10.446 0 008-3.35zm0-5.1a8.087 8.087 0 01-6.65 3c-3.5 0-5.95-2.2-5.95-5.25 0-3.1 2.45-5.3 5.95-5.3a8.087 8.087 0 016.65 3zm9.85-7c0 7.2 4.85 12.7 12.05 12.7a10.337 10.337 0 008.85-4.2l-2.5-2.3a7.282 7.282 0 01-6.15 3.15c-5.15 0-8.35-4-8.35-9.35s3.2-9.3 8.35-9.3a7.161 7.161 0 016.15 3.15l2.5-2.3a10.337 10.337 0 00-8.85-4.2c-7.2 0-12.05 5.5-12.05 12.65zm28-15.95a2.518 2.518 0 002.55-2.5 2.525 2.525 0 10-5.05 0 2.507 2.507 0 002.5 2.5zM421.35 267h3.75v-24.15h-3.75zm27.55 0h3.75v-16.95c0-5.25-2.65-7.8-7.7-7.8a11.979 11.979 0 00-8.6 4.1v-3.5h-3.75V267h3.75v-17.65a9.324 9.324 0 017.15-3.75c3.25 0 5.4 1.35 5.4 5.6zm11.2 6.2c2.85 2.8 5.65 3.6 9.75 3.6 5.9 0 11.5-2.5 11.5-10.5v-23.45h-3.75v3.65a10.005 10.005 0 00-8.1-4.25c-6.35 0-10.75 4.8-10.75 12.55 0 7.8 4.45 12.5 10.75 12.5a10.088 10.088 0 008.1-4.3v3.45c0 5.3-3.75 7.25-7.75 7.25-3.45 0-5.85-.9-7.85-3.3zm17.5-13.15a8.939 8.939 0 01-7.2 3.95c-4.85 0-7.75-3.9-7.75-9.2 0-5.35 2.9-9.2 7.75-9.2a8.9 8.9 0 017.2 3.9zM91.65 340h3.75l7.7-24.15h-3.9l-5.9 19.25-6.35-19.25h-3.2L77.4 335.1l-5.9-19.25h-3.9L75.3 340h3.75l6.3-19.4zm14.4-12.1c0 7.55 5.15 12.7 12.3 12.7a13.119 13.119 0 009.6-3.7l-1.8-2.45a10.556 10.556 0 01-7.45 3.05c-5.2 0-8.4-3.8-8.7-8.35h19.55v-.95c0-7.25-4.3-12.95-11.6-12.95-6.9 0-11.9 5.65-11.9 12.65zm11.85-9.55c5.5 0 7.9 4.45 7.95 8.05H110c.2-3.7 2.75-8.05 7.9-8.05zM135.6 340h3.75v-3.6a10.167 10.167 0 008.15 4.2c6.3 0 10.75-4.8 10.75-12.65 0-7.7-4.45-12.7-10.75-12.7a10.027 10.027 0 00-8.15 4.25v-12.85h-3.75zm3.75-6.55V322.5a8.971 8.971 0 017.2-3.9c4.9 0 7.8 4 7.8 9.35s-2.9 9.3-7.8 9.3a8.887 8.887 0 01-7.2-3.8zm22.9 3.35a12.846 12.846 0 009.75 3.8c6.25 0 9.5-3.25 9.5-7.3 0-5.35-4.85-6.55-9.05-7.5-3.15-.75-5.9-1.5-5.9-3.85 0-2.15 2.05-3.65 5.35-3.65a9.408 9.408 0 017.2 3.05l1.75-2.6a12.221 12.221 0 00-8.95-3.5c-5.75 0-9 3.2-9 6.95 0 5 4.65 6.1 8.75 7.05 3.25.8 6.2 1.65 6.2 4.3 0 2.35-2 4-5.7 4a10.942 10.942 0 01-7.95-3.45zm27.2-24.85a2.518 2.518 0 002.55-2.5 2.525 2.525 0 10-5.05 0 2.507 2.507 0 002.5 2.5zM187.6 340h3.75v-24.15h-3.75zm17.35.6a6.129 6.129 0 004.5-1.55l-1.1-2.8a3.618 3.618 0 01-2.55 1c-1.65 0-2.45-1.3-2.45-3.1v-15h4.9v-3.3h-4.9v-6.6h-3.75v6.6h-4v3.3h4v15.8c0 3.6 1.8 5.65 5.35 5.65zm7.2-12.7c0 7.55 5.15 12.7 12.3 12.7a13.119 13.119 0 009.6-3.7l-1.8-2.45a10.556 10.556 0 01-7.45 3.05c-5.2 0-8.4-3.8-8.7-8.35h19.55v-.95c0-7.25-4.3-12.95-11.6-12.95-6.9 0-11.9 5.65-11.9 12.65zm11.85-9.55c5.5 0 7.9 4.45 7.95 8.05H216.1c.2-3.7 2.75-8.05 7.9-8.05zm15.6 18.45a12.846 12.846 0 009.75 3.8c6.25 0 9.5-3.25 9.5-7.3 0-5.35-4.85-6.55-9.05-7.5-3.15-.75-5.9-1.5-5.9-3.85 0-2.15 2.05-3.65 5.35-3.65a9.408 9.408 0 017.2 3.05l1.75-2.6a12.221 12.221 0 00-8.95-3.5c-5.75 0-9 3.2-9 6.95 0 5 4.65 6.1 8.75 7.05 3.25.8 6.2 1.65 6.2 4.3 0 2.35-2 4-5.7 4a10.942 10.942 0 01-7.95-3.45zM307 340h3.75v-17.45c0-4.85-2.35-7.3-6.75-7.3a10.165 10.165 0 00-8.1 4.5c-.7-2.5-2.8-4.5-6.5-4.5a10.439 10.439 0 00-7.8 4.1v-3.5h-3.75V340h3.75v-17.65a8.432 8.432 0 016.35-3.75c3.15 0 4.45 1.95 4.45 5V340h3.75v-17.7a8.448 8.448 0 016.4-3.7c3.1 0 4.45 1.95 4.45 5zm27.55 0h3.75v-24.15h-3.75v17.75a9.239 9.239 0 01-7.15 3.65c-3.25 0-5.4-1.25-5.4-5.5v-15.9h-3.75v17.05c0 5.25 2.65 7.7 7.7 7.7a11.813 11.813 0 008.6-4zm9.15-3.2a12.846 12.846 0 009.75 3.8c6.25 0 9.5-3.25 9.5-7.3 0-5.35-4.85-6.55-9.05-7.5-3.15-.75-5.9-1.5-5.9-3.85 0-2.15 2.05-3.65 5.35-3.65a9.408 9.408 0 017.2 3.05l1.75-2.6a12.221 12.221 0 00-8.95-3.5c-5.75 0-9 3.2-9 6.95 0 5 4.65 6.1 8.75 7.05 3.25.8 6.2 1.65 6.2 4.3 0 2.35-2 4-5.7 4a10.942 10.942 0 01-7.95-3.45zm31.45 3.8a6.129 6.129 0 004.5-1.55l-1.1-2.8a3.618 3.618 0 01-2.55 1c-1.65 0-2.45-1.3-2.45-3.1v-15h4.9v-3.3h-4.9v-6.6h-3.75v6.6h-4v3.3h4v15.8c0 3.6 1.8 5.65 5.35 5.65zm50.65-.6h3.75v-17.45c0-4.85-2.35-7.3-6.75-7.3a10.165 10.165 0 00-8.1 4.5c-.7-2.5-2.8-4.5-6.5-4.5a10.439 10.439 0 00-7.8 4.1v-3.5h-3.75V340h3.75v-17.65a8.432 8.432 0 016.35-3.75c3.15 0 4.45 1.95 4.45 5V340h3.75v-17.7a8.448 8.448 0 016.4-3.7c3.1 0 4.45 1.95 4.45 5zm9.85-12.1c0 7.55 5.15 12.7 12.3 12.7a13.119 13.119 0 009.6-3.7l-1.8-2.45a10.556 10.556 0 01-7.45 3.05c-5.2 0-8.4-3.8-8.7-8.35h19.55v-.95c0-7.25-4.3-12.95-11.6-12.95-6.9 0-11.9 5.65-11.9 12.65zm11.85-9.55c5.5 0 7.9 4.45 7.95 8.05H439.6c.2-3.7 2.75-8.05 7.9-8.05zm16.3 9.55c0 7.55 5.15 12.7 12.3 12.7a13.119 13.119 0 009.6-3.7l-1.8-2.45a10.556 10.556 0 01-7.45 3.05c-5.2 0-8.4-3.8-8.7-8.35h19.55v-.95c0-7.25-4.3-12.95-11.6-12.95-6.9 0-11.9 5.65-11.9 12.65zm11.85-9.55c5.5 0 7.9 4.45 7.95 8.05h-15.85c.2-3.7 2.75-8.05 7.9-8.05zm23.8 22.25a6.129 6.129 0 004.5-1.55l-1.1-2.8a3.618 3.618 0 01-2.55 1c-1.65 0-2.45-1.3-2.45-3.1v-15h4.9v-3.3h-4.9v-6.6h-3.75v6.6h-4v3.3h4v15.8c0 3.6 1.8 5.65 5.35 5.65zM96.4 413h4.5l9.5-33.35h-4.6l-7.35 27.8-7.65-27.8h-3.45l-7.65 27.8-7.4-27.8h-4.6L77.2 413h4.5l7.35-26.9zm15.1-12.1c0 7.55 5.15 12.7 12.3 12.7a13.119 13.119 0 009.6-3.7l-1.8-2.45a10.556 10.556 0 01-7.45 3.05c-5.2 0-8.4-3.8-8.7-8.35H135v-.95c0-7.25-4.3-12.95-11.6-12.95-6.9 0-11.9 5.65-11.9 12.65zm11.85-9.55c5.5 0 7.9 4.45 7.95 8.05h-15.85c.2-3.7 2.75-8.05 7.9-8.05zm17.7 21.65h3.75v-3.6a10.167 10.167 0 008.15 4.2c6.3 0 10.75-4.8 10.75-12.65 0-7.7-4.45-12.7-10.75-12.7a10.027 10.027 0 00-8.15 4.25v-12.85h-3.75zm3.75-6.55V395.5a8.971 8.971 0 017.2-3.9c4.9 0 7.8 4 7.8 9.35s-2.9 9.3-7.8 9.3a8.887 8.887 0 01-7.2-3.8zm53.7 7.15a15.165 15.165 0 0012.85-6.6l-3.55-1.95a11.193 11.193 0 01-9.3 4.85c-7.15 0-12.7-5.65-12.7-13.55 0-7.95 5.55-13.55 12.7-13.55a11.319 11.319 0 019.3 4.85l3.5-1.95a14.994 14.994 0 00-12.8-6.6c-9.45 0-17 7-17 17.25s7.55 17.25 17 17.25zm28.55 0c7.35 0 11.95-5.7 11.95-12.7s-4.6-12.65-11.95-12.65-11.95 5.65-11.95 12.65 4.6 12.7 11.95 12.7zm0-3.35c-5.15 0-8.05-4.4-8.05-9.35 0-4.9 2.9-9.3 8.05-9.3s8 4.4 8 9.3c0 4.95-2.85 9.35-8 9.35zM261.4 413h3.75v-16.95c0-5.25-2.65-7.8-7.7-7.8a11.979 11.979 0 00-8.6 4.1v-3.5h-3.75V413h3.75v-17.65a9.324 9.324 0 017.15-3.75c3.25 0 5.4 1.35 5.4 5.6zm17.35.6a6.129 6.129 0 004.5-1.55l-1.1-2.8a3.618 3.618 0 01-2.55 1c-1.65 0-2.45-1.3-2.45-3.1v-15h4.9v-3.3h-4.9v-6.6h-3.75v6.6h-4v3.3h4v15.8c0 3.6 1.8 5.65 5.35 5.65zm7.2-12.7c0 7.55 5.15 12.7 12.3 12.7a13.119 13.119 0 009.6-3.7l-1.8-2.45a10.556 10.556 0 01-7.45 3.05c-5.2 0-8.4-3.8-8.7-8.35h19.55v-.95c0-7.25-4.3-12.95-11.6-12.95-6.9 0-11.9 5.65-11.9 12.65zm11.85-9.55c5.5 0 7.9 4.45 7.95 8.05H289.9c.2-3.7 2.75-8.05 7.9-8.05zm34 21.65h3.75v-16.95c0-5.25-2.65-7.8-7.7-7.8a11.979 11.979 0 00-8.6 4.1v-3.5h-3.75V413h3.75v-17.65a9.324 9.324 0 017.15-3.75c3.25 0 5.4 1.35 5.4 5.6zm17.35.6a6.129 6.129 0 004.5-1.55l-1.1-2.8a3.618 3.618 0 01-2.55 1c-1.65 0-2.45-1.3-2.45-3.1v-15h4.9v-3.3h-4.9v-6.6h-3.75v6.6h-4v3.3h4v15.8c0 3.6 1.8 5.65 5.35 5.65zM94.85 486h4.6L86 452.65h-5.15L67.45 486h4.6l2.95-7.4h16.9zm-11.4-29.65l7.2 18.55H76.2zm18.8 17.55c0 7.2 4.85 12.7 12.05 12.7a10.337 10.337 0 008.85-4.2l-2.5-2.3a7.282 7.282 0 01-6.15 3.15c-5.15 0-8.35-4-8.35-9.35s3.2-9.3 8.35-9.3a7.161 7.161 0 016.15 3.15l2.5-2.3a10.337 10.337 0 00-8.85-4.2c-7.2 0-12.05 5.5-12.05 12.65zm24.75 0c0 7.2 4.85 12.7 12.05 12.7a10.337 10.337 0 008.85-4.2l-2.5-2.3a7.282 7.282 0 01-6.15 3.15c-5.15 0-8.35-4-8.35-9.35s3.2-9.3 8.35-9.3a7.161 7.161 0 016.15 3.15l2.5-2.3a10.337 10.337 0 00-8.85-4.2c-7.2 0-12.05 5.5-12.05 12.65zm24.75 0c0 7.55 5.15 12.7 12.3 12.7a13.119 13.119 0 009.6-3.7l-1.8-2.45a10.556 10.556 0 01-7.45 3.05c-5.2 0-8.4-3.8-8.7-8.35h19.55v-.95c0-7.25-4.3-12.95-11.6-12.95-6.9 0-11.9 5.65-11.9 12.65zm11.85-9.55c5.5 0 7.9 4.45 7.95 8.05H155.7c.2-3.7 2.75-8.05 7.9-8.05zm15.6 18.45a12.846 12.846 0 009.75 3.8c6.25 0 9.5-3.25 9.5-7.3 0-5.35-4.85-6.55-9.05-7.5-3.15-.75-5.9-1.5-5.9-3.85 0-2.15 2.05-3.65 5.35-3.65a9.408 9.408 0 017.2 3.05l1.75-2.6a12.221 12.221 0 00-8.95-3.5c-5.75 0-9 3.2-9 6.95 0 5 4.65 6.1 8.75 7.05 3.25.8 6.2 1.65 6.2 4.3 0 2.35-2 4-5.7 4a10.942 10.942 0 01-7.95-3.45zm23.25 0a12.846 12.846 0 009.75 3.8c6.25 0 9.5-3.25 9.5-7.3 0-5.35-4.85-6.55-9.05-7.5-3.15-.75-5.9-1.5-5.9-3.85 0-2.15 2.05-3.65 5.35-3.65a9.408 9.408 0 017.2 3.05l1.75-2.6a12.221 12.221 0 00-8.95-3.5c-5.75 0-9 3.2-9 6.95 0 5 4.65 6.1 8.75 7.05 3.25.8 6.2 1.65 6.2 4.3 0 2.35-2 4-5.7 4a10.942 10.942 0 01-7.95-3.45zm27.2-24.85a2.518 2.518 0 002.55-2.5 2.525 2.525 0 10-5.05 0 2.507 2.507 0 002.5 2.5zM227.8 486h3.75v-24.15h-3.75zm11.25 0h3.75v-3.6a10.167 10.167 0 008.15 4.2c6.3 0 10.75-4.8 10.75-12.65 0-7.7-4.45-12.7-10.75-12.7a10.027 10.027 0 00-8.15 4.25v-12.85h-3.75zm3.75-6.55V468.5a8.971 8.971 0 017.2-3.9c4.9 0 7.8 4 7.8 9.35s-2.9 9.3-7.8 9.3a8.887 8.887 0 01-7.2-3.8zm26.85-21.5a2.518 2.518 0 002.55-2.5 2.525 2.525 0 10-5.05 0 2.507 2.507 0 002.5 2.5zM267.8 486h3.75v-24.15h-3.75zm11.25 0h3.75v-33.35h-3.75zm13.1-28.05a2.518 2.518 0 002.55-2.5 2.525 2.525 0 10-5.05 0 2.507 2.507 0 002.5 2.5zM290.3 486h3.75v-24.15h-3.75zm17.35.6a6.129 6.129 0 004.5-1.55l-1.1-2.8a3.618 3.618 0 01-2.55 1c-1.65 0-2.45-1.3-2.45-3.1v-15h4.9v-3.3h-4.9v-6.6h-3.75v6.6h-4v3.3h4v15.8c0 3.6 1.8 5.65 5.35 5.65zm7.85 5.45l-.6 3.4a12.175 12.175 0 002.75.35 7.179 7.179 0 007.1-4.9l12.1-29.05h-4.1l-8 19.8-8.05-19.8h-4.05l10.1 24.4-1.6 3.65c-.85 2-1.95 2.55-3.6 2.55a5.752 5.752 0 01-2.05-.4zm36.95-22.7c0 10.35 7.65 17.3 17.15 17.3a17.37 17.37 0 0013.1-5.75v-12.05h-15.6v3.7h11.45v6.8a13.158 13.158 0 01-8.95 3.6c-7.3 0-12.85-5.7-12.85-13.6 0-7.95 5.55-13.55 12.85-13.55a12.3 12.3 0 019.65 4.6l3.3-2.05a15.9 15.9 0 00-12.95-6.25c-9.5 0-17.15 6.9-17.15 17.25zM405.6 486h3.75v-24.15h-3.75v17.75a9.239 9.239 0 01-7.15 3.65c-3.25 0-5.4-1.25-5.4-5.5v-15.9h-3.75v17.05c0 5.25 2.65 7.7 7.7 7.7a11.813 11.813 0 008.6-4zm13.1-28.05a2.518 2.518 0 002.55-2.5 2.525 2.525 0 10-5.05 0 2.507 2.507 0 002.5 2.5zM416.85 486h3.75v-24.15h-3.75zm28.75 0h3.75v-33.35h-3.75v12.85a10.1 10.1 0 00-8.15-4.25c-6.35 0-10.75 5-10.75 12.7 0 7.85 4.45 12.65 10.75 12.65a10.167 10.167 0 008.15-4.2zm0-6.55a8.982 8.982 0 01-7.25 3.8c-4.85 0-7.75-3.95-7.75-9.3s2.9-9.35 7.75-9.35a9.066 9.066 0 017.25 3.9zm9.85-5.55c0 7.55 5.15 12.7 12.3 12.7a13.119 13.119 0 009.6-3.7l-1.8-2.45a10.556 10.556 0 01-7.45 3.05c-5.2 0-8.4-3.8-8.7-8.35h19.55v-.95c0-7.25-4.3-12.95-11.6-12.95-6.9 0-11.9 5.65-11.9 12.65zm11.85-9.55c5.5 0 7.9 4.45 7.95 8.05H459.4c.2-3.7 2.75-8.05 7.9-8.05zM485 486h3.75v-33.35H485zm13.1-28.05a2.518 2.518 0 002.55-2.5 2.525 2.525 0 10-5.05 0 2.507 2.507 0 002.5 2.5zM496.25 486H500v-24.15h-3.75zm27.55 0h3.75v-16.95c0-5.25-2.65-7.8-7.7-7.8a11.979 11.979 0 00-8.6 4.1v-3.5h-3.75V486h3.75v-17.65a9.324 9.324 0 017.15-3.75c3.25 0 5.4 1.35 5.4 5.6zm9.85-12.1c0 7.55 5.15 12.7 12.3 12.7a13.119 13.119 0 009.6-3.7l-1.8-2.45a10.556 10.556 0 01-7.45 3.05c-5.2 0-8.4-3.8-8.7-8.35h19.55v-.95c0-7.25-4.3-12.95-11.6-12.95-6.9 0-11.9 5.65-11.9 12.65zm11.85-9.55c5.5 0 7.9 4.45 7.95 8.05H537.6c.2-3.7 2.75-8.05 7.9-8.05zm15.6 18.45a12.846 12.846 0 009.75 3.8c6.25 0 9.5-3.25 9.5-7.3 0-5.35-4.85-6.55-9.05-7.5-3.15-.75-5.9-1.5-5.9-3.85 0-2.15 2.05-3.65 5.35-3.65a9.408 9.408 0 017.2 3.05l1.75-2.6a12.221 12.221 0 00-8.95-3.5c-5.75 0-9 3.2-9 6.95 0 5 4.65 6.1 8.75 7.05 3.25.8 6.2 1.65 6.2 4.3 0 2.35-2 4-5.7 4a10.942 10.942 0 01-7.95-3.45zM76.25 568.95l2.25-1.75c-3.2-6.3-5.2-12.05-5.2-20.35 0-8.35 2-14.05 5.2-20.4l-2.25-1.7a38.164 38.164 0 000 44.2zM108.8 559h4.5l9.5-33.35h-4.6l-7.35 27.8-7.65-27.8h-3.45l-7.65 27.8-7.4-27.8h-4.6L89.6 559h4.5l7.35-26.9zm33.3.6a15.165 15.165 0 0012.85-6.6l-3.55-1.95a11.193 11.193 0 01-9.3 4.85c-7.15 0-12.7-5.65-12.7-13.55 0-7.95 5.55-13.55 12.7-13.55a11.319 11.319 0 019.3 4.85l3.5-1.95a14.994 14.994 0 00-12.8-6.6c-9.45 0-17 7-17 17.25s7.55 17.25 17 17.25zm41.95-.6h4.6l-13.45-33.35h-5.15L156.65 559h4.6l2.95-7.4h16.9zm-11.4-29.65l7.2 18.55H165.4zm17.15 13c0 10.35 7.65 17.3 17.15 17.3a17.37 17.37 0 0013.1-5.75v-12.05h-15.6v3.7h11.45v6.8a13.158 13.158 0 01-8.95 3.6c-7.3 0-12.85-5.7-12.85-13.6 0-7.95 5.55-13.55 12.85-13.55a12.3 12.3 0 019.65 4.6l3.3-2.05a15.9 15.9 0 00-12.95-6.25c-9.5 0-17.15 6.9-17.15 17.25zm39.2 4.5c0 8.3-2 14.05-5.25 20.35l2.25 1.75a37.945 37.945 0 000-44.2l-2.25 1.7c3.25 6.35 5.25 12.05 5.25 20.4z" data-name="Path 1998"/>
  </g>
</svg>
