<svg xmlns="http://www.w3.org/2000/svg" viewBox="0 0 1280 800">
  <defs>
    <clipPath id="a">
      <path d="M0 0h1280v800H0z"/>
    </clipPath>
    <filter id="b" width="775.826" height="130.623" x="409.673" y="305.566" filterUnits="userSpaceOnUse">
      <feOffset dy="5"/>
      <feGaussianBlur result="blur" stdDeviation="3.5"/>
      <feFlood flood-opacity=".161"/>
      <feComposite in2="blur" operator="in"/>
      <feComposite in="SourceGraphic"/>
    </filter>
  </defs>
  <g clip-path="url(#a)" data-name="2019-010-23-crisis-management-training01">
    <path fill="#004b63" d="M0 0h1280v800H0z"/>
    <g fill="#fff" data-name="Group 68" opacity=".03">
      <path d="M28.309-.001H13.353v13.353H0v14.956h13.353V41.66h14.956V28.308h13.353V13.353H28.309z" data-name="Path 169"/>
      <path d="M1266.309-.001h-14.956v13.353H1238v14.956h13.353V41.66h14.956V28.308h13.353V13.353h-13.353z" data-name="Path 170"/>
      <path d="M1142.309-.001h-14.956v13.353H1114v14.956h13.353V41.66h14.956V28.308h13.353V13.353h-13.353z" data-name="Path 171"/>
      <path d="M1018.309-.001h-14.956v13.353H990v14.956h13.353V41.66h14.956V28.308h13.353V13.353h-13.353z" data-name="Path 172"/>
      <path d="M647.309-.001h-14.956v13.353H619v14.956h13.353V41.66h14.956V28.308h13.353V13.353h-13.353z" data-name="Path 173"/>
      <path d="M771.309-.001h-14.956v13.353H743v14.956h13.353V41.66h14.956V28.308h13.353V13.353h-13.353z" data-name="Path 177"/>
      <path d="M895.309-.001h-14.956v13.353H867v14.956h13.353V41.66h14.956V28.308h13.353V13.353h-13.353z" data-name="Path 179"/>
      <path d="M276.309-.001h-14.956v13.353H248v14.956h13.353V41.66h14.956V28.308h13.353V13.353h-13.353z" data-name="Path 174"/>
      <path d="M152.309-.001h-14.956v13.353H124v14.956h13.353V41.66h14.956V28.308h13.353V13.353h-13.353z" data-name="Path 175"/>
      <path d="M399.309-.001h-14.956v13.353H371v14.956h13.353V41.66h14.956V28.308h13.353V13.353h-13.353z" data-name="Path 176"/>
      <path d="M523.309-.001h-14.956v13.353H495v14.956h13.353V41.66h14.956V28.308h13.353V13.353h-13.353z" data-name="Path 178"/>
    </g>
    <g fill="#fff" data-name="Group 69" opacity=".03">
      <path d="M28.309 97.999H13.353v13.353H0v14.956h13.353v13.352h14.956v-13.352h13.353v-14.955H28.309z" data-name="Path 169"/>
      <path d="M1266.309 97.999h-14.956v13.353H1238v14.956h13.353v13.352h14.956v-13.352h13.353v-14.955h-13.353z" data-name="Path 170"/>
      <path d="M1142.309 97.999h-14.956v13.353H1114v14.956h13.353v13.352h14.956v-13.352h13.353v-14.955h-13.353z" data-name="Path 171"/>
      <path d="M1018.309 97.999h-14.956v13.353H990v14.956h13.353v13.352h14.956v-13.352h13.353v-14.955h-13.353z" data-name="Path 172"/>
      <path d="M647.309 97.999h-14.956v13.353H619v14.956h13.353v13.352h14.956v-13.352h13.353v-14.955h-13.353z" data-name="Path 173"/>
      <path d="M771.309 97.999h-14.956v13.353H743v14.956h13.353v13.352h14.956v-13.352h13.353v-14.955h-13.353z" data-name="Path 177"/>
      <path d="M895.309 97.999h-14.956v13.353H867v14.956h13.353v13.352h14.956v-13.352h13.353v-14.955h-13.353z" data-name="Path 179"/>
      <path d="M276.309 97.999h-14.956v13.353H248v14.956h13.353v13.352h14.956v-13.352h13.353v-14.955h-13.353z" data-name="Path 174"/>
      <path d="M152.309 97.999h-14.956v13.353H124v14.956h13.353v13.352h14.956v-13.352h13.353v-14.955h-13.353z" data-name="Path 175"/>
      <path d="M399.309 97.999h-14.956v13.353H371v14.956h13.353v13.352h14.956v-13.352h13.353v-14.955h-13.353z" data-name="Path 176"/>
      <path d="M523.309 97.999h-14.956v13.353H495v14.956h13.353v13.352h14.956v-13.352h13.353v-14.955h-13.353z" data-name="Path 178"/>
    </g>
    <g fill="#fff" data-name="Group 70" opacity=".03">
      <path d="M28.309 195.999H13.353v13.353H0v14.956h13.353v13.352h14.956v-13.352h13.353v-14.955H28.309z" data-name="Path 169"/>
      <path d="M1266.309 195.999h-14.956v13.353H1238v14.956h13.353v13.352h14.956v-13.352h13.353v-14.955h-13.353z" data-name="Path 170"/>
      <path d="M1142.309 195.999h-14.956v13.353H1114v14.956h13.353v13.352h14.956v-13.352h13.353v-14.955h-13.353z" data-name="Path 171"/>
      <path d="M1018.309 195.999h-14.956v13.353H990v14.956h13.353v13.352h14.956v-13.352h13.353v-14.955h-13.353z" data-name="Path 172"/>
      <path d="M647.309 195.999h-14.956v13.353H619v14.956h13.353v13.352h14.956v-13.352h13.353v-14.955h-13.353z" data-name="Path 173"/>
      <path d="M771.309 195.999h-14.956v13.353H743v14.956h13.353v13.352h14.956v-13.352h13.353v-14.955h-13.353z" data-name="Path 177"/>
      <path d="M895.309 195.999h-14.956v13.353H867v14.956h13.353v13.352h14.956v-13.352h13.353v-14.955h-13.353z" data-name="Path 179"/>
      <path d="M276.309 195.999h-14.956v13.353H248v14.956h13.353v13.352h14.956v-13.352h13.353v-14.955h-13.353z" data-name="Path 174"/>
      <path d="M152.309 195.999h-14.956v13.353H124v14.956h13.353v13.352h14.956v-13.352h13.353v-14.955h-13.353z" data-name="Path 175"/>
      <path d="M399.309 195.999h-14.956v13.353H371v14.956h13.353v13.352h14.956v-13.352h13.353v-14.955h-13.353z" data-name="Path 176"/>
      <path d="M523.309 195.999h-14.956v13.353H495v14.956h13.353v13.352h14.956v-13.352h13.353v-14.955h-13.353z" data-name="Path 178"/>
    </g>
    <g fill="#fff" data-name="Group 71" opacity=".03">
      <path d="M28.309 683.999H13.353v13.353H0v14.956h13.353v13.352h14.956v-13.352h13.353v-14.955H28.309z" data-name="Path 169"/>
      <path d="M1266.309 683.999h-14.956v13.353H1238v14.956h13.353v13.352h14.956v-13.352h13.353v-14.955h-13.353z" data-name="Path 170"/>
      <path d="M1142.309 683.999h-14.956v13.353H1114v14.956h13.353v13.352h14.956v-13.352h13.353v-14.955h-13.353z" data-name="Path 171"/>
      <path d="M1018.309 683.999h-14.956v13.353H990v14.956h13.353v13.352h14.956v-13.352h13.353v-14.955h-13.353z" data-name="Path 172"/>
      <path d="M647.309 683.999h-14.956v13.353H619v14.956h13.353v13.352h14.956v-13.352h13.353v-14.955h-13.353z" data-name="Path 173"/>
      <path d="M771.309 683.999h-14.956v13.353H743v14.956h13.353v13.352h14.956v-13.352h13.353v-14.955h-13.353z" data-name="Path 177"/>
      <path d="M895.309 683.999h-14.956v13.353H867v14.956h13.353v13.352h14.956v-13.352h13.353v-14.955h-13.353z" data-name="Path 179"/>
      <path d="M276.309 683.999h-14.956v13.353H248v14.956h13.353v13.352h14.956v-13.352h13.353v-14.955h-13.353z" data-name="Path 174"/>
      <path d="M152.309 683.999h-14.956v13.353H124v14.956h13.353v13.352h14.956v-13.352h13.353v-14.955h-13.353z" data-name="Path 175"/>
      <path d="M399.309 683.999h-14.956v13.353H371v14.956h13.353v13.352h14.956v-13.352h13.353v-14.955h-13.353z" data-name="Path 176"/>
      <path d="M523.309 683.999h-14.956v13.353H495v14.956h13.353v13.352h14.956v-13.352h13.353v-14.955h-13.353z" data-name="Path 178"/>
    </g>
    <g fill="#fff" data-name="Group 72" opacity=".03">
      <path d="M28.309 585.999H13.353v13.353H0v14.956h13.353v13.352h14.956v-13.352h13.353v-14.955H28.309z" data-name="Path 169"/>
      <path d="M1266.309 585.999h-14.956v13.353H1238v14.956h13.353v13.352h14.956v-13.352h13.353v-14.955h-13.353z" data-name="Path 170"/>
      <path d="M1142.309 585.999h-14.956v13.353H1114v14.956h13.353v13.352h14.956v-13.352h13.353v-14.955h-13.353z" data-name="Path 171"/>
      <path d="M1018.309 585.999h-14.956v13.353H990v14.956h13.353v13.352h14.956v-13.352h13.353v-14.955h-13.353z" data-name="Path 172"/>
      <path d="M647.309 585.999h-14.956v13.353H619v14.956h13.353v13.352h14.956v-13.352h13.353v-14.955h-13.353z" data-name="Path 173"/>
      <path d="M771.309 585.999h-14.956v13.353H743v14.956h13.353v13.352h14.956v-13.352h13.353v-14.955h-13.353z" data-name="Path 177"/>
      <path d="M895.309 585.999h-14.956v13.353H867v14.956h13.353v13.352h14.956v-13.352h13.353v-14.955h-13.353z" data-name="Path 179"/>
      <path d="M276.309 585.999h-14.956v13.353H248v14.956h13.353v13.352h14.956v-13.352h13.353v-14.955h-13.353z" data-name="Path 174"/>
      <path d="M152.309 585.999h-14.956v13.353H124v14.956h13.353v13.352h14.956v-13.352h13.353v-14.955h-13.353z" data-name="Path 175"/>
      <path d="M399.309 585.999h-14.956v13.353H371v14.956h13.353v13.352h14.956v-13.352h13.353v-14.955h-13.353z" data-name="Path 176"/>
      <path d="M523.309 585.999h-14.956v13.353H495v14.956h13.353v13.352h14.956v-13.352h13.353v-14.955h-13.353z" data-name="Path 178"/>
    </g>
    <g fill="#fff" data-name="Group 73" opacity=".03">
      <path d="M28.309 488.999H13.353v13.353H0v14.956h13.353v13.352h14.956v-13.352h13.353v-14.955H28.309z" data-name="Path 169"/>
      <path d="M1266.309 488.999h-14.956v13.353H1238v14.956h13.353v13.352h14.956v-13.352h13.353v-14.955h-13.353z" data-name="Path 170"/>
      <path d="M1142.309 488.999h-14.956v13.353H1114v14.956h13.353v13.352h14.956v-13.352h13.353v-14.955h-13.353z" data-name="Path 171"/>
      <path d="M1018.309 488.999h-14.956v13.353H990v14.956h13.353v13.352h14.956v-13.352h13.353v-14.955h-13.353z" data-name="Path 172"/>
      <path d="M647.309 488.999h-14.956v13.353H619v14.956h13.353v13.352h14.956v-13.352h13.353v-14.955h-13.353z" data-name="Path 173"/>
      <path d="M771.309 488.999h-14.956v13.353H743v14.956h13.353v13.352h14.956v-13.352h13.353v-14.955h-13.353z" data-name="Path 177"/>
      <path d="M895.309 488.999h-14.956v13.353H867v14.956h13.353v13.352h14.956v-13.352h13.353v-14.955h-13.353z" data-name="Path 179"/>
      <path d="M276.309 488.999h-14.956v13.353H248v14.956h13.353v13.352h14.956v-13.352h13.353v-14.955h-13.353z" data-name="Path 174"/>
      <path d="M152.309 488.999h-14.956v13.353H124v14.956h13.353v13.352h14.956v-13.352h13.353v-14.955h-13.353z" data-name="Path 175"/>
      <path d="M399.309 488.999h-14.956v13.353H371v14.956h13.353v13.352h14.956v-13.352h13.353v-14.955h-13.353z" data-name="Path 176"/>
      <path d="M523.309 488.999h-14.956v13.353H495v14.956h13.353v13.352h14.956v-13.352h13.353v-14.955h-13.353z" data-name="Path 178"/>
    </g>
    <g fill="#fff" data-name="Group 74" opacity=".03">
      <path d="M28.309 390.999H13.353v13.353H0v14.956h13.353v13.352h14.956v-13.352h13.353v-14.955H28.309z" data-name="Path 169"/>
      <path d="M1266.309 390.999h-14.956v13.353H1238v14.956h13.353v13.352h14.956v-13.352h13.353v-14.955h-13.353z" data-name="Path 170"/>
      <path d="M1142.309 390.999h-14.956v13.353H1114v14.956h13.353v13.352h14.956v-13.352h13.353v-14.955h-13.353z" data-name="Path 171"/>
      <path d="M1018.309 390.999h-14.956v13.353H990v14.956h13.353v13.352h14.956v-13.352h13.353v-14.955h-13.353z" data-name="Path 172"/>
      <path d="M647.309 390.999h-14.956v13.353H619v14.956h13.353v13.352h14.956v-13.352h13.353v-14.955h-13.353z" data-name="Path 173"/>
      <path d="M771.309 390.999h-14.956v13.353H743v14.956h13.353v13.352h14.956v-13.352h13.353v-14.955h-13.353z" data-name="Path 177"/>
      <path d="M895.309 390.999h-14.956v13.353H867v14.956h13.353v13.352h14.956v-13.352h13.353v-14.955h-13.353z" data-name="Path 179"/>
      <path d="M276.309 390.999h-14.956v13.353H248v14.956h13.353v13.352h14.956v-13.352h13.353v-14.955h-13.353z" data-name="Path 174"/>
      <path d="M152.309 390.999h-14.956v13.353H124v14.956h13.353v13.352h14.956v-13.352h13.353v-14.955h-13.353z" data-name="Path 175"/>
      <path d="M399.309 390.999h-14.956v13.353H371v14.956h13.353v13.352h14.956v-13.352h13.353v-14.955h-13.353z" data-name="Path 176"/>
      <path d="M523.309 390.999h-14.956v13.353H495v14.956h13.353v13.352h14.956v-13.352h13.353v-14.955h-13.353z" data-name="Path 178"/>
    </g>
    <g fill="#fff" data-name="Group 75" opacity=".03">
      <path d="M28.309 292.999H13.353v13.353H0v14.956h13.353v13.352h14.956v-13.352h13.353v-14.955H28.309z" data-name="Path 169"/>
      <path d="M1266.309 292.999h-14.956v13.353H1238v14.956h13.353v13.352h14.956v-13.352h13.353v-14.955h-13.353z" data-name="Path 170"/>
      <path d="M1142.309 292.999h-14.956v13.353H1114v14.956h13.353v13.352h14.956v-13.352h13.353v-14.955h-13.353z" data-name="Path 171"/>
      <path d="M1018.309 292.999h-14.956v13.353H990v14.956h13.353v13.352h14.956v-13.352h13.353v-14.955h-13.353z" data-name="Path 172"/>
      <path d="M647.309 292.999h-14.956v13.353H619v14.956h13.353v13.352h14.956v-13.352h13.353v-14.955h-13.353z" data-name="Path 173"/>
      <path d="M771.309 292.999h-14.956v13.353H743v14.956h13.353v13.352h14.956v-13.352h13.353v-14.955h-13.353z" data-name="Path 177"/>
      <path d="M895.309 292.999h-14.956v13.353H867v14.956h13.353v13.352h14.956v-13.352h13.353v-14.955h-13.353z" data-name="Path 179"/>
      <path d="M276.309 292.999h-14.956v13.353H248v14.956h13.353v13.352h14.956v-13.352h13.353v-14.955h-13.353z" data-name="Path 174"/>
      <path d="M152.309 292.999h-14.956v13.353H124v14.956h13.353v13.352h14.956v-13.352h13.353v-14.955h-13.353z" data-name="Path 175"/>
      <path d="M399.309 292.999h-14.956v13.353H371v14.956h13.353v13.352h14.956v-13.352h13.353v-14.955h-13.353z" data-name="Path 176"/>
      <path d="M523.309 292.999h-14.956v13.353H495v14.956h13.353v13.352h14.956v-13.352h13.353v-14.955h-13.353z" data-name="Path 178"/>
    </g>
    <path fill="#e45746" d="M0 726h1280v74H0z" data-name="Rectangle 44"/>
    <g fill="#fff" data-name="Group 52">
      <path d="M983.029 779.457h9.954a1.93 1.93 0 001.935-1.843v-6.821a36.608 36.608 0 01-11.889 8.664z" data-name="Path 137"/>
      <path d="M980.817 756.323c-.092-1.751-1.383-2.857-4.148-2.577-5.437.365-9.583 6.54-10.783 12.9 11.8-.922 15.023-8.111 14.931-10.323z" data-name="Path 138"/>
      <path d="M979.803 749.963c5.622-.369 8.2 1.843 8.387 4.608.461 6.083-9.493 13.272-22.581 14.378h-.184a10.209 10.209 0 00.369 5.069c.922 2.4 3.318 3.318 6.083 3.318 12.166 0 21.106-13.456 23.041-19.539v-9.954a1.871 1.871 0 00-1.935-1.843h-29.678a1.849 1.849 0 00-1.843 1.843v13.641c4.793-6.084 12.166-11.06 18.341-11.521z" data-name="Path 139"/>
      <g>
        <path d="M1019.344 768.673a4.855 4.855 0 003.779-1.659l1.106.922a6.365 6.365 0 01-4.885 2.3 5.892 5.892 0 01-5.9-6.175c0-3.41 2.4-6.175 5.714-6.175 3.5 0 5.53 2.857 5.53 6.267v.553h-9.493a4.081 4.081 0 004.149 3.967zm3.41-5.346c-.184-2.12-1.475-4.055-3.779-4.055-2.028 0-3.594 1.751-3.871 4.055z" data-name="Path 140"/>
        <path d="M1037.222 769.963v-2.4a5.23 5.23 0 01-4.516 2.673 5.856 5.856 0 01-5.714-6.171 5.856 5.856 0 015.714-6.175 5.228 5.228 0 014.516 2.581v-7.374h1.751v16.866zm-4.24-10.6c-2.3 0-4.147 1.751-4.147 4.608s1.935 4.608 4.147 4.608a4.452 4.452 0 004.332-4.608 4.452 4.452 0 00-4.331-4.607z" data-name="Path 141"/>
        <path d="M1048.284 773.65a9.258 9.258 0 01-5.439-1.66l.829-1.382a8.066 8.066 0 004.61 1.476c2.581 0 4.332-1.475 4.332-4.24v-1.383a5.681 5.681 0 01-4.7 2.581 5.427 5.427 0 01-5.53-5.53 5.5 5.5 0 015.528-5.622 5.773 5.773 0 014.7 2.4v-2.12h1.751v9.77c-.092 3.775-2.488 5.71-6.081 5.71zm-.092-14.286a3.892 3.892 0 00-4.147 4.055 4 4 0 004.147 4.055 4.176 4.176 0 004.422-4.054 4.23 4.23 0 00-4.424-4.055z" data-name="Path 142"/>
        <path d="M1063.491 768.673a4.855 4.855 0 003.779-1.659l1.106.922a6.365 6.365 0 01-4.885 2.3 5.892 5.892 0 01-5.9-6.175c0-3.41 2.4-6.175 5.714-6.175 3.5 0 5.53 2.857 5.53 6.267v.553h-9.4a3.948 3.948 0 004.056 3.967zm3.41-5.346c-.184-2.12-1.475-4.055-3.779-4.055-2.028 0-3.594 1.751-3.871 4.055z" data-name="Path 143"/>
        <path d="M1078.144 770.24a5.228 5.228 0 01-4.516-2.581v5.991h-1.751v-15.576h1.751v2.3a5.23 5.23 0 014.516-2.673 5.856 5.856 0 015.714 6.175c.001 3.967-2.857 6.364-5.714 6.364zm-.367-10.876a4.452 4.452 0 00-4.332 4.608 4.34 4.34 0 004.332 4.608c2.3 0 4.147-1.751 4.147-4.608a4.153 4.153 0 00-4.147-4.608z" data-name="Path 144"/>
        <path d="M1092.522 770.239a6.116 6.116 0 01-6.175-6.175 6.194 6.194 0 016.175-6.267 6.116 6.116 0 016.175 6.175 6.194 6.194 0 01-6.175 6.267zm0-10.876a4.339 4.339 0 00-4.332 4.608 4.491 4.491 0 004.424 4.7 4.412 4.412 0 004.424-4.608 4.625 4.625 0 00-4.516-4.7z" data-name="Path 145"/>
        <path d="M1101.923 755.493v-1.935h2.028v1.935zm.184 14.47v-11.889h1.751v11.889z" data-name="Path 146"/>
        <path d="M1109.757 769.963h-1.751v-11.89h1.751v2.024a4.43 4.43 0 014.055-2.3c2.857 0 4.516 1.935 4.516 4.7v7.373h-1.751v-6.912c0-2.212-1.2-3.594-3.318-3.594a3.51 3.51 0 00-3.594 3.687l.092 6.912z" data-name="Path 147"/>
        <path d="M1124.504 766.553a1.8 1.8 0 002.028 2.028 3.994 3.994 0 001.751-.369v1.475a4 4 0 01-2.12.461c-1.935 0-3.318-.922-3.318-3.318v-7.19h-1.659v-1.661h1.659v-3.5h1.751v3.5h3.779v1.567h-3.779v7z" data-name="Path 148"/>
      </g>
      <g>
        <path d="M1138.42 769.963v-16.866h1.751v16.866z" data-name="Path 149"/>
        <path d="M1149.666 768.673a4.855 4.855 0 003.779-1.659l1.106.922a6.365 6.365 0 01-4.885 2.3 5.892 5.892 0 01-5.9-6.175c0-3.41 2.4-6.175 5.714-6.175 3.5 0 5.53 2.857 5.53 6.267v.553h-9.4a3.948 3.948 0 004.055 3.963zm3.41-5.346c-.184-2.12-1.475-4.055-3.779-4.055-2.028 0-3.594 1.751-3.871 4.055z" data-name="Path 150"/>
        <path d="M1158.604 760.382l-.553-1.475a9.105 9.105 0 014.332-.925c3.226 0 5.069 1.659 5.069 4.793v7.281h-1.751v-1.751a5.161 5.161 0 01-4.332 2.028c-2.212 0-4.424-1.2-4.424-3.687 0-2.581 2.028-3.871 5.069-3.871a13.114 13.114 0 013.594.461v-.369c0-2.12-1.29-3.226-3.594-3.226a5.9 5.9 0 00-3.41.737zm.276 5.991c0 1.475 1.382 2.4 3.041 2.4 2.212 0 3.963-1.29 3.963-3.226v-1.2a11.937 11.937 0 00-3.5-.461c-2.212 0-3.5 1.014-3.5 2.488z" data-name="Path 151"/>
        <path d="M1173.074 769.963h-1.751v-11.889h1.751v3.041a5.068 5.068 0 014.885-3.318v1.843h-.092c-2.581 0-4.7 1.843-4.7 5.438v4.885z" data-name="Path 152"/>
        <path d="M1182.383 769.963h-1.751v-11.89h1.751v2.024a4.43 4.43 0 014.055-2.3c2.857 0 4.516 1.935 4.516 4.7v7.373h-1.751v-6.912c0-2.212-1.2-3.594-3.318-3.594a3.51 3.51 0 00-3.594 3.687v6.912z" data-name="Path 153"/>
        <path d="M1194.733 755.493v-1.935h2.028v1.935zm.184 14.47v-11.889h1.751v11.889z" data-name="Path 154"/>
        <path d="M1202.567 769.963h-1.751v-11.89h1.751v2.024a4.43 4.43 0 014.055-2.3c2.857 0 4.516 1.935 4.516 4.7v7.373h-1.751v-6.912c0-2.212-1.2-3.594-3.318-3.594a3.51 3.51 0 00-3.594 3.687l.092 6.912z" data-name="Path 155"/>
        <path d="M1220.265 773.65a9.258 9.258 0 01-5.439-1.66l.83-1.382a8.066 8.066 0 004.608 1.475c2.581 0 4.332-1.475 4.332-4.24v-1.382a5.681 5.681 0 01-4.7 2.581 5.427 5.427 0 01-5.53-5.53 5.5 5.5 0 015.53-5.622 5.641 5.641 0 014.7 2.4v-2.12h1.751v9.77c-.092 3.779-2.488 5.714-6.083 5.714zm-.092-14.286a3.892 3.892 0 00-4.147 4.055 4 4 0 004.147 4.055 4.176 4.176 0 004.424-4.055 4.23 4.23 0 00-4.426-4.054z" data-name="Path 156"/>
      </g>
    </g>
    <g filter="url(#b)">
      <path fill="#fff" d="M420.173 329.4c0 9.809 4.187 18.236 14.575 18.236 7.9 0 13.038-5.3 13.038-11.872 0-7.526-5.459-11.395-11.819-11.395a12.045 12.045 0 00-9.487 4.931 6.086 6.086 0 01-.053-1.007c0-6.2 3.445-11.66 9.328-11.66a9.071 9.071 0 017.261 3.127l2.915-4.717a14.148 14.148 0 00-10.176-3.922c-10.229-.002-15.582 8.054-15.582 18.279zm21.359 6.572c0 2.862-2.438 6.148-7.1 6.148-5.459 0-7.526-4.452-7.9-8.268a9.685 9.685 0 017.738-4.187c3.87.004 7.262 1.965 7.262 6.311zm10.494-6.625c0 8.9 4.24 18.285 14.151 18.285s14.151-9.377 14.151-18.281-4.24-18.232-14.151-18.232-14.151 9.328-14.151 18.232zm22 0c0 6.731-2.067 12.773-7.844 12.773s-7.844-6.042-7.844-12.773 2.067-12.72 7.844-12.72 7.839 5.993 7.839 12.724zm9.964-9.381a8.391 8.391 0 008.745 8.692 8.449 8.449 0 008.851-8.692 8.546 8.546 0 00-8.851-8.851 8.49 8.49 0 00-8.75 8.855zM489.338 347h3.5l22.629-35.351h-3.551zm8.109-27.03c0 3.021-1.961 5.194-4.717 5.194-2.7 0-4.664-2.173-4.664-5.194 0-3.18 1.961-5.3 4.664-5.3 2.756 0 4.717 2.12 4.717 5.3zm5.565 18.974a8.391 8.391 0 008.745 8.692 8.435 8.435 0 008.8-8.692 8.533 8.533 0 00-8.8-8.851 8.49 8.49 0 00-8.745 8.851zm13.462 0c0 3.074-1.961 5.194-4.717 5.194s-4.664-2.12-4.664-5.194c0-3.18 1.908-5.3 4.664-5.3s4.717 2.12 4.717 5.3zm21.359-9.593c0 10.549 7.473 18.285 18.073 18.285s18.073-7.736 18.073-18.285-7.473-18.285-18.073-18.285-18.073 7.734-18.073 18.285zm29.786 0c0 7.261-4.611 12.773-11.713 12.773-7.155 0-11.713-5.512-11.713-12.773 0-7.314 4.558-12.773 11.713-12.773 7.102 0 11.713 5.459 11.713 12.773zM579.968 347h6.2v-15.264h17.649v-5.459h-17.648v-9.169h18.02v-5.459h-24.221zm68.423 0h6.784l-13.886-35.351h-7.738L619.665 347h6.784l2.6-6.784h16.748zm-10.971-30.1l6.625 17.861h-13.25zm21.624 30.1h13.144c11.024 0 18.5-7.261 18.5-17.649s-7.473-17.7-18.5-17.7h-13.144zm6.2-5.459v-24.433h6.943c7.9 0 12.137 5.406 12.137 12.243 0 6.678-4.452 12.19-12.137 12.19zm31.429-8.48c0 8.692 5.035 14.575 15.317 14.575 10.229 0 15.264-5.83 15.264-14.628v-21.359H721v21.2c0 5.618-3.127 9.275-9.01 9.275-5.936 0-9.063-3.657-9.063-9.275v-21.2h-6.254zM734.781 347h21.783v-5.459h-15.582v-29.892h-6.2zm30.528 0h6.2v-29.892h10.706v-5.459H754.6v5.459h10.706zm19.61-4.982c3.127 3.339 7.844 5.618 14.363 5.618 9.54 0 13.674-5.035 13.674-10.918 0-7.685-6.943-9.487-12.773-10.971-4.187-1.06-7.791-1.961-7.791-4.717 0-2.65 2.332-4.4 5.989-4.4a14.371 14.371 0 0110.229 4.028l3.551-4.611c-3.286-3.18-7.738-4.929-13.25-4.929-7.738 0-12.879 4.505-12.879 10.335 0 7.473 6.784 9.169 12.561 10.6 4.293 1.113 8.056 2.067 8.056 5.247 0 2.332-2.014 4.823-7.1 4.823a15.249 15.249 0 01-11.183-4.876zM832.3 347h13.144c11.024 0 18.5-7.261 18.5-17.649s-7.473-17.7-18.5-17.7H832.3zm6.2-5.459v-24.433h6.943c7.9 0 12.137 5.406 12.137 12.243 0 6.678-4.452 12.19-12.137 12.19zm29.839-12.19c.002 10.549 7.475 18.285 18.075 18.285s18.073-7.736 18.073-18.285-7.473-18.285-18.073-18.285-18.073 7.734-18.073 18.285zm29.786 0c0 7.261-4.611 12.773-11.713 12.773-7.155 0-11.713-5.512-11.713-12.773 0-7.314 4.558-12.773 11.713-12.773 7.104 0 11.715 5.459 11.715 12.773zM948.742 347h5.989v-35.351h-6.2v25.069l-18.074-25.069H924.1V347h6.2v-25.758zm11.925-17.649c0 10.549 7.473 18.285 18.073 18.285s18.073-7.736 18.073-18.285-7.473-18.285-18.073-18.285-18.073 7.734-18.073 18.285zm29.786 0c0 7.261-4.611 12.773-11.713 12.773-7.155 0-11.713-5.512-11.713-12.773 0-7.314 4.558-12.773 11.713-12.773 7.102 0 11.713 5.459 11.713 12.773zM1009.9 347h6.2v-29.892h10.706v-5.459H999.2v5.459h10.7zm-588.137 73h6.2v-13.2h9.328c7.367 0 11.554-5.088 11.554-11.077s-4.133-11.074-11.553-11.074h-15.529zm20.723-24.274c0 3.392-2.544 5.618-6.042 5.618h-8.48v-11.236h8.48c3.498 0 6.042 2.226 6.042 5.618zM474.18 420h7.155l-8.635-13.886c4.24-.689 8.374-4.081 8.374-10.388 0-6.519-4.558-11.077-11.554-11.077h-15.533V420h6.2v-13.2h6.148zm.53-24.274c0 3.392-2.544 5.618-6.042 5.618h-8.48v-11.236h8.48c3.498 0 6.042 2.226 6.042 5.618zM512.287 420h6.784l-13.886-35.351h-7.738L483.561 420h6.784l2.6-6.784h16.745zm-10.971-30.1l6.625 17.861h-13.25zm36.464 30.74a16.178 16.178 0 0014.469-7.95l-5.3-2.7a10.5 10.5 0 01-9.169 5.141c-6.731 0-11.925-5.353-11.925-12.773s5.194-12.773 11.925-12.773a10.607 10.607 0 019.169 5.141l5.3-2.7a16.114 16.114 0 00-14.469-7.95c-10.176 0-18.285 7.42-18.285 18.285s8.105 18.275 18.285 18.275zm27.878-.64h6.2v-29.892h10.706v-5.459h-27.612v5.459h10.706zm22.154 0h6.2v-35.351h-6.2zm30.422.636a16.178 16.178 0 0014.469-7.95l-5.3-2.7a10.5 10.5 0 01-9.169 5.141c-6.731 0-11.925-5.353-11.925-12.773s5.194-12.773 11.925-12.773a10.607 10.607 0 019.169 5.141l5.3-2.7a16.114 16.114 0 00-14.469-7.95c-10.176 0-18.285 7.42-18.285 18.285s8.109 18.279 18.285 18.279zm19.451-.636h24.221v-5.459h-18.02v-9.805h17.649v-5.459h-17.649v-9.169h18.02v-5.459h-24.221zm44.2 0h24.221v-5.459h-18.02v-9.805h17.649v-5.459h-17.647v-9.169h18.02v-5.459h-24.221zM743 420h6.2v-35.351h-8.745l-9.646 23.8-9.593-23.8h-8.745V420h6.2v-26.765L729.481 420h2.65L743 393.235zm13.727 0h24.221v-5.459h-18.02v-9.805h17.649v-5.459h-17.653v-9.169h18.02v-5.459h-24.221zm50.773 0h7.155l-8.639-13.886c4.24-.689 8.374-4.081 8.374-10.388 0-6.519-4.558-11.077-11.554-11.077H787.3V420h6.2v-13.2h6.148zm.53-24.274c0 3.392-2.544 5.618-6.042 5.618H793.5v-11.236h8.48c3.503 0 6.047 2.226 6.047 5.618zm10.97 6.625c0 11.077 8.321 18.338 18.55 18.338a19.176 19.176 0 0014.575-6.413v-13.25h-16.75v5.459h10.547V412a12.962 12.962 0 01-8.374 3.18c-7 0-12.19-5.406-12.19-12.826s5.194-12.773 12.19-12.773a11.256 11.256 0 019.169 4.717l5.088-2.862a16.62 16.62 0 00-14.257-7.367c-10.229-.003-18.548 7.205-18.548 18.282zM858.589 420h24.221v-5.459h-18.02v-9.805h17.649v-5.459H864.79v-9.169h18.02v-5.459h-24.221zm55.226 0h5.985v-35.351h-6.2v25.069l-18.07-25.069h-6.36V420h6.2v-25.758zm30.21.636a16.178 16.178 0 0014.469-7.95l-5.3-2.7a10.5 10.5 0 01-9.169 5.141c-6.731 0-11.925-5.353-11.925-12.773s5.194-12.773 11.925-12.773a10.607 10.607 0 019.169 5.141l5.3-2.7a16.114 16.114 0 00-14.469-7.95c-10.176 0-18.285 7.42-18.285 18.285s8.109 18.279 18.285 18.279zm28.408-.636h6.2v-14.681l13.674-20.67h-7.1l-9.647 15.158-9.752-15.158h-7.1l13.727 20.67zm37.367 0h13.144c11.024 0 18.5-7.261 18.5-17.649s-7.473-17.7-18.5-17.7H1009.8zm6.2-5.459v-24.433h6.943c7.9 0 12.137 5.406 12.137 12.243 0 6.678-4.452 12.19-12.137 12.19zm51.621 5.459h7.155l-8.639-13.886c4.24-.689 8.374-4.081 8.374-10.388 0-6.519-4.558-11.077-11.554-11.077h-15.529V420h6.2v-13.2h6.148zm.53-24.274c0 3.392-2.544 5.618-6.042 5.618h-8.48v-11.236h8.48c3.498 0 6.042 2.226 6.042 5.618zM1080.712 420h6.2v-35.351h-6.2zm13.727 0h21.783v-5.459h-15.582v-29.892h-6.2zm27.4 0h21.783v-5.459h-15.581v-29.892h-6.2zm25.122-4.982c3.127 3.339 7.844 5.618 14.363 5.618 9.54 0 13.674-5.035 13.674-10.918 0-7.685-6.943-9.487-12.773-10.971-4.187-1.06-7.791-1.961-7.791-4.717 0-2.65 2.332-4.4 5.989-4.4a14.371 14.371 0 0110.229 4.028l3.551-4.611c-3.286-3.18-7.738-4.929-13.25-4.929-7.738 0-12.879 4.505-12.879 10.335 0 7.473 6.784 9.169 12.561 10.6 4.293 1.113 8.056 2.067 8.056 5.247 0 2.332-2.014 4.823-7.1 4.823a15.249 15.249 0 01-11.183-4.876z" data-name="Path 180"/>
    </g>
    <g data-name="Group 67" transform="translate(-680.913 -170.874)">
      <circle cx="148.838" cy="148.838" r="148.838" fill="#fff" data-name="Ellipse 1" transform="translate(760.913 385.874)"/>
      <g data-name="Group 66">
        <g data-name="Group 53" transform="translate(843.124 463.49)">
          <rect width="137.643" height="109.295" fill="#fff" data-name="Rectangle 72" rx="32.417" transform="translate(2.761 2.761)"/>
          <path fill="#e45746" d="M36.779 0h69.608a36.778 36.778 0 0136.778 36.778v41.26a36.779 36.779 0 01-36.779 36.779H36.778A36.778 36.778 0 010 78.039v-41.26A36.779 36.779 0 0136.779 0z" data-name="Rectangle 73"/>
        </g>
        <path fill="#fff" d="M922.184 500.067h-14.956v13.353h-13.353v14.956h13.353v13.352h14.956v-13.352h13.353v-14.955h-13.353z" data-name="Path 157"/>
        <g data-name="Group 54">
          <path fill="#004b63" d="M924.332 439.97h-19.25c-9.9 0-16.812 6.11-16.812 14.857v8.352h9.939v-8.352c0-4.438 4.806-4.918 6.872-4.918h19.25c2.067 0 6.873.48 6.873 4.918v8.352h9.939v-8.352c.001-8.747-6.912-14.857-16.811-14.857z" data-name="Path 158"/>
        </g>
        <g data-name="Group 59" transform="translate(924.828 512.728)">
          <g data-name="Group 58">
            <g fill="#004b63" data-name="Group 55" transform="translate(0 36.297)">
              <rect width="84.478" height="59.609" data-name="Rectangle 74" rx="13.803" transform="translate(2.761 2.761)"/>
              <path d="M78.499 0h-67a11.513 11.513 0 00-11.5 11.5v42.132a11.513 11.513 0 0011.5 11.5h67a11.513 11.513 0 0011.5-11.5V11.5A11.513 11.513 0 0078.499 0zm5.978 53.632a5.984 5.984 0 01-5.978 5.978h-67a5.985 5.985 0 01-5.979-5.978V11.5a5.985 5.985 0 015.979-5.978h67a5.984 5.984 0 015.978 5.978z" data-name="Path 159"/>
            </g>
            <circle cx="19.627" cy="19.627" r="19.627" fill="#fff" data-name="Ellipse 2" transform="translate(10.646 49.713)"/>
            <g data-name="Group 56">
              <path fill="#004b63" d="M73.094.353L15.848 37.297a2.21 2.21 0 002.4 3.712l57.24-36.946a2.21 2.21 0 00-2.4-3.712z" data-name="Path 160"/>
            </g>
            <g data-name="Group 57">
              <path fill="#7bc0c9" d="M72.768 76.398h-15.42a2.791 2.791 0 100 5.522h15.42a2.791 2.791 0 100-5.522z" data-name="Path 161"/>
            </g>
          </g>
          <circle cx="4.335" cy="4.335" r="4.335" fill="#fff" data-name="Ellipse 3" transform="translate(54.138 55.316)"/>
          <circle cx="4.335" cy="4.335" r="4.335" fill="#e45746" data-name="Ellipse 4" transform="translate(67.246 55.316)"/>
        </g>
        <g data-name="Group 61">
          <path fill="#7bc0c9" d="M874.906 544.542l-.018-2.143a9.885 9.885 0 003.81-7.882l-.006-.74c-.054-6.431-7.238-18.66-14.24-22.127l-.034-4.165-12.506.062.035 4.192c-6.872 3.568-13.921 15.824-13.867 22.24l.006.738a9.961 9.961 0 003.941 7.844l.018 2.144a11.889 11.889 0 00-3.8 8.574l.405 48.482a6.523 6.523 0 003.613 5.465c2.062 2.286 6.142 6.236 12.9 2.855 0 0 2.845-1.364 7.4-.037 5.473 2.66 9.139.612 11.42-1.492a29.438 29.438 0 012.534-2 6.21 6.21 0 002.747-4.993l-.406-48.48a11.976 11.976 0 00-3.952-8.537z" data-name="Path 162"/>
          <g fill="#004b63" data-name="Group 60">
            <path d="M866.678 503.189l-11.9.067a.747.747 0 00-.786.7l.037 5.09a.75.75 0 00.8.69l11.9-.068a.745.745 0 00.786-.7l-.037-5.089a.748.748 0 00-.8-.69z" data-name="Path 163"/>
            <path d="M864.401 500.266h-.015l-12.533.068a2.712 2.712 0 00-1.856.733 2.231 2.231 0 00-.706 1.635l.039 5.089a2.479 2.479 0 002.579 2.334h.014l12.533-.067a2.717 2.717 0 001.856-.734 2.235 2.235 0 00.706-1.635l-.039-5.089a2.479 2.479 0 00-2.578-2.334z" data-name="Path 164"/>
          </g>
        </g>
        <g data-name="Group 62">
          <path fill="#fff" d="M811.569 558.946h41.537v52.45h-41.537z" data-name="Rectangle 75"/>
          <path fill="#e45746" d="M853.511 556.681h-42.347a2.233 2.233 0 00-2.252 2.213v52.554a2.233 2.233 0 002.252 2.213h42.347a2.233 2.233 0 002.252-2.213v-52.554a2.233 2.233 0 00-2.252-2.213z" data-name="Path 165"/>
        </g>
        <g data-name="Group 63">
          <path fill="#004b63" d="M854.186 555.08h-43.7a3.55 3.55 0 100 7.1h43.7a3.55 3.55 0 000-7.1z" data-name="Path 166"/>
        </g>
        <g data-name="Group 64">
          <path fill="#004b63" d="M854.186 610.161h-43.7a3.55 3.55 0 100 7.1h43.7a3.55 3.55 0 000-7.1z" data-name="Path 167"/>
        </g>
        <g data-name="Group 65">
          <path fill="#fff" d="M832.337 574.16c-8.369 0-17.694 4.68-17.694 11.4s9.325 11.4 17.694 11.4 17.694-4.68 17.694-11.4-9.324-11.4-17.694-11.4z" data-name="Path 168"/>
        </g>
        <path fill="#004b63" d="M996.006 512.333l7-4.808 4.35 6.333-7 4.808z" data-name="Rectangle 76"/>
      </g>
    </g>
  </g>
</svg>
