<svg xmlns="http://www.w3.org/2000/svg" viewBox="0 0 1280 800">
  <defs>
    <clipPath id="a">
      <path d="M0 0h1280v800H0z"/>
    </clipPath>
    <filter id="b" width="761.675" height="286.163" x="419.514" y="233.089" filterUnits="userSpaceOnUse">
      <feOffset dy="5"/>
      <feGaussianBlur result="blur" stdDeviation="3.5"/>
      <feFlood flood-opacity=".161"/>
      <feComposite in2="blur" operator="in"/>
      <feComposite in="SourceGraphic"/>
    </filter>
  </defs>
  <g clip-path="url(#a)" data-name="2019-03-13-emotional-intelligence-training-for-employees01">
    <path fill="rgba(233,78,104,0.13)" d="M0 0h1280v800H0z"/>
    <path fill="#e94e68" d="M0 726h1280v74H0z" data-name="Rectangle 44"/>
    <g fill="#fff" data-name="Group 52">
      <path d="M983.029 779.457h9.954a1.93 1.93 0 001.935-1.843v-6.821a36.608 36.608 0 01-11.889 8.664z" data-name="Path 137"/>
      <path d="M980.817 756.323c-.092-1.751-1.383-2.857-4.148-2.577-5.437.365-9.583 6.54-10.783 12.9 11.8-.922 15.023-8.111 14.931-10.323z" data-name="Path 138"/>
      <path d="M979.803 749.963c5.622-.369 8.2 1.843 8.387 4.608.461 6.083-9.493 13.272-22.581 14.378h-.184a10.209 10.209 0 00.369 5.069c.922 2.4 3.318 3.318 6.083 3.318 12.166 0 21.106-13.456 23.041-19.539v-9.954a1.871 1.871 0 00-1.935-1.843h-29.678a1.849 1.849 0 00-1.843 1.843v13.641c4.793-6.084 12.166-11.06 18.341-11.521z" data-name="Path 139"/>
      <g>
        <path d="M1019.344 768.673a4.855 4.855 0 003.779-1.659l1.106.922a6.365 6.365 0 01-4.885 2.3 5.892 5.892 0 01-5.9-6.175c0-3.41 2.4-6.175 5.714-6.175 3.5 0 5.53 2.857 5.53 6.267v.553h-9.493a4.081 4.081 0 004.149 3.967zm3.41-5.346c-.184-2.12-1.475-4.055-3.779-4.055-2.028 0-3.594 1.751-3.871 4.055z" data-name="Path 140"/>
        <path d="M1037.222 769.963v-2.4a5.23 5.23 0 01-4.516 2.673 5.856 5.856 0 01-5.714-6.171 5.856 5.856 0 015.714-6.175 5.228 5.228 0 014.516 2.581v-7.374h1.751v16.866zm-4.24-10.6c-2.3 0-4.147 1.751-4.147 4.608s1.935 4.608 4.147 4.608a4.452 4.452 0 004.332-4.608 4.452 4.452 0 00-4.331-4.607z" data-name="Path 141"/>
        <path d="M1048.284 773.65a9.258 9.258 0 01-5.439-1.66l.829-1.382a8.066 8.066 0 004.61 1.476c2.581 0 4.332-1.475 4.332-4.24v-1.383a5.681 5.681 0 01-4.7 2.581 5.427 5.427 0 01-5.53-5.53 5.5 5.5 0 015.528-5.622 5.773 5.773 0 014.7 2.4v-2.12h1.751v9.77c-.092 3.775-2.488 5.71-6.081 5.71zm-.092-14.286a3.892 3.892 0 00-4.147 4.055 4 4 0 004.147 4.055 4.176 4.176 0 004.422-4.054 4.23 4.23 0 00-4.424-4.055z" data-name="Path 142"/>
        <path d="M1063.491 768.673a4.855 4.855 0 003.779-1.659l1.106.922a6.365 6.365 0 01-4.885 2.3 5.892 5.892 0 01-5.9-6.175c0-3.41 2.4-6.175 5.714-6.175 3.5 0 5.53 2.857 5.53 6.267v.553h-9.4a3.948 3.948 0 004.056 3.967zm3.41-5.346c-.184-2.12-1.475-4.055-3.779-4.055-2.028 0-3.594 1.751-3.871 4.055z" data-name="Path 143"/>
        <path d="M1078.144 770.24a5.228 5.228 0 01-4.516-2.581v5.991h-1.751v-15.576h1.751v2.3a5.23 5.23 0 014.516-2.673 5.856 5.856 0 015.714 6.175c.001 3.967-2.857 6.364-5.714 6.364zm-.367-10.876a4.452 4.452 0 00-4.332 4.608 4.34 4.34 0 004.332 4.608c2.3 0 4.147-1.751 4.147-4.608a4.153 4.153 0 00-4.147-4.608z" data-name="Path 144"/>
        <path d="M1092.522 770.239a6.116 6.116 0 01-6.175-6.175 6.194 6.194 0 016.175-6.267 6.116 6.116 0 016.175 6.175 6.194 6.194 0 01-6.175 6.267zm0-10.876a4.339 4.339 0 00-4.332 4.608 4.491 4.491 0 004.424 4.7 4.412 4.412 0 004.424-4.608 4.625 4.625 0 00-4.516-4.7z" data-name="Path 145"/>
        <path d="M1101.923 755.493v-1.935h2.028v1.935zm.184 14.47v-11.889h1.751v11.889z" data-name="Path 146"/>
        <path d="M1109.757 769.963h-1.751v-11.89h1.751v2.024a4.43 4.43 0 014.055-2.3c2.857 0 4.516 1.935 4.516 4.7v7.373h-1.751v-6.912c0-2.212-1.2-3.594-3.318-3.594a3.51 3.51 0 00-3.594 3.687l.092 6.912z" data-name="Path 147"/>
        <path d="M1124.504 766.553a1.8 1.8 0 002.028 2.028 3.994 3.994 0 001.751-.369v1.475a4 4 0 01-2.12.461c-1.935 0-3.318-.922-3.318-3.318v-7.19h-1.659v-1.661h1.659v-3.5h1.751v3.5h3.779v1.567h-3.779v7z" data-name="Path 148"/>
      </g>
      <g>
        <path d="M1138.42 769.963v-16.866h1.751v16.866z" data-name="Path 149"/>
        <path d="M1149.666 768.673a4.855 4.855 0 003.779-1.659l1.106.922a6.365 6.365 0 01-4.885 2.3 5.892 5.892 0 01-5.9-6.175c0-3.41 2.4-6.175 5.714-6.175 3.5 0 5.53 2.857 5.53 6.267v.553h-9.4a3.948 3.948 0 004.055 3.963zm3.41-5.346c-.184-2.12-1.475-4.055-3.779-4.055-2.028 0-3.594 1.751-3.871 4.055z" data-name="Path 150"/>
        <path d="M1158.604 760.382l-.553-1.475a9.105 9.105 0 014.332-.925c3.226 0 5.069 1.659 5.069 4.793v7.281h-1.751v-1.751a5.161 5.161 0 01-4.332 2.028c-2.212 0-4.424-1.2-4.424-3.687 0-2.581 2.028-3.871 5.069-3.871a13.114 13.114 0 013.594.461v-.369c0-2.12-1.29-3.226-3.594-3.226a5.9 5.9 0 00-3.41.737zm.276 5.991c0 1.475 1.382 2.4 3.041 2.4 2.212 0 3.963-1.29 3.963-3.226v-1.2a11.937 11.937 0 00-3.5-.461c-2.212 0-3.5 1.014-3.5 2.488z" data-name="Path 151"/>
        <path d="M1173.074 769.963h-1.751v-11.889h1.751v3.041a5.068 5.068 0 014.885-3.318v1.843h-.092c-2.581 0-4.7 1.843-4.7 5.438v4.885z" data-name="Path 152"/>
        <path d="M1182.383 769.963h-1.751v-11.89h1.751v2.024a4.43 4.43 0 014.055-2.3c2.857 0 4.516 1.935 4.516 4.7v7.373h-1.751v-6.912c0-2.212-1.2-3.594-3.318-3.594a3.51 3.51 0 00-3.594 3.687v6.912z" data-name="Path 153"/>
        <path d="M1194.733 755.493v-1.935h2.028v1.935zm.184 14.47v-11.889h1.751v11.889z" data-name="Path 154"/>
        <path d="M1202.567 769.963h-1.751v-11.89h1.751v2.024a4.43 4.43 0 014.055-2.3c2.857 0 4.516 1.935 4.516 4.7v7.373h-1.751v-6.912c0-2.212-1.2-3.594-3.318-3.594a3.51 3.51 0 00-3.594 3.687l.092 6.912z" data-name="Path 155"/>
        <path d="M1220.265 773.65a9.258 9.258 0 01-5.439-1.66l.83-1.382a8.066 8.066 0 004.608 1.475c2.581 0 4.332-1.475 4.332-4.24v-1.382a5.681 5.681 0 01-4.7 2.581 5.427 5.427 0 01-5.53-5.53 5.5 5.5 0 015.53-5.622 5.641 5.641 0 014.7 2.4v-2.12h1.751v9.77c-.092 3.779-2.488 5.714-6.083 5.714zm-.092-14.286a3.892 3.892 0 00-4.147 4.055 4 4 0 004.147 4.055 4.176 4.176 0 004.424-4.055 4.23 4.23 0 00-4.426-4.054z" data-name="Path 156"/>
      </g>
    </g>
    <g filter="url(#b)">
      <path d="M431.763 275h24.221v-5.459h-18.02v-9.805h17.649v-5.459h-17.649v-9.169h18.02v-5.459h-24.221zm61.8 0h5.565v-18.5c0-5.194-2.65-7.738-7.367-7.738a10.857 10.857 0 00-8.692 4.717c-.848-2.809-3.18-4.717-7-4.717a11.055 11.055 0 00-8.319 4.138v-3.5h-5.565V275h5.565v-17.861a7.746 7.746 0 015.883-3.445c3.021 0 4.24 1.855 4.24 4.611V275h5.565v-17.914a7.768 7.768 0 015.936-3.392c2.968 0 4.187 1.855 4.187 4.611zm24.325.636c8.215 0 13.2-6.1 13.2-13.462 0-7.314-4.982-13.409-13.2-13.409-8.109 0-13.144 6.1-13.144 13.409 0 7.367 5.035 13.462 13.144 13.462zm0-4.929c-4.717 0-7.367-3.975-7.367-8.533 0-4.505 2.65-8.48 7.367-8.48 4.77 0 7.42 3.975 7.42 8.48 0 4.558-2.65 8.533-7.42 8.533zm26.5 4.929c2.6 0 4.24-.689 5.247-1.643l-1.325-4.187a3.593 3.593 0 01-2.491.9c-1.59 0-2.438-1.272-2.438-3.021v-13.408h5.194V249.4h-5.194v-7h-5.565v7h-4.24v4.876h4.24v14.788c0 4.236 2.284 6.572 6.572 6.572zm11.978-30.157a3.438 3.438 0 003.445-3.445 3.438 3.438 0 00-3.445-3.445 3.472 3.472 0 00-3.445 3.445 3.472 3.472 0 003.445 3.445zM553.61 275h5.565v-25.6h-5.565zm24.327.636c8.215 0 13.2-6.1 13.2-13.462 0-7.314-4.982-13.409-13.2-13.409-8.109 0-13.144 6.1-13.144 13.409 0 7.367 5.035 13.462 13.144 13.462zm0-4.929c-4.717 0-7.367-3.975-7.367-8.533 0-4.505 2.65-8.48 7.367-8.48 4.77 0 7.42 3.975 7.42 8.48 0 4.558-2.65 8.533-7.42 8.533zM614.03 275h5.57v-18.02c0-5.247-2.756-8.215-8.268-8.215a12.112 12.112 0 00-9.01 4.134v-3.5h-5.565V275h5.565v-17.861a8.427 8.427 0 016.572-3.445c3.127 0 5.141 1.325 5.141 5.3zm28.408 0H648v-16.96c0-6.89-4.982-9.275-10.653-9.275a15.223 15.223 0 00-10.756 4.135l2.279 3.869a10.482 10.482 0 017.579-3.233c3.551 0 5.989 1.8 5.989 4.77v3.816c-1.855-2.173-4.823-3.286-8.268-3.286-4.187 0-8.9 2.438-8.9 8.321 0 5.671 4.717 8.48 8.9 8.48a10.807 10.807 0 008.268-3.392zm0-5.83a7.494 7.494 0 01-6.1 2.65c-3.127 0-5.459-1.8-5.459-4.558 0-2.809 2.332-4.611 5.459-4.611a7.494 7.494 0 016.1 2.65zm12.773 5.83h5.565v-35.351h-5.565zm12.773 0h5.565v-35.351h-5.565zm12.508 5.035l-.848 4.982a15.739 15.739 0 003.127.371c3.975-.053 7.049-1.431 8.8-5.777l12.347-30.211h-5.989l-7.473 19.187-7.473-19.187h-5.936l10.494 25.918-1.272 2.915a3.467 3.467 0 01-3.657 2.226 5.816 5.816 0 01-2.12-.424zm43.3-34.556a3.438 3.438 0 003.445-3.445 3.438 3.438 0 00-3.445-3.445 3.472 3.472 0 00-3.445 3.445 3.472 3.472 0 003.446 3.445zM721.037 275h5.563v-25.6h-5.565zm30.051 0h5.565v-18.02c0-5.247-2.756-8.215-8.268-8.215a12.112 12.112 0 00-9.01 4.134v-3.5h-5.565V275h5.565v-17.861a8.427 8.427 0 016.572-3.445c3.127 0 5.141 1.325 5.141 5.3zm20.458.636c2.6 0 4.24-.689 5.247-1.643l-1.325-4.187a3.593 3.593 0 01-2.491.9c-1.59 0-2.438-1.272-2.438-3.021v-13.408h5.194V249.4h-5.194v-7h-5.565v7h-4.24v4.876h4.24v14.788c0 4.236 2.279 6.572 6.572 6.572zm7.632-13.462c0 8.109 5.724 13.462 13.409 13.462a14.922 14.922 0 0010.388-3.71l-2.544-3.657a10.834 10.834 0 01-7.261 2.809 7.754 7.754 0 01-8.162-7.049h19.769V262.7c0-8.056-4.929-13.939-12.614-13.939-7.579.004-12.985 5.993-12.985 13.413zm12.985-8.851a6.847 6.847 0 017.208 6.784h-14.416c.265-3.127 2.438-6.784 7.208-6.784zM810.289 275h5.565v-35.351h-5.565zm12.773 0h5.565v-35.351h-5.565zm15.529-29.521a3.438 3.438 0 003.445-3.445 3.438 3.438 0 00-3.445-3.445 3.472 3.472 0 00-3.445 3.445 3.472 3.472 0 003.445 3.445zM835.835 275h5.565v-25.6h-5.565zm12.455 6.572c3.127 2.862 6.36 3.816 10.706 3.816 6.307 0 13.144-2.491 13.144-11.713V249.4h-5.565v3.551a10.2 10.2 0 00-8.215-4.187c-6.572 0-11.342 4.876-11.342 13.144 0 8.427 4.823 13.144 11.342 13.144a10.391 10.391 0 008.215-4.24v3.074c0 5.247-3.922 6.943-7.579 6.943-3.392 0-6.042-.9-8.109-3.286zm18.285-14.893a8.307 8.307 0 01-6.575 3.445c-4.4 0-7.208-3.286-7.208-8.215s2.808-8.215 7.208-8.215a8.307 8.307 0 016.572 3.445zm11.183-4.505c0 8.109 5.724 13.462 13.409 13.462a14.922 14.922 0 0010.388-3.71l-2.544-3.657a10.834 10.834 0 01-7.261 2.809 7.754 7.754 0 01-8.162-7.049h19.769V262.7c0-8.056-4.929-13.939-12.614-13.939-7.579.004-12.985 5.993-12.985 13.413zm12.985-8.851a6.847 6.847 0 017.208 6.784h-14.416c.265-3.127 2.438-6.784 7.208-6.784zM926.147 275h5.565v-18.02c0-5.247-2.756-8.215-8.268-8.215a12.112 12.112 0 00-9.01 4.134v-3.5h-5.565V275h5.565v-17.861a8.427 8.427 0 016.572-3.445c3.127 0 5.141 1.325 5.141 5.3zm20.453.636c2.6 0 4.24-.689 5.247-1.643l-1.325-4.187a3.593 3.593 0 01-2.491.9c-1.59 0-2.438-1.272-2.438-3.021v-13.408h5.194V249.4H945.6v-7h-5.565v7h-4.24v4.876h4.24v14.788c-.002 4.236 2.277 6.572 6.565 6.572zm-509.431 82.116v-13.3a10.051 10.051 0 008.215 4.187c6.625 0 11.342-5.035 11.342-13.462s-4.717-13.412-11.342-13.412a10.215 10.215 0 00-8.215 4.135v-3.5H431.6v35.352zm13.78-22.578c0 4.982-2.809 8.533-7.208 8.533a8.458 8.458 0 01-6.572-3.445v-10.123a8.307 8.307 0 016.572-3.445c4.399 0 7.208 3.551 7.208 8.48zm9.805 0c0 8.109 5.724 13.462 13.409 13.462a14.922 14.922 0 0010.388-3.71l-2.544-3.657a10.834 10.834 0 01-7.261 2.809 7.754 7.754 0 01-8.162-7.049h19.769V335.7c0-8.056-4.929-13.939-12.614-13.939-7.579.004-12.985 5.993-12.985 13.413zm12.985-8.851a6.847 6.847 0 017.208 6.784h-14.416c.269-3.127 2.438-6.784 7.208-6.784zm29.68 22.313c8.215 0 13.2-6.1 13.2-13.462 0-7.314-4.982-13.409-13.2-13.409-8.109 0-13.144 6.1-13.144 13.409 0 7.367 5.035 13.462 13.144 13.462zm0-4.929c-4.717 0-7.367-3.975-7.367-8.533 0-4.505 2.65-8.48 7.367-8.48 4.77 0 7.42 3.975 7.42 8.48 0 4.558-2.65 8.533-7.42 8.533zm24.381 14.045v-13.3a10.051 10.051 0 008.215 4.187c6.625 0 11.342-5.035 11.342-13.462s-4.717-13.409-11.342-13.409a10.215 10.215 0 00-8.215 4.132v-3.5h-5.566v35.352zm13.78-22.578c0 4.982-2.809 8.533-7.208 8.533a8.458 8.458 0 01-6.572-3.445v-10.123a8.307 8.307 0 016.572-3.445c4.398 0 7.207 3.551 7.207 8.48zM552.974 348h5.565v-35.351h-5.565zm11.183-12.826c0 8.109 5.724 13.462 13.409 13.462a14.922 14.922 0 0010.388-3.71l-2.544-3.657a10.834 10.834 0 01-7.261 2.809 7.754 7.754 0 01-8.162-7.049h19.769V335.7c0-8.056-4.929-13.939-12.614-13.939-7.579.004-12.985 5.993-12.985 13.413zm12.985-8.851a6.847 6.847 0 017.208 6.784h-14.416c.266-3.127 2.438-6.784 7.208-6.784zM631.2 348h5.83l7.95-25.6h-5.777L633.8 341l-6.1-18.6h-4.876l-6.1 18.6-5.406-18.6h-5.768l7.95 25.6h5.83l5.936-18.762zm20.4-29.521a3.445 3.445 0 10-3.445-3.445 3.438 3.438 0 003.452 3.445zM648.851 348h5.565v-25.6h-5.565zm20.458.636c2.6 0 4.24-.689 5.247-1.643l-1.325-4.187a3.593 3.593 0 01-2.491.9c-1.59 0-2.438-1.272-2.438-3.021v-13.408h5.198V322.4h-5.2v-7h-5.565v7H658.5v4.876h4.24v14.788c-.003 4.236 2.276 6.572 6.569 6.572zm26.553-.636h5.565v-18.126c0-5.247-2.756-8.109-8.268-8.109a12.236 12.236 0 00-9.059 4.135v-13.251h-5.565V348h5.565v-17.861a8.6 8.6 0 016.572-3.445c3.127 0 5.194 1.219 5.194 5.194zm42.029 0h5.565v-16.96c0-6.89-4.982-9.275-10.653-9.275a15.223 15.223 0 00-10.759 4.135l2.279 3.869a10.482 10.482 0 017.579-3.233c3.551 0 5.989 1.8 5.989 4.77v3.816c-1.855-2.173-4.823-3.286-8.268-3.286-4.187 0-8.9 2.438-8.9 8.321 0 5.671 4.717 8.48 8.9 8.48a10.807 10.807 0 008.268-3.392zm0-5.83a7.494 7.494 0 01-6.1 2.65c-3.127 0-5.459-1.8-5.459-4.558 0-2.809 2.332-4.611 5.459-4.611a7.494 7.494 0 016.1 2.65zm19.5 5.83h5.989l10.441-25.6h-5.989l-7.473 19.186-7.469-19.186h-5.936zm18.338-12.826c0 8.109 5.724 13.462 13.409 13.462a14.922 14.922 0 0010.388-3.71l-2.544-3.657a10.834 10.834 0 01-7.261 2.809 7.754 7.754 0 01-8.162-7.049h19.769V335.7c0-8.056-4.929-13.939-12.614-13.939-7.575.004-12.981 5.993-12.981 13.413zm12.985-8.851a6.847 6.847 0 017.208 6.784H781.51c.265-3.127 2.438-6.784 7.208-6.784zM806.844 348h5.565v-17.437a8.839 8.839 0 016.572-3.392 8.2 8.2 0 011.749.159v-5.512a10.932 10.932 0 00-8.321 4.346V322.4h-5.565zm34.026 0h5.565v-16.96c0-6.89-4.982-9.275-10.653-9.275a15.223 15.223 0 00-10.759 4.135l2.279 3.869a10.482 10.482 0 017.579-3.233c3.551 0 5.989 1.8 5.989 4.77v3.816c-1.855-2.173-4.823-3.286-8.268-3.286-4.187 0-8.9 2.438-8.9 8.321 0 5.671 4.717 8.48 8.9 8.48a10.807 10.807 0 008.268-3.392zm0-5.83a7.494 7.494 0 01-6.1 2.65c-3.127 0-5.459-1.8-5.459-4.558 0-2.809 2.332-4.611 5.459-4.611a7.494 7.494 0 016.1 2.65zm12.455 12.4c3.127 2.862 6.36 3.816 10.706 3.816 6.307 0 13.144-2.491 13.144-11.713V322.4h-5.565v3.551a10.2 10.2 0 00-8.215-4.187c-6.572 0-11.342 4.876-11.342 13.144 0 8.427 4.823 13.144 11.342 13.144a10.391 10.391 0 008.215-4.24v3.074c0 5.247-3.922 6.943-7.579 6.943-3.392 0-6.042-.9-8.109-3.286zm18.285-14.891a8.307 8.307 0 01-6.572 3.445c-4.4 0-7.208-3.286-7.208-8.215s2.809-8.215 7.208-8.215a8.307 8.307 0 016.572 3.445zm11.183-4.505c0 8.109 5.724 13.462 13.409 13.462a14.922 14.922 0 0010.388-3.71l-2.544-3.657a10.834 10.834 0 01-7.261 2.809 7.754 7.754 0 01-8.162-7.049h19.769V335.7c0-8.056-4.929-13.939-12.614-13.939-7.578.004-12.985 5.993-12.985 13.413zm12.985-8.851a6.847 6.847 0 017.208 6.784H888.57c.265-3.127 2.438-6.784 7.208-6.784zM927.684 348h6.2v-35.351h-6.2zm48.283-17.649c0-10.547-7.473-18.285-18.073-18.285s-18.073 7.734-18.073 18.285 7.473 18.285 18.073 18.285a18.577 18.577 0 008.9-2.12l3.074 3.445 4.293-3.6-2.915-3.286a18.515 18.515 0 004.721-12.724zm-18.073 12.773c-7.155 0-11.713-5.512-11.713-12.773 0-7.314 4.558-12.773 11.713-12.773 7.1 0 11.713 5.459 11.713 12.773a13.96 13.96 0 01-2.385 8.109l-4.4-4.929-4.293 3.551 4.4 4.982a11.885 11.885 0 01-5.035 1.06zm21.677 1.537a15.569 15.569 0 0010.971 3.975c6.89 0 10.653-3.445 10.653-7.95 0-6.042-5.459-7.314-9.911-8.268-3.021-.689-5.565-1.378-5.565-3.339 0-1.8 1.855-2.862 4.77-2.862a10.324 10.324 0 017.579 3.074l2.332-3.922a14.634 14.634 0 00-9.964-3.6c-6.466 0-10.07 3.6-10.07 7.791 0 5.724 5.247 6.89 9.646 7.844 3.127.689 5.83 1.484 5.83 3.71 0 1.908-1.7 3.127-5.035 3.127a13.213 13.213 0 01-8.692-3.6zm-536.413 76.975c8.215 0 13.2-6.1 13.2-13.462 0-7.314-4.982-13.409-13.2-13.409-8.109 0-13.144 6.1-13.144 13.409 0 7.367 5.035 13.462 13.144 13.462zm0-4.929c-4.717 0-7.367-3.975-7.367-8.533 0-4.5 2.65-8.48 7.367-8.48 4.77 0 7.42 3.975 7.42 8.48 0 4.558-2.65 8.533-7.42 8.533zM479.251 421h5.565v-25.6h-5.565v17.967a8.514 8.514 0 01-6.572 3.339c-3.127 0-5.141-1.219-5.141-5.194V395.4h-5.565v18.126c0 5.247 2.7 8.109 8.215 8.109a12.269 12.269 0 009.063-4.028zm20.458.636c2.6 0 4.24-.689 5.247-1.643l-1.325-4.187a3.593 3.593 0 01-2.491.9c-1.59 0-2.438-1.272-2.438-3.021v-13.408h5.198V395.4h-5.2v-7h-5.563v7H488.9v4.876h4.24v14.787c-.003 4.237 2.276 6.573 6.569 6.573zm14.791 9.116v-13.3a10.051 10.051 0 008.215 4.187c6.625 0 11.342-5.035 11.342-13.462s-4.717-13.409-11.342-13.409a10.215 10.215 0 00-8.215 4.132v-3.5h-5.569v35.351zm13.78-22.578c0 4.982-2.809 8.533-7.208 8.533a8.458 8.458 0 01-6.572-3.445v-10.123a8.307 8.307 0 016.572-3.445c4.395 0 7.204 3.551 7.204 8.48zm9.8 0c0 8.109 5.724 13.462 13.409 13.462a14.922 14.922 0 0010.388-3.71l-2.544-3.657a10.834 10.834 0 01-7.261 2.809 7.754 7.754 0 01-8.162-7.049h19.77V408.7c0-8.056-4.929-13.939-12.614-13.939-7.579.004-12.985 5.993-12.985 13.413zm12.985-8.851a6.847 6.847 0 017.208 6.784h-14.415c.265-3.127 2.442-6.784 7.208-6.784zM569.192 421h5.565v-17.437a8.839 8.839 0 016.572-3.392 8.2 8.2 0 011.749.159v-5.512a10.932 10.932 0 00-8.321 4.346V395.4h-5.565zm19.716 0h5.565v-20.723h5.194V395.4h-5.194v-1.43c0-2.862 1.378-4.293 3.551-4.293a4.461 4.461 0 012.226.53l1.219-4.081a9.218 9.218 0 00-4.452-1.007c-4.717 0-8.109 3.127-8.109 8.851v1.43h-4.24v4.876h4.24zm26.553.636c8.215 0 13.2-6.1 13.2-13.462 0-7.314-4.982-13.409-13.2-13.409-8.109 0-13.144 6.1-13.144 13.409 0 7.367 5.035 13.462 13.144 13.462zm0-4.929c-4.717 0-7.367-3.975-7.367-8.533 0-4.5 2.65-8.48 7.367-8.48 4.77 0 7.42 3.975 7.42 8.48 0 4.558-2.65 8.533-7.42 8.533zM634.276 421h5.565v-17.437a8.839 8.839 0 016.572-3.392 8.2 8.2 0 011.749.159v-5.512a10.932 10.932 0 00-8.321 4.346V395.4h-5.565zm49.767 0h5.565v-18.5c0-5.194-2.65-7.738-7.367-7.738a10.857 10.857 0 00-8.692 4.717c-.848-2.809-3.18-4.717-7-4.717a11.055 11.055 0 00-8.321 4.134v-3.5h-5.565V421h5.565v-17.861a7.746 7.746 0 015.883-3.445c3.021 0 4.24 1.855 4.24 4.611V421h5.565v-17.914a7.768 7.768 0 015.936-3.392c2.968 0 4.187 1.855 4.187 4.611zm34.079.636c2.6 0 4.24-.689 5.247-1.643l-1.325-4.187a3.593 3.593 0 01-2.491.9c-1.59 0-2.438-1.272-2.438-3.021v-13.408h5.194V395.4h-5.194v-7h-5.565v7h-4.24v4.876h4.24v14.787c0 4.237 2.279 6.573 6.572 6.573zm26.553-.636h5.565v-18.126c0-5.247-2.756-8.109-8.268-8.109a12.236 12.236 0 00-9.063 4.134v-13.25h-5.565V421h5.565v-17.861a8.6 8.6 0 016.572-3.445c3.127 0 5.194 1.219 5.194 5.194zm24.327.636c8.215 0 13.2-6.1 13.2-13.462 0-7.314-4.982-13.409-13.2-13.409-8.109 0-13.144 6.1-13.144 13.409 0 7.367 5.035 13.462 13.142 13.462zm0-4.929c-4.717 0-7.367-3.975-7.367-8.533 0-4.5 2.65-8.48 7.367-8.48 4.77 0 7.42 3.975 7.42 8.48 0 4.558-2.65 8.533-7.422 8.533zm16.589.954a15.569 15.569 0 0010.971 3.975c6.89 0 10.653-3.445 10.653-7.95 0-6.042-5.459-7.314-9.911-8.268-3.021-.689-5.565-1.378-5.565-3.339 0-1.8 1.855-2.862 4.77-2.862a10.324 10.324 0 017.579 3.074l2.332-3.922a14.635 14.635 0 00-9.964-3.6c-6.466 0-10.07 3.6-10.07 7.791 0 5.724 5.247 6.89 9.646 7.844 3.127.689 5.83 1.484 5.83 3.71 0 1.908-1.7 3.127-5.035 3.127a13.213 13.213 0 01-8.692-3.6zm25.652-9.487c0 8.109 5.724 13.462 13.409 13.462a14.922 14.922 0 0010.388-3.71l-2.544-3.657a10.834 10.834 0 01-7.261 2.809 7.754 7.754 0 01-8.162-7.049h19.769V408.7c0-8.056-4.929-13.939-12.614-13.939-7.579.004-12.985 5.993-12.985 13.413zm12.985-8.851a6.847 6.847 0 017.208 6.784H817.02c.265-3.127 2.438-6.784 7.208-6.784zM878.288 421h5.83l7.95-25.6h-5.777l-5.406 18.6-6.1-18.6h-4.876l-6.1 18.6-5.406-18.6h-5.777l7.95 25.6h5.83l5.936-18.762zm20.4-29.521a3.445 3.445 0 10-3.445-3.445 3.438 3.438 0 003.45 3.445zM895.937 421h5.563v-25.6h-5.565zm20.458.636c2.6 0 4.24-.689 5.247-1.643l-1.325-4.187a3.593 3.593 0 01-2.491.9c-1.59 0-2.438-1.272-2.438-3.021v-13.408h5.194V395.4h-5.194v-7h-5.565v7h-4.24v4.876h4.24v14.787c0 4.237 2.277 6.573 6.577 6.573zm26.553-.636h5.565v-18.126c0-5.247-2.756-8.109-8.268-8.109a12.236 12.236 0 00-9.063 4.134v-13.25h-5.565V421h5.565v-17.861a8.6 8.6 0 016.572-3.445c3.127 0 5.194 1.219 5.194 5.194zm-512.934 60.174c0 8.109 5.724 13.462 13.409 13.462a14.922 14.922 0 0010.388-3.71l-2.544-3.657a10.834 10.834 0 01-7.261 2.809 7.754 7.754 0 01-8.162-7.049h19.769V481.7c0-8.056-4.929-13.939-12.614-13.939-7.579.004-12.985 5.993-12.985 13.413zM443 472.323a6.847 6.847 0 017.208 6.784h-14.417c.265-3.127 2.438-6.784 7.209-6.784zM475.17 494h6.254l-9.434-13.144 8.851-12.456h-6.254l-6.042 8.692-6.095-8.692h-6.25l8.851 12.455L455.666 494h6.2l6.678-9.434zm7.208-12.826c0 7.791 5.459 13.462 13.25 13.462 4.982 0 8-2.12 9.805-4.558l-3.657-3.392a6.959 6.959 0 01-5.883 3.021c-4.664 0-7.738-3.551-7.738-8.533s3.074-8.48 7.738-8.48a6.833 6.833 0 015.883 3.021l3.657-3.392c-1.8-2.438-4.823-4.558-9.805-4.558-7.791 0-13.25 5.671-13.25 13.409zm26.341 0c0 8.109 5.724 13.462 13.409 13.462a14.922 14.922 0 0010.388-3.71l-2.544-3.657a10.834 10.834 0 01-7.261 2.809 7.754 7.754 0 01-8.162-7.049h19.769V481.7c0-8.056-4.929-13.939-12.614-13.939-7.579.004-12.985 5.993-12.985 13.413zm12.981-8.851a6.847 6.847 0 017.208 6.784H514.5c.261-3.127 2.434-6.784 7.2-6.784zm23.691 31.429v-13.3a10.051 10.051 0 008.215 4.187c6.625 0 11.342-5.035 11.342-13.462s-4.717-13.409-11.342-13.409a10.215 10.215 0 00-8.215 4.134v-3.5h-5.561v35.351zm13.78-22.578c0 4.982-2.809 8.533-7.208 8.533a8.458 8.458 0 01-6.572-3.445v-10.123a8.307 8.307 0 016.572-3.445c4.403 0 7.212 3.551 7.212 8.48zm19.08 13.462c2.6 0 4.24-.689 5.247-1.643l-1.325-4.187a3.593 3.593 0 01-2.491.9c-1.59 0-2.438-1.272-2.438-3.021v-13.408h5.194V468.4h-5.194v-7h-5.565v7h-4.24v4.876h4.24v14.787c.004 4.237 2.283 6.573 6.576 6.573zm11.978-30.157a3.445 3.445 0 10-3.445-3.445 3.438 3.438 0 003.449 3.445zM587.477 494h5.565v-25.6h-5.565zm24.327.636c8.215 0 13.2-6.1 13.2-13.462 0-7.314-4.982-13.409-13.2-13.409-8.109 0-13.144 6.1-13.144 13.409 0 7.367 5.035 13.462 13.14 13.462zm0-4.929c-4.717 0-7.367-3.975-7.367-8.533 0-4.5 2.65-8.48 7.367-8.48 4.77 0 7.42 3.975 7.42 8.48 0 4.558-2.65 8.533-7.424 8.533zM647.9 494h5.565v-18.02c0-5.247-2.756-8.215-8.268-8.215a12.112 12.112 0 00-9.01 4.134v-3.5h-5.565V494h5.565v-17.861a8.427 8.427 0 016.572-3.445c3.127 0 5.141 1.325 5.141 5.3zm28.408 0h5.565v-16.96c0-6.89-4.982-9.275-10.653-9.275a15.223 15.223 0 00-10.759 4.134l2.279 3.869a10.482 10.482 0 017.579-3.233c3.551 0 5.989 1.8 5.989 4.77v3.816c-1.855-2.173-4.823-3.286-8.268-3.286-4.187 0-8.9 2.438-8.9 8.321 0 5.671 4.717 8.48 8.9 8.48a10.807 10.807 0 008.268-3.392zm0-5.83a7.494 7.494 0 01-6.1 2.65c-3.127 0-5.459-1.8-5.459-4.558 0-2.809 2.332-4.611 5.459-4.611a7.494 7.494 0 016.1 2.65zm12.77 5.83h5.565v-35.351h-5.565zm26.553 0h6.2v-35.351h-6.2zm48.283-17.649c0-10.547-7.473-18.285-18.073-18.285s-18.073 7.738-18.073 18.285 7.473 18.285 18.073 18.285a18.577 18.577 0 008.9-2.12l3.074 3.445 4.293-3.6-2.915-3.286a18.515 18.515 0 004.721-12.724zm-18.073 12.773c-7.155 0-11.713-5.512-11.713-12.773 0-7.314 4.558-12.773 11.713-12.773 7.1 0 11.713 5.459 11.713 12.773a13.961 13.961 0 01-2.385 8.109l-4.4-4.929-4.293 3.551 4.4 4.982a11.885 11.885 0 01-5.035 1.06zm21.677 1.537a15.569 15.569 0 0010.971 3.975c6.89 0 10.653-3.445 10.653-7.95 0-6.042-5.459-7.314-9.911-8.268-3.021-.689-5.565-1.378-5.565-3.339 0-1.8 1.855-2.862 4.77-2.862a10.324 10.324 0 017.579 3.074l2.332-3.922a14.635 14.635 0 00-9.964-3.6c-6.466 0-10.07 3.6-10.07 7.791 0 5.724 5.247 6.89 9.646 7.844 3.127.689 5.83 1.484 5.83 3.71 0 1.908-1.7 3.127-5.035 3.127a13.213 13.213 0 01-8.692-3.6zM811.19 494h6.784l13.726-31.058v-4.293h-25.492v5.459h18.338zm23.956-17.649c0 8.9 4.24 18.285 14.151 18.285s14.151-9.381 14.151-18.285-4.24-18.232-14.151-18.232-14.151 9.328-14.151 18.232zm21.995 0c0 6.731-2.067 12.773-7.844 12.773s-7.844-6.042-7.844-12.773 2.067-12.72 7.844-12.72 7.844 5.989 7.844 12.72zm9.964-9.381a8.8 8.8 0 0017.6 0 8.8 8.8 0 10-17.6 0zm5.353 27.03h3.5l22.631-35.351h-3.551zm8.109-27.03c0 3.021-1.961 5.194-4.717 5.194-2.7 0-4.664-2.173-4.664-5.194 0-3.18 1.961-5.3 4.664-5.3 2.756 0 4.717 2.12 4.717 5.3zm5.565 18.974a8.772 8.772 0 0017.543 0 8.772 8.772 0 10-17.543 0zm13.462 0c0 3.074-1.961 5.194-4.717 5.194s-4.664-2.12-4.664-5.194c0-3.18 1.908-5.3 4.664-5.3s4.717 2.12 4.717 5.3zm34.344 8.692c8.215 0 13.2-6.1 13.2-13.462 0-7.314-4.982-13.409-13.2-13.409-8.109 0-13.144 6.1-13.144 13.409 0 7.367 5.035 13.462 13.144 13.462zm0-4.929c-4.717 0-7.367-3.975-7.367-8.533 0-4.5 2.65-8.48 7.367-8.48 4.77 0 7.42 3.975 7.42 8.48 0 4.558-2.65 8.533-7.42 8.533zm20.14 4.293h5.565v-20.723h5.194V468.4h-5.194v-1.43c0-2.862 1.378-4.293 3.551-4.293a4.46 4.46 0 012.226.53l1.219-4.081a9.218 9.218 0 00-4.452-1.007c-4.717 0-8.109 3.127-8.109 8.851v1.43h-4.24v4.876h4.24zm36.3.636c2.6 0 4.24-.689 5.247-1.643l-1.325-4.187a3.593 3.593 0 01-2.491.9c-1.59 0-2.438-1.272-2.438-3.021v-13.408h5.194V468.4h-5.194v-7h-5.565v7h-4.24v4.876h4.24v14.787c.005 4.237 2.284 6.573 6.577 6.573zm26.558-.636h5.564v-18.126c0-5.247-2.756-8.109-8.268-8.109a12.236 12.236 0 00-9.063 4.134v-13.25H999.6V494h5.565v-17.861a8.6 8.6 0 016.572-3.445c3.127 0 5.194 1.219 5.194 5.194zm11.183-12.826c0 8.109 5.724 13.462 13.409 13.462a14.921 14.921 0 0010.388-3.71l-2.544-3.657a10.835 10.835 0 01-7.261 2.809 7.754 7.754 0 01-8.162-7.049h19.769V481.7c0-8.056-4.929-13.939-12.614-13.939-7.579.004-12.985 5.993-12.985 13.413zm12.985-8.851a6.847 6.847 0 017.208 6.784H1033.9c.261-3.127 2.434-6.784 7.2-6.784zm39.432 22.313c2.6 0 4.24-.689 5.247-1.643l-1.325-4.187a3.593 3.593 0 01-2.491.9c-1.59 0-2.438-1.272-2.438-3.021v-13.408h5.194V468.4h-5.194v-7h-5.565v7h-4.24v4.876h4.24v14.787c0 4.237 2.279 6.573 6.572 6.573zm11.978-30.157a3.445 3.445 0 10-3.445-3.445 3.438 3.438 0 003.445 3.445zM1089.758 494h5.565v-25.6h-5.565zm44.149 0h5.565v-18.5c0-5.194-2.65-7.738-7.367-7.738a10.857 10.857 0 00-8.692 4.717c-.848-2.809-3.18-4.717-7-4.717a11.055 11.055 0 00-8.313 4.138v-3.5h-5.565V494h5.565v-17.861a7.746 7.746 0 015.883-3.445c3.021 0 4.24 1.855 4.24 4.611V494h5.565v-17.914a7.768 7.768 0 015.936-3.392c2.968 0 4.187 1.855 4.187 4.611zm11.183-12.826c0 8.109 5.724 13.462 13.409 13.462a14.921 14.921 0 0010.388-3.71l-2.544-3.657a10.835 10.835 0 01-7.261 2.809 7.754 7.754 0 01-8.162-7.049h19.769V481.7c0-8.056-4.929-13.939-12.614-13.939-7.575.004-12.985 5.993-12.985 13.413zm12.985-8.851a6.847 6.847 0 017.208 6.784h-14.416c.265-3.127 2.433-6.784 7.208-6.784z" data-name="Path 635"/>
    </g>
    <g data-name="Group 76">
      <path fill="#bfc1c3" d="M302.746 464.924a20.983 20.983 0 01-22.814 14.989c.024-.448.053-.892.062-1.345a4.139 4.139 0 10-8.275-.189c-.354 15.8-10.807 21.372-19.753 21.372h-.244c-9.343-.108-18.8-6.258-18.8-17.812V396.13a39.65 39.65 0 0029.777 13.541 39.063 39.063 0 009.08-1.07 20.944 20.944 0 01-12.475 39.969 4.139 4.139 0 00-2.23 7.972 29.2 29.2 0 0034.594-16.287 20.982 20.982 0 0111.078 24.669zm8.691-10.576a29.278 29.278 0 00-17.507-22.143 29.308 29.308 0 00-11.973-27.569 39.479 39.479 0 0016.788-18.483 34.775 34.775 0 0112.688 68.2zm52.187-113.115a23.9 23.9 0 01-15.894 1.855 26.007 26.007 0 00-15.751-29.127 4.14 4.14 0 00-3.1 7.676 17.692 17.692 0 01-13.242 32.812 4.141 4.141 0 00-3.1 7.68 25.969 25.969 0 0032.287-11.231 31.839 31.839 0 0018.1-.49 26.184 26.184 0 01-26.5 43.674 43.139 43.139 0 00-35.012-16.415 39.456 39.456 0 00-50.809-45.061 4.138 4.138 0 002.531 7.88 31.2 31.2 0 0119.061 59.41c-.272.086-.549.163-.822.242a4.054 4.054 0 00-1.365.365 31.232 31.232 0 01-37.042-20.779c-.015-.04-.033-.068-.046-.1V260.893c0-11.912 6.34-21.9 16.54-26.073a24.691 24.691 0 0127.358 5.869 4.14 4.14 0 105.913-5.795 35.528 35.528 0 00-4.612-3.964 27.788 27.788 0 0144.995 32.544 4.14 4.14 0 006.9 4.575 35.893 35.893 0 005.111-11.965 21.725 21.725 0 11-14.885 27.606 29.222 29.222 0 00-56.645 14.382 4.137 4.137 0 004.015 3.138 4.053 4.053 0 001-.123 4.139 4.139 0 003.015-5.017 20.946 20.946 0 0140.644-10.146c.011.046.033.088.046.132s.013.086.026.13a30.015 30.015 0 0050.433 11.4 24.073 24.073 0 01.848 43.652z" data-name="Path 180"/>
      <path fill="#e94e68" d="M199.429 489.251a439.224 439.224 0 01-62.466-52.8c-31.143-31.99-68.264-81.764-68.264-137.221a73.376 73.376 0 01130.73-45.775z" data-name="Path 181"/>
      <path fill="#000c1d" d="M200.648 256.434A80.269 80.269 0 0056.69 305.297c0 25.365 7.348 51.6 21.845 77.952 11.5 20.922 27.518 41.975 47.6 62.581a427.563 427.563 0 0069.024 57.159 4.141 4.141 0 006.348-3.5V258.953a4.129 4.129 0 00-.859-2.519zm-7.421 235.3a431.059 431.059 0 01-61.286-51.811c-30.555-31.381-66.975-80.217-66.975-134.628a71.992 71.992 0 01128.259-44.912z" data-name="Path 182"/>
      <path fill="#000c1d" d="M378.682 335.072a32.342 32.342 0 00-16.037-39.389 30.006 30.006 0 00-31.619-43.294 36.055 36.055 0 00-65.218-20.515 32.573 32.573 0 00-24.449.253c-13.378 5.465-21.689 18.39-21.689 33.733v221.048c0 16.747 13.9 25.943 26.989 26.09h.321c10.961 0 22.66-6.285 26.633-19.944a29.221 29.221 0 0032.115-20.878 28.605 28.605 0 00.908-4.4 43.028 43.028 0 0030.533-59.179c.872.066 1.747.108 2.619.108a34.5 34.5 0 0026.033-57.083 32.126 32.126 0 0012.861-16.55zm-80.908 134.821a20.977 20.977 0 01-22.812 14.991 39.6 39.6 0 00.062-1.351 4.14 4.14 0 00-8.278-.182c-.354 15.793-10.807 21.372-19.753 21.372h-.239c-9.343-.108-18.806-6.26-18.806-17.815v-85.81a39.442 39.442 0 0038.859 12.47 20.943 20.943 0 01-12.47 39.968 4.14 4.14 0 10-2.235 7.972 29.19 29.19 0 0034.593-16.289 20.982 20.982 0 0111.079 24.674zm8.691-10.576a29.281 29.281 0 00-17.5-22.143 29.316 29.316 0 00-11.974-27.571 39.514 39.514 0 0016.788-18.484 34.774 34.774 0 0112.686 68.2zm52.187-113.113a23.891 23.891 0 01-15.892 1.85 26.014 26.014 0 00-15.751-29.127 4.141 4.141 0 00-3.1 7.68 17.692 17.692 0 11-13.242 32.812 4.142 4.142 0 00-3.1 7.682 25.97 25.97 0 0032.287-11.235 31.854 31.854 0 0018.1-.488 26.185 26.185 0 01-26.5 43.676 43.128 43.128 0 00-35.009-16.415 39.463 39.463 0 00-50.809-45.067 4.139 4.139 0 102.527 7.882 31.2 31.2 0 1119.074 59.413c-.273.086-.549.16-.822.24a4.024 4.024 0 00-1.358.363A31.237 31.237 0 01228 384.691a.639.639 0 00-.046-.105V265.86c0-11.912 6.34-21.906 16.54-26.07a24.7 24.7 0 0127.36 5.867 4.139 4.139 0 105.911-5.795 35.986 35.986 0 00-4.612-3.969 27.79 27.79 0 0144.995 32.551 4.14 4.14 0 106.9 4.575 35.951 35.951 0 005.116-11.969 21.728 21.728 0 11-14.888 27.611 29.22 29.22 0 00-56.643 14.378 4.144 4.144 0 004.013 3.142 4.275 4.275 0 001-.125 4.14 4.14 0 003.013-5.021 20.945 20.945 0 0140.644-10.143c.011.048.033.086.048.134s.015.088.026.13a30.017 30.017 0 0050.433 11.4 24.074 24.074 0 01.846 43.652z" data-name="Path 183"/>
    </g>
  </g>
</svg>
