<svg xmlns="http://www.w3.org/2000/svg" viewBox="0 0 1280 800">
  <defs>
    <clipPath id="a">
      <path d="M0 0h1280v800H0z"/>
    </clipPath>
  </defs>
  <g clip-path="url(#a)" data-name="2019-09-25-mental-health-training02">
    <path fill="#582d89" d="M0 0h1280v800H0z"/>
    <path fill="#fff" d="M410.87 374h8.073v-38.916h13.938v-7.107h-35.949v7.107h13.938zm51.2 0h7.245v-23.6c0-6.831-3.588-10.557-10.764-10.557a15.93 15.93 0 00-11.8 5.382v-17.248h-7.246V374h7.245v-23.253a11.2 11.2 0 018.556-4.485c4.071 0 6.762 1.587 6.762 6.762zm14.557-16.7c0 10.557 7.452 17.526 17.457 17.526 5.313 0 10.212-1.656 13.524-4.83l-3.308-4.759a14.105 14.105 0 01-9.453 3.657c-6.279 0-10.074-4.14-10.626-9.177h25.737v-1.725c0-10.488-6.417-18.147-16.422-18.147-9.871 0-16.909 7.797-16.909 17.455zm16.9-11.523a8.914 8.914 0 019.384 8.832h-18.763c.345-4.069 3.174-8.83 9.384-8.83zM517.13 374h7.245v-22.7c1.449-2.346 5.52-4.416 8.556-4.416a10.68 10.68 0 012.277.207v-7.177a14.233 14.233 0 00-10.833 5.658v-4.9h-7.245zM539 357.3c0 10.557 7.452 17.526 17.457 17.526 5.313 0 10.212-1.656 13.524-4.83l-3.312-4.761a14.105 14.105 0 01-9.453 3.657c-6.279 0-10.074-4.14-10.626-9.177h25.74v-1.723c0-10.488-6.417-18.147-16.422-18.147-9.867 0-16.908 7.797-16.908 17.455zm16.905-11.523a8.914 8.914 0 019.384 8.832h-18.765c.345-4.069 3.176-8.83 9.384-8.83zm44.919-10.212a4.485 4.485 0 10-4.485-4.485 4.476 4.476 0 004.488 4.487zM597.239 374h7.245v-33.327h-7.245zm13.731-4.347c3.45 3.381 8.625 5.175 14.283 5.175 8.97 0 13.869-4.485 13.869-10.35 0-7.866-7.107-9.522-12.9-10.764-3.933-.9-7.245-1.794-7.245-4.347 0-2.346 2.415-3.726 6.21-3.726a13.44 13.44 0 019.867 4l3.036-5.106a19.052 19.052 0 00-12.972-4.692c-8.418 0-13.11 4.692-13.11 10.143 0 7.452 6.831 8.97 12.558 10.212 4.071.9 7.59 1.932 7.59 4.83 0 2.484-2.208 4.071-6.555 4.071a17.2 17.2 0 01-11.316-4.692zm68.241 5.175c10.7 0 17.181-7.935 17.181-17.526 0-9.522-6.486-17.457-17.181-17.457-10.557 0-17.112 7.935-17.112 17.457.001 9.591 6.555 17.526 17.112 17.526zm0-6.417c-6.141 0-9.591-5.175-9.591-11.109 0-5.865 3.45-11.04 9.591-11.04 6.21 0 9.66 5.175 9.66 11.04 0 5.934-3.45 11.109-9.66 11.109zM726.2 374h7.245v-23.46c0-6.831-3.588-10.7-10.764-10.7a15.768 15.768 0 00-11.73 5.382v-4.549h-7.245V374h7.245v-23.253a10.971 10.971 0 018.556-4.485c4.071 0 6.693 1.725 6.693 6.9zm14.559-16.7c0 10.557 7.452 17.526 17.457 17.526 5.313 0 10.212-1.656 13.524-4.83l-3.312-4.761a14.105 14.105 0 01-9.453 3.657c-6.279 0-10.074-4.14-10.626-9.177h25.737v-1.723c0-10.488-6.417-18.147-16.422-18.147-9.864 0-16.905 7.797-16.905 17.455zm16.9-11.523a8.914 8.914 0 019.384 8.832H748.28c.345-4.069 3.174-8.83 9.384-8.83zM822.455 374h7.245v-46.023h-7.245V345.3a13.37 13.37 0 00-10.7-5.451c-8.625 0-14.835 6.762-14.835 17.526 0 10.971 6.279 17.457 14.835 17.457a13.5 13.5 0 0010.7-5.382zm0-10.005a10.89 10.89 0 01-8.625 4.416c-5.727 0-9.384-4.623-9.384-11.04 0-6.486 3.657-11.109 9.384-11.109a10.949 10.949 0 018.625 4.485zm14.559-6.695c0 10.557 7.452 17.526 17.457 17.526 5.313 0 10.212-1.656 13.524-4.83l-3.312-4.761a14.105 14.105 0 01-9.453 3.657c-6.279 0-10.074-4.14-10.626-9.177h25.737v-1.723c0-10.488-6.417-18.147-16.422-18.147-9.867 0-16.905 7.797-16.905 17.455zm16.9-11.523a8.914 8.914 0 019.384 8.832h-18.763c.345-4.069 3.174-8.83 9.384-8.83zM897.872 374h7.245v-22.08c0-8.97-6.486-12.075-13.869-12.075a19.819 19.819 0 00-14.007 5.382l2.967 5.037a13.646 13.646 0 019.867-4.209c4.623 0 7.8 2.346 7.8 6.21v4.968c-2.415-2.829-6.279-4.278-10.764-4.278-5.451 0-11.592 3.174-11.592 10.833 0 7.383 6.141 11.04 11.592 11.04a14.069 14.069 0 0010.764-4.416zm0-7.59c-1.656 2.277-4.761 3.45-7.935 3.45-4.071 0-7.107-2.346-7.107-5.934 0-3.657 3.036-6 7.107-6 3.174 0 6.279 1.173 7.935 3.45zm26.634 8.418c3.381 0 5.52-.9 6.831-2.139l-1.725-5.451a4.677 4.677 0 01-3.243 1.173c-2.07 0-3.174-1.656-3.174-3.933v-17.457h6.762v-6.348h-6.762v-9.108h-7.245v9.108h-5.52v6.348h5.52v19.251c0 5.52 2.967 8.556 8.556 8.556zm34.569-.828h7.245v-23.6c0-6.831-3.588-10.557-10.764-10.557a15.93 15.93 0 00-11.8 5.382v-17.248h-7.245V374h7.245v-23.253a11.2 11.2 0 018.556-4.485c4.071 0 6.762 1.587 6.762 6.762zm34.362 0h7.245v-4.554a13.4 13.4 0 0010.7 5.382c8.487 0 14.766-6.486 14.766-17.457 0-10.764-6.21-17.526-14.766-17.526a13.178 13.178 0 00-10.7 5.451v-17.319h-7.245zm7.245-10.005v-13.179a10.875 10.875 0 018.556-4.554c5.8 0 9.453 4.623 9.453 11.109s-3.657 11.04-9.453 11.04a10.755 10.755 0 01-8.556-4.416zm32.5 16.56l-1.1 6.486a20.491 20.491 0 004.071.483c5.175-.069 9.177-1.863 11.454-7.521l16.077-39.33h-7.8l-9.729 24.978-9.729-24.978h-7.726l13.662 33.741-1.662 3.795c-.966 2.208-2.484 2.9-4.761 2.9a7.572 7.572 0 01-2.758-.554zm-636.388 79.098c3.45 3.381 8.625 5.175 14.283 5.175 8.97 0 13.869-4.485 13.869-10.35 0-7.866-7.107-9.522-12.9-10.764-3.933-.9-7.245-1.794-7.245-4.347 0-2.346 2.415-3.726 6.21-3.726a13.44 13.44 0 019.867 4l3.036-5.106a19.052 19.052 0 00-12.972-4.692c-8.418 0-13.11 4.692-13.11 10.143 0 7.452 6.831 8.97 12.558 10.212 4.071.9 7.59 1.932 7.59 4.83 0 2.484-2.208 4.071-6.555 4.071a17.2 17.2 0 01-11.316-4.692zm57.96 4.347H462v-33.327h-7.246v23.391a11.085 11.085 0 01-8.556 4.347c-4.071 0-6.693-1.587-6.693-6.762v-20.976h-7.245v23.6c0 6.831 3.519 10.557 10.695 10.557a15.973 15.973 0 0011.8-5.244zm20.217-38.433a4.485 4.485 0 10-4.485-4.485 4.476 4.476 0 004.485 4.485zM471.383 464h7.245v-33.327h-7.245zm14.559-16.7c0 10.143 7.107 17.526 17.25 17.526 6.486 0 10.419-2.76 12.765-5.934l-4.761-4.416a9.06 9.06 0 01-7.659 3.933c-6.072 0-10.074-4.623-10.074-11.109s4-11.04 10.074-11.04a8.9 8.9 0 017.659 3.933l4.761-4.416c-2.346-3.174-6.279-5.934-12.765-5.934-10.143.002-17.25 7.385-17.25 17.457zm39.951-21.735a4.485 4.485 0 10-4.485-4.485 4.476 4.476 0 004.485 4.487zM522.3 464h7.245v-33.327H522.3zm40.089 0h7.245v-46.023h-7.245V435.3a13.37 13.37 0 00-10.7-5.451c-8.625 0-14.835 6.762-14.835 17.526 0 10.971 6.279 17.457 14.835 17.457a13.5 13.5 0 0010.7-5.382zm0-10.005a10.89 10.89 0 01-8.625 4.416c-5.727 0-9.384-4.623-9.384-11.04 0-6.486 3.657-11.109 9.384-11.109a10.949 10.949 0 018.625 4.485zm14.559-6.693c0 10.557 7.452 17.526 17.457 17.526 5.313 0 10.212-1.656 13.524-4.83l-3.312-4.761a14.105 14.105 0 01-9.453 3.657c-6.279 0-10.074-4.14-10.626-9.177h25.742v-1.725c0-10.488-6.417-18.147-16.422-18.147-9.867 0-16.905 7.797-16.905 17.455zm16.905-11.523a8.914 8.914 0 019.384 8.832h-18.763c.345-4.071 3.174-8.832 9.384-8.832zm39.266 11.521c0 10.557 7.452 17.526 17.457 17.526 5.313 0 10.212-1.656 13.524-4.83l-3.312-4.761a14.105 14.105 0 01-9.453 3.657c-6.279 0-10.074-4.14-10.626-9.177h25.737v-1.725c0-10.488-6.417-18.147-16.422-18.147-9.867.002-16.905 7.799-16.905 17.457zm16.905-11.523a8.914 8.914 0 019.384 8.832H640.64c.345-4.069 3.174-8.83 9.384-8.83zM682.385 464h7.8l13.593-33.327h-7.8l-9.729 24.978-9.729-24.978h-7.728zm23.874-16.7c0 10.557 7.452 17.526 17.457 17.526 5.313 0 10.212-1.656 13.524-4.83l-3.312-4.761a14.105 14.105 0 01-9.453 3.657c-6.279 0-10.074-4.14-10.626-9.177h25.737v-1.725c0-10.488-6.417-18.147-16.422-18.147-9.864.002-16.905 7.799-16.905 17.457zm16.9-11.523a8.914 8.914 0 019.384 8.832H713.78c.345-4.069 3.174-8.83 9.384-8.83zM746.762 464h7.245v-22.7c1.449-2.346 5.52-4.416 8.556-4.416a10.68 10.68 0 012.277.207v-7.176a14.232 14.232 0 00-10.833 5.658v-4.9h-7.245zm23.6 6.555l-1.1 6.486a20.49 20.49 0 004.071.483c5.175-.069 9.177-1.863 11.454-7.521l16.077-39.33h-7.8l-9.729 24.978-9.735-24.978h-7.728l13.662 33.741-1.656 3.795c-.966 2.208-2.484 2.9-4.761 2.9a7.572 7.572 0 01-2.757-.554zM821.9 464h33.33v-7.107h-20.424c12.351-9.315 20.148-16.9 20.148-25.392 0-9.177-7.8-14.214-16.7-14.214-6.417 0-12.9 2.484-16.974 7.383l4.692 5.313a15.98 15.98 0 0112.42-5.52c4.209 0 8.349 2.208 8.349 7.038 0 6.624-6.969 12.627-24.84 26.151zm40.434-22.977c0 11.592 5.52 23.805 18.423 23.805s18.423-12.213 18.423-23.805-5.52-23.736-18.423-23.736-18.42 12.144-18.42 23.736zm28.635 0c0 8.763-2.691 16.629-10.212 16.629s-10.212-7.866-10.212-16.629 2.691-16.56 10.212-16.56 10.215 7.797 10.215 16.56zm30.567 18.63c3.45 3.381 8.625 5.175 14.283 5.175 8.97 0 13.869-4.485 13.869-10.35 0-7.866-7.107-9.522-12.9-10.764-3.933-.9-7.245-1.794-7.245-4.347 0-2.346 2.415-3.726 6.21-3.726a13.44 13.44 0 019.867 4l3.036-5.106a19.053 19.053 0 00-12.972-4.692c-8.418 0-13.11 4.692-13.11 10.143 0 7.452 6.831 8.97 12.558 10.212 4.071.9 7.59 1.932 7.59 4.83 0 2.484-2.208 4.071-6.555 4.071a17.2 17.2 0 01-11.316-4.692zm33.4-12.351c0 10.557 7.452 17.526 17.457 17.526 5.313 0 10.212-1.656 13.524-4.83l-3.312-4.761a14.105 14.105 0 01-9.453 3.657c-6.279 0-10.074-4.14-10.626-9.177h25.737v-1.725c0-10.488-6.417-18.147-16.422-18.147-9.868 0-16.906 7.797-16.906 17.455zm16.9-11.523a8.914 8.914 0 019.384 8.832h-18.764c.344-4.071 3.174-8.832 9.384-8.832zm21.532 11.521c0 10.143 7.107 17.526 17.25 17.526 6.486 0 10.419-2.76 12.765-5.934l-4.761-4.416a9.06 9.06 0 01-7.659 3.933c-6.072 0-10.074-4.623-10.074-11.109s4-11.04 10.074-11.04a8.9 8.9 0 017.659 3.933l4.761-4.416c-2.346-3.174-6.279-5.934-12.765-5.934-10.143.002-17.25 7.385-17.25 17.457zm51.4 17.526c10.7 0 17.181-7.935 17.181-17.526 0-9.522-6.486-17.457-17.181-17.457-10.557 0-17.112 7.935-17.112 17.457.005 9.593 6.56 17.528 17.117 17.528zm0-6.417c-6.141 0-9.591-5.175-9.591-11.109 0-5.865 3.45-11.04 9.591-11.04 6.21 0 9.66 5.175 9.66 11.04.005 5.936-3.445 11.111-9.655 11.111zm46.994 5.591h7.245v-23.46c0-6.831-3.588-10.695-10.764-10.695a15.768 15.768 0 00-11.73 5.382v-4.554h-7.245V464h7.245v-23.253a10.971 10.971 0 018.556-4.485c4.071 0 6.693 1.725 6.693 6.9zm40.089 0h7.249v-46.023h-7.245V435.3a13.37 13.37 0 00-10.7-5.451c-8.625 0-14.835 6.762-14.835 17.526 0 10.971 6.279 17.457 14.835 17.457a13.5 13.5 0 0010.7-5.382zm0-10.005a10.89 10.89 0 01-8.625 4.416c-5.727 0-9.384-4.623-9.384-11.04 0-6.486 3.657-11.109 9.384-11.109a10.949 10.949 0 018.625 4.485zm13.731 5.658c3.45 3.381 8.625 5.175 14.283 5.175 8.97 0 13.869-4.485 13.869-10.35 0-7.866-7.107-9.522-12.9-10.764-3.933-.9-7.245-1.794-7.245-4.347 0-2.346 2.415-3.726 6.21-3.726a13.44 13.44 0 019.867 4l3.036-5.106a19.053 19.053 0 00-12.972-4.692c-8.418 0-13.11 4.692-13.11 10.143 0 7.452 6.831 8.97 12.558 10.212 4.071.9 7.59 1.932 7.59 4.83 0 2.484-2.208 4.071-6.555 4.071a17.2 17.2 0 01-11.316-4.692z" data-name="Path 262"/>
    <path fill="#24beca" d="M0 726h1280v74H0z" data-name="Rectangle 44"/>
    <g fill="#582d89" data-name="Group 52">
      <path d="M983.029 779.457h9.954a1.93 1.93 0 001.935-1.843v-6.821a36.608 36.608 0 01-11.889 8.664z" data-name="Path 137"/>
      <path d="M980.817 756.323c-.092-1.751-1.383-2.857-4.148-2.577-5.437.365-9.583 6.54-10.783 12.9 11.8-.922 15.023-8.111 14.931-10.323z" data-name="Path 138"/>
      <path d="M979.803 749.963c5.622-.369 8.2 1.843 8.387 4.608.461 6.083-9.493 13.272-22.581 14.378h-.184a10.209 10.209 0 00.369 5.069c.922 2.4 3.318 3.318 6.083 3.318 12.166 0 21.106-13.456 23.041-19.539v-9.954a1.871 1.871 0 00-1.935-1.843h-29.678a1.849 1.849 0 00-1.843 1.843v13.641c4.793-6.084 12.166-11.06 18.341-11.521z" data-name="Path 139"/>
      <g>
        <path d="M1019.344 768.673a4.855 4.855 0 003.779-1.659l1.106.922a6.365 6.365 0 01-4.885 2.3 5.892 5.892 0 01-5.9-6.175c0-3.41 2.4-6.175 5.714-6.175 3.5 0 5.53 2.857 5.53 6.267v.553h-9.493a4.081 4.081 0 004.149 3.967zm3.41-5.346c-.184-2.12-1.475-4.055-3.779-4.055-2.028 0-3.594 1.751-3.871 4.055z" data-name="Path 140"/>
        <path d="M1037.222 769.963v-2.4a5.23 5.23 0 01-4.516 2.673 5.856 5.856 0 01-5.714-6.171 5.856 5.856 0 015.714-6.175 5.228 5.228 0 014.516 2.581v-7.374h1.751v16.866zm-4.24-10.6c-2.3 0-4.147 1.751-4.147 4.608s1.935 4.608 4.147 4.608a4.452 4.452 0 004.332-4.608 4.452 4.452 0 00-4.331-4.607z" data-name="Path 141"/>
        <path d="M1048.284 773.65a9.258 9.258 0 01-5.439-1.66l.829-1.382a8.066 8.066 0 004.61 1.476c2.581 0 4.332-1.475 4.332-4.24v-1.383a5.681 5.681 0 01-4.7 2.581 5.427 5.427 0 01-5.53-5.53 5.5 5.5 0 015.528-5.622 5.773 5.773 0 014.7 2.4v-2.12h1.751v9.77c-.092 3.775-2.488 5.71-6.081 5.71zm-.092-14.286a3.892 3.892 0 00-4.147 4.055 4 4 0 004.147 4.055 4.176 4.176 0 004.422-4.054 4.23 4.23 0 00-4.424-4.055z" data-name="Path 142"/>
        <path d="M1063.491 768.673a4.855 4.855 0 003.779-1.659l1.106.922a6.365 6.365 0 01-4.885 2.3 5.892 5.892 0 01-5.9-6.175c0-3.41 2.4-6.175 5.714-6.175 3.5 0 5.53 2.857 5.53 6.267v.553h-9.4a3.948 3.948 0 004.056 3.967zm3.41-5.346c-.184-2.12-1.475-4.055-3.779-4.055-2.028 0-3.594 1.751-3.871 4.055z" data-name="Path 143"/>
        <path d="M1078.144 770.24a5.228 5.228 0 01-4.516-2.581v5.991h-1.751v-15.576h1.751v2.3a5.23 5.23 0 014.516-2.673 5.856 5.856 0 015.714 6.175c.001 3.967-2.857 6.364-5.714 6.364zm-.367-10.876a4.452 4.452 0 00-4.332 4.608 4.34 4.34 0 004.332 4.608c2.3 0 4.147-1.751 4.147-4.608a4.153 4.153 0 00-4.147-4.608z" data-name="Path 144"/>
        <path d="M1092.522 770.239a6.116 6.116 0 01-6.175-6.175 6.194 6.194 0 016.175-6.267 6.116 6.116 0 016.175 6.175 6.194 6.194 0 01-6.175 6.267zm0-10.876a4.339 4.339 0 00-4.332 4.608 4.491 4.491 0 004.424 4.7 4.412 4.412 0 004.424-4.608 4.625 4.625 0 00-4.516-4.7z" data-name="Path 145"/>
        <path d="M1101.923 755.493v-1.935h2.028v1.935zm.184 14.47v-11.889h1.751v11.889z" data-name="Path 146"/>
        <path d="M1109.757 769.963h-1.751v-11.89h1.751v2.024a4.43 4.43 0 014.055-2.3c2.857 0 4.516 1.935 4.516 4.7v7.373h-1.751v-6.912c0-2.212-1.2-3.594-3.318-3.594a3.51 3.51 0 00-3.594 3.687l.092 6.912z" data-name="Path 147"/>
        <path d="M1124.504 766.553a1.8 1.8 0 002.028 2.028 3.994 3.994 0 001.751-.369v1.475a4 4 0 01-2.12.461c-1.935 0-3.318-.922-3.318-3.318v-7.19h-1.659v-1.661h1.659v-3.5h1.751v3.5h3.779v1.567h-3.779v7z" data-name="Path 148"/>
      </g>
      <g>
        <path d="M1138.42 769.963v-16.866h1.751v16.866z" data-name="Path 149"/>
        <path d="M1149.666 768.673a4.855 4.855 0 003.779-1.659l1.106.922a6.365 6.365 0 01-4.885 2.3 5.892 5.892 0 01-5.9-6.175c0-3.41 2.4-6.175 5.714-6.175 3.5 0 5.53 2.857 5.53 6.267v.553h-9.4a3.948 3.948 0 004.055 3.963zm3.41-5.346c-.184-2.12-1.475-4.055-3.779-4.055-2.028 0-3.594 1.751-3.871 4.055z" data-name="Path 150"/>
        <path d="M1158.604 760.382l-.553-1.475a9.105 9.105 0 014.332-.925c3.226 0 5.069 1.659 5.069 4.793v7.281h-1.751v-1.751a5.161 5.161 0 01-4.332 2.028c-2.212 0-4.424-1.2-4.424-3.687 0-2.581 2.028-3.871 5.069-3.871a13.114 13.114 0 013.594.461v-.369c0-2.12-1.29-3.226-3.594-3.226a5.9 5.9 0 00-3.41.737zm.276 5.991c0 1.475 1.382 2.4 3.041 2.4 2.212 0 3.963-1.29 3.963-3.226v-1.2a11.937 11.937 0 00-3.5-.461c-2.212 0-3.5 1.014-3.5 2.488z" data-name="Path 151"/>
        <path d="M1173.074 769.963h-1.751v-11.889h1.751v3.041a5.068 5.068 0 014.885-3.318v1.843h-.092c-2.581 0-4.7 1.843-4.7 5.438v4.885z" data-name="Path 152"/>
        <path d="M1182.383 769.963h-1.751v-11.89h1.751v2.024a4.43 4.43 0 014.055-2.3c2.857 0 4.516 1.935 4.516 4.7v7.373h-1.751v-6.912c0-2.212-1.2-3.594-3.318-3.594a3.51 3.51 0 00-3.594 3.687v6.912z" data-name="Path 153"/>
        <path d="M1194.733 755.493v-1.935h2.028v1.935zm.184 14.47v-11.889h1.751v11.889z" data-name="Path 154"/>
        <path d="M1202.567 769.963h-1.751v-11.89h1.751v2.024a4.43 4.43 0 014.055-2.3c2.857 0 4.516 1.935 4.516 4.7v7.373h-1.751v-6.912c0-2.212-1.2-3.594-3.318-3.594a3.51 3.51 0 00-3.594 3.687l.092 6.912z" data-name="Path 155"/>
        <path d="M1220.265 773.65a9.258 9.258 0 01-5.439-1.66l.83-1.382a8.066 8.066 0 004.608 1.475c2.581 0 4.332-1.475 4.332-4.24v-1.382a5.681 5.681 0 01-4.7 2.581 5.427 5.427 0 01-5.53-5.53 5.5 5.5 0 015.53-5.622 5.641 5.641 0 014.7 2.4v-2.12h1.751v9.77c-.092 3.779-2.488 5.714-6.083 5.714zm-.092-14.286a3.892 3.892 0 00-4.147 4.055 4 4 0 004.147 4.055 4.176 4.176 0 004.424-4.055 4.23 4.23 0 00-4.426-4.054z" data-name="Path 156"/>
      </g>
    </g>
    <g data-name="Group 426">
      <g data-name="Group 424">
        <g data-name="Group 420">
          <path fill="#fff" d="M193.335 535.423c-74.041 0-134.276-60.238-134.276-134.276s60.235-134.274 134.276-134.274 134.274 60.233 134.274 134.274-60.235 134.276-134.274 134.276zm0-237.62a103.343 103.343 0 10103.344 103.344 103.46 103.46 0 00-103.344-103.344z" data-name="Path 257"/>
        </g>
        <path fill="#fff" d="M177.519 239.453h31.635v33.744h-31.635z" data-name="Rectangle 46"/>
        <g data-name="Group 421">
          <path fill="#fff" d="M229.216 232.88a35.882 35.882 0 10-57.322 28.756v-19.838a23.227 23.227 0 1142.883 0v19.839a35.86 35.86 0 0014.439-28.757z" data-name="Path 258"/>
        </g>
        <g fill="#fff" data-name="Group 422">
          <path d="M65.37 286.109l12.927-12.927 20.423 20.424-12.927 12.926z" data-name="Rectangle 47"/>
          <path d="M287.951 293.604l20.423-20.42 12.925 12.926-20.423 20.42z" data-name="Rectangle 48"/>
        </g>
        <g fill="#fff" data-name="Group 423">
          <path d="M146.245 427.712l-1.113-2.685 16.513-21.717a78.886 78.886 0 006.351-9.695 15.428 15.428 0 002.089-7.094 5.642 5.642 0 00-2.089-4.593 8.867 8.867 0 00-5.8-1.716 17.234 17.234 0 00-6.587 1.254 44.9 44.9 0 00-5.472 2.643 65.455 65.455 0 01-2.6-6.585 25.681 25.681 0 01-1.3-6.868 36.291 36.291 0 017.7-3.058 37.405 37.405 0 0110.3-1.3 32.853 32.853 0 018.766 1.115 20.071 20.071 0 017 3.388 15.7 15.7 0 014.638 5.7 18.466 18.466 0 011.669 8.162 23.068 23.068 0 01-.832 6.3 34.587 34.587 0 01-2.134 5.666 42.02 42.02 0 01-2.921 5.1q-1.628 2.407-3.2 4.637l-5.288 7.422h16.235a32.936 32.936 0 01.837 6.774 34.329 34.329 0 01-.837 7.141z" data-name="Path 259"/>
          <path d="M220.556 366.297a22.646 22.646 0 0110.76 2.414 21.272 21.272 0 017.511 6.63 29 29 0 014.359 9.975 52.6 52.6 0 011.393 12.43 48.551 48.551 0 01-1.483 12.338 29.893 29.893 0 01-4.454 9.836 20.9 20.9 0 01-7.608 6.543 23.588 23.588 0 01-10.852 2.36 23.027 23.027 0 01-10.765-2.36 20.763 20.763 0 01-7.467-6.543 29.717 29.717 0 01-4.359-9.836 49.983 49.983 0 01-1.438-12.338 49.459 49.459 0 011.488-12.43 30.236 30.236 0 014.451-9.975 21.071 21.071 0 017.561-6.63 23.108 23.108 0 0110.903-2.414zm-.189 14.009q-3.707 0-5.75 4.359t-2.042 13.08q0 8.629 2.087 12.986c1.391 2.914 3.294 4.362 5.706 4.362 2.352 0 4.2-1.448 5.564-4.362s2.044-7.233 2.044-12.986q0-8.718-2.044-13.08t-5.565-4.359z" data-name="Path 260"/>
        </g>
        <path fill="#fff" d="M189.198 330.126l.1-28.033 8.173.03-.101 28.032z" data-name="Rectangle 49"/>
        <path fill="#fff" d="M240.627 348.002l19.892-19.75 5.76 5.801-19.893 19.75z" data-name="Rectangle 50"/>
        <path fill="#fff" d="M264.324 405.183l.025-8.171 28.033.084-.025 8.171z" data-name="Rectangle 51"/>
        <path fill="#fff" d="M240.676 454.202l5.795-5.762 19.762 19.875-5.794 5.762z" data-name="Rectangle 52"/>
        <path fill="#fff" d="M189.203 500.17l.092-28.035 8.172.027-.092 28.035z" data-name="Rectangle 53"/>
        <path fill="#fff" d="M120.391 468.237l19.893-19.75 5.757 5.798-19.893 19.75z" data-name="Rectangle 54"/>
        <path fill="#fff" d="M94.283 405.181l.03-8.17 28.032.099-.03 8.17z" data-name="Rectangle 55"/>
        <path fill="#fff" d="M120.44 333.958l5.802-5.761 19.763 19.903-5.802 5.761z" data-name="Rectangle 56"/>
      </g>
      <g data-name="Group 425">
        <path fill="#fff" d="M264.296 401.147a70.465 70.465 0 01-9.541 35.461l24.342 14.057a99.008 99.008 0 00-85.763-148.6v28.12a71.043 71.043 0 0170.962 70.962z" data-name="Path 261"/>
      </g>
    </g>
  </g>
</svg>
