<svg xmlns="http://www.w3.org/2000/svg" viewBox="0 0 1280 800">
  <defs>
    <clipPath id="a">
      <path d="M0 0h1280v800H0z"/>
    </clipPath>
  </defs>
  <g clip-path="url(#a)" data-name="2019-09-25-mental-health-training01">
    <path fill="#fff9e1" d="M0 0h1280v800H0z"/>
    <g data-name="Group 419">
      <path fill="#fff6cf" d="M0-13h1280v800H0z" data-name="bg"/>
      <path fill="#c1c1c1" d="M453.68 684.307c-5.218 53.315-73.677 20.485-137.816 13.267-96.952-10.912-178.328 9.56-187.5-44.819-9.827-58.229 97.219-18.013 194.312-8.509s134.746 1.832 131.004 40.061z" data-name="Path 231"/>
      <g data-name="Group 418">
        <g data-name="Group 385">
          <path fill="#002869" d="M429.51 70.941c-161.5 1.752-115.576 109.795-213.587 132.117 0 0-.189 88.733-8.568 147.976l-21.936 17.849a129.454 129.454 0 0019.2 13.461c-2.2 92.1 54.413 116.7 54.413 116.7 17.44-1.1 49.323-30.565 88.419-75.8a508.857 508.857 0 0111.413 7.405c69.245 46.245 98.68-13.227 165.667 50.539 65.043 61.915 146.363-4.632 208 66.813 60.835 70.515 546.282 40.277 564.949 24.883L1344.83-13H531.336c-28.728 32.979-35.154 83.219-101.826 83.941z" data-name="Path 232"/>
        </g>
        <g data-name="Group 390">
          <g data-name="Group 387">
            <g data-name="Group 386">
              <path fill="#fdb98d" d="M382.966 641.966c7.136 18.872 23.941 25.061 39.837 31.3 5.829 2.288 38.059 32.491-9.573 23.016-8.357-1.661-36.76-8.275-49.9-14.344-13.328-6.157-6.251-26.157-8.576-33.923-.001-.004 17.716-33.82 28.212-6.049z" data-name="Path 233"/>
            </g>
          </g>
          <g data-name="Group 389">
            <g data-name="Group 388">
              <path fill="#002869" d="M422.804 673.264c19.136 7.739 34.376 17.536 29.507 29.013-5.475 12.912-34.936 9.427-45.6 4.579-5.763-2.621-16.123-8.712-23.824-11.675-9.248-3.56-16.739-8.075-23.013-10.808-8.707-3.792-10.069-16.384-4.771-26.507.629 3.736 3.795 9.664 7.691 11.96 16.365 9.643 36.547 20.109 46.469 21.344s15.653-.24 17.707-5.1c3.154-7.464-.318-9.827-4.166-12.806z" data-name="Path 234"/>
            </g>
          </g>
        </g>
        <g data-name="Group 395">
          <g data-name="Group 392">
            <g data-name="Group 391">
              <path fill="#fdb98d" d="M422.045 604.853c5.645 19.368 21.923 26.843 37.285 34.3 5.635 2.733 35.421 35.349-11.333 22.205-8.2-2.307-36.005-11.107-48.635-18.176-12.811-7.173-4.443-26.621-6.157-34.544 0-.003 20.531-32.289 28.84-3.785z" data-name="Path 235"/>
            </g>
          </g>
          <g data-name="Group 394">
            <g data-name="Group 393">
              <path fill="#002869" d="M459.331 639.149c18.312 8.568 32.912 20.152 27.165 31.219-6.461 12.448-35.563 6.685-45.819 1.024-5.544-3.061-15.4-9.939-22.845-13.491-8.947-4.267-16.064-9.352-22.107-12.563-8.387-4.456-8.957-17.133-2.891-26.811.339 3.773 3.227 9.944 6.931 12.536 15.568 10.883 34.875 22.885 44.672 24.888s15.624.973 18.048-3.709c3.729-7.197.451-9.823-3.154-13.093z" data-name="Path 236"/>
            </g>
          </g>
        </g>
        <g data-name="Group 396">
          <path fill="#002869" d="M256.904 347.621c8.331 84.336 113.739 87.715 119.379-24.453 1.133-22.563 23.629-78.707-46.165-101.96-31.129-10.371-73.214 126.413-73.214 126.413z" data-name="Path 237"/>
        </g>
        <g data-name="Group 397">
          <path fill="#a9d3e0" d="M313.051 420.327c-19.4 110.643-32.64 237.411-113.144 237.541s-90.2-105.845-100.512-100.9c-12.424 5.96-17.731-22.344-16.864-51.52.064-2.117.128-4.328.256-6.541 5.066-87.044 61.781-238.854 160.338-218.27 78.774 16.448 88.9 31.485 69.926 139.69z" data-name="Path 238"/>
        </g>
        <g data-name="Group 398">
          <path fill="#002869" d="M139.398 542.482s132.605-40.856 177.195-182.226c17.979-56.992 48.333 56.219 40.515 157.28-3.456 44.669-14.547 83.064-35.536 113.467-36.123 52.313-177.699 71.413-182.174-88.521z" data-name="Path 239"/>
        </g>
        <g data-name="Group 399">
          <path fill="#002869" d="M388.003 616.61s-158.929-279.687-50.009-276.772c79.648 2.131 87.061 267.7 87.061 267.7 1.009 8.065-34.53 12.98-37.052 9.072z" data-name="Path 240"/>
        </g>
        <g data-name="Group 400">
          <path fill="#016099" d="M99.403 556.971S209.195 517.4 253.787 376.032c0 0 56.32 1.093 56.411 125.709.008 11.392-6.328 99.056-51.995 151.229-43.579 49.793-167.902 32.438-158.8-95.999z" data-name="Path 241"/>
        </g>
        <g data-name="Group 401">
          <path fill="#fdb98d" d="M326.022 578.752c5.365-1 14.512-3.392 15.211-5.827 1.136-3.944-18.139 1.669-26.021-.221-5.789-1.387-14.208-6.5-14.44-8.392.859-5.752 18.707-5.576 21.893-9.512 1.92-2.371-3.387-4.008-13.907-1.909-9.544 1.9-13.5-1.077-21.981-.784-3.181.112-9.387.6-15.728.845-5.072.192-13.491-4.944-13.491-4.944l-4.7 23.768c3.837 3.152 39.453 26.181 55.131 26.976 17.616.9 29.525-4.616 31.573-7.312 1.021-1.347-4.437-1.92-7.253-1.651 5.565-1.539 11.376-3.051 12.541-4.733 1.509-2.179-9.029-1.477-17.3-.027 7.755-1.877 17.7-4.075 19.032-6.325 2.347-3.963-12.661-1.091-20.56.048z" data-name="Path 242"/>
        </g>
        <g data-name="Group 402">
          <path fill="#016099" d="M350.091 650.382s-179.792-277.363-64.736-300.816c99.3-20.237 102.541 291.139 102.541 291.139 1.891 11.208-32.461 14.069-37.805 9.677z" data-name="Path 243"/>
        </g>
        <g data-name="Group 403">
          <path fill="#a9d3e0" d="M256.147 583.736c-51.584-20.093-96.576-31.272-133.888-69.747-13.693-14.117-25.851-36.6-28.419-65.6-.171-1.507-.275-3.048-.376-4.587-4.109-67.38 35.763-146.146 131.39-150.207l7.227 71.605c15.645 30.677-30.848 64.1-16.093 81.864 29.379 35.4 30.1 95.859 52.173 104.52 6.255 2.454-4.206 35.192-12.014 32.152z" data-name="Path 244"/>
        </g>
        <g data-name="Group 410">
          <g data-name="Group 404">
            <path fill="#ed715d" d="M280.312 284.606l-51.659 30.151c-13.051 13.357 12.592 53.528 28.251 39.411l20.259-20.872z" data-name="Path 245"/>
          </g>
          <g data-name="Group 409">
            <g data-name="Group 405">
              <path fill="#fdb98d" d="M322.657 342.296a83.63 83.63 0 01-9.544 6.037 47.2 47.2 0 01-14.488 4.413c-13.467 1.781-34.224 1.389-40.965-9.941-11.912-20.019-3.835-59.237 27.565-72.667 27.4-11.723 79.312-12.224 68.52 4.272-16.747 25.6.115 34.2-9.563 51.211-2.027 3.563-4.917 7.427-13.869 12.3-2.875 1.567-5.414 2.884-7.656 4.375z" data-name="Path 246"/>
            </g>
            <g data-name="Group 406">
              <path fill="#ed715d" d="M284.532 308.733a13.129 13.129 0 114.315-18.059 13.126 13.126 0 01-4.315 18.059z" data-name="Path 247"/>
            </g>
            <g data-name="Group 407">
              <path fill="#ed715d" d="M313.111 348.331a49.172 49.172 0 01-14.488 4.413 13.133 13.133 0 0123.563-11.277c.171.28.32.552.469.827a83.63 83.63 0 01-9.544 6.037z" data-name="Path 248"/>
            </g>
            <g data-name="Group 408">
              <path fill="#002869" d="M374.581 261.109s-23.373-72.4-96.088-42.125c-27.806 11.576-62.574-15.986-62.574-15.986-78.235 8.533-95.805 81.909-85.181 131.224 0 0 34.848-34.552 64.72-8.965 27.184 23.285 59.968 27.424 60.227-6.739.256-33.9 19.555-43.776 40.939-46.352 14.829-1.787 15.176 24.005 36.557 28.819 30.09 6.772 41.4-39.876 41.4-39.876z" data-name="Path 249"/>
            </g>
          </g>
        </g>
        <g data-name="Group 411">
          <path fill="#016099" d="M403.901 443.931a1.317 1.317 0 01-1.3-1.123c-6.869-46.835-22.957-81.856-44.136-96.083-8.453-5.677-17.392-7.579-25.859-5.488a1.313 1.313 0 01-.629-2.549c9.2-2.277 18.869-.245 27.952 5.856 21.795 14.643 38.293 50.317 45.272 97.883a1.315 1.315 0 01-1.109 1.491 1.544 1.544 0 01-.191.013z" data-name="Path 250"/>
        </g>
        <g data-name="Group 412">
          <path fill="#002869" d="M289.89 544.169a1.314 1.314 0 01-1.163-.7c-21-39.821-35.883-87.408-40.837-130.56a1.313 1.313 0 112.608-.3c4.92 42.837 19.7 90.085 40.552 129.629a1.316 1.316 0 01-.549 1.776 1.334 1.334 0 01-.611.155z" data-name="Path 251"/>
        </g>
        <g data-name="Group 413">
          <path fill="#ed715d" d="M283.978 340.47a.844.844 0 01-.136-.016.657.657 0 01-.5-.781c2.139-9.819-7.667-12.933-8.085-13.061a.658.658 0 01.381-1.259c.115.035 11.387 3.587 8.987 14.6a.655.655 0 01-.647.517z" data-name="Path 252"/>
        </g>
        <g data-name="Group 414">
          <path fill="#ed715d" d="M295.373 331.421a4.476 4.476 0 01-1-.115c-2.8-.635-5.056-3.8-5.253-7.365a.657.657 0 01.619-.693.641.641 0 01.693.621c.189 3.419 2.323 5.723 4.232 6.157 1.515.349 2.869-.429 3.824-2.171 4.843-8.827 9.819-11.432 10.029-11.539a.655.655 0 01.595 1.168c-.045.027-4.845 2.568-9.472 11a4.945 4.945 0 01-4.267 2.937z" data-name="Path 253"/>
        </g>
        <g data-name="Group 415">
          <path fill="#002869" d="M303.809 308.915a.683.683 0 01-.285-.064c-10.765-5.2-8.067-17.789-8.037-17.917a.66.66 0 01.784-.493.652.652 0 01.5.781c-.1.477-2.488 11.7 7.328 16.445a.656.656 0 01-.285 1.248z" data-name="Path 254"/>
        </g>
        <g data-name="Group 416">
          <path fill="#002869" d="M324.355 336.488a.71.71 0 01-.243-.045c-11.125-4.437-10.157-13.267-10.147-13.355a.644.644 0 01.731-.571.658.658 0 01.573.731c-.04.323-.821 7.928 9.331 11.973a.657.657 0 01-.245 1.267z" data-name="Path 255"/>
        </g>
        <g data-name="Group 417">
          <path fill="#016099" d="M138.042 529.685a1.318 1.318 0 01-.792-.267c-33.853-25.688-43.906-77.616-44.005-78.141a1.312 1.312 0 112.579-.483c.1.512 9.979 51.464 43.013 76.531a1.313 1.313 0 01-.795 2.36z" data-name="Path 256"/>
        </g>
      </g>
    </g>
    <path fill="#016099" d="M0 726h1280v74H0z" data-name="Rectangle 44"/>
    <g fill="#fff" data-name="Group 52">
      <path d="M983.029 779.457h9.954a1.93 1.93 0 001.935-1.843v-6.821a36.608 36.608 0 01-11.889 8.664z" data-name="Path 137"/>
      <path d="M980.817 756.323c-.092-1.751-1.383-2.857-4.148-2.577-5.437.365-9.583 6.54-10.783 12.9 11.8-.922 15.023-8.111 14.931-10.323z" data-name="Path 138"/>
      <path d="M979.803 749.963c5.622-.369 8.2 1.843 8.387 4.608.461 6.083-9.493 13.272-22.581 14.378h-.184a10.209 10.209 0 00.369 5.069c.922 2.4 3.318 3.318 6.083 3.318 12.166 0 21.106-13.456 23.041-19.539v-9.954a1.871 1.871 0 00-1.935-1.843h-29.678a1.849 1.849 0 00-1.843 1.843v13.641c4.793-6.084 12.166-11.06 18.341-11.521z" data-name="Path 139"/>
      <g>
        <path d="M1019.344 768.673a4.855 4.855 0 003.779-1.659l1.106.922a6.365 6.365 0 01-4.885 2.3 5.892 5.892 0 01-5.9-6.175c0-3.41 2.4-6.175 5.714-6.175 3.5 0 5.53 2.857 5.53 6.267v.553h-9.493a4.081 4.081 0 004.149 3.967zm3.41-5.346c-.184-2.12-1.475-4.055-3.779-4.055-2.028 0-3.594 1.751-3.871 4.055z" data-name="Path 140"/>
        <path d="M1037.222 769.963v-2.4a5.23 5.23 0 01-4.516 2.673 5.856 5.856 0 01-5.714-6.171 5.856 5.856 0 015.714-6.175 5.228 5.228 0 014.516 2.581v-7.374h1.751v16.866zm-4.24-10.6c-2.3 0-4.147 1.751-4.147 4.608s1.935 4.608 4.147 4.608a4.452 4.452 0 004.332-4.608 4.452 4.452 0 00-4.331-4.607z" data-name="Path 141"/>
        <path d="M1048.284 773.65a9.258 9.258 0 01-5.439-1.66l.829-1.382a8.066 8.066 0 004.61 1.476c2.581 0 4.332-1.475 4.332-4.24v-1.383a5.681 5.681 0 01-4.7 2.581 5.427 5.427 0 01-5.53-5.53 5.5 5.5 0 015.528-5.622 5.773 5.773 0 014.7 2.4v-2.12h1.751v9.77c-.092 3.775-2.488 5.71-6.081 5.71zm-.092-14.286a3.892 3.892 0 00-4.147 4.055 4 4 0 004.147 4.055 4.176 4.176 0 004.422-4.054 4.23 4.23 0 00-4.424-4.055z" data-name="Path 142"/>
        <path d="M1063.491 768.673a4.855 4.855 0 003.779-1.659l1.106.922a6.365 6.365 0 01-4.885 2.3 5.892 5.892 0 01-5.9-6.175c0-3.41 2.4-6.175 5.714-6.175 3.5 0 5.53 2.857 5.53 6.267v.553h-9.4a3.948 3.948 0 004.056 3.967zm3.41-5.346c-.184-2.12-1.475-4.055-3.779-4.055-2.028 0-3.594 1.751-3.871 4.055z" data-name="Path 143"/>
        <path d="M1078.144 770.24a5.228 5.228 0 01-4.516-2.581v5.991h-1.751v-15.576h1.751v2.3a5.23 5.23 0 014.516-2.673 5.856 5.856 0 015.714 6.175c.001 3.967-2.857 6.364-5.714 6.364zm-.367-10.876a4.452 4.452 0 00-4.332 4.608 4.34 4.34 0 004.332 4.608c2.3 0 4.147-1.751 4.147-4.608a4.153 4.153 0 00-4.147-4.608z" data-name="Path 144"/>
        <path d="M1092.522 770.239a6.116 6.116 0 01-6.175-6.175 6.194 6.194 0 016.175-6.267 6.116 6.116 0 016.175 6.175 6.194 6.194 0 01-6.175 6.267zm0-10.876a4.339 4.339 0 00-4.332 4.608 4.491 4.491 0 004.424 4.7 4.412 4.412 0 004.424-4.608 4.625 4.625 0 00-4.516-4.7z" data-name="Path 145"/>
        <path d="M1101.923 755.493v-1.935h2.028v1.935zm.184 14.47v-11.889h1.751v11.889z" data-name="Path 146"/>
        <path d="M1109.757 769.963h-1.751v-11.89h1.751v2.024a4.43 4.43 0 014.055-2.3c2.857 0 4.516 1.935 4.516 4.7v7.373h-1.751v-6.912c0-2.212-1.2-3.594-3.318-3.594a3.51 3.51 0 00-3.594 3.687l.092 6.912z" data-name="Path 147"/>
        <path d="M1124.504 766.553a1.8 1.8 0 002.028 2.028 3.994 3.994 0 001.751-.369v1.475a4 4 0 01-2.12.461c-1.935 0-3.318-.922-3.318-3.318v-7.19h-1.659v-1.661h1.659v-3.5h1.751v3.5h3.779v1.567h-3.779v7z" data-name="Path 148"/>
      </g>
      <g>
        <path d="M1138.42 769.963v-16.866h1.751v16.866z" data-name="Path 149"/>
        <path d="M1149.666 768.673a4.855 4.855 0 003.779-1.659l1.106.922a6.365 6.365 0 01-4.885 2.3 5.892 5.892 0 01-5.9-6.175c0-3.41 2.4-6.175 5.714-6.175 3.5 0 5.53 2.857 5.53 6.267v.553h-9.4a3.948 3.948 0 004.055 3.963zm3.41-5.346c-.184-2.12-1.475-4.055-3.779-4.055-2.028 0-3.594 1.751-3.871 4.055z" data-name="Path 150"/>
        <path d="M1158.604 760.382l-.553-1.475a9.105 9.105 0 014.332-.925c3.226 0 5.069 1.659 5.069 4.793v7.281h-1.751v-1.751a5.161 5.161 0 01-4.332 2.028c-2.212 0-4.424-1.2-4.424-3.687 0-2.581 2.028-3.871 5.069-3.871a13.114 13.114 0 013.594.461v-.369c0-2.12-1.29-3.226-3.594-3.226a5.9 5.9 0 00-3.41.737zm.276 5.991c0 1.475 1.382 2.4 3.041 2.4 2.212 0 3.963-1.29 3.963-3.226v-1.2a11.937 11.937 0 00-3.5-.461c-2.212 0-3.5 1.014-3.5 2.488z" data-name="Path 151"/>
        <path d="M1173.074 769.963h-1.751v-11.889h1.751v3.041a5.068 5.068 0 014.885-3.318v1.843h-.092c-2.581 0-4.7 1.843-4.7 5.438v4.885z" data-name="Path 152"/>
        <path d="M1182.383 769.963h-1.751v-11.89h1.751v2.024a4.43 4.43 0 014.055-2.3c2.857 0 4.516 1.935 4.516 4.7v7.373h-1.751v-6.912c0-2.212-1.2-3.594-3.318-3.594a3.51 3.51 0 00-3.594 3.687v6.912z" data-name="Path 153"/>
        <path d="M1194.733 755.493v-1.935h2.028v1.935zm.184 14.47v-11.889h1.751v11.889z" data-name="Path 154"/>
        <path d="M1202.567 769.963h-1.751v-11.89h1.751v2.024a4.43 4.43 0 014.055-2.3c2.857 0 4.516 1.935 4.516 4.7v7.373h-1.751v-6.912c0-2.212-1.2-3.594-3.318-3.594a3.51 3.51 0 00-3.594 3.687l.092 6.912z" data-name="Path 155"/>
        <path d="M1220.265 773.65a9.258 9.258 0 01-5.439-1.66l.83-1.382a8.066 8.066 0 004.608 1.475c2.581 0 4.332-1.475 4.332-4.24v-1.382a5.681 5.681 0 01-4.7 2.581 5.427 5.427 0 01-5.53-5.53 5.5 5.5 0 015.53-5.622 5.641 5.641 0 014.7 2.4v-2.12h1.751v9.77c-.092 3.779-2.488 5.714-6.083 5.714zm-.092-14.286a3.892 3.892 0 00-4.147 4.055 4 4 0 004.147 4.055 4.176 4.176 0 004.424-4.055 4.23 4.23 0 00-4.426-4.054z" data-name="Path 156"/>
      </g>
    </g>
    <path fill="#fff" d="M402.278 188h8.892v-11.476h6.764V168.7h-6.764v-31.392h-12.236L378.11 169.38v7.144h24.168zm0-42.712V168.7H386.85zm20.9 17.48c0 14.06 6 26.144 20.9 26.144 11.324 0 18.7-7.6 18.7-17.024 0-10.792-7.828-16.34-16.948-16.34a17.272 17.272 0 00-13.6 7.068 8.728 8.728 0 01-.076-1.444c0-8.892 4.94-16.72 13.376-16.72a13.008 13.008 0 0110.412 4.484l4.18-6.764a20.288 20.288 0 00-14.592-5.624c-14.676 0-22.352 11.552-22.352 26.22zm30.628 9.424c0 4.1-3.5 8.816-10.184 8.816-7.828 0-10.792-6.384-11.324-11.856a13.888 13.888 0 0111.1-6c5.544-.004 10.408 2.808 10.408 9.04zm14.06-22.952c0 7.068 5.016 12.464 12.54 12.464 7.6 0 12.692-5.4 12.692-12.464 0-7.144-5.092-12.692-12.692-12.692-7.524 0-12.54 5.552-12.54 12.692zm7.676 38.76h5.016l32.452-50.692h-5.092zm11.628-38.76c0 4.332-2.812 7.448-6.764 7.448-3.876 0-6.688-3.116-6.688-7.448 0-4.56 2.812-7.6 6.688-7.6 3.952 0 6.764 3.04 6.764 7.6zm7.98 27.208c0 7.068 5.016 12.464 12.54 12.464s12.616-5.4 12.616-12.464c0-7.144-5.092-12.692-12.616-12.692s-12.54 5.544-12.54 12.692zm19.3 0c0 4.408-2.812 7.448-6.764 7.448s-6.686-3.04-6.686-7.448c0-4.56 2.736-7.6 6.688-7.6s6.766 3.04 6.766 7.6zm49.25 12.464c11.78 0 18.924-8.74 18.924-19.3 0-10.488-7.144-19.228-18.924-19.228-11.628 0-18.848 8.74-18.848 19.228.002 10.56 7.222 19.3 18.848 19.3zm0-7.068c-6.764 0-10.564-5.7-10.564-12.236 0-6.46 3.8-12.16 10.564-12.16 6.84 0 10.64 5.7 10.64 12.16.002 6.536-3.798 12.236-10.64 12.236zM592.582 188h7.98v-29.716h7.448v-6.992h-7.448v-2.052c0-4.1 1.976-6.156 5.092-6.156a6.4 6.4 0 013.192.76l1.748-5.852a13.218 13.218 0 00-6.384-1.444c-6.764 0-11.628 4.484-11.628 12.692v2.052h-6.08v6.992h6.08zm63.46 0h7.98v-24.32c0-9.88-7.144-13.3-15.276-13.3a21.829 21.829 0 00-15.428 5.928l3.268 5.548a15.031 15.031 0 0110.868-4.636c5.092 0 8.588 2.584 8.588 6.84v5.472c-2.66-3.116-6.916-4.712-11.856-4.712-6 0-12.768 3.5-12.768 11.932 0 8.132 6.764 12.16 12.768 12.16 4.864 0 9.12-1.748 11.856-4.864zm0-8.36c-1.824 2.508-5.244 3.8-8.74 3.8-4.484 0-7.828-2.584-7.828-6.536 0-4.028 3.344-6.612 7.828-6.612 3.5 0 6.916 1.292 8.74 3.8zM700.2 188h7.98v-50.692h-7.98v19.076a14.726 14.726 0 00-11.78-6c-9.5 0-16.34 7.448-16.34 19.3 0 12.084 6.916 19.228 16.34 19.228a14.866 14.866 0 0011.78-5.928zm0-11.02a11.994 11.994 0 01-9.5 4.864c-6.308 0-10.336-5.092-10.336-12.16 0-7.144 4.028-12.236 10.336-12.236a12.06 12.06 0 019.5 4.94zM743.29 188h7.98v-36.708h-7.98v25.764a12.209 12.209 0 01-9.424 4.788c-4.484 0-7.372-1.748-7.372-7.448v-23.1h-7.98v25.992c0 7.524 3.876 11.628 11.78 11.628a17.593 17.593 0 0013-5.776zm18.316 0h7.98v-50.692h-7.98zm29.336.912c3.724 0 6.08-.988 7.524-2.356l-1.9-6a5.152 5.152 0 01-3.572 1.288c-2.28 0-3.5-1.824-3.5-4.332v-19.228h7.448v-6.992H789.5V141.26h-7.98v10.032h-6.08v6.992h6.08v21.2c-.002 6.084 3.266 9.428 9.422 9.428zm10.032-5.7c3.8 3.724 9.5 5.7 15.732 5.7 9.88 0 15.276-4.94 15.276-11.4 0-8.664-7.828-10.488-14.212-11.856-4.332-.988-7.98-1.976-7.98-4.788 0-2.584 2.66-4.1 6.84-4.1 4.56 0 8.664 1.9 10.868 4.408l3.344-5.624a20.985 20.985 0 00-14.288-5.172c-9.272 0-14.44 5.168-14.44 11.172 0 8.208 7.524 9.88 13.832 11.248 4.484.988 8.36 2.128 8.36 5.32 0 2.736-2.432 4.484-7.22 4.484a18.947 18.947 0 01-12.464-5.168zm56.316-13.6c0 11.624 8.21 19.3 19.228 19.3 5.852 0 11.248-1.824 14.9-5.32l-3.652-5.244a15.536 15.536 0 01-10.412 4.028c-6.916 0-11.1-4.56-11.7-10.108H894v-1.9c0-11.552-7.07-19.988-18.09-19.988-10.868 0-18.62 8.588-18.62 19.228zm18.62-12.696a9.818 9.818 0 0110.336 9.728h-20.672c.38-4.484 3.496-9.728 10.336-9.728zM922.042 188h8.968l-13.528-18.848 12.692-17.86h-8.968l-8.664 12.464-8.742-12.464h-8.966l12.692 17.86L894.074 188h8.892l9.576-13.528zm22.5 13.984v-19.076a14.413 14.413 0 0011.78 6c9.5 0 16.264-7.22 16.264-19.3s-6.768-19.228-16.268-19.228a14.647 14.647 0 00-11.78 5.928v-5.016h-7.98v50.692zm19.758-32.376c0 7.144-4.028 12.236-10.336 12.236a12.129 12.129 0 01-9.424-4.94v-14.516a11.912 11.912 0 019.424-4.94c6.306 0 10.336 5.092 10.336 12.16zm14.06 0c0 11.628 8.208 19.3 19.228 19.3 5.852 0 11.248-1.824 14.9-5.32l-3.648-5.244a15.536 15.536 0 01-10.412 4.028c-6.916 0-11.1-4.56-11.7-10.108h28.348v-1.9c0-11.552-7.068-19.988-18.088-19.988-10.878.004-18.63 8.592-18.63 19.232zm18.62-12.692a9.818 9.818 0 0110.336 9.728h-20.674c.38-4.484 3.496-9.728 10.336-9.728zM1022.97 188h7.98v-25c1.6-2.584 6.08-4.864 9.424-4.864a11.764 11.764 0 012.508.228v-7.9a15.676 15.676 0 00-11.932 6.232v-5.4h-7.98zm30.324-42.332a4.93 4.93 0 004.94-4.94 4.93 4.93 0 00-4.94-4.94 4.979 4.979 0 00-4.94 4.94 4.979 4.979 0 004.94 4.94zM1049.342 188h7.98v-36.708h-7.98zm16.036-18.392c0 11.628 8.208 19.3 19.228 19.3 5.852 0 11.248-1.824 14.9-5.32l-3.648-5.244a15.536 15.536 0 01-10.412 4.028c-6.916 0-11.1-4.56-11.7-10.108h28.348v-1.9c0-11.552-7.068-19.988-18.088-19.988-10.876.004-18.628 8.592-18.628 19.232zM1084 156.916a9.818 9.818 0 0110.336 9.728h-20.674c.38-4.484 3.496-9.728 10.338-9.728zM1134.766 188h7.98v-25.84c0-7.524-3.952-11.78-11.856-11.78a17.368 17.368 0 00-12.92 5.928v-5.016h-7.98V188h7.98v-25.612a12.084 12.084 0 019.424-4.94c4.484 0 7.372 1.9 7.372 7.6zm16.034-18.392c0 11.172 7.828 19.3 19 19.3 7.144 0 11.476-3.04 14.06-6.536l-5.244-4.864a9.979 9.979 0 01-8.436 4.332c-6.688 0-11.1-5.092-11.1-12.236s4.408-12.16 11.1-12.16a9.8 9.8 0 018.436 4.332l5.244-4.864c-2.584-3.5-6.916-6.536-14.06-6.536-11.17.004-19 8.136-19 19.232zm37.772 0c0 11.628 8.208 19.3 19.228 19.3 5.852 0 11.248-1.824 14.9-5.32l-3.65-5.24a15.536 15.536 0 01-10.412 4.028c-6.916 0-11.1-4.56-11.7-10.108h28.348v-1.9c0-11.552-7.068-19.988-18.088-19.988-10.872 0-18.624 8.588-18.624 19.228zm18.62-12.692a9.818 9.818 0 0110.336 9.728h-20.67c.38-4.484 3.496-9.728 10.336-9.728zM620.322 269h7.98v-26.524c0-7.448-3.8-11.1-10.564-11.1a15.568 15.568 0 00-12.464 6.764c-1.216-4.028-4.56-6.764-10.032-6.764a15.853 15.853 0 00-11.932 5.928v-5.012h-7.98V269h7.98v-25.612c1.672-2.432 4.94-4.94 8.436-4.94 4.332 0 6.08 2.66 6.08 6.612V269h7.98v-25.688c1.6-2.356 4.94-4.864 8.512-4.864 4.256 0 6 2.66 6 6.612zm16.036-18.392c0 11.628 8.208 19.3 19.228 19.3 5.852 0 11.248-1.824 14.9-5.32l-3.648-5.244a15.536 15.536 0 01-10.412 4.028c-6.916 0-11.1-4.56-11.7-10.108h28.348v-1.9c0-11.552-7.068-19.988-18.088-19.988-10.876.004-18.628 8.592-18.628 19.232zm18.62-12.692a9.818 9.818 0 0110.336 9.728h-20.672c.38-4.484 3.496-9.728 10.336-9.728zM705.746 269h7.98v-25.84c0-7.524-3.952-11.78-11.856-11.78a17.368 17.368 0 00-12.92 5.928v-5.016h-7.98V269h7.98v-25.612a12.084 12.084 0 019.424-4.94c4.484 0 7.372 1.9 7.372 7.6zm29.336.912c3.724 0 6.08-.988 7.524-2.356l-1.9-6a5.152 5.152 0 01-3.572 1.292c-2.28 0-3.5-1.824-3.5-4.332v-19.232h7.448v-6.992h-7.448V222.26h-7.98v10.032h-6.08v6.992h6.08v21.2c.004 6.084 3.272 9.428 9.428 9.428zm35.644-.912h7.98v-24.32c0-9.88-7.144-13.3-15.276-13.3a21.829 21.829 0 00-15.43 5.928l3.268 5.548a15.031 15.031 0 0110.87-4.636c5.092 0 8.588 2.584 8.588 6.84v5.472c-2.66-3.116-6.916-4.712-11.856-4.712-6 0-12.768 3.5-12.768 11.932 0 8.132 6.764 12.16 12.768 12.16 4.864 0 9.12-1.748 11.856-4.864zm0-8.36c-1.824 2.508-5.244 3.8-8.74 3.8-4.484 0-7.828-2.584-7.828-6.536 0-4.028 3.344-6.612 7.828-6.612 3.5 0 6.916 1.292 8.74 3.8zm18.316 8.36h7.98v-50.692h-7.98zm41.8-42.332a4.94 4.94 0 10-4.94-4.94 4.93 4.93 0 004.94 4.94zM826.89 269h7.98v-36.708h-7.98zm18.316 0h7.98v-50.692h-7.98zm18.316 0h7.978v-50.692h-7.98zm43.092 0h7.98v-25.84c0-7.524-3.952-11.78-11.856-11.78a17.368 17.368 0 00-12.92 5.928v-5.016h-7.98V269h7.98v-25.612a12.084 12.084 0 019.424-4.94c4.484 0 7.372 1.9 7.372 7.6zm16.036-18.392c0 11.628 8.208 19.3 19.228 19.3 5.852 0 11.248-1.824 14.9-5.32l-3.648-5.244a15.536 15.536 0 01-10.412 4.028c-6.916 0-11.1-4.56-11.7-10.108h28.348v-1.9c0-11.552-7.068-19.988-18.088-19.988-10.878.004-18.628 8.592-18.628 19.232zm18.62-12.692a9.818 9.818 0 0110.336 9.728h-20.672c.38-4.484 3.496-9.728 10.336-9.728zm22.8 26.3c3.8 3.724 9.5 5.7 15.732 5.7 9.88 0 15.276-4.94 15.276-11.4 0-8.664-7.828-10.488-14.212-11.856-4.332-.988-7.98-1.976-7.98-4.788 0-2.584 2.66-4.1 6.84-4.1 4.56 0 8.664 1.9 10.868 4.408l3.344-5.624a20.985 20.985 0 00-14.288-5.176c-9.272 0-14.44 5.168-14.44 11.172 0 8.208 7.524 9.88 13.832 11.248 4.484.988 8.36 2.128 8.36 5.32 0 2.736-2.432 4.484-7.22 4.484a18.947 18.947 0 01-12.464-5.168zm35.872 0c3.8 3.724 9.5 5.7 15.732 5.7 9.88 0 15.276-4.94 15.276-11.4 0-8.664-7.828-10.488-14.212-11.856-4.332-.988-7.98-1.976-7.98-4.788 0-2.584 2.66-4.1 6.84-4.1 4.56 0 8.664 1.9 10.868 4.408l3.344-5.624a20.985 20.985 0 00-14.288-5.168c-9.272 0-14.44 5.168-14.44 11.172 0 8.208 7.524 9.88 13.832 11.248 4.484.988 8.36 2.128 8.36 5.32 0 2.736-2.432 4.484-7.22 4.484a18.947 18.947 0 01-12.464-5.168zm-565.63 87.48c0 15.124 10.716 26.22 25.916 26.22s25.916-11.1 25.916-26.22-10.716-26.22-25.916-26.22-25.916 11.092-25.916 26.216zm42.712 0c0 10.412-6.612 18.316-16.8 18.316-10.26 0-16.8-7.9-16.8-18.316 0-10.488 6.536-18.316 16.8-18.316 10.188-.004 16.8 7.82 16.8 18.312zM519.28 377h7.98v-25.84c0-7.524-3.952-11.78-11.856-11.78a17.368 17.368 0 00-12.92 5.928v-5.016h-7.98V377h7.98v-25.612a12.084 12.084 0 019.424-4.94c4.484 0 7.372 1.9 7.372 7.6zm18.316 0h7.98v-50.692h-7.98zm17.936 7.22l-1.216 7.144a22.569 22.569 0 004.484.532c5.7-.076 10.108-2.052 12.616-8.284l17.708-43.32h-8.588L569.82 367.8l-10.72-27.508h-8.512l15.048 37.164-1.824 4.18c-1.064 2.432-2.736 3.192-5.244 3.192a8.34 8.34 0 01-3.036-.608zM634.8 377h8.892v-11.476h6.764V357.7h-6.764v-31.392h-12.236l-20.824 32.072v7.144H634.8zm0-42.712V357.7h-15.428zM667.176 377h8.892v-50.692h-7.752l-14.592 14.744 5.168 5.4 8.284-8.588zm16.416-38.76c0 7.068 5.016 12.464 12.54 12.464 7.6 0 12.692-5.4 12.692-12.464 0-7.144-5.092-12.692-12.692-12.692-7.524 0-12.54 5.552-12.54 12.692zm7.676 38.76h5.016l32.452-50.692h-5.092zm11.632-38.76c0 4.332-2.812 7.448-6.764 7.448-3.876 0-6.688-3.116-6.688-7.448 0-4.56 2.812-7.6 6.688-7.6 3.948 0 6.764 3.04 6.764 7.6zm7.98 27.208c0 7.068 5.016 12.464 12.54 12.464s12.616-5.4 12.616-12.464c0-7.144-5.092-12.692-12.616-12.692s-12.544 5.544-12.544 12.692zm19.3 0c0 4.408-2.812 7.448-6.764 7.448s-6.688-3.04-6.688-7.448c0-4.56 2.736-7.6 6.688-7.6s6.764 3.04 6.764 7.6zM762.86 377h7.98v-25c1.6-2.584 6.08-4.864 9.424-4.864a11.764 11.764 0 012.508.228v-7.9a15.676 15.676 0 00-11.932 6.232v-5.4h-7.98zm24.092-18.392c0 11.628 8.208 19.3 19.228 19.3 5.852 0 11.248-1.824 14.9-5.32l-3.648-5.244a15.536 15.536 0 01-10.412 4.028c-6.916 0-11.1-4.56-11.7-10.108h28.34v-1.9c0-11.552-7.068-19.988-18.088-19.988-10.872.004-18.62 8.592-18.62 19.232zm18.62-12.692a9.818 9.818 0 0110.336 9.728h-20.672c.38-4.484 3.496-9.728 10.336-9.728zm23.712 12.692c0 11.172 7.828 19.3 19 19.3 7.144 0 11.476-3.04 14.06-6.536l-5.244-4.86a9.979 9.979 0 01-8.436 4.332c-6.688 0-11.1-5.092-11.1-12.236s4.408-12.16 11.1-12.16a9.8 9.8 0 018.436 4.332l5.244-4.864c-2.584-3.5-6.916-6.536-14.06-6.536-11.172 0-19 8.132-19 19.228zm37.772 0c0 11.628 8.208 19.3 19.228 19.3 5.852 0 11.248-1.824 14.9-5.32l-3.648-5.244a15.536 15.536 0 01-10.412 4.028c-6.916 0-11.1-4.56-11.7-10.108h28.348v-1.9c0-11.552-7.068-19.988-18.088-19.988-10.876.004-18.628 8.592-18.628 19.232zm18.62-12.692a9.818 9.818 0 0110.336 9.728H875.34c.38-4.484 3.496-9.728 10.336-9.728zm29.944-11.248a4.94 4.94 0 10-4.94-4.94 4.93 4.93 0 004.94 4.94zM911.668 377h7.98v-36.708h-7.98zm27.968 0h8.588l14.976-36.708h-8.588l-10.72 27.508-10.716-27.512h-8.512zm26.3-18.392c0 11.628 8.208 19.3 19.228 19.3 5.852 0 11.248-1.824 14.9-5.32l-3.648-5.244A15.536 15.536 0 01986 371.376c-6.916 0-11.1-4.56-11.7-10.108h28.34v-1.9c0-11.552-7.068-19.988-18.088-19.988-10.868 0-18.62 8.588-18.62 19.228zm18.62-12.692a9.818 9.818 0 0110.336 9.728h-20.676c.384-4.484 3.496-9.728 10.336-9.728zM1054.928 377h7.98v-25.992c0-7.524-3.952-11.628-11.856-11.628a17.546 17.546 0 00-13 5.928v-19h-7.98V377h7.98v-25.612a12.334 12.334 0 019.424-4.94c4.484 0 7.448 1.748 7.448 7.448zm16.036-18.392c0 11.628 8.208 19.3 19.228 19.3 5.852 0 11.248-1.824 14.9-5.32l-3.648-5.244a15.536 15.536 0 01-10.412 4.028c-6.916 0-11.1-4.56-11.7-10.108h28.348v-1.9c0-11.552-7.068-19.988-18.088-19.988-10.876.004-18.628 8.592-18.628 19.232zm18.62-12.692a9.818 9.818 0 0110.336 9.728h-20.672c.38-4.484 3.496-9.728 10.336-9.728zM1115.576 377h7.98v-50.692h-7.98zm26.3 13.984v-19.076a14.413 14.413 0 0011.78 6c9.5 0 16.264-7.22 16.264-19.3s-6.764-19.228-16.264-19.228a14.647 14.647 0 00-11.78 5.928v-5.016h-7.98v50.692zm19.76-32.376c0 7.144-4.028 12.236-10.336 12.236a12.129 12.129 0 01-9.424-4.94v-14.516a11.911 11.911 0 019.424-4.94c6.3 0 10.332 5.092 10.332 12.16z" data-name="Path 263"/>
  </g>
</svg>
