<svg xmlns="http://www.w3.org/2000/svg" viewBox="0 0 1280 800">
  <defs>
    <clipPath id="a">
      <path d="M0 0h1280v800H0z"/>
    </clipPath>
  </defs>
  <g clip-path="url(#a)" data-name="2020-03-25-hard-skills-vs-soft-skills01">
    <path fill="#fff" d="M0 0h1280v800H0z"/>
    <g data-name="Group 67">
      <path fill="#740bd3" d="M580 0h700v800H700z" data-name="Path 190"/>
      <path fill="#f11e62" d="M0 0h580l120 800H0z" data-name="Path 191"/>
    </g>
    <g fill="#fff" data-name="Group 66" style="mix-blend-mode:luminosity;isolation:isolate">
      <path d="M1118.599 779.389h5.465a1.06 1.06 0 001.063-1.012v-3.744a20.1 20.1 0 01-6.528 4.756z" data-name="Path 137"/>
      <path d="M1117.388 766.689c-.051-.961-.759-1.569-2.277-1.417-2.985.2-5.262 3.592-5.92 7.084 6.473-.506 8.244-4.453 8.197-5.667z" data-name="Path 138"/>
      <path d="M1116.828 763.198c3.086-.2 4.5 1.012 4.6 2.53.253 3.339-5.212 7.286-12.4 7.893h-.1a5.6 5.6 0 00.2 2.783c.515 1.318 1.831 1.818 3.349 1.818 6.682 0 11.582-7.384 12.649-10.724v-5.464a1.027 1.027 0 00-1.067-1.012h-16.288a1.015 1.015 0 00-1.012 1.012v7.488c2.631-3.339 6.679-6.071 10.069-6.324z" data-name="Path 139"/>
      <g>
        <path d="M1138.534 773.469a2.665 2.665 0 002.075-.911l.607.506a3.494 3.494 0 01-2.682 1.265 3.235 3.235 0 01-3.238-3.39 3.214 3.214 0 013.137-3.39c1.923 0 3.036 1.569 3.036 3.441v.3h-5.212a2.241 2.241 0 002.277 2.179zm1.872-2.935a2.185 2.185 0 00-2.075-2.226 2.3 2.3 0 00-2.125 2.226z" data-name="Path 140"/>
        <path d="M1148.35 774.177v-1.315a2.871 2.871 0 01-2.479 1.467 3.215 3.215 0 01-3.137-3.39 3.215 3.215 0 013.137-3.39 2.87 2.87 0 012.479 1.417v-4.048h.961v9.259zm-2.327-5.819a2.307 2.307 0 00-2.277 2.53 2.336 2.336 0 002.277 2.53 2.444 2.444 0 002.378-2.53 2.444 2.444 0 00-2.378-2.529z" data-name="Path 141"/>
        <path d="M1154.422 776.201a5.082 5.082 0 01-2.985-.911l.455-.759a4.428 4.428 0 002.53.81 2.167 2.167 0 002.378-2.327v-.759a3.119 3.119 0 01-2.58 1.417 2.979 2.979 0 01-3.036-3.037 3.021 3.021 0 013.036-3.086 3.169 3.169 0 012.58 1.316v-1.164h.961v5.363a3 3 0 01-3.339 3.137zm-.051-7.843a2.137 2.137 0 00-2.277 2.226 2.193 2.193 0 002.277 2.226 2.293 2.293 0 002.429-2.226 2.322 2.322 0 00-2.428-2.225z" data-name="Path 142"/>
        <path d="M1162.77 773.469a2.665 2.665 0 002.075-.911l.607.506a3.494 3.494 0 01-2.682 1.265 3.235 3.235 0 01-3.238-3.39 3.214 3.214 0 013.137-3.39c1.923 0 3.036 1.569 3.036 3.441v.3h-5.161a2.168 2.168 0 002.226 2.179zm1.872-2.935a2.185 2.185 0 00-2.075-2.226 2.3 2.3 0 00-2.125 2.226z" data-name="Path 143"/>
        <path d="M1170.816 774.329a2.87 2.87 0 01-2.479-1.417v3.289h-.962v-8.553h.961v1.265a2.871 2.871 0 012.479-1.467 3.215 3.215 0 013.137 3.39 3.277 3.277 0 01-3.136 3.493zm-.2-5.971a2.444 2.444 0 00-2.378 2.53 2.383 2.383 0 002.378 2.53 2.307 2.307 0 002.277-2.53 2.28 2.28 0 00-2.28-2.529z" data-name="Path 144"/>
        <path d="M1178.709 774.329a3.358 3.358 0 01-3.39-3.39 3.4 3.4 0 013.39-3.441 3.358 3.358 0 013.39 3.39 3.4 3.4 0 01-3.39 3.441zm0-5.971a2.382 2.382 0 00-2.378 2.53 2.465 2.465 0 002.429 2.58 2.422 2.422 0 002.429-2.53 2.539 2.539 0 00-2.479-2.58z" data-name="Path 145"/>
        <path d="M1183.87 766.234v-1.063h1.113v1.063zm.1 7.944v-6.528h.961v6.527z" data-name="Path 146"/>
        <path d="M1188.17 774.177h-.961v-6.527h.961v1.113a2.432 2.432 0 012.226-1.265 2.365 2.365 0 012.479 2.58v4.048h-.961v-3.795a1.746 1.746 0 00-1.822-1.973 1.927 1.927 0 00-1.973 2.024l.051 3.795z" data-name="Path 147"/>
        <path d="M1196.266 772.305a.989.989 0 001.113 1.113 2.193 2.193 0 00.961-.2v.81a2.195 2.195 0 01-1.164.253 1.629 1.629 0 01-1.822-1.822v-3.949h-.909v-.911h.911v-1.922h.961v1.923h2.074v.86h-2.074v3.845z" data-name="Path 148"/>
      </g>
      <g>
        <path d="M1203.906 774.177v-9.259h.961v9.259z" data-name="Path 149"/>
        <path d="M1210.079 773.469a2.666 2.666 0 002.075-.911l.607.506a3.494 3.494 0 01-2.682 1.265 3.235 3.235 0 01-3.238-3.39 3.214 3.214 0 013.137-3.39c1.923 0 3.036 1.569 3.036 3.441v.3h-5.161a2.168 2.168 0 002.226 2.176zm1.872-2.935a2.185 2.185 0 00-2.074-2.226 2.3 2.3 0 00-2.125 2.226z" data-name="Path 150"/>
        <path d="M1214.987 768.916l-.3-.81a5 5 0 012.374-.506c1.771 0 2.783.911 2.783 2.631v4h-.961v-.961a2.833 2.833 0 01-2.378 1.113 2.166 2.166 0 01-2.429-2.024c0-1.417 1.113-2.125 2.783-2.125a7.2 7.2 0 011.973.253v-.2c0-1.164-.708-1.771-1.973-1.771a3.24 3.24 0 00-1.872.4zm.152 3.289c0 .81.759 1.316 1.67 1.316a1.941 1.941 0 002.176-1.771v-.658a6.553 6.553 0 00-1.923-.253c-1.214 0-1.923.557-1.923 1.366z" data-name="Path 151"/>
        <path d="M1222.93 774.178h-.961v-6.528h.961v1.67a2.782 2.782 0 012.682-1.822v1.013h-.051c-1.417 0-2.58 1.012-2.58 2.985v2.682z" data-name="Path 152"/>
        <path d="M1228.041 774.177h-.961v-6.527h.961v1.113a2.432 2.432 0 012.226-1.265 2.365 2.365 0 012.479 2.58v4.048h-.961v-3.795a1.746 1.746 0 00-1.822-1.973 1.927 1.927 0 00-1.973 2.024v3.795z" data-name="Path 153"/>
        <path d="M1234.821 766.234v-1.063h1.113v1.063zm.1 7.944v-6.528h.961v6.527z" data-name="Path 154"/>
        <path d="M1239.122 774.177h-.961v-6.527h.961v1.113a2.432 2.432 0 012.226-1.265 2.365 2.365 0 012.479 2.58v4.048h-.961v-3.795a1.746 1.746 0 00-1.822-1.973 1.927 1.927 0 00-1.973 2.024l.051 3.795z" data-name="Path 155"/>
        <path d="M1248.836 776.201a5.082 5.082 0 01-2.985-.911l.455-.759a4.428 4.428 0 002.53.81 2.167 2.167 0 002.378-2.327v-.759a3.119 3.119 0 01-2.581 1.417 2.979 2.979 0 01-3.036-3.036 3.021 3.021 0 013.036-3.086 3.1 3.1 0 012.581 1.316v-1.165h.961v5.363a3 3 0 01-3.339 3.137zm-.051-7.843a2.137 2.137 0 00-2.277 2.226 2.193 2.193 0 002.277 2.226 2.293 2.293 0 002.429-2.226 2.322 2.322 0 00-2.428-2.225z" data-name="Path 156"/>
      </g>
    </g>
    <g fill="none" stroke="#fff" stroke-linecap="round" stroke-linejoin="round" stroke-width="1.8" data-name="Group 64">
      <path d="M1022.362 120.977l-16.686 11.625-19.857-26.779" data-name="Path 173"/>
      <path d="M985.819 105.744l-19.583-3.1a8.523 8.523 0 00-5.354.9l-11.229 5.983a8.542 8.542 0 00-4.243 5.366s-.467 3.831-1.007 8.186.612 5.424 4.212 6.194h0c3.808.815 7.679-1.6 9.942-9.15l.437-1.446s10.457 2.727 16.2 1.469" data-name="Path 174"/>
      <path d="M1005.676 132.923l-10.847 6.774" data-name="Line 1"/>
      <path d="M927.707 139.235l-1.727 2.114a4.667 4.667 0 00.718 6.61h0a4.668 4.668 0 006.514-.708l1.727-2.116a4.666 4.666 0 00-.718-6.608h0a4.664 4.664 0 00-6.514.708z" data-name="Path 175"/>
      <path d="M936.184 143.912l-2.886 3.536a4.667 4.667 0 00.718 6.61h0a4.666 4.666 0 006.514-.708l2.888-3.538a4.668 4.668 0 00-.718-6.608h0a4.668 4.668 0 00-6.516.708z" data-name="Path 176"/>
      <path d="M943.501 149.71l-2.886 3.538a4.667 4.667 0 00.718 6.608h0a4.667 4.667 0 006.516-.708l2.886-3.537a4.669 4.669 0 00-.718-6.61h0a4.67 4.67 0 00-6.516.709z" data-name="Path 177"/>
      <path d="M951.214 155.023l-2.741 3.358a4.667 4.667 0 00.718 6.61h0a4.668 4.668 0 006.514-.708l2.741-3.358a4.667 4.667 0 00-.718-6.61h0a4.668 4.668 0 00-6.514.708z" data-name="Path 178"/>
      <path d="M953.444 107.297l-18.902-1.636" data-name="Line 2"/>
      <path d="M898 120.481l16.685 11.625 19.857-26.784-29.256-20.383" data-name="Path 179"/>
      <path d="M960.163 159.429l2.923 2.609a4.666 4.666 0 006.659-.565h0a4.665 4.665 0 00-.552-6.492l-5.329-4.609" data-name="Path 180"/>
      <path d="M963.864 150.371l7.425 6.423a4.665 4.665 0 006.659-.567h0a4.665 4.665 0 00-.552-6.49l-7.605-6.579" data-name="Path 181"/>
      <path d="M969.792 142.907l10.584 9.158a4.669 4.669 0 006.659-.567h0a4.667 4.667 0 00-.554-6.492l-10.763-9.311" data-name="Path 182"/>
      <path d="M975.719 135.535l13 11.25a4.667 4.667 0 006.659-.567h0a4.668 4.668 0 00-.554-6.492l-24.022-18.4" data-name="Path 183"/>
      <path d="M914.685 132.923l12.125 6.774" data-name="Line 3"/>
      <path d="M985.818 105.322L1016.422 84" data-name="Line 4"/>
    </g>
    <g fill="none" stroke="#fff" stroke-width="2" data-name="Group 65">
      <path stroke-miterlimit="10" d="M327.888 140.377l-34.495-34.495-6.087-2.029-8.116-12.175 6.087-6.087 12.175 8.116 2.029 6.087 34.494 34.497" data-name="Path 184"/>
      <path stroke-miterlimit="10" d="M350.207 164.726l-16.232-16.233c-.01-.012-6.087 0-6.087 0s-2.049-4.578-2.029-4.6l11.284-11.284c.02-.02 4.949 1.678 4.949 1.678s-.012 6.075 0 6.087l16.233 16.235a5.738 5.738 0 010 8.116h0a5.738 5.738 0 01-8.118.001z" data-name="Path 185"/>
      <path stroke-linejoin="round" d="M284.088 161.032l2.87-2.87" data-name="Line 5"/>
      <path stroke-linejoin="round" d="M329.906 123.821l9.31-9.307a2.066 2.066 0 012.161-.459c5.566 1.934 11.5 1.142 15.987-3.344a16.213 16.213 0 004.5-14.354 2.035 2.035 0 00-3.439-1.049l-6.8 6.8a2.031 2.031 0 01-2.869 0l-5.74-5.74a2.027 2.027 0 010-2.869l6.8-6.8a2.035 2.035 0 00-1.051-3.439 16.216 16.216 0 00-14.354 4.5c-4.484 4.486-5.276 10.421-3.342 15.989a2.074 2.074 0 01-.459 2.161l-9.308 9.308" data-name="Path 186"/>
      <path stroke-linejoin="round" d="M308.575 127.936l-28.791 28.791a6.088 6.088 0 108.609 8.609l28.62-28.622" data-name="Path 187"/>
    </g>
    <path fill="#fff" d="M220.89 279h6.318v-36.018h-6.318v14.742h-18.738v-14.742h-6.318V279h6.318v-15.714h18.738zm29.754 0h5.67v-17.28c0-7.02-5.076-9.45-10.854-9.45a15.51 15.51 0 00-10.96 4.212l2.322 3.942a10.68 10.68 0 017.722-3.294c3.618 0 6.1 1.836 6.1 4.86v3.888c-1.89-2.214-4.914-3.348-8.424-3.348-4.266 0-9.072 2.484-9.072 8.478 0 5.778 4.806 8.64 9.072 8.64a11.011 11.011 0 008.424-3.456zm0-5.94a7.635 7.635 0 01-6.21 2.7c-3.186 0-5.562-1.836-5.562-4.644 0-2.862 2.376-4.7 5.562-4.7a7.635 7.635 0 016.21 2.7zm13.014 5.94h5.67v-17.766c1.134-1.836 4.32-3.456 6.7-3.456a8.358 8.358 0 011.782.162v-5.616a11.139 11.139 0 00-8.478 4.428v-3.834h-5.67zm37.1 0h5.67v-36.018h-5.67v13.554a10.463 10.463 0 00-8.37-4.266c-6.75 0-11.61 5.292-11.61 13.716 0 8.586 4.914 13.662 11.61 13.662a10.563 10.563 0 008.37-4.212zm0-7.83a8.522 8.522 0 01-6.75 3.456c-4.482 0-7.344-3.618-7.344-8.64 0-5.076 2.862-8.694 7.344-8.694a8.569 8.569 0 016.75 3.51zm24.732 2.754c3.186 3.4 7.992 5.724 14.634 5.724 9.72 0 13.932-5.13 13.932-11.124 0-7.83-7.074-9.666-13.014-11.178-4.266-1.08-7.938-2-7.938-4.806 0-2.7 2.376-4.482 6.1-4.482a14.642 14.642 0 0110.422 4.1l3.618-4.7c-3.348-3.24-7.884-5.022-13.5-5.022-7.884 0-13.122 4.59-13.122 10.53 0 7.614 6.912 9.342 12.8 10.8 4.374 1.134 8.208 2.106 8.208 5.346 0 2.376-2.052 4.914-7.236 4.914A15.536 15.536 0 01329 269.064zM377 279h7.128l-11.07-14.256 10.854-11.826H376.9L365.394 265.5v-22.518h-5.67V279h5.67v-7.02l3.618-3.726zm13.932-30.078a3.5 3.5 0 003.51-3.51 3.5 3.5 0 00-3.51-3.51 3.538 3.538 0 00-3.51 3.51 3.538 3.538 0 003.514 3.51zM388.128 279h5.67v-26.082h-5.67zm13.014 0h5.67v-36.018h-5.67zm13.014 0h5.67v-36.018h-5.67zm10.744-3.4a15.863 15.863 0 0011.18 4.048c7.02 0 10.854-3.51 10.854-8.1 0-6.156-5.562-7.452-10.1-8.424-3.078-.7-5.67-1.4-5.67-3.4 0-1.836 1.89-2.916 4.86-2.916a10.518 10.518 0 017.722 3.132l2.376-4a14.911 14.911 0 00-10.152-3.672c-6.588 0-10.26 3.672-10.26 7.938 0 5.832 5.346 7.02 9.828 7.992 3.186.7 5.94 1.512 5.94 3.78 0 1.944-1.728 3.186-5.13 3.186a13.462 13.462 0 01-8.856-3.672z" data-name="Path 195"/>
    <path fill="#fff" d="M843.63 273.924c3.186 3.4 7.992 5.724 14.634 5.724 9.72 0 13.932-5.13 13.932-11.124 0-7.83-7.074-9.666-13.014-11.178-4.266-1.08-7.938-2-7.938-4.806 0-2.7 2.376-4.482 6.1-4.482a14.642 14.642 0 0110.422 4.1l3.618-4.7c-3.348-3.24-7.884-5.022-13.5-5.022-7.884 0-13.122 4.59-13.122 10.53 0 7.614 6.912 9.342 12.8 10.8 4.374 1.134 8.208 2.106 8.208 5.346 0 2.376-2.052 4.914-7.236 4.914a15.536 15.536 0 01-11.394-4.962zm46.008 5.724c8.37 0 13.446-6.21 13.446-13.716 0-7.452-5.076-13.662-13.446-13.662-8.262 0-13.392 6.21-13.392 13.662 0 7.506 5.13 13.716 13.392 13.716zm0-5.022c-4.806 0-7.506-4.05-7.506-8.694 0-4.59 2.7-8.64 7.506-8.64 4.86 0 7.56 4.05 7.56 8.64.002 4.644-2.698 8.694-7.56 8.694zm20.52 4.374h5.67v-21.114h5.292v-4.968h-5.292v-1.458c0-2.916 1.4-4.374 3.618-4.374a4.545 4.545 0 012.268.54l1.242-4.158a9.392 9.392 0 00-4.536-1.026c-4.806 0-8.262 3.186-8.262 9.018v1.458h-4.32v4.968h4.32zm23.112.648c2.646 0 4.32-.7 5.346-1.674l-1.35-4.266a3.66 3.66 0 01-2.538.918c-1.62 0-2.484-1.3-2.484-3.078v-13.662h5.292v-4.968h-5.292v-7.128h-5.67v7.128h-4.32v4.968h4.32v15.066c0 4.32 2.326 6.696 6.696 6.696zm21.114-5.724c3.186 3.402 7.992 5.724 14.634 5.724 9.72 0 13.932-5.13 13.932-11.124 0-7.83-7.074-9.666-13.014-11.178-4.266-1.08-7.936-1.998-7.936-4.806 0-2.7 2.376-4.482 6.1-4.482a14.642 14.642 0 0110.422 4.1l3.618-4.7c-3.348-3.24-7.884-5.022-13.5-5.022-7.884 0-13.122 4.59-13.122 10.53 0 7.614 6.912 9.342 12.8 10.8 4.374 1.134 8.208 2.106 8.208 5.346 0 2.376-2.052 4.914-7.236 4.914a15.536 15.536 0 01-11.396-4.962zM1005.9 279h7.128l-11.07-14.256 10.854-11.826h-7.02L994.29 265.5v-22.518h-5.67V279h5.67v-7.02l3.618-3.726zm13.932-30.078a3.5 3.5 0 003.51-3.51 3.5 3.5 0 00-3.51-3.51 3.538 3.538 0 00-3.51 3.51 3.538 3.538 0 003.51 3.51zM1017.024 279h5.67v-26.082h-5.67zm13.014 0h5.67v-36.018h-5.67zm13.014 0h5.67v-36.018h-5.67zm10.748-3.4a15.863 15.863 0 0011.176 4.048c7.02 0 10.854-3.51 10.854-8.1 0-6.156-5.562-7.452-10.1-8.424-3.078-.7-5.67-1.4-5.67-3.4 0-1.836 1.89-2.916 4.86-2.916a10.518 10.518 0 017.722 3.132l2.376-4a14.911 14.911 0 00-10.152-3.672c-6.588 0-10.26 3.672-10.26 7.938 0 5.832 5.346 7.02 9.828 7.992 3.186.7 5.94 1.512 5.94 3.78 0 1.944-1.728 3.186-5.13 3.186a13.462 13.462 0 01-8.854-3.67z" data-name="Path 196"/>
    <path fill="#fff" d="M153.2 361.84a4.54 4.54 0 10-4.56-4.52 4.55 4.55 0 004.56 4.52zm43.28 5.16h4.68v-26.68h-6.6l-7.28 17.96-7.24-17.96h-6.6V367h4.68v-20.2l8.16 20.2h2l8.2-20.2zm9.04-9.68a9.712 9.712 0 0010.12 10.16 11.262 11.262 0 007.84-2.8l-1.92-2.76a8.177 8.177 0 01-5.48 2.12 5.852 5.852 0 01-6.16-5.32h14.92v-1c0-6.08-3.72-10.52-9.52-10.52a9.765 9.765 0 00-9.8 10.12zm9.8-6.68a5.168 5.168 0 015.44 5.12h-10.88a5.329 5.329 0 015.44-5.12zM240.8 367h4.2v-12.8c0-5.2-3.76-7-8.04-7a11.489 11.489 0 00-8.12 3.12l1.72 2.92a7.911 7.911 0 015.72-2.44c2.68 0 4.52 1.36 4.52 3.6v2.88a7.986 7.986 0 00-6.24-2.48c-3.16 0-6.72 1.84-6.72 6.28 0 4.28 3.56 6.4 6.72 6.4a8.156 8.156 0 006.24-2.56zm0-4.4a5.656 5.656 0 01-4.6 2c-2.36 0-4.12-1.36-4.12-3.44 0-2.12 1.76-3.48 4.12-3.48a5.656 5.656 0 014.6 2zm7.96 1.88a11.75 11.75 0 008.28 3c5.2 0 8.04-2.6 8.04-6 0-4.56-4.12-5.52-7.48-6.24-2.28-.52-4.2-1.04-4.2-2.52 0-1.36 1.4-2.16 3.6-2.16a7.791 7.791 0 015.72 2.32l1.76-2.96a11.045 11.045 0 00-7.52-2.72c-4.88 0-7.6 2.72-7.6 5.88 0 4.32 3.96 5.2 7.28 5.92 2.36.52 4.4 1.12 4.4 2.8 0 1.44-1.28 2.36-3.8 2.36a9.972 9.972 0 01-6.56-2.72zm33.6 2.52h4.2v-19.32h-4.2v13.56a6.426 6.426 0 01-4.96 2.52c-2.36 0-3.88-.92-3.88-3.92v-12.16h-4.2v13.68c0 3.96 2.04 6.12 6.2 6.12a9.26 9.26 0 006.84-3.04zm9.64 0h4.2v-13.16a6.671 6.671 0 014.96-2.56 6.191 6.191 0 011.32.12v-4.16a8.251 8.251 0 00-6.28 3.28v-2.84H292zm25.68 0h4.2v-12.8c0-5.2-3.76-7-8.04-7a11.489 11.489 0 00-8.12 3.12l1.72 2.92a7.911 7.911 0 015.72-2.44c2.68 0 4.52 1.36 4.52 3.6v2.88a7.986 7.986 0 00-6.24-2.48c-3.16 0-6.72 1.84-6.72 6.28 0 4.28 3.56 6.4 6.72 6.4a8.156 8.156 0 006.24-2.56zm0-4.4a5.656 5.656 0 01-4.6 2c-2.36 0-4.12-1.36-4.12-3.44 0-2.12 1.76-3.48 4.12-3.48a5.656 5.656 0 014.6 2zm9.64 4.4h4.2v-2.64a7.766 7.766 0 006.2 3.12c4.92 0 8.56-3.76 8.56-10.12 0-6.24-3.6-10.16-8.56-10.16a7.64 7.64 0 00-6.2 3.16v-10.04h-4.2zm4.2-5.8v-7.64a6.3 6.3 0 014.96-2.64c3.36 0 5.48 2.68 5.48 6.44s-2.12 6.4-5.48 6.4a6.235 6.235 0 01-4.96-2.56zm19.04 5.8h4.2v-26.68h-4.2zm8.44-9.68a9.712 9.712 0 0010.12 10.16 11.262 11.262 0 007.84-2.8l-1.92-2.76a8.177 8.177 0 01-5.48 2.12 5.852 5.852 0 01-6.16-5.32h14.92v-1c0-6.08-3.72-10.52-9.52-10.52a9.765 9.765 0 00-9.8 10.12zm9.8-6.68a5.168 5.168 0 015.44 5.12h-10.88a5.329 5.329 0 015.44-5.12zm-215.6 66.2a4.54 4.54 0 10-4.56-4.52 4.55 4.55 0 004.56 4.52zm20.24 5.16h18.28v-4.12h-13.6v-7.4h13.32v-4.12h-13.32v-6.92h13.6v-4.12h-18.28zm34.76 0h4.2v-12.8c0-5.2-3.76-7-8.04-7a11.489 11.489 0 00-8.12 3.12l1.72 2.92a7.911 7.911 0 015.72-2.44c2.68 0 4.52 1.36 4.52 3.6v2.88a7.986 7.986 0 00-6.24-2.48c-3.16 0-6.72 1.84-6.72 6.28 0 4.28 3.56 6.4 6.72 6.4a8.156 8.156 0 006.24-2.56zm0-4.4a5.655 5.655 0 01-4.6 2c-2.36 0-4.12-1.36-4.12-3.44 0-2.12 1.76-3.48 4.12-3.48a5.655 5.655 0 014.6 2zm7.96 1.88a11.75 11.75 0 008.28 3c5.2 0 8.04-2.6 8.04-6 0-4.56-4.12-5.52-7.48-6.24-2.28-.52-4.2-1.04-4.2-2.52 0-1.36 1.4-2.16 3.6-2.16a7.791 7.791 0 015.72 2.32l1.76-2.96a11.045 11.045 0 00-7.52-2.72c-4.88 0-7.6 2.72-7.6 5.88 0 4.32 3.96 5.2 7.28 5.92 2.36.52 4.4 1.12 4.4 2.8 0 1.44-1.28 2.36-3.8 2.36a9.972 9.972 0 01-6.56-2.72zm22.64-19.76a2.6 2.6 0 10-2.6-2.6 2.595 2.595 0 002.6 2.6zM236.72 422h4.2v-19.32h-4.2zm9.64 0h4.2v-26.68h-4.2zm9.44 3.8l-.64 3.76a11.878 11.878 0 002.36.28c3-.04 5.32-1.08 6.64-4.36l9.32-22.8h-4.52l-5.64 14.48-5.64-14.48h-4.48l7.92 19.56-.96 2.2a2.617 2.617 0 01-2.76 1.68 4.389 4.389 0 01-1.6-.32zM300 422h4.2v-26.68H300v10.04a7.751 7.751 0 00-6.2-3.16c-5 0-8.6 3.92-8.6 10.16 0 6.36 3.64 10.12 8.6 10.12a7.824 7.824 0 006.2-3.12zm0-5.8a6.313 6.313 0 01-5 2.56c-3.32 0-5.44-2.68-5.44-6.4 0-3.76 2.12-6.44 5.44-6.44a6.347 6.347 0 015 2.6zm8.44-3.88a9.712 9.712 0 0010.12 10.16 11.262 11.262 0 007.84-2.8l-1.92-2.76a8.177 8.177 0 01-5.48 2.12 5.852 5.852 0 01-6.16-5.32h14.92v-1c0-6.08-3.72-10.52-9.52-10.52a9.765 9.765 0 00-9.8 10.12zm9.8-6.68a5.168 5.168 0 015.44 5.12H312.8a5.329 5.329 0 015.44-5.12zm28.08-5.92a2.6 2.6 0 10-2.6-2.6 2.595 2.595 0 002.6 2.6zM332.92 422h4.2v-15.64h3.92v-3.68h-3.92v-1.08c0-2.16 1.04-3.24 2.68-3.24a2.894 2.894 0 011.68.44l.92-3.12a6.957 6.957 0 00-3.36-.76c-3.56 0-6.12 2.36-6.12 6.68v1.08h-3.2v3.68h3.2zm11.32 0h4.2v-19.32h-4.2zm22.68 0h4.2v-13.6c0-3.96-2.08-6.2-6.24-6.2a9.141 9.141 0 00-6.8 3.12v-2.64h-4.2V422h4.2v-13.48a6.36 6.36 0 014.96-2.6c2.36 0 3.88 1 3.88 4zm8.44-9.68a9.712 9.712 0 0010.12 10.16 11.262 11.262 0 007.84-2.8l-1.92-2.76a8.177 8.177 0 01-5.48 2.12 5.852 5.852 0 01-6.16-5.32h14.92v-1c0-6.08-3.72-10.52-9.52-10.52a9.765 9.765 0 00-9.8 10.12zm9.8-6.68a5.168 5.168 0 015.44 5.12h-10.88a5.329 5.329 0 015.44-5.12zM412.44 422h4.2v-26.68h-4.2v10.04a7.751 7.751 0 00-6.2-3.16c-5 0-8.6 3.92-8.6 10.16 0 6.36 3.64 10.12 8.6 10.12a7.824 7.824 0 006.2-3.12zm0-5.8a6.313 6.313 0 01-5 2.56c-3.32 0-5.44-2.68-5.44-6.4 0-3.76 2.12-6.44 5.44-6.44a6.347 6.347 0 015 2.6zM153.2 471.84a4.54 4.54 0 10-4.56-4.52 4.55 4.55 0 004.56 4.52zm18.52 1.4c2.36 2.52 5.92 4.24 10.84 4.24 7.2 0 10.32-3.8 10.32-8.24 0-5.8-5.24-7.16-9.64-8.28-3.16-.8-5.88-1.48-5.88-3.56 0-2 1.76-3.32 4.52-3.32a10.846 10.846 0 017.72 3.04l2.68-3.48a13.883 13.883 0 00-10-3.72c-5.84 0-9.72 3.4-9.72 7.8 0 5.64 5.12 6.92 9.48 8 3.24.84 6.08 1.56 6.08 3.96 0 1.76-1.52 3.64-5.36 3.64a11.508 11.508 0 01-8.44-3.68zm29.56 11.12v-10.04a7.586 7.586 0 006.2 3.16c5 0 8.56-3.8 8.56-10.16s-3.56-10.12-8.56-10.12a7.709 7.709 0 00-6.2 3.12v-2.64h-4.2v26.68zm10.4-17.04c0 3.76-2.12 6.44-5.44 6.44a6.384 6.384 0 01-4.96-2.6v-7.64a6.269 6.269 0 014.96-2.6c3.32 0 5.44 2.68 5.44 6.4zm7.4 0a9.712 9.712 0 0010.12 10.16 11.262 11.262 0 007.84-2.8l-1.92-2.76a8.177 8.177 0 01-5.48 2.12 5.852 5.852 0 01-6.16-5.32h14.92v-1c0-6.08-3.72-10.52-9.52-10.52a9.765 9.765 0 00-9.8 10.12zm9.8-6.68a5.168 5.168 0 015.44 5.12h-10.88a5.329 5.329 0 015.44-5.12zm12.48 6.68c0 5.88 4.12 10.16 10 10.16a8.663 8.663 0 007.4-3.44l-2.76-2.56a5.252 5.252 0 01-4.44 2.28c-3.52 0-5.84-2.68-5.84-6.44s2.32-6.4 5.84-6.4a5.157 5.157 0 014.44 2.28l2.76-2.56a8.663 8.663 0 00-7.4-3.44 9.7 9.7 0 00-10 10.12zm23.16-12.6a2.6 2.6 0 10-2.6-2.6 2.595 2.595 0 002.6 2.6zM262.44 477h4.2v-19.32h-4.2zm24.04-22.28a2.6 2.6 0 10-2.6-2.6 2.595 2.595 0 002.6 2.6zM273.08 477h4.2v-15.64h3.92v-3.68h-3.92v-1.08c0-2.16 1.04-3.24 2.68-3.24a2.894 2.894 0 011.68.44l.92-3.12a6.957 6.957 0 00-3.36-.76c-3.56 0-6.12 2.36-6.12 6.68v1.08h-3.2v3.68h3.2zm11.32 0h4.2v-19.32h-4.2zm8.44-9.68c0 5.88 4.12 10.16 10 10.16a8.663 8.663 0 007.4-3.44l-2.76-2.56a5.252 5.252 0 01-4.44 2.28c-3.52 0-5.84-2.68-5.84-6.44s2.32-6.4 5.84-6.4a5.157 5.157 0 014.44 2.28l2.76-2.56a8.663 8.663 0 00-7.4-3.44 9.7 9.7 0 00-10 10.12z" data-name="Path 194"/>
    <path fill="#fff" d="M793.2 361.84a4.54 4.54 0 10-4.56-4.52 4.55 4.55 0 004.56 4.52zM832 367h4.68v-26.68H832v10.92h-13.88v-10.92h-4.68V367h4.68v-11.64H832zm22.04 0h4.2v-12.8c0-5.2-3.76-7-8.04-7a11.489 11.489 0 00-8.12 3.12l1.72 2.92a7.911 7.911 0 015.72-2.44c2.68 0 4.52 1.36 4.52 3.6v2.88a7.986 7.986 0 00-6.24-2.48c-3.16 0-6.72 1.84-6.72 6.28 0 4.28 3.56 6.4 6.72 6.4a8.156 8.156 0 006.24-2.56zm0-4.4a5.655 5.655 0 01-4.6 2c-2.36 0-4.12-1.36-4.12-3.44 0-2.12 1.76-3.48 4.12-3.48a5.655 5.655 0 014.6 2zm9.64 4.4h4.2v-13.16a6.671 6.671 0 014.96-2.56 6.191 6.191 0 011.32.12v-4.16a8.251 8.251 0 00-6.28 3.28v-2.84h-4.2zm27.48 0h4.2v-26.68h-4.2v10.04a7.75 7.75 0 00-6.2-3.16c-5 0-8.6 3.92-8.6 10.16 0 6.36 3.64 10.12 8.6 10.12a7.824 7.824 0 006.2-3.12zm0-5.8a6.313 6.313 0 01-5 2.56c-3.32 0-5.44-2.68-5.44-6.4 0-3.76 2.12-6.44 5.44-6.44a6.347 6.347 0 015 2.6zm25.72 6.28a5.541 5.541 0 003.96-1.24l-1-3.16a2.711 2.711 0 01-1.88.68c-1.2 0-1.84-.96-1.84-2.28v-10.12h3.92v-3.68h-3.92v-5.28h-4.2v5.28h-3.2v3.68h3.2v11.16c0 3.2 1.72 4.96 4.96 4.96zm15.68 0c6.2 0 9.96-4.6 9.96-10.16 0-5.52-3.76-10.12-9.96-10.12-6.12 0-9.92 4.6-9.92 10.12 0 5.56 3.8 10.16 9.92 10.16zm0-3.72c-3.56 0-5.56-3-5.56-6.44 0-3.4 2-6.4 5.56-6.4 3.6 0 5.6 3 5.6 6.4 0 3.44-2 6.44-5.6 6.44zm48.16 3.24h4.2v-13.96c0-3.92-2-5.84-5.56-5.84a8.194 8.194 0 00-6.56 3.56c-.64-2.12-2.4-3.56-5.28-3.56a8.344 8.344 0 00-6.28 3.12v-2.64h-4.2V367h4.2v-13.48a5.846 5.846 0 014.44-2.6c2.28 0 3.2 1.4 3.2 3.48V367h4.2v-13.52a5.862 5.862 0 014.48-2.56c2.24 0 3.16 1.4 3.16 3.48zm8.44-9.68a9.712 9.712 0 0010.12 10.16 11.262 11.262 0 007.84-2.8l-1.92-2.76a8.177 8.177 0 01-5.48 2.12 5.852 5.852 0 01-6.16-5.32h14.92v-1c0-6.08-3.72-10.52-9.52-10.52a9.765 9.765 0 00-9.8 10.12zm9.8-6.68a5.168 5.168 0 015.44 5.12h-10.88a5.329 5.329 0 015.44-5.12zm25.48 16.36h4.2v-12.8c0-5.2-3.76-7-8.04-7a11.489 11.489 0 00-8.12 3.12l1.72 2.92a7.911 7.911 0 015.72-2.44c2.68 0 4.52 1.36 4.52 3.6v2.88a7.986 7.986 0 00-6.24-2.48c-3.16 0-6.72 1.84-6.72 6.28 0 4.28 3.56 6.4 6.72 6.4a8.156 8.156 0 006.24-2.56zm0-4.4a5.656 5.656 0 01-4.6 2c-2.36 0-4.12-1.36-4.12-3.44 0-2.12 1.76-3.48 4.12-3.48a5.656 5.656 0 014.6 2zm7.96 1.88a11.75 11.75 0 008.28 3c5.2 0 8.04-2.6 8.04-6 0-4.56-4.12-5.52-7.48-6.24-2.28-.52-4.2-1.04-4.2-2.52 0-1.36 1.4-2.16 3.6-2.16a7.791 7.791 0 015.72 2.32l1.76-2.96a11.045 11.045 0 00-7.52-2.72c-4.88 0-7.6 2.72-7.6 5.88 0 4.32 3.96 5.2 7.28 5.92 2.36.52 4.4 1.12 4.4 2.8 0 1.44-1.28 2.36-3.8 2.36a9.972 9.972 0 01-6.56-2.72zM1066 367h4.2v-19.32h-4.2v13.56a6.426 6.426 0 01-4.96 2.52c-2.36 0-3.88-.92-3.88-3.92v-12.16h-4.2v13.68c0 3.96 2.04 6.12 6.2 6.12a9.26 9.26 0 006.84-3.04zm9.64 0h4.2v-13.16a6.671 6.671 0 014.96-2.56 6.191 6.191 0 011.32.12v-4.16a8.251 8.251 0 00-6.28 3.28v-2.84h-4.2zm12.68-9.68a9.712 9.712 0 0010.12 10.16 11.262 11.262 0 007.84-2.8l-1.92-2.76a8.177 8.177 0 01-5.48 2.12 5.852 5.852 0 01-6.16-5.32h14.92v-1c0-6.08-3.72-10.52-9.52-10.52a9.765 9.765 0 00-9.8 10.12zm9.8-6.68a5.168 5.168 0 015.44 5.12h-10.88a5.329 5.329 0 015.44-5.12zm-304.92 66.2a4.54 4.54 0 10-4.56-4.52 4.55 4.55 0 004.56 4.52zm20.24 5.16h9.92c8.32 0 13.96-5.48 13.96-13.32s-5.64-13.36-13.96-13.36h-9.92zm4.68-4.12v-18.44h5.24c5.96 0 9.16 4.08 9.16 9.24 0 5.04-3.36 9.2-9.16 9.2zm25.68-18.16a2.6 2.6 0 10-2.6-2.6 2.595 2.595 0 002.6 2.6zM841.72 422h4.2v-19.32h-4.2zm36.36-22.28a2.6 2.6 0 10-2.6-2.6 2.595 2.595 0 002.6 2.6zM852.36 422h4.2v-15.64h3.92v-3.68h-3.92v-1.08c0-2.16 1.04-3.24 2.68-3.24a3.366 3.366 0 011.68.4l.92-3.08a6.957 6.957 0 00-3.36-.76c-3.56 0-6.12 2.36-6.12 6.68v1.08h-3.2v3.68h3.2zm12.32 0h4.2v-15.64h3.92v-3.68h-3.92v-1.08c0-2.16 1.04-3.24 2.68-3.24a2.894 2.894 0 011.68.44l.92-3.12a6.957 6.957 0 00-3.36-.76c-3.56 0-6.12 2.36-6.12 6.68v1.08h-3.2v3.68h3.2zm11.32 0h4.2v-19.32H876zm8.44-9.68c0 5.88 4.12 10.16 10 10.16a8.663 8.663 0 007.4-3.44l-2.76-2.56a5.252 5.252 0 01-4.44 2.28c-3.52 0-5.84-2.68-5.84-6.44s2.32-6.4 5.84-6.4a5.157 5.157 0 014.44 2.28l2.76-2.56a8.663 8.663 0 00-7.4-3.44 9.7 9.7 0 00-10 10.12zm34.12 9.68h4.2v-19.32h-4.2v13.56a6.426 6.426 0 01-4.96 2.52c-2.36 0-3.88-.92-3.88-3.92v-12.16h-4.2v13.68c0 3.96 2.04 6.12 6.2 6.12a9.26 9.26 0 006.84-3.04zm9.64 0h4.2v-26.68h-4.2zm15.44.48a5.541 5.541 0 003.96-1.24l-1-3.16a2.711 2.711 0 01-1.88.68c-1.2 0-1.84-.96-1.84-2.28v-10.12h3.92v-3.68h-3.92v-5.28h-4.2v5.28h-3.2v3.68h3.2v11.16c0 3.2 1.72 4.96 4.96 4.96zm23.04 0a5.541 5.541 0 003.96-1.24l-1-3.16a2.711 2.711 0 01-1.88.68c-1.2 0-1.84-.96-1.84-2.28v-10.12h3.92v-3.68h-3.92v-5.28h-4.2v5.28h-3.2v3.68h3.2v11.16c0 3.2 1.72 4.96 4.96 4.96zm15.68 0c6.2 0 9.96-4.6 9.96-10.16 0-5.52-3.76-10.12-9.96-10.12-6.12 0-9.92 4.6-9.92 10.12 0 5.56 3.8 10.16 9.92 10.16zm0-3.72c-3.56 0-5.56-3-5.56-6.44 0-3.4 2-6.4 5.56-6.4 3.6 0 5.6 3 5.6 6.4 0 3.44-2 6.44-5.6 6.44zm38.08 3.24h4.2v-26.68h-4.2v10.04a7.751 7.751 0 00-6.2-3.16c-5 0-8.6 3.92-8.6 10.16 0 6.36 3.64 10.12 8.6 10.12a7.824 7.824 0 006.2-3.12zm0-5.8a6.313 6.313 0 01-5 2.56c-3.32 0-5.44-2.68-5.44-6.4 0-3.76 2.12-6.44 5.44-6.44a6.347 6.347 0 015 2.6zm8.44-3.88a9.712 9.712 0 0010.12 10.16 11.262 11.262 0 007.84-2.8l-1.92-2.76a8.177 8.177 0 01-5.48 2.12 5.852 5.852 0 01-6.16-5.32h14.92v-1c0-6.08-3.72-10.52-9.52-10.52a9.765 9.765 0 00-9.8 10.12zm9.8-6.68a5.168 5.168 0 015.44 5.12h-10.88a5.329 5.329 0 015.44-5.12zm28.08-5.92a2.6 2.6 0 10-2.6-2.6 2.595 2.595 0 002.6 2.6zm-13.4 22.28h4.2v-15.64h3.92v-3.68h-3.92v-1.08c0-2.16 1.04-3.24 2.68-3.24a2.894 2.894 0 011.68.44l.92-3.12a6.957 6.957 0 00-3.36-.76c-3.56 0-6.12 2.36-6.12 6.68v1.08h-3.2v3.68h3.2zm11.32 0h4.2v-19.32h-4.2zm22.68 0h4.2v-13.6c0-3.96-2.08-6.2-6.24-6.2a9.141 9.141 0 00-6.8 3.12v-2.64h-4.2V422h4.2v-13.48a6.36 6.36 0 014.96-2.6c2.36 0 3.88 1 3.88 4zm8.44-9.68a9.712 9.712 0 0010.12 10.16 11.262 11.262 0 007.84-2.8l-1.92-2.76a8.177 8.177 0 01-5.48 2.12 5.852 5.852 0 01-6.16-5.32h14.92v-1c0-6.08-3.72-10.52-9.52-10.52a9.765 9.765 0 00-9.8 10.12zm9.8-6.68a5.168 5.168 0 015.44 5.12h-10.88a5.329 5.329 0 015.44-5.12zm-312.4 66.2a4.54 4.54 0 10-4.56-4.52 4.55 4.55 0 004.56 4.52zm20.24-5.36c0 6.56 3.8 11 11.56 11 7.72 0 11.52-4.4 11.52-11.04v-16.12h-4.72v16c0 4.24-2.36 7-6.8 7-4.48 0-6.84-2.76-6.84-7v-16h-4.72zM855.12 477h4.2v-13.6c0-3.96-2.08-6.2-6.24-6.2a9.141 9.141 0 00-6.8 3.12v-2.64h-4.2V477h4.2v-13.48a6.36 6.36 0 014.96-2.6c2.36 0 3.88 1 3.88 4zm11.72-22.28a2.6 2.6 0 10-2.6-2.6 2.595 2.595 0 002.6 2.6zM864.76 477h4.2v-19.32h-4.2zm14.72 0H884l7.88-19.32h-4.52l-5.64 14.48-5.64-14.48h-4.48zm13.84-9.68a9.712 9.712 0 0010.12 10.16 11.262 11.262 0 007.84-2.8l-1.92-2.76a8.177 8.177 0 01-5.48 2.12 5.852 5.852 0 01-6.16-5.32h14.92v-1c0-6.08-3.72-10.52-9.52-10.52a9.765 9.765 0 00-9.8 10.12zm9.8-6.68a5.168 5.168 0 015.44 5.12h-10.88a5.329 5.329 0 015.44-5.12zM916.8 477h4.2v-13.16a6.671 6.671 0 014.96-2.56 6.191 6.191 0 011.32.12v-4.16a8.251 8.251 0 00-6.28 3.28v-2.84h-4.2zm12.2-2.52a11.75 11.75 0 008.28 3c5.2 0 8.04-2.6 8.04-6 0-4.56-4.12-5.52-7.48-6.24-2.28-.52-4.2-1.04-4.2-2.52 0-1.36 1.4-2.16 3.6-2.16a7.791 7.791 0 015.72 2.32l1.76-2.96a11.045 11.045 0 00-7.52-2.72c-4.88 0-7.6 2.72-7.6 5.88 0 4.32 3.96 5.2 7.28 5.92 2.36.52 4.4 1.12 4.4 2.8 0 1.44-1.28 2.36-3.8 2.36a9.972 9.972 0 01-6.56-2.72zm32.36 2.52h4.2v-12.8c0-5.2-3.76-7-8.04-7a11.489 11.489 0 00-8.12 3.12l1.72 2.92a7.911 7.911 0 015.72-2.44c2.68 0 4.52 1.36 4.52 3.6v2.88a7.986 7.986 0 00-6.24-2.48c-3.16 0-6.72 1.84-6.72 6.28 0 4.28 3.56 6.4 6.72 6.4a8.156 8.156 0 006.24-2.56zm0-4.4a5.656 5.656 0 01-4.6 2c-2.36 0-4.12-1.36-4.12-3.44 0-2.12 1.76-3.48 4.12-3.48a5.656 5.656 0 014.6 2zM971 477h4.2v-26.68H971z" data-name="Path 197"/>
    <path fill="#fff" d="M148.13 568h13.71v-3.09h-10.2v-5.55h9.99v-3.09h-9.99v-5.19h10.2v-3.09h-13.71zm26.37 0h3.54l-5.34-7.44 5.01-7.05h-3.54l-3.42 4.92-3.45-4.92h-3.54l5.01 7.05-5.31 7.44h3.51l3.78-5.34zm14.58 0h3.15v-9.6c0-3.9-2.82-5.25-6.03-5.25a8.617 8.617 0 00-6.09 2.34l1.29 2.19a5.933 5.933 0 014.29-1.83c2.01 0 3.39 1.02 3.39 2.7v2.16a5.99 5.99 0 00-4.68-1.86c-2.37 0-5.04 1.38-5.04 4.71a4.813 4.813 0 005.04 4.8 6.117 6.117 0 004.68-1.92zm0-3.3a4.242 4.242 0 01-3.45 1.5c-1.77 0-3.09-1.02-3.09-2.58 0-1.59 1.32-2.61 3.09-2.61a4.242 4.242 0 013.45 1.5zm24.99 3.3h3.15v-10.47c0-2.94-1.5-4.38-4.17-4.38a6.145 6.145 0 00-4.92 2.67 3.775 3.775 0 00-3.96-2.67 6.258 6.258 0 00-4.71 2.34v-1.98h-3.15V568h3.15v-10.11a4.384 4.384 0 013.33-1.95c1.71 0 2.4 1.05 2.4 2.61V568h3.15v-10.14a4.4 4.4 0 013.36-1.92c1.68 0 2.37 1.05 2.37 2.61zm10.38 5.52v-7.53a5.689 5.689 0 004.65 2.37c3.75 0 6.42-2.85 6.42-7.62s-2.67-7.59-6.42-7.59a5.782 5.782 0 00-4.65 2.34v-1.98h-3.15v20.01zm7.8-12.78c0 2.82-1.59 4.83-4.08 4.83a4.788 4.788 0 01-3.72-1.95v-5.73a4.7 4.7 0 013.72-1.95c2.49 0 4.08 2.01 4.08 4.8zm6.45 7.26h3.15v-20.01h-3.15zm6.33-7.26a7.284 7.284 0 007.59 7.62 8.446 8.446 0 005.88-2.1l-1.44-2.07a6.133 6.133 0 01-4.11 1.59 4.389 4.389 0 01-4.62-3.99h11.19v-.75c0-4.56-2.79-7.89-7.14-7.89a7.324 7.324 0 00-7.35 7.59zm7.35-5.01a3.876 3.876 0 014.08 3.84h-8.16a4 4 0 014.08-3.84zm9 10.38a8.813 8.813 0 006.21 2.25c3.9 0 6.03-1.95 6.03-4.5 0-3.42-3.09-4.14-5.61-4.68-1.71-.39-3.15-.78-3.15-1.89 0-1.02 1.05-1.62 2.7-1.62a5.844 5.844 0 014.29 1.74l1.32-2.22a8.284 8.284 0 00-5.64-2.04c-3.66 0-5.7 2.04-5.7 4.41 0 3.24 2.97 3.9 5.46 4.44 1.77.39 3.3.84 3.3 2.1 0 1.08-.96 1.77-2.85 1.77a7.479 7.479 0 01-4.92-2.04zm14.94-10.71a2.1 2.1 0 102.1-2.1 2.126 2.126 0 00-2.1 2.1zm0 10.83a2.1 2.1 0 102.1-2.1 2.126 2.126 0 00-2.1 2.1zM148.13 612h10.11c3.75 0 5.82-2.31 5.82-5.4a4.921 4.921 0 00-3.87-4.92 4.5 4.5 0 003.48-4.59c0-2.82-2.04-5.1-5.7-5.1h-9.84zm3.51-11.73v-5.19h5.61a2.6 2.6 0 110 5.19zm0 8.64v-5.55h5.76a2.75 2.75 0 013.06 2.76c0 1.74-1.14 2.79-3.06 2.79zm22.38 3.45c4.65 0 7.47-3.45 7.47-7.62a7.243 7.243 0 00-7.47-7.59 7.254 7.254 0 00-7.44 7.59 7.261 7.261 0 007.44 7.62zm0-2.79c-2.67 0-4.17-2.25-4.17-4.83 0-2.55 1.5-4.8 4.17-4.8 2.7 0 4.2 2.25 4.2 4.8 0 2.58-1.5 4.83-4.2 4.83zm17.19 2.79c4.65 0 7.47-3.45 7.47-7.62a7.456 7.456 0 10-14.91 0 7.261 7.261 0 007.44 7.62zm0-2.79c-2.67 0-4.17-2.25-4.17-4.83 0-2.55 1.5-4.8 4.17-4.8 2.7 0 4.2 2.25 4.2 4.8 0 2.58-1.5 4.83-4.2 4.83zm20.25 2.43h3.96l-6.15-7.92 6.03-6.57h-3.9l-6.39 6.99v-12.51h-3.15V612h3.15v-3.9l2.01-2.07zm15.78 0h3.96l-6.15-7.92 6.03-6.57h-3.9l-6.39 6.99v-12.51h-3.15V612h3.15v-3.9l2.01-2.07zm4.53-7.26a7.284 7.284 0 007.59 7.62 8.446 8.446 0 005.88-2.1l-1.44-2.07a6.133 6.133 0 01-4.11 1.59 4.389 4.389 0 01-4.62-3.99h11.19v-.75c0-4.56-2.79-7.89-7.14-7.89a7.324 7.324 0 00-7.35 7.59zm7.35-5.01a3.876 3.876 0 014.08 3.84h-8.16a4 4 0 014.08-3.84zm9.36 5.01a7.284 7.284 0 007.59 7.62 8.446 8.446 0 005.88-2.1l-1.44-2.07a6.133 6.133 0 01-4.11 1.59 4.389 4.389 0 01-4.62-3.99h11.19v-.75c0-4.56-2.79-7.89-7.14-7.89a7.324 7.324 0 00-7.35 7.59zm7.35-5.01a3.876 3.876 0 014.08 3.84h-8.16a4 4 0 014.08-3.84zm13.41 17.79v-7.53a5.689 5.689 0 004.65 2.37c3.75 0 6.42-2.85 6.42-7.62s-2.67-7.59-6.42-7.59a5.782 5.782 0 00-4.65 2.34v-1.98h-3.15v20.01zm7.8-12.78c0 2.82-1.59 4.83-4.08 4.83a4.788 4.788 0 01-3.72-1.95v-5.73a4.7 4.7 0 013.72-1.95c2.49 0 4.08 2.01 4.08 4.8zm8.01-9.45a1.95 1.95 0 10-1.95-1.95 1.946 1.946 0 001.95 1.95zM283.49 612h3.15v-14.49h-3.15zm17.01 0h3.15v-10.2c0-2.97-1.56-4.65-4.68-4.65a6.856 6.856 0 00-5.1 2.34v-1.98h-3.15V612h3.15v-10.11a4.77 4.77 0 013.72-1.95c1.77 0 2.91.75 2.91 3zm7.05 3.72a8.178 8.178 0 006.06 2.16c3.57 0 7.44-1.41 7.44-6.63v-13.74h-3.15v2.01a5.771 5.771 0 00-4.65-2.37c-3.72 0-6.42 2.76-6.42 7.44 0 4.77 2.73 7.44 6.42 7.44a5.881 5.881 0 004.65-2.4v1.74c0 2.97-2.22 3.93-4.29 3.93a5.617 5.617 0 01-4.59-1.86zm10.35-8.43a4.7 4.7 0 01-3.72 1.95c-2.49 0-4.08-1.86-4.08-4.65s1.59-4.65 4.08-4.65a4.7 4.7 0 013.72 1.95zm8.31 8.7a6.43 6.43 0 002.82-5.13 2.456 2.456 0 00-2.34-2.73 2.068 2.068 0 00-2.04 2.07 1.791 1.791 0 001.8 1.89 1.958 1.958 0 00.51-.09 5 5 0 01-2.16 2.82zm22.83-3.99h3.15v-9.6c0-3.9-2.82-5.25-6.03-5.25a8.617 8.617 0 00-6.09 2.34l1.29 2.19a5.933 5.933 0 014.29-1.83c2.01 0 3.39 1.02 3.39 2.7v2.16a5.99 5.99 0 00-4.68-1.86c-2.37 0-5.04 1.38-5.04 4.71a4.813 4.813 0 005.04 4.8 6.117 6.117 0 004.68-1.92zm0-3.3a4.242 4.242 0 01-3.45 1.5c-1.77 0-3.09-1.02-3.09-2.58 0-1.59 1.32-2.61 3.09-2.61a4.242 4.242 0 013.45 1.5zm17.01 3.3h3.15v-10.2c0-2.97-1.56-4.65-4.68-4.65a6.856 6.856 0 00-5.1 2.34v-1.98h-3.15V612h3.15v-10.11a4.77 4.77 0 013.72-1.95c1.77 0 2.91.75 2.91 3zm16.08 0h3.15v-9.6c0-3.9-2.82-5.25-6.03-5.25a8.617 8.617 0 00-6.09 2.34l1.29 2.19a5.933 5.933 0 014.29-1.83c2.01 0 3.39 1.02 3.39 2.7v2.16a5.99 5.99 0 00-4.68-1.86c-2.37 0-5.04 1.38-5.04 4.71a4.813 4.813 0 005.04 4.8 6.117 6.117 0 004.68-1.92zm0-3.3a4.242 4.242 0 01-3.45 1.5c-1.77 0-3.09-1.02-3.09-2.58 0-1.59 1.32-2.61 3.09-2.61a4.242 4.242 0 013.45 1.5zm7.23 3.3h3.15v-20.01h-3.15zm7.08 2.85l-.48 2.82a8.909 8.909 0 001.77.21 4.851 4.851 0 004.98-3.27l6.99-17.1h-3.39l-4.23 10.86-4.23-10.86h-3.36l5.94 14.67-.72 1.65a1.963 1.963 0 01-2.07 1.26 3.292 3.292 0 01-1.2-.24zm19.59-2.49a4.156 4.156 0 002.97-.93l-.75-2.37a2.034 2.034 0 01-1.41.51c-.9 0-1.38-.72-1.38-1.71v-7.59h2.94v-2.76h-2.94v-3.96h-3.15v3.96h-2.4v2.76h2.4v8.37c0 2.4 1.29 3.72 3.72 3.72zm6.78-17.07a1.95 1.95 0 10-1.95-1.95 1.946 1.946 0 001.95 1.95zM421.25 612h3.15v-14.49h-3.15zm6.33-7.26a7.279 7.279 0 007.5 7.62 6.5 6.5 0 005.55-2.58l-2.07-1.92a3.939 3.939 0 01-3.33 1.71c-2.64 0-4.38-2.01-4.38-4.83s1.74-4.8 4.38-4.8a3.867 3.867 0 013.33 1.71l2.07-1.92a6.5 6.5 0 00-5.55-2.58 7.272 7.272 0 00-7.5 7.59zm14.55 5.37a8.813 8.813 0 006.21 2.25c3.9 0 6.03-1.95 6.03-4.5 0-3.42-3.09-4.14-5.61-4.68-1.71-.39-3.15-.78-3.15-1.89 0-1.02 1.05-1.62 2.7-1.62a5.844 5.844 0 014.29 1.74l1.32-2.22a8.284 8.284 0 00-5.64-2.04c-3.66 0-5.7 2.04-5.7 4.41 0 3.24 2.97 3.9 5.46 4.44 1.77.39 3.3.84 3.3 2.1 0 1.08-.96 1.77-2.85 1.77a7.479 7.479 0 01-4.92-2.04zm16.5 5.88a6.43 6.43 0 002.82-5.13 2.456 2.456 0 00-2.34-2.73 2.068 2.068 0 00-2.04 2.07 1.791 1.791 0 001.8 1.89 1.958 1.958 0 00.51-.09 5 5 0 01-2.16 2.82zM156.89 656h3.15v-9.6c0-3.9-2.82-5.25-6.03-5.25a8.617 8.617 0 00-6.09 2.34l1.29 2.19a5.933 5.933 0 014.29-1.83c2.01 0 3.39 1.02 3.39 2.7v2.16a5.99 5.99 0 00-4.68-1.86c-2.37 0-5.04 1.38-5.04 4.71a4.813 4.813 0 005.04 4.8 6.117 6.117 0 004.68-1.92zm0-3.3a4.242 4.242 0 01-3.45 1.5c-1.77 0-3.09-1.02-3.09-2.58 0-1.59 1.32-2.61 3.09-2.61a4.242 4.242 0 013.45 1.5zm17.01 3.3h3.15v-10.2c0-2.97-1.56-4.65-4.68-4.65a6.856 6.856 0 00-5.1 2.34v-1.98h-3.15V656h3.15v-10.11a4.77 4.77 0 013.72-1.95c1.77 0 2.91.75 2.91 3zm17.43 0h3.15v-20.01h-3.15v7.53a5.813 5.813 0 00-4.65-2.37c-3.75 0-6.45 2.94-6.45 7.62 0 4.77 2.73 7.59 6.45 7.59a5.868 5.868 0 004.65-2.34zm0-4.35a4.735 4.735 0 01-3.75 1.92c-2.49 0-4.08-2.01-4.08-4.8 0-2.82 1.59-4.83 4.08-4.83a4.76 4.76 0 013.75 1.95zm16.5-12.36a1.95 1.95 0 10-1.95-1.95 1.946 1.946 0 001.95 1.95zM206.27 656h3.15v-14.49h-3.15zm17.01 0h3.15v-10.2c0-2.97-1.56-4.65-4.68-4.65a6.856 6.856 0 00-5.1 2.34v-1.98h-3.15V656h3.15v-10.11a4.77 4.77 0 013.72-1.95c1.77 0 2.91.75 2.91 3zm11.04 0h3.39l5.91-14.49h-3.39L236 652.37l-4.23-10.86h-3.36zm10.38-7.26a7.284 7.284 0 007.59 7.62 8.446 8.446 0 005.88-2.1l-1.44-2.07a6.133 6.133 0 01-4.11 1.59 4.389 4.389 0 01-4.62-3.99h11.19v-.75c0-4.56-2.79-7.89-7.14-7.89a7.324 7.324 0 00-7.35 7.59zm7.35-5.01a3.876 3.876 0 014.08 3.84h-8.16a4 4 0 014.08-3.84zM272.09 656h3.15v-10.2c0-2.97-1.56-4.65-4.68-4.65a6.856 6.856 0 00-5.1 2.34v-1.98h-3.15V656h3.15v-10.11a4.77 4.77 0 013.72-1.95c1.77 0 2.91.75 2.91 3zm11.58.36a4.156 4.156 0 002.97-.93l-.75-2.37a2.034 2.034 0 01-1.41.51c-.9 0-1.38-.72-1.38-1.71v-7.59h2.94v-2.76h-2.94v-3.96h-3.15v3.96h-2.4v2.76h2.4v8.37c0 2.4 1.29 3.72 3.72 3.72zm11.76 0c4.65 0 7.47-3.45 7.47-7.62a7.457 7.457 0 10-7.47 7.62zm0-2.79c-2.67 0-4.17-2.25-4.17-4.83 0-2.55 1.5-4.8 4.17-4.8 2.7 0 4.2 2.25 4.2 4.8 0 2.58-1.5 4.83-4.2 4.83zm10.65 2.43h3.15v-9.87a5 5 0 013.72-1.92 4.643 4.643 0 01.99.09v-3.12a6.188 6.188 0 00-4.71 2.46v-2.13h-3.15zm10.26 2.85l-.48 2.82a8.909 8.909 0 001.77.21 4.851 4.851 0 004.98-3.27l6.99-17.1h-3.39l-4.23 10.86-4.23-10.86h-3.36l5.94 14.67-.72 1.65a1.963 1.963 0 01-2.07 1.26 3.292 3.292 0 01-1.2-.24zm22.05-10.11a7.279 7.279 0 007.5 7.62 6.5 6.5 0 005.55-2.58l-2.07-1.92a3.939 3.939 0 01-3.33 1.71c-2.64 0-4.38-2.01-4.38-4.83s1.74-4.8 4.38-4.8a3.868 3.868 0 013.33 1.71l2.07-1.92a6.5 6.5 0 00-5.55-2.58 7.272 7.272 0 00-7.5 7.59zm22.35 7.62c4.65 0 7.47-3.45 7.47-7.62a7.457 7.457 0 10-7.47 7.62zm0-2.79c-2.67 0-4.17-2.25-4.17-4.83 0-2.55 1.5-4.8 4.17-4.8 2.7 0 4.2 2.25 4.2 4.8 0 2.58-1.5 4.83-4.2 4.83zm20.43 2.43h3.15v-10.2c0-2.97-1.56-4.65-4.68-4.65a6.856 6.856 0 00-5.1 2.34v-1.98h-3.15V656h3.15v-10.11a4.77 4.77 0 013.72-1.95c1.77 0 2.91.75 2.91 3zm11.58.36a4.156 4.156 0 002.97-.93l-.75-2.37a2.034 2.034 0 01-1.41.51c-.9 0-1.38-.72-1.38-1.71v-7.59h2.94v-2.76h-2.94v-3.96h-3.15v3.96h-2.4v2.76h2.4v8.37c0 2.4 1.29 3.72 3.72 3.72zm5.22-.36h3.15v-9.87a5 5 0 013.72-1.92 4.643 4.643 0 01.99.09v-3.12a6.188 6.188 0 00-4.71 2.46v-2.13h-3.15zm16.95.36c4.65 0 7.47-3.45 7.47-7.62a7.457 7.457 0 10-7.47 7.62zm0-2.79c-2.67 0-4.17-2.25-4.17-4.83 0-2.55 1.5-4.8 4.17-4.8 2.7 0 4.2 2.25 4.2 4.8 0 2.58-1.5 4.83-4.2 4.83zm10.65 2.43h3.15v-20.01h-3.15z" data-name="Path 193"/>
    <path fill="#fff" d="M788.13 568h13.71v-3.09h-10.2v-5.55h9.99v-3.09h-9.99v-5.19h10.2v-3.09h-13.71zm26.37 0h3.54l-5.34-7.44 5.01-7.05h-3.54l-3.42 4.92-3.45-4.92h-3.54l5.01 7.05-5.31 7.44h3.51l3.78-5.34zm14.58 0h3.15v-9.6c0-3.9-2.82-5.25-6.03-5.25a8.617 8.617 0 00-6.09 2.34l1.29 2.19a5.933 5.933 0 014.29-1.83c2.01 0 3.39 1.02 3.39 2.7v2.16a5.99 5.99 0 00-4.68-1.86c-2.37 0-5.04 1.38-5.04 4.71a4.813 4.813 0 005.04 4.8 6.117 6.117 0 004.68-1.92zm0-3.3a4.242 4.242 0 01-3.45 1.5c-1.77 0-3.09-1.02-3.09-2.58 0-1.59 1.32-2.61 3.09-2.61a4.242 4.242 0 013.45 1.5zm24.99 3.3h3.15v-10.47c0-2.94-1.5-4.38-4.17-4.38a6.145 6.145 0 00-4.92 2.67 3.775 3.775 0 00-3.96-2.67 6.258 6.258 0 00-4.71 2.34v-1.98h-3.15V568h3.15v-10.11a4.384 4.384 0 013.33-1.95c1.71 0 2.4 1.05 2.4 2.61V568h3.15v-10.14a4.4 4.4 0 013.36-1.92c1.68 0 2.37 1.05 2.37 2.61zm10.38 5.52v-7.53a5.689 5.689 0 004.65 2.37c3.75 0 6.42-2.85 6.42-7.62s-2.67-7.59-6.42-7.59a5.782 5.782 0 00-4.65 2.34v-1.98h-3.15v20.01zm7.8-12.78c0 2.82-1.59 4.83-4.08 4.83a4.788 4.788 0 01-3.72-1.95v-5.73a4.7 4.7 0 013.72-1.95c2.49 0 4.08 2.01 4.08 4.8zm6.45 7.26h3.15v-20.01h-3.15zm6.33-7.26a7.284 7.284 0 007.59 7.62 8.446 8.446 0 005.88-2.1l-1.44-2.07a6.133 6.133 0 01-4.11 1.59 4.389 4.389 0 01-4.62-3.99h11.19v-.75c0-4.56-2.79-7.89-7.14-7.89a7.324 7.324 0 00-7.35 7.59zm7.35-5.01a3.876 3.876 0 014.08 3.84h-8.16a4 4 0 014.08-3.84zm9 10.38a8.813 8.813 0 006.21 2.25c3.9 0 6.03-1.95 6.03-4.5 0-3.42-3.09-4.14-5.61-4.68-1.71-.39-3.15-.78-3.15-1.89 0-1.02 1.05-1.62 2.7-1.62a5.844 5.844 0 014.29 1.74l1.32-2.22a8.284 8.284 0 00-5.64-2.04c-3.66 0-5.7 2.04-5.7 4.41 0 3.24 2.97 3.9 5.46 4.44 1.77.39 3.3.84 3.3 2.1 0 1.08-.96 1.77-2.85 1.77a7.479 7.479 0 01-4.92-2.04zm14.94-10.71a2.1 2.1 0 102.1-2.1 2.126 2.126 0 00-2.1 2.1zm0 10.83a2.1 2.1 0 102.1-2.1 2.126 2.126 0 00-2.1 2.1zm-118.74 46.13a9.157 9.157 0 008.19-4.5l-3-1.53a5.941 5.941 0 01-5.19 2.91c-3.81 0-6.75-3.03-6.75-7.23s2.94-7.23 6.75-7.23a6 6 0 015.19 2.91l3-1.53a9.121 9.121 0 00-8.19-4.5 10.35 10.35 0 000 20.7zm10.92-.36h3.15v-9.87a5 5 0 013.72-1.92 4.643 4.643 0 01.99.09v-3.12a6.188 6.188 0 00-4.71 2.46v-2.13h-3.15zm9.51-7.26a7.284 7.284 0 007.59 7.62 8.446 8.446 0 005.88-2.1l-1.44-2.07a6.133 6.133 0 01-4.11 1.59 4.389 4.389 0 01-4.62-3.99h11.19v-.75c0-4.56-2.79-7.89-7.14-7.89a7.324 7.324 0 00-7.35 7.59zm7.35-5.01a3.876 3.876 0 014.08 3.84h-8.16a4 4 0 014.08-3.84zM844.47 612h3.15v-9.6c0-3.9-2.82-5.25-6.03-5.25a8.617 8.617 0 00-6.09 2.34l1.29 2.19a5.933 5.933 0 014.29-1.83c2.01 0 3.39 1.02 3.39 2.7v2.16a5.99 5.99 0 00-4.68-1.86c-2.37 0-5.04 1.38-5.04 4.71a4.813 4.813 0 005.04 4.8 6.117 6.117 0 004.68-1.92zm0-3.3a4.242 4.242 0 01-3.45 1.5c-1.77 0-3.09-1.02-3.09-2.58 0-1.59 1.32-2.61 3.09-2.61a4.242 4.242 0 013.45 1.5zm11.58 3.66a4.156 4.156 0 002.97-.93l-.75-2.37a2.034 2.034 0 01-1.41.51c-.9 0-1.38-.72-1.38-1.71v-7.59h2.94v-2.76h-2.94v-3.96h-3.15v3.96h-2.4v2.76h2.4v8.37c0 2.4 1.29 3.72 3.72 3.72zm6.78-17.07a1.95 1.95 0 10-1.95-1.95 1.946 1.946 0 001.95 1.95zM861.27 612h3.15v-14.49h-3.15zm11.04 0h3.39l5.91-14.49h-3.39l-4.23 10.86-4.23-10.86h-3.36zm12.84-16.71a1.95 1.95 0 10-1.95-1.95 1.946 1.946 0 001.95 1.95zM883.59 612h3.15v-14.49h-3.15zm11.58.36a4.156 4.156 0 002.97-.93l-.75-2.37a2.034 2.034 0 01-1.41.51c-.9 0-1.38-.72-1.38-1.71v-7.59h2.94v-2.76h-2.94v-3.96h-3.15v3.96h-2.4v2.76h2.4v8.37c0 2.4 1.29 3.72 3.72 3.72zm5.07 2.49l-.48 2.82a8.909 8.909 0 001.77.21 4.851 4.851 0 004.98-3.27l6.99-17.1h-3.39l-4.23 10.86-4.23-10.86h-3.36l5.94 14.67-.72 1.65a1.963 1.963 0 01-2.07 1.26 3.292 3.292 0 01-1.2-.24zm14.67 1.14a6.43 6.43 0 002.82-5.13 2.456 2.456 0 00-2.34-2.73 2.068 2.068 0 00-2.04 2.07 1.791 1.791 0 001.8 1.89 1.958 1.958 0 00.51-.09 5 5 0 01-2.16 2.82zm13.08-11.25a7.279 7.279 0 007.5 7.62 6.5 6.5 0 005.55-2.58l-2.07-1.92a3.939 3.939 0 01-3.33 1.71c-2.64 0-4.38-2.01-4.38-4.83s1.74-4.8 4.38-4.8a3.868 3.868 0 013.33 1.71l2.07-1.92a6.5 6.5 0 00-5.55-2.58 7.272 7.272 0 00-7.5 7.59zm22.35 7.62c4.65 0 7.47-3.45 7.47-7.62a7.456 7.456 0 10-14.91 0 7.261 7.261 0 007.44 7.62zm0-2.79c-2.67 0-4.17-2.25-4.17-4.83 0-2.55 1.5-4.8 4.17-4.8 2.7 0 4.2 2.25 4.2 4.8 0 2.58-1.5 4.83-4.2 4.83zm10.65 2.43h3.15v-20.01h-3.15zm7.23 0h3.15v-20.01h-3.15zm16.08 0h3.15v-9.6c0-3.9-2.82-5.25-6.03-5.25a8.617 8.617 0 00-6.09 2.34l1.29 2.19a5.933 5.933 0 014.29-1.83c2.01 0 3.39 1.02 3.39 2.7v2.16a5.99 5.99 0 00-4.68-1.86c-2.37 0-5.04 1.38-5.04 4.71a4.813 4.813 0 005.04 4.8 6.117 6.117 0 004.68-1.92zm0-3.3a4.242 4.242 0 01-3.45 1.5c-1.77 0-3.09-1.02-3.09-2.58 0-1.59 1.32-2.61 3.09-2.61a4.242 4.242 0 013.45 1.5zm7.23 3.3h3.15v-1.98a5.825 5.825 0 004.65 2.34c3.69 0 6.42-2.82 6.42-7.59 0-4.68-2.7-7.62-6.42-7.62a5.73 5.73 0 00-4.65 2.37v-7.53h-3.15zm3.15-4.35v-5.73a4.728 4.728 0 013.72-1.98c2.52 0 4.11 2.01 4.11 4.83s-1.59 4.8-4.11 4.8a4.676 4.676 0 01-3.72-1.92zm20.82 4.71c4.65 0 7.47-3.45 7.47-7.62a7.456 7.456 0 10-14.91 0 7.261 7.261 0 007.44 7.62zm0-2.79c-2.67 0-4.17-2.25-4.17-4.83 0-2.55 1.5-4.8 4.17-4.8 2.7 0 4.2 2.25 4.2 4.8 0 2.58-1.5 4.83-4.2 4.83zm10.65 2.43h3.15v-9.87a5 5 0 013.72-1.92 4.643 4.643 0 01.99.09v-3.12a6.188 6.188 0 00-4.71 2.46v-2.13h-3.15zm19.26 0h3.15v-9.6c0-3.9-2.82-5.25-6.03-5.25a8.617 8.617 0 00-6.09 2.34l1.29 2.19a5.933 5.933 0 014.29-1.83c2.01 0 3.39 1.02 3.39 2.7v2.16a5.99 5.99 0 00-4.68-1.86c-2.37 0-5.04 1.38-5.04 4.71a4.813 4.813 0 005.04 4.8 6.117 6.117 0 004.68-1.92zm0-3.3a4.242 4.242 0 01-3.45 1.5c-1.77 0-3.09-1.02-3.09-2.58 0-1.59 1.32-2.61 3.09-2.61a4.242 4.242 0 013.45 1.5zm11.58 3.66a4.156 4.156 0 002.97-.93l-.75-2.37a2.034 2.034 0 01-1.41.51c-.9 0-1.38-.72-1.38-1.71v-7.59h2.94v-2.76h-2.94v-3.96h-3.15v3.96h-2.4v2.76h2.4v8.37c0 2.4 1.29 3.72 3.72 3.72zm6.78-17.07a1.95 1.95 0 10-1.95-1.95 1.946 1.946 0 001.95 1.95zm-1.56 16.71h3.15v-14.49h-3.15zm13.77.36c4.65 0 7.47-3.45 7.47-7.62a7.456 7.456 0 10-14.91 0 7.261 7.261 0 007.44 7.62zm0-2.79c-2.67 0-4.17-2.25-4.17-4.83 0-2.55 1.5-4.8 4.17-4.8 2.7 0 4.2 2.25 4.2 4.8 0 2.58-1.5 4.83-4.2 4.83zm20.43 2.43h3.15v-10.2c0-2.97-1.56-4.65-4.68-4.65a6.856 6.856 0 00-5.1 2.34v-1.98h-3.15V612h3.15v-10.11a4.77 4.77 0 013.72-1.95c1.77 0 2.91.75 2.91 3zm8.31 3.99a6.43 6.43 0 002.82-5.13 2.456 2.456 0 00-2.34-2.73 2.068 2.068 0 00-2.04 2.07 1.791 1.791 0 001.8 1.89 1.958 1.958 0 00.51-.09 5 5 0 01-2.16 2.82zM796.89 656h3.15v-9.6c0-3.9-2.82-5.25-6.03-5.25a8.617 8.617 0 00-6.09 2.34l1.29 2.19a5.933 5.933 0 014.29-1.83c2.01 0 3.39 1.02 3.39 2.7v2.16a5.99 5.99 0 00-4.68-1.86c-2.37 0-5.04 1.38-5.04 4.71a4.813 4.813 0 005.04 4.8 6.117 6.117 0 004.68-1.92zm0-3.3a4.242 4.242 0 01-3.45 1.5c-1.77 0-3.09-1.02-3.09-2.58 0-1.59 1.32-2.61 3.09-2.61a4.242 4.242 0 013.45 1.5zm17.01 3.3h3.15v-10.2c0-2.97-1.56-4.65-4.68-4.65a6.856 6.856 0 00-5.1 2.34v-1.98h-3.15V656h3.15v-10.11a4.77 4.77 0 013.72-1.95c1.77 0 2.91.75 2.91 3zm17.43 0h3.15v-20.01h-3.15v7.53a5.813 5.813 0 00-4.65-2.37c-3.75 0-6.45 2.94-6.45 7.62 0 4.77 2.73 7.59 6.45 7.59a5.868 5.868 0 004.65-2.34zm0-4.35a4.735 4.735 0 01-3.75 1.92c-2.49 0-4.08-2.01-4.08-4.8 0-2.82 1.59-4.83 4.08-4.83a4.76 4.76 0 013.75 1.95zm23.79 4.35h3.15v-9.6c0-3.9-2.82-5.25-6.03-5.25a8.617 8.617 0 00-6.09 2.34l1.29 2.19a5.933 5.933 0 014.29-1.83c2.01 0 3.39 1.02 3.39 2.7v2.16a5.99 5.99 0 00-4.68-1.86c-2.37 0-5.04 1.38-5.04 4.71a4.813 4.813 0 005.04 4.8 6.117 6.117 0 004.68-1.92zm0-3.3a4.242 4.242 0 01-3.45 1.5c-1.77 0-3.09-1.02-3.09-2.58 0-1.59 1.32-2.61 3.09-2.61a4.242 4.242 0 013.45 1.5zm17.43 3.3h3.15v-20.01h-3.15v7.53a5.813 5.813 0 00-4.65-2.37c-3.75 0-6.45 2.94-6.45 7.62 0 4.77 2.73 7.59 6.45 7.59a5.868 5.868 0 004.65-2.34zm0-4.35a4.735 4.735 0 01-3.75 1.92c-2.49 0-4.08-2.01-4.08-4.8 0-2.82 1.59-4.83 4.08-4.83a4.76 4.76 0 013.75 1.95zm16.08 4.35h3.15v-9.6c0-3.9-2.82-5.25-6.03-5.25a8.617 8.617 0 00-6.09 2.34l1.29 2.19a5.933 5.933 0 014.29-1.83c2.01 0 3.39 1.02 3.39 2.7v2.16a5.99 5.99 0 00-4.68-1.86c-2.37 0-5.04 1.38-5.04 4.71a4.813 4.813 0 005.04 4.8 6.117 6.117 0 004.68-1.92zm0-3.3a4.242 4.242 0 01-3.45 1.5c-1.77 0-3.09-1.02-3.09-2.58 0-1.59 1.32-2.61 3.09-2.61a4.242 4.242 0 013.45 1.5zm10.38 8.82v-7.53a5.689 5.689 0 004.65 2.37c3.75 0 6.42-2.85 6.42-7.62s-2.67-7.59-6.42-7.59a5.782 5.782 0 00-4.65 2.34v-1.98h-3.15v20.01zm7.8-12.78c0 2.82-1.59 4.83-4.08 4.83a4.788 4.788 0 01-3.72-1.95v-5.73a4.7 4.7 0 013.72-1.95c2.49 0 4.08 2.01 4.08 4.8zm10.8 7.62a4.156 4.156 0 002.97-.93l-.75-2.37a2.034 2.034 0 01-1.41.51c-.9 0-1.38-.72-1.38-1.71v-7.59h2.94v-2.76h-2.94v-3.96h-3.15v3.96h-2.4v2.76h2.4v8.37c0 2.4 1.29 3.72 3.72 3.72zm14.07-.36h3.15v-9.6c0-3.9-2.82-5.25-6.03-5.25a8.617 8.617 0 00-6.09 2.34l1.29 2.19a5.933 5.933 0 014.29-1.83c2.01 0 3.39 1.02 3.39 2.7v2.16a5.99 5.99 0 00-4.68-1.86c-2.37 0-5.04 1.38-5.04 4.71a4.813 4.813 0 005.04 4.8 6.117 6.117 0 004.68-1.92zm0-3.3a4.242 4.242 0 01-3.45 1.5c-1.77 0-3.09-1.02-3.09-2.58 0-1.59 1.32-2.61 3.09-2.61a4.242 4.242 0 013.45 1.5zm7.23 3.3h3.15v-1.98a5.825 5.825 0 004.65 2.34c3.69 0 6.42-2.82 6.42-7.59 0-4.68-2.7-7.62-6.42-7.62a5.73 5.73 0 00-4.65 2.37v-7.53h-3.15zm3.15-4.35v-5.73a4.728 4.728 0 013.72-1.98c2.52 0 4.11 2.01 4.11 4.83s-1.59 4.8-4.11 4.8a4.676 4.676 0 01-3.72-1.92zm15.84-12.36a1.95 1.95 0 10-1.95-1.95 1.946 1.946 0 001.95 1.95zM956.34 656h3.15v-14.49h-3.15zm7.23 0h3.15v-20.01h-3.15zm8.79-16.71a1.95 1.95 0 10-1.95-1.95 1.946 1.946 0 001.95 1.95zM970.8 656h3.15v-14.49h-3.15zm11.58.36a4.156 4.156 0 002.97-.93l-.75-2.37a2.034 2.034 0 01-1.41.51c-.9 0-1.38-.72-1.38-1.71v-7.59h2.94v-2.76h-2.94v-3.96h-3.15v3.96h-2.4v2.76h2.4v8.37c0 2.4 1.29 3.72 3.72 3.72zm5.07 2.49l-.48 2.82a8.909 8.909 0 001.77.21 4.851 4.851 0 004.98-3.27l6.99-17.1h-3.39l-4.23 10.86-4.23-10.86h-3.36l5.94 14.67-.72 1.65a1.963 1.963 0 01-2.07 1.26 3.292 3.292 0 01-1.2-.24z" data-name="Path 198"/>
    <circle cx="77" cy="77" r="77" fill="#fff" data-name="Ellipse 1" transform="translate(563 323)"/>
    <path fill="#740bd3" d="M648.82 371.323l-24.279 57.906h-17.407L587 371.323h19.056l11.324 33.835 14.038-33.835z" data-name="Path 188"/>
    <path fill="#f11e62" d="M655.342 428.939a31.1 31.1 0 01-10.011-4.341l6.209-14.229a33.344 33.344 0 008.267 3.847 29.551 29.551 0 008.874 1.446 12.923 12.923 0 005.282-.783 2.633 2.633 0 001.657-2.359 2.8 2.8 0 00-1.963-2.729 39.308 39.308 0 00-6.717-1.985 69.268 69.268 0 01-10.025-3.022 16.428 16.428 0 01-6.86-5.293q-2.873-3.681-2.642-9.969a18.961 18.961 0 013.131-9.927 19.661 19.661 0 018.542-7.032 32.2 32.2 0 0113.479-2.564 43.8 43.8 0 0110.573 1.28 30.274 30.274 0 019.053 3.766l-5.83 14.144q-7.578-4.3-14.479-4.3-6.824 0-6.956 3.642a2.688 2.688 0 001.929 2.606 38.885 38.885 0 006.613 1.862 62.053 62.053 0 0110.028 2.85 16.77 16.77 0 016.973 5.254q2.915 3.643 2.687 9.927a18.789 18.789 0 01-3.131 9.887 20.081 20.081 0 01-8.542 7.029 31.737 31.737 0 01-13.482 2.609 49.527 49.527 0 01-12.659-1.616z" data-name="Path 189"/>
  </g>
</svg>
