<svg xmlns="http://www.w3.org/2000/svg" viewBox="0 0 1280 800">
  <defs>
    <clipPath id="a">
      <path d="M0 0h1280v800H0z"/>
    </clipPath>
  </defs>
  <g clip-path="url(#a)" data-name="2020-05-06-ppe-training02">
    <path fill="#f9fbff" d="M0 0h1280v800H0z"/>
    <g data-name="Group 112" transform="translate(-842.97 -549.082)">
      <path fill="none" stroke="#3b2ad1" stroke-linecap="round" stroke-linejoin="round" d="M1039.385 1276.831l-121.829-70.338c-3.623-2.093-3.164-5.781 1.021-8.2l118.946-68.674c4.185-2.417 10.574-2.682 14.2-.589l121.829 70.338c3.623 2.093 3.166 5.781-1.019 8.2l-118.948 68.674c-4.185 2.417-10.575 2.682-14.2.589z" data-name="Path 596"/>
      <g data-name="Group 107">
        <path fill="#bde1ff" d="M1390.005 668.141c36.965 21.343 66.84 73.088 66.72 115.563 0 .87-.037 1.734-.059 2.59a48.213 48.213 0 015.562 2.764c22.153 12.791 40.045 43.781 39.972 69.236-.07 24.6-16.9 35.01-38.035 24.126l-148.788-86.444c-24.995-14.3-45.118-49.251-45.037-77.959.083-28.978 20.349-40.809 45.567-26.249a69.108 69.108 0 017.544 5.084c4.338-35.369 32.503-48.371 66.554-28.711z" data-name="Path 597" opacity=".46"/>
      </g>
      <g data-name="Group 108">
        <path fill="#bde1ff" d="M1066.771 717.466c25.4 14.666 45.931 50.223 45.847 79.411 0 .6-.024 1.191-.04 1.78a33.113 33.113 0 013.822 1.9c15.224 8.79 27.518 30.085 27.468 47.576-.048 16.9-11.615 24.058-26.136 16.579l-102.243-59.4c-17.175-9.827-31-33.843-30.947-53.571.057-19.912 13.983-28.041 31.312-18.037a47.291 47.291 0 015.182 3.495c2.983-24.309 22.336-33.242 45.735-19.733z" data-name="Path 598" opacity=".46"/>
      </g>
      <path fill="#fbddd3" d="M999.974 893.164l-8.253 24.979a95.466 95.466 0 002.891 67.537l11.707 27.332 10.992-8.528-7.937-32.183a51.176 51.176 0 011.451-28.916c4.525-13.159 7.519-34.323-10.851-50.221z" data-name="Path 599"/>
      <path fill="#f28420" d="M1027.451 893.727l-4.425 49.609c-1.618 3.966-37.644-6.505-35.855-12.467.316-1.051 7.493-59.409 24.658-71.835 13.942-10.091 20.173 12.333 15.622 34.693z" data-name="Path 600"/>
      <g data-name="Group 110">
        <path fill="#a8c4e5" d="M1345.104 1173.171l84.966-51.031a11.336 11.336 0 00-.165-19.388l-251.945-149.8-33.117 104.744z" data-name="Path 601" opacity=".4" style="mix-blend-mode:multiply;isolation:isolate"/>
        <path fill="#a6b5e0" d="M1332.812 1180.298l-177.087-117.441c-11.075-6.394-20.054-23.548-20.054-38.316V638.029c0-14.768 8.979-21.556 20.055-15.16l184.892 106.747c11.076 6.4 20.055 23.55 20.055 38.318v384.684c0 9.716-3.636 13.768-9.749 17.3z" data-name="Path 602"/>
        <path fill="#ccd9ff" d="M1230.392 817.2s-94.8 221.724-94.8 206.956l-15.573-390.843 23.24-12.272c3.411-1.607 7.712-1.256 12.386 1.443l184.894 106.747c5.408 3.123 10.316 8.811 13.923 15.533z" data-name="Path 603"/>
        <path fill="#e6f0ff" d="M1321.994 1179.043l-184.44-106.749c-11.075-6.394-19.6-23.548-19.6-38.316V647.466c0-14.768 8.744-21.555 19.819-15.16l184.337 106.747c11.076 6.4 19.5 23.55 19.5 38.318v386.512c-.002 14.766-8.541 21.551-19.616 15.16z" data-name="Path 604"/>
        <path fill="#3f5fc2" d="M1318.295 1180.412l-184.438-106.749c-11.076-6.394-19.6-23.55-19.6-38.316V648.841c0-14.768 8.744-21.556 19.82-15.16l184.336 106.747c11.075 6.394 19.5 23.55 19.5 38.318v386.512c-.003 14.761-8.542 21.548-19.618 15.154z" data-name="Path 605"/>
        <path fill="#2c1f9c" d="M1313.181 1114.36l-179.83-103.83a6.042 6.042 0 01-3.021-5.235V678.894a6.044 6.044 0 019.066-5.235l179.831 103.824a6.047 6.047 0 013.021 5.236v326.405a6.044 6.044 0 01-9.067 5.236z" data-name="Path 606"/>
        <path fill="#2c1f9c" d="M1257.525 730.422l-57.028-32.927c-2-1.156-3.638-4.284-3.638-6.951 0-2.669 1.637-3.906 3.638-2.752l57.031 32.929c2 1.156 3.639 4.284 3.639 6.951-.003 2.667-1.64 3.906-3.642 2.75z" data-name="Path 607"/>
      </g>
      <g data-name="Group 111">
        <path fill="#fff" d="M1258.401 876.058c-9.095-14.769-21.3-26.819-34.369-33.926-13.794-7.5-27.11-8.772-37.489-3.574-10.8 5.406-16.741 16.9-16.734 32.351.006 14.031 5 29.866 14.071 44.591 9.095 14.77 21.3 26.818 34.369 33.926 8.21 4.465 16.251 6.723 23.6 6.723a30.739 30.739 0 0013.887-3.149c10.8-5.408 16.741-16.9 16.733-32.351-.004-14.031-5-29.867-14.068-44.591zm-7.815 68.42a26.155 26.155 0 01-11.818 2.68c-6.257 0-13.1-1.921-20.089-5.722-11.122-6.049-21.51-16.3-29.251-28.874-7.717-12.531-11.969-26.009-11.975-37.951-.006-13.151 5.052-22.931 14.242-27.532 8.834-4.425 20.166-3.342 31.906 3.042 11.122 6.048 21.509 16.3 29.25 28.874 7.717 12.531 11.97 26.009 11.975 37.949.009 13.154-5.05 22.932-14.241 27.535z" data-name="Path 609"/>
        <path fill="none" stroke="#fff" stroke-miterlimit="10" stroke-width="1.342" d="M1266.91 872.253c-11.24-18.253-26.324-33.141-42.474-41.925-17.048-9.271-33.5-10.843-46.328-4.417-13.345 6.682-20.69 20.881-20.681 39.978.008 17.34 6.183 36.911 17.388 55.107 11.24 18.253 26.325 33.143 42.474 41.925 10.147 5.519 20.082 8.309 29.169 8.309a38 38 0 0017.161-3.89c13.345-6.683 20.69-20.881 20.679-39.98-.007-17.344-6.183-36.913-17.388-55.107z" data-name="Path 610" opacity=".44"/>
        <path fill="#e24152" d="M1213.567 870.742l27.929 38.049c1.734 2.363 1.334 5.121-.729 5.021l-29.605-1.44c-1.991-.1-4.16-2.807-4.055-5.07l1.675-36.609c.115-2.528 2.913-2.499 4.785.049z" data-name="Path 611"/>
      </g>
      <ellipse cx="55.684" cy="27.663" fill="#a8c4e5" data-name="Ellipse 33" opacity=".4" rx="55.684" ry="27.663" style="mix-blend-mode:multiply;isolation:isolate" transform="rotate(-1.016 67221.987 -55384.83)"/>
      <path fill="#2c1f9c" d="M1007.112 1187.037l13.042-1.635c8.728-3.955 12.807-6.927 16.694-4.682l1.1.637c3.887 2.244 3.4 6.2-1.092 8.792l-19.174 15.233a12.656 12.656 0 01-14.118-1.372s-2.147-1.935-.611-10.086c.874-4.647.569-4.813 4.159-6.887z" data-name="Path 612"/>
      <path fill="#2c1f9c" d="M1064.435 1217.817l12.918 2.432c9.52-1.094 14.312-2.674 17.326.652l.854.942c3.014 3.327 1.335 6.943-3.731 8.036l-22.918 8.636a12.655 12.655 0 01-13.021-5.627s-1.45-2.5 2.505-9.789c2.255-4.155 2.015-4.409 6.067-5.282z" data-name="Path 613"/>
      <path fill="#c6d2f2" d="M1073.431 1220.998c0 6.527-15.878 6.527-15.878 0v-21.21h15.878z" data-name="Path 614"/>
      <path fill="#3b2ad1" d="M1075.437 1207.597c-5.217 7.4-16.576 7.448-19.792 2.1l-27.581-220.748h57.306z" data-name="Path 615"/>
      <path fill="#c6d2f2" d="M1019.387 1189.631c-.362 5.911-16.24 5.911-15.878 0l1.176-19.212h15.878z" data-name="Path 616"/>
      <path fill="#3b2ad1" d="M1022.498 1181.098c-6.343 6.527-18.821 3.741-21.222-.973l8.409-191.367 39.905 5.91z" data-name="Path 617"/>
      <ellipse cx="16.903" cy="29.821" fill="#fbddd3" data-name="Ellipse 34" rx="16.903" ry="29.821" transform="rotate(-7.368 6750.122 -7583.116)"/>
      <path fill="#fbddd3" d="M1078.898 842.295c-3.934 13.714-18.635 18.675-27.278 9.723s-12.461-27.329-8.526-41.04 14.131-17.573 22.773-8.622 16.965 26.226 13.031 39.939z" data-name="Path 618"/>
      <path fill="#fbddd3" d="M1045.64 881.87l-1.47-.327a9.277 9.277 0 01-7.013-11.041l6.243-27.994a9.276 9.276 0 0111.041-7.013l1.47.327a9.278 9.278 0 017.013 11.041l-2.047 27.781c-1.106 4.965-10.274 8.334-15.237 7.226z" data-name="Path 619"/>
      <path fill="#4432db" d="M1028.952 844.358s1.488 12.92 19.844 10.333c13.169-1.856 9.333-23.28 22.5-25.428 14.482-2.361 17.107-20.252 11.4-27.119s-21.656-10.455-33.208-5.36-29.367 4.792-20.536 47.574z" data-name="Path 620"/>
      <path fill="#fbddd3" d="M1071.347 836.703a6.281 6.281 0 11-4.3-7.769 6.281 6.281 0 014.3 7.769z" data-name="Path 621"/>
      <path fill="#fbb040" d="M1008.014 986.268c4.687-25.695-.353-46 .056-73.323 0-49.113-2.356-61.1 23.608-53.627l7.317 1.943a50.447 50.447 0 0110.157 3.922c34.231 17.635 43.367 23.075 41.865 43.533.154 33.7-4.813 71.488-5.519 88.067-7.055 23.302-69.655 6.16-77.484-10.515z" data-name="Path 622"/>
      <path fill="#2c1f9c" d="M1062.212 856.527l-1.489-3.439s2.651 2.653 7.7 2.005a12.1 12.1 0 01-6.211 1.434z" data-name="Path 623"/>
      <path fill="#fbddd3" d="M1063.438 893.572s7.47 34.145 50.07 79.229c11.715 12.4 60.948-33.656 60.948-33.656l-3.788-17.149s-40.76 39.124-51.718 24.305c-12.35-16.709-20.805-68.024-55.512-52.729z" data-name="Path 624"/>
      <path fill="#fbb040" d="M1071.302 918.567l21.141 45.1c2.877 3.172 33.14-19 29.418-23.991-.657-.88-27.379-53.252-47.762-59.049-16.554-4.706-14.729 18.494-2.797 37.94z" data-name="Path 625"/>
      <path fill="#fbddd3" d="M1183.849 933.694l-5.453 4.022a9.492 9.492 0 01-13.235-2 9.491 9.491 0 012-13.234l5.452-4.022a9.492 9.492 0 0113.234 2 9.493 9.493 0 01-1.998 13.234z" data-name="Path 626"/>
      <path fill="#2c1f9c" d="M1088.841 955.98l-11.928-25.446 8.583 50.635z" data-name="Path 627"/>
      <path fill="#3f5fc2" d="M1351.041 833.57c-3 1.184-5.452-.527-5.452-3.8v-19.8a9.4 9.4 0 015.452-8.114c3-1.186 5.451.526 5.451 3.8v19.8a9.4 9.4 0 01-5.451 8.114z" data-name="Path 628"/>
      <path fill="#3f5fc2" d="M1351.041 870.485c-3 1.184-5.452-.527-5.452-3.8v-19.8a9.4 9.4 0 015.452-8.114c3-1.186 5.451.526 5.451 3.8v19.8a9.4 9.4 0 01-5.451 8.114z" data-name="Path 629"/>
    </g>
    <path fill="#e24152" d="M770 313h5.967v-34.017h-8.418l-9.282 22.9-9.231-22.9h-8.415V313h5.967v-25.755L756.992 313h2.55L770 287.245zm24.174.612c7.905 0 12.7-5.865 12.7-12.954 0-7.038-4.794-12.9-12.7-12.9-7.8 0-12.648 5.865-12.648 12.9-.003 7.089 4.842 12.954 12.645 12.954zm0-4.743c-4.539 0-7.089-3.825-7.089-8.211 0-4.335 2.55-8.16 7.089-8.16 4.59 0 7.14 3.825 7.14 8.16-.003 4.386-2.553 8.211-7.143 8.211zM812.276 313h5.355v-3.366a9.9 9.9 0 007.9 3.978c6.273 0 10.914-4.794 10.914-12.9 0-7.956-4.59-12.954-10.914-12.954a9.74 9.74 0 00-7.9 4.029v-12.8h-5.355zm5.355-7.4v-9.736a8.038 8.038 0 016.324-3.364c4.284 0 6.987 3.417 6.987 8.211s-2.7 8.16-6.987 8.16a7.949 7.949 0 01-6.324-3.271zm26.928-21.012a3.315 3.315 0 10-3.315-3.315 3.308 3.308 0 003.315 3.32zM841.907 313h5.355v-24.633h-5.355zm12.293 0h5.355v-34.017H854.2zm10.761-12.342c0 7.8 5.508 12.954 12.9 12.954a14.359 14.359 0 0010-3.57l-2.448-3.519a10.426 10.426 0 01-6.987 2.7 7.461 7.461 0 01-7.854-6.783h19.023v-1.272c0-7.752-4.743-13.413-12.138-13.413-7.296 0-12.498 5.763-12.498 12.903zm12.495-8.517a6.589 6.589 0 016.936 6.528h-13.874a6.8 6.8 0 016.936-6.528zm35.9 30.243v-12.8a9.672 9.672 0 007.9 4.029c6.375 0 10.914-4.845 10.914-12.954s-4.539-12.9-10.914-12.9a9.829 9.829 0 00-7.9 3.978v-3.37H908v34.017zm13.26-21.726c0 4.794-2.7 8.211-6.936 8.211a8.139 8.139 0 01-6.324-3.315v-9.741a7.993 7.993 0 016.324-3.315c4.235.002 6.938 3.417 6.938 8.16zM937.583 313h5.355v-34.017h-5.355zm27.336 0h5.355v-16.32c0-6.63-4.794-8.925-10.251-8.925a14.649 14.649 0 00-10.353 3.978l2.193 3.723a10.086 10.086 0 017.293-3.111c3.417 0 5.763 1.734 5.763 4.59v3.672c-1.785-2.091-4.641-3.162-7.956-3.162-4.029 0-8.568 2.346-8.568 8.007 0 5.457 4.539 8.16 8.568 8.16a10.4 10.4 0 007.956-3.264zm0-5.61a7.211 7.211 0 01-5.865 2.55c-3.009 0-5.253-1.734-5.253-4.386 0-2.7 2.244-4.437 5.253-4.437a7.211 7.211 0 015.865 2.55zm19.681 6.222c2.5 0 4.08-.663 5.049-1.581l-1.27-4.031a3.457 3.457 0 01-2.4.867c-1.53 0-2.346-1.224-2.346-2.907v-12.9h5v-4.693h-5v-6.732h-5.355v6.732H974.2v4.692h4.08v14.229c.001 4.08 2.194 6.324 6.32 6.324zm10.154-.612h5.355v-19.941h5v-4.692h-5v-1.377c0-2.754 1.326-4.131 3.417-4.131a4.292 4.292 0 012.142.51l1.173-3.927a8.87 8.87 0 00-4.284-.969c-4.539 0-7.8 3.009-7.8 8.517v1.377h-4.08v4.692h4.08zm25.551.612c7.9 0 12.7-5.865 12.7-12.954 0-7.038-4.794-12.9-12.7-12.9-7.8 0-12.648 5.865-12.648 12.9 0 7.089 4.843 12.954 12.643 12.954zm0-4.743c-4.539 0-7.089-3.825-7.089-8.211 0-4.335 2.55-8.16 7.089-8.16 4.59 0 7.14 3.825 7.14 8.16 0 4.386-2.55 8.211-7.145 8.211zM1038.41 313h5.355v-16.779a8.506 8.506 0 016.324-3.264 7.894 7.894 0 011.683.153v-5.3a10.52 10.52 0 00-8.007 4.182v-3.625h-5.355zm47.89 0h5.355v-17.8c0-5-2.55-7.446-7.089-7.446a10.447 10.447 0 00-8.364 4.539c-.816-2.7-3.06-4.539-6.732-4.539a10.638 10.638 0 00-8.007 3.978v-3.365h-5.355V313h5.355v-17.187a7.453 7.453 0 015.661-3.315c2.907 0 4.08 1.785 4.08 4.437V313h5.355v-17.238a7.474 7.474 0 015.711-3.262c2.856 0 4.029 1.785 4.029 4.437zm10.149-3.213a14.982 14.982 0 0010.551 3.825c6.63 0 10.251-3.315 10.251-7.65 0-5.814-5.253-7.038-9.537-7.956-2.907-.663-5.355-1.326-5.355-3.213 0-1.734 1.785-2.754 4.59-2.754a9.934 9.934 0 017.298 2.961l2.244-3.774a14.082 14.082 0 00-9.588-3.468c-6.222 0-9.69 3.468-9.69 7.5 0 5.508 5.049 6.63 9.282 7.548 3.009.663 5.61 1.428 5.61 3.57 0 1.836-1.632 3.009-4.845 3.009a12.714 12.714 0 01-8.364-3.468zM770.66 369h5.355v-17.8c0-5-2.55-7.446-7.089-7.446a10.447 10.447 0 00-8.364 4.539c-.816-2.7-3.06-4.539-6.732-4.539a10.638 10.638 0 00-8.007 3.978v-3.365h-5.355V369h5.355v-17.187a7.453 7.453 0 015.661-3.313c2.907 0 4.08 1.785 4.08 4.437V369h5.355v-17.238a7.474 7.474 0 015.712-3.262c2.856 0 4.029 1.785 4.029 4.437zm14.94-28.407a3.315 3.315 0 10-3.315-3.315 3.308 3.308 0 003.315 3.315zM782.951 369h5.355v-24.633h-5.355zm11.985 6.324c3.009 2.754 6.12 3.672 10.3 3.672 6.069 0 12.648-2.4 12.648-11.271v-23.358h-5.353v3.417a9.811 9.811 0 00-7.9-4.029c-6.324 0-10.914 4.692-10.914 12.648 0 8.109 4.641 12.648 10.914 12.648a10 10 0 007.9-4.08v2.958c0 5.049-3.774 6.681-7.293 6.681-3.264 0-5.814-.867-7.8-3.162zm17.6-14.331a7.993 7.993 0 01-6.324 3.315c-4.233 0-6.936-3.162-6.936-7.9s2.7-7.9 6.936-7.9a7.993 7.993 0 016.324 3.315zM841.5 369h5.355v-17.442c0-5.049-2.652-7.8-7.956-7.8a11.774 11.774 0 00-8.721 3.978v-12.753h-5.356V369h5.355v-17.187a8.276 8.276 0 016.323-3.313c3.009 0 5 1.173 5 5zm19.686.612c2.5 0 4.08-.663 5.049-1.581L864.959 364a3.457 3.457 0 01-2.4.867c-1.53 0-2.346-1.224-2.346-2.907v-12.9h5v-4.693h-5v-6.732h-5.355v6.732h-4.08v4.692h4.08v14.229c.003 4.08 2.196 6.324 6.327 6.324zm21.98-.612h5.355v-3.366a9.9 9.9 0 007.9 3.978c6.273 0 10.914-4.794 10.914-12.9 0-7.956-4.59-12.954-10.914-12.954a9.74 9.74 0 00-7.9 4.029v-12.8h-5.355zm5.355-7.4v-9.736a8.038 8.038 0 016.324-3.366c4.284 0 6.987 3.417 6.987 8.211s-2.7 8.16-6.987 8.16a7.949 7.949 0 01-6.324-3.269zm22.746-4.947c0 7.8 5.508 12.954 12.9 12.954a14.359 14.359 0 0010-3.57l-2.448-3.519a10.426 10.426 0 01-6.987 2.7 7.461 7.461 0 01-7.854-6.783H935.9v-1.267c0-7.752-4.743-13.413-12.138-13.413-7.293 0-12.495 5.763-12.495 12.903zm12.495-8.517a6.589 6.589 0 016.936 6.528h-13.872a6.8 6.8 0 016.936-6.523zm37.944 21.471c2.5 0 4.08-.663 5.049-1.581L965.48 364a3.457 3.457 0 01-2.4.867c-1.53 0-2.346-1.224-2.346-2.907v-12.9h5v-4.693h-5v-6.732h-5.355v6.732H951.3v4.692h4.08v14.229c.002 4.08 2.195 6.324 6.326 6.324zm25.551-.607h5.355v-17.442c0-5.049-2.652-7.8-7.956-7.8a11.774 11.774 0 00-8.721 3.978v-12.753h-5.355V369h5.355v-17.187a8.276 8.276 0 016.324-3.315c3.009 0 5 1.173 5 5zm10.761-12.342c0 7.8 5.508 12.954 12.9 12.954a14.359 14.359 0 0010-3.57l-2.448-3.519a10.426 10.426 0 01-6.987 2.7 7.461 7.461 0 01-7.854-6.783h19.023v-1.272c0-7.752-4.743-13.413-12.138-13.413-7.294 0-12.496 5.763-12.496 12.903zm12.5-8.517a6.589 6.589 0 016.936 6.528h-13.877a6.8 6.8 0 016.936-6.528zM1041.062 369h5.355v-3.366a9.9 9.9 0 007.9 3.978c6.273 0 10.914-4.794 10.914-12.9 0-7.956-4.59-12.954-10.914-12.954a9.74 9.74 0 00-7.9 4.029v-12.8h-5.355zm5.355-7.4v-9.736a8.038 8.038 0 016.324-3.366c4.284 0 6.987 3.417 6.987 8.211s-2.7 8.16-6.987 8.16a7.949 7.949 0 01-6.324-3.269zm22.746-4.947c0 7.8 5.508 12.954 12.9 12.954a14.359 14.359 0 0010-3.57l-2.448-3.519a10.426 10.426 0 01-6.987 2.7 7.461 7.461 0 01-7.854-6.783h19.026v-1.267c0-7.752-4.743-13.413-12.138-13.413-7.297 0-12.499 5.763-12.499 12.903zm12.5-8.517a6.589 6.589 0 016.936 6.528h-13.877a6.8 6.8 0 016.936-6.523zm15.3 17.646a14.982 14.982 0 0010.557 3.825c6.63 0 10.251-3.315 10.251-7.65 0-5.814-5.253-7.038-9.537-7.956-2.907-.663-5.355-1.326-5.355-3.213 0-1.734 1.785-2.754 4.59-2.754a9.934 9.934 0 017.288 2.966l2.243-3.777a14.082 14.082 0 00-9.588-3.468c-6.222 0-9.69 3.468-9.69 7.5 0 5.508 5.049 6.63 9.282 7.548 3.009.663 5.61 1.428 5.61 3.57 0 1.836-1.632 3.009-4.845 3.009a12.714 12.714 0 01-8.364-3.468zm33.609 3.825c2.5 0 4.08-.663 5.049-1.581l-1.28-4.026a3.457 3.457 0 01-2.4.867c-1.53 0-2.346-1.224-2.346-2.907v-12.9h5v-4.693h-5v-6.732h-5.355v6.732h-4.08v4.692h4.08v14.229c.003 4.08 2.196 6.324 6.327 6.324zm-391.634 43.051c0 7.5 5.253 12.954 12.75 12.954 4.794 0 7.7-2.04 9.435-4.386l-3.523-3.264a6.7 6.7 0 01-5.661 2.907c-4.488 0-7.446-3.417-7.446-8.211s2.958-8.16 7.446-8.16a6.575 6.575 0 015.661 2.902l3.519-3.264c-1.734-2.346-4.641-4.386-9.435-4.386-7.493.005-12.746 5.462-12.746 12.908zM782.492 425h5.355v-17.442c0-5.049-2.652-7.8-7.956-7.8a11.774 11.774 0 00-8.721 3.978v-12.75h-5.355V425h5.355v-17.187a8.276 8.276 0 016.324-3.315c3.009 0 5 1.173 5 5zm23.409.612c7.9 0 12.7-5.865 12.7-12.954 0-7.038-4.794-12.9-12.7-12.9-7.8 0-12.648 5.865-12.648 12.9 0 7.089 4.847 12.954 12.647 12.954zm0-4.743c-4.539 0-7.089-3.825-7.089-8.211 0-4.335 2.55-8.16 7.089-8.16 4.59 0 7.14 3.825 7.14 8.16 0 4.386-2.55 8.211-7.141 8.211zm20.757-24.276a3.315 3.315 0 10-3.315-3.315 3.308 3.308 0 003.315 3.315zM824.006 425h5.355v-24.633h-5.355zm10.761-12.342c0 7.5 5.253 12.954 12.75 12.954 4.794 0 7.7-2.04 9.435-4.386l-3.519-3.264a6.7 6.7 0 01-5.661 2.907c-4.488 0-7.446-3.417-7.446-8.211s2.958-8.16 7.446-8.16a6.575 6.575 0 015.661 2.907l3.519-3.264c-1.734-2.346-4.641-4.386-9.435-4.386-7.497 0-12.75 5.457-12.75 12.903zm25.347 0c0 7.8 5.508 12.954 12.9 12.954a14.358 14.358 0 0010-3.57l-2.448-3.519a10.426 10.426 0 01-6.987 2.7 7.461 7.461 0 01-7.854-6.783h19.023v-1.275c0-7.752-4.743-13.413-12.138-13.413-7.294.003-12.496 5.766-12.496 12.906zm12.495-8.517a6.589 6.589 0 016.936 6.528h-13.872a6.8 6.8 0 016.936-6.528zM904.433 425h5.355v-19.941h5v-4.692h-5v-1.377c0-2.754 1.326-4.131 3.417-4.131a4.292 4.292 0 012.142.51l1.173-3.927a8.87 8.87 0 00-4.284-.969c-4.539 0-7.8 3.009-7.8 8.517v1.377h-4.08v4.692h4.08zm25.551.612c7.9 0 12.7-5.865 12.7-12.954 0-7.038-4.794-12.9-12.7-12.9-7.8 0-12.648 5.865-12.648 12.9 0 7.089 4.845 12.954 12.648 12.954zm0-4.743c-4.539 0-7.089-3.825-7.089-8.211 0-4.335 2.55-8.16 7.089-8.16 4.59 0 7.14 3.825 7.14 8.16 0 4.386-2.55 8.211-7.14 8.211zm18.1 4.131h5.355v-16.779a8.506 8.506 0 016.324-3.264 7.894 7.894 0 011.683.153v-5.3a10.52 10.52 0 00-8.007 4.182v-3.621h-5.355zm45.849 0h5.355v-16.32c0-6.63-4.794-8.925-10.251-8.925a14.649 14.649 0 00-10.353 3.978l2.193 3.723a10.087 10.087 0 017.293-3.111c3.417 0 5.763 1.734 5.763 4.59v3.672c-1.785-2.091-4.641-3.162-7.956-3.162-4.029 0-8.568 2.346-8.568 8.007 0 5.457 4.539 8.16 8.568 8.16a10.4 10.4 0 007.956-3.264zm0-5.61a7.211 7.211 0 01-5.865 2.55c-3.009 0-5.253-1.734-5.253-4.386 0-2.7 2.244-4.437 5.253-4.437a7.211 7.211 0 015.865 2.55zm11.985 11.934c3.009 2.754 6.12 3.672 10.3 3.672 6.069 0 12.648-2.4 12.648-11.271v-23.358h-5.355v3.417a9.811 9.811 0 00-7.9-4.029c-6.324 0-10.914 4.692-10.914 12.648 0 8.109 4.641 12.648 10.914 12.648a10 10 0 007.9-4.08v2.958c0 5.049-3.774 6.681-7.293 6.681-3.264 0-5.814-.867-7.8-3.162zm17.6-14.331a7.993 7.993 0 01-6.324 3.315c-4.233 0-6.936-3.162-6.936-7.9s2.7-7.9 6.936-7.9a7.993 7.993 0 016.324 3.315zm14.943-20.4a3.315 3.315 0 10-3.315-3.315 3.308 3.308 0 003.315 3.315zM1035.809 425h5.355v-24.633h-5.355zm12.291 0h5.355v-34.017h-5.355zm10.761-12.342c0 7.8 5.508 12.954 12.9 12.954a14.358 14.358 0 0010-3.57l-2.448-3.519a10.426 10.426 0 01-6.987 2.7 7.461 7.461 0 01-7.854-6.783h19.023v-1.275c0-7.752-4.743-13.413-12.138-13.413-7.294.003-12.496 5.766-12.496 12.906zm12.5-8.517a6.589 6.589 0 016.936 6.528h-13.877a6.8 6.8 0 016.936-6.528zM1116.95 425h5.35v-16.32c0-6.63-4.794-8.925-10.251-8.925a14.649 14.649 0 00-10.353 3.978l2.193 3.723a10.087 10.087 0 017.293-3.111c3.417 0 5.763 1.734 5.763 4.59v3.672c-1.785-2.091-4.641-3.162-7.956-3.162-4.029 0-8.568 2.346-8.568 8.007 0 5.457 4.539 8.16 8.568 8.16a10.4 10.4 0 007.956-3.264zm0-5.61a7.211 7.211 0 01-5.865 2.55c-3.009 0-5.253-1.734-5.253-4.386 0-2.7 2.244-4.437 5.253-4.437a7.211 7.211 0 015.865 2.55zm28.917 5.61h5.355v-17.34c0-5.049-2.652-7.9-7.956-7.9a11.655 11.655 0 00-8.67 3.978v-3.366h-5.355V425h5.359v-17.187a8.109 8.109 0 016.324-3.315c3.009 0 4.947 1.275 4.947 5.1zm29.631 0h5.355v-34.017h-5.353v12.8a9.882 9.882 0 00-7.9-4.029c-6.375 0-10.965 5-10.965 12.954 0 8.109 4.641 12.9 10.965 12.9a9.976 9.976 0 007.9-3.978zm0-7.4a8.049 8.049 0 01-6.375 3.264c-4.233 0-6.936-3.417-6.936-8.16 0-4.794 2.7-8.211 6.936-8.211a8.093 8.093 0 016.375 3.315zm-436.56 51.058c0 7.8 5.508 12.954 12.9 12.954a14.358 14.358 0 0010-3.57l-2.448-3.519a10.426 10.426 0 01-6.987 2.7 7.461 7.461 0 01-7.854-6.783h19.022v-1.275c0-7.752-4.743-13.413-12.138-13.413-7.293.003-12.495 5.766-12.495 12.906zm12.5-8.517a6.589 6.589 0 016.936 6.528H744.5a6.8 6.8 0 016.933-6.528zM770.15 481h5.355v-19.941h5v-4.692h-5v-1.377c0-2.754 1.326-4.131 3.417-4.131a4.292 4.292 0 012.142.51l1.173-3.927a8.87 8.87 0 00-4.284-.969c-4.539 0-7.8 3.009-7.8 8.517v1.377h-4.083v4.692h4.08zm15.708 0h5.355v-19.941h5v-4.692h-5v-1.377c0-2.754 1.326-4.131 3.417-4.131a4.292 4.292 0 012.142.51l1.173-3.927a8.87 8.87 0 00-4.284-.969c-4.539 0-7.8 3.009-7.8 8.517v1.377h-4.08v4.692h4.08zm12.9-12.342c0 7.8 5.508 12.954 12.9 12.954a14.358 14.358 0 0010-3.57l-2.448-3.519a10.426 10.426 0 01-6.987 2.7 7.461 7.461 0 01-7.854-6.783h19.025v-1.275c0-7.752-4.743-13.413-12.138-13.413-7.293.003-12.495 5.766-12.495 12.906zm12.495-8.517a6.589 6.589 0 016.936 6.528H804.32a6.8 6.8 0 016.936-6.528zm15.912 8.517c0 7.5 5.253 12.954 12.75 12.954 4.794 0 7.7-2.04 9.435-4.386l-3.519-3.264a6.7 6.7 0 01-5.661 2.907c-4.488 0-7.446-3.417-7.446-8.211s2.958-8.16 7.446-8.16a6.575 6.575 0 015.661 2.907l3.519-3.264c-1.734-2.346-4.641-4.386-9.435-4.386-7.494 0-12.747 5.457-12.747 12.903zm34.272 12.954c2.5 0 4.08-.663 5.049-1.581L865.214 476a3.457 3.457 0 01-2.4.867c-1.53 0-2.346-1.224-2.346-2.907v-12.9h5v-4.692h-5v-6.732h-5.355v6.732h-4.08v4.692h4.08v14.229c.003 4.079 2.196 6.323 6.327 6.323zm11.526-29.019a3.315 3.315 0 10-3.315-3.315 3.308 3.308 0 003.318 3.315zM870.314 481h5.355v-24.633h-5.355zm18.768 0h5.763l10.047-24.633h-5.763l-7.191 18.462-7.191-18.462h-5.712zm17.646-12.342c0 7.8 5.508 12.954 12.9 12.954a14.359 14.359 0 0010-3.57l-2.448-3.519a10.426 10.426 0 01-6.987 2.7 7.461 7.461 0 01-7.854-6.783h19.023v-1.275c0-7.752-4.743-13.413-12.138-13.413-7.294.003-12.496 5.766-12.496 12.906zm12.495-8.517a6.589 6.589 0 016.936 6.528h-13.872a6.8 6.8 0 016.936-6.528zM949.925 481h5.967v-12.7h8.976c7.089 0 11.118-4.9 11.118-10.659s-3.978-10.659-11.118-10.659h-14.943zm19.941-23.358c0 3.264-2.448 5.406-5.814 5.406h-8.16v-10.812h8.16c3.366 0 5.814 2.142 5.814 5.406zM980.933 481h5.967v-12.7h8.976c7.089 0 11.118-4.9 11.118-10.659s-3.978-10.659-11.118-10.659h-14.943zm19.941-23.358c0 3.264-2.448 5.406-5.814 5.406h-8.16v-10.812h8.16c3.366 0 5.814 2.142 5.814 5.406zM1011.941 481h23.307v-5.253h-17.34v-9.435h16.983v-5.253h-16.983v-8.823h17.34v-5.253h-23.307zm49.776.612c2.5 0 4.08-.663 5.049-1.581l-1.275-4.031a3.457 3.457 0 01-2.4.867c-1.53 0-2.346-1.224-2.346-2.907v-12.9h5v-4.692h-5v-6.732h-5.355v6.732h-4.08v4.692h4.08v14.229c.003 4.079 2.196 6.323 6.327 6.323zm8.874-.612h5.355v-16.779a8.506 8.506 0 016.324-3.264 7.893 7.893 0 011.683.153v-5.3a10.52 10.52 0 00-8.007 4.182v-3.621h-5.355zm32.742 0h5.355v-16.32c0-6.63-4.794-8.925-10.251-8.925a14.649 14.649 0 00-10.353 3.978l2.193 3.723a10.087 10.087 0 017.293-3.111c3.417 0 5.763 1.734 5.763 4.59v3.672c-1.785-2.091-4.641-3.162-7.956-3.162-4.029 0-8.568 2.346-8.568 8.007 0 5.457 4.539 8.16 8.568 8.16a10.4 10.4 0 007.956-3.264zm0-5.61a7.211 7.211 0 01-5.865 2.55c-3.009 0-5.253-1.734-5.253-4.386 0-2.7 2.244-4.437 5.253-4.437a7.211 7.211 0 015.865 2.55zm14.943-22.8a3.315 3.315 0 10-3.315-3.315 3.308 3.308 0 003.315 3.318zm-2.652 28.41h5.355v-24.633h-5.355zm28.917 0h5.359v-17.34c0-5.049-2.652-7.9-7.956-7.9a11.655 11.655 0 00-8.67 3.978v-3.366h-5.355V481h5.355v-17.187a8.109 8.109 0 016.324-3.315c3.009 0 4.947 1.275 4.947 5.1zm14.943-28.407a3.315 3.315 0 10-3.315-3.315 3.308 3.308 0 003.315 3.315zM1156.832 481h5.355v-24.633h-5.355zm28.917 0h5.351v-17.34c0-5.049-2.652-7.9-7.956-7.9a11.655 11.655 0 00-8.67 3.978v-3.366h-5.355V481h5.355v-17.187a8.109 8.109 0 016.326-3.313c3.009 0 4.947 1.275 4.947 5.1zm11.985 6.324c3.009 2.754 6.12 3.672 10.3 3.672 6.069 0 12.648-2.4 12.648-11.271v-23.358h-5.355v3.417a9.811 9.811 0 00-7.9-4.029c-6.324 0-10.914 4.692-10.914 12.648 0 8.109 4.641 12.648 10.914 12.648a10 10 0 007.9-4.08v2.958c0 5.049-3.774 6.681-7.293 6.681-3.264 0-5.814-.867-7.8-3.162zm17.6-14.331a7.993 7.993 0 01-6.334 3.315c-4.233 0-6.936-3.162-6.936-7.9s2.7-7.9 6.936-7.9a7.993 7.993 0 016.324 3.315z" data-name="Path 636"/>
    <g fill="#2c1f9c" data-name="Group 52">
      <path d="M548.678 778.422h8.159a1.582 1.582 0 001.587-1.511v-5.589a30.008 30.008 0 01-9.746 7.1z" data-name="Path 137"/>
      <path d="M546.865 759.457c-.076-1.435-1.133-2.342-3.4-2.115-4.457.3-7.857 5.364-8.839 10.577 9.67-.752 12.314-6.645 12.239-8.462z" data-name="Path 138"/>
      <path d="M546.034 754.249c4.608-.3 6.724 1.511 6.875 3.777.378 4.986-7.782 10.874-18.509 11.785h-.151a8.368 8.368 0 00.3 4.155c.755 1.964 2.72 2.72 4.986 2.72 9.972 0 17.3-11.03 18.887-16.016v-8.159a1.533 1.533 0 00-1.585-1.511h-24.326a1.515 1.515 0 00-1.511 1.511v11.181c3.928-4.986 9.972-9.066 15.034-9.443z" data-name="Path 139"/>
      <g>
        <path d="M578.444 769.584a3.98 3.98 0 003.1-1.36l.907.755a5.217 5.217 0 01-4 1.889 4.83 4.83 0 01-4.842-5.061 4.8 4.8 0 014.684-5.062c2.871 0 4.533 2.342 4.533 5.137v.453h-7.782a3.345 3.345 0 003.4 3.249zm2.8-4.382c-.151-1.738-1.209-3.324-3.1-3.324a3.436 3.436 0 00-3.173 3.324z" data-name="Path 140"/>
        <path d="M593.101 770.642v-1.964a4.287 4.287 0 01-3.7 2.191 4.8 4.8 0 01-4.686-5.062 4.8 4.8 0 014.684-5.062 4.286 4.286 0 013.7 2.115v-6.043h1.435v13.825zm-3.475-8.688a3.445 3.445 0 00-3.4 3.777 3.488 3.488 0 003.4 3.777 3.649 3.649 0 003.551-3.777 3.649 3.649 0 00-3.551-3.777z" data-name="Path 141"/>
        <path d="M602.166 773.664a7.588 7.588 0 01-4.457-1.36l.68-1.133a6.612 6.612 0 003.777 1.209 3.236 3.236 0 003.551-3.475v-1.134a4.657 4.657 0 01-3.853 2.115 4.448 4.448 0 01-4.533-4.533 4.511 4.511 0 014.533-4.608 4.732 4.732 0 013.853 1.964v-1.737h1.435v8.008c-.075 3.097-2.04 4.684-4.986 4.684zm-.076-11.71a3.191 3.191 0 00-3.4 3.324 3.275 3.275 0 003.4 3.324 3.423 3.423 0 003.626-3.324 3.468 3.468 0 00-3.625-3.324z" data-name="Path 142"/>
        <path d="M614.631 769.584a3.98 3.98 0 003.1-1.36l.907.755a5.217 5.217 0 01-4 1.889 4.83 4.83 0 01-4.835-5.062 4.8 4.8 0 014.684-5.062c2.871 0 4.533 2.342 4.533 5.137v.453h-7.706a3.236 3.236 0 003.317 3.25zm2.8-4.382c-.151-1.738-1.209-3.324-3.1-3.324a3.436 3.436 0 00-3.173 3.324z" data-name="Path 143"/>
        <path d="M626.643 770.868a4.286 4.286 0 01-3.7-2.115v4.911h-1.437v-12.77h1.435v1.889a4.287 4.287 0 013.7-2.191 4.8 4.8 0 014.684 5.062 4.893 4.893 0 01-4.682 5.214zm-.3-8.915a3.649 3.649 0 00-3.551 3.777 3.558 3.558 0 003.551 3.777 3.445 3.445 0 003.4-3.777 3.4 3.4 0 00-3.402-3.776z" data-name="Path 144"/>
        <path d="M638.429 770.87a5.014 5.014 0 01-5.062-5.062 5.077 5.077 0 015.062-5.137 5.014 5.014 0 015.062 5.062 5.077 5.077 0 01-5.062 5.137zm0-8.915a3.556 3.556 0 00-3.551 3.777 3.681 3.681 0 003.626 3.853 3.616 3.616 0 003.626-3.777 3.791 3.791 0 00-3.7-3.853z" data-name="Path 145"/>
        <path d="M646.135 758.782v-1.587h1.662v1.587zm.151 11.861v-9.748h1.435v9.746z" data-name="Path 146"/>
        <path d="M652.556 770.642h-1.435v-9.745h1.435v1.662a3.632 3.632 0 013.325-1.889 3.531 3.531 0 013.7 3.853v6.047h-1.435v-5.669c0-1.813-.982-2.946-2.72-2.946a2.877 2.877 0 00-2.946 3.022l.076 5.666z" data-name="Path 147"/>
        <path d="M664.645 767.85a1.477 1.477 0 001.662 1.662 3.274 3.274 0 001.435-.3v1.209a3.277 3.277 0 01-1.738.378 2.432 2.432 0 01-2.72-2.72v-5.898h-1.359v-1.36h1.36v-2.871h1.44v2.871h3.1v1.284h-3.1v5.745z" data-name="Path 148"/>
      </g>
      <g>
        <path d="M676.052 770.642v-13.825h1.435v13.825z" data-name="Path 149"/>
        <path d="M685.269 769.584a3.98 3.98 0 003.1-1.36l.907.755a5.217 5.217 0 01-4 1.889 4.83 4.83 0 01-4.835-5.062 4.8 4.8 0 014.684-5.062c2.871 0 4.533 2.342 4.533 5.137v.453h-7.706a3.236 3.236 0 003.324 3.249zm2.8-4.382c-.151-1.738-1.209-3.324-3.1-3.324a3.436 3.436 0 00-3.173 3.324z" data-name="Path 150"/>
        <path d="M692.597 762.785l-.453-1.209a7.463 7.463 0 013.55-.755c2.644 0 4.155 1.36 4.155 3.928v5.972h-1.435v-1.439a4.231 4.231 0 01-3.551 1.662c-1.813 0-3.626-.982-3.626-3.022 0-2.115 1.662-3.173 4.155-3.173a10.75 10.75 0 012.946.378v-.306c0-1.738-1.058-2.644-2.946-2.644a4.838 4.838 0 00-2.8.6zm.227 4.911c0 1.209 1.133 1.964 2.493 1.964 1.813 0 3.249-1.058 3.249-2.644v-.982a9.784 9.784 0 00-2.871-.378c-1.813 0-2.871.831-2.871 2.04z" data-name="Path 151"/>
        <path d="M704.458 770.642h-1.435v-9.746h1.435v2.493a4.154 4.154 0 014-2.72v1.512h-.076c-2.115 0-3.853 1.511-3.853 4.457v4z" data-name="Path 152"/>
        <path d="M712.088 770.642h-1.435v-9.745h1.435v1.662a3.632 3.632 0 013.324-1.889 3.531 3.531 0 013.7 3.853v6.047h-1.435v-5.669c0-1.813-.982-2.946-2.72-2.946a2.877 2.877 0 00-2.946 3.022v5.666z" data-name="Path 153"/>
        <path d="M722.212 758.782v-1.587h1.662v1.587zm.151 11.861v-9.748h1.435v9.746z" data-name="Path 154"/>
        <path d="M728.633 770.642h-1.435v-9.745h1.435v1.662a3.631 3.631 0 013.325-1.889 3.531 3.531 0 013.7 3.853v6.047h-1.435v-5.669c0-1.813-.982-2.946-2.72-2.946a2.877 2.877 0 00-2.946 3.022l.076 5.666z" data-name="Path 155"/>
        <path d="M743.139 773.664a7.589 7.589 0 01-4.457-1.36l.68-1.133a6.611 6.611 0 003.777 1.209 3.236 3.236 0 003.551-3.475v-1.134a4.657 4.657 0 01-3.853 2.115 4.448 4.448 0 01-4.533-4.533 4.511 4.511 0 014.533-4.608 4.624 4.624 0 013.853 1.964v-1.737h1.435v8.008c-.076 3.1-2.04 4.684-4.986 4.684zm-.075-11.71a3.191 3.191 0 00-3.4 3.324 3.275 3.275 0 003.4 3.324 3.423 3.423 0 003.626-3.324 3.468 3.468 0 00-3.626-3.324z" data-name="Path 156"/>
      </g>
    </g>
  </g>
</svg>
