<svg xmlns="http://www.w3.org/2000/svg" viewBox="0 0 1280 800">
  <defs>
    <linearGradient id="b" x2="1" y1=".5" y2=".5" gradientUnits="objectBoundingBox">
      <stop offset=".046" stop-color="#ae4200"/>
      <stop offset=".435" stop-color="#bb4021"/>
      <stop offset="1" stop-color="#4d2415"/>
    </linearGradient>
    <clipPath id="a">
      <path d="M0 0h1280v800H0z"/>
    </clipPath>
  </defs>
  <g clip-path="url(#a)" data-name="2020-05-06-ppe-training01">
    <path fill="#f9fbff" d="M0 0h1280v800H0z"/>
    <g fill="#2c1f9c" data-name="Group 52">
      <path d="M548.678 778.422h8.159a1.582 1.582 0 001.587-1.511v-5.589a30.008 30.008 0 01-9.746 7.1z" data-name="Path 137"/>
      <path d="M546.865 759.457c-.076-1.435-1.133-2.342-3.4-2.115-4.457.3-7.857 5.364-8.839 10.577 9.67-.752 12.314-6.645 12.239-8.462z" data-name="Path 138"/>
      <path d="M546.034 754.249c4.608-.3 6.724 1.511 6.875 3.777.378 4.986-7.782 10.874-18.509 11.785h-.151a8.368 8.368 0 00.3 4.155c.755 1.964 2.72 2.72 4.986 2.72 9.972 0 17.3-11.03 18.887-16.016v-8.159a1.533 1.533 0 00-1.585-1.511h-24.326a1.515 1.515 0 00-1.511 1.511v11.181c3.928-4.986 9.972-9.066 15.034-9.443z" data-name="Path 139"/>
      <g>
        <path d="M578.444 769.584a3.98 3.98 0 003.1-1.36l.907.755a5.217 5.217 0 01-4 1.889 4.83 4.83 0 01-4.842-5.061 4.8 4.8 0 014.684-5.062c2.871 0 4.533 2.342 4.533 5.137v.453h-7.782a3.345 3.345 0 003.4 3.249zm2.8-4.382c-.151-1.738-1.209-3.324-3.1-3.324a3.436 3.436 0 00-3.173 3.324z" data-name="Path 140"/>
        <path d="M593.101 770.642v-1.964a4.287 4.287 0 01-3.7 2.191 4.8 4.8 0 01-4.686-5.062 4.8 4.8 0 014.684-5.062 4.286 4.286 0 013.7 2.115v-6.043h1.435v13.825zm-3.475-8.688a3.445 3.445 0 00-3.4 3.777 3.488 3.488 0 003.4 3.777 3.649 3.649 0 003.551-3.777 3.649 3.649 0 00-3.551-3.777z" data-name="Path 141"/>
        <path d="M602.166 773.664a7.588 7.588 0 01-4.457-1.36l.68-1.133a6.612 6.612 0 003.777 1.209 3.236 3.236 0 003.551-3.475v-1.134a4.657 4.657 0 01-3.853 2.115 4.448 4.448 0 01-4.533-4.533 4.511 4.511 0 014.533-4.608 4.732 4.732 0 013.853 1.964v-1.737h1.435v8.008c-.075 3.097-2.04 4.684-4.986 4.684zm-.076-11.71a3.191 3.191 0 00-3.4 3.324 3.275 3.275 0 003.4 3.324 3.423 3.423 0 003.626-3.324 3.468 3.468 0 00-3.625-3.324z" data-name="Path 142"/>
        <path d="M614.631 769.584a3.98 3.98 0 003.1-1.36l.907.755a5.217 5.217 0 01-4 1.889 4.83 4.83 0 01-4.835-5.062 4.8 4.8 0 014.684-5.062c2.871 0 4.533 2.342 4.533 5.137v.453h-7.706a3.236 3.236 0 003.317 3.25zm2.8-4.382c-.151-1.738-1.209-3.324-3.1-3.324a3.436 3.436 0 00-3.173 3.324z" data-name="Path 143"/>
        <path d="M626.643 770.868a4.286 4.286 0 01-3.7-2.115v4.911h-1.437v-12.77h1.435v1.889a4.287 4.287 0 013.7-2.191 4.8 4.8 0 014.684 5.062 4.893 4.893 0 01-4.682 5.214zm-.3-8.915a3.649 3.649 0 00-3.551 3.777 3.558 3.558 0 003.551 3.777 3.445 3.445 0 003.4-3.777 3.4 3.4 0 00-3.402-3.776z" data-name="Path 144"/>
        <path d="M638.429 770.87a5.014 5.014 0 01-5.062-5.062 5.077 5.077 0 015.062-5.137 5.014 5.014 0 015.062 5.062 5.077 5.077 0 01-5.062 5.137zm0-8.915a3.556 3.556 0 00-3.551 3.777 3.681 3.681 0 003.626 3.853 3.616 3.616 0 003.626-3.777 3.791 3.791 0 00-3.7-3.853z" data-name="Path 145"/>
        <path d="M646.135 758.782v-1.587h1.662v1.587zm.151 11.861v-9.748h1.435v9.746z" data-name="Path 146"/>
        <path d="M652.556 770.642h-1.435v-9.745h1.435v1.662a3.632 3.632 0 013.325-1.889 3.531 3.531 0 013.7 3.853v6.047h-1.435v-5.669c0-1.813-.982-2.946-2.72-2.946a2.877 2.877 0 00-2.946 3.022l.076 5.666z" data-name="Path 147"/>
        <path d="M664.645 767.85a1.477 1.477 0 001.662 1.662 3.274 3.274 0 001.435-.3v1.209a3.277 3.277 0 01-1.738.378 2.432 2.432 0 01-2.72-2.72v-5.898h-1.359v-1.36h1.36v-2.871h1.44v2.871h3.1v1.284h-3.1v5.745z" data-name="Path 148"/>
      </g>
      <g>
        <path d="M676.052 770.642v-13.825h1.435v13.825z" data-name="Path 149"/>
        <path d="M685.269 769.584a3.98 3.98 0 003.1-1.36l.907.755a5.217 5.217 0 01-4 1.889 4.83 4.83 0 01-4.835-5.062 4.8 4.8 0 014.684-5.062c2.871 0 4.533 2.342 4.533 5.137v.453h-7.706a3.236 3.236 0 003.324 3.249zm2.8-4.382c-.151-1.738-1.209-3.324-3.1-3.324a3.436 3.436 0 00-3.173 3.324z" data-name="Path 150"/>
        <path d="M692.597 762.785l-.453-1.209a7.463 7.463 0 013.55-.755c2.644 0 4.155 1.36 4.155 3.928v5.972h-1.435v-1.439a4.231 4.231 0 01-3.551 1.662c-1.813 0-3.626-.982-3.626-3.022 0-2.115 1.662-3.173 4.155-3.173a10.75 10.75 0 012.946.378v-.306c0-1.738-1.058-2.644-2.946-2.644a4.838 4.838 0 00-2.8.6zm.227 4.911c0 1.209 1.133 1.964 2.493 1.964 1.813 0 3.249-1.058 3.249-2.644v-.982a9.784 9.784 0 00-2.871-.378c-1.813 0-2.871.831-2.871 2.04z" data-name="Path 151"/>
        <path d="M704.458 770.642h-1.435v-9.746h1.435v2.493a4.154 4.154 0 014-2.72v1.512h-.076c-2.115 0-3.853 1.511-3.853 4.457v4z" data-name="Path 152"/>
        <path d="M712.088 770.642h-1.435v-9.745h1.435v1.662a3.632 3.632 0 013.324-1.889 3.531 3.531 0 013.7 3.853v6.047h-1.435v-5.669c0-1.813-.982-2.946-2.72-2.946a2.877 2.877 0 00-2.946 3.022v5.666z" data-name="Path 153"/>
        <path d="M722.212 758.782v-1.587h1.662v1.587zm.151 11.861v-9.748h1.435v9.746z" data-name="Path 154"/>
        <path d="M728.633 770.642h-1.435v-9.745h1.435v1.662a3.631 3.631 0 013.325-1.889 3.531 3.531 0 013.7 3.853v6.047h-1.435v-5.669c0-1.813-.982-2.946-2.72-2.946a2.877 2.877 0 00-2.946 3.022l.076 5.666z" data-name="Path 155"/>
        <path d="M743.139 773.664a7.589 7.589 0 01-4.457-1.36l.68-1.133a6.611 6.611 0 003.777 1.209 3.236 3.236 0 003.551-3.475v-1.134a4.657 4.657 0 01-3.853 2.115 4.448 4.448 0 01-4.533-4.533 4.511 4.511 0 014.533-4.608 4.624 4.624 0 013.853 1.964v-1.737h1.435v8.008c-.076 3.1-2.04 4.684-4.986 4.684zm-.075-11.71a3.191 3.191 0 00-3.4 3.324 3.275 3.275 0 003.4 3.324 3.423 3.423 0 003.626-3.324 3.468 3.468 0 00-3.626-3.324z" data-name="Path 156"/>
      </g>
    </g>
    <path fill="#e24152" d="M501.775 71h5.85V42.8h10.1v-5.15h-26.05v5.15h10.1zm16.5 4.75l-.8 4.7a14.848 14.848 0 002.95.35c3.75-.05 6.65-1.35 8.3-5.45l11.65-28.5h-5.65l-7.05 18.1-7.05-18.1h-5.6l9.9 24.45-1.2 2.75a3.271 3.271 0 01-3.45 2.1 5.487 5.487 0 01-2-.4zm30.65 4.45V67.65a9.482 9.482 0 007.75 3.95c6.25 0 10.7-4.75 10.7-12.7s-4.45-12.65-10.7-12.65a9.636 9.636 0 00-7.75 3.9v-3.3h-5.25V80.2zm13-21.3c0 4.7-2.65 8.05-6.8 8.05a7.98 7.98 0 01-6.2-3.25v-9.55a7.837 7.837 0 016.2-3.25c4.15 0 6.8 3.35 6.8 8zm9.25 0c0 7.65 5.4 12.7 12.65 12.7a14.077 14.077 0 009.8-3.5l-2.4-3.45a10.221 10.221 0 01-6.85 2.65 7.315 7.315 0 01-7.7-6.65h18.65V59.4c0-7.6-4.65-13.15-11.9-13.15-7.15 0-12.25 5.65-12.25 12.65zm12.25-8.35a6.459 6.459 0 016.8 6.4h-13.6a6.662 6.662 0 016.8-6.4zm15 17.3a14.688 14.688 0 0010.35 3.75c6.5 0 10.05-3.25 10.05-7.5 0-5.7-5.15-6.9-9.35-7.8-2.85-.65-5.25-1.3-5.25-3.15 0-1.7 1.75-2.7 4.5-2.7a9.739 9.739 0 017.15 2.9l2.2-3.7a13.806 13.806 0 00-9.4-3.4c-6.1 0-9.5 3.4-9.5 7.35 0 5.4 4.95 6.5 9.1 7.4 2.95.65 5.5 1.4 5.5 3.5 0 1.8-1.6 2.95-4.75 2.95a12.465 12.465 0 01-8.2-3.4zm37.2-13.5c0 9.95 7.05 17.25 17.05 17.25s17.05-7.3 17.05-17.25-7.05-17.25-17.05-17.25-17.05 7.3-17.05 17.25zm28.1 0c0 6.85-4.35 12.05-11.05 12.05-6.75 0-11.05-5.2-11.05-12.05 0-6.9 4.3-12.05 11.05-12.05 6.7 0 11.05 5.15 11.05 12.05zM676.475 71h5.25V51.45h4.9v-4.6h-4.9V45.5c0-2.7 1.3-4.05 3.35-4.05a4.208 4.208 0 012.1.5l1.15-3.85a8.7 8.7 0 00-4.2-.95c-4.45 0-7.65 2.95-7.65 8.35v1.35h-4v4.6h4zm27.15 0h5.85V58.55h8.8c6.95 0 10.9-4.8 10.9-10.45s-3.9-10.45-10.9-10.45h-14.65zm19.55-22.9c0 3.2-2.4 5.3-5.7 5.3h-8V42.8h8c3.3 0 5.7 2.1 5.7 5.3zm10.85 22.9h5.85V58.55h8.8c6.95 0 10.9-4.8 10.9-10.45s-3.9-10.45-10.9-10.45h-14.65zm19.55-22.9c0 3.2-2.4 5.3-5.7 5.3h-8V42.8h8c3.3 0 5.7 2.1 5.7 5.3zm10.85 22.9h22.85v-5.15h-17V56.6h16.65v-5.15h-16.65V42.8h17v-5.15h-22.85z" data-name="Path 635"/>
    <g data-name="Group 88">
      <g data-name="Group 86">
        <path fill="#4b1b10" d="M627.102 245.178a18.282 18.282 0 007.722 1.4c4.2-.22 28.765 3.231 38.455-1.85 0 0 2.38 5.568-2.833 8.487s-27.61 10.14-40.133 2.553c0 0-6.342-8.485-3.211-10.59z" data-name="Path 509"/>
        <g data-name="Group 73">
          <g fill="#fbdca3" data-name="Group 53">
            <path d="M652.13 231.417c-.107-.017-.2-.036-.293-.051v-.125s-.105.027-.3.067c-.19-.04-.3-.067-.3-.067v.125a29.072 29.072 0 01-23.663-6.747s2.292 18.133 1.951 22.422-28.143 8.335-32.956 11.947-13.835 9.5-14.317 16.267-3.61 18.282-3.129 25.731c.464 7.175 67.494.527 72.411.03l.165.017c.223-18.022.558-50.571.431-69.616z" data-name="Path 510"/>
            <path d="M723.026 300.983c.482-7.449-2.647-18.96-3.128-25.731s-8.9-13.092-13.719-16.7-33.214-7.223-33.555-11.511 1.951-22.422 1.951-22.422a29.126 29.126 0 01-23.371 6.8c.127 19.045-.208 51.594-.424 69.615 6.01.603 71.788 7.06 72.246-.051z" data-name="Path 511"/>
          </g>
          <g data-name="Group 72">
            <g data-name="Group 60">
              <path d="M619.721 179.621a53.459 53.459 0 00-4.711 28.464l7.962 6.883s.361-16.815 1.805-22.8-5.056-12.547-5.056-12.547z" data-name="Path 512"/>
              <path d="M681.623 179.621a55.735 55.735 0 014.711 28.464l-7.962 6.883s-.364-16.817-1.805-22.796 5.056-12.551 5.056-12.551z" data-name="Path 513"/>
              <g fill="#fbdca3" data-name="Group 55">
                <g data-name="Group 54">
                  <path d="M679.328 197.094c.042-15.127-28.2-17.3-28.669-16.59-.463-.706-28.711 1.464-28.67 16.59 0 .666-2.085 28.185 6.1 35.258s14.041 12.17 22.551 12.637a.093.093 0 01.021 0 .109.109 0 01.023 0c8.508-.467 14.381-5.577 22.55-12.637s6.093-34.596 6.094-35.258z" data-name="Path 514"/>
                  <path d="M650.682 244.994c8.508-.467 14.381-5.577 22.55-12.637s6.1-34.592 6.1-35.258c.042-15.127-28.2-17.3-28.669-16.59v64.486a.109.109 0 01.019-.001z" data-name="Path 515"/>
                </g>
                <path d="M621.753 203.249s-5.359-4.5-6.743-.787-1.209 6.114.709 10.779 3.843 10.09 7.213 9.859l2.407-1.434z" data-name="Path 516"/>
                <path d="M679.944 203.249s5.359-4.5 6.742-.787 1.21 6.114-.709 10.779-3.843 10.09-7.213 9.859l-2.406-1.434z" data-name="Path 517"/>
              </g>
              <path d="M681.332 189.052c-1.579-1.666-5.648-4.382-10.517-6.349-4.188-2.648-10.743-5.256-20.155-5.01-9.412-.246-15.966 2.362-20.155 5.01-4.87 1.967-8.938 4.683-10.518 6.349-2.888 3.047-.321 5.23 0 8.986s0 4.67.482 8.782.482 5.067 1.765 8.7 1.123 4.49 1.457 4.49.949-.451.381-3.16a21.691 21.691 0 01-.226-6.624 4.866 4.866 0 00.057-.5 23.4 23.4 0 01.576-2.964c.017-.065.026-.111.042-.172 1.314-4.946 4.286-12.827 4.53-13.471a27.139 27.139 0 012.488-4.311c3.133-4.5 12.556-5.3 17.535-5.4l.008.028s.593-.03 1.577-.038c.985.008 1.577.038 1.577.038l.008-.028c4.978.1 14.4.9 17.536 5.4a27.152 27.152 0 012.494 4.324c.267.706 3.2 8.5 4.516 13.424.018.071.029.128.049.2a23.384 23.384 0 01.58 2.994c.013.185.032.342.053.466a21.727 21.727 0 01-.224 6.633c-.568 2.709.046 3.16.381 3.16s.173-.856 1.457-4.49 1.283-4.59 1.765-8.7.159-5.026.481-8.782 2.888-5.942 0-8.985z" data-name="Path 518"/>
              <g data-name="Group 59">
                <g data-name="Group 57">
                  <path fill="#ffbf00" d="M662.326 156.96c-4.132-2.032-4.362-1.805-5.74-3.159s-1.837-1.806-5.97-1.806-4.591.452-5.968 1.806-1.608 1.128-5.741 3.159-22.5 14.671-23.188 35.211c0 0 3.9-12.64 34.9-12.415 31-.225 34.9 12.415 34.9 12.415-.692-20.539-19.06-33.179-23.193-35.211z" data-name="Path 519"/>
                </g>
                <g data-name="Group 58">
                  <path fill="#c1631e" d="M650.66 179.828c-3.9-.072-32.588-.066-35.65 14.052v1.56h2.318s1.177-12.742 33.332-13.788c32.154 1.046 33.331 13.788 33.331 13.788h2.318v-1.56c-3.062-14.118-31.747-14.124-35.649-14.052z" data-name="Path 522"/>
                  <path fill="#bc7d44" d="M650.617 179.63c-3.9-.073-32.587-.068-35.65 14.051v.605c3.063-14.118 31.748-14.123 35.65-14.051 3.9-.072 32.588-.066 35.65 14.051v-.605c-3.058-14.119-31.748-14.124-35.65-14.051z" data-name="Path 523"/>
                </g>
              </g>
            </g>
            <path fill="url(#b)" d="M246.087 81.943V81.8c-3.062-14.118-31.747-14.123-35.65-14.051-3.9-.072-32.587-.067-35.65 14.051v.141c-.437.195-3.81 1.749-3.259 3.07.18.4.671.695 1.64.454a9.842 9.842 0 013.487-.608l.43-1.5h.02s.006-.053.023-.15l.29-1.01c1.189-3.163 6.823-11.777 33.019-12.628 26.192.852 31.828 9.463 33.019 12.627l.293 1.021c.016.09.02.14.02.14h.02l.429 1.5a9.836 9.836 0 013.487.608c.97.241 1.46-.05 1.64-.454.555-1.319-2.819-2.872-3.258-3.068z" data-name="Path 524" transform="translate(440.179 112.436)"/>
            <g data-name="Group 67">
              <g data-name="Group 63">
                <g data-name="Group 61">
                  <path fill="#a08677" d="M614.818 194.836l2.731-.1.59 4.293-2.612.244z" data-name="Path 525"/>
                  <path fill="#58595b" d="M614.818 194.839l-.755.715.755 4.29.83-.659z" data-name="Path 526"/>
                  <path fill="#3a190b" d="M614.818 199.845l2.807-.159.514-.649-2.491.149z" data-name="Path 527"/>
                </g>
                <g data-name="Group 62">
                  <path fill="#898481" d="M617.625 199.685s4.607 31.986 23.38 42.932c0 0-20.864-8.342-25.11-42.772z" data-name="Path 528"/>
                  <path fill="#a09f9f" d="M617.625 199.685l-1.731.159a85.92 85.92 0 00.681 4.46l1.821-.539c-.548-2.53-.771-4.08-.771-4.08z" data-name="Path 529"/>
                </g>
              </g>
              <g data-name="Group 66">
                <g data-name="Group 64">
                  <path fill="#a08677" d="M686.689 194.836l-2.73-.1-.592 4.293 2.612.244z" data-name="Path 530"/>
                  <path fill="#58595b" d="M686.689 194.839l.755.715-.755 4.29-.83-.659z" data-name="Path 531"/>
                  <path fill="#3a190b" d="M686.689 199.845l-2.807-.159-.515-.649 2.492.149z" data-name="Path 532"/>
                </g>
                <g data-name="Group 65">
                  <path fill="#898481" d="M683.883 199.685s-4.608 31.986-23.38 42.932c0 0 20.863-8.342 25.109-42.772z" data-name="Path 533"/>
                  <path fill="#a09f9f" d="M683.884 199.685l1.729.159a85.937 85.937 0 01-.68 4.46l-1.821-.539c.547-2.53.772-4.08.772-4.08z" data-name="Path 534"/>
                </g>
              </g>
            </g>
            <g data-name="Group 68">
              <path fill="#a5a2a0" d="M660.862 238.164c-3.77 3.838-8.985 2.4-10.108 2.5-1.124-.1-6.338 1.343-10.108-2.5s-6.706.526-1.846 3.718 11.955 4.052 11.955 4.052 7.1-.861 11.956-4.052 1.922-7.555-1.849-3.718z" data-name="Path 535"/>
            </g>
            <g fill="#e1f9eb" data-name="Group 69">
              <path d="M673.976 220.009s2.322-2.977 0-5.041a23.077 23.077 0 00-11.521-4.746c-4.214-.382-6.363-1.188-8.341-2.963-1.449-1.3-2.162-1.73-3.181-1.869v-.066c-.232 0-.446 0-.645.011-.2-.009-.411-.011-.645-.011v.066c-1.02.139-1.733.571-3.181 1.869-1.978 1.775-4.127 2.581-8.34 2.963a23.084 23.084 0 00-11.522 4.746c-2.321 2.064 0 5.041 0 5.041a44.693 44.693 0 011.978 4.83c1.118 3.145-1.634 6.854-1.032 9.112s6.535 4.919 11.091 8.386c3.414 2.6 8.612 3.339 11.006 3.548v.08s.242-.007.645-.031c.4.025.645.031.645.031v-.08c2.395-.209 7.593-.951 11.006-3.548 4.557-3.467 10.489-6.128 11.092-8.386s-2.15-5.967-1.032-9.112a44.6 44.6 0 011.977-4.83z" data-name="Path 536"/>
              <path d="M662.454 210.222c-4.213-.382-6.363-1.188-8.34-2.963a6.078 6.078 0 00-2.982-1.833c.838 9.421 1.241 26.65-4.859 39.98a32.37 32.37 0 003.37.478v.08s.242-.007.645-.031c.4.025.645.031.645.031v-.08c2.395-.209 7.593-.951 11.006-3.548 4.557-3.467 10.489-6.128 11.091-8.386s-2.149-5.967-1.031-9.112a44.6 44.6 0 011.977-4.83s2.323-2.977 0-5.041a23.08 23.08 0 00-11.522-4.745z" data-name="Path 537"/>
            </g>
            <g data-name="Group 71">
              <g data-name="Group 70">
                <path fill="#c1bcb8" d="M677.725 204.134c-.562-3.687-1.043-6.144-1.043-6.144-9.548-6.521-26.394-4.465-26.394-4.465s-16.846-2.056-26.393 4.465c0 0-.482 2.457-1.043 6.144s-1.524 5.793 4.893 6.244 12.034 4.237 14.681 2.308 3.53-10.207 7.862-10.131c4.333-.075 5.215 8.2 7.862 10.131s8.264-1.856 14.681-2.308 5.456-2.556 4.894-6.244z" data-name="Path 538"/>
                <path fill="#595958" d="M660.086 212.462a2.37 2.37 0 01-1.434-.382c-.863-.629-1.619-2.331-2.35-3.977-1.316-2.96-2.807-6.317-5.956-6.317h-.113c-3.148 0-4.639 3.357-5.955 6.317-.731 1.646-1.487 3.348-2.35 3.977a2.34 2.34 0 01-1.435.382 19.025 19.025 0 01-4.868-1.113 34.65 34.65 0 00-7.815-1.736c-2.293-.162-3.666-.545-4.2-1.173s-.355-1.745-.1-3.274c.05-.3.1-.6.15-.924.441-2.892.836-5.043.98-5.81 5.589-3.668 13.657-4.447 19.484-4.447a55.937 55.937 0 016.058.3l.105.012.105-.012a56.159 56.159 0 016.058-.3c5.828 0 13.9.779 19.485 4.447.144.767.537 2.918.979 5.81.048.32.1.628.15.924.256 1.529.441 2.634-.1 3.274s-1.9 1.011-4.2 1.173a34.642 34.642 0 00-7.814 1.736 19.033 19.033 0 01-4.868 1.113z" data-name="Path 539"/>
              </g>
              <path fill="#595958" d="M658.653 212.08a2.369 2.369 0 001.434.382 19.038 19.038 0 004.869-1.113 34.631 34.631 0 017.814-1.736c2.292-.162 3.666-.545 4.2-1.173s.353-1.745.1-3.274c-.05-.3-.1-.6-.15-.924a177.847 177.847 0 00-.979-5.81 24.676 24.676 0 00-7.538-3.129l-12.068 12.871c.72 1.623 1.467 3.286 2.318 3.906z" data-name="Path 540"/>
            </g>
          </g>
        </g>
        <path fill="#020102" d="M601.851 642.818c-.483 1.805-33.67 31.123-16.836 43.3s30.3-6.766 32.227-12.63 5.292-14.888 10.582-19.848 8.177-10.825 4.81-15.788-25.973 1.806-28.859 4.062-1.924.904-1.924.904z" data-name="Path 541"/>
        <path fill="#020102" d="M675.925 642.818s-2.886 9.019.481 10.826 5.77.9 7.7 7.218 6.25 32.028 27.416 28.419 10.581-16.691 4.809-27.065-5.771-15.79-9.138-20.751-4.33-10.375-8.18-9.923-23.088 11.276-23.088 11.276z" data-name="Path 542"/>
        <path fill="#333" d="M597.042 432.157c-.963 1.353-4.329 14.885-3.368 23.006s0 21.652.961 36.54 1.925 16.689 1.925 32.478.482 23.456.482 29.319-7.215 12.632-5.773 24.358.962 15.341 2.405 27.518 3.848 14.438 3.848 19.4-3.368 4.059 0 9.473 2.886 6.767 2.405 9.022-1.443 7.218 9.138 7.218 21.646 4.511 25.013-6.766 0-10.826.481-15.337 2.4-13.085-.963-19.4-2.885-15.786-1.443-25.259 5.29-12.633 4.329-22.106.962-9.022 1.923-18.493 0-7.219 4.33-18.045 4.809-12.18 6.252-21.652.963-9.473 1.443-16.24 2.405-10.826 3.849-9.924 2.4 11.729 5.29 21.654.963 9.019 6.253 23.907 7.772 15.168 7.7 24.811c-.055 7.043-1.9 2.206-.48 13.982 1.854 15.406 4.809 14.434 2.886 25.714s-4.329 22.1-3.848 32.48-1.444 9.472.48 17.139.482 7.668 1.443 9.923 2.888 6.768 16.837 2.709 16.835-2.256 18.759-2.256 4.326-5.414 1.441-12.631-3.365-2.707-2.886-9.472 4.809-9.928 2.406-16.241-4.812-2.705-1.924-13.984 4.808-9.922 4.328-18.944.48-2.255 1.443-13.535 5.29-8.119 2.406-21.651-2.406-10.826-2.406-25.715 1.444-12.18 0-29.32 0-21.2.482-31.126 2.4-13.53 1.443-18.043-2.406-9.923-2.406-9.923-4.326.453-19.238 2.706-12.026 9.022-31.264 4.963-28.861-.9-38-1.805-28.382-.452-28.382-.452z" data-name="Path 543"/>
        <g data-name="Group 74">
          <path fill="#ed6e06" d="M676.15 246.329l.015-.023a.04.04 0 00-.015.023z" data-name="Path 544"/>
          <path fill="#2c1f9c" d="M754.565 386.822c-.482-3.607-1.443-3.382-1.2-7.217s-.483-3.383-1.925-8.8-.962-3.834-.962-7.894-.722-4.06-2.406-9.923-1.683-8.571-2.884-14.887-9.861-27.066-18.039-54.807-35.834-30.675-43.769-33.608c-6.993-2.583-7.265-3.241-7.231-3.36a50.64 50.64 0 01-7.68 8.774c-5.29 4.96-18.518 4.511-30.542 3.383s-12.747-9.924-12.747-12.18c0-1.269-.914-.824-3.509.569l-.434.2s-2.458 1.164-4.09 2.153a94.628 94.628 0 01-4.955 2.266l-.475.2c-3.652 1.379-8.263 3.047-8.263 3.047l-9.835 4.68a5.678 5.678 0 00-2.518 1.237c-.775.354-.8.532-.8.532-24.531 21.654-27.416 78.04-28.378 84.13s-.241 3.609-2.646 7.217-.721 1.352 0 7.9.482 3.384-.962 6.766-1.684 1.129-.963 4.285.481 2.255-.48 4.961-.242 1.806 1.2 5.414-.723 2.931-1.924 5.637.962 3.836.24 6.543-1.4 6.379-.945 6.936c.66.8 8.4 1.408 10.566 2.311s15.657 2.76 16.379 2.537.49-1.5 2.118-5.4c1.946-4.664.984-2.095 1.945-6.379s0-1.581 2.887-4.737.24-1.579-.723-6.54 0-2.256 2.888-6.091.962-1.352 1.443-5.638-.962-4.736.481-8.345c1.273-3.181 5.559-36.993 5.982-40.68.315 2.967-.229 21.148.264 27.277.587 7.3-1.8 12.7-.921 13.386.268.209.209 2.765 0 6.218a3.51 3.51 0 00-.078 1.237c-.527 7.947-1.683 19.389-1.683 19.389a31.415 31.415 0 001.32 5.091c-1.665 3.256-5.542 12.435-5.125 16.346.483 4.512 2.406 8.572 1.443 12.63s-.961 6.767-1.443 8.121.483 2.707.483 4.509 10.1 3.609 25.974 5.867 19.239 6.313 30.3 5.411 16.833.451 29.821-2.256 12.506-2.255 22.607-4.96 14.91-4.062 14.91-6.315.482-1.354-.961-6.765 1.924-4.513-1.443-9.927-1.445-6.315-2.407-9.471a28.234 28.234 0 00-.5-1.485s-1.428-16.157-1.429-16.857v-1.505c0-2.029-.722-4.511-1.2-9.924a55.285 55.285 0 00-.335-3 27.328 27.328 0 01.335-2.861 3.993 3.993 0 00.095-.58c.025-5.5-1.775-1.4-1.918-9.185-.1-5.324-1.305-6.486-1.794-8.017l.009-.037a16.851 16.851 0 00.179-4.008c.339-2.685-1.919-25.1-2.333-28.326.275.678 6.219 16.417 6.609 17.109 2.165 3.834-2.769 4.85 1.078 7.557s1.824 4.336 1.3 9.8c-.173 1.814-.371 1.534-.1 3.054.516 2.893 2.165 3.609 3.37 7.218s.962 2.029 1.682 5.64 1.2 2.48 2.406 5.187a26.994 26.994 0 003.608 6.09 16.686 16.686 0 012.885 7.893c.483 2.933.241 4.061.962 5.638s3.849 1.58 5.531 1.353 23.089.9 23.089-1.577a19.278 19.278 0 01.481-4.737c.252-1.133-1.433-1.811-1.915-5.42z" data-name="Path 545"/>
        </g>
        <g data-name="Group 76">
          <path fill="#5b5851" d="M645.659 399.273s-20.76-4.086-31.064-9.049-12.447-5.9-14.609-10.217c-.307-.614-.768-1.6-.768-1.6s-1.845 3.794-1.69 5.691 2.459 10.655 2.459 10.655l1.077 5.109s15.225 12.989 45.826 14.3c0 0-.153-10.07-.616-11.238a16.43 16.43 0 01-.615-3.651z" data-name="Path 546"/>
          <g fill="#333" data-name="Group 75">
            <path d="M665.455 398.655s11.161-1.849 15.411-3.027 9.212-1.177 12.933-2.858 6.2-1.346 8.5-1.851 7.618-2.522 7.618-2.522 1.946-.167 1.77 1.346 0 16.142 0 16.142-3.19 3.194-5.848 4.035-11.866 2.859-16.829 3.7-13.64 2.186-17 2.859a47.645 47.645 0 01-6.555.672c-1.24.168-2.3 2.858-5.137 2.692s-3.544-1.178-3.544-1.178l-.885-17.487s3.366 1.85 5.846.841l2.48-1.008z" data-name="Path 547"/>
            <path d="M595.925 379.406s6.022 16.309 30.115 18.831c0 0 9.388.169 12.755 1.513s6.731 2.356 6.731 2.356 4.606 2.688 6.023 0l1.389.027.116 17.654s-4.872 2.83-7.706.139a15.382 15.382 0 00-6.731-2.69c-3.9-.5-34.19-3.194-43.579-18.83v-17.487z" data-name="Path 548"/>
          </g>
          <path fill="#0a0b0c" d="M664.215 397.874h-8.5s-.442-1.347-1.595-1.515l-5.756.253v1.513h-2.657l.087-1.219s-7.883 3.152-7.883 11.307 1.417 16.225 7.086 17.317v-1.26h2.216l.441.925 6.556-.085.8-.924 8.149-.506s4.429-1.008 4.607-7.565.877-16.223-3.551-18.241zM652.7 419.731c-.088 1.681-1.417 1.514-1.417 1.514h-5.578v-17.151c0-2.69 2.746-2.353 2.746-2.353l-.178 1.174h3.185v-.842a1.016 1.016 0 011.239.758s.092 15.218.003 16.9zm10.541.671c-.886.926-2.215-.587-2.215-.587H658.9s0 .925-1.771 1.009-.709-2.27-.709-2.27c1.683-6.474.443-14.375.443-14.375-.355-2.1.353-2.691.353-2.691s6.024.253 6.024 0z" data-name="Path 549"/>
        </g>
        <g data-name="Group 78">
          <path fill="#5b3f21" d="M745.491 443.166s-.528 8.7-1.753 10.181-10.5 12.808-4.9 13.794 6.656-.493 9.629-4.269 3.854-13.3 1.926-15.929a12.281 12.281 0 00-4.902-3.777z" data-name="Path 550"/>
          <g data-name="Group 77">
            <path fill="#fbb040" d="M759.294 425.676c-.522-1.591-.9-2.666-1.2-3.586l-2.318-23.959-.152-4.39s-20.988-.708-28.84.707v2.833s1.4 16.4 4.628 23.707a.252.252 0 00.017.034c.323.974.666 1.953 1.064 2.946 4.2 10.507-9.622 20.54-7.755 27.545s14.941-3.5 17.277-6.567 2.8 3.063 5.137 6.567-6.071 18.83-1.869 21.021 6.07-.878 8.871-4.82 6.536-19.7 7-26.71.006-9.633-1.86-15.328z" data-name="Path 551"/>
            <path fill="#604829" d="M755.776 398.131l-.151-4.39s-20.988-.708-28.841.707v2.833s.054.629.164 1.687c5.808-.828 17.426-2.076 28.864-.447z" data-name="Path 552"/>
          </g>
        </g>
        <g data-name="Group 80">
          <path fill="#5b3f21" d="M565.45 450.021s.528 8.705 1.753 10.181 10.505 12.81 4.9 13.794-6.656-.492-9.629-4.269-3.854-13.3-1.927-15.929a12.293 12.293 0 014.903-3.777z" data-name="Path 553"/>
          <g data-name="Group 79">
            <path fill="#fbb040" d="M551.646 432.531c.522-1.591.9-2.666 1.2-3.586l2.318-23.959.152-4.391s20.988-.707 28.841.709v2.832s-1.4 16.405-4.628 23.708c0 .012-.012.022-.018.033a51.037 51.037 0 01-1.064 2.946c-4.2 10.508 9.622 20.54 7.755 27.545s-14.941-3.505-17.276-6.567-2.8 3.062-5.137 6.567 6.07 18.83 1.868 21.022-6.07-.879-8.87-4.82-6.537-19.707-7-26.711-.006-9.632 1.859-15.328z" data-name="Path 554"/>
            <path fill="#604829" d="M555.165 404.986l.151-4.391s20.988-.707 28.841.709v2.832s-.055.629-.164 1.688c-5.809-.828-17.426-2.077-28.865-.448z" data-name="Path 555"/>
          </g>
        </g>
        <path fill="#192b3a" d="M627.102 245.179s-2.4 12.18 22.85 11.729 23.327-12.18 23.327-12.18a4.224 4.224 0 014.088 1.8c1.443 2.255-5.288 18.721-31.022 15.562-20.2-.676-24.291-9.924-22.849-15.788a2.514 2.514 0 013.606-1.123z" data-name="Path 556"/>
        <g data-name="Group 85">
          <path fill="#f28420" d="M678.455 246.005l9.163 3.4c6.547 2.429 10.475 4.539 13.966 5.278s3.49 2.013 2.4 4.516-9.6 26.582-2.618 44.82 9.6 24.005 9.6 24.005-.218 17.556 0 31.686 4.8 34.987-5.019 39.921-26.839 8.3-39.714 5.159-14.619-14.353-15.056-23.1 0-36.109 0-46.649-.436-17.269 1.527-23.1 8.292-25.138 13.311-37.016 8.289-22.117 12.44-28.92z" data-name="Path 557"/>
          <g fill="#d6cccc" data-name="Group 81">
            <path d="M651.002 366.459c-.008 5.205.02 9.907.115 13.194 23.249 4.471 52.6 1.72 61.091.766-.116-4.414-.543-9.085-.863-13.511-16.707 2.801-50.684.339-60.343-.449z" data-name="Path 558"/>
            <path d="M710.887 343.729c.007-5.956.049-11.1.075-13.763-5.542 1.221-13.681 1.654-22.272 1.672-.118-5.373-.273-17.442.262-31.138.575-14.747 6.168-38.094 8.794-47.024-2.553-.983-5.583-2.366-9.628-3.886-13.744 24.592-14.264 69.327-14.125 81.739a540.636 540.636 0 01-22.823-1.425c.012 1.611.025 3.314.025 5.138 0 2.106-.017 4.892-.043 8.061 23.385 4.631 53.109 1.437 59.735.626z" data-name="Path 559"/>
          </g>
          <path fill="#f28420" d="M623.428 246.005l-8.691 3.4c-6.207 2.429-9.932 4.539-13.244 5.278s-3.311 2.013-2.276 4.516 9.106 26.582 2.483 44.82-9.1 24.005-9.1 24.005.207 17.556 0 31.686-4.553 34.987 4.759 39.921 25.454 8.3 37.662 5.159 13.865-14.353 14.279-23.1 0-36.109 0-46.649.413-17.269-1.449-23.1-7.864-25.138-12.623-37.016-7.868-22.117-11.8-28.92z" data-name="Path 560"/>
          <g fill="#d6cccc" data-name="Group 82">
            <path d="M649.465 366.459c.007 5.205-.02 9.907-.11 13.194-22.048 4.471-49.888 1.72-57.935.766.11-4.414.514-9.085.818-13.511 15.843 2.801 48.066.339 57.227-.449z" data-name="Path 561"/>
            <path d="M592.671 343.729c-.006-5.957-.046-11.1-.07-13.763 5.256 1.221 12.974 1.655 21.122 1.672.111-5.373.259-17.442-.249-31.138-.546-14.747-5.85-38.094-8.341-47.024 2.423-.983 5.3-2.365 9.132-3.886 13.035 24.592 13.527 69.327 13.4 81.739 9.3-.393 17.585-1.064 21.645-1.425-.011 1.611-.024 3.314-.024 5.138 0 2.106.017 4.892.04 8.061-22.181 4.631-50.37 1.437-56.655.626z" data-name="Path 562"/>
          </g>
          <g data-name="Group 83">
            <path fill="#300b0b" d="M711.321 370.762v1.961s.694-.283.682.925l-.012 1.208h2.14l.6-1.556-.786-2.018z" data-name="Path 563"/>
            <path fill="#5b5050" d="M710.962 362.571h1.261l2.5 3.633v7.093l-2.5-1.038-.861-.576z" data-name="Path 564"/>
          </g>
          <g data-name="Group 84">
            <path fill="#300b0b" d="M592.638 370.762v1.961s-.694-.283-.681.925l.012 1.208h-2.141l-.6-1.556.786-2.018z" data-name="Path 565"/>
            <path fill="#5b5050" d="M592.997 362.571h-1.261l-2.5 3.633v7.093l2.5-1.038.862-.576z" data-name="Path 566"/>
          </g>
          <path fill="#300b0b" d="M591.872 370.002c.267-3.668.52-7.132.567-10.3.2-13.957 0-31.487 0-31.663a.777.777 0 01.064-.323c.024-.058 2.556-5.974 9.088-23.965 6.08-16.745-.512-39.509-2.471-44.247-.487-1.181-.963-2.534-.435-3.654.145-.307.7-.3.982-.537.057.083-.226-.057-.172.237.1.53.17.951.334 1.573a6.771 6.771 0 00.54 1.775c.1.245 9.656 25.676 2.5 45.4-5.978 16.464-8.619 22.853-9.056 23.892.02 1.835.192 18.293 0 31.539-.046 3.217-.3 6.7-.571 10.394-.863 11.836-1.843 25.252 4.948 28.849 7.224 3.828 17.773 6.3 26.874 6.3a41.688 41.688 0 0010.33-1.2c11.322-2.912 13.306-12.967 13.754-22.417.292-6.164.171-21.552.074-33.917-.041-5.154-.075-9.607-.075-12.694 0-1.711.011-3.323.021-4.846.053-7.69.088-13.247-1.432-18.012l-.727-2.287c-2.478-7.818-7.633-24.086-11.878-34.676-1.585-3.957-2.963-7.668-4.3-11.255-2.51-6.758-4.69-12.629-7.163-17.06 0 0 .114-.22-.646-.9l.7-.7a.659.659 0 01.812.3c2.656 4.6 4.929 10.716 7.561 17.8 1.33 3.579 2.7 7.28 4.282 11.219 4.266 10.644 9.433 26.948 11.917 34.784l.725 2.284c1.6 5.007 1.561 10.67 1.507 18.508-.01 1.52-.02 3.127-.02 4.834 0 3.081.034 7.53.075 12.681.1 12.385.218 27.8-.076 34.007-.446 9.416-2.531 20.628-14.8 23.783a42.878 42.878 0 01-10.646 1.238c-9.293 0-20.078-2.532-27.475-6.451-7.628-4.036-6.653-17.385-5.712-30.293z" data-name="Path 567"/>
        </g>
      </g>
      <g fill="#300b0b" data-name="Group 87">
        <path d="M703.562 255.348c-.018-.012-.039-.022-.054-.035-.022.032.012.031.054.035z" data-name="Path 568"/>
        <path d="M703.565 255.348a.885.885 0 00.118.065.13.13 0 00-.118-.065z" data-name="Path 569"/>
        <path d="M711.73 370.002c-.282-3.668-.549-7.132-.6-10.3-.215-13.957 0-31.488 0-31.663a.758.758 0 00-.067-.323c-.026-.057-2.7-5.973-9.584-23.964-6.411-16.745.541-39.509 2.6-44.247.515-1.181 1.018-2.534.46-3.654-.128-.255-.553-.294-.863-.437a.206.206 0 01.009.137c-.1.53-.18.951-.352 1.573a6.473 6.473 0 01-.57 1.775c-.107.245-10.181 25.676-2.63 45.4 6.3 16.463 9.088 22.853 9.548 23.892-.02 1.834-.2 18.293 0 31.539.05 3.217.318 6.7.6 10.394.912 11.836 1.944 25.252-5.217 28.849-7.617 3.828-18.741 6.3-28.338 6.3a46.235 46.235 0 01-10.891-1.2c-11.939-2.912-14.031-12.967-14.5-22.417-.307-6.164-.181-21.552-.079-33.917.043-5.154.08-9.607.08-12.694 0-1.712-.011-3.323-.023-4.846-.054-7.69-.094-13.247 1.511-18.012l.766-2.287c2.613-7.818 8.05-24.086 12.524-34.676 1.673-3.957 3.125-7.668 4.53-11.255 2.648-6.758 4.947-12.629 7.553-17.06a3.1 3.1 0 01.615-.766l-1.1-.365-.627.158c-2.719 4.559-5.07 10.556-7.782 17.479-1.4 3.579-2.851 7.28-4.515 11.219-4.5 10.644-9.946 26.948-12.565 34.784l-.766 2.284c-1.685 5.007-1.645 10.67-1.589 18.508.01 1.52.021 3.127.021 4.834 0 3.081-.037 7.53-.079 12.681-.1 12.384-.229 27.8.081 34.007.469 9.416 2.668 20.628 15.61 23.783a47.549 47.549 0 0011.225 1.238c9.8 0 21.172-2.532 28.972-6.451 8.053-4.042 7.025-17.391 6.032-30.3z" data-name="Path 570"/>
      </g>
    </g>
    <g data-name="Group 90" transform="translate(263 106)">
      <ellipse cx="74.663" cy="73.959" fill="#e24152" data-name="Ellipse 25" rx="74.663" ry="73.959"/>
      <g fill="#fff" data-name="Group 89">
        <path d="M116.301 59.761l-1.233-6.1h-3.064A37.554 37.554 0 0079.36 18.036v-.117s-1.925-2.38-3.946-2.952v-.027a3.229 3.229 0 00-1.5 0v.027c-2.02.572-3.946 2.952-3.946 2.952v.117a37.539 37.539 0 00-32.635 35.625h-3.07l-1.234 6.1a2.879 2.879 0 00.481 5.722h1.889c5.79 2.3 21.184 3.941 39.268 3.941s33.479-1.643 39.267-3.941h1.887a2.879 2.879 0 00.48-5.722z" data-name="Path 571"/>
        <path d="M74.663 133.067h-.035c-15.069-.638-25.167-16.414-26.195-18.086-2.461-2.216-5.536-15.118-6.6-19.875a4.075 4.075 0 01-2.087.639c-4.641 0-5.615-9.9-5.615-18.21 0-2.681 1.545-4.218 4.239-4.218a9.293 9.293 0 011.98.234v-5.22l1.056.32c12.358 3.737 20.643 4.521 25.417 4.521 5.212 0 7.5-.908 7.526-.919l.315-.129.317.131c.019.007 2.309.916 7.521.916 4.774 0 13.06-.784 25.418-4.521l1.055-.32v5.22a9.31 9.31 0 011.981-.234c2.694 0 4.239 1.537 4.239 4.218a67.945 67.945 0 01-.743 10.5c-.879 5.19-2.473 7.713-4.871 7.713a4.141 4.141 0 01-2.085-.642c-1.066 4.755-4.141 17.661-6.6 19.878-1.029 1.672-11.125 17.448-26.195 18.086zM42.876 92.233l.287 1.322c1.548 7.147 4.651 18.961 6.388 20.244l.13.1.084.139c.1.168 10.232 16.767 24.9 17.413 14.681-.647 24.8-17.244 24.9-17.413l.083-.139.131-.1c1.737-1.283 4.84-13.1 6.387-20.244l.287-1.322 1.042.875a3.552 3.552 0 002.09 1.018c1.408 0 2.565-2.26 3.261-6.361a66.41 66.41 0 00.72-10.23c0-1.8-.8-2.6-2.6-2.6a8.477 8.477 0 00-2.517.443l-1.1.4v-5.262c-9.629 2.838-17.981 4.276-24.839 4.276a26 26 0 01-7.839-.929 26.039 26.039 0 01-7.84.929c-6.856 0-15.208-1.437-24.838-4.276v5.265l-1.1-.4a8.467 8.467 0 00-2.516-.443c-1.8 0-2.6.8-2.6 2.6 0 10.078 1.562 16.591 3.98 16.591a3.549 3.549 0 002.091-1.018z" data-name="Path 572"/>
      </g>
    </g>
    <g data-name="Group 92" transform="translate(899 217.002)">
      <ellipse cx="74.663" cy="73.959" fill="#e24152" data-name="Ellipse 26" rx="74.663" ry="73.959"/>
      <g fill="#fff" data-name="Group 91">
        <path d="M133.548 76.852c-1.081-4.261-3.91-7.744-8.409-10.352-13.607-7.893-43.282-7.786-50.487-7.635-7.24-.149-36.87-.25-50.465 7.635-4.5 2.608-7.327 6.091-8.409 10.352-1.981 7.8 2.594 15.347 2.789 15.664l.242-.147c3.339 7.472 10.7 13.933 17.426 14.124.471.012.936.02 1.394.02 12.875 0 22.156-5.289 24.828-14.153a11.137 11.137 0 011.235-2.685l.094-.152.027-.177c.578-3.685 5.385-6.572 10.944-6.572s10.366 2.886 10.945 6.572l.028.176.094.153a11.165 11.165 0 011.234 2.685c2.672 8.864 11.953 14.153 24.828 14.153.459 0 .923-.007 1.395-.02 6.693-.19 14.027-6.6 17.386-14.034l.094.057c.197-.317 4.767-7.863 2.787-15.664zm-116.037.421c.963-3.78 3.513-6.89 7.577-9.246 12.244-7.1 39.039-7.492 48.059-7.409v.057c.043 0 .583-.019 1.519-.037.929.018 1.467.035 1.509.037v-.056c9.021-.082 35.812.305 48.06 7.408 4.064 2.357 6.613 5.467 7.576 9.246a14.892 14.892 0 01.414 4.344c-1.049-5.005-5.4-11.98-21.248-13.184-4.544-.345-8.8-.638-12.6-.869a162.415 162.415 0 00-20.985-1.185c-12.706 0-23.308 1.006-23.374 1.013-4.51.252-9.722.6-15.489 1.041-16.688 1.268-20.632 8.938-21.391 13.965a15.347 15.347 0 01.372-5.121zm95.717 27.453c-.454.014-.9.019-1.342.019-12.044 0-20.686-4.819-23.12-12.89a12.674 12.674 0 00-1.334-2.959c-.833-4.511-6.237-7.891-12.677-7.891s-11.844 3.379-12.676 7.891a12.689 12.689 0 00-1.334 2.958c-2.433 8.071-11.076 12.89-23.118 12.89-.44 0-.891-.005-1.343-.019-8.124-.229-17.289-10.651-17.513-19.913-.2-8.436 6.862-13.627 19.9-14.617a802.32 802.32 0 0115.49-1.041c.1-.011 10.64-1.007 23.237-1.007a161.15 161.15 0 0120.82 1.176c3.844.235 8.091.528 12.627.872 13.034.99 20.1 6.181 19.9 14.617-.228 9.265-9.394 19.685-17.517 19.913z" data-name="Path 573"/>
        <path d="M114.373 43.96c-15.169-5.746-39.71 0-39.71 0s-24.541-5.746-39.711 0-23.531 23.573-20.078 32.286c0 0 1.785-21.237 19.633-26.1s29.449-.442 40.157 0c10.708-.442 22.31-4.862 40.157 0s19.633 26.1 19.633 26.1c3.451-8.713-4.91-26.541-20.081-32.286z" data-name="Path 574"/>
      </g>
    </g>
    <g data-name="Group 96" transform="translate(263 328.005)">
      <ellipse cx="74.663" cy="73.959" fill="#e24152" data-name="Ellipse 27" rx="74.663" ry="73.959"/>
      <g fill="#fff" data-name="Group 95">
        <g data-name="Group 93">
          <path d="M52.45 28.51h-6.393v14.594L32.568 58.751v10.2h19.878z" data-name="Path 575"/>
          <path d="M32.572 75.103h40.29v13.009h-40.29z" data-name="Rectangle 42"/>
          <path d="M31.684 90.856h41.178v6.926H31.684z" data-name="Rectangle 43"/>
          <path d="M31.684 99.91h41.178v11.236s-1.6 6.681-10.3 8.262h-29.99v-18.813z" data-name="Path 576"/>
          <path d="M57.066 28.51v40.439h15.8V56.642l-5.144-11.25v-5.276l-5.77-5.712v-5.891z" data-name="Path 577"/>
        </g>
        <g data-name="Group 94">
          <path d="M96.877 28.512h6.389v14.592l13.49 15.647v10.2H96.877z" data-name="Path 578"/>
          <path d="M76.465 75.104h40.291v13.009H76.465z" data-name="Rectangle 44"/>
          <path d="M76.465 90.856h41.177v6.926H76.465z" data-name="Rectangle 45"/>
          <path d="M117.641 99.91H76.465v11.236s1.6 6.681 10.294 8.262h30v-18.813z" data-name="Path 579"/>
          <path d="M92.262 28.512v40.437h-15.8V56.642l5.145-11.25v-5.276l5.77-5.712v-5.891z" data-name="Path 580"/>
        </g>
      </g>
    </g>
    <g data-name="Group 102">
      <path fill="#e24152" d="M1048.325 512.959c0 40.846-33.427 73.958-74.664 73.958S899 553.805 899 512.959 932.427 439 973.661 439s74.664 33.113 74.664 73.959z" data-name="Path 581"/>
      <g data-name="Group 101">
        <g fill="#fff" data-name="Group 97">
          <path d="M1013.389 482.706a3.3 3.3 0 00-3.486 3.07v10.053a18.135 18.135 0 00-2.119-1.425v-15.132a3.377 3.377 0 00-6.754 0v13.073a15.652 15.652 0 00-1.459-.026v-17.593a3.378 3.378 0 00-6.756 0v18.919a17.385 17.385 0 00-1.855.809V483.58a3.352 3.352 0 00-6.7 0v18.765l-2.314-5.3a3.865 3.865 0 00-5.064-1.988 3.8 3.8 0 00-2.007 5.016l5.751 13.173v30.427h36.254v-57.897a3.3 3.3 0 00-3.491-3.07z" data-name="Path 582"/>
          <path d="M980.533 545.263h36.342v9.92h-36.342v-9.92z" data-name="Path 583"/>
        </g>
        <g data-name="Group 100">
          <g data-name="Group 98">
            <path fill="#fff" d="M967.026 544.05H930v-58.275a3.9 3.9 0 017.743 0v9.288a18.94 18.94 0 011.348-.879v-14.912a3.763 3.763 0 017.525 0v12.669c.229-.007.461-.008.689-.01v-17.2a3.763 3.763 0 017.526 0v18.65c.371.143.733.3 1.085.458v-10.26a3.738 3.738 0 017.475 0V500.5l1.575-3.611a4.257 4.257 0 015.571-2.189 4.19 4.19 0 012.208 5.519l-5.719 13.1zm-36.255-.763h35.484v-30.125l5.782-13.244a3.428 3.428 0 00-1.805-4.516 3.482 3.482 0 00-4.559 1.79l-3.053 7v-20.613a2.967 2.967 0 00-5.935 0v11.5l-.561-.286a16.924 16.924 0 00-1.813-.791l-.252-.093v-19.183a2.993 2.993 0 00-5.985 0v17.984l-.4-.01a14.922 14.922 0 00-1.424.024l-.41.026v-13.478a2.992 2.992 0 00-5.984 0v15.35l-.192.11a18.089 18.089 0 00-2.073 1.4l-.624.485v-10.842a3.133 3.133 0 00-6.2 0z" data-name="Path 584"/>
          </g>
          <g data-name="Group 99">
            <path fill="#fff" d="M967.113 555.565H930v-10.684h36.728v.763H930.77v9.157h35.572v-8.522h.771z" data-name="Path 585"/>
          </g>
        </g>
      </g>
    </g>
    <g data-name="Group 106">
      <path fill="#e24152" d="M412.326 623.969c0 40.846-33.427 73.959-74.664 73.959s-74.663-33.113-74.663-73.959 33.427-73.959 74.662-73.959 74.665 33.113 74.665 73.959z" data-name="Path 586"/>
      <g data-name="Group 105">
        <g fill="#fff" data-name="Group 103">
          <path d="M350.464 651.282c-7.1 2.483-16.017 1.846-23.115 2.207s-24.247-4.327-24.247-4.327h-.87v4.743h-.012v3.944h3.068v-2.576a17.817 17.817 0 002.936.724v1.852h3.068v-1.495c.946.069 1.928.114 2.937.133v1.362h3.068v-1.367a99.571 99.571 0 002.936-.113v1.48h3.069v-1.682c1-.078 1.986-.166 2.935-.26v1.942h3.069v-2.27c.187-.023.365-.045.548-.066.9 0 1.7 0 2.388-.006v2.341h3.068v-2.37l9.87.175 14.2-2.794v3.7h1.192v1.3h2.185v-1.3h2.091v1.3h2.185v-1.3h2.09v1.3h2.185v-1.3h2.091v1.3h2.185v-1.3h2.091v1.3h2.184v-1.3h2.091v1.3h2.185v-1.3h.736v-6.67l-29.13.18z" data-name="Path 587"/>
          <path d="M325.528 651.145c17.473.9 19.111-2.885 32.943-3.244s26.392-1.082 26.392-1.082v-13.07s.364-13.613-3.822-17.579l-3.458-3.966v-11.9h2v5.049h1.456v-12.44l-37.857.722v16.923s-8.919 19.855-21.842 24c0 0-15.652-4.508-17.835 7.753a5.409 5.409 0 000 4.147s4.55 3.786 22.023 4.687zm24.177-52.767a1.758 1.758 0 11-1.774 1.758 1.766 1.766 0 011.774-1.758zm0 7.5a1.758 1.758 0 11-1.774 1.758 1.766 1.766 0 011.774-1.758z" data-name="Path 588"/>
        </g>
        <g data-name="Group 104">
          <path fill="none" d="M328.08 602.947a2.2 2.2 0 112.22-2.2 2.214 2.214 0 01-2.22 2.2zm0-7.5a2.2 2.2 0 112.22-2.2 2.212 2.212 0 01-2.22 2.197z" data-name="Path 589"/>
          <path fill="none" d="M328.08 591.93a1.315 1.315 0 101.328 1.315 1.324 1.324 0 00-1.328-1.315z" data-name="Path 590"/>
          <path fill="none" d="M328.08 599.433a1.316 1.316 0 101.328 1.315 1.324 1.324 0 00-1.328-1.315z" data-name="Path 591"/>
          <path fill="#fff" d="M295.665 649.151l-.436.011v1.357h-2.176v-1.353l-.437-.009c-1.021-.018-2-.064-2.912-.133l-.48-.034v1.53h-2.175v-1.783l-.371-.063a17.343 17.343 0 01-2.86-.7l-.6-.213v2.763h-2.177l.007-7.8h.363c.879.239 8.856 2.387 15.99 3.572v-.9c-7.377-1.241-15.7-3.5-15.81-3.536l-1.435-.016-.008 9.571h3.961v-2.408a18.787 18.787 0 002.044.484v1.924h3.961v-1.464c.654.043 1.338.072 2.043.091v1.374h3.961v-1.38c.426-.012.855-.031 1.283-.049v-.891c-.576.017-1.158.042-1.736.055z" data-name="Path 592"/>
          <path fill="#fff" d="M328.08 591.045a2.2 2.2 0 102.22 2.2 2.213 2.213 0 00-2.22-2.2zm0 3.515a1.315 1.315 0 111.328-1.315 1.325 1.325 0 01-1.328 1.315z" data-name="Path 593"/>
          <path fill="#fff" d="M328.08 598.548a2.2 2.2 0 102.22 2.2 2.212 2.212 0 00-2.22-2.2zm0 3.516a1.316 1.316 0 111.328-1.316 1.325 1.325 0 01-1.328 1.316z" data-name="Path 594"/>
          <path fill="#fff" d="M282.253 639.293a5.028 5.028 0 01.027-3.672l.041-.121c1.206-6.775 6.747-8.2 11.182-8.2a24.774 24.774 0 016.09.792l.131.039.131-.043c12.962-4.16 21.743-23.424 22.112-24.243l.038-16.67 36.965-.7v5.225h.893v-6.127l-38.75.738v17.262c-.648 1.4-9.308 19.646-21.4 23.636-1.566-.418-16.067-3.939-18.255 8.082a5.886 5.886 0 00.012 4.439l.043.1.088.075c.163.136 3.672 2.931 15.811 4.275v-.892c-10.759-1.208-14.565-3.581-15.159-3.995z" data-name="Path 595"/>
        </g>
      </g>
    </g>
    <path fill="none" stroke="#e24152" d="M400.366 188.789l250.681-20.35" data-name="Line 1"/>
    <ellipse cx="4.5" cy="5" fill="#e24152" data-name="Ellipse 28" rx="4.5" ry="5" transform="translate(646 163)"/>
    <path fill="none" stroke="#e24152" d="M400.366 407.095l220.155-69.377" data-name="Line 2"/>
    <ellipse cx="5" cy="4.5" fill="#e24152" data-name="Ellipse 29" rx="5" ry="4.5" transform="translate(616 333)"/>
    <path fill="none" stroke="#e24152" d="M400.366 628.174L600.17 669.8" data-name="Line 3"/>
    <circle cx="4.5" cy="4.5" r="4.5" fill="#e24152" data-name="Ellipse 30" transform="translate(596 665)"/>
    <path fill="none" stroke="#e24152" d="M668.622 204.515L905.5 287.5" data-name="Line 4"/>
    <circle cx="4.5" cy="4.5" r="4.5" fill="#e24152" data-name="Ellipse 31" transform="translate(662 199)"/>
    <path fill="none" stroke="#e24152" d="M746.323 428.37l167.429 84.177" data-name="Line 5"/>
    <circle cx="4.5" cy="4.5" r="4.5" fill="#e24152" data-name="Ellipse 32" transform="translate(742 424)"/>
    <path fill="#2c4359" d="M324.289 276h1.989v-11.339h-1.989v4.639h-5.9v-4.641H316.4V276h1.989v-4.947h5.9zm4.4 0h7.769v-1.751h-5.78V271.1h5.661v-1.747h-5.658v-2.941h5.78v-1.751h-7.769zm17.837 0h2.174l-4.452-11.339h-2.482L337.312 276h2.176l.833-2.176h5.372zm-3.519-9.656l2.125 5.729h-4.25zm6.936 9.656h4.216c3.536 0 5.933-2.329 5.933-5.661s-2.4-5.678-5.933-5.678h-4.216zm1.989-1.751v-7.837h2.227a3.674 3.674 0 013.893 3.927 3.724 3.724 0 01-3.893 3.91zM287.076 294h1.989v-4.233h2.992a3.468 3.468 0 003.706-3.553 3.459 3.459 0 00-3.706-3.553h-4.981zm6.647-7.786a1.788 1.788 0 01-1.938 1.8h-2.72v-3.6h2.72a1.788 1.788 0 011.938 1.8zM303.889 294h2.295l-2.771-4.454a3.18 3.18 0 002.687-3.332 3.442 3.442 0 00-3.706-3.553h-4.981V294h1.987v-4.233h1.972zm.17-7.786a1.788 1.788 0 01-1.938 1.8H299.4v-3.6h2.72a1.788 1.788 0 011.939 1.8zm3.519 2.125a5.625 5.625 0 005.8 5.865 5.625 5.625 0 005.8-5.865 5.625 5.625 0 00-5.8-5.865 5.625 5.625 0 00-5.8 5.865zm9.554 0a3.775 3.775 0 01-3.757 4.1c-2.295 0-3.757-1.768-3.757-4.1 0-2.346 1.462-4.1 3.757-4.1 2.278.003 3.757 1.754 3.757 4.1zm6.239 5.661h1.989v-9.588h3.434v-1.751h-8.857v1.751h3.434zm7.106 0h7.77v-1.751h-5.78V289.1h5.661v-1.747h-5.661v-2.941h5.78v-1.751h-7.77zm15.164.2a5.189 5.189 0 004.641-2.55l-1.7-.867a3.366 3.366 0 01-2.941 1.649 3.868 3.868 0 01-3.825-4.1 3.868 3.868 0 013.825-4.1 3.4 3.4 0 012.941 1.649l1.7-.867a5.169 5.169 0 00-4.641-2.55 5.7 5.7 0 00-5.865 5.865 5.7 5.7 0 005.866 5.871zm8.942-.2h1.989v-9.588h3.434v-1.751h-8.856v1.751h3.434zm7.106 0h1.989v-11.339h-1.988zm3.893-5.661a5.625 5.625 0 005.8 5.865 5.625 5.625 0 005.8-5.865 5.625 5.625 0 00-5.8-5.865 5.625 5.625 0 00-5.799 5.865zm9.554 0a3.775 3.775 0 01-3.757 4.1c-2.295 0-3.757-1.768-3.757-4.1 0-2.346 1.462-4.1 3.757-4.1 2.279.003 3.758 1.754 3.758 4.1zM387 294h1.921v-11.339h-1.986v8.039l-5.8-8.041H379.1V294h1.989v-8.262z" data-name="Path 630"/>
    <path fill="#2c4359" d="M916.177 387h7.769v-1.751h-5.78V382.1h5.661v-1.747h-5.661v-2.941h5.78v-1.751h-7.769zm13.023 0h1.989v-4.709l4.386-6.63H933.3l-3.1 4.862-3.128-4.862H924.8l4.4 6.63zm7.616 0h7.769v-1.751H938.8V382.1h5.661v-1.747H938.8v-2.941h5.78v-1.751h-7.769zm22.2 0h2.176l-4.454-11.339h-2.482L949.8 387h2.176l.833-2.176h5.372zm-3.516-9.656l2.125 5.729h-4.25zM970.339 387h1.921v-11.339h-1.989v8.039l-5.8-8.041h-2.04V387h1.989v-8.262zm4.335 0h4.216c3.536 0 5.933-2.329 5.933-5.661s-2.4-5.678-5.933-5.678h-4.216zm1.989-1.751v-7.837h2.227a3.674 3.674 0 013.893 3.927 3.724 3.724 0 01-3.893 3.91zM991.114 387h1.986v-4.9h5.661v-1.747H993.1v-2.941h5.78v-1.751h-7.766zm16.9 0h2.176l-4.456-11.339h-2.482L998.8 387h2.176l.833-2.176h5.372zm-3.521-9.656l2.125 5.729h-4.25zm11.696 9.856a5.189 5.189 0 004.641-2.55l-1.7-.867a3.367 3.367 0 01-2.941 1.649 3.868 3.868 0 01-3.825-4.1 3.868 3.868 0 013.825-4.1 3.4 3.4 0 012.941 1.659l1.7-.867a5.169 5.169 0 00-4.641-2.55 5.7 5.7 0 00-5.865 5.865 5.7 5.7 0 005.865 5.861zm6.239-.2h7.772v-1.751h-5.78V382.1h5.661v-1.747h-5.664v-2.941h5.783v-1.751h-7.772zm-100.352 18h1.989v-4.233h2.992a3.468 3.468 0 003.706-3.553 3.459 3.459 0 00-3.706-3.553h-4.981zm6.647-7.786a1.788 1.788 0 01-1.938 1.8h-2.72v-3.6h2.72a1.788 1.788 0 011.938 1.8zM938.889 405h2.295l-2.771-4.454a3.18 3.18 0 002.687-3.332 3.442 3.442 0 00-3.706-3.553h-4.981V405h1.987v-4.233h1.972zm.17-7.786a1.788 1.788 0 01-1.938 1.8H934.4v-3.6h2.72a1.788 1.788 0 011.939 1.8zm3.519 2.125a5.625 5.625 0 005.8 5.865 5.625 5.625 0 005.8-5.865 5.625 5.625 0 00-5.8-5.865 5.625 5.625 0 00-5.8 5.865zm9.554 0a3.775 3.775 0 01-3.757 4.1c-2.295 0-3.757-1.768-3.757-4.1 0-2.346 1.462-4.1 3.757-4.1 2.278.003 3.757 1.754 3.757 4.1zm6.239 5.661h1.989v-9.588h3.434v-1.751h-8.857v1.751h3.434zm7.106 0h7.77v-1.751h-5.78V400.1h5.661v-1.747h-5.661v-2.941h5.78v-1.751h-7.77zm15.164.2a5.189 5.189 0 004.641-2.55l-1.7-.867a3.366 3.366 0 01-2.941 1.649 3.868 3.868 0 01-3.825-4.1 3.868 3.868 0 013.825-4.1 3.4 3.4 0 012.941 1.649l1.7-.867a5.169 5.169 0 00-4.641-2.55 5.7 5.7 0 00-5.865 5.865 5.7 5.7 0 005.866 5.871zm8.942-.2h1.989v-9.588h3.434v-1.751h-8.856v1.751h3.434zm7.106 0h1.989v-11.339h-1.988zm3.893-5.661a5.625 5.625 0 005.8 5.865 5.625 5.625 0 005.8-5.865 5.625 5.625 0 00-5.8-5.865 5.625 5.625 0 00-5.799 5.865zm9.554 0a3.775 3.775 0 01-3.757 4.1c-2.295 0-3.757-1.768-3.757-4.1 0-2.346 1.462-4.1 3.757-4.1 2.279.003 3.758 1.754 3.758 4.1zM1022 405h1.921v-11.339h-1.986v8.039l-5.8-8.041h-2.035V405h1.989v-8.262z" data-name="Path 634"/>
    <path fill="#2c4359" d="M958.074 609h1.989v-11.339h-1.989v4.639h-5.9v-4.641h-1.989V609h1.989v-4.947h5.9zm12.426 0h2.177l-4.454-11.339h-2.482L961.287 609h2.176l.837-2.176h5.372zm-3.518-9.656l2.125 5.729h-4.25zM981.823 609h1.921v-11.339h-1.989v8.039l-5.8-8.041h-2.037V609h1.989v-8.262zm4.335 0h4.216c3.536 0 5.933-2.329 5.933-5.661s-2.4-5.678-5.933-5.678h-4.216zm1.989-1.751v-7.837h2.227a3.674 3.674 0 013.893 3.927 3.724 3.724 0 01-3.893 3.91zM922.076 627h1.989v-4.233h2.992a3.468 3.468 0 003.706-3.553 3.459 3.459 0 00-3.706-3.553h-4.981zm6.647-7.786a1.788 1.788 0 01-1.938 1.8h-2.72v-3.6h2.72a1.788 1.788 0 011.938 1.8zM938.889 627h2.295l-2.771-4.454a3.18 3.18 0 002.687-3.332 3.442 3.442 0 00-3.706-3.553h-4.981V627h1.987v-4.233h1.972zm.17-7.786a1.788 1.788 0 01-1.938 1.8H934.4v-3.6h2.72a1.788 1.788 0 011.939 1.8zm3.519 2.125a5.625 5.625 0 005.8 5.865 5.625 5.625 0 005.8-5.865 5.625 5.625 0 00-5.8-5.865 5.625 5.625 0 00-5.8 5.865zm9.554 0a3.775 3.775 0 01-3.757 4.1c-2.295 0-3.757-1.768-3.757-4.1 0-2.346 1.462-4.1 3.757-4.1 2.278.003 3.757 1.754 3.757 4.1zm6.239 5.661h1.989v-9.588h3.434v-1.751h-8.857v1.751h3.434zm7.106 0h7.77v-1.751h-5.78V622.1h5.661v-1.747h-5.661v-2.941h5.78v-1.751h-7.77zm15.164.2a5.189 5.189 0 004.641-2.55l-1.7-.867a3.366 3.366 0 01-2.941 1.649 3.868 3.868 0 01-3.825-4.1 3.868 3.868 0 013.825-4.1 3.4 3.4 0 012.941 1.649l1.7-.867a5.169 5.169 0 00-4.641-2.55 5.7 5.7 0 00-5.865 5.865 5.7 5.7 0 005.866 5.871zm8.942-.2h1.989v-9.588h3.434v-1.751h-8.856v1.751h3.434zm7.106 0h1.989v-11.339h-1.988zm3.893-5.661a5.625 5.625 0 005.8 5.865 5.625 5.625 0 005.8-5.865 5.625 5.625 0 00-5.8-5.865 5.625 5.625 0 00-5.799 5.865zm9.554 0a3.775 3.775 0 01-3.757 4.1c-2.295 0-3.757-1.768-3.757-4.1 0-2.346 1.462-4.1 3.757-4.1 2.279.003 3.758 1.754 3.758 4.1zM1022 627h1.921v-11.339h-1.986v8.039l-5.8-8.041h-2.035V627h1.989v-8.262z" data-name="Path 633"/>
    <path fill="#2c4359" d="M302.869 498.2a5.189 5.189 0 004.641-2.55l-1.7-.867a3.366 3.366 0 01-2.941 1.649 3.868 3.868 0 01-3.825-4.1 3.868 3.868 0 013.825-4.1 3.4 3.4 0 012.941 1.659l1.7-.867a5.169 5.169 0 00-4.641-2.55 5.7 5.7 0 00-5.869 5.865 5.7 5.7 0 005.869 5.861zm6.239-.2h6.992v-1.751h-5v-9.588h-1.989zm7.769-5.661a5.625 5.625 0 005.797 5.861 5.625 5.625 0 005.8-5.865 5.625 5.625 0 00-5.8-5.865 5.625 5.625 0 00-5.797 5.869zm9.554 0a3.775 3.775 0 01-3.757 4.1c-2.295 0-3.757-1.768-3.757-4.1 0-2.346 1.462-4.1 3.757-4.1 2.278.003 3.757 1.754 3.757 4.1zM332.67 498h1.989v-9.588h3.434v-1.751h-8.857v1.751h3.434zm14.995 0h1.989v-11.339h-1.989v4.639h-5.9v-4.641h-1.989V498h1.99v-4.947h5.9zm4.4 0h1.989v-11.339h-1.986zm12.31 0h1.925v-11.339h-1.993v8.039l-5.8-8.041h-2.04V498h1.989v-8.262zm3.825-5.661a5.733 5.733 0 005.951 5.882 6.151 6.151 0 004.675-2.057v-4.25h-5.372v1.751h3.383v1.768a4.158 4.158 0 01-2.686 1.02 3.9 3.9 0 01-3.91-4.114 3.884 3.884 0 013.91-4.1 3.61 3.61 0 012.941 1.513l1.632-.918a5.331 5.331 0 00-4.573-2.363 5.719 5.719 0 00-5.951 5.868z" data-name="Path 631"/>
    <path fill="#2c4359" d="M293.094 720h1.989v-4.9h5.661v-1.747h-5.661v-2.941h5.78v-1.751h-7.769zm9.044-5.661a5.625 5.625 0 005.797 5.861 5.625 5.625 0 005.8-5.865 5.625 5.625 0 00-5.8-5.865 5.625 5.625 0 00-5.797 5.869zm9.554 0a3.775 3.775 0 01-3.757 4.1c-2.295 0-3.757-1.768-3.757-4.1 0-2.346 1.462-4.1 3.757-4.1 2.278.003 3.757 1.754 3.757 4.1zm3.451 0a5.625 5.625 0 005.797 5.861 5.625 5.625 0 005.8-5.865 5.625 5.625 0 00-5.8-5.865 5.625 5.625 0 00-5.797 5.869zm9.554 0a3.775 3.775 0 01-3.757 4.1c-2.295 0-3.757-1.768-3.757-4.1 0-2.346 1.462-4.1 3.757-4.1 2.278.003 3.76 1.754 3.76 4.1zm6.239 5.661h1.989v-9.588h3.434v-1.751H327.5v1.751h3.434zm15.776 0h2.125l3.23-11.339h-2.227l-2.193 8.739-2.347-8.739h-1.58l-2.346 8.739-2.21-8.738h-2.227L340.184 720h2.125l2.191-8.364zm6.681 0h7.769v-1.751h-5.78V715.1h5.661v-1.747h-5.661v-2.941h5.78v-1.751h-7.768zm17.834 0h2.173l-4.451-11.339h-2.482L362.013 720h2.176l.833-2.176h5.372zm-3.519-9.656l2.125 5.729h-4.25zM381.121 720h2.295l-2.771-4.454a3.18 3.18 0 002.686-3.332 3.442 3.442 0 00-3.706-3.553h-4.981V720h1.989v-4.233h1.967zm.17-7.786a1.788 1.788 0 01-1.938 1.8h-2.72v-3.6h2.72a1.788 1.788 0 011.938 1.8z" data-name="Path 632"/>
  </g>
</svg>
