<svg xmlns="http://www.w3.org/2000/svg" viewBox="0 0 1280 800">
  <defs>
    <clipPath id="a">
      <path d="M0 0h1280v800H0z"/>
    </clipPath>
    <filter id="b" width="678.95" height="118.65" x="300.525" y="31.65" filterUnits="userSpaceOnUse">
      <feOffset dy="5"/>
      <feGaussianBlur result="blur" stdDeviation="3.5"/>
      <feFlood flood-opacity=".161"/>
      <feComposite in2="blur" operator="in"/>
      <feComposite in="SourceGraphic"/>
    </filter>
  </defs>
  <g clip-path="url(#a)">
    <path fill="#f7fff2" d="M0 0h1280v800H0z"/>
    <g fill="#7fbb65" data-name="Group 52">
      <path d="M529.567 784.457h9.954a1.93 1.93 0 001.935-1.843v-6.821a36.608 36.608 0 01-11.889 8.664z" data-name="Path 137"/>
      <path d="M527.355 761.323c-.092-1.751-1.383-2.857-4.148-2.577-5.437.365-9.583 6.54-10.783 12.9 11.8-.922 15.023-8.111 14.931-10.323z" data-name="Path 138"/>
      <path d="M526.341 754.963c5.622-.369 8.2 1.843 8.387 4.608.461 6.083-9.493 13.272-22.581 14.378h-.184a10.209 10.209 0 00.369 5.069c.922 2.4 3.318 3.318 6.083 3.318 12.166 0 21.106-13.456 23.041-19.539v-9.954a1.871 1.871 0 00-1.935-1.843h-29.678a1.849 1.849 0 00-1.843 1.843v13.641c4.793-6.084 12.166-11.06 18.341-11.521z" data-name="Path 139"/>
      <g>
        <path d="M565.882 773.673a4.855 4.855 0 003.779-1.659l1.106.922a6.365 6.365 0 01-4.885 2.3 5.892 5.892 0 01-5.9-6.175c0-3.41 2.4-6.175 5.714-6.175 3.5 0 5.53 2.857 5.53 6.267v.553h-9.493a4.081 4.081 0 004.149 3.967zm3.41-5.346c-.184-2.12-1.475-4.055-3.779-4.055-2.028 0-3.594 1.751-3.871 4.055z" data-name="Path 140"/>
        <path d="M583.76 774.963v-2.4a5.23 5.23 0 01-4.516 2.673 5.856 5.856 0 01-5.714-6.171 5.856 5.856 0 015.714-6.175 5.228 5.228 0 014.516 2.581v-7.374h1.751v16.866zm-4.24-10.6c-2.3 0-4.147 1.751-4.147 4.608s1.935 4.608 4.147 4.608a4.452 4.452 0 004.332-4.608 4.452 4.452 0 00-4.331-4.607z" data-name="Path 141"/>
        <path d="M594.822 778.65a9.258 9.258 0 01-5.439-1.66l.829-1.382a8.066 8.066 0 004.61 1.476c2.581 0 4.332-1.475 4.332-4.24v-1.383a5.681 5.681 0 01-4.7 2.581 5.427 5.427 0 01-5.53-5.53 5.5 5.5 0 015.528-5.622 5.773 5.773 0 014.7 2.4v-2.12h1.751v9.77c-.092 3.775-2.488 5.71-6.081 5.71zm-.092-14.286a3.892 3.892 0 00-4.147 4.055 4 4 0 004.147 4.055 4.176 4.176 0 004.422-4.054 4.23 4.23 0 00-4.424-4.055z" data-name="Path 142"/>
        <path d="M610.029 773.673a4.855 4.855 0 003.779-1.659l1.106.922a6.365 6.365 0 01-4.885 2.3 5.892 5.892 0 01-5.9-6.175c0-3.41 2.4-6.175 5.714-6.175 3.5 0 5.53 2.857 5.53 6.267v.553h-9.4a3.948 3.948 0 004.056 3.967zm3.41-5.346c-.184-2.12-1.475-4.055-3.779-4.055-2.028 0-3.594 1.751-3.871 4.055z" data-name="Path 143"/>
        <path d="M624.682 775.24a5.228 5.228 0 01-4.516-2.581v5.991h-1.751v-15.576h1.751v2.3a5.23 5.23 0 014.516-2.673 5.856 5.856 0 015.714 6.175c.001 3.967-2.857 6.364-5.714 6.364zm-.367-10.876a4.452 4.452 0 00-4.332 4.608 4.34 4.34 0 004.332 4.608c2.3 0 4.147-1.751 4.147-4.608a4.153 4.153 0 00-4.147-4.608z" data-name="Path 144"/>
        <path d="M639.06 775.239a6.116 6.116 0 01-6.175-6.175 6.194 6.194 0 016.175-6.267 6.116 6.116 0 016.175 6.175 6.194 6.194 0 01-6.175 6.267zm0-10.876a4.339 4.339 0 00-4.332 4.608 4.491 4.491 0 004.424 4.7 4.412 4.412 0 004.424-4.608 4.625 4.625 0 00-4.516-4.7z" data-name="Path 145"/>
        <path d="M648.461 760.493v-1.935h2.028v1.935zm.184 14.47v-11.889h1.751v11.889z" data-name="Path 146"/>
        <path d="M656.295 774.963h-1.751v-11.89h1.751v2.024a4.43 4.43 0 014.055-2.3c2.857 0 4.516 1.935 4.516 4.7v7.373h-1.751v-6.912c0-2.212-1.2-3.594-3.318-3.594a3.51 3.51 0 00-3.594 3.687l.092 6.912z" data-name="Path 147"/>
        <path d="M671.042 771.553a1.8 1.8 0 002.028 2.028 3.994 3.994 0 001.751-.369v1.475a4 4 0 01-2.12.461c-1.935 0-3.318-.922-3.318-3.318v-7.19h-1.659v-1.661h1.659v-3.5h1.751v3.5h3.779v1.567h-3.779v7z" data-name="Path 148"/>
      </g>
      <g>
        <path d="M684.958 774.963v-16.866h1.751v16.866z" data-name="Path 149"/>
        <path d="M696.204 773.673a4.855 4.855 0 003.779-1.659l1.106.922a6.365 6.365 0 01-4.885 2.3 5.892 5.892 0 01-5.9-6.175c0-3.41 2.4-6.175 5.714-6.175 3.5 0 5.53 2.857 5.53 6.267v.553h-9.4a3.948 3.948 0 004.055 3.963zm3.41-5.346c-.184-2.12-1.475-4.055-3.779-4.055-2.028 0-3.594 1.751-3.871 4.055z" data-name="Path 150"/>
        <path d="M705.142 765.382l-.553-1.475a9.105 9.105 0 014.332-.925c3.226 0 5.069 1.659 5.069 4.793v7.281h-1.751v-1.751a5.161 5.161 0 01-4.332 2.028c-2.212 0-4.424-1.2-4.424-3.687 0-2.581 2.028-3.871 5.069-3.871a13.114 13.114 0 013.594.461v-.369c0-2.12-1.29-3.226-3.594-3.226a5.9 5.9 0 00-3.41.737zm.276 5.991c0 1.475 1.382 2.4 3.041 2.4 2.212 0 3.963-1.29 3.963-3.226v-1.2a11.937 11.937 0 00-3.5-.461c-2.212 0-3.5 1.014-3.5 2.488z" data-name="Path 151"/>
        <path d="M719.612 774.963h-1.751v-11.889h1.751v3.041a5.068 5.068 0 014.885-3.318v1.843h-.092c-2.581 0-4.7 1.843-4.7 5.438v4.885z" data-name="Path 152"/>
        <path d="M728.921 774.963h-1.751v-11.89h1.751v2.024a4.43 4.43 0 014.055-2.3c2.857 0 4.516 1.935 4.516 4.7v7.373h-1.751v-6.912c0-2.212-1.2-3.594-3.318-3.594a3.51 3.51 0 00-3.594 3.687v6.912z" data-name="Path 153"/>
        <path d="M741.271 760.493v-1.935h2.028v1.935zm.184 14.47v-11.889h1.751v11.889z" data-name="Path 154"/>
        <path d="M749.105 774.963h-1.751v-11.89h1.751v2.024a4.43 4.43 0 014.055-2.3c2.857 0 4.516 1.935 4.516 4.7v7.373h-1.751v-6.912c0-2.212-1.2-3.594-3.318-3.594a3.51 3.51 0 00-3.594 3.687l.092 6.912z" data-name="Path 155"/>
        <path d="M766.803 778.65a9.258 9.258 0 01-5.439-1.66l.83-1.382a8.066 8.066 0 004.608 1.475c2.581 0 4.332-1.475 4.332-4.24v-1.382a5.681 5.681 0 01-4.7 2.581 5.427 5.427 0 01-5.53-5.53 5.5 5.5 0 015.53-5.622 5.641 5.641 0 014.7 2.4v-2.12h1.751v9.77c-.092 3.779-2.488 5.714-6.083 5.714zm-.092-14.286a3.892 3.892 0 00-4.147 4.055 4 4 0 004.147 4.055 4.176 4.176 0 004.424-4.055 4.23 4.23 0 00-4.426-4.054z" data-name="Path 156"/>
      </g>
    </g>
    <path fill="#7fbb65" d="M0 0h1280v161H0z" data-name="Rectangle 2"/>
    <g filter="url(#b)">
      <path fill="#fff" d="M374.2 71h6.4l-13.1-33.35h-7.3L347.1 71h6.4l2.45-6.4h15.8zm-10.35-28.4l6.25 16.85h-12.5zm25.5 37.6V67.65a9.482 9.482 0 007.75 3.95c6.25 0 10.7-4.75 10.7-12.7s-4.45-12.65-10.7-12.65a9.636 9.636 0 00-7.75 3.9v-3.3h-5.25V80.2zm13-21.3c0 4.7-2.65 8.05-6.8 8.05a7.98 7.98 0 01-6.2-3.25v-9.55a7.837 7.837 0 016.2-3.25c4.15 0 6.8 3.35 6.8 8zm16 21.3V67.65a9.482 9.482 0 007.75 3.95c6.25 0 10.7-4.75 10.7-12.7s-4.45-12.65-10.7-12.65a9.636 9.636 0 00-7.75 3.9v-3.3h-5.25V80.2zm13-21.3c0 4.7-2.65 8.05-6.8 8.05a7.98 7.98 0 01-6.2-3.25v-9.55a7.837 7.837 0 016.2-3.25c4.15 0 6.8 3.35 6.8 8zM442.1 71h5.25V37.65h-5.25zm10.55-12.1c0 7.65 5.4 12.7 12.65 12.7a14.077 14.077 0 009.8-3.5l-2.4-3.45a10.221 10.221 0 01-6.85 2.65 7.315 7.315 0 01-7.7-6.65h18.65V59.4c0-7.6-4.65-13.15-11.9-13.15-7.15 0-12.25 5.65-12.25 12.65zm12.25-8.35a6.459 6.459 0 016.8 6.4h-13.6a6.662 6.662 0 016.8-6.4zM494.85 71h5.25V54.55a8.339 8.339 0 016.2-3.2 7.739 7.739 0 011.65.15v-5.2a10.313 10.313 0 00-7.85 4.1v-3.55h-5.25zm33.65 0h5.25V46.85h-5.25V63.8a8.032 8.032 0 01-6.2 3.15c-2.95 0-4.85-1.15-4.85-4.9v-15.2h-5.25v17.1c0 4.95 2.55 7.65 7.75 7.65a11.575 11.575 0 008.55-3.8zm28.35 0h5.25V54c0-4.95-2.6-7.75-7.8-7.75a11.426 11.426 0 00-8.5 3.9v-3.3h-5.25V71h5.25V54.15a7.95 7.95 0 016.2-3.25c2.95 0 4.85 1.25 4.85 5zm9.95-3.15a14.688 14.688 0 0010.35 3.75c6.5 0 10.05-3.25 10.05-7.5 0-5.7-5.15-6.9-9.35-7.8-2.85-.65-5.25-1.3-5.25-3.15 0-1.7 1.75-2.7 4.5-2.7a9.739 9.739 0 017.15 2.9l2.2-3.7a13.806 13.806 0 00-9.4-3.4c-6.1 0-9.5 3.4-9.5 7.35 0 5.4 4.95 6.5 9.1 7.4 2.95.65 5.5 1.4 5.5 3.5 0 1.8-1.6 2.95-4.75 2.95a12.465 12.465 0 01-8.2-3.4zm49.45 3.75c7.75 0 12.45-5.75 12.45-12.7 0-6.9-4.7-12.65-12.45-12.65-7.65 0-12.4 5.75-12.4 12.65 0 6.95 4.75 12.7 12.4 12.7zm0-4.65c-4.45 0-6.95-3.75-6.95-8.05 0-4.25 2.5-8 6.95-8 4.5 0 7 3.75 7 8 0 4.3-2.5 8.05-7 8.05zM650.3 71h5.25V54c0-4.95-2.6-7.75-7.8-7.75a11.426 11.426 0 00-8.5 3.9v-3.3H634V71h5.25V54.15a7.95 7.95 0 016.2-3.25c2.95 0 4.85 1.25 4.85 5zm31.1 0h5.85V37.65h-5.1l-9.6 9.7 3.4 3.55 5.45-5.65zm11.45-16.65c0 8.4 4 17.25 13.35 17.25s13.35-8.85 13.35-17.25-4-17.2-13.35-17.2-13.35 8.8-13.35 17.2zm20.75 0c0 6.35-1.95 12.05-7.4 12.05s-7.4-5.7-7.4-12.05 1.95-12 7.4-12 7.4 5.65 7.4 12zm10.05 0c0 8.4 4 17.25 13.35 17.25s13.35-8.85 13.35-17.25-4-17.2-13.35-17.2-13.35 8.8-13.35 17.2zm20.75 0c0 6.35-1.95 12.05-7.4 12.05s-7.4-5.7-7.4-12.05 1.95-12 7.4-12 7.4 5.65 7.4 12zm9.4-8.85a7.916 7.916 0 008.25 8.2 7.97 7.97 0 008.35-8.2 8.062 8.062 0 00-8.35-8.35 8.009 8.009 0 00-8.25 8.35zm5.05 25.5h3.3l21.35-33.35h-3.35zm7.65-25.5c0 2.85-1.85 4.9-4.45 4.9-2.55 0-4.4-2.05-4.4-4.9 0-3 1.85-5 4.4-5 2.6 0 4.45 2 4.45 5zm5.25 17.9a7.916 7.916 0 008.25 8.2 7.957 7.957 0 008.3-8.2 8.05 8.05 0 00-8.3-8.35 8.009 8.009 0 00-8.25 8.35zm12.7 0c0 2.9-1.85 4.9-4.45 4.9s-4.4-2-4.4-4.9c0-3 1.8-5 4.4-5s4.45 2 4.45 5zm21.2 13.8c2.95 2.7 6 3.6 10.1 3.6 5.95 0 12.4-2.35 12.4-11.05v-22.9h-5.25v3.35a9.618 9.618 0 00-7.75-3.95c-6.2 0-10.7 4.6-10.7 12.4 0 7.95 4.55 12.4 10.7 12.4a9.8 9.8 0 007.75-4v2.9c0 4.95-3.7 6.55-7.15 6.55-3.2 0-5.7-.85-7.65-3.1zm17.25-14.05a7.837 7.837 0 01-6.2 3.25c-4.15 0-6.8-3.1-6.8-7.75s2.65-7.75 6.8-7.75a7.837 7.837 0 016.2 3.25zM834.95 71h5.25V54.55a8.339 8.339 0 016.2-3.2 7.739 7.739 0 011.65.15v-5.2a10.313 10.313 0 00-7.85 4.1v-3.55h-5.25zm15.85-12.1c0 7.65 5.4 12.7 12.65 12.7a14.077 14.077 0 009.8-3.5l-2.4-3.45A10.221 10.221 0 01864 67.3a7.315 7.315 0 01-7.7-6.65h18.65V59.4c0-7.6-4.65-13.15-11.9-13.15-7.15 0-12.25 5.65-12.25 12.65zm12.25-8.35a6.459 6.459 0 016.8 6.4h-13.6a6.662 6.662 0 016.8-6.4zm15.6 8.35c0 7.65 5.4 12.7 12.65 12.7a14.077 14.077 0 009.8-3.5l-2.4-3.45a10.221 10.221 0 01-6.85 2.65 7.315 7.315 0 01-7.7-6.65h18.65V59.4c0-7.6-4.65-13.15-11.9-13.15-7.15 0-12.25 5.65-12.25 12.65zm12.25-8.35a6.459 6.459 0 016.8 6.4h-13.6a6.662 6.662 0 016.8-6.4zM924.3 71h5.25V54c0-4.95-2.6-7.75-7.8-7.75a11.426 11.426 0 00-8.5 3.9v-3.3H908V71h5.25V54.15a7.95 7.95 0 016.2-3.25c2.95 0 4.85 1.25 4.85 5zm-613.275 41.9c0 7.65 5.4 12.7 12.65 12.7a14.077 14.077 0 009.8-3.5l-2.4-3.45a10.221 10.221 0 01-6.85 2.65 7.315 7.315 0 01-7.7-6.65h18.65v-1.25c0-7.6-4.65-13.15-11.9-13.15-7.15 0-12.25 5.65-12.25 12.65zm12.25-8.35a6.459 6.459 0 016.8 6.4h-13.6a6.662 6.662 0 016.8-6.4zm33.4 20.45h5.25v-17c0-4.95-2.6-7.75-7.8-7.75a11.426 11.426 0 00-8.5 3.9v-3.3h-5.25V125h5.25v-16.85a7.95 7.95 0 016.2-3.25c2.95 0 4.85 1.25 4.85 5zm10.55-12.1c0 7.65 5.4 12.7 12.65 12.7a14.077 14.077 0 009.8-3.5l-2.4-3.45a10.221 10.221 0 01-6.85 2.65 7.315 7.315 0 01-7.7-6.65h18.65v-1.25c0-7.6-4.65-13.15-11.9-13.15-7.15 0-12.25 5.65-12.25 12.65zm12.25-8.35a6.459 6.459 0 016.8 6.4h-13.6a6.662 6.662 0 016.8-6.4zm17.1 20.45h5.25v-16.45a8.339 8.339 0 016.2-3.2 7.739 7.739 0 011.65.15v-5.2a10.313 10.313 0 00-7.85 4.1v-3.55h-5.25zm17.05 6.2c2.95 2.7 6 3.6 10.1 3.6 5.95 0 12.4-2.35 12.4-11.05v-22.9h-5.25v3.35a9.618 9.618 0 00-7.75-3.95c-6.2 0-10.7 4.6-10.7 12.4 0 7.95 4.55 12.4 10.7 12.4a9.8 9.8 0 007.75-4v2.9c0 4.95-3.7 6.55-7.15 6.55-3.2 0-5.7-.85-7.65-3.1zm17.25-14.05a7.837 7.837 0 01-6.2 3.25c-4.15 0-6.8-3.1-6.8-7.75s2.65-7.75 6.8-7.75a7.837 7.837 0 016.2 3.25zm11.8 12.6l-.8 4.7a14.848 14.848 0 002.95.35c3.75-.05 6.65-1.35 8.3-5.45l11.65-28.5h-5.65l-7.05 18.1-7.05-18.1h-5.6l9.9 24.45-1.2 2.75a3.271 3.271 0 01-3.45 2.1 5.487 5.487 0 01-2-.4zm53-4.75h5.25v-16c0-6.5-4.7-8.75-10.05-8.75a14.361 14.361 0 00-10.15 3.9l2.15 3.65a9.889 9.889 0 017.15-3.05c3.35 0 5.65 1.7 5.65 4.5v3.6c-1.75-2.05-4.55-3.1-7.8-3.1-3.95 0-8.4 2.3-8.4 7.85 0 5.35 4.45 8 8.4 8a10.2 10.2 0 007.8-3.2zm0-5.5a7.069 7.069 0 01-5.75 2.5c-2.95 0-5.15-1.7-5.15-4.3 0-2.65 2.2-4.35 5.15-4.35a7.069 7.069 0 015.75 2.5zm19.3 6.1a6.926 6.926 0 004.95-1.55l-1.25-3.95a3.389 3.389 0 01-2.35.85c-1.5 0-2.3-1.2-2.3-2.85v-12.65h4.9v-4.6h-4.9v-6.6h-5.25v6.6h-4v4.6h4v13.95c0 4 2.15 6.2 6.2 6.2zm26.8 8.6v-12.55a9.482 9.482 0 007.75 3.95c6.25 0 10.7-4.75 10.7-12.7s-4.45-12.65-10.7-12.65a9.636 9.636 0 00-7.75 3.9v-3.3h-5.25v33.35zm13-21.3c0 4.7-2.65 8.05-6.8 8.05a7.98 7.98 0 01-6.2-3.25v-9.55a7.837 7.837 0 016.2-3.25c4.15 0 6.8 3.35 6.8 8zm10.75 12.1h5.25v-16.45a8.339 8.339 0 016.2-3.2 7.739 7.739 0 011.65.15v-5.2a10.313 10.313 0 00-7.85 4.1v-3.55h-5.25zm28.25.6c7.75 0 12.45-5.75 12.45-12.7 0-6.9-4.7-12.65-12.45-12.65-7.65 0-12.4 5.75-12.4 12.65 0 6.95 4.75 12.7 12.4 12.7zm0-4.65c-4.45 0-6.95-3.75-6.95-8.05 0-4.25 2.5-8 6.95-8 4.5 0 7 3.75 7 8 0 4.3-2.5 8.05-7 8.05zm34.75 4.05h5.25V91.65h-5.25v12.55a9.688 9.688 0 00-7.75-3.95c-6.25 0-10.75 4.9-10.75 12.7 0 7.95 4.55 12.65 10.75 12.65a9.78 9.78 0 007.75-3.9zm0-7.25a7.891 7.891 0 01-6.25 3.2c-4.15 0-6.8-3.35-6.8-8 0-4.7 2.65-8.05 6.8-8.05a7.934 7.934 0 016.25 3.25zm28.35 7.25h5.25v-24.15h-5.25v16.95a8.032 8.032 0 01-6.2 3.15c-2.95 0-4.85-1.15-4.85-4.9v-15.2h-5.25v17.1c0 4.95 2.55 7.65 7.75 7.65a11.575 11.575 0 008.55-3.8zm10.55-12.1c0 7.35 5.15 12.7 12.5 12.7 4.7 0 7.55-2 9.25-4.3l-3.45-3.2a6.565 6.565 0 01-5.55 2.85c-4.4 0-7.3-3.35-7.3-8.05s2.9-8 7.3-8a6.446 6.446 0 015.55 2.85l3.45-3.2c-1.7-2.3-4.55-4.3-9.25-4.3-7.35 0-12.5 5.35-12.5 12.65zm33.6 12.7a6.926 6.926 0 004.95-1.55l-1.25-3.95a3.389 3.389 0 01-2.35.85c-1.5 0-2.3-1.2-2.3-2.85v-12.65h4.9v-4.6h-4.9v-6.6h-5.25v6.6h-4v4.6h4v13.95c0 4 2.15 6.2 6.2 6.2zm11.3-28.45a3.25 3.25 0 10-3.25-3.25 3.244 3.244 0 003.25 3.25zm-2.6 27.85h5.25v-24.15h-5.25zm22.95.6c7.75 0 12.45-5.75 12.45-12.7 0-6.9-4.7-12.65-12.45-12.65-7.65 0-12.4 5.75-12.4 12.65 0 6.95 4.75 12.7 12.4 12.7zm0-4.65c-4.45 0-6.95-3.75-6.95-8.05 0-4.25 2.5-8 6.95-8 4.5 0 7 3.75 7 8 0 4.3-2.5 8.05-7 8.05zm34.05 4.05h5.25v-17c0-4.95-2.6-7.75-7.8-7.75a11.426 11.426 0 00-8.5 3.9v-3.3h-5.25V125h5.25v-16.85a7.95 7.95 0 016.2-3.25c2.95 0 4.85 1.25 4.85 5zm26.15 0h5.25v-19.55h4.9v-4.6h-4.9V99.5c0-2.7 1.3-4.05 3.35-4.05a4.208 4.208 0 012.1.5l1.15-3.85a8.7 8.7 0 00-4.2-.95c-4.45 0-7.65 2.95-7.65 8.35v1.35h-4v4.6h4zm28.9 0h5.25v-16c0-6.5-4.7-8.75-10.05-8.75a14.361 14.361 0 00-10.15 3.9l2.15 3.65a9.889 9.889 0 017.15-3.05c3.35 0 5.65 1.7 5.65 4.5v3.6c-1.75-2.05-4.55-3.1-7.8-3.1-3.95 0-8.4 2.3-8.4 7.85 0 5.35 4.45 8 8.4 8a10.2 10.2 0 007.8-3.2zm0-5.5a7.069 7.069 0 01-5.75 2.5c-2.95 0-5.15-1.7-5.15-4.3 0-2.65 2.2-4.35 5.15-4.35a7.069 7.069 0 015.75 2.5zm10.55-6.6c0 7.35 5.15 12.7 12.5 12.7 4.7 0 7.55-2 9.25-4.3l-3.45-3.2a6.565 6.565 0 01-5.55 2.85c-4.4 0-7.3-3.35-7.3-8.05s2.9-8 7.3-8a6.446 6.446 0 015.55 2.85l3.45-3.2c-1.7-2.3-4.55-4.3-9.25-4.3-7.35 0-12.5 5.35-12.5 12.65zm28.95-15.75a3.25 3.25 0 10-3.25-3.25 3.244 3.244 0 003.25 3.25zm-2.6 27.85h5.25v-24.15h-5.25zm12.05 0h5.25V91.65h-5.25zm14.65-27.85a3.25 3.25 0 10-3.25-3.25 3.244 3.244 0 003.25 3.25zm-2.6 27.85h5.25v-24.15h-5.25zm19.3.6a6.926 6.926 0 004.95-1.55l-1.25-3.95a3.389 3.389 0 01-2.35.85c-1.5 0-2.3-1.2-2.3-2.85v-12.65h4.9v-4.6h-4.9v-6.6h-5.25v6.6h-4v4.6h4v13.95c0 4 2.15 6.2 6.2 6.2zm11.3-28.45a3.25 3.25 0 10-3.25-3.25 3.244 3.244 0 003.25 3.25zm-2.6 27.85h5.25v-24.15h-5.25zm10.55-12.1c0 7.65 5.4 12.7 12.65 12.7a14.077 14.077 0 009.8-3.5l-2.4-3.45a10.221 10.221 0 01-6.85 2.65 7.315 7.315 0 01-7.7-6.65h18.65v-1.25c0-7.6-4.65-13.15-11.9-13.15-7.15 0-12.25 5.65-12.25 12.65zm12.25-8.35a6.459 6.459 0 016.8 6.4h-13.6a6.662 6.662 0 016.8-6.4zm15 17.3a14.688 14.688 0 0010.35 3.75c6.5 0 10.05-3.25 10.05-7.5 0-5.7-5.15-6.9-9.35-7.8-2.85-.65-5.25-1.3-5.25-3.15 0-1.7 1.75-2.7 4.5-2.7a9.739 9.739 0 017.15 2.9l2.2-3.7a13.806 13.806 0 00-9.4-3.4c-6.1 0-9.5 3.4-9.5 7.35 0 5.4 4.95 6.5 9.1 7.4 2.95.65 5.5 1.4 5.5 3.5 0 1.8-1.6 2.95-4.75 2.95a12.465 12.465 0 01-8.2-3.4z" data-name="Path 520"/>
    </g>
    <g transform="translate(93 132.875)">
      <path fill="#e2e2e2" d="M263.366 537.701l-26.958-42.782 26.971 47.442.014 4.875q2.885-.034 5.711-.221l-2.2-62.621.029-.484-.05-.092-.209-5.917 28.187-46.889-28.21 42.457-.084 1.253-1.661-47.313 24.232-48.512-24.421 40.2-1.136-98.066-.005-.326v.321l-.553 77.318-23.164-30.937 23.176 37.6.107 42.348-21.484-40.9 21.5 47.126.059 23.548-31.208-56.946 31.229 65.154z" data-name="Path 488"/>
      <path fill="#e2e2e2" d="M494.704 537.701l-26.959-42.782 26.971 47.443.014 4.875q2.885-.034 5.711-.221l-2.2-62.621.029-.484-.05-.092-.209-5.917 28.187-46.889-28.216 42.457-.084 1.253-1.661-47.313 24.232-48.512-24.421 40.2-1.136-98.066-.005-.326v.321l-.553 77.318-23.158-30.938 23.176 37.6.108 42.348-21.484-40.9 21.5 47.126.059 23.548-31.212-56.952 31.234 65.16z" data-name="Path 489"/>
      <path fill="#e2e2e2" d="M31.809 540.453l-19.466-30.892 19.475 34.257.01 3.52q2.083-.024 4.124-.16l-1.588-45.218.021-.35-.036-.067-.151-4.273 20.354-33.858-20.375 30.658-.061.905-1.2-34.164 17.5-35.03-17.635 29.027-.82-70.813v-.236.232l-.4 55.831-16.72-22.339 16.729 27.145.078 30.579-15.514-29.529 15.522 34.029.043 17-22.535-41.121 22.553 47.053z" data-name="Path 490"/>
      <path fill="#e2e2e2" d="M1057.342 537.701l-26.958-42.782 26.971 47.442.015 4.875q2.885-.034 5.711-.221l-2.2-62.621.029-.484-.049-.092-.209-5.917 28.187-46.889-28.216 42.457-.084 1.253-1.661-47.313 24.232-48.512-24.421 40.2-1.136-98.066-.005-.326v.321l-.553 77.318-23.16-30.937 23.176 37.6.107 42.348-21.484-40.9 21.5 47.126.059 23.548-31.215-56.952 31.235 65.16z" data-name="Path 491"/>
      <path fill="#6c63ff" d="M471.659 473.109H326.235v-6.162h145.424z" data-name="Rectangle 4"/>
      <path fill="#6c63ff" d="M464.264 466.947H318.84v-6.162h145.424z" data-name="Rectangle 5"/>
      <path fill="#6c63ff" d="M472.891 460.785H327.467v-6.162h145.424z" data-name="Rectangle 6"/>
      <path fill="#6c63ff" d="M487.68 454.623H342.256v-6.162H487.68z" data-name="Rectangle 7"/>
      <path fill="#3f3d56" d="M223.571 457.081h-5.049v-35.849h5.049z" data-name="Rectangle 8"/>
      <path fill="#3f3d56" d="M220.406 425.455l-1.899-4.678 186.842-75.839 1.9 4.679z" data-name="Rectangle 9"/>
      <path fill="#3f3d56" d="M169.04 510.601h-43.927v-17.167h43.927z" data-name="Rectangle 10"/>
      <path fill="#3f3d56" d="M345.759 527.768H129.151v-19.187h216.608z" data-name="Rectangle 11"/>
      <path fill="#e2e2e2" d="M164.748 518.174h52.006v-65.386h-38.878l-13.128 32.978z" data-name="Path 492"/>
      <path fill="#fff" d="M208.676 479.044H186.46v-22.216h22.216z" data-name="Rectangle 12"/>
      <path fill="#fff" d="M169.797 479.292h14.138v-22.211h-6.06z" data-name="Path 493"/>
      <path fill="#3f3d56" d="M207.665 501.26h-5.049v-9.593h5.049z" data-name="Rectangle 13"/>
      <path fill="#3f3d56" d="M179.644 480.812h-.252a4.8 4.8 0 01-4.8-4.8 4.8 4.8 0 014.8-4.8h.252v9.6z" data-name="Path 494"/>
      <path fill="#3f3d56" d="M367.47 518.175h-.252a4.8 4.8 0 01-4.8-4.8 4.8 4.8 0 014.8-4.8h.252v9.6z" data-name="Path 495"/>
      <path fill="#e2e2e2" d="M144.551 508.509a24.982 24.982 0 00-19.414 9.665h-9.87l9.593-26.723 44.685-8.813-1.263 35.536h-4.313a24.982 24.982 0 00-19.418-9.666z" data-name="Path 496"/>
      <circle cx="21.964" cy="21.964" r="21.964" fill="#3f3d56" data-name="Ellipse 20" transform="translate(122.084 502.522)"/>
      <circle cx="11.56" cy="11.56" r="11.56" fill="#e2e2e2" data-name="Ellipse 21" transform="translate(132.487 512.926)"/>
      <circle cx="19.187" cy="19.187" r="19.187" fill="#3f3d56" data-name="Ellipse 22" transform="translate(323.291 507.824)"/>
      <circle cx="10.098" cy="10.098" r="10.098" fill="#e2e2e2" data-name="Ellipse 23" transform="translate(332.38 516.913)"/>
      <path fill="#3f3d56" d="M225.843 520.194H215.24V443.7h10.603z" data-name="Rectangle 14"/>
      <path fill="#3f3d56" d="M367.723 510.854H215.239v-4.544h152.484z" data-name="Rectangle 15"/>
      <path fill="#3f3d56" d="M181.663 482.326h-5.049v-2.02h5.049z" data-name="Rectangle 16"/>
      <path fill="#3f3d56" d="M399.785 473.072a.5.5 0 01-.128-.393l6.963-65.85a.505.505 0 01.5-.452.505.505 0 01.5.448l7.531 65.713a.5.5 0 01-.5.562l-14.495.137a.5.5 0 01-.371-.165zm7.357-61.579l-6.422 60.729 13.368-.126z" data-name="Path 497"/>
      <path fill="#3f3d56" d="M124.952 491.844l.236.09a4.799 4.799 0 012.788 6.186 4.799 4.799 0 01-6.187 2.79l-.235-.09 3.398-8.976z" data-name="Path 498"/>
      <path fill="#3f3d56" d="M409.884 418.707h-5.049V344.99h5.049z" data-name="Rectangle 17"/>
      <circle cx="7.069" cy="7.069" r="7.069" fill="#3f3d56" data-name="Ellipse 24" transform="translate(213.977 415.173)"/>
      <path fill="#6c63ff" d="M376.763 506.384H231.339v-6.162h145.424z" data-name="Rectangle 18"/>
      <path fill="#6c63ff" d="M385.39 500.222H239.966v-6.162H385.39z" data-name="Rectangle 19"/>
      <path fill="#6c63ff" d="M379.228 495.293H233.804v-6.162h145.424z" data-name="Rectangle 20"/>
      <path fill="#6c63ff" d="M387.855 489.13H242.431v-6.162h145.424z" data-name="Rectangle 21"/>
      <path fill="#e2e2e2" d="M471.197 130.436a19.221 19.221 0 0112.616 4.7 19.232 19.232 0 018.488-.373 19.3 19.3 0 0135.191 10.952h-75.176a19.305 19.305 0 0118.881-15.279z" data-name="Path 499"/>
      <path fill="#e2e2e2" d="M358.103 191.252a18.171 18.171 0 0111.927 4.444 18.183 18.183 0 018.024-.353 18.246 18.246 0 0133.27 10.354h-71.069a18.251 18.251 0 0117.848-14.445z" data-name="Path 500"/>
      <path fill="#e2e2e2" d="M245.032 90.944a18.906 18.906 0 0112.409 4.624 18.919 18.919 0 018.349-.367 18.984 18.984 0 0134.616 10.773h-73.944a18.99 18.99 0 0118.57-15.03z" data-name="Path 501"/>
      <path fill="#3f3d56" d="M882.047 545.458H700.319V335.223h181.728z" data-name="Rectangle 22"/>
      <path fill="#e2e2e2" d="M815.681 545.458h-48.995v-42.76h48.995z" data-name="Rectangle 23"/>
      <path fill="#7fbb65" d="M653.102 265.738h21.382l-.764-32.067v-.012l-2.8-117.584a13.673 13.673 0 01-14.259 0l-2.8 117.584v.012z" data-name="Path 504"/>
      <path fill="#7fbb65" d="M613.912 288.896v256.566h99.764V285.334l-23.158.826v-52.488h-53.447v54.4z" data-name="Path 505"/>
      <path fill="#7fbb65" d="M907.881 265.738h21.38l-3.563-149.658a21.075 21.075 0 01-14.253 0z" data-name="Path 507"/>
      <path fill="#7fbb65" d="M868.687 288.896v256.566h99.776V285.334l-8.2.3-14.974.53v-52.492h-53.445v54.4z" data-name="Path 508"/>
      <path fill="#fff" d="M842.944 385.245h-24.648v-24.648h24.648z" data-name="Rectangle 24"/>
      <path fill="#fff" d="M803.507 385.245h-24.648v-24.648h24.648z" data-name="Rectangle 25"/>
      <path fill="#fff" d="M764.07 385.245h-24.648v-24.648h24.648z" data-name="Rectangle 26"/>
      <path fill="#fff" d="M842.944 424.682h-24.648v-24.648h24.648z" data-name="Rectangle 27"/>
      <path fill="#fff" d="M803.507 424.682h-24.648v-24.648h24.648z" data-name="Rectangle 28"/>
      <path fill="#fff" d="M764.07 424.682h-24.648v-24.648h24.648z" data-name="Rectangle 29"/>
      <path fill="#fff" d="M842.944 464.119h-24.648v-24.648h24.648z" data-name="Rectangle 30"/>
      <path fill="#fff" d="M803.507 464.119h-24.648v-24.648h24.648z" data-name="Rectangle 31"/>
      <path fill="#fff" d="M764.07 464.119h-24.648v-24.648h24.648z" data-name="Rectangle 32"/>
      <path fill="#fff" d="M676.119 375.386h-24.648v-24.648h24.648z" data-name="Rectangle 33"/>
      <path fill="#fff" d="M676.119 414.823h-24.648v-24.648h24.648z" data-name="Rectangle 34"/>
      <path fill="#fff" d="M676.119 454.26h-24.648v-24.648h24.648z" data-name="Rectangle 35"/>
      <path fill="#fff" d="M676.119 493.697h-24.648v-24.648h24.648z" data-name="Rectangle 36"/>
      <path fill="#fff" d="M930.69 375.386h-24.648v-24.648h24.648z" data-name="Rectangle 37"/>
      <path fill="#fff" d="M930.69 414.823h-24.648v-24.648h24.648z" data-name="Rectangle 38"/>
      <path fill="#fff" d="M930.69 454.26h-24.648v-24.648h24.648z" data-name="Rectangle 39"/>
      <path fill="#fff" d="M930.69 493.697h-24.648v-24.648h24.648z" data-name="Rectangle 40"/>
      <path fill="#3f3d56" d="M0 544.589h1094.376v2.465H0z" data-name="Rectangle 41"/>
    </g>
  </g>
</svg>
