<svg xmlns="http://www.w3.org/2000/svg" xmlns:xlink="http://www.w3.org/1999/xlink"  viewBox="0 0 1280 800">
  <defs>
    <rect id="examples-of-corporate-sustainability-initiatives03-a" width="1280" height="800" x="0" y="0"/>
  </defs>
  <g fill="none" fill-rule="evenodd">
    <mask id="examples-of-corporate-sustainability-initiatives03-b" fill="#fff">
      <use xlink:href="#examples-of-corporate-sustainability-initiatives03-a"/>
    </mask>
    <g mask="url(#examples-of-corporate-sustainability-initiatives03-b)">
      <rect width="1280" height="800" fill="#F7FFF2" fill-rule="nonzero"/>
      <g fill="#7FBB65" fill-rule="nonzero" transform="translate(508 751)">
        <path d="M21.567 33.4570128L31.521 33.4570128C32.5557718 33.4607323 33.4093613 32.6477269 33.456 31.614L33.456 24.793C30.120078 28.4557206 26.0754257 31.403224 21.567 33.4570128L21.567 33.4570128zM19.355 10.323C19.263 8.572 17.972 7.466 15.207 7.746 9.77 8.111 5.624 14.286 4.424 20.646 16.224 19.724 19.447 12.535 19.355 10.323z"/>
        <path d="M18.341,3.963 C23.963,3.594 26.541,5.806 26.728,8.571 C27.189,14.654 17.235,21.843 4.147,22.949 L3.963,22.949 C3.65671946,24.6427564 3.78365285,26.3864566 4.332,28.018 C5.254,30.418 7.65,31.336 10.415,31.336 C22.581,31.336 31.521,17.88 33.456,11.797 L33.456,1.843 C33.4487731,1.3403649 33.239592,0.861781149 32.8755906,0.515086334 C32.5115893,0.168391518 32.0233911,-0.0172470188 31.521,0 L1.843,0 C0.82650642,0.00329320164 0.00329320164,0.82650642 0,1.843 L0,15.484 C4.793,9.4 12.166,4.424 18.341,3.963 Z"/>
        <path d="M6.9 15.576C8.34371525 15.6125786 9.7287744 15.0045307 10.679 13.917L11.785 14.839C10.5786248 16.292551 8.78895134 17.1351813 6.9 17.1390186 5.28566442 17.1430554 3.74037109 16.484558 2.62514618 15.3173522 1.50992127 14.1501465.92245614 12.5764772 1 10.964 1 7.554 3.4 4.789 6.714 4.789 10.214 4.789 12.244 7.646 12.244 11.056L12.244 11.609 2.751 11.609C2.81315762 13.8449078 4.66355343 15.6141342 6.9 15.576L6.9 15.576zM10.31 10.23C10.126 8.11 8.835 6.175 6.531 6.175 4.503 6.175 2.937 7.926 2.66 10.23L10.31 10.23zM24.778 16.866L24.778 14.466C23.8609569 16.1024004 22.1377657 17.1223495 20.262 17.139 18.6775334 17.1028857 17.175366 16.4260864 16.0985757 15.2631756 15.0217855 14.1002648 14.4623363 12.5505614 14.548 10.968 14.461215 9.38476653 15.0201614 7.83401348 16.0970731 6.67021755 17.1739849 5.50642162 18.6768001 4.82907211 20.262 4.793 22.1188723 4.79029016 23.8378439 5.77272278 24.778 7.374L24.778 8.8817842e-16 26.529 8.8817842e-16 26.529 16.866 24.778 16.866zM20.538 6.266C18.238 6.266 16.391 8.017 16.391 10.874 16.391 13.731 18.326 15.482 20.538 15.482 21.7253249 15.4507294 22.8509296 14.9463148 23.6644701 14.080942 24.4780107 13.2155692 24.9120305 12.0609927 24.87 10.874 24.9117588 9.68734594 24.477753 8.53317787 23.6644568 7.66805306 22.8511606 6.80292824 21.7259697 6.29853727 20.539 6.267L20.538 6.266zM35.84 20.553C33.8977466 20.5839707 31.9949545 20.0032325 30.401 18.893L31.23 17.511C32.5793182 18.4633591 34.1884625 18.9785645 35.84 18.987 38.421 18.987 40.172 17.512 40.172 14.747L40.172 13.364C39.135439 14.9560774 37.3716723 15.924648 35.472 15.945 33.9968671 15.9732729 32.573803 15.3997331 31.530535 14.356465 30.4872669 13.313197 29.9137271 11.8901329 29.942 10.415 29.90904 8.93041781 30.4777825 7.49558968 31.5189101 6.43675832 32.5600378 5.37792697 33.9850731 4.78507443 35.47 4.79292154 37.3320388 4.78820673 39.0820662 5.68183774 40.17 7.193L40.17 5.073 41.921 5.073 41.921 14.843C41.829 18.618 39.433 20.553 35.84 20.553zM35.748 6.267C34.6434027 6.19339064 33.5597267 6.59366175 32.7681954 7.36763316 31.9766641 8.14160458 31.5521861 9.21602949 31.601 10.322 31.5851788 11.4183455 32.0200969 12.4731211 32.8040582 13.2396904 33.5880195 14.0062597 34.6522852 14.417409 35.748 14.377 36.8766262 14.4440285 37.9841989 14.050563 38.8175894 13.2865275 39.6509799 12.522492 40.1389582 11.4531887 40.17 10.323 40.1246208 9.19735786 39.6320976 8.13631885 38.8016207 7.3751109 37.9711437 6.61390294 36.8713287 6.21541853 35.746 6.268L35.748 6.267zM51.047 15.576C52.4907153 15.6125786 53.8757744 15.0045307 54.826 13.917L55.932 14.839C54.7256248 16.292551 52.9359513 17.1351813 51.047 17.1390186 49.4326644 17.1430554 47.8873711 16.484558 46.7721462 15.3173522 45.6569213 14.1501465 45.0694561 12.5764772 45.147 10.964 45.147 7.554 47.547 4.789 50.861 4.789 54.361 4.789 56.391 7.646 56.391 11.056L56.391 11.609 46.991 11.609C46.985453 12.6783504 47.4139311 13.70421 48.1784273 14.451931 48.9429235 15.199652 49.9780358 15.6052675 51.047 15.576L51.047 15.576zM54.457 10.23C54.273 8.11 52.982 6.175 50.678 6.175 48.65 6.175 47.084 7.926 46.807 10.23L54.457 10.23zM65.7 17.143C63.8431277 17.1457098 62.1241561 16.1632772 61.184 14.562L61.184 20.553 59.433 20.553 59.433 4.977 61.184 4.977 61.184 7.277C62.1010431 5.64059962 63.8242343 4.62065054 65.7 4.604 67.2851999 4.64007211 68.7880151 5.31742162 69.8649269 6.48121755 70.9418386 7.64501348 71.500785 9.19576653 71.414 10.779 71.415 14.746 68.557 17.143 65.7 17.143zM65.333 6.26695643C64.1456751 6.29827056 63.0200704 6.80268524 62.2065299 7.66805803 61.3929893 8.53343082 60.9589695 9.68800726 61.001 10.875 60.9270453 12.070339 61.3503244 13.2431072 62.1706377 14.1156843 62.9909511 14.9882614 64.1353754 15.483 65.333 15.483 67.633 15.483 69.48 13.732 69.48 10.875 69.6097282 9.6981515 69.2309898 8.52188226 68.438972 7.64182001 67.6469542 6.76175776 66.5169647 6.26158193 65.333 6.26695643L65.333 6.26695643zM80.078 17.142C78.4354585 17.1579232 76.8555544 16.5124593 75.6940476 15.3509524 74.5325407 14.1894456 73.8870768 12.6095415 73.903 10.967 73.8835205 9.31492603 74.5248813 7.72353766 75.684485 6.54665735 76.8440886 5.36977703 78.4258186 4.70495323 80.078 4.7 81.7205415 4.68407676 83.3004456 5.32954074 84.4619524 6.49104756 85.6234593 7.65255438 86.2689232 9.23245848 86.253 10.875 86.2724795 12.527074 85.6311187 14.1184623 84.471515 15.2953427 83.3119114 16.472223 81.7301814 17.1370468 80.078 17.142zM80.078 6.26599979C78.8802815 6.26562832 77.7356801 6.76035495 76.9153024 7.63300044 76.0949247 8.50564593 75.6717464 9.6785854 75.746 10.874 75.689264 12.0893215 76.1280388 13.2756594 76.9619314 14.1615761 77.795824 15.0474927 78.9534713 15.5571728 80.17 15.5740304 81.3769811 15.5784748 82.5330975 15.0882724 83.3690075 14.2175958 84.2049175 13.3469191 84.6476279 12.1717974 84.594 10.966 84.635916 8.42455852 82.6190893 6.3255581 80.078 6.26599979L80.078 6.26599979zM89.479 2.396L89.479.461 91.507.461 91.507 2.396 89.479 2.396zM89.663 16.866L89.663 4.977 91.414 4.977 91.414 16.866 89.663 16.866zM97.313 16.866L95.562 16.866 95.562 4.976 97.313 4.976 97.313 7C98.1193557 5.52661087 99.6896127 4.63595957 101.368 4.7 104.225 4.7 105.884 6.635 105.884 9.4L105.884 16.773 104.133 16.773 104.133 9.861C104.133 7.649 102.933 6.267 100.815 6.267 99.8380991 6.24235472 98.8951476 6.62607842 98.2130362 7.32584042 97.5309248 8.02560241 97.171411 8.97804729 97.221 9.954L97.313 16.866 97.313 16.866zM112.06 13.456C111.983451 14.0138377 112.172348 14.5753568 112.570496 14.9735042 112.968643 15.3716516 113.530162 15.5605494 114.088 15.484 114.692063 15.4950181 115.290755 15.3688518 115.839 15.115L115.839 16.59C115.188296 16.9360349 114.454642 17.0955702 113.719 17.051 111.784 17.051 110.401 16.129 110.401 13.733L110.401 6.543 108.742 6.543 108.742 4.882 110.401 4.882 110.401 1.382 112.152 1.382 112.152 4.882 115.931 4.882 115.931 6.449 112.152 6.449 112.152 13.449 112.06 13.456z" transform="translate(50.982 7.097)"/>
        <g transform="translate(176.958 7.097)">
          <polygon points="0 16.866 0 0 1.751 0 1.751 16.866"/>
          <path d="M11.246 15.576C12.6897153 15.6125786 14.0747744 15.0045307 15.025 13.917L16.131 14.839C14.9246248 16.292551 13.1349513 17.1351813 11.246 17.1390186 9.63166442 17.1430554 8.08637109 16.484558 6.97114618 15.3173522 5.85592127 14.1501465 5.26845614 12.5764772 5.346 10.964 5.346 7.554 7.746 4.789 11.06 4.789 14.56 4.789 16.59 7.646 16.59 11.056L16.59 11.609 7.19 11.609C7.18554765 12.6774797 7.61436714 13.7021374 8.37852179 14.4489549 9.14267643 15.1957723 10.1769038 15.6009678 11.245 15.572L11.246 15.576zM14.656 10.23C14.472 8.11 13.181 6.175 10.877 6.175 8.849 6.175 7.283 7.926 7.006 10.23L14.656 10.23zM20.184 7.285L19.631 5.81C20.9768354 5.14975335 22.4648707 4.83201728 23.963 4.885 27.189 4.885 29.032 6.544 29.032 9.678L29.032 16.959 27.281 16.959 27.281 15.208C26.2563274 16.552734 24.6380046 17.3103422 22.949 17.236 20.737 17.236 18.525 16.036 18.525 13.549 18.525 10.968 20.553 9.678 23.594 9.678 24.8075602 9.66462317 26.017103 9.81977044 27.188 10.139L27.188 9.77C27.188 7.65 25.898 6.544 23.594 6.544 22.4090284 6.44030445 21.2203849 6.69720484 20.184 7.281L20.184 7.285zM20.46 13.276C20.46 14.751 21.842 15.676 23.501 15.676 25.713 15.676 27.464 14.386 27.464 12.45L27.464 11.25C26.3266296 10.9237151 25.1470668 10.7683498 23.964 10.789 21.752 10.789 20.464 11.803 20.464 13.277L20.46 13.276zM34.654 16.866L32.903 16.866 32.903 4.977 34.654 4.977 34.654 8.018C35.4032199 5.97957586 37.367943 4.6450925 39.539 4.7L39.539 6.543 39.447 6.543C36.866 6.543 34.747 8.386 34.747 11.981L34.747 16.866 34.654 16.866zM43.963 16.866L42.212 16.866 42.212 4.976 43.963 4.976 43.963 7C44.7693557 5.52661087 46.3396127 4.63595957 48.018 4.7 50.875 4.7 52.534 6.635 52.534 9.4L52.534 16.773 50.783 16.773 50.783 9.861C50.783 7.649 49.583 6.267 47.465 6.267 46.4880991 6.24235472 45.5451476 6.62607842 44.8630362 7.32584042 44.1809248 8.02560241 43.821411 8.97804729 43.871 9.954L43.871 16.866 43.963 16.866zM56.313 2.396L56.313.461 58.341.461 58.341 2.396 56.313 2.396zM56.497 16.866L56.497 4.977 58.248 4.977 58.248 16.866 56.497 16.866zM64.147 16.866L62.396 16.866 62.396 4.976 64.147 4.976 64.147 7C64.9533557 5.52661087 66.5236127 4.63595957 68.202 4.7 71.059 4.7 72.718 6.635 72.718 9.4L72.718 16.773 70.967 16.773 70.967 9.861C70.967 7.649 69.767 6.267 67.649 6.267 66.6720991 6.24235472 65.7291476 6.62607842 65.0470362 7.32584042 64.3649248 8.02560241 64.005411 8.97804729 64.055 9.954L64.147 16.866 64.147 16.866zM81.845 20.553C79.9027466 20.5839707 77.9999545 20.0032325 76.406 18.893L77.236 17.511C78.5848765 18.4626142 80.1932534 18.9774484 81.844 18.986 84.425 18.986 86.176 17.511 86.176 14.746L86.176 13.364C85.139439 14.9560774 83.3756723 15.924648 81.476 15.945 80.0008671 15.9732729 78.577803 15.3997331 77.534535 14.356465 76.4912669 13.313197 75.9177271 11.8901329 75.946 10.415 75.9130293 8.93006899 76.4820435 7.49492999 77.5236073 6.43603814 78.5651712 5.3771463 79.9907271 4.78453239 81.476 4.793 83.3433584 4.76566569 85.1032065 5.66431151 86.176 7.193L86.176 5.073 87.927 5.073 87.927 14.843C87.835 18.622 85.439 20.557 81.844 20.557L81.845 20.553zM81.753 6.267C80.6484027 6.19339064 79.5647267 6.59366175 78.7731954 7.36763316 77.9816641 8.14160458 77.5571861 9.21602949 77.606 10.322 77.5901788 11.4183455 78.0250969 12.4731211 78.8090582 13.2396904 79.5930195 14.0062597 80.6572852 14.417409 81.753 14.377 82.8821299 14.4445938 83.9903796 14.0512465 84.8242437 13.2869338 85.6581079 12.5226212 86.1462462 11.4527331 86.177 10.322 86.131372 9.19617126 85.6384586 8.13507249 84.807572 7.37402085 83.9766853 6.61296921 82.8764995 6.21486688 81.751 6.268L81.753 6.267z"/>
        </g>
      </g>
      <rect width="1280" height="161" fill="#7FBB65" fill-rule="nonzero"/>
      <path fill="#FFF" fill-rule="nonzero" d="M70.55,35 L87.4,35 C93.65,35 97.1,31.15 97.1,26 C97.1,21.9 94.2,18.35 90.65,17.8 C94.1775165,16.9859573 96.618564,13.7662999 96.45,10.15 C96.45,5.45 93.05,1.65 86.95,1.65 L70.55,1.65 L70.55,35 Z M76.4,15.45 L76.4,6.8 L85.75,6.8 C88.75,6.8 90.45,8.65 90.45,11.15 C90.45,13.65 88.75,15.45 85.75,15.45 L76.4,15.45 Z M76.4,29.85 L76.4,20.6 L86,20.6 C89.35,20.6 91.1,22.7 91.1,25.2 C91.1,28.1 89.2,29.85 86,29.85 L76.4,29.85 Z M113.7,35.6 C121.45,35.6 126.15,29.85 126.15,22.9 C126.15,16 121.45,10.25 113.7,10.25 C106.05,10.25 101.3,16 101.3,22.9 C101.3,29.85 106.05,35.6 113.7,35.6 Z M113.7,30.95 C109.25,30.95 106.75,27.2 106.75,22.9 C106.75,18.65 109.25,14.9 113.7,14.9 C118.2,14.9 120.7,18.65 120.7,22.9 C120.7,27.2 118.2,30.95 113.7,30.95 Z M129.35,31.85 C132.183405,34.3944787 135.894316,35.7390114 139.7,35.6 C146.2,35.6 149.75,32.35 149.75,28.1 C149.75,22.4 144.6,21.2 140.4,20.3 C137.55,19.65 135.15,19 135.15,17.15 C135.15,15.45 136.9,14.45 139.65,14.45 C142.330945,14.3910811 144.917558,15.4401969 146.8,17.35 L149,13.65 C146.40135,11.3823138 143.048027,10.1694098 139.6,10.25 C133.5,10.25 130.1,13.65 130.1,17.6 C130.1,23 135.05,24.1 139.2,25 C142.15,25.65 144.7,26.4 144.7,28.5 C144.7,30.3 143.1,31.45 139.95,31.45 C136.892052,31.3613119 133.9735,30.1511804 131.75,28.05 L129.35,31.85 Z M153.55,22.9 C153.55,30.25 158.7,35.6 166.05,35.6 C170.75,35.6 173.6,33.6 175.3,31.3 L171.85,28.1 C170.598449,29.9245337 168.512056,30.9959246 166.3,30.95 C161.9,30.95 159,27.6 159,22.9 C159,18.2 161.9,14.9 166.3,14.9 C168.517141,14.8317908 170.613598,15.9083498 171.85,17.75 L175.3,14.55 C173.6,12.25 170.75,10.25 166.05,10.25 C158.7,10.25 153.55,15.6 153.55,22.9 L153.55,22.9 Z M196.25,35 L201.5,35 L201.5,17.9 C201.5,12.95 198.9,10.25 193.7,10.25 C190.425857,10.2785231 187.317876,11.6961988 185.15,14.15 L185.15,1.65 L179.9,1.65 L179.9,35 L185.15,35 L185.15,18.15 C186.619042,16.1850466 188.898271,14.9902895 191.35,14.9 C194.3,14.9 196.25,16.05 196.25,19.8 L196.25,35 Z M237.5,35 L242.75,35 L242.75,17.9 C242.75,12.95 240.15,10.25 234.95,10.25 C231.675857,10.2785231 228.567876,11.6961988 226.4,14.15 L226.4,1.65 L221.15,1.65 L221.15,35 L226.4,35 L226.4,18.15 C227.869042,16.1850466 230.148271,14.9902895 232.6,14.9 C235.55,14.9 237.5,16.05 237.5,19.8 L237.5,35 Z M264.3,35 L269.55,35 L269.55,19 C269.55,12.5 264.85,10.25 259.5,10.25 C255.736271,10.1693903 252.091383,11.5698894 249.35,14.15 L251.5,17.8 C253.367081,15.8499629 255.950253,14.7480505 258.65,14.75 C262,14.75 264.3,16.45 264.3,19.25 L264.3,22.85 C262.55,20.8 259.75,19.75 256.5,19.75 C252.55,19.75 248.1,22.05 248.1,27.6 C248.1,32.95 252.55,35.6 256.5,35.6 C259.439805,35.7080439 262.283109,34.5415603 264.3,32.4 L264.3,35 Z M264.3,29.5 C262.877949,31.1842553 260.751617,32.1087471 258.55,32 C255.6,32 253.4,30.3 253.4,27.7 C253.4,25.05 255.6,23.35 258.55,23.35 C260.751617,23.2412529 262.877949,24.1657447 264.3,25.85 L264.3,29.5 Z M274.25,31.85 C277.083405,34.3944787 280.794316,35.7390114 284.6,35.6 C291.1,35.6 294.65,32.35 294.65,28.1 C294.65,22.4 289.5,21.2 285.3,20.3 C282.45,19.65 280.05,19 280.05,17.15 C280.05,15.45 281.8,14.45 284.55,14.45 C287.230945,14.3910811 289.817558,15.4401969 291.7,17.35 L293.9,13.65 C291.30135,11.3823138 287.948027,10.1694098 284.5,10.25 C278.4,10.25 275,13.65 275,17.6 C275,23 279.95,24.1 284.1,25 C287.05,25.65 289.6,26.4 289.6,28.5 C289.6,30.3 288,31.45 284.85,31.45 C281.792052,31.3613119 278.8735,30.1511804 276.65,28.05 L274.25,31.85 Z M329.8,35 L335.05,35 L335.05,1.65 L329.8,1.65 L329.8,14.2 C327.986196,11.732405 325.112449,10.2677211 322.05,10.25 C315.8,10.25 311.3,15.15 311.3,22.95 C311.3,30.9 315.85,35.6 322.05,35.6 C325.100159,35.5796811 327.966189,34.1374212 329.8,31.7 L329.8,35 Z M329.8,27.75 C328.332149,29.7358633 326.01928,30.9200526 323.55,30.95 C319.4,30.95 316.75,27.6 316.75,22.95 C316.75,18.25 319.4,14.9 323.55,14.9 C326.026426,14.9483559 328.338184,16.1504701 329.8,18.15 L329.8,27.75 Z M340.35,22.9 C340.35,30.55 345.75,35.6 353,35.6 C356.593805,35.7279029 360.100297,34.4755842 362.8,32.1 L360.4,28.65 C358.523877,30.3515515 356.082804,31.295908 353.55,31.3 C349.609658,31.5234892 346.202456,28.5809055 345.85,24.65 L364.5,24.65 L364.5,23.4 C364.5,15.8 359.85,10.25 352.6,10.25 C345.45,10.25 340.35,15.9 340.35,22.9 Z M352.6,14.55 C354.361111,14.4568401 356.08373,15.0878472 357.367964,16.2965383 C358.652198,17.5052293 359.386353,19.1864793 359.4,20.95 L345.8,20.95 C345.94206,17.3192311 348.967291,14.4719548 352.6,14.55 L352.6,14.55 Z M386.7,35 L391.95,35 L391.95,1.65 L386.7,1.65 L386.7,14.2 C384.886196,11.732405 382.012449,10.2677211 378.95,10.25 C372.7,10.25 368.2,15.15 368.2,22.95 C368.2,30.9 372.75,35.6 378.95,35.6 C382.000159,35.5796811 384.866189,34.1374212 386.7,31.7 L386.7,35 Z M386.7,27.75 C385.232149,29.7358633 382.91928,30.9200526 380.45,30.95 C376.3,30.95 373.65,27.6 373.65,22.95 C373.65,18.25 376.3,14.9 380.45,14.9 C382.926426,14.9483559 385.238184,16.1504701 386.7,18.15 L386.7,27.75 Z M401.35,7.15000557 C402.212442,7.15159663 403.04002,6.80969964 403.64986,6.19985996 C404.2597,5.59002028 404.601597,4.76244207 404.6,3.9 C404.601597,3.03755793 404.2597,2.20997972 403.64986,1.60014004 C403.04002,0.990300364 402.212442,0.648403374 401.35,0.649994433 C399.560966,0.664143225 398.114143,2.11096563 398.1,3.9 C398.114143,5.68903437 399.560966,7.13585677 401.35,7.15000557 L401.35,7.15000557 Z M398.75,35 L404,35 L404,10.85 L398.75,10.85 L398.75,35 Z M409.3,22.9 C409.3,30.25 414.45,35.6 421.8,35.6 C426.5,35.6 429.35,33.6 431.05,31.3 L427.6,28.1 C426.348449,29.9245337 424.262056,30.9959246 422.05,30.95 C417.65,30.95 414.75,27.6 414.75,22.9 C414.75,18.2 417.65,14.9 422.05,14.9 C424.267141,14.8317908 426.363598,15.9083498 427.6,17.75 L431.05,14.55 C429.35,12.25 426.5,10.25 421.8,10.25 C414.45,10.25 409.3,15.6 409.3,22.9 Z M450.4,35 L455.65,35 L455.65,19 C455.65,12.5 450.95,10.25 445.6,10.25 C441.836271,10.1693903 438.191383,11.5698894 435.45,14.15 L437.6,17.8 C439.467081,15.8499629 442.050253,14.7480505 444.75,14.75 C448.1,14.75 450.4,16.45 450.4,19.25 L450.4,22.85 C448.65,20.8 445.85,19.75 442.6,19.75 C438.65,19.75 434.2,22.05 434.2,27.6 C434.2,32.95 438.65,35.6 442.6,35.6 C445.539805,35.7080439 448.383109,34.5415603 450.4,32.4 L450.4,35 Z M450.4,29.5 C448.977949,31.1842553 446.851617,32.1087471 444.65,32 C441.7,32 439.5,30.3 439.5,27.7 C439.5,25.05 441.7,23.35 444.65,23.35 C446.851617,23.2412529 448.977949,24.1657447 450.4,25.85 L450.4,29.5 Z M469.7,35.6 C471.488484,35.7440203 473.263064,35.1883437 474.65,34.05 L473.4,30.1 C472.753543,30.6723426 471.91301,30.9763652 471.05,30.95 C469.55,30.95 468.75,29.75 468.75,28.1 L468.75,15.45 L473.65,15.45 L473.65,10.85 L468.75,10.85 L468.75,4.25 L463.5,4.25 L463.5,10.85 L459.5,10.85 L459.5,15.45 L463.5,15.45 L463.5,29.4 C463.5,33.4 465.65,35.6 469.7,35.6 Z M476.9,22.9 C476.9,30.55 482.3,35.6 489.55,35.6 C493.143805,35.7279029 496.650297,34.4755842 499.35,32.1 L496.95,28.65 C495.073877,30.3515515 492.632804,31.295908 490.1,31.3 C486.159658,31.5234892 482.752456,28.5809055 482.4,24.65 L501.05,24.65 L501.05,23.4 C501.05,15.8 496.4,10.25 489.15,10.25 C482,10.25 476.9,15.9 476.9,22.9 Z M489.15,14.55 C490.911111,14.4568401 492.63373,15.0878472 493.917964,16.2965383 C495.202198,17.5052293 495.936353,19.1864793 495.95,20.95 L482.35,20.95 C482.49206,17.3192311 485.517291,14.4719548 489.15,14.55 L489.15,14.55 Z M523.25,35 L528.5,35 L528.5,1.65 L523.25,1.65 L523.25,14.2 C521.436196,11.732405 518.562449,10.2677211 515.5,10.25 C509.25,10.25 504.75,15.15 504.75,22.95 C504.75,30.9 509.3,35.6 515.5,35.6 C518.550159,35.5796811 521.416189,34.1374212 523.25,31.7 L523.25,35 Z M523.25,27.75 C521.782149,29.7358633 519.46928,30.9200526 517,30.95 C512.85,30.95 510.2,27.6 510.2,22.95 C510.2,18.25 512.85,14.9 517,14.9 C519.476426,14.9483559 521.788184,16.1504701 523.25,18.15 L523.25,27.75 Z M547.55,30.45 C550.25,33.65 554.2,35.6 559.95,35.6 C567.4,35.6 572.65,31.25 572.65,24.3 C572.764845,21.4327606 571.683132,18.6467182 569.663565,16.6081887 C567.643999,14.5696592 564.868187,13.4619561 562,13.55 C559.203876,13.5088471 556.499586,14.5475808 554.45,16.45 L554.45,6.8 L570.45,6.8 L570.45,1.65 L548.6,1.65 L548.6,20.3 L552.75,21.5 C554.687943,19.5811825 557.323621,18.5341324 560.05,18.6 C564.15,18.6 566.75,20.95 566.75,24.55 C566.75,27.8 564.1,30.4 559.9,30.4 C556.460109,30.496222 553.157901,29.0469193 550.9,26.45 L547.55,30.45 Z M576.8,18.35 C576.8,26.75 580.8,35.6 590.15,35.6 C599.5,35.6 603.5,26.75 603.5,18.35 C603.5,9.95 599.5,1.15 590.15,1.15 C580.8,1.15 576.8,9.95 576.8,18.35 Z M597.55,18.35 C597.55,24.7 595.6,30.4 590.15,30.4 C584.7,30.4 582.75,24.7 582.75,18.35 C582.75,12 584.7,6.35 590.15,6.35 C595.6,6.35 597.55,12 597.55,18.35 Z M606.95,9.5 C606.868719,11.7074729 607.713504,13.8485005 609.280221,15.4057225 C610.846939,16.9629445 612.993062,17.794699 615.2,17.7 C617.419358,17.8069403 619.582606,16.982562 621.167925,15.4257222 C622.753243,13.8688824 623.616696,11.7209315 623.55,9.5 C623.631504,7.26145013 622.777976,5.08990939 621.194033,3.50596676 C619.610091,1.92202413 617.43855,1.0684957 615.2,1.15 C612.973942,1.08091759 610.819645,1.9418693 609.254342,3.52614583 C607.689038,5.11042236 606.854104,7.27493595 606.95,9.5 Z M612,35 L615.3,35 L636.65,1.65 L633.3,1.65 L612,35 Z M619.65,9.5 C619.65,12.35 617.8,14.4 615.2,14.4 C612.65,14.4 610.8,12.35 610.8,9.5 C610.8,6.5 612.65,4.5 615.2,4.5 C617.8,4.5 619.65,6.5 619.65,9.5 Z M624.9,27.4 C624.818719,29.6074729 625.663504,31.7485005 627.230221,33.3057225 C628.796939,34.8629445 630.943062,35.694699 633.15,35.6 C635.361971,35.6965396 637.514144,34.8670834 639.089192,33.3110119 C640.66424,31.7549404 641.519722,29.6129784 641.45,27.4 C641.534313,25.1694167 640.688662,23.0039659 639.115022,21.4208463 C637.541382,19.8377266 635.381049,18.9790849 633.15,19.05 C630.923942,18.9809176 628.769645,19.8418693 627.204342,21.4261458 C625.639038,23.0104224 624.804104,25.174936 624.9,27.4 Z M637.6,27.4 C637.6,30.3 635.75,32.3 633.15,32.3 C630.55,32.3 628.75,30.3 628.75,27.4 C628.75,24.4 630.55,22.4 633.15,22.4 C635.75,22.4 637.6,24.4 637.6,27.4 Z M670,35.6 C677.75,35.6 682.45,29.85 682.45,22.9 C682.45,16 677.75,10.25 670,10.25 C662.35,10.25 657.6,16 657.6,22.9 C657.6,29.85 662.35,35.6 670,35.6 Z M670,30.95 C665.55,30.95 663.05,27.2 663.05,22.9 C663.05,18.65 665.55,14.9 670,14.9 C674.5,14.9 677,18.65 677,22.9 C677,27.2 674.5,30.95 670,30.95 Z M689,35 L694.25,35 L694.25,15.45 L699.15,15.45 L699.15,10.85 L694.25,10.85 L694.25,9.5 C694.25,6.8 695.55,5.45 697.6,5.45 C698.331569,5.43122673 699.055386,5.60356421 699.7,5.95 L700.85,2.1 C699.551724,1.43639467 698.107487,1.10972207 696.65,1.15 C692.2,1.15 689,4.1 689,9.5 L689,10.85 L685,10.85 L685,15.45 L689,15.45 L689,35 Z M735.2,35 L741.95,35 L733.8,21.9 C737.8,21.25 741.7,18.05 741.7,12.1 C741.7,5.95 737.4,1.65 730.8,1.65 L716.15,1.65 L716.15,35 L722,35 L722,22.55 L727.8,22.55 L735.2,35 Z M735.7,12.1 C735.7,15.3 733.3,17.4 730,17.4 L722,17.4 L722,6.8 L730,6.8 C733.3,6.8 735.7,8.9 735.7,12.1 Z M768.65,28.45 C770.484039,25.8787835 772.026829,23.1118217 773.25,20.2 L768.95,18.25 C768.168491,20.7048989 767.058422,23.0427716 765.65,25.2 C764.55,23.95 763.45,22.7 762.35,21.35 C761.4,20.25 760.2,18.8 759.1,17.25 C763.25,15.2 767.4,13.05 767.4,8 C767.4,3.65 763.7,1.15 759.15,1.15 C753.95,1.15 750.1,4.55 750.1,9.05 C750.263701,11.6409676 751.071441,14.1501167 752.45,16.35 C748.65,18.35 745.2,20.95 745.2,26.1 C745.2,32.45 750,35.6000375 755.95,35.6000375 C759.38836,35.6079093 762.711999,34.3637664 765.3,32.1 C766.4,33.2 767.45,34.25 768.25,35 L775.1,35 C772.75,32.7 770.65,30.55 768.65,28.45 Z M755.4,9.15 C755.356731,8.06735329 755.760885,7.01460791 756.517527,6.23905031 C757.274168,5.4634927 758.316615,5.03347248 759.4,5.05 C760.283524,4.97274296 761.157542,5.27959715 761.798865,5.8922042 C762.440188,6.50481124 762.786731,7.36386601 762.75,8.25 C762.75,11.05 760.2,12.65 757.05,14.15 C756.114241,12.6363791 755.548918,10.9232785 755.4,9.15 Z M756.6,31.4 C755.052037,31.4630316 753.547631,30.8792056 752.447416,29.7884757 C751.347202,28.6977458 750.750373,27.1984511 750.8,25.65 C750.8,22.85 752.4,21.1 754.55,19.65 C755.75,21.35 757.05,23 758.25,24.45 C759.15,25.5 760.7,27.25 762.35,29.05 C760.775925,30.4955778 758.735979,31.3292946 756.6,31.4 Z M779.5,35 L791.9,35 C802.3,35 809.35,28.15 809.35,18.35 C809.35,8.55 802.3,1.65 791.9,1.65 L779.5,1.65 L779.5,35 Z M785.35,29.85 L785.35,6.8 L791.9,6.8 C799.35,6.8 803.35,11.9 803.35,18.35 C803.35,24.65 799.15,29.85 791.9,29.85 L785.35,29.85 Z M827.7,35 L832.95,35 L832.95,31.7 C834.77642,34.1462519 837.647153,35.5908792 840.7,35.6 C846.85,35.6 851.4,30.9 851.4,22.95 C851.4,15.15 846.9,10.25 840.7,10.25 C837.632135,10.2452743 834.748823,11.7148335 832.95,14.2 L832.95,1.65 L827.7,1.65 L827.7,35 Z M832.95,27.75 L832.95,18.2 C834.385168,16.1889956 836.680323,14.9673809 839.15,14.9 C843.35,14.9 846,18.25 846,22.95 C846,27.65 843.35,30.95 839.15,30.95 C836.694594,30.9197245 834.397079,29.7339104 832.95,27.75 L832.95,27.75 Z M873.05,35 L878.3,35 L878.3,10.85 L873.05,10.85 L873.05,27.8 C871.568584,29.736636 869.287659,30.8954933 866.85,30.95 C863.9,30.95 862,29.8 862,26.05 L862,10.85 L856.75,10.85 L856.75,27.95 C856.75,32.9 859.3,35.6 864.5,35.6 C867.757764,35.5929672 870.861742,34.2134212 873.05,31.8 L873.05,35 Z M902.1,35 L907.35,35 L907.35,1.65 L902.1,1.65 L902.1,14.2 C900.286196,11.732405 897.412449,10.2677211 894.35,10.25 C888.1,10.25 883.6,15.15 883.6,22.95 C883.6,30.9 888.15,35.6 894.35,35.6 C897.400159,35.5796811 900.266189,34.1374212 902.1,31.7 L902.1,35 Z M902.1,27.75 C900.632149,29.7358633 898.31928,30.9200526 895.85,30.95 C891.7,30.95 889.05,27.6 889.05,22.95 C889.05,18.25 891.7,14.9 895.85,14.9 C898.326426,14.9483559 900.638184,16.1504701 902.1,18.15 L902.1,27.75 Z M913.85,41.2 C916.8,43.9 919.85,44.8 923.95,44.8 C929.9,44.8 936.35,42.45 936.35,33.75 L936.35,10.85 L931.1,10.85 L931.1,14.2 C929.293666,11.7236266 926.415163,10.2565183 923.35,10.25 C917.15,10.25 912.65,14.85 912.65,22.65 C912.65,30.6 917.2,35.05 923.35,35.05 C926.416964,35.0029847 929.285005,33.5227052 931.1,31.05 L931.1,33.95 C931.1,38.9 927.4,40.5 923.95,40.5 C920.75,40.5 918.25,39.65 916.3,37.4 L913.85,41.2 Z M931.1,27.15 C929.658868,29.1474207 927.362552,30.3511347 924.9,30.4 C920.75,30.4 918.1,27.3 918.1,22.65 C918.1,18 920.75,14.9 924.9,14.9 C927.362552,14.9488653 929.658868,16.1525793 931.1,18.15 L931.1,27.15 Z M941.65,22.9 C941.65,30.55 947.05,35.6 954.3,35.6 C957.893805,35.7279029 961.400297,34.4755842 964.1,32.1 L961.7,28.65 C959.823877,30.3515515 957.382804,31.295908 954.85,31.3 C950.909658,31.5234892 947.502456,28.5809055 947.15,24.65 L965.8,24.65 L965.8,23.4 C965.8,15.8 961.15,10.25 953.9,10.25 C946.75,10.25 941.65,15.9 941.65,22.9 L941.65,22.9 Z M953.9,14.55 C955.661111,14.4568401 957.38373,15.0878472 958.667964,16.2965383 C959.952198,17.5052293 960.686353,19.1864793 960.7,20.95 L947.1,20.95 C947.24206,17.3192311 950.267291,14.4719548 953.9,14.55 L953.9,14.55 Z M978.25,35.6 C980.038484,35.7440203 981.813064,35.1883437 983.2,34.05 L981.95,30.1 C981.303543,30.6723426 980.46301,30.9763652 979.6,30.95 C978.1,30.95 977.3,29.75 977.3,28.1 L977.3,15.45 L982.2,15.45 L982.2,10.85 L977.3,10.85 L977.3,4.25 L972.05,4.25 L972.05,10.85 L968.05,10.85 L968.05,15.45 L972.05,15.45 L972.05,29.4 C972.05,33.4 974.2,35.6 978.25,35.6 Z M1007.05,35.6 C1008.83848,35.7440203 1010.61306,35.1883437 1012,34.05 L1010.75,30.1 C1010.10354,30.6723426 1009.26301,30.9763652 1008.4,30.95 C1006.9,30.95 1006.1,29.75 1006.1,28.1 L1006.1,15.45 L1011,15.45 L1011,10.85 L1006.1,10.85 L1006.1,4.25 L1000.85,4.25 L1000.85,10.85 L996.85,10.85 L996.85,15.45 L1000.85,15.45 L1000.85,29.4 C1000.85,33.4 1003,35.6 1007.05,35.6 Z M1026.65,35.6 C1034.4,35.6 1039.1,29.85 1039.1,22.9 C1039.1,16 1034.4,10.25 1026.65,10.25 C1019,10.25 1014.25,16 1014.25,22.9 C1014.25,29.85 1019,35.6 1026.65,35.6 Z M1026.65,30.95 C1022.2,30.95 1019.7,27.2 1019.7,22.9 C1019.7,18.65 1022.2,14.9 1026.65,14.9 C1031.15,14.9 1033.65,18.65 1033.65,22.9 C1033.65,27.2 1031.15,30.95 1026.65,30.95 Z M0.75,85.85 C3.58340543,88.3944787 7.29431555,89.7390114 11.1,89.6 C17.6,89.6 21.15,86.35 21.15,82.1 C21.15,76.4 16,75.2 11.8,74.3 C8.95,73.65 6.55,73 6.55,71.15 C6.55,69.45 8.3,68.45 11.05,68.45 C13.7309448,68.3910811 16.3175578,69.4401969 18.2,71.35 L20.4,67.65 C17.8013497,65.3823138 14.4480269,64.1694098 11,64.25 C4.9,64.25 1.5,67.65 1.5,71.6 C1.5,77 6.45,78.1 10.6,79 C13.55,79.65 16.1,80.4 16.1,82.5 C16.1,84.3 14.5,85.45 11.35,85.45 C8.29205224,85.3613119 5.37349978,84.1511804 3.15,82.05 L0.75,85.85 Z M42.75,89 L48,89 L48,64.85 L42.75,64.85 L42.75,81.8 C41.2685843,83.736636 38.9876589,84.8954933 36.55,84.95 C33.6,84.95 31.7,83.8 31.7,80.05 L31.7,64.85 L26.45,64.85 L26.45,81.95 C26.45,86.9 29,89.6 34.2,89.6 C37.4577638,89.5929672 40.5617421,88.2134212 42.75,85.8 L42.75,89 Z M60.05,98.2 L60.05,85.65 C61.8413862,88.1438413 64.7294857,89.6158404 67.8,89.6 C74.05,89.6 78.5,84.85 78.5,76.9 C78.5,68.95 74.05,64.2499973 67.8,64.2499973 C64.7444383,64.2477144 61.868877,65.6947711 60.05,68.15 L60.05,64.85 L54.8,64.85 L54.8,98.2 L60.05,98.2 Z M73.05,76.9 C73.05,81.6 70.4,84.95 66.25,84.95 C63.7931045,84.8793059 61.505866,83.6803503 60.05,81.7 L60.05,72.15 C61.4911319,70.1525793 63.7874479,68.9488653 66.25,68.9 C70.4,68.9 73.05,72.25 73.05,76.9 Z M89.05,98.2 L89.05,85.65 C90.8413862,88.1438413 93.7294857,89.6158404 96.8,89.6 C103.05,89.6 107.5,84.85 107.5,76.9 C107.5,68.95 103.05,64.2499973 96.8,64.2499973 C93.7444383,64.2477144 90.868877,65.6947711 89.05,68.15 L89.05,64.85 L83.8,64.85 L83.8,98.2 L89.05,98.2 Z M102.05,76.9 C102.05,81.6 99.4,84.95 95.25,84.95 C92.7931045,84.8793059 90.505866,83.6803503 89.05,81.7 L89.05,72.15 C90.4911319,70.1525793 92.7874479,68.9488653 95.25,68.9 C99.4,68.9 102.05,72.25 102.05,76.9 Z M123.7,89.6 C131.45,89.6 136.15,83.85 136.15,76.9 C136.15,70 131.45,64.25 123.7,64.25 C116.05,64.25 111.3,70 111.3,76.9 C111.3,83.85 116.05,89.6 123.7,89.6 L123.7,89.6 Z M123.7,84.95 C119.25,84.95 116.75,81.2 116.75,76.9 C116.75,72.65 119.25,68.9 123.7,68.9 C128.2,68.9 130.7,72.65 130.7,76.9 C130.7,81.2 128.2,84.95 123.7,84.95 Z M141.45,89 L146.7,89 L146.7,72.55 C148.199668,70.6284726 150.464978,69.4592802 152.9,69.35 C153.453783,69.3408129 154.006952,69.391101 154.55,69.5 L154.55,64.3 C151.449849,64.4163909 148.566798,65.9221882 146.7,68.4 L146.7,64.85 L141.45,64.85 L141.45,89 Z M166.05,89.6 C167.838484,89.7440203 169.613064,89.1883437 171,88.05 L169.75,84.1 C169.103543,84.6723426 168.26301,84.9763652 167.4,84.95 C165.9,84.95 165.1,83.75 165.1,82.1 L165.1,69.45 L170,69.45 L170,64.85 L165.1,64.85 L165.1,58.25 L159.85,58.25 L159.85,64.85 L155.85,64.85 L155.85,69.45 L159.85,69.45 L159.85,83.4 C159.85,87.4 162,89.6 166.05,89.6 Z M194.85,89.6 C196.638484,89.7440203 198.413064,89.1883437 199.8,88.05 L198.55,84.1 C197.903543,84.6723426 197.06301,84.9763652 196.2,84.95 C194.7,84.95 193.9,83.75 193.9,82.1 L193.9,69.45 L198.8,69.45 L198.8,64.85 L193.9,64.85 L193.9,58.25 L188.65,58.25 L188.65,64.85 L184.65,64.85 L184.65,69.45 L188.65,69.45 L188.65,83.4 C188.65,87.4 190.8,89.6 194.85,89.6 Z M202.05,76.9 C202.05,84.55 207.45,89.6 214.7,89.6 C218.293805,89.7279029 221.800297,88.4755842 224.5,86.1 L222.1,82.65 C220.223877,84.3515515 217.782804,85.295908 215.25,85.3 C211.309658,85.5234892 207.902456,82.5809055 207.55,78.65 L226.2,78.65 L226.2,77.4 C226.2,69.8 221.55,64.25 214.3,64.25 C207.15,64.25 202.05,69.9 202.05,76.9 L202.05,76.9 Z M214.3,68.55 C216.061111,68.4568401 217.78373,69.0878472 219.067964,70.2965383 C220.352198,71.5052293 221.086353,73.1864793 221.1,74.95 L207.5,74.95 C207.64206,71.3192311 210.667291,68.4719548 214.3,68.55 L214.3,68.55 Z M229.9,76.9 C229.9,84.25 235.05,89.6 242.4,89.6 C247.1,89.6 249.95,87.6 251.65,85.3 L248.2,82.1 C246.948449,83.9245337 244.862056,84.9959246 242.65,84.95 C238.25,84.95 235.35,81.6 235.35,76.9 C235.35,72.2 238.25,68.9 242.65,68.9 C244.867141,68.8317908 246.963598,69.9083498 248.2,71.75 L251.65,68.55 C249.95,66.25 247.1,64.25 242.4,64.25 C235.05,64.25 229.9,69.6 229.9,76.9 L229.9,76.9 Z M272.6,89 L277.85,89 L277.85,71.9 C277.85,66.95 275.25,64.25 270.05,64.25 C266.775857,64.2785231 263.667876,65.6961988 261.5,68.15 L261.5,55.65 L256.25,55.65 L256.25,89 L261.5,89 L261.5,72.15 C262.969042,70.1850466 265.248271,68.9902895 267.7,68.9 C270.65,68.9 272.6,70.05 272.6,73.8 L272.6,89 Z M300.95,89 L306.2,89 L306.2,72 C306.2,67.05 303.6,64.25 298.4,64.25 C295.140034,64.2778532 292.047212,65.696913 289.9,68.15 L289.9,64.85 L284.65,64.85 L284.65,89 L289.9,89 L289.9,72.15 C291.352834,70.1661245 293.64193,68.9661952 296.1,68.9 C299.05,68.9 300.95,70.15 300.95,73.9 L300.95,89 Z M323.9,89.6 C331.65,89.6 336.35,83.85 336.35,76.9 C336.35,70 331.65,64.25 323.9,64.25 C316.25,64.25 311.5,70 311.5,76.9 C311.5,83.85 316.25,89.6 323.9,89.6 Z M323.9,84.95 C319.45,84.95 316.95,81.2 316.95,76.9 C316.95,72.65 319.45,68.9 323.9,68.9 C328.4,68.9 330.9,72.65 330.9,76.9 C330.9,81.2 328.4,84.95 323.9,84.95 Z M341.65,89 L346.9,89 L346.9,55.65 L341.65,55.65 L341.65,89 Z M364.6,89.6 C372.35,89.6 377.05,83.85 377.05,76.9 C377.05,70 372.35,64.25 364.6,64.25 C356.95,64.25 352.2,70 352.2,76.9 C352.2,83.85 356.95,89.6 364.6,89.6 Z M364.6,84.95 C360.15,84.95 357.65,81.2 357.65,76.9 C357.65,72.65 360.15,68.9 364.6,68.9 C369.1,68.9 371.6,72.65 371.6,76.9 C371.6,81.2 369.1,84.95 364.6,84.95 Z M382.05,95.2 C385,97.9 388.05,98.8 392.15,98.8 C398.1,98.8 404.55,96.45 404.55,87.75 L404.55,64.85 L399.3,64.85 L399.3,68.2 C397.493666,65.7236266 394.615163,64.2565183 391.55,64.25 C385.35,64.25 380.85,68.85 380.85,76.65 C380.85,84.6 385.4,89.05 391.55,89.05 C394.616964,89.0029847 397.485005,87.5227052 399.3,85.05 L399.3,87.95 C399.3,92.9 395.6,94.5 392.15,94.5 C388.95,94.5 386.45,93.65 384.5,91.4 L382.05,95.2 Z M399.3,81.15 C397.858868,83.1474207 395.562552,84.3511347 393.1,84.4 C388.95,84.4 386.3,81.3 386.3,76.65 C386.3,72 388.95,68.9 393.1,68.9 C395.562552,68.9488653 397.858868,70.1525793 399.3,72.15 L399.3,81.15 Z M411.1,93.75 L410.3,98.45 C411.269161,98.6649901 412.257439,98.7822435 413.25,98.8 C417,98.75 419.9,97.45 421.55,93.35 L433.2,64.85 L427.55,64.85 L420.5,82.95 L413.45,64.85 L407.85,64.85 L417.75,89.3 L416.55,92.05 C416.021077,93.4611743 414.596452,94.3283371 413.1,94.15 C412.414193,94.1428328 411.735809,94.0071559 411.1,93.75 Z M456.6,89.6 C458.388484,89.7440203 460.163064,89.1883437 461.55,88.05 L460.3,84.1 C459.653543,84.6723426 458.81301,84.9763652 457.95,84.95 C456.45,84.95 455.65,83.75 455.65,82.1 L455.65,69.45 L460.55,69.45 L460.55,64.85 L455.65,64.85 L455.65,58.25 L450.4,58.25 L450.4,64.85 L446.4,64.85 L446.4,69.45 L450.4,69.45 L450.4,83.4 C450.4,87.4 452.55,89.6 456.6,89.6 Z M481.65,89 L486.9,89 L486.9,71.9 C486.9,66.95 484.3,64.25 479.1,64.25 C475.825857,64.2785231 472.717876,65.6961988 470.55,68.15 L470.55,55.65 L465.3,55.65 L465.3,89 L470.55,89 L470.55,72.15 C472.019042,70.1850466 474.298271,68.9902895 476.75,68.9 C479.7,68.9 481.65,70.05 481.65,73.8 L481.65,89 Z M508.45,89 L513.7,89 L513.7,73 C513.7,66.5 509,64.25 503.65,64.25 C499.886271,64.1693903 496.241383,65.5698894 493.5,68.15 L495.65,71.8 C497.517081,69.8499629 500.100253,68.7480505 502.8,68.75 C506.15,68.75 508.45,70.45 508.45,73.25 L508.45,76.85 C506.7,74.8 503.9,73.75 500.65,73.75 C496.7,73.75 492.25,76.05 492.25,81.6 C492.25,86.95 496.7,89.6 500.65,89.6 C503.589805,89.7080439 506.433109,88.5415603 508.45,86.4 L508.45,89 Z M508.45,83.5 C507.027949,85.1842553 504.901617,86.1087471 502.7,86 C499.75,86 497.55,84.3 497.55,81.7 C497.55,79.05 499.75,77.35 502.7,77.35 C504.901617,77.2412529 507.027949,78.1657447 508.45,79.85 L508.45,83.5 Z M527.75,89.6 C529.538484,89.7440203 531.313064,89.1883437 532.7,88.05 L531.45,84.1 C530.803543,84.6723426 529.96301,84.9763652 529.1,84.95 C527.6,84.95 526.8,83.75 526.8,82.1 L526.8,69.45 L531.7,69.45 L531.7,64.85 L526.8,64.85 L526.8,58.25 L521.55,58.25 L521.55,64.85 L517.55,64.85 L517.55,69.45 L521.55,69.45 L521.55,83.4 C521.55,87.4 523.7,89.6 527.75,89.6 Z M554.55,98.2 L554.55,85.65 C556.341386,88.1438413 559.229486,89.6158404 562.3,89.6 C568.55,89.6 573,84.85 573,76.9 C573,68.95 568.55,64.2499973 562.3,64.2499973 C559.244438,64.2477144 556.368877,65.6947711 554.55,68.15 L554.55,64.85 L549.3,64.85 L549.3,98.2 L554.55,98.2 Z M567.55,76.9 C567.55,81.6 564.9,84.95 560.75,84.95 C558.293104,84.8793059 556.005866,83.6803503 554.55,81.7 L554.55,72.15 C555.991132,70.1525793 558.287448,68.9488653 560.75,68.9 C564.9,68.9 567.55,72.25 567.55,76.9 L567.55,76.9 Z M578.3,89 L583.55,89 L583.55,72.55 C585.049668,70.6284726 587.314978,69.4592802 589.75,69.35 C590.303783,69.3408129 590.856952,69.391101 591.4,69.5 L591.4,64.3 C588.299849,64.4163909 585.416798,65.9221882 583.55,68.4 L583.55,64.85 L578.3,64.85 L578.3,89 Z M606.55,89.6 C614.3,89.6 619,83.85 619,76.9 C619,70 614.3,64.25 606.55,64.25 C598.9,64.25 594.15,70 594.15,76.9 C594.15,83.85 598.9,89.6 606.55,89.6 Z M606.55,84.95 C602.1,84.95 599.6,81.2 599.6,76.9 C599.6,72.65 602.1,68.9 606.55,68.9 C611.05,68.9 613.55,72.65 613.55,76.9 C613.55,81.2 611.05,84.95 606.55,84.95 Z M631.55,89.6 C633.338484,89.7440203 635.113064,89.1883437 636.5,88.05 L635.25,84.1 C634.603543,84.6723426 633.76301,84.9763652 632.9,84.95 C631.4,84.95 630.6,83.75 630.6,82.1 L630.6,69.45 L635.5,69.45 L635.5,64.85 L630.6,64.85 L630.6,58.25 L625.35,58.25 L625.35,64.85 L621.35,64.85 L621.35,69.45 L625.35,69.45 L625.35,83.4 C625.35,87.4 627.5,89.6 631.55,89.6 Z M638.75,76.9 C638.75,84.55 644.15,89.6 651.4,89.6 C654.993805,89.7279029 658.500297,88.4755842 661.2,86.1 L658.8,82.65 C656.923877,84.3515515 654.482804,85.295908 651.95,85.3 C648.009658,85.5234892 644.602456,82.5809055 644.25,78.65 L662.9,78.65 L662.9,77.4 C662.9,69.8 658.25,64.25 651,64.25 C643.85,64.25 638.75,69.9 638.75,76.9 L638.75,76.9 Z M651,68.55 C652.761111,68.4568401 654.48373,69.0878472 655.767964,70.2965383 C657.052198,71.5052293 657.786353,73.1864793 657.8,74.95 L644.2,74.95 C644.34206,71.3192311 647.367291,68.4719548 651,68.55 Z M666.6,76.9 C666.6,84.25 671.75,89.6 679.1,89.6 C683.8,89.6 686.65,87.6 688.35,85.3 L684.9,82.1 C683.648449,83.9245337 681.562056,84.9959246 679.35,84.95 C674.95,84.95 672.05,81.6 672.05,76.9 C672.05,72.2 674.95,68.9 679.35,68.9 C681.567141,68.8317908 683.663598,69.9083498 684.9,71.75 L688.35,68.55 C686.65,66.25 683.8,64.25 679.1,64.25 C671.75,64.25 666.6,69.6 666.6,76.9 Z M700.2,89.6 C701.988484,89.7440203 703.763064,89.1883437 705.15,88.05 L703.9,84.1 C703.253543,84.6723426 702.41301,84.9763652 701.55,84.95 C700.05,84.95 699.25,83.75 699.25,82.1 L699.25,69.45 L704.15,69.45 L704.15,64.85 L699.25,64.85 L699.25,58.25 L694,58.25 L694,64.85 L690,64.85 L690,69.45 L694,69.45 L694,83.4 C694,87.4 696.15,89.6 700.2,89.6 L700.2,89.6 Z M706.8,85.85 C709.633405,88.3944787 713.344316,89.7390114 717.15,89.6 C723.65,89.6 727.2,86.35 727.2,82.1 C727.2,76.4 722.05,75.2 717.85,74.3 C715,73.65 712.6,73 712.6,71.15 C712.6,69.45 714.35,68.45 717.1,68.45 C719.780945,68.3910811 722.367558,69.4401969 724.25,71.35 L726.45,67.65 C723.85135,65.3823138 720.498027,64.1694098 717.05,64.25 C710.95,64.25 707.55,67.65 707.55,71.6 C707.55,77 712.5,78.1 716.65,79 C719.6,79.65 722.15,80.4 722.15,82.5 C722.15,84.3 720.55,85.45 717.4,85.45 C714.342052,85.3613119 711.4235,84.1511804 709.2,82.05 L706.8,85.85 Z M752.6,89.6 C754.388484,89.7440203 756.163064,89.1883437 757.55,88.05 L756.3,84.1 C755.653543,84.6723426 754.81301,84.9763652 753.95,84.95 C752.45,84.95 751.65,83.75 751.65,82.1 L751.65,69.45 L756.55,69.45 L756.55,64.85 L751.65,64.85 L751.65,58.25 L746.4,58.25 L746.4,64.85 L742.4,64.85 L742.4,69.45 L746.4,69.45 L746.4,83.4 C746.4,87.4 748.55,89.6 752.6,89.6 L752.6,89.6 Z M777.65,89 L782.9,89 L782.9,71.9 C782.9,66.95 780.3,64.25 775.1,64.25 C771.825857,64.2785231 768.717876,65.6961988 766.55,68.15 L766.55,55.65 L761.3,55.65 L761.3,89 L766.55,89 L766.55,72.15 C768.019042,70.1850466 770.298271,68.9902895 772.75,68.9 C775.7,68.9 777.65,70.05 777.65,73.8 L777.65,89 Z M788.2,76.9 C788.2,84.55 793.6,89.6 800.85,89.6 C804.443805,89.7279029 807.950297,88.4755842 810.65,86.1 L808.25,82.65 C806.373877,84.3515515 803.932804,85.295908 801.4,85.3 C797.459658,85.5234892 794.052456,82.5809055 793.7,78.65 L812.35,78.65 L812.35,77.4 C812.35,69.8 807.7,64.25 800.45,64.25 C793.3,64.25 788.2,69.9 788.2,76.9 Z M800.45,68.55 C802.211111,68.4568401 803.93373,69.0878472 805.217964,70.2965383 C806.502198,71.5052293 807.236353,73.1864793 807.25,74.95 L793.65,74.95 C793.79206,71.3192311 796.817291,68.4719548 800.45,68.55 L800.45,68.55 Z M828.9,76.9 C828.9,84.55 834.3,89.6 841.55,89.6 C845.143805,89.7279029 848.650297,88.4755842 851.35,86.1 L848.95,82.65 C847.073877,84.3515515 844.632804,85.295908 842.1,85.3 C838.159658,85.5234892 834.752456,82.5809055 834.4,78.65 L853.05,78.65 L853.05,77.4 C853.05,69.8 848.4,64.25 841.15,64.25 C834,64.25 828.9,69.9 828.9,76.9 Z M841.15,68.55 C842.911111,68.4568401 844.63373,69.0878472 845.917964,70.2965383 C847.202198,71.5052293 847.936353,73.1864793 847.95,74.95 L834.35,74.95 C834.49206,71.3192311 837.517291,68.4719548 841.15,68.55 L841.15,68.55 Z M874.55,89 L879.8,89 L879.8,72 C879.8,67.05 877.2,64.25 872,64.25 C868.740034,64.2778532 865.647212,65.696913 863.5,68.15 L863.5,64.85 L858.25,64.85 L858.25,89 L863.5,89 L863.5,72.15 C864.952834,70.1661245 867.24193,68.9661952 869.7,68.9 C872.65,68.9 874.55,70.15 874.55,73.9 L874.55,89 Z M892.95,89 L898.6,89 L908.45,64.85 L902.8,64.85 L895.75,82.95 L888.7,64.85 L883.1,64.85 L892.95,89 Z M914.35,61.15 C916.144925,61.15 917.599994,59.6949254 917.599994,57.9 C917.599994,56.1050746 916.144925,54.65 914.35,54.65 C912.555075,54.65 911.099994,56.1050746 911.099994,57.9 C911.098403,58.7624421 911.4403,59.5900203 912.05014,60.19986 C912.65998,60.8096996 913.487558,61.1515966 914.35,61.15 L914.35,61.15 Z M911.75,89 L917,89 L917,64.85 L911.75,64.85 L911.75,89 Z M923.8,89 L929.05,89 L929.05,72.55 C930.549668,70.6284726 932.814978,69.4592802 935.25,69.35 C935.803783,69.3408129 936.356952,69.391101 936.9,69.5 L936.9,64.3 C933.799849,64.4163909 930.916798,65.9221882 929.05,68.4 L929.05,64.85 L923.8,64.85 L923.8,89 Z M952.05,89.6 C959.8,89.6 964.5,83.85 964.5,76.9 C964.5,70 959.8,64.25 952.05,64.25 C944.4,64.25 939.65,70 939.65,76.9 C939.65,83.85 944.4,89.6 952.05,89.6 Z M952.05,84.95 C947.6,84.95 945.1,81.2 945.1,76.9 C945.1,72.65 947.6,68.9 952.05,68.9 C956.55,68.9 959.05,72.65 959.05,76.9 C959.05,81.2 956.55,84.95 952.05,84.95 Z M986.1,89 L991.35,89 L991.35,72 C991.35,67.05 988.75,64.25 983.55,64.25 C980.290034,64.2778532 977.197212,65.696913 975.05,68.15 L975.05,64.85 L969.8,64.85 L969.8,89 L975.05,89 L975.05,72.15 C976.502834,70.1661245 978.79193,68.9661952 981.25,68.9 C984.2,68.9 986.1,70.15 986.1,73.9 L986.1,89 Z M1027.75,89 L1033,89 L1033,71.55 C1033,66.65 1030.5,64.25 1026.05,64.25 C1022.76053,64.3300107 1019.70982,65.9855822 1017.85,68.7 C1017.05,66.05 1014.85,64.25 1011.25,64.25 C1008.18755,64.3340198 1005.3169,65.7602003 1003.4,68.15 L1003.4,64.85 L998.15,64.85 L998.15,89 L1003.4,89 L1003.4,72.15 C1004.64812,70.2669611 1006.69707,69.0671301 1008.95,68.9 C1011.8,68.9 1012.95,70.65 1012.95,73.25 L1012.95,89 L1018.2,89 L1018.2,72.1 C1019.47165,70.2250335 1021.53904,69.043671 1023.8,68.9 C1026.6,68.9 1027.75,70.65 1027.75,73.25 L1027.75,89 Z M1038.3,76.9 C1038.3,84.55 1043.7,89.6 1050.95,89.6 C1054.54381,89.7279029 1058.0503,88.4755842 1060.75,86.1 L1058.35,82.65 C1056.47388,84.3515515 1054.0328,85.295908 1051.5,85.3 C1047.55966,85.5234892 1044.15246,82.5809055 1043.8,78.65 L1062.45,78.65 L1062.45,77.4 C1062.45,69.8 1057.8,64.25 1050.55,64.25 C1043.4,64.25 1038.3,69.9 1038.3,76.9 Z M1050.55,68.55 C1052.31111,68.4568401 1054.03373,69.0878472 1055.31796,70.2965383 C1056.6022,71.5052293 1057.33635,73.1864793 1057.35,74.95 L1043.75,74.95 C1043.89206,71.3192311 1046.91729,68.4719548 1050.55,68.55 Z M1083.95,89 L1089.2,89 L1089.2,72 C1089.2,67.05 1086.6,64.25 1081.4,64.25 C1078.14003,64.2778532 1075.04721,65.696913 1072.9,68.15 L1072.9,64.85 L1067.65,64.85 L1067.65,89 L1072.9,89 L1072.9,72.15 C1074.35283,70.1661245 1076.64193,68.9661952 1079.1,68.9 C1082.05,68.9 1083.95,70.15 1083.95,73.9 L1083.95,89 Z M1103.25,89.6 C1105.03848,89.7440203 1106.81306,89.1883437 1108.2,88.05 L1106.95,84.1 C1106.30354,84.6723426 1105.46301,84.9763652 1104.6,84.95 C1103.1,84.95 1102.3,83.75 1102.3,82.1 L1102.3,69.45 L1107.2,69.45 L1107.2,64.85 L1102.3,64.85 L1102.3,58.25 L1097.05,58.25 L1097.05,64.85 L1093.05,64.85 L1093.05,69.45 L1097.05,69.45 L1097.05,83.4 C1097.05,87.4 1099.2,89.6 1103.25,89.6 Z" transform="translate(86 36)"/>
      <g transform="translate(0 198.557)">
        <path fill="#FBBEBE" fill-rule="nonzero" d="M415.387,336.544 C415.387,336.544 504.605,325.838 535.831,308.887 C567.057,291.936 799.023,283.906 799.023,336.544 C799.023,389.182 532.262,412.38 532.262,412.38 L392.191,404.35 L415.387,336.544 Z"/>
        <path fill="#000" fill-rule="nonzero" d="M415.387,336.544 C415.387,336.544 504.605,325.838 535.831,308.887 C567.057,291.936 799.023,283.906 799.023,336.544 C799.023,389.182 532.262,412.38 532.262,412.38 L392.191,404.35 L415.387,336.544 Z" opacity=".1"/>
        <path fill="#6C63FF" fill-rule="nonzero" d="M441.261,326.727 L414.785,381.15 L0,384.721 L0,304.427 C0,304.427 158.854,278.554 284.929,333.869 C284.929,333.867 433.7,321.377 441.261,326.727 Z"/>
        <path fill="#000" fill-rule="nonzero" d="M441.261,326.644 L414.786,381.066 L0,384.634 L0,304.334 C0,304.334 158.854,278.461 284.929,333.776 C284.929,333.781 433.7,321.29 441.261,326.644 Z" opacity=".1"/>
        <path fill="#3F3D56" fill-rule="nonzero" d="M776.848,303.98 C776.848,307.021 770.029,309.28 769.359,312.211 C768.694,315.12 772.745,319.544 771.459,322.323 C770.13366,325.164025 768.567964,327.886596 766.779,330.461 C765.1,332.861 759.912,332.515 757.784,334.77 C755.701391,336.818111 753.495258,338.736705 751.178,340.515 C748.921,342.392 745.863,342.786 743.296,344.515 C740.856,346.158 741.151,352.185 738.451,353.681 C735.871,355.111 731.923,353.961 729.124,355.246 C726.438,356.479 725.024,360.946 722.15,362.032 C719.381,363.084 715.95,362.632 713.025,363.543 C710.191,364.425 707.025,364.282 704.052,365.025 C701.169,365.746 698.967,370.068 695.967,370.651 C693.045,371.219 689.62,369.705 686.598,370.135 C683.647,370.555 680.215,366.82 677.18,367.103 C674.209,367.38 671.409,369.109 668.366,369.248 C665.382,369.385 662.433,370.699 659.389,370.699 C656.345,370.699 653.206,373.554 650.222,373.417 C647.179,373.277 644.422,368.95 641.454,368.673 C638.418,368.39 634.797,372.91 631.846,372.491 C628.824,372.061 626.431,367.636 623.509,367.069 C620.509,366.486 616.634,369.648 613.75,368.927 C610.78,368.184 609.018,363.037 606.184,362.155 C603.256,361.244 599.627,362.478 596.858,361.426 C593.986,360.335 590.488,360.51 587.801,359.276 C585.001,357.991 582.994,354.95 580.414,353.52 C577.714,352.02 576.47,348.313 574.029,346.67 C571.462,344.942 567.551,345.162 565.294,343.285 C562.911,341.303 558.446,341.2 556.435,339.067 C554.308,336.812 553.447,333.025 551.768,330.62 C549.999,328.087 553.468,322.732 552.236,320.055 C550.955,317.277 545.597,316.148 544.936,313.239 C544.250533,310.201035 543.898782,307.097315 543.887,303.983 C543.887,300.942 548.469,298.618 549.139,295.683 C549.804,292.774 546.432,288.595 547.713,285.817 C548.948,283.14 548.79,279.024 550.56,276.491 C552.239,274.091 556.431,273.144 558.56,270.891 C560.571,268.759 564.171,268.164 566.554,266.182 C568.811,264.305 568.524,258.644 571.09,256.916 C573.53,255.273 576.938,254.523 579.637,253.027 C582.217,251.597 585.867,251.838 588.666,250.553 C591.352,249.319 595.559,251.753 598.43,250.659 C601.199,249.607 603.445,247.307 606.373,246.396 C609.207,245.514 610.538,238.787 613.507,238.045 C616.39,237.324 619.938,238.521 622.937,237.938 C625.859,237.37 629.791,242.678 632.813,242.248 C635.764,241.828 637.971,234.748 641.006,234.46 C643.977,234.183 647.327,237.853 650.37,237.713 C653.354,237.576 656.349,239.726 659.393,239.726 C662.437,239.726 665.468,236.775 668.451,236.912 C671.494,237.052 674.177,240.951 677.151,241.228 C680.187,241.511 683.914,235.579 686.865,235.999 C689.887,236.429 692.221,241.014 695.144,241.582 C698.144,242.165 701.902,239.318 704.786,240.039 C707.755,240.782 709.542,245.655 712.376,246.539 C715.304,247.45 717.107,250.888 719.876,251.939 C722.748,253.03 728.083,247.925 730.769,249.158 C733.569,250.443 735.984,252.667 738.564,254.097 C741.264,255.597 745.555,254.841 747.996,256.484 C750.563,258.212 751.196,262.851 753.451,264.729 C755.834,266.711 759.765,267.308 761.776,269.44 C763.903,271.695 764.199,275.74 765.876,278.14 C767.645,280.673 767.589,284.182 768.824,286.859 C770.105,289.637 773.524,291.738 774.191,294.647 C774.869,297.579 776.848,300.94 776.848,303.98 Z"/>
        <path fill="#FBBEBE" fill-rule="nonzero" d="M455.536,359.742 C455.536,359.742 556.351,307.995 621.481,327.623 C686.611,347.251 777.612,313.35 788.318,324.95 C799.024,336.55 814.191,461.45 685.718,468.59 C557.245,475.73 447.507,447.178 447.507,447.178 L455.536,359.742 Z"/>
        <path fill="#6C63FF" fill-rule="nonzero" d="M417.385,354.23 C417.385,354.23 472.249,351.711 469.785,365.986 C467.321,380.261 464.866,490.886 450.108,493.567 C435.35,496.248 318.518,496.244 270.555,496.244 L0,496.244 L0,325.202 C0,325.202 191.851,316.916 287.777,351.711 C287.777,351.711 403.106,350.503 417.385,354.23 Z"/>
        <path stroke="#3F3D56" d="M618.252,86.697 C610.495071,87.1341068 603.651786,91.9186758 600.578,99.054 C596.159,109.737 601.849,122.285 610.391,130.075 C618.933,137.865 629.906,142.318 639.876,148.175 C653.267,156.036 665.3,166.949 672.001,180.957 C678.702,194.965 679.414,212.317 671.538,225.699 C664.228,238.12 650.938,245.554 638.258,252.411"/>
        <path stroke="#3F3D56" d="M653.939,21.568 C646.182071,22.0051068 639.338786,26.7896758 636.265,33.925 C631.846,44.608 637.536,57.156 646.078,64.946 C654.62,72.736 665.593,77.189 675.563,83.046 C688.954,90.907 700.987,101.82 707.688,115.828 C714.389,129.836 715.101,147.188 707.225,160.57 C699.915,172.991 686.625,180.425 673.945,187.282"/>
        <path stroke="#3F3D56" d="M771.274,36.547 C764.872687,32.1441782 756.532494,31.7383972 749.734,35.499 C739.7,41.241 736.517,54.646 738.503,66.036 C740.489,77.426 746.439,87.663 750.74,98.394 C756.516,112.808 759.351,128.803 756.073,143.981 C752.795,159.159 742.737,173.316 728.317,179.081 C714.933,184.428 699.871,182.169 685.65,179.829"/>
        <ellipse cx="667.874" cy="160.785" fill="#7FBB65" fill-rule="nonzero" rx="21.412" ry="10.4"/>
        <ellipse cx="665.198" cy="159.001" stroke="#3F3D56" rx="21.412" ry="10.4"/>
        <ellipse cx="714.267" cy="151.864" fill="#7FBB65" fill-rule="nonzero" rx="21.412" ry="10.4"/>
        <ellipse cx="711.591" cy="150.08" stroke="#3F3D56" rx="21.412" ry="10.4"/>
        <ellipse cx="721.405" cy="191.12" fill="#7FBB65" fill-rule="nonzero" rx="21.412" ry="10.4"/>
        <ellipse cx="718.728" cy="189.335" stroke="#3F3D56" rx="21.412" ry="10.4"/>
        <ellipse cx="716.944" cy="92.98" fill="#7FBB65" fill-rule="nonzero" rx="21.412" ry="10.4"/>
        <ellipse cx="714.267" cy="91.196" stroke="#3F3D56" rx="21.412" ry="10.4"/>
        <ellipse cx="663.413" cy="86.735" fill="#7FBB65" fill-rule="nonzero" rx="21.412" ry="10.4"/>
        <ellipse cx="660.737" cy="84.951" stroke="#3F3D56" rx="21.412" ry="10.4"/>
        <ellipse cx="687.502" cy="64.431" fill="#7FBB65" fill-rule="nonzero" rx="21.412" ry="10.4"/>
        <ellipse cx="684.826" cy="62.646" stroke="#3F3D56" rx="21.412" ry="10.4"/>
        <ellipse cx="740.14" cy="68.891" fill="#7FBB65" fill-rule="nonzero" rx="21.412" ry="10.4"/>
        <ellipse cx="737.464" cy="67.107" stroke="#3F3D56" rx="21.412" ry="10.4"/>
        <ellipse cx="779.396" cy="98.334" fill="#7FBB65" fill-rule="nonzero" rx="21.412" ry="10.4"/>
        <ellipse cx="776.72" cy="96.549" stroke="#3F3D56" rx="21.412" ry="10.4"/>
        <ellipse cx="641.109" cy="46.587" fill="#7FBB65" fill-rule="nonzero" rx="21.412" ry="10.4"/>
        <ellipse cx="638.432" cy="44.803" stroke="#3F3D56" rx="21.412" ry="10.4"/>
        <ellipse cx="654.491" cy="12.684" fill="#7FBB65" fill-rule="nonzero" rx="21.412" ry="10.4"/>
        <ellipse cx="651.815" cy="10.9" stroke="#3F3D56" rx="21.412" ry="10.4"/>
        <ellipse cx="778.504" cy="37.665" fill="#7FBB65" fill-rule="nonzero" rx="21.412" ry="10.4"/>
        <ellipse cx="775.827" cy="35.881" stroke="#3F3D56" rx="21.412" ry="10.4"/>
        <ellipse cx="581.333" cy="119.746" fill="#7FBB65" fill-rule="nonzero" rx="21.412" ry="10.4"/>
        <ellipse cx="578.657" cy="117.961" stroke="#3F3D56" rx="21.412" ry="10.4"/>
        <ellipse cx="655.384" cy="114.393" fill="#7FBB65" fill-rule="nonzero" rx="21.412" ry="10.4"/>
        <ellipse cx="652.707" cy="112.608" stroke="#3F3D56" rx="21.412" ry="10.4"/>
        <ellipse cx="752.631" cy="122.422" fill="#7FBB65" fill-rule="nonzero" rx="21.412" ry="10.4"/>
        <ellipse cx="749.954" cy="120.638" stroke="#3F3D56" rx="21.412" ry="10.4"/>
        <ellipse cx="700.885" cy="125.991" fill="#7FBB65" fill-rule="nonzero" rx="21.412" ry="10.4"/>
        <ellipse cx="698.208" cy="124.207" stroke="#3F3D56" rx="21.412" ry="10.4"/>
        <ellipse cx="704.453" cy="36.773" fill="#57B894" fill-rule="nonzero" rx="21.412" ry="10.4"/>
        <ellipse cx="701.777" cy="34.989" fill="#7FBB65" fill-rule="nonzero" stroke="#3F3D56" rx="21.412" ry="10.4"/>
        <ellipse cx="612.559" cy="92.088" fill="#7FBB65" fill-rule="nonzero" rx="21.412" ry="10.4"/>
        <ellipse cx="609.883" cy="90.304" stroke="#3F3D56" rx="21.412" ry="10.4"/>
        <ellipse cx="625.05" cy="132.236" fill="#7FBB65" fill-rule="nonzero" rx="21.412" ry="10.4"/>
        <ellipse cx="622.373" cy="130.452" stroke="#3F3D56" rx="21.412" ry="10.4"/>
        <g opacity=".3" transform="translate(610.184 188.715)">
          <ellipse cx="11.126" cy="12.162" fill="#57B894" fill-rule="nonzero" rx="11.218" ry="4.858" transform="rotate(-60.799 11.126 12.162)"/>
          <ellipse cx="9.714" cy="12.98" stroke="#3F3D56" rx="11.218" ry="4.858" transform="rotate(-60.799 9.714 12.98)"/>
        </g>
        <g opacity=".3" transform="translate(716.708 209.037)">
          <ellipse cx="12.087" cy="12.659" fill="#57B894" fill-rule="nonzero" rx="4.858" ry="11.218" transform="rotate(-48.162 12.087 12.66)"/>
          <ellipse cx="11.598" cy="11.103" stroke="#3F3D56" rx="4.858" ry="11.218" transform="rotate(-48.162 11.598 11.103)"/>
        </g>
        <g opacity=".3" transform="translate(616.785 152.83)">
          <ellipse cx="12.087" cy="12.659" fill="#57B894" fill-rule="nonzero" rx="4.858" ry="11.218" transform="rotate(-48.162 12.087 12.66)"/>
          <ellipse cx="11.598" cy="11.103" stroke="#3F3D56" rx="4.858" ry="11.218" transform="rotate(-48.162 11.598 11.103)"/>
        </g>
      </g>
    </g>
  </g>
</svg>
