<svg xmlns="http://www.w3.org/2000/svg" viewbox="0 0 281 27"><path fill="#343434" d="M190.382 8.513c-2.266 0-4.24 1.62-4.24 4.063 0 1.914 1.486 2.988 1.896 3.36-2.03 1.054-4.102 2.655-4.16 5.468.058 2.187 1.582 4.863 5.488 4.863 2.09 0 3.828-.84 5.625-2.656.36.57.94 1.41 1.31 1.8.51.51 1.9.86 3.19.86 1.35 0 3.32-.51 4.65-1.95.08-.27-.12-.52-.39-.56-.56.41-1.44.74-2.18.74-1.93 0-3.18-1.11-4.33-2.91-.17-.29-.21-.54-.04-.8 1.2-1.7 2.17-3.16 2.82-4.26.94-1.58 1.51-2.36 2.91-2.65l1.25-.27c.22-.21.14-.66-.05-.76-.62.06-3.16.16-4.55.16h-1.5c-.27.12-.33.53-.08.76l.78.14c.77.14.67.41.2 1.45-.78 1.74-1.74 3.6-2.62 4.75-1.42-2.22-2.46-3.47-4.55-4.82.92-.54 2.56-1.19 2.56-3.24 0-1.87-1.52-3.49-3.95-3.49zm1.62 10.528c.802.88 1.563 1.92 2.208 2.95.332.51.332.67-.078 1.04-.84.76-1.953 1.25-3.164 1.25-2.364 0-4.258-1.62-4.258-3.88 0-1.36.742-2.75 1.66-3.4.215-.17.488-.33.625-.33s1.738.98 3.008 2.39zm-1.737-9.55c1.035 0 1.718 1 1.718 2.43 0 1.14-.39 2.03-.898 2.6-.06.04-.195.14-.274.14-.05 0-.27-.13-.42-.23-1.19-.88-1.85-1.7-1.85-2.83 0-1.25.8-2.09 1.74-2.09zm24.848-7.32c-1.582 0-3.204-.04-4.454-.12-.3.16-.34.8-.08 1.06l.47.06c1.7.26 2.01.37 2.01 4.18v13.38c0 3.81-.32 3.93-2.01 4.14l-.8.1c-.24.26-.22.9.07 1.06 1.66-.08 3.28-.11 4.86-.11 1.58 0 3.2.04 5.49.12.29-.15.33-.8.07-1.05l-1.51-.17c-1.7-.14-2.02-.25-2.02-4.06V15.7c0-.895.02-.973.86-.973h2.11c3.14 0 3.71.08 4.04 1.58l.27 1.41c.21.252.9.252 1.09-.04-.04-1.115-.12-2.404-.12-3.73 0-1.33.08-2.658.112-3.595-.195-.29-.88-.29-1.09-.04l-.277 1.23c-.33 1.506-.893 1.584-4.04 1.584h-2.11c-.84 0-.86-.08-.86-.977V5.68c0-2.01 0-2.07 1.51-2.07h1.834c1.15 0 2.05.02 3.01.274 1.363.37 1.95 1.406 2.3 3.496.37.215 1.013.137 1.15-.136-.06-1.7-.06-4.395-.06-5.196-.76.078-2.773.117-5.08.117h-6.79zm18.33 13.22c0-1.46.04-3.18.118-4.37-.11-.17-.29-.25-.5-.29-.99.61-2.81 1.41-4.67 1.96-.15.18-.15.67-.04.82l.43.26c.9.53.9.96.9 2.58v5.3c0 2.66-.13 3.05-1.37 3.24l-.64.1c-.25.26-.21.9.08 1.06a63.393 63.393 0 0 1 7.66.01c.28-.16.32-.8.06-1.06l-.64-.1c-1.21-.19-1.36-.58-1.36-3.24V15.4zm-1.893-8.9c1.36 0 2.3-.97 2.3-2.26 0-1.29-.94-2.26-2.31-2.26s-2.304.98-2.304 2.27.937 2.27 2.304 2.27zm14.77 6.84c.292-.19.43-.51.47-.94 0-.37-.08-.64-.295-.76h-3.553c-.684 0-.684-.1-.684-.68V8.79c-.175-.293-.68-.41-1.014-.196-.51.98-1.29 1.74-1.975 2.25-.8.567-1.62 1.036-2.83 1.504-.33.216-.26.783.1.978h1.27c.56 0 .64.02.64 1.29v7.307c0 2.52.6 4.49 4.02 4.49 2.18 0 3.84-.977 4.57-1.973.06-.41-.16-.683-.47-.72-.59.39-1.02.642-1.74.642-2.29 0-2.62-2.013-2.62-4.278v-5.55c0-1.153.04-1.21.68-1.21h3.41zm10.603-2.09c-5.78 0-8.85 3.85-8.85 8.05 0 2.09.82 3.97 2.09 5.18 1.21 1.2 3.087 1.96 5 1.96 2.267 0 5.02-1.01 6.33-3.92a.704.704 0 0 0-.763-.64c-.72 1.04-1.542 1.92-3.885 1.92-3.26 0-5.137-2.77-5.137-5.68 0-3.38 2.13-5.39 4.18-5.39 1.386 0 2.48 1.13 3.26 2.19.255.31.43.39.685.39.292 0 .897-.55.897-1.68 0-.84-.253-1.41-.722-1.84-.994-.37-2.05-.51-3.084-.51zm11.682-5.55c0-1.54.04-3.76.116-5.21a.489.489 0 0 0-.51-.27c-1.48.57-3.32 1.33-4.7 1.72-.25.12-.21.69 0 .82l.49.33c.8.47.84.73.84 3.13v15.43c0 2.65-.15 3.05-1.37 3.24l-.8.1c-.25.26-.21.9.08 1.06 1.5-.07 2.73-.11 3.89-.11 1.33 0 2.56.04 3.81.12.29-.15.33-.8.08-1.05l-.55-.07c-1.23-.22-1.37-.61-1.37-3.26V16.8c0-1.407.04-1.934.43-2.364a3.333 3.333 0 0 1 2.45-1.054c2.13 0 2.89 1.445 2.89 3.164v5.08c0 2.657-.15 3.048-1.36 3.26l-.54.08c-.25.254-.21.9.08 1.055 1.25-.07 2.48-.11 3.68-.11 1.33 0 2.54.04 4.06.12.35-.15.39-.8.06-1.05l-.82-.1c-1.23-.19-1.362-.58-1.362-3.24v-5.35c0-3.07-1.504-5.04-4.61-5.04-1.8 0-3.34.78-4.59 1.72-.253 0-.332-.18-.332-.61V5.68zM13.775 17.5c.997 0 1.114 0 1.465.977l1.7 4.883c.47 1.542.356 1.757-.933 1.913l-.8.1c-.215.217-.176.86.117 1.057 1.25-.04 2.833-.12 4.395-.12 1.85 0 3.18.04 4.66.114.25-.195.25-.8-.04-1.054l-.55-.1c-1.82-.33-2.02-.583-2.84-2.985l-5.17-15.08c-.59-1.6-1.06-3.3-1.62-4.92a.745.745 0 0 0-.61-.295c-.08 0-1.27 1.484-2.52 1.738.09.605-.22 1.465-.69 2.617L5.43 19.158c-.762 1.933-1.33 3.437-1.78 4.375-.526 1.19-.92 1.523-1.97 1.66l-1.075.175c-.255.333-.216.86.04 1.055 1.25-.078 2.36-.117 3.552-.117 1.484.04 2.656.04 3.81.117.29-.156.33-.8.076-1.055l-1.03-.175c-1.35-.176-1.48-.293-.76-2.403l1.47-4.316c.333-.977.294-.977 1.23-.977h4.787zm-4.22-1.62c-.86 0-.955 0-.565-1.036l1.51-4.214c.644-1.68.937-2.58 1.074-2.833h.08c.174.255.39.94 1.014 2.833l1.504 4.312c.294.858.138.936-.86.936H9.56zm20.07-9.787c0-1.54.04-3.763.117-5.21a.487.487 0 0 0-.508-.272c-1.484.57-3.34 1.33-4.707 1.72-.254.12-.215.69 0 .82l.508.33c.78.47.82.73.82 3.13v16.21c0 1.35-.117 3.24-.117 3.38 0 .11.215.25.37.25.1 0 .177 0 .255-.02.215-.25.47-.58.9-.58.428 0 2.108.98 4.784.98 4.707 0 8.515-2.95 8.515-8.07 0-3.98-2.656-7.11-6.875-7.11-1.425 0-2.617.47-3.77 1.16-.214 0-.292-.15-.292-.64V6.09zm0 9.87c0-1.23.078-1.7.39-1.915.29-.213 1.055-.467 1.778-.467 2.54 0 4.765 2.27 4.765 6.49 0 3.05-1.328 5.31-3.73 5.31-1.035 0-1.914-.52-2.402-1.21-.586-.76-.8-2.03-.8-3.61v-4.59zM53.1 17.79c1.444 0 2.264-.156 2.48-.468.155-.293.195-.508.195-.84 0-3.125-2.735-4.844-5.39-4.844-4.825 0-7.6 3.926-7.6 7.988 0 4.082 2.775 7.188 6.935 7.188 2.207 0 4.863-1.074 6.094-3.965-.04-.32-.45-.69-.8-.57-.82 1.33-2.013 1.79-3.458 1.79-3.203 0-5.43-2.6-5.43-5.82 0-.43.078-.47.762-.47h6.21zm-6.173-1.445c-.43 0-.508-.098-.508-.254 0-.76 1.11-3.08 3.51-3.08 1.56 0 2.38 1.04 2.38 2.33 0 .33-.14.63-.35.76-.26.16-.73.26-1.78.26h-3.26zm11.936 5.685c0 2.655-.157 3.046-1.367 3.24l-.645.1c-.25.252-.21.897.06 1.053a64.78 64.78 0 0 1 3.75-.117c1.33 0 2.56.04 4.71.117.3-.156.33-.8.08-1.054l-1.4-.14c-1.25-.16-1.4-.55-1.4-3.21V17.1c0-1.777.22-2.597 1.06-2.597.22 0 .82.077 1.72.683.29.175.61.292.98.292.96 0 2.01-.685 2.01-2.09 0-.94-.72-1.76-1.99-1.76-1.21 0-2.4 1.075-3.51 1.876-.21 0-.35-.196-.35-.43 0-.333.02-.938.06-1.62-.06-.217-.27-.334-.49-.334-1.09.645-2.99 1.446-4.53 1.953-.16.175-.16.663-.04.82l.43.254c.9.526.9.956.9 2.577v5.293zM77.45 11.638c-5.78 0-8.848 3.848-8.848 8.047 0 2.09.82 3.965 2.09 5.176 1.21 1.2 3.086 1.96 5 1.96 2.266 0 5.02-1.01 6.328-3.92a.704.704 0 0 0-.762-.64c-.722 1.04-1.543 1.92-3.886 1.92-3.262 0-5.137-2.77-5.137-5.68 0-3.38 2.13-5.39 4.18-5.39 1.386 0 2.48 1.13 3.26 2.19.255.32.43.39.685.39.293 0 .898-.54.898-1.67 0-.84-.254-1.4-.722-1.83-.996-.37-2.05-.502-3.086-.502zm7.625 10.392c0 2.655-.157 3.046-1.368 3.24l-.644.1c-.254.252-.215.897.06 1.053a64.592 64.592 0 0 1 3.75-.117c1.327 0 2.557.04 4.706.117.29-.156.33-.8.07-1.054l-1.41-.14c-1.25-.16-1.41-.55-1.41-3.21V17.1c0-1.777.21-2.597 1.05-2.597.21 0 .82.077 1.72.683.29.175.6.292.97.292.95 0 2.01-.685 2.01-2.09 0-.94-.72-1.76-1.99-1.76-1.21 0-2.41 1.075-3.52 1.876-.22 0-.35-.196-.35-.43 0-.333.01-.938.05-1.62-.06-.217-.27-.334-.49-.334-1.1.645-2.99 1.446-4.53 1.953-.16.175-.16.663-.04.82l.43.254c.9.526.9.956.9 2.577v5.293zm17.61-10.392c-4.2 0-7.87 3.027-7.87 7.832 0 4.707 3.456 7.344 7.597 7.344 4.277 0 7.87-2.656 7.87-7.774 0-4.668-3.534-7.402-7.596-7.402zm-3.632 7.305c0-4.004 1.445-5.86 3.28-5.86 2.657 0 3.692 3.555 3.692 6.563 0 2.773-.703 5.722-3.183 5.722-2.598 0-3.79-3.164-3.79-6.425zm14.064 3.087c0 2.655-.137 3.046-1.367 3.24l-.645.1c-.254.252-.215.897.078 1.053a64.065 64.065 0 0 1 3.73-.117c1.33 0 2.56.04 3.81.117.292-.156.33-.8.078-1.054l-.54-.08c-1.21-.22-1.37-.61-1.37-3.26V17.2c0-1.406.04-1.718.47-2.304.39-.53 1.33-1.114 2.56-1.114 2.09 0 2.74 1.445 2.74 3.36v4.882c0 2.655-.13 3.046-1.36 3.26l-.47.08c-.25.252-.21.897.08 1.053a54.8 54.8 0 0 1 3.6-.117c1.33 0 2.52.04 3.77.117.3-.155.34-.8.08-1.053l-.54-.08c-1.21-.214-1.36-.605-1.36-3.26V16.73c0-.996.08-1.426.43-1.856.43-.547 1.37-1.093 2.42-1.093 2.27 0 2.91 1.45 2.91 3.36v4.89c0 2.66-.15 3.05-1.36 3.24l-.58.1c-.254.25-.215.9.078 1.06 1.29-.08 2.52-.12 3.71-.12 1.33 0 2.54.04 4.1.12.137-.15.31-.8 0-1.05l-.8-.1c-1.23-.19-1.37-.58-1.37-3.24v-5.56c0-2.81-1.37-4.82-4.394-4.82-1.68 0-2.91.65-4.59 1.68-.43.25-.64.37-.8.37-.136 0-.35-.21-.566-.55-.51-.68-1.7-1.5-3.24-1.5-2.44 0-3.38.86-5.14 1.8-.22-.04-.338-.11-.338-.35 0-.29 0-.97.08-1.66a.506.506 0 0 0-.47-.29c-1.158.65-3.09 1.51-4.67 1.96-.16.18-.16.67-.04.82l.43.26c.9.53.9.96.9 2.58v5.29zm30.38-15.94c0-1.542.04-3.768.116-5.214a.485.485 0 0 0-.508-.273c-1.484.566-3.34 1.328-4.707 1.72-.254.116-.214.682 0 .82l.508.33c.78.47.82.724.82 3.126v16.21c0 1.34-.117 3.24-.117 3.38 0 .11.21.25.37.25.09 0 .17 0 .25-.02.21-.26.47-.59.9-.59.43 0 2.11.97 4.78.97 4.7 0 8.51-2.95 8.51-8.07 0-3.99-2.66-7.11-6.88-7.11-1.43 0-2.62.47-3.77 1.15-.22 0-.3-.16-.3-.65V6.09zm0 9.864c0-1.23.077-1.7.39-1.914.293-.214 1.054-.468 1.777-.468 2.54 0 4.766 2.265 4.766 6.484 0 3.047-1.328 5.312-3.73 5.312a2.971 2.971 0 0 1-2.403-1.21c-.586-.762-.8-2.032-.8-3.614v-4.59zm17.543-.156c0-1.465.04-3.183.117-4.375-.117-.176-.293-.254-.508-.293-1 .606-2.82 1.406-4.67 1.953-.16.176-.16.664-.04.82l.43.255c.9.527.9.957.9 2.578v5.293c0 2.65-.14 3.04-1.37 3.24l-.65.1c-.26.25-.22.89.08 1.05 1.37-.08 2.58-.12 3.77-.12 1.33 0 2.56.04 3.88.11.27-.16.31-.8.06-1.06l-.65-.1c-1.21-.2-1.37-.59-1.37-3.24v-6.23zm-1.895-8.906c1.367 0 2.305-.977 2.305-2.266 0-1.29-.938-2.265-2.305-2.265-1.367 0-2.305.98-2.305 2.27s.938 2.27 2.305 2.27zM174.45 17.79c1.444 0 2.265-.156 2.48-.468.156-.293.195-.508.195-.84 0-3.125-2.734-4.844-5.39-4.844-4.825 0-7.598 3.926-7.598 7.988 0 4.082 2.773 7.188 6.933 7.188 2.207 0 4.864-1.074 6.094-3.965-.04-.32-.45-.69-.8-.57-.82 1.33-2.012 1.79-3.458 1.79-3.203 0-5.43-2.6-5.43-5.82 0-.43.08-.47.762-.47h6.21zm-6.173-1.445c-.43 0-.508-.098-.508-.254 0-.76 1.11-3.08 3.51-3.08 1.56 0 2.38 1.04 2.38 2.33 0 .33-.14.63-.35.76-.26.16-.72.26-1.78.26h-3.27zm0 0"/></svg>
