<svg viewBox="0 0 487 428" xmlns="http://www.w3.org/2000/svg">
  <g id="AKeed" fill-rule="nonzero">
    <path d="M486.35 427.8v-3.75H.8v3.75h485.55zm0-113.4v-3.75h-88.5c3.45-4.05 6.6-8.4 9.45-12.75 19.95-29.25 29.85-62.4 29.85-99.75 0-51-18.9-94.8-56.55-131.1h.15c-37.8-36.15-83.55-54.3-137.1-54.3-53.4 0-99.15 18-136.8 54.3-37.8 36.3-56.55 79.95-56.55 131.1 0 41.7 12.6 78.45 37.65 110.25l1.8 2.25H.8v3.75h156c-1.5-1.05-3.15-2.25-4.8-3.6-4.2-3.3-8.4-6.9-12.45-10.65-29.4-28.2-44.1-62.1-44.1-101.85 0-39.75 14.7-73.8 44.1-101.85 29.4-28.2 64.8-42.15 106.2-42.15 41.7 0 77.1 14.1 106.5 42.15 29.1 28.2 43.8 62.1 43.65 101.85 0 39.75-14.55 73.8-43.65 101.85-4.05 3.9-8.25 7.35-12.6 10.65-1.5 1.2-3.15 2.4-4.8 3.6h151.5zm-88.65-37.95c1.35 1.35 1.95 2.85 1.95 4.65 0 1.95-.6 3.45-1.95 4.8-1.35 1.35-2.85 1.95-4.8 1.95-1.8 0-3.3-.6-4.65-1.95-1.35-1.35-1.95-2.85-1.95-4.8 0-1.8.6-3.3 1.95-4.65 1.35-1.35 2.85-1.95 4.65-1.95 1.95 0 3.6.6 4.8 1.95zm-300.45 9.3c-1.35-1.35-1.95-2.85-1.95-4.8 0-1.8.6-3.3 1.95-4.65 1.35-1.35 2.85-1.95 4.65-1.95 1.95 0 3.45.6 4.8 1.95 1.35 1.35 1.95 2.85 1.95 4.65 0 1.95-.6 3.45-1.95 4.8-1.35 1.35-2.85 1.95-4.8 1.95-1.95 0-3.45-.6-4.65-1.95z" id="Shape" fill="#579BE1"/>
    <path d="M321.35 387.9c-10.8 0-16.35 5.4-16.35 15.9 0 9.6 5.1 14.4 15.3 14.4 10.95 0 16.35-5.1 16.35-15.6 0-9.75-5.1-14.7-15.3-14.7zm-.3 2.25c6.9 0 10.35 4.5 10.35 13.65 0 8.4-3.45 12.6-10.35 12.6-7.2 0-10.8-4.65-10.8-13.8.15-8.25 3.75-12.45 10.8-12.45zm19.2-1.35c.9 1.05 1.35 3 1.35 6v16.8c0 3.15-.45 5.1-1.35 6.15h7.2c-.9-1.05-1.2-3-1.35-6.15v-21.45h4.05c4.35 0 6.6 1.95 6.6 6.15 0 4.65-3 7.2-8.85 7.65l4.35 1.05c6.6 0 9.75-3 9.75-8.85 0-5.1-3.15-7.65-9.45-7.8l-12.3.45zm-47.4 5.85c0-2.85.45-4.8 1.2-6h-6.6c.6 1.05.9 3 .9 6v12.45c0 5.7-.45 9.15-1.5 10.35h14.1l3-.3.9-4.35c-1.95 1.95-4.65 2.85-7.8 2.85H293v-21h-.15zm-18.75-3.9c3.45 0 6 .45 7.5 1.5l-.3-3.45h-17.55c.75 1.05 1.05 3 1.05 6v16.8c0 3.15-.45 5.1-1.35 6.15l19.65-.3.9-4.35c-1.95 1.95-4.95 2.85-8.7 2.85h-6v-12.3h1.35c5.85 0 9.45-.75 10.65-2.4l-12 .3V390.9h4.8v-.15zm35.55-63.45h11.1c6.75 0 10.8-1.35 12.15-4.35h-51.45l-2.25 6.6c2.25-1.5 4.8-2.25 7.5-2.25h13.8v40.95c0 5.7-.9 9.75-2.55 11.7h13.8c-1.5-2.1-2.25-6-2.25-11.7V327.3h.15zm40.95-4.35h-13.65c1.5 2.1 2.1 6 2.1 11.7v33.6c0 5.7-.6 9.75-2.1 11.7h13.65c-1.35-2.1-2.1-6-2.1-11.7v-33.6c.15-5.7.75-9.6 2.1-11.7zm101.7 72.6c0-2.7.6-4.95 1.65-6.9h-5.25c.75 1.65 1.2 3.75 1.2 6v15.9c0 .45-.15.6-.3.6l-1.2-.9-16.05-20.85c-.6-.45-1.2-.6-1.8-.75h-5.1c1.05.9 1.5 2.85 1.5 6v9.6c0 6.45-.6 10.8-1.8 13.2H431c-1.05-2.25-1.5-6-1.5-11.55v-11.7l.3-.6c.45.3.6.45.6.6l18.75 23.4h3.3v-22.05h-.15zm4.65-6.75l-.9 3.15 3.75-.9h6.75v20.55c0 3.15-.3 5.1-1.2 6.15h6.75c-.75-1.05-1.2-3-1.2-6.15v-20.55h5.85c3.3 0 5.25-.75 5.85-2.25h-25.65zm-60.6 6.45c0-3.45.45-5.7 1.05-6.6H392c-.6 0-1.2.75-2.1 1.95l-8.55 18.6c-.3.9-.6 1.35-.9 1.35l-.9-1.65-7.35-19.5c-.75-.45-1.5-.6-1.95-.75h-6.15c.9.45 1.2 1.35 1.2 2.55v11.25c0 7.8-.6 12.6-2.1 14.4l-.3.6h6.15c-.75-1.05-1.2-3.6-1.2-7.95v-14.55c0-1.05.15-1.5.6-1.65l10.65 24.45 11.25-23.85c.3-.3.6-.6.9-.6.3.45.3.75.3.9v15c0 3.9-.3 6.75-.9 8.25h7.5c-.6-.75-1.2-2.85-1.65-6.15l-.15-16.05zm5.4-6.45c.9 1.05 1.35 3 1.35 6v16.8c0 3.15-.45 5.1-1.35 6.15l19.65-.3.9-4.35c-1.95 1.95-4.95 2.85-8.7 2.85h-5.85v-12.3h1.2c5.85 0 9.45-.75 10.65-2.4l-11.85.3V390.9h4.5c3.75 0 6.3.45 7.8 1.5l-.3-3.45h-18v-.15zm-11.85-67.35c-10.2 0-18.3 3.15-24.15 9.15-5.4 5.7-8.25 13.05-8.1 22.05 0 19.2 10.2 28.8 30.6 28.8 10.2 0 18.45-3 24.45-9.15 5.55-5.85 8.25-13.2 8.1-22.05 0-8.4-2.4-15.15-7.35-20.25-5.4-5.55-13.35-8.55-23.55-8.55zm-.9 4.05c14.1 0 21.15 9 21.15 27.15 0 7.05-1.65 12.75-4.95 17.25-3.9 5.1-9.3 7.65-16.2 7.65-14.1 0-21.15-9-21.15-27.15 0-6.9 1.8-12.75 5.25-17.25 3.6-5.1 9-7.65 15.9-7.65zm93-2.55h-10.65c1.65 2.25 2.55 6.15 2.55 11.4v31.5c0 .6-.3 1.2-.75 1.8-.9-.75-1.65-1.5-2.1-2.1l-32.1-40.95c-.75-1.05-2.25-1.5-4.35-1.65h-10.05c2.1 1.95 3 5.85 3 12V354c0 12.45-1.05 21.15-3.3 25.95h11.55c-1.95-4.05-3-11.7-3.15-23.1V333.9c.3-.9.45-1.2.75-1.35.45.3.75.6 1.2 1.05l37.35 46.5h7.5l-.3-44.1c-.15-5.25.9-9.75 2.85-13.05zM85.25 388.8H79.1v1.35c0 1.65-1.8 6-5.55 13.05l-7.65 13.2-1.35 1.2h6.6c-.15-.75-.3-1.35-.3-1.8 0-1.65 1.5-5.25 4.5-10.95h11.4l5.55 12.75h5.55l-1.2-1.8c-3.15-5.55-7.05-14.55-11.4-27zm-8.7 14.4l4.2-9.75c.3-.6.6-.9 1.05-.9l.9.9 3.3 9.75h-9.45zm-70.5-9.15c0 2.1 1.35 4.5 4.05 7.2-4.95 2.85-7.35 6.15-7.5 9.75 0 4.95 3.15 7.35 9.15 7.35 2.4 0 5.4-1.2 8.85-3.75l2.4 3.15h6.75l-6.45-6.15 6.45-8.25H24.5c.3.6.45 1.2.45 1.65 0 1.65-.9 3.3-2.85 5.25l-7.8-9.75c4.35-2.7 6.6-5.1 6.6-7.5 0-3.15-2.4-4.8-7.2-4.95-4.95-.15-7.65 1.95-7.65 6zm7.35 4.8c-1.95-3-3-5.1-3-6.15 0-1.95 1.05-3 3-3 2.55 0 3.75 1.2 3.75 3.6 0 1.95-1.2 3.75-3.75 5.55zm6.45 14.1c-1.95 1.65-4.05 2.55-6.45 2.55-4.5 0-6.75-2.1-6.75-6.3 0-2.85 1.5-4.95 4.35-6.75l8.85 10.5zm31.35-22.2h4.65c3.6 0 6.15.45 7.65 1.5l-.3-3.45h-18c.9 1.05 1.35 3 1.35 6v16.8c0 3.15-.45 5.1-1.35 6.15l19.65-.3.9-4.35c-1.95 1.95-4.95 2.85-8.7 2.85H51.2v-12.3h1.2c5.85 0 9.45-.75 10.65-2.4l-11.85.3v-10.8zm-9.6-60.9l-.6-6.9H5.6c1.5 2.1 2.1 6 2.1 11.7v33.6c0 5.55-.75 9.45-2.4 11.7l39.15-.6 1.95-7.95c-4.05 3.3-9.9 4.95-17.55 4.95H17V352.5h2.7c11.85 0 19.05-1.65 21.6-5.25l-24.15.6V326.7h9.45c6.9 0 12 1.05 15 3.15zm59.55 0c-5.25-5.1-12.15-7.65-20.85-7.8l-31.2.9c1.65 2.1 2.55 6 2.55 11.7v33.6c0 5.7-.9 9.75-2.55 11.7l24.75.3c10.05 0 18.3-2.7 24.75-7.95 6.9-5.7 10.5-13.35 10.35-22.95.3-7.95-2.4-14.4-7.8-19.5zm-30.6-4.05c18.6 0 27.9 8.4 27.9 25.05 0 17.1-8.1 25.65-24.45 25.65-5.7 0-9.15-.3-10.65-.9-1.65-.75-2.4-2.7-2.4-5.85v-43.5l9.6-.45zm168.15 64.65c-.15-1.05-.6-1.5-1.5-1.65h-4.35l.6 1.65c3.15 5.7 6.3 14.1 9.45 25.05l.9 2.1h4.05l.9-2.4c4.5-10.95 8.7-19.35 12.3-25.05l.9-1.35h-6.45c.15.6.3 1.2.3 1.65 0 .75-2.55 7.8-7.8 21.15-.3.9-.6 1.2-.9 1.2-.45-.15-.6-.6-.6-1.2l-7.8-21.15zM212 388.8c.9 1.05 1.2 3 1.2 6v16.8c0 2.85-.45 4.95-1.5 6.15l19.65-.3.9-4.35c-1.95 1.95-4.95 2.85-8.85 2.85h-5.85v-12.3h1.65c5.7 0 9.15-.75 10.35-2.4l-12 .3V390.9h4.95c3.45 0 6 .45 7.5 1.5v-3.45h-18v-.15zm23.7-8.85l-.3-3.45c0-3.9 3.15-11.1 9.15-21.75h22.95l10.95 25.05h11.25l-2.1-3.45c-6.15-9.6-13.8-27.45-23.4-53.7h-12.15v2.55c0 3.45-3.75 12.3-11.25 26.25-7.2 13.65-12.3 22.35-15.6 25.65l-2.25 2.55h12.75v.3zm22.8-47.85l7.2 19.35h-19.35l8.85-19.35c.45-1.35.9-2.1 1.5-2.1.75.15 1.35.75 1.8 2.1zm-133.05 85.5l-4.35-4.35-8.7-10.65c5.1-1.95 7.65-4.8 7.65-8.25 0-4.05-2.55-6-7.8-6.15l-12.3.6c.9 1.05 1.2 3 1.2 6v16.8c0 2.7-.45 4.65-1.5 6.15h7.05c-.6-1.05-.9-3-.9-6.15v-7.95c1.65.3 3.45 1.5 5.25 3.75l6.3 7.95c1.65 1.65 3 2.4 4.2 2.4h3.9v-.15zm-19.95-15.9v-11.55h2.55c4.95 0 7.35 1.8 7.35 5.25 0 4.5-2.55 6.75-7.65 6.75-1.05-.3-1.8-.45-2.25-.45zm21.9-12.9c.75 1.05 1.2 3 1.2 6v12.45c0 5.55-.6 9-1.95 10.35h14.1l3.15-.3.9-4.35c-1.8 1.95-4.5 2.85-7.95 2.85h-3.9v-21.15c0-2.85.45-4.8 1.2-6h-6.75v.15zm52.2 0c.9 1.05 1.2 3 1.2 6v16.8c0 3.15-.3 5.1-1.2 6.15h12.15c11.7 0 17.55-5.1 17.55-15.6 0-4.05-1.35-7.35-4.05-9.75-2.7-2.55-6-3.9-10.05-4.05l-15.6.45zm10.8 1.35c9.15 0 13.8 4.2 13.8 12.75s-4.05 12.9-12.3 12.9l-5.25-.3c-.75-.45-1.2-1.5-1.2-3.15V390.3l4.95-.15zM161 388.8c.6.6.9 1.35.9 1.95l-2.1 5.25-3.75 5.55c-.15.6-.45 1.05-.9 1.5-.3-.3-.6-.75-.9-1.2L149 390.6c-.75-1.05-1.8-1.5-3.15-1.65h-4.65c2.55 1.65 4.8 4.65 6.9 8.85 2.4 4.35 3.6 7.65 3.6 9.75v4.05c0 3.15-.3 5.1-1.2 6.15h6.75c-.6-1.05-.9-3-.9-6.15v-1.95c0-3.45 1.8-7.65 5.25-12.75l5.85-7.95H161v-.15zm7.65-65.85h-13.5c1.5 2.1 2.1 6 2.1 11.7l-.3 24.45c-.3 11.4-5.7 17.1-15.9 17.1-10.5 0-16.05-5.1-16.5-15.3v-26.25c0-5.7.9-9.6 2.55-11.7h-13.8c1.5 2.1 2.1 6 2.1 11.7v31.5c.3 10.2 7.05 15.3 20.25 15.3 7.65 0 14.1-2.1 19.65-6.45l1.2-.9.6.3-.3 6.15 12-.6c-1.5-2.1-2.25-6-2.25-11.7v-33.6c0-5.7.75-9.6 2.1-11.7zM206 325.5c7.35 0 12.75 2.7 16.2 7.95h.3l.6-11.1-17.1-.9c-10.2 0-18.3 2.85-24.15 8.55-5.85 5.25-8.85 12.6-8.7 22.05-.15 8.4 2.4 15.3 7.8 20.85 5.55 5.7 12.9 8.7 22.05 8.55 7.2 0 13.2-1.65 17.85-4.95 3.6-2.4 5.55-4.95 5.55-7.8v-.6c-4.05 4.2-10.05 6.3-17.85 6.3-16.65 0-25.05-8.25-24.9-24.75-.3-16.05 7.2-24.15 22.35-24.15zm139.35-222.45c-27.45-26.25-60.6-39.45-99.6-39.45-38.7 0-71.85 13.2-99.15 39.45-27.45 26.25-41.25 58.05-41.25 95.1 0 37.2 13.8 68.85 41.25 95.1 6.9 6.75 14.25 12.6 22.05 17.55 1.95 1.35 3.9 2.55 5.85 3.6h9.9l.45-2.4-1.95-18.3-6.45-18.15-4.05-18-3.9-9.45c-4.95-9-7.35-13.95-7.5-15-.15-1.2.75-2.1 2.85-2.55h4.35c5.55 2.1 9.75 5.85 12.75 11.4 1.2 2.25 2.4 4.5 3.45 7.05 2.4 5.1 4.5 8.4 6.15 9.75 1.8 1.65 4.05 1.35 6.45-.9l27-67.05c1.2-2.25 3.3-3.15 6.45-2.55 3.45.9 4.5 3 3.3 6.45l-11.25 43.2c0 1.05.45 1.8 1.2 2.4 1.5.6 2.7.3 3.45-.9l14.1-29.4 5.85-9c3.3-6.6 5.25-10.2 5.85-10.8 2.1-1.8 4.5-2.25 7.2-1.5 3.6 1.65 4.65 4.05 3 7.2l-22.35 48c-.45 1.5-.15 2.55.6 3.15 1.5.6 2.55.3 3.45-.75 1.5-1.35 3.9-4.8 7.65-10.35l20.85-28.05c1.95-2.25 4.2-2.55 7.2-.9 2.25 1.8 2.7 4.05 1.2 6.75l-27.3 41.55c-.75 1.65-.75 2.85 0 3.45.9.6 1.5.75 1.95.3l6.15-4.95 16.5-17.85c1.95-.9 3.75-1.05 5.55-.3 1.65 1.65 1.95 3.45.9 5.55l-20.1 26.1-23.1 46.95h75.15c1.95-1.05 3.9-2.25 5.85-3.6 7.8-4.95 15.15-10.8 22.05-17.55h.15c27.45-26.25 41.1-57.9 41.1-95.1-.15-37.2-13.8-69-41.25-95.25zm-62.55-.75c1.2-.15 1.95.45 2.1 1.95l-.9 14.55-2.4-15c-.15-.9.15-1.5 1.2-1.5zm-33.75 30.3l14.1 4.65-15.3-1.8c-.75-.45-1.2-.9-1.2-1.65.15-.9 1.05-1.35 2.4-1.2zm-.6-19.65l11.1 11.7-13.5-9.15c-.45-1.05-.45-1.8 0-2.25.45-.9 1.2-1.05 2.4-.3zm23.55 21.9l-6.45-23.1 18.9 11.85 17.85-17.7-1.5 26.55 19.5 6.75-23.7 9.75-2.55 23.1-12.75-19.35-25.05 2.25 15.75-20.1zm34.95-6L315.8 117c1.05-.3 1.65-.45 2.1-.3 1.05.6 1.2 1.5.3 2.4l-11.25 9.75zm25.5-7.5c.75-.6 1.5-.45 2.1.6.6 1.05.3 1.95-.9 2.55-6.45 2.4-11.55 4.2-15.3 5.25l14.1-8.4zm-11.4 41.85l-12.9-7.65 14.1 4.65c1.2.45 1.65 1.05 1.2 2.1-.15 1.05-.9 1.35-2.4.9z" id="Shape" fill="#303F57"/>
    <path d="M438.2 234.9c3.75-14.55 5.7-29.85 5.7-45.9 0-52.05-19.65-96.3-58.8-133.2C345.95 18.9 298.55.45 243.05.45c-55.2 0-102.45 18.6-141.75 55.35C62.15 92.55 42.65 136.95 42.65 189c0 21.45 3.3 41.55 9.75 60.3-4.5-16.2-6.6-33.15-6.75-51.15 0-52.35 19.35-97.05 57.9-134.25C142.1 26.85 188.75 8.4 243.5 8.55c54.75 0 101.55 18.45 140.1 55.35 38.7 37.2 57.9 82.05 57.9 134.25.15 12.75-1.05 24.9-3.3 36.75zM245.75 59.1c40.2 0 74.4 13.65 102.45 40.8 28.5 27.15 42.6 59.85 42.6 98.25s-14.25 71.1-42.6 98.4c-5.4 5.25-11.25 10.05-17.25 14.25-1.65 1.35-3.45 2.4-5.25 3.6h9c1.65-1.05 3.3-2.25 4.8-3.6 4.35-3.3 8.55-6.9 12.6-10.65 29.1-28.2 43.8-62.1 43.65-101.85 0-39.75-14.55-73.8-43.65-101.85-29.4-28.2-64.95-42.15-106.5-42.15-41.4 0-76.8 14.1-106.2 42.15-29.4 28.2-44.1 62.1-44.1 101.85 0 39.75 14.7 73.8 44.1 101.85 4.05 3.9 8.25 7.35 12.45 10.65 1.65 1.2 3.15 2.4 4.8 3.6h9.15c-1.8-1.05-3.45-2.25-5.25-3.6-6-4.2-11.7-9-17.25-14.25-28.35-27.15-42.6-60-42.6-98.4 0-38.4 14.25-71.1 42.6-98.25 28.35-27.15 62.55-40.8 102.45-40.8zm62.4 96.6l12.9 7.65c1.5.45 2.25.15 2.4-.9.45-1.05 0-1.65-1.2-2.1l-14.1-4.65zm26.25-33.75c-.6-1.05-1.2-1.2-2.1-.6l-14.1 8.25c3.75-1.05 8.85-2.7 15.3-5.25 1.35-.45 1.65-1.35.9-2.4zM315.95 117l-8.85 11.85 11.25-9.75c.9-.9.75-1.8-.3-2.4-.45-.15-1.2 0-2.1.3zm-50.25-5.1l6.45 23.1-16.05 20.1 25.05-2.25 12.75 19.35 2.55-23.1 23.7-9.75-19.5-6.75 1.5-26.55-17.85 17.7-18.6-11.85zm-6.15 12.9l-11.1-11.7c-1.2-.75-1.95-.6-2.4.3-.45.45-.45 1.2 0 2.25l13.5 9.15zm3.6 12.45l-14.1-4.65c-1.35-.15-2.1.3-2.4 1.2 0 .6.45 1.2 1.2 1.65l15.3 1.8zm21.75-33c-.15-1.5-.9-2.1-2.1-1.95-1.05 0-1.35.6-1.2 1.5l2.4 15 .9-14.55zM95.3 281.1c0 1.95.6 3.45 1.95 4.8 1.35 1.35 2.85 1.95 4.65 1.95 1.95 0 3.45-.6 4.8-1.95 1.35-1.35 1.95-2.85 1.95-4.8 0-1.8-.6-3.3-1.95-4.65-1.35-1.35-2.85-1.95-4.8-1.95-1.8 0-3.3.6-4.65 1.95-1.35 1.35-1.95 2.85-1.95 4.65zm304.35 0c0-1.8-.6-3.3-1.95-4.65-1.35-1.35-2.85-1.95-4.8-1.95-1.8 0-3.3.6-4.65 1.95-1.35 1.35-1.95 2.85-1.95 4.65 0 1.95.6 3.45 1.95 4.8 1.35 1.35 2.85 1.95 4.65 1.95 1.95 0 3.45-.6 4.8-1.95 1.35-1.35 1.95-3 1.95-4.8z" id="Shape" fill="#FACB00"/>
    <path d="M281.3 213.45c1.5-2.7 1.05-4.8-1.2-6.75-2.85-1.65-5.25-1.35-7.2.9l-20.85 28.05c-3.6 5.55-6.15 9-7.65 10.35-.9 1.05-1.95 1.35-3.45.75-.75-.6-1.05-1.65-.6-3.15l22.35-48c1.65-3 .75-5.4-3-7.2-2.7-.75-5.1-.3-7.2 1.5-.6.75-2.55 4.35-5.85 10.8l-5.85 9-14.1 29.4c-.75 1.2-1.95 1.5-3.45.9-.75-.6-1.2-1.35-1.2-2.4l11.25-43.2c1.35-3.45.15-5.55-3.3-6.45-3-.6-5.25.3-6.45 2.55l-27 67.05c-2.4 2.25-4.5 2.55-6.45.9-1.65-1.5-3.6-4.65-6.15-9.75-1.05-2.4-2.1-4.8-3.45-7.05-3-5.55-7.2-9.3-12.75-11.4h-4.35c-2.1.45-3 1.35-2.85 2.55 0 1.05 2.55 6 7.5 15l3.9 9.45 4.05 18 6.45 18.15 1.95 18.3-.45 2.4h57.3l23.1-46.95 20.1-26.1c1.05-1.95.75-3.75-.9-5.55-1.8-.75-3.6-.6-5.55.3l-16.5 17.85-6.15 4.95c-.45.45-1.05.3-1.95-.3-.75-.6-.75-1.8 0-3.45l27.9-41.4zm63.9-110.4c27.6 26.25 41.25 58.05 41.25 95.1 0 37.2-13.65 68.85-41.1 95.1h-.15c-6.9 6.75-14.25 12.6-22.05 17.55-1.95 1.35-3.75 2.55-5.85 3.6h8.4c1.8-1.05 3.6-2.25 5.25-3.6 6-4.2 11.7-9 17.25-14.25 28.5-27.15 42.6-60 42.6-98.4 0-38.4-14.25-71.1-42.6-98.25-28.05-27.15-62.25-40.8-102.45-40.8-40.05 0-74.1 13.65-102.15 40.8-28.35 27.15-42.6 59.85-42.6 98.25s14.25 71.1 42.6 98.4c5.55 5.25 11.25 10.05 17.25 14.25 1.65 1.35 3.45 2.4 5.25 3.6h8.4c-1.95-1.05-3.9-2.25-5.85-3.6-7.65-4.95-15-10.8-22.05-17.55-27.45-26.25-41.25-57.9-41.25-95.1 0-37.05 13.8-68.85 41.25-95.1 27.3-26.25 60.3-39.45 99.15-39.45 39 0 72.15 13.2 99.45 39.45zM96.2 246.6l-1.2-4.05-7.8-1.2-2.1-8.85 6.15-3.75-1.2-5.25-22.35 14.4.9 3.75 27.6 4.95zm-12-5.7l-10.95-1.5 9-5.55 1.95 7.05zm-20.4-26.25l25.05-1.2-.6-14.7-3.75.3.6 9.45-21.75 1.2.45 4.95zm18.6-33.3l1.35-9.15 7.35-1.2.9-5.25L65.75 171l-.6 3.9 23.4 14.4.6-4.35-6.75-3.6zm-2.7-1.65l-9.45-5.25 10.35-1.8-.9 7.05zm4.8-33l2.4-1.5c2.55-1.5 4.35-2.1 5.55-1.65 2.1.9 2.85 2.55 2.25 4.95-.45 1.5-1.8 2.85-4.05 4.35l2.1 2.85c2.25-1.35 3.9-3.6 4.95-6.9 2.25-5.4 1.05-8.85-3.6-10.35-1.95-.6-4.5 0-7.8 1.95l-3.75 1.8c-2.25 1.2-3.6 1.65-4.2 1.5-1.65-.45-2.1-1.65-1.35-3.9.45-1.5 1.35-2.55 2.85-3.45l-1.8-2.85c-2.1 1.5-3.45 3.3-4.35 5.55-1.95 5.4-.75 8.55 3.3 9.75 1.8.75 4.35 0 7.5-2.1zm10.2-43.8l-3.45 2.85 4.65 13.5-9.45-5.7-2.7 4.35 21.75 12.6 2.7-4.35L97.55 120l16.35-1.95 1.5-4.95-16.5 2.25-4.2-12.45zm39.75-10.35l3.9-3.9L113.3 78.6l-2.4 2.7 10.35 24.75 3.15-3.15-3.15-6.75 6.45-6.75 6.75 3.15zm-14.7 1.05l-4.65-9.45 9.45 4.35-4.8 5.1zm41.1-22.2l7.8-4.05c8.85-4.2 11.25-10.2 7.2-17.7-3.9-6.75-10.05-7.95-18.75-3.75l-7.95 4.35 11.7 21.15zm-2.55-22.2c5.55-2.7 9.75-1.65 12.6 3.3 2.85 5.4 1.8 9.3-3.15 12l-4.05 2.1-8.4-15.6 3-1.8zm40.95-15.9l-.9-3.45L185 33.9l7.35 23.25 14.4-4.2-.9-3.15-9.45 2.7-2.55-7.65 8.25-2.1-1.2-3.45-7.95 2.4-2.1-6.15 8.4-2.25zm24-4.35c3.3-.45 4.95.6 5.25 3 .6 3.3-1.05 5.1-4.95 5.7l.3 3c7.35-.6 10.65-3.9 9.75-9.75-.45-4.5-3.6-6.3-9.75-5.55l-8.85 1.2 3.15 23.85 5.25-.6-2.85-20.55 2.7-.3zm34.2-4.65h-4.05l-12.6 23.85h4.35l3.45-6.9 9.45.3 2.1 7.2h5.55l-8.25-24.45zm-.3 14.7l-7.5-.3 4.65-9.45 2.85 9.75zm34.5-9.15l-8.7-2.4-6.6 23.55 4.95 1.2 2.85-9.3 3.15.9 2.4 10.95 5.55.6-3.45-11.55c3.3-.15 5.55-1.95 6.9-5.25 1.05-4.5-1.2-7.35-7.05-8.7zm-4.35 2.1l2.7.75c3 .75 4.2 2.4 3.45 4.95-.6 2.7-2.55 3.75-5.85 3l-2.55-.6 2.25-8.1zm26.55 4.5l-1.2 2.85 7.05 3-9.45 19.35 4.95 1.95 9.15-19.05L331.4 48l1.2-3.15-18.75-8.4zM370.4 70.8l-4.65-3.45-19.05 8.55 5.85-19.05-5.1-3.75-15.9 18.9 3.45 2.55 12.45-15-6.15 19.95 2.25 1.5 19.5-9.15-12.45 14.7 4.05 3.15 15.75-18.9zm-7.65 26.85l9.45 11.4 2.55-2.25-6.15-7.35 6.45-4.95 5.25 6.45 2.7-2.1-5.55-6.6 5.55-3.9 5.55 6.45 2.85-1.95-8.85-10.65-19.8 15.45zm39.75 12.15l-1.8-3.75-22.05 11.85 1.8 3.45 15.9-8.25-8.85 20.25 1.95 3.15 22.05-11.55-2.1-3.45-15.75 8.25 8.85-19.95zm15 29.25l-3 1.05 2.1 7.35-20.85 6.15 1.5 4.65 20.85-6.15 2.25 7.05 3.3-.9-6.15-19.2zm-10.95 74.4c2.7 2.25 5.85 3.3 9.45 3.15 8.1-.45 12.3-4.5 12.45-12.3.45-8.25-3.75-12.75-12.45-13.05-3.6-.15-6.9.75-9.45 3-2.7 2.55-4.05 5.7-4.05 9.45 0 4.05 1.35 7.35 4.05 9.75zm9.45-2.4c-6.75 0-10.05-2.55-10.05-7.5 0-4.8 3.3-7.35 9.75-7.35 6.3.45 9.45 3 9.15 7.8.15 4.35-2.85 6.6-8.85 7.05zm2.4 34.2l3.45.6L425 232.8l-24.45-5.55-1.2 4.95 10.35 2.1-2.25 8.25 3.45.6 2.1-7.95 7.8 1.65-2.4 8.4z" id="Shape" fill="#FFF"/>
  </g>
</svg>
