<svg xmlns="http://www.w3.org/2000/svg" viewBox="0 0 180.6 24"><path fill="#00539B" d="M72.5 18.8c1.4 0 2.6-.5 3.4-.9l-.2-1.3h-1.9l-.1-4.2V7c0-.9-.6-1.3-1.5-1.3-1.1 0-2.3.3-3.6.6v1.4h1.9v4.6l-.1 3.2c-.7.3-2.2 1-3.2 1-1.3 0-1.5-.9-1.5-2.2V7c0-.9-.5-1.3-1.5-1.3-1.1 0-2.4.3-3.7.6v1.4h2v7.2c0 2.2.3 4 4 4 1.7 0 3.1-1.1 4.1-1.9 0 1.3.8 1.8 1.9 1.8m47.5.1c.9 0 2.8-.5 3.5-.8l-.3-1.9c-.7.1-1.7.2-2.5.2-1.4 0-1.8-.2-1.8-1.3l-.1-2.9V8h4.2V6h-4.2V3.4h-.7l-4.4 3.4V8h1.9l-.1 6.9c0 3.7 1.6 4 4.5 4"/><path fill="#F9A13B" d="M147 7c-.3-.1-.7-.2-1.4-.2-1.6 0-2.8 1.2-3.4 2.3v9.5h-1.3V6h1.3v1.7c.6-1 2.1-1.9 3.7-1.9.8 0 1.3.1 1.4.2l-.3 1m20.6 11.6v-1.5c-1 .6-2.5 1.8-4.6 1.8-3.5 0-3.7-2.8-3.7-4.8V6h1.3v7.7c0 2.1.1 3.9 2.6 3.9 1.7 0 3.8-1.4 4.4-1.8V6h1.2v12.7h-1.2"/><path fill="#EE2F26" d="M23.9 7.3c-.4.4-.8.9-1.3 2l-4 9.3-2.4.7-3.8-10.6c-.2-.6-.5-.9-1.1-1.3 0-.6 0-.8.1-1.4H17v1.6h-1.5l2.5 7.7L20.7 9c.2-.5 0-1.2-.3-1.3 0-.2-.7-.3-.8-.3 0-.3-.1-1 0-1.5H24c0 .2 0 1.3-.1 1.4m7.9 11.3h-7.2c-.1-.3-.1-.8-.1-1.3l1.4-.4c.4-.1.6-.5.6-1l.1-3.5V7.7h-2.1V6.2c1.3-.3 3.1-.5 4.2-.5.7 0 1.1.2 1.1 1V16c0 .6.1.8.4.8l1.7.4c0 .5 0 1.1-.1 1.4m5.4.3c-1.9 0-3.2-.4-4.6-1l.2-3.4H34c.2 1.7 1.5 2.6 3.2 2.6 1.4 0 2.2-.3 2.2-1.5 0-2-6.3-1.6-6.3-6 0-2.7 2.3-3.9 4.9-3.9 1.3 0 2.8.3 4.3 1l-.4 3.2-1.2-.1c-.3-1.2-1-2.2-3.1-2.2-1.3 0-1.8.5-1.8 1.4 0 1.9 6.7 1.9 6.7 5.9.1 3-2.9 4-5.3 4M28 4.2c-.6 0-2.1-1.5-2.1-2.1 0-.6 1.5-2.1 2.1-2.1.6 0 2.1 1.5 2.1 2.1 0 .6-1.4 2.1-2.1 2.1"/><path fill="#00539B" d="M84.5 12.1l-.1 3.5c-.6.2-1.3.5-2.2.5-1.6 0-2.9-1.1-2.9-3.5 0-3 .7-5.1 3.1-5.1.9 0 1.6.1 2.1.3v4.3m5.1 4.4h-1.9l-.1-4.4V2c0-1-.3-1.2-1.2-1.2-1.1 0-2.8.2-4.1.5v1.5h2.1V6c-.6-.1-1.1-.1-2-.1-3.6 0-6.5 2.7-6.5 6.9 0 5 2.6 6 5.1 6 1.6 0 2.7-1.2 3.4-1.9 0 .9.3 1.9 1.5 1.9 1.7 0 2.9-.6 3.9-1.2l-.2-1.1z"/><path fill="#00539B" d="M94.8 12.3c-1.6 0-2.2-1.1-2.2-2.5s.5-2.7 2.3-2.7c1.4 0 2.1 1.1 2.1 2.6-.1 1.6-.8 2.6-2.2 2.6m-2.6 6.1h3.9c1.5 0 2.2.3 2.2 1.3 0 1.3-1 2.2-2.9 2.2-2.8 0-4-.8-4-2.1.2-.6.5-1.1.8-1.4zm10.1-12.7l-3.7.9c-.7-.6-2-1-3.9-1-3.5 0-5.2 2.2-5.2 4.5 0 1.4.6 2.4 1.6 3.1-.9 1.1-1.6 2.6-1.6 3.5 0 1.1.9 1.5 1.4 1.5-.9.4-2 1.4-2 2.7 0 2.3 2.6 2.9 5.2 2.9 4 0 7.4-1.9 7.4-4.8 0-2.3-1.1-3.2-5.2-3.2h-4.2v-2.2c.8.3 1.7.4 2.7.4 3.1 0 5.3-1.7 5.3-4.2 0-.8-.2-1.4-.3-1.7h2.4V5.7z"/><path fill="#00539B" d="M105 10.9c.1-2.1 1.1-3.5 2.9-3.5 1.5 0 2.2 1.3 2.1 3.5h-5m8.4.6c0-3.5-1.4-5.8-5.3-5.8s-6.3 3.4-6.3 6.9c0 5.1 2.5 6.2 6.7 6.2 1.5 0 3.4-.4 4.7-1.2l-.6-1.7c-1.4.3-2.7.4-3.6.4-2.2 0-3.8-.8-4-3.8h8.4v-1z"/><path fill="#F9A13B" d="M133.3 12.8c-1.9 0-3.2-1-3.2-3 0-2.1 1.1-3.3 3.2-3.3 2 0 3.1 1.3 3.1 3.2 0 2-1.3 3.1-3.1 3.1m-2.5 4.4h2.8c2.8 0 4 1.1 4 2.3 0 1.5-1.9 3.3-4.5 3.3-2.5 0-3.8-1.1-3.8-2.6-.1-.9.4-2 1.5-3zm8.9-10.8h-3.5c-.2-.2-1-.9-3-.9-3.2 0-4.5 2.1-4.5 4.4 0 1.4.5 2.3 1.3 3-.7 1-1 2.2-1 3 0 .5.2 1 .7 1.2-1.2 1.2-1.9 2.5-1.9 3.6 0 1.9 1.7 3.4 4.7 3.4 4 0 6.4-2.5 6.4-4.7 0-1.8-1.5-3.4-4.9-3.4h-3.6v-2.6c.8.4 1.8.6 2.9.6 2.6 0 4.5-1.7 4.5-4.1 0-1.3-.4-2-.5-2.2h2.4V6.4zm12.8 11.3c-3.2 0-4.2-2.6-4.2-5.4 0-2.5.9-5.5 4.2-5.5 3.4 0 4.2 3.1 4.2 5.5-.1 2.6-1 5.4-4.2 5.4m0-12c-3.2 0-5.6 2.3-5.6 6.7 0 4.2 2.1 6.4 5.5 6.4 3.2 0 5.5-2 5.5-6.5 0-4.3-1.9-6.6-5.4-6.6zm22.4 12c-1.7 0-2.3-.1-2.9-.2V8.3c.4-.3 2.1-1.3 3.5-1.3 3.3 0 3.9 2.9 3.9 5.6-.1 2.9-1.6 5.1-4.5 5.1m.7-11.9c-1.4 0-2.7.6-3.6 1.3V6h-1.3v17.8h1.3v-5.1c.7.1 1.6.2 2.9.2 3 0 5.8-1.6 5.8-6.8-.1-3.9-1.9-6.3-5.1-6.3z"/><path fill="#EE2F26" d="M7.3 15.7c-.4.1-1.7.7-2.7.7-1 0-1.4-.5-1.4-1.2 0-1 .8-1.6 2.2-1.8.7-.1 1.7-.2 1.9-.3v2.6m5.2.8h-1.9l-.2-4.2v-3c0-3.5-3.2-3.6-5.2-3.6-1.4 0-2.9.2-4.5.8l.6 2.2c1.3-.3 2.5-.5 3.3-.5 2.2 0 2.6.4 2.6 1.7v1.6c-.4 0-1.4.1-2.5.3-2.3.4-4.7 1.3-4.7 4.1 0 2 1.3 2.9 3.3 2.9 1.9 0 3.4-1.3 4-2 .1 1.3.5 2 2.2 2 .9 0 2.4-.6 3.1-1.3l-.1-1z"/><path fill="#00539B" d="M57.1 11.8c0 1.8-.2 2.7-.9 3.7s-1.9 1.2-2.4 1.2-1.8-.2-1.8-.2l-.1-4V8.3c.7-.3 2.3-.4 2.3-.4 3.1-.1 2.9 3.9 2.9 3.9m3.4-.4s.1-3.1-1.6-4.5c0 0-1.1-1.1-3.9-1.1 0 0-1.6 0-3.1.7V1.8s0-.8-.9-.8c-1.2 0-2.7.2-4.3.6V3h2.1v9.6l-.1 5.7s2.6.8 5.3.6c0 0 3 .1 5-2.3-.1-.1 1.6-1.9 1.5-5.2z"/></svg>
