<svg viewBox="0 0 251 57" xmlns="http://www.w3.org/2000/svg">
  <defs>
    <linearGradient x1="49.991%" y1="-2.459%" x2="49.991%" y2="103.1%" id="linearGradient-1">
      <stop stop-color="#007A4E" offset="0%"/>
      <stop stop-color="#8AC9AC" offset="60%"/>
      <stop stop-color="#009A65" offset="100%"/>
    </linearGradient>
    <linearGradient x1="49.968%" y1="-28.025%" x2="49.968%" y2="96.867%" id="linearGradient-2">
      <stop stop-color="#009A64" offset="0%"/>
      <stop stop-color="#8BC9AC" offset="30%"/>
      <stop stop-color="#009862" offset="55%"/>
      <stop stop-color="#00784B" offset="84%"/>
      <stop stop-color="#007F51" offset="89%"/>
      <stop stop-color="#009666" offset="98%"/>
      <stop stop-color="#009D6E" offset="100%"/>
    </linearGradient>
    <linearGradient x1="3822%" y1="6693%" x2="3822%" y2="2418.361%" id="linearGradient-3">
      <stop stop-color="#009760" offset="0%"/>
      <stop stop-color="#14A87A" offset="100%"/>
    </linearGradient>
  </defs>
  <g id="Page-1" fill="none" fill-rule="evenodd">
    <g id="botw-bnpp-default" transform="translate(-19 -18)">
      <path id="Shape" d="M.5.5h288v92H.5z"/>
      <path id="Shape" fill="url(#linearGradient-1)" fill-rule="nonzero" d="M19 18h56.13v56.13H19z"/>
      <path d="M73.39 46.39c0 11.72.54 23.71.54 23.71a1.998 1.998 0 0 1-2 2.21H23.38c-1.09 0-1.84-1-2-2.21a210.874 210.874 0 0 1-1.36-25.89c0-15.65 1.4-23 1.4-23 .17-1.29.88-2.21 2-2.21h48.54a2.087 2.087 0 0 1 2 2.21s-.57 13.46-.57 25.18z" id="Shape" fill="url(#linearGradient-2)" fill-rule="nonzero"/>
      <path d="M47.84 59.94c-.91 1.23-1.68 2.2-2.68 3.32-1.52.266-3.068.356-4.61.27l-.18.39c.98.51 2.027.88 3.11 1.1-.9.718-1.854 1.37-2.85 1.95l-.18.39a22.23 22.23 0 0 0 5.78-2.17c.784.033 1.57-.024 2.34-.17l.18-.39c-.11-.4-.46-.64-.57-1.19a40.854 40.854 0 0 0 4.13-3.75l.19-.39a35.119 35.119 0 0 1-4.48 2.92c-.09-.77-.14-1.42-.18-2.28zM37.22 63.5l.18-.39c-1.84-.72-3.69-1.28-5.18-2.69a15.246 15.246 0 0 1 1.88-3.62l.18-.4c-1.58.24-3 .82-4.39 1.09-1.08-1.9-1.5-4.5-2-7l-.18.39a23.733 23.733 0 0 0 0 7.09c-1.034.19-2.056.44-3.06.75l-.18.39c1.386.88 2.825 1.67 4.31 2.37a14.715 14.715 0 0 0 3.24 4.68l.18-.39a8.411 8.411 0 0 1-.48-3.16 20.61 20.61 0 0 0 5.5.89zm5.12-28.19a20.144 20.144 0 0 0-1.32 3.06h-.14c3.28.467 6.465 1.46 9.43 2.94l-.18.39c-2.8-.584-5.668-.77-8.52-.55-.683.01-1.36.136-2 .37a32.527 32.527 0 0 0-1.75 6.81l-.18.39c-.82-2-2-5.91-2-5.91-2.26 1.21-7.47 6.1-7.47 6.1a30.128 30.128 0 0 1 5.78-8.35c-1-1-3.62-1.52-5.53-1.6l.18-.39a29.552 29.552 0 0 1 5.29-.55 28.055 28.055 0 0 1 3.15.05 15.655 15.655 0 0 1 5.26-2.76zm20.24-2.15c-3.47 2-4.53 2.2-8.3 4.46l.18-.42a38.616 38.616 0 0 0 4.14-5 84.64 84.64 0 0 0-12.13 1.4l.19-.39a51.553 51.553 0 0 1 12.45-3.58c-.76-1.06-6.91-4.39-8.45-5l.18-.39a40.317 40.317 0 0 1 13.55 4.36c1.45-.346 2.93-.54 4.42-.58 0 0-.31 1.27-2.61 2.85.57 1.53-.8 10-1.93 12.24-.06-3.55-.37-8.01-1.69-9.95z" id="Shape" fill="url(#linearGradient-3)" fill-rule="nonzero"/>
      <path d="M48.02 59.55a42.386 42.386 0 0 1-2.69 3.32c-1.556.454-3.17.676-4.79.66.982.502 2.028.866 3.11 1.08a21.6 21.6 0 0 1-3 2.34 22.216 22.216 0 0 0 5.78-2.18c.786.038 1.575-.013 2.35-.15a13.347 13.347 0 0 1-.42-1.6 39.432 39.432 0 0 0 4.14-3.75 27.909 27.909 0 0 1-4.32 2.53c-.08-.78-.16-1.39-.16-2.25zM37.4 63.11a13.776 13.776 0 0 1-5-3.07 15.555 15.555 0 0 1 1.89-3.63c-1.62.24-2.81.42-4.21.69a21.568 21.568 0 0 1-2.23-6.57 23.8 23.8 0 0 0 0 7.1c-1.11.29-2.193.672-3.24 1.14a40.342 40.342 0 0 0 4.31 2.37c.783 1.75 1.9 3.33 3.29 4.65a8.63 8.63 0 0 1-.3-3.55c1.782.537 3.63.83 5.49.87zm5.18-28.09c-.665.918-1.19 1.93-1.56 3a25.5 25.5 0 0 1 9.25 3.33c-2.8-.59-5.668-.774-8.52-.55a6.49 6.49 0 0 0-2 .35 35.555 35.555 0 0 0-1.94 7.2c-.82-2-2-5.91-2-5.91-2.26 1.21-7.47 6.11-7.47 6.11a29.77 29.77 0 0 1 5.77-8.34c-1-1-3.62-1.52-5.54-1.6a21.65 21.65 0 0 1 5.51-1 28.54 28.54 0 0 1 3.15.06 15.77 15.77 0 0 1 5.35-2.65zm20.18-2.26c-3.46 2-4.52 2.21-8.29 4.46a38.352 38.352 0 0 0 4.31-5.38c-4.07.17-8.12.64-12.12 1.4a48.197 48.197 0 0 1 12.64-4c-.76-1.05-6.92-4.39-8.45-5 4.88.38 10.84 2.2 13.73 4a22.532 22.532 0 0 1 4.44-.6 5.854 5.854 0 0 1-2.64 2.84c.58 1.54-.8 10-1.93 12.24-.05-3.55-.36-8.02-1.69-9.96z" id="Shape" fill="#FFF" fill-rule="nonzero"/>
      <path d="M214.45 51.51a14.45 14.45 0 0 1 4 .51v3a8.294 8.294 0 0 0-4.32-1.4c-1.36 0-1.45.53-1.45.93 0 2 6.83 2 6.83 5.68 0 2.36-2.2 3.85-5.87 3.85a13.377 13.377 0 0 1-4.28-.71v-2.86c2.52 1.18 3.85 1.56 5 1.56.94 0 1.62-.42 1.62-1.23 0-2.29-6.81-2.07-6.81-6-.01-2.1 2.12-3.33 5.28-3.33zm-11.5.32c.45 1.42 4.41 10.06 5.32 12h-3.94c-.16-.47-.47-1.11-1-2.62h-4c-.35 1-.67 1.76-1 2.6h-3.51c.67-1.49 4.61-10.08 5.32-12l2.81.02zm-.33 7.55c-.47-1.16-1.11-2.6-1.42-3.61-.33 1-1 2.6-1.4 3.61h1.44c.55.04.84.01 1.37-.01l.01.01zm-13.49-7.55c2.22 0 4.65.8 4.65 2.85a3.068 3.068 0 0 1-2.38 2.61c1.89.69 3 1.78 3 3.2 0 2.49-3 3.34-5.88 3.34h-6.5c.16-1.56.2-3.8.2-6.3 0-1.64 0-4.14-.18-5.7h7.09zm-1.82 1.52c-.485-.002-.97.028-1.45.09-.07 1.56-.09 2.32-.09 4.09 0 2.16 0 3 .09 4.68h1.74c2 0 3-.6 3-1.85s-1.27-2-2.94-2h-1l.69-1.8h.73c.84 0 2-.45 2-1.54s-1.06-1.68-2.78-1.68l.01.01zm-7.91-1.52c-.09 1.36-.16 4.56-.16 5.72 0 1.16 0 4.63.16 6.28h-4c.2-1.82.22-5.25.22-6.28 0-1.03-.07-4.36-.15-5.72h3.93zm-12.28 0c2.63 0 5.76.94 5.76 3.72 0 1.49-1.11 2.56-2.85 3.25.36.62 3.27 4.41 3.85 5h-4.29c-.76-1.45-2.21-3.94-3.63-6.05 1.71.22 3.2-.6 3.2-2.25s-1.82-2-2.71-2h-1.42c-.07 1.47-.09 3.23-.09 4 0 1 0 4.48.2 6.3h-4a58.37 58.37 0 0 0 .25-6.3 52.392 52.392 0 0 0-.2-5.7l5.93.03zm-12.69 0c.45 1.42 4.41 10.06 5.32 12h-3.94c-.16-.47-.47-1.11-1-2.62h-4c-.35 1-.67 1.76-1 2.6h-3.43c.67-1.49 4.61-10.08 5.32-12l2.73.02zm-.33 7.55c-.47-1.16-1.11-2.6-1.42-3.61-.33 1-1 2.6-1.4 3.61h1.44c.55.04.84.01 1.38-.01v.01zm-12.42-7.55c2.61 0 5.74.74 5.74 3.52 0 2.45-2.23 3.67-6.74 3.67h-1.2c.09 1.67.07 3.69.18 4.83h-3.94c.15-1.65.2-4.36.2-6.3 0-1.71 0-4.56-.2-5.7l5.96-.02zm-2.16 1.67v3.81h1.16c1.27 0 3-.35 3-2s-1.8-1.87-3.16-1.87c-.15.03-.81.03-.99.05l-.01.01zm-16-1.67c2.6 0 5.74.74 5.74 3.52 0 2.45-2.23 3.67-6.74 3.67h-1.2c.09 1.67.06 3.69.18 4.83h-3.94c.16-1.65.2-4.36.2-6.3 0-1.71 0-4.56-.2-5.7l5.96-.02zm-2.16 1.67v3.81h1.16c1.27 0 3-.35 3-2s-1.8-1.87-3.16-1.87c-.15.03-.81.03-.99.05l-.01.01zm-6.58-1.67c-.11 1.36-.18 4.52-.18 5.7 0 1.18 0 4.65.18 6.3h-2.83l-4.54-6.7a4.081 4.081 0 0 1-.76-1.65v3.81c0 1.45 0 3.5.18 4.54h-3.23c.2-1.82.22-5.25.22-6.3 0-1.05-.07-4.34-.15-5.7h3.67l3.83 6.19c.154.224.272.47.35.73v-7l3.26.08zm-18.47 0c2.22 0 4.65.8 4.65 2.85a3.068 3.068 0 0 1-2.38 2.61c1.89.69 3 1.78 3 3.2 0 2.49-3 3.34-5.88 3.34h-6.54c.16-1.56.2-3.8.2-6.3 0-1.64 0-4.14-.18-5.7h7.13zm-1.83 1.52c-.485-.002-.97.028-1.45.09-.07 1.56-.09 2.32-.09 4.09 0 2.16 0 3 .09 4.68h1.74c2 0 3-.6 3-1.85s-1.27-2-2.94-2h-1l.69-1.8h.73c.85 0 2-.45 2-1.54s-1.03-1.68-2.77-1.68v.01zm164.85-16.5c0 1.56-.06 6.93-.31 9.43h5c-.29-2.5-.29-7.86-.29-9.43 0-1.26 0-3.88.11-6.07 1.962.007 3.922.127 5.87.36V28.3h-16.36v2.85a50.599 50.599 0 0 1 5.85-.36c.05 2.23.13 4.8.13 6.06zm-11.03 5.03c0 1.39-1.36 1.93-3.16 1.93a14.357 14.357 0 0 1-7-2v3.88c1.938.625 3.964.936 6 .92 5.28 0 8.41-2 8.41-5.55 0-5.7-10.41-5.32-10.41-8.58 0-1.13 1.21-1.56 2.79-1.56 2.12.03 4.193.63 6 1.74v-4c-1.8-.466-3.65-.698-5.51-.69-4.54 0-7.57 1.74-7.57 4.9.04 6.01 10.45 5.5 10.45 9.01zm-12.75 4.4v-2.6c-3.36.2-6.72.23-10.11.28-.08-1.85-.1-4.11-.13-5.68l6.59.15v-2.71l-6.57.16c0-1.41 0-3.44.08-5.14h2.16c2.5-.064 5 .012 7.49.23V28.3h-14.4c.13 2.08.23 6.83.23 8.57 0 1.57 0 6.91-.26 9.41h14.92zM218.37 28.3h-3.95c-.18 1.72-2.15 8-3.85 13-1.33-4.13-2.54-8.63-3.72-13h-3.1a119.788 119.788 0 0 1-4 12.56c-.9-3.08-2.23-7.52-3.31-12.56h-4.62c1.9 6 3.77 12.09 5.62 18h3.54c1.18-3.29 3-8.38 3.79-10.4.67 2.18 2.61 8.07 3.28 10.4h3.9c2.14-6 4.29-12.02 6.42-18zm-43.64 8.83a4.063 4.063 0 0 0 3.96-4.145 4.063 4.063 0 0 0-4.133-3.973 4.058 4.058 0 0 0-3.987 4.118 3.939 3.939 0 0 0 4.16 4zm0-7.13c1.15 0 1.86 1.08 1.86 3.09s-.72 3-1.86 3c-1.14 0-1.91-1-1.91-3s.74-3.07 1.91-3.07V30zm-8.77 9.94c.832-.11 1.67-.167 2.51-.17 0 .85.06 1.74.06 2.55 0 .81 0 2.89-.15 4.09h2.46c-.14-1.2-.16-3.43-.16-4.09 0-.49 0-1.73.07-2.55.827 0 1.653.063 2.47.19v-1.34h-7.26v1.32zm15.91-1.32h-2.4c.06.74.08 2.29.1 3.2h-1.41c-.55 0-1 0-1.39-.05 0-.93 0-2.45.09-3.19h-2.4c.07.88.11 2.95.11 3.71 0 .76 0 2.9-.14 4.07h2.45c-.08-.86-.13-2.05-.13-3.44h2.83c0 1.21-.05 2.66-.11 3.44h2.43c-.11-1.2-.11-3.41-.11-4.07 0-.66.02-2.8.08-3.67zm6 6.65h-1.61v-2.25h2.63v-1.25l-2.62.07v-2h1.62c.765-.012 1.53.025 2.29.11v-1.33h-6.24c.06.88.1 3 .1 3.71s0 3-.12 4.07h6.47v-1.26a23.35 23.35 0 0 1-2.55.13h.03zm-2.64-11.61v-1.23l-2.51.05v-2.12h1.3c.79-.01 1.582.023 2.37.1v-1.28h-6c.06.88.09 3 .09 3.71s0 2.88-.11 4.08h2.45c-.11-1.1-.155-2.205-.14-3.31h2.55zM152.7 46.28c-.23-2.16-.26-6.4-.26-8.55 1.64 2.08 5.08 6.6 6.26 8.55h5.66c-1.08-1.08-7-8.76-8-10.15 1.31-1.31 6.23-6.83 7.18-7.83h-4.52a63.047 63.047 0 0 1-6.62 8c0-2.06.1-6.14.23-8h-4.92c.15 2.08.25 6.83.25 8.57 0 1.57 0 6.91-.28 9.41h5.02zm-19.9 0c-.18-1.39-.23-4.55-.23-6.76v-6.55c.21.722.55 1.4 1 2l7.69 11.33h3.36c-.28-2.5-.31-7.84-.31-9.43 0-1.75.11-6.5.28-8.55h-4.24c.36 3.13.534 6.28.52 9.43v1.87a10.691 10.691 0 0 0-1.69-2.85l-5.74-8.45h-4.72c.13 2.05.23 6.8.23 8.55 0 1.59 0 6.93-.28 9.43l4.13-.02zm-14.57-17.99h-3.46c-.95 2.65-7 15.75-8 18h4.31c.41-1.34.87-2.73 1.44-4.24 1.18 0 2.21-.05 3.56-.05s2.51 0 3.54.05c.77 1.92 1.35 3.42 1.64 4.24h4.95c-1.39-2.99-7.29-16.14-7.98-18zm-1.82 11.44c-.84 0-1.9 0-2.67-.05.95-2.29 1.85-4.34 2.67-6.09l2.61 6.09c-.92.02-1.79.05-2.61.05zm-15.15-3.29c2.28-.59 3.79-2.18 3.79-4 0-3-3.38-4.16-6.59-4.16h-9.2c.23 2.36.25 6.09.25 8.55 0 3.67 0 7.06-.28 9.43h8.33c4.11 0 8.41-1.29 8.41-4.94.05-2.3-1.61-3.93-4.71-4.88zm-5.11 7.71h-2.08c-.13-2.65-.13-4-.13-7.26 0-2.77.05-4.06.16-6.45.527-.073 1.058-.11 1.59-.11 3.52 0 4.8.72 4.8 2.62 0 1.9-2.08 2.46-3.54 2.46h-.62l-1 2.55h1c2.16 0 5 .85 5 3.21.01 1.97-1.71 2.97-5.18 2.97v.01z" id="Shape" fill="#222221" fill-rule="nonzero"/>
    </g>
  </g>
</svg>
