<svg xmlns="http://www.w3.org/2000/svg" viewBox="0 0 2234 999">
  <g fill="none">
    <path fill="#000" d="M640.02 406.346c65.756 0 105.768 11.569 125.884 36.25 10.972 13.45 16.497 31.322 16.627 53.954.065 12.568-1.53 26.601-4.747 42.23l-45.083 217.723c-6.238 30.09-10.012 53.15-9.909 72.242.026 6.057.597 11.673 1.466 16.977h-123.33c-.038-1.348-.22-2.632-.233-4.033-.039-9.014.648-18.547 1.44-28.417l1.284-17.833h-6.822l-2.685 4.228c-22.14 35.589-72.397 57.598-115.457 57.598-35.693 0-61.256-9.143-75.99-27.236-16.251-19.935-20.142-51.166-11.556-92.786 16.822-81.294 53.773-115.69 146.468-136.48l61.541-14.008c36.51-8.08 54.11-24.163 60.634-55.653 3.554-17.276 1.634-30.622-5.746-39.727-6.86-8.378-17.846-12.62-32.658-12.62-32.956 0-50.504 17.03-61.347 59.39H449.753c29.597-114.29 131.189-131.8 190.266-131.8zm-1.363 224.143s-2.477 2.283-7.263 4.15c-7.794 3.01-25.07 5.824-35.77 8.509-8.288 2.075-17.64 4.461-27.73 8.69-26.873 11.4-40.738 30.011-47.87 64.29-4.151 20.065-1.713 36.458 7.12 47.288 6.588 8.132 16.367 12.412 28.144 12.412 48.079 0 63.137-45.978 70.296-80.633l13.398-64.719h-.325l-13.06 64.72zM1080.72 807.28c-26.017-31.919-31.127-82.176-13.164-171.668 39.181-194.87 113.239-229.253 177.685-229.253 30.648 0 76.781 11.348 82.203 65.108l.856 8.352h8.936s10.493-50.569 12.762-61.852h119.815l-88.986 427.768c-21.127 102.19-86.741 153.082-207.114 153.082-111.514 0-128.063-65.756-130.566-86.106-.947-7.73 1.634-30.544 1.634-30.544h116.585v.104c.052 10.389.83 25.706 4.358 30.012 4.812 5.953 8.82 12.944 27.327 12.944 24.552 0 48.053-7.068 59.531-62.488l19.805-96.003h-9.546l-2.658 4.54c-23.865 41.322-68.351 62.216-115.21 62.216-28.846-.026-49.908-8.534-64.253-26.212zm118.946-181.149c-13.1 63.435-12.542 87.819.272 103.55 6.381 7.848 15.914 11.622 29.078 11.622 36.432 0 54.214-22.114 72.722-111.385 13.203-63.915 14.565-104.523 1.92-120.1-6.213-7.574-15.305-11.335-27.834-11.335-37.625.026-57.715 38.403-76.158 127.648zm462.281-208.164c-4.254 20.634-85.626 414.085-88.48 427.768H1443.77l88.557-427.768zm238.19-142.707c-4.332 20.985-115.133 556.572-118.051 570.475h-129.698c4.332-21.05 115.159-556.623 118.077-570.475zm207.944 0c-4.384 20.985-115.21 556.572-118.142 570.475h-129.645c4.383-21.05 115.236-556.623 118.09-570.475zM1099.188 406.346c-42.502 0-93.084 29.74-117.779 77.546l-2.568 4.928h-9.493s11.413-55.147 14.63-70.866h-11.103v-.052H849.507c.869 5.343 1.44 10.933 1.479 17.016.077 13.722-1.894 29.584-5.305 48.624-24.046 116.157-71.749 346.5-74.965 362.18h129.75c8.287-40.18 48.765-236.036 48.765-236.036 12.205-58.922 46.756-86.379 108.622-86.379 10.674 0 20.064.61 29.299 1.971 2.88-13.903 21.011-101.423 24.604-118.932zM25.655 823.466c-32.399-39.765-33.839-112.876-4.929-252.43 46.146-223.08 112.889-298.357 264.415-298.357 60.542 0 103.044 14.436 126.26 42.93 15.02 18.391 22.62 43.527 22.801 75.043.104 17.172-2.01 36.264-6.316 57.132l-6.2 29.83H294s9.455-60.88 9.39-74.303c-.09-15.11-.674-23.281-6.446-30.907-5.992-7.899-14.89-14.215-28.858-14.215-56.431 0-74.978 53.76-107.117 209.098-24.954 120.58-33.89 175.922-14.604 199.566 7.302 8.923 18.313 13.268 33.76 13.268 44.435 0 61.957-38.105 84.29-144.133h128.622c-2.529 12.283-6.744 32.58-6.744 32.58-27.042 130.736-103.68 197.05-227.775 197.05-67.21-.026-109.426-13.45-132.862-42.152zm2109.96-548.517h38.935l-1.31 6.2h-16.018l-11.517 55.77h-6.86l11.516-55.77h-16.004zm86.028 0h12.062l-12.814 61.97h-6.861l10.557-51.062c.532-2.646 1.245-5.201 1.622-7.834h-.156c-1.492 3.618-2.555 5.94-3.645 8.34l-23.436 50.555h-8.158l-2.386-51.32a164.194 164.194 0 0 1-.234-7.575h-.155c-.558 2.633-.934 5.356-1.518 8.002l-10.518 50.893h-6.861l12.814-61.969h12.165l2.127 48.351c.13 2.633-.077 5.188-.583 9.17h.181c1.064-3.139 2.101-6.213 3.502-9.26z"/>
    <path fill="#2e914e" d="M1673.035 367.488c10.207-235.103-273.273-411.608-537.869-356.72-264.48 54.849-392.296 285.114-425.707 356.24h43.255C810.61 269.631 869.22 194.044 969.14 165.886c63.474-17.898 113.33-13.787 236.076 54.68 56.535 31.556 184.495 126.404 321.935 145.366 59.739 8.236 145.884 1.556 145.884 1.556z"/>
  </g>
</svg>
