<svg xmlns="http://www.w3.org/2000/svg" viewBox="0 0 300 65"><path d="M295.713 50.05c0 1.974-1.45 3.396-3.297 3.396-1.87 0-3.32-1.422-3.32-3.395 0-1.924 1.45-3.37 3.32-3.37 1.846 0 3.297 1.446 3.297 3.37m-7.397 0c0 2.347 1.884 4.047 4.1 4.047 2.2 0 4.078-1.7 4.078-4.046 0-2.316-1.878-4.02-4.078-4.02-2.216 0-4.1 1.703-4.1 4.02m3.244-1.725h.96c.822 0 1.038.246 1.038.69 0 .51-.282.763-1.154.763h-.844v-1.453zm0 2.045h.806l1.236 2.026h.784l-1.328-2.055c.695-.082 1.217-.442 1.217-1.276 0-.917-.54-1.33-1.65-1.33h-1.78v4.662h.716V50.37zm-4.306-38.905l-10.636 19.268-10.276-19.268h-9.632c1.786 3.26 14.398 26.97 14.398 26.97v15.635h10.34c.006-2.124.003-15.567.003-15.567s13.097-23.756 14.952-27.037h-9.148zM244.367 31.53c7.56-.694 9.2-4.392 9.2-9.723 0-4.69-1.99-7.08-4.165-8.422-1.824-1.146-3.982-1.92-8.51-1.92h-19.926V54.07h20.186c6.205 0 8.787-1.214 9.985-2.04 2.052-1.37 4.716-4.414 4.716-9.257 0-5.726-1.988-11.462-11.486-11.242m-5.1 16.352h-8.688V17.574h9.463c3.205 0 5.203 2.545 5.203 6.02 0 5.35-2.59 5.485-9.957 5.75v4.935c6.583-.026 11.865-.418 11.865 6.403 0 3.425-2.19 7.2-7.89 7.2m-41.33-36.415h-9.616V54.07h27.368v-7.086h-17.752m-26.321-7.826c0 7.56-2.643 9.287-10.052 9.287-7.42 0-10.052-1.727-10.052-9.287V26.395c0-7.37 2.633-8.963 10.052-8.963 7.41 0 10.052 1.593 10.052 8.963v12.763zm4.248-25.316c-2.93-2.045-7.877-3.12-14.3-3.12-6.278 0-10.836.875-14.335 3.136-3.647 2.36-5.373 6.307-5.373 12.48v13.42c0 6.19 1.792 10.373 5.332 12.456 2.873 1.994 7.548 2.942 14.376 2.942 6.727 0 11.537-.974 14.284-2.892 3.56-2.213 5.414-6.52 5.414-12.508v-13.42c0-5.878-1.814-10.082-5.398-12.494m-49.683 24.311c0 7.46-3.982 9.344-7.323 9.344H107.06V17.725h11.794c3.34 0 7.323 1.882 7.323 8.818v11.61zm-7.397-26.686H97.44V54.07h22.832c11.256 0 15.44-4.586 15.44-16.94v-9.364c.002-11.73-4.743-16.3-16.932-16.3M3.006 60.14h78.757V5.5H3.006v54.64zm18.27-7.08h-8.98V12.573h8.98c9.317 0 17.11 9.25 17.11 20.162 0 11.246-7.792 20.325-17.11 20.325m51.216 0h-9.006c-9.327 0-17.104-9.078-17.104-20.324 0-10.91 7.776-20.162 17.104-20.162h9.006V53.06z"/></svg>
