<svg xmlns="http://www.w3.org/2000/svg" viewBox="0 0 186 19">
  <g fill="none" fill-rule="evenodd">
    <path fill="#1A1918" d="M38.73 14.806c0 .943.07 1.595.216 1.885.145.22.507.37 1.088.37l1.16.07v.73c-1.306 0-2.465-.07-3.626-.07-1.232 0-2.392.08-3.697.08v-.72l1.24-.07c.58 0 .87-.14 1.02-.36.22-.29.22-.94.22-1.88v-5.6c-.29 0-.94-.07-2.03-.07h-5.88c-1.08 0-1.74.08-2.1.08v5.59c0 .94.08 1.59.29 1.88.15.22.44.37 1.02.37l1.23.07v.73c-1.3 0-2.53-.07-3.62-.07-1.23 0-2.46.08-3.69.08v-.72l1.16-.07c.58 0 .94-.14 1.09-.36.15-.29.22-.94.22-1.88V3.57c0-.942-.07-1.595-.21-1.885-.15-.217-.51-.362-1.09-.362l-1.16-.07v-.73c1.23 0 2.46.072 3.7.072 1.09 0 2.32-.073 3.63-.073v.725l-1.23.073c-.58 0-.87.147-1.01.364-.21.29-.29.943-.29 1.885v4.49h10v-4.5c0-.95 0-1.6-.22-1.89-.14-.22-.43-.36-1.01-.36l-1.24-.07V.52c1.31 0 2.47.073 3.7.073 1.16 0 2.32-.074 3.63-.074v.72l-1.16.07c-.58 0-.94.15-1.09.36-.14.29-.21.94-.21 1.88V14.8m5.14-8.41c0-.727 0-1.235-.15-1.45-.143-.22-.36-.29-.87-.29l-.94-.075v-.65c.58 0 1.087.074 1.667.074h1.74c1.74 0 3.55-.07 4.71-.07.87 0 1.81.08 2.535.08-.214.87-.29 2.03-.29 3.05H51.6V5.75c0-.217 0-.435-.14-.507-1.083-.44-2.68-.44-3.91-.44-.58 0-1.16 0-1.74.147v5.364c.654 0 1.38.08 2.32.08 1.234 0 1.96-.07 2.176-.216.07-.073.148-.29.148-.51l.08-1.086h.65c-.07.87-.07 1.596-.07 2.32 0 .726 0 1.524.07 2.25h-.67l-.07-1.16c0-.292-.07-.437-.14-.51-.22-.216-.94-.29-2.174-.29-.94 0-1.67 0-2.32.074v5.583c.58.14 1.16.21 1.74.21 1.598 0 3.628-.08 3.99-.29.36-.15.58-1.02.72-2.25h.73c-.22.94-.36 2.25-.36 3.26-.87.07-2.47.15-3.92.07-1.52 0-3.112-.08-4.35-.08-.793 0-1.45.07-2.17.07v-.58l.72-.07c.51 0 .73-.08.87-.29.15-.22.15-.73.15-1.53V6.4m11.81-.004c0-.725 0-1.233-.14-1.45-.15-.218-.36-.29-.87-.29l-.87-.073V3.93c.87.073 1.67.073 2.39.073.36 0 .73 0 1.09-.072l9.57 11.82h.07V6.4c0-.725-.07-1.233-.22-1.45-.07-.218-.36-.29-.8-.29L65 4.587V3.93c.8.073 1.67.073 2.32.073.8 0 1.52 0 2.464-.072v.66l-.94.08c-.434 0-.724.07-.797.29-.14.22-.212.73-.212 1.45V17.5c0 .216.07.506.07.724l-1.813-.29-9.43-11.75v9.207c0 .8 0 1.31.15 1.53.144.21.362.29.87.29l.87.07v.58c-.87 0-1.596-.08-2.39-.08-.728 0-1.526.07-2.32.07v-.58l.87-.07c.504 0 .722-.07.87-.29.142-.22.142-.72.142-1.52v-9m18.48 8.99c0 .8 0 1.31.148 1.53.14.22.36.29.87.29l.94.07v.58c-1.017 0-1.96-.07-2.9-.07-.945 0-1.887.08-2.974.08v-.58l1.01-.07c.436 0 .65-.07.8-.29.14-.22.216-.72.216-1.52v-9c0-.72-.07-1.23-.213-1.45-.15-.21-.36-.29-.8-.29l-.87-.07v-.65c1.1.07 2.26.07 3.42.07 1.16 0 2.32 0 3.48-.07 3.26 0 4.06 1.6 4.06 3.05 0 2.18-1.96 3.48-3.92 3.85L82 16.76c.29.36.726.43 1.233.5v.58c-.507 0-1.015-.07-1.45-.07-.435 0-.87.073-1.377.073-.22-.36-.58-.725-.8-1.087l-3.697-4.93c-.29-.436-.73-.8-1.02-1.234l.07-.216c.58 0 1.16 0 1.81-.075 1.38-.29 2.61-1.37 2.61-2.82 0-2.17-1.67-2.75-3.19-2.75-.87 0-1.45.08-2.03.22v10.44m14.94-4.43l2.12-3.26c.79-1.23 1.45-2.46 2.17-3.77h1.59v.29c-1.74 1.96-4.14 5.3-4.93 7.11-.29.51-.29 1.02-.29 1.52v2.54c0 .8 0 1.31.14 1.53.14.21.36.29.87.29l.94.07v.58c-1.02 0-1.96-.08-2.9-.08-.95 0-1.89.07-2.98.07v-.58l1.01-.07c.43 0 .65-.08.79-.29.14-.22.21-.73.21-1.53v-2.82c0-.29-.07-.58-.22-.8L85.2 7.41c-1.015-1.74-2.103-2.536-2.538-2.536l-.58-.072v-.58l2.248-.506c.435-.073.725.362 1.087.724l.87 1.305 2.827 5.22m20.23-6.31l-.144-1.45c-.073-.652-.145-.87-1.088-1.45-.725-.434-1.74-.652-2.755-.652-1.74 0-3.697 1.233-3.697 3.698 0 1.67 1.014 2.76 4.132 3.05 3.553.44 5.8 1.31 5.8 4.14 0 4.28-3.842 6.31-7.612 6.31-1.74 0-3.408-.51-4.278-.94.217-1.3.217-2.61.217-3.84h.79l.22 1.74c.07 1.02 2.1 1.96 4.06 1.96 2.24 0 4.49-1.38 4.49-3.84 0-2.39-1.89-3.04-4.43-3.33-3.92-.43-5.51-1.66-5.51-4.27C99.55 1.84 102.96.1 106 .1c1.957 0 3.48.652 4.495 1.014-.22 1.304-.364 2.392-.364 3.552h-.79m15.3 12.47c-1.16.724-3.11 1.087-4.35 1.087-4.78 0-8.04-2.758-8.04-7.25 0-2.32.94-4.135 2.47-5.44 1.45-1.234 3.55-1.886 5.8-1.886 1.81 0 3.63.437 4.57.8-.14.942-.36 2.03-.36 3.045h-.58V6.04c0-.58-.87-.87-1.74-1.234-.65-.217-1.52-.362-2.24-.362-3.77 0-5.73 2.755-5.73 6.163 0 3.99 2.61 6.526 6.53 6.526 1.45 0 3.19-.508 4.06-1.16l.22.144-.58 1.016m15.37-1.744c0 .79 0 1.3.15 1.52.15.21.37.29.87.29l.95.07v.58c-1.012 0-1.96-.07-2.9-.07-1.012 0-1.96.07-2.97.07v-.58l.94-.07c.5 0 .72-.08.87-.29.14-.22.14-.73.14-1.53v-4.42c-.216 0-.724-.07-1.594-.07h-4.71c-.87 0-1.45.07-1.67.07v4.42c0 .79.076 1.3.22 1.52.07.21.29.29.798.29l.946.07v.58c-1.013 0-1.96-.08-2.9-.08s-1.883.07-2.97.07v-.58l1.02-.07c.436 0 .726-.08.8-.29.143-.22.22-.73.22-1.53V6.4c0-.725-.07-1.233-.22-1.45-.07-.218-.36-.29-.798-.29l-1.02-.073V3.93c1.09.073 2.03.073 2.97.073.95 0 1.89 0 2.9-.072v.66l-.94.08c-.5 0-.72.07-.79.29-.15.22-.22.73-.22 1.45v3.63h7.97V6.4c0-.726 0-1.234-.147-1.45-.143-.22-.36-.29-.87-.29l-.94-.074V3.93c1.015.073 1.957.073 2.97.073.945 0 1.887 0 2.9-.072v.66l-.94.08c-.51 0-.725.07-.87.29-.145.22-.145.73-.145 1.45v8.99m4.57-8.99c0-.72 0-1.23-.143-1.45-.15-.22-.365-.29-.87-.29l-.945-.07v-.66c.58 0 1.09.08 1.67.08H146c1.74 0 3.624-.07 4.784-.07.87 0 1.74.08 2.54.08-.218.87-.29 2.03-.29 3.05h-.726V5.75c0-.216 0-.434-.143-.506-1.086-.436-2.68-.436-3.914-.436-.58 0-1.16 0-1.74.148v5.366c.66 0 1.38.073 2.32.073 1.24 0 1.96-.07 2.18-.216.08-.08.15-.29.15-.51l.07-1.09h.58v4.57h-.58l-.07-1.16c0-.3-.07-.44-.14-.51-.22-.22-.94-.29-2.17-.29-.94 0-1.664 0-2.32.07v5.58c.58.14 1.16.21 1.74.21 1.598 0 3.628-.08 3.99-.29.29-.15.58-1.02.726-2.25h.725c-.22.94-.366 2.24-.366 3.26-.87.07-2.463.14-3.913.07-1.52 0-3.11-.07-4.35-.07-.79 0-1.45.07-2.17.07v-.58l.73-.07c.51 0 .723-.08.87-.29.143-.22.143-.73.143-1.53V6.4m13.915 8.986c0 .798 0 1.305.143 1.523.14.21.36.29.87.29l.94.07v.58c-1.012 0-1.96-.08-2.9-.08-1.012 0-1.96.07-2.97.07v-.58l.94-.07c.51 0 .725-.08.87-.29.145-.22.145-.73.145-1.53V6.39c0-.724 0-1.232-.143-1.45-.142-.217-.36-.29-.87-.29l-.94-.072v-.65c1 .072 1.94.072 2.96.072.94 0 1.886 0 2.9-.072v.656l-.94.073c-.51 0-.725.07-.87.29-.145.215-.145.723-.145 1.45v8.99m4.42-8.99c0-.728-.076-1.236-.22-1.45-.07-.22-.36-.29-.8-.29L161 4.58v-.65c.944.08 1.74.08 2.467.08.366 0 .656 0 1.02-.07l9.57 11.82h.07V6.4c0-.725 0-1.233-.14-1.45-.146-.218-.36-.29-.87-.29l-.87-.073V3.93c.8.073 1.594.073 2.32.073.8 0 1.52 0 2.39-.072v.66l-.87.08c-.51 0-.724.07-.87.29-.144.22-.144.73-.144 1.45V17.5c0 .216 0 .506.074.724l-1.81-.29-9.426-11.75h-.07v9.206c0 .797.07 1.304.22 1.522.07.216.36.29.8.29l.94.07v.58c-.94 0-1.66-.072-2.46-.072-.65 0-1.52.073-2.32.073v-.58l.95-.07c.43 0 .72-.08.79-.29.14-.22.22-.73.22-1.53V6.39m18.55-2.68c1.81 0 3.26 1.377 3.26 3.117 0 1.813-1.45 3.19-3.26 3.19-1.74 0-3.12-1.377-3.12-3.117 0-1.81 1.38-3.19 3.12-3.19zm0-.436c-1.96 0-3.55 1.595-3.55 3.625 0 1.96 1.6 3.55 3.56 3.55 2.03 0 3.7-1.6 3.7-3.63 0-1.96-1.67-3.55-3.7-3.55zm-1.67 1.45v.218h.22c.15 0 .29 0 .29.29V8.28c0 .29-.07.29-.29.29h-.14v.146h1.52V8.57h-.22c-.29 0-.29-.144-.29-.362V6.903h.14c.216 0 .506 0 .65.145.147.145.365.58.437.798.07.218.22.652.435.797.15.145.364.073.58.073h.29V8.57c-.216 0-.29 0-.43-.144-.07-.073-.22-.435-.29-.58-.145-.362-.435-1.015-.87-1.015.58-.07 1.09-.43 1.09-1.08 0-.87-.87-1.01-1.525-1.01h-1.59zm1.09.653c0-.217-.07-.434.29-.434h.29c.51 0 .95.29.95.87 0 .725-.65.87-1.23.87h-.29V5.38z"/>
    <path fill="#D62F2E" d="M18.573 1.466V.16H.23v13.92c2.61 0 5.365-1.666 8.193-6.016 2.755-4.423 6.888-6.598 10.15-6.598"/>
    <path fill="#0072AD" d="M.23 16.62v1.304h18.343V4.004c-2.537 0-5.365 1.667-8.12 6.09C7.625 14.444 3.565 16.62.23 16.62"/>
  </g>
</svg>
