<svg xmlns="http://www.w3.org/2000/svg" viewBox="0 0 895.2 507">
  <path fill="#3E000F" d="M386.5 12.9C398 2.5 414.2-.5 429.3.1c14.3 0 29.9 3.6 39.9 14.6 8.6 9.4 11.4 22.6 11.4 35.1.1 14.3 0 28.6.1 42.8h-44.8c.1-13.3 0-26.6.1-39.8.1-3.1-.5-6.7-3-8.8-4.4-3.5-11.9-1.9-14 3.5-1 4-.4 8.2-.5 12.4.2 9.6-.9 19.4 2 28.7 1.7 5.7 4.9 10.8 8.7 15.4 12.9 15.1 26.9 29.3 38.6 45.4 8.2 11.2 14.2 24.5 14.3 38.5.1 16.7 0 33.3.1 50-.1 5.1.3 10.4-1.1 15.4-2.5 10.3-9 19.5-17.9 25.4-14.4 9.9-32.7 12.4-49.7 10-13.2-1.7-26.3-7.8-34.3-18.7-6.2-8.3-8.8-18.8-8.9-29.1-.1-18.8.1-37.6-.1-56.3 15.5.1 31.1 0 46.6.1-.1 17.4 0 34.8-.1 52.3-.1 3.1.5 6.5 3 8.6 5 4.8 16.3 2.3 16.3-5.6 0-15 .1-30-.1-45-.6-11.1-7.9-20-15-27.8-14.3-17-31.4-32.2-41.4-52.4-4.9-9.9-7-20.9-7.3-31.9v-33c0-13.6 4-27.7 14.3-37zm113.9 271.6c0-93.7-.1-187.3.1-281h47.2c.2 35.9 0 71.7.1 107.6h20c.1-35.8 0-71.7.1-107.6 12.1.1 24.2-.3 36.3.2 3.6-.3 7.2-.3 10.8-.2.2 93.6 0 187.3.1 280.9-15.8.1-31.5 0-47.2 0V151.1h-20v133.2c-15.9.2-31.7.2-47.5.2zm137 0c0-93.7-.2-187.3.1-281 10.6.1 21.1-.2 31.7.2 9-.4 18-.1 27-.2 8.4.1 16.9-.4 25.3.3-.1 13.6 0 27.2 0 40.8-12 .3-23.9-.3-35.9.2-.1 22.5 0 45 0 67.5H720c.1 13.6.1 27.2 0 40.7h-34.4v90.9h40v40.6h-88.2z"/>
  <path fill="#3D000F" d="M.6 284.5c0-93.7-.1-187.3.1-281h42.5c1.8-.1 3.5.3 5.3.6-.1 35.7-.1 71.4 0 107.1 6.6-.1 13.1-.1 19.6 0 .3-35.9-.2-71.7.2-107.6h47.2c.1 93.7 0 187.3.1 281-15.7.1-31.4-.1-47.1.1.5-1.6 1.1-3.1 1.1-4.8-.2-35.7 0-71.4-.1-107-.1-6.6.8-13.3-1.2-19.8-.1-.4-.3-1.3-.4-1.8-6.5.1-13 0-19.5.1 0 44.4-.1 88.8 0 133.2-15.9 0-31.9-.2-47.8-.1zm137-280.7c13.5-.6 27-.4 40.5-.1 4.3-.3 8.7-.2 13-.2 9.3.1 18.7-.3 28 .2 1.3-.1 2.6-.2 3.8-.3.4 13.5.2 27.1.1 40.6-.1.2-.4.6-.6.8-12.2.1-24.5-.6-36.8.2.1 22.5.1 44.9 0 67.4h34.7v40.7c-11.6 0-23.1 0-34.7.1.1 30.2 0 60.4 0 90.6 13.3.6 26.7.1 40 .2v40.6h-88.3c.4-93.7.3-187.2.3-280.8zm103.9 280.7c.1-93.7-.1-187.3.1-281h38.6c6 .1 12-.2 18 .2 5-.3 10-.2 15-.1 10.7.4 21.6 4.3 28.6 12.6 8.5 9.3 11.4 22.2 11.6 34.5v42.1c-.2 10.6-2.6 21.5-9.3 30-3.1 3.7-6.8 6.9-11 9.2 7.8 5.2 14.4 12.6 17.1 21.7 1.4 4.6 2.1 9.3 2.1 14.1v69.1c.2 12.3 2.1 24.8 7.9 35.8 2.6 4.6 5.9 9.1 10.5 11.8-19.5 0-39.1.1-58.7-.1-4.7-9.9-5.8-20.9-5.8-31.7v-88c-.2-4.1-1.1-9.1-5.2-11.1-4.2-2-9-.8-13.4-1.1v132h-46.1zm48.4-238.6V116c5 0 10.6.4 14.9-2.8 3-2.2 4.1-6.1 4.1-9.7.1-15 0-30 0-45 0-3.4-.3-7.2-3-9.6-4.3-3.9-10.6-2.8-16-3zM733.5 3.5c13.9-.1 27.8 0 41.7 0 2.2 0 4.3.2 6.5.5 4.9 34.4 10 68.9 14.9 103.3 2.8-18.1 5-36.3 7.7-54.4.8-7.3 2.1-14.7 3-22 1.2-9 2.6-17.9 3.6-26.9 7.4-.9 14.9-.2 22.3-.4H849c-1.3 11.5-3.9 22.8-5.7 34.2-4 22.7-8 45.5-12 68.2-5.2 29.8-10.6 59.6-15.7 89.5-.3 29.7-.1 59.4-.1 89.1-16.2.1-32.4.1-48.6 0 .8-8.9.3-17.8.5-26.8-.1-20.4.2-40.8-.1-61.2-11.2-64.4-22.7-128.7-33.8-193.1z"/>
  <path fill="#FEFEFE" d="M289.9 45.9c5.4.1 11.7-1 15.9 3.2 2.7 2.4 3.1 6.2 3 9.6v45c.1 3.6-1 7.4-4.1 9.7-4.2 3.2-9.8 2.7-14.9 2.8.1-23.5.2-46.9.1-70.3z"/>
  <path fill="#2E1018" d="M68.3 152.9c1.9 6.4 1.1 13.2 1.2 19.8.1 35.7-.1 71.4.1 107 0 1.7-.6 3.3-1.1 4.8-.6-14.3-.1-28.6-.3-42.8.1-29.6-.3-59.2.1-88.8z"/>
  <path fill="#3D000F" d="M895.2 23.5c0 10.8-8.5 19.3-19.6 19.3-11 0-19.7-8.5-19.7-19.3 0-10.6 8.7-19.1 19.7-19.1 11.1 0 19.6 8.5 19.6 19.1zm-34.4 0c0 8.5 6.3 15.3 14.9 15.3 8.4 0 14.6-6.8 14.6-15.1 0-8.5-6.2-15.4-14.7-15.4-8.5-.1-14.8 6.8-14.8 15.2zm11.8 10h-4.4V14.4c1.7-.3 4.2-.6 7.3-.6 3.6 0 5.2.6 6.6 1.4 1 .8 1.9 2.3 1.9 4.2 0 2.1-1.6 3.7-4 4.4v.2c1.9.7 2.9 2.1 3.5 4.7.6 2.9.9 4.1 1.4 4.8h-4.8c-.6-.7-.9-2.4-1.5-4.7-.4-2.1-1.5-3-4-3h-2.1v7.7zm.1-10.8h2.1c2.4 0 4.4-.8 4.4-2.8 0-1.7-1.3-2.9-4.1-2.9-1.2 0-2 .1-2.4.2v5.5z"/>
  <path fill="#3E000F" d="M126.7 455.2c-3.1 0-5.7 0-8.4-.5-13.3-.6-22.4-5-33.1-19.2-7.4-10.6-15.7-24.5-21.8-34.6-3.8-5.9-7.4-8.3-19.3-8.3h-7.6v33.5c0 18.2 1.8 19.4 19.4 20.6v6.7H0v-6.7c18.2-1.1 20.1-2.2 20.1-20.6v-85.9c0-18.4-1.9-18.8-19-20.2v-6.6h52.8c14.8 0 25.6 1.9 33.3 6.9 8.9 5.7 14.8 15.5 14.8 28.1 0 18.8-11.1 30.5-27.4 37.6 3.8 7.2 12.9 21.5 19.2 31 8.2 11.4 11.8 15.8 17.3 21.7 5.7 6.4 11.6 9.1 16.5 10.1l-.9 6.4zm-78.9-70c11.4 0 18.2-2 23.7-6.5 8.4-6.6 12.3-14.8 12.3-26.6 0-23.1-16-31-33.2-31-6.4 0-9.9.8-11.6 1.9-1.9 1.5-2.5 4-2.5 9.9v52.3h11.3zm195.5 34.1c-1 6.6-5.5 27.6-7.4 34.2H132v-6.6c19.8-1.5 21.7-3.1 21.7-20.7v-85.3c0-18.8-1.9-19.3-19-20.8v-6.6h95.9c.2 4.9 1 19.9 1.8 31.6l-6.9.9c-1.9-9.3-3.8-13.8-6.7-18.5-2.6-4.7-8.1-6.1-23.4-6.1H177c-6.6 0-6.9.6-6.9 6.7v48.6h21.3c19.4 0 20.4-1.9 22.9-16.3h6.9v41.2h-6.9c-3-15.4-4-16.3-22.9-16.3H170v39.9c0 10.1 1.7 15 5.5 17.7 4.2 2.7 11.6 2.7 22.9 2.7 16.3 0 22.5-1.7 27.2-7.2 3.6-3.8 7.8-11.1 10.6-20l7.1.9zm86.1-73.1c-3.5-13.3-8.2-28.3-27.2-28.3-17.3 0-24.1 12.9-24.1 23.7 0 16.3 10.8 23.9 27.1 32.3 15.6 7.6 37.3 17.3 37.3 42.2 0 23.3-19 40.8-46.9 40.8-9.1 0-16.3-2.2-21.3-3.6-4.9-1.5-8.1-3.4-10-4.2-1.8-4.9-4.4-21.9-5.9-33.2l6.8-1.4c3.5 13.1 12.3 34.1 34.2 34.1 16.8 0 26.4-10.3 26.4-25.9 0-16.7-12.1-24.1-28.1-32.8-12.7-6.7-35.3-17.1-35.3-41.9 0-20.5 16.3-38 43.4-38 8.4 0 16.9 1.7 26.8 5.1.7 7.6 1.9 15.8 3.6 29.9l-6.8 1.2zm103.5-36.1c35.5 0 68.9 28.1 68.9 71.6 0 46.9-32.5 75.2-71.9 75.2-37.3 0-69-29.8-69-71.6 0-39.2 27.5-75.2 71.9-75.2h.1zm-5.3 8.5c-23.4 0-46.4 19.3-46.4 60.4 0 40.5 23.2 69.4 53.6 69.4 24.3 0 46.5-19.3 46.5-61 0-45.6-25.1-68.8-53.5-68.8h-.2zM645 455.2c-3.1 0-5.7 0-8.4-.5-13.3-.6-22.4-5-33.1-19.2-7.4-10.6-15.7-24.5-21.8-34.6-3.8-5.9-7.4-8.3-19.3-8.3h-7.6v33.5c0 18.2 1.8 19.4 19.4 20.6v6.7h-55.8v-6.7c18.2-1.1 20.1-2.2 20.1-20.6v-85.9c0-18.4-1.9-18.8-19-20.2v-6.6h52.8c14.8 0 25.6 1.9 33.3 6.9 8.9 5.7 14.8 15.5 14.8 28.1 0 18.8-11.1 30.5-27.4 37.6 3.8 7.2 12.9 21.5 19.2 31 8.2 11.4 11.8 15.8 17.3 21.7 5.7 6.4 11.6 9.1 16.5 10.1l-1 6.4zm-79-70c11.4 0 18.2-2 23.7-6.5 8.4-6.6 12.3-14.8 12.3-26.6 0-23.1-16-31-33.2-31-6.4 0-9.9.8-11.6 1.9-1.9 1.5-2.5 4-2.5 9.9v52.3H566zm190.6-38.6c-2-10.2-3.8-15.4-6.3-18.8-3.4-5-6.4-6.5-22.6-6.5h-16.3v105.3c0 16.9 1.7 19 22.6 20.1v6.7h-61.1v-6.7c20.1-1.1 21.9-3 21.9-20.1V321.3h-15.1c-16.3 0-20.7 1.5-23.4 6.3-2.4 3.6-4.1 9.6-6.6 19h-6.9c.8-12.6 2-26.4 2.5-38.3h4.7c3.2 4.8 5.9 5.2 11.8 5.2h84.5c5.7 0 6.9-1.3 10.1-5.2h5c0 10.1 1 25.5 2.2 37.3l-7 1zm95.5-.4c-3.5-13.3-8.2-28.3-27.2-28.3-17.3 0-24.1 12.9-24.1 23.7 0 16.3 10.8 23.9 27.1 32.3 15.6 7.6 37.3 17.3 37.3 42.2 0 23.3-19 40.8-46.9 40.8-9.1 0-16.3-2.2-21.3-3.6-4.9-1.5-8.1-3.4-10-4.2-1.8-4.9-4.4-21.9-5.9-33.2l6.8-1.4c3.5 13.1 12.3 34.1 34.2 34.1 16.8 0 26.4-10.3 26.4-25.9 0-16.7-12.1-24.1-28.1-32.8-12.7-6.7-35.3-17.1-35.3-41.9 0-20.5 16.3-38 43.4-38 8.4 0 16.9 1.7 26.8 5.1.7 7.6 1.9 15.8 3.6 29.9l-6.8 1.2zM24.5 485c-.5-2.3-.9-3.5-1.6-4.3-.8-.9-1.6-1.1-4.3-1.1h-2.5v20.9c0 3.6.4 3.9 4.4 4.2v1.6H7v-1.6c3.8-.3 4.2-.6 4.2-4.2v-20.9H9.1c-3.2 0-4.1.4-4.7 1.2-.6.7-1 2.2-1.5 4.2H1.2c.2-3 .4-6.1.5-8.4h1.1c.7 1 1.2 1.1 2.4 1.1h17c1.2 0 1.6-.3 2.3-1.1h1.2c0 1.9.3 5.6.4 8.3l-1.6.1zm34.9-5.6c-3.5.2-3.8.5-3.8 4.2v17.1c0 3.6.4 3.8 3.8 4.2v1.6H46.6v-1.6c3.6-.3 4-.5 4-4.2v-8.3H37.8v8.3c0 3.6.4 3.8 3.7 4.2v1.6H29.1v-1.6c3.3-.3 3.7-.5 3.7-4.2v-17.1c0-3.6-.4-3.9-3.9-4.2v-1.6h12.4v1.6c-3.2.2-3.6.5-3.6 4.2v6.5h12.8v-6.5c0-3.6-.4-3.9-3.6-4.2v-1.6h12.4v1.6zm26.2 19.8c-.3 1.7-1.1 5.9-1.5 7.2H62.3v-1.6c3.7-.3 4.2-.6 4.2-4.2v-17c0-3.7-.4-4-3.6-4.2v-1.6H83c0 .8.2 4 .4 6.5l-1.7.2c-.4-1.7-.9-2.8-1.5-3.7-.6-.8-1.8-1.2-4.4-1.2h-2.7c-1.5 0-1.7.1-1.7 1.5v9.4h3.4c3.7 0 4.1-.3 4.7-3.3h1.7v8.8h-1.7c-.6-3.2-1-3.4-4.7-3.4h-3.4v7.8c0 2.1.3 3.1 1.1 3.5.7.4 2.3.5 4.2.5 2.6 0 4-.3 5-1.4.8-.9 1.6-2.3 2.3-4.2l1.6.4zm42.4-19.8c-3.5.2-3.8.5-3.8 4.2v17.1c0 3.6.4 3.8 3.8 4.2v1.6h-12.7v-1.6c3.6-.3 4-.5 4-4.2v-8.3h-12.8v8.3c0 3.6.4 3.8 3.7 4.2v1.6H97.7v-1.6c3.3-.3 3.7-.5 3.7-4.2v-17.1c0-3.6-.4-3.9-3.9-4.2v-1.6H110v1.6c-3.2.2-3.6.5-3.6 4.2v6.5h12.8v-6.5c0-3.6-.4-3.9-3.6-4.2v-1.6H128v1.6zm18-2.3c7.5 0 14 5.8 14 14.6 0 9.6-6.5 15.3-14.5 15.3-8.2 0-14.2-6.3-14.2-14.8 0-7.7 5.2-15.1 14.7-15.1zm-.9 1.9c-4.4 0-8.1 4.6-8.1 12.2 0 7.7 3.6 13.9 9.3 13.9 4.3 0 7.9-4 7.9-12.1 0-8.9-4-14-9.1-14zm40.9 6c-.5-2.3-.9-3.5-1.6-4.3-.8-.9-1.6-1.1-4.3-1.1h-2.5v20.9c0 3.6.4 3.9 4.4 4.2v1.6h-13.5v-1.6c3.8-.3 4.2-.6 4.2-4.2v-20.9h-2.1c-3.2 0-4.1.4-4.7 1.2-.6.7-1 2.2-1.5 4.2h-1.7c.2-3 .4-6.1.5-8.4h1.1c.7 1 1.2 1.1 2.4 1.1h17c1.2 0 1.6-.3 2.3-1.1h1.2c0 1.9.3 5.6.4 8.3l-1.6.1zm27.4 14.2c-.3 1.7-1.1 5.9-1.5 7.2h-21.8v-1.6c3.7-.3 4.2-.6 4.2-4.2v-17c0-3.7-.4-4-3.6-4.2v-1.6h20.2c0 .8.2 4 .4 6.5l-1.7.2c-.4-1.7-.9-2.8-1.5-3.7-.6-.8-1.8-1.2-4.4-1.2H201c-1.5 0-1.7.1-1.7 1.5v9.4h3.4c3.7 0 4.1-.3 4.7-3.3h1.7v8.8h-1.7c-.6-3.2-1-3.4-4.7-3.4h-3.4v7.8c0 2.1.3 3.1 1.1 3.5.7.4 2.3.5 4.2.5 2.6 0 4-.3 5-1.4.8-.9 1.6-2.3 2.3-4.2l1.5.4zm24.3-.1c-.3 1.7-1.2 6.1-1.6 7.3h-20.6v-1.6c3.6-.3 4.1-.6 4.1-4.2v-17c0-3.7-.4-4-3.8-4.2v-1.6h12.6v1.6c-3.4.2-3.8.5-3.8 4.2v17c0 2.1.2 3 1.1 3.4.7.4 2.1.5 3.6.5 2 0 3.5-.2 4.5-1.4.7-.9 1.6-2.3 2.3-4.4l1.6.4zm42.1-19.7c-3.5.2-3.8.5-3.8 4.2v17.1c0 3.6.4 3.8 3.8 4.2v1.6H267v-1.6c3.6-.3 4-.5 4-4.2v-8.3h-12.8v8.3c0 3.6.4 3.8 3.7 4.2v1.6h-12.4v-1.6c3.3-.3 3.7-.5 3.7-4.2v-17.1c0-3.6-.4-3.9-3.9-4.2v-1.6h12.4v1.6c-3.2.2-3.6.5-3.6 4.2v6.5H271v-6.5c0-3.6-.4-3.9-3.6-4.2v-1.6h12.4v1.6zm26.2 19.8c-.3 1.7-1.1 5.9-1.5 7.2h-21.8v-1.6c3.7-.3 4.2-.6 4.2-4.2v-17c0-3.7-.4-4-3.6-4.2v-1.6h20.2c0 .8.2 4 .4 6.5l-1.7.2c-.4-1.7-.9-2.8-1.5-3.7-.6-.8-1.8-1.2-4.4-1.2h-2.7c-1.5 0-1.7.1-1.7 1.5v9.4h3.4c3.7 0 4.1-.3 4.7-3.3h1.7v8.8H300c-.6-3.2-1-3.4-4.7-3.4h-3.4v7.8c0 2.1.3 3.1 1.1 3.5.7.4 2.3.5 4.2.5 2.6 0 4-.3 5-1.4.8-.9 1.6-2.3 2.3-4.2l1.5.4zm28.8 7.6h-1.5c-4.5-.2-6.2-1.3-8-4.2-1.3-1.9-2.7-4.5-3.9-6.7-.7-1.2-1.4-1.8-3.2-1.8H317v6.5c0 3.6.4 3.9 3.7 4.2v1.6h-12.4v-1.6c3.4-.3 3.9-.6 3.9-4.2v-17.1c0-3.6-.4-3.9-3.7-4.1v-1.6h11.7c3.5 0 5.6.4 7.4 1.5 1.8 1.1 3 3.1 3 5.8 0 3.9-2.4 6.1-5.5 7.4.7 1.3 2.4 4.2 3.7 6.3 1.5 2.4 2.4 3.6 3.3 4.6 1.1 1.1 2 1.6 2.9 2l-.2 1.4zm-16.1-14.5c1.9 0 3.3-.3 4.3-1.2 1.6-1.3 2.3-3 2.3-5.3 0-4.6-3-6.3-5.8-6.3-1.1 0-1.8.2-2.1.5-.3.2-.4.7-.4 1.8v10.4h1.7zm33.4-7.5c-.9-2.8-2.1-5.8-5.7-5.8-2.8 0-4.5 2-4.5 4.4 0 2.7 1.9 4.2 5.5 6 4.1 2 7.6 4.3 7.6 9 0 4.9-4.1 8.7-10.3 8.7-1.7 0-3.1-.3-4.3-.6-1.2-.3-2-.7-2.5-.9-.4-1.1-1-4.5-1.3-7.2l1.7-.5c.7 2.7 2.9 7.3 7.3 7.3 2.9 0 4.7-1.9 4.7-4.8 0-2.8-2.2-4.5-5.4-6.2-3.8-1.9-7.4-4.3-7.4-8.8 0-4.6 3.6-8.3 9.6-8.3 2.5 0 4.6.7 5.8 1.1.2 1.6.5 3.4.9 6.3l-1.7.3zm36-5.4c-3.5.2-3.8.5-3.8 4.2v17.1c0 3.6.4 3.8 3.8 4.2v1.6h-12.7v-1.6c3.6-.3 4-.5 4-4.2v-8.3h-12.8v8.3c0 3.6.4 3.8 3.7 4.2v1.6h-12.4v-1.6c3.3-.3 3.7-.5 3.7-4.2v-17.1c0-3.6-.4-3.9-3.9-4.2v-1.6h12.4v1.6c-3.2.2-3.6.5-3.6 4.2v6.5h12.8v-6.5c0-3.6-.4-3.9-3.6-4.2v-1.6h12.4v1.6zm26.2 19.8c-.3 1.7-1.1 5.9-1.5 7.2H391v-1.6c3.7-.3 4.2-.6 4.2-4.2v-17c0-3.7-.4-4-3.6-4.2v-1.6h20.2c0 .8.2 4 .4 6.5l-1.7.2c-.4-1.7-.9-2.8-1.5-3.7-.6-.8-1.8-1.2-4.4-1.2h-2.7c-1.5 0-1.7.1-1.7 1.5v9.4h3.4c3.7 0 4.1-.3 4.7-3.3h1.7v8.8h-1.7c-.6-3.2-1-3.4-4.7-3.4h-3.4v7.8c0 2.1.3 3.1 1.1 3.5.7.4 2.3.5 4.2.5 2.6 0 4-.3 5-1.4.8-.9 1.6-2.3 2.3-4.2l1.5.4zm28.2-19.8c-2.8.3-3.6.9-5.2 3.6-1.7 2.8-3 4.9-5.1 8.9-.6 1.2-.7 1.6-.7 2.9v5.7c0 3.6.3 3.9 4.3 4.2v1.6h-13.4v-1.6c3.8-.3 4.2-.5 4.2-4.2v-5.3c0-1.1-.1-1.5-.7-2.5-1.4-2.7-3-5.5-5.4-9.9-1.6-2.8-2.3-3.2-4.7-3.5v-1.6h11.5v1.6c-2.9.4-2.8.9-2 2.4 1.6 3.2 3.5 6.5 5.2 9.6 1.3-2.5 3.5-6.6 4.6-9.3.8-1.9.8-2.4-2.5-2.7v-1.6h10v1.7zm8.6-2.2c3.7 0 6.4 2.9 6.4 6.4 0 3.4-2.7 6.3-6.4 6.3-3.6 0-6.4-2.7-6.4-6.3-.1-3.4 2.7-6.4 6.4-6.4zm0 1.2c-2.8 0-5 2.3-5 5.3s2.2 5.1 5 5.1 5-2.1 5-5.1-2.2-5.3-5-5.3zm3.5 8.6c-1.1 0-1.9-.3-2.4-1.1-.4-.6-.8-1.2-.9-1.5-.2-.2-.4-.3-.6-.3h-.2v1.1c0 .9.1.9.9.9v.9H448v-.9c.9 0 1 0 1-.9v-3.3c0-.8-.1-.9-.9-1v-.8h3.4c1.1 0 2.4.3 2.4 1.8 0 .9-.5 1.4-1.3 1.7.5 1 .9 1.4 1.6 2.2.2.3.4.4.7.5l-.3.7zm-3.8-3.7c.2 0 .6-.1.8-.2.4-.3.6-.5.6-1 0-.9-.8-1.1-1.1-1.1-.4 0-.6.2-.6.6v1.7h.3zm38.7 11.6c-1.9.2-2.4.7-3.4 2-.8 1.1-1.5 2.2-2.5 3.7 1.6 1.5 3.7 4.1 4.9 6l-.2.4c-2.3-.1-4-.7-4.3-1.1-.4-.4-1.4-1.5-2.3-2.6-1.9 2.6-3.9 3.6-5.9 3.6-3.8 0-5.9-2.9-5.9-5.4 0-2.6 1.7-3.7 4.2-5.5-1.2-1.2-2-2.4-2-4.1 0-2.6 2.3-4.8 5.1-4.8 2.7 0 4.7 1.8 4.7 4.2 0 1.1-.5 1.9-1.2 2.5-.6.5-1.3 1.1-2.3 1.8.9.7 2.6 2.3 4.5 4.2.6-.9 1-1.7 1.5-2.8.6-1.3.3-1.6-1.7-1.9V494h6.9v.9zm-12.7 9.5c1.6 0 3.1-1 3.9-2.1-1.8-1.9-3.4-3.4-5.9-5.6-1.3 1.1-1.9 2.4-1.9 3.7 0 2.7 2 4 3.9 4zm-.1-16.2c-1.2 0-2.2 1.2-2.1 2.7 0 1.4.8 2.4 2.7 3.8 1.1-.8 1.8-2 1.8-3.6 0-1.5-.9-2.9-2.4-2.9zm54.2-8.8c-3.5.2-3.8.5-3.8 4.2v17.1c0 3.6.4 3.8 3.8 4.2v1.6h-12.7v-1.6c3.6-.3 4-.5 4-4.2v-8.3h-12.8v8.3c0 3.6.4 3.8 3.7 4.2v1.6h-12.4v-1.6c3.3-.3 3.7-.5 3.7-4.2v-17.1c0-3.6-.4-3.9-3.9-4.2v-1.6h12.4v1.6c-3.2.2-3.6.5-3.6 4.2v6.5h12.8v-6.5c0-3.6-.4-3.9-3.6-4.2v-1.6h12.4v1.6zm26.2 19.8c-.3 1.7-1.1 5.9-1.5 7.2h-21.8v-1.6c3.7-.3 4.2-.6 4.2-4.2v-17c0-3.7-.4-4-3.6-4.2v-1.6h20.2c0 .8.2 4 .4 6.5l-1.7.2c-.4-1.7-.9-2.8-1.5-3.7-.6-.8-1.8-1.2-4.4-1.2h-2.7c-1.5 0-1.7.1-1.7 1.5v9.4h3.4c3.7 0 4.1-.3 4.7-3.3h1.7v8.8H551c-.6-3.2-1-3.4-4.7-3.4h-3.4v7.8c0 2.1.3 3.1 1.1 3.5.7.4 2.3.5 4.2.5 2.6 0 4-.3 5-1.4.8-.9 1.6-2.3 2.3-4.2l1.6.4zm28.8 7.6h-1.5c-4.5-.2-6.2-1.3-8-4.2-1.3-1.9-2.7-4.5-3.9-6.7-.7-1.2-1.4-1.8-3.2-1.8h-1.2v6.5c0 3.6.4 3.9 3.7 4.2v1.6h-12.4v-1.6c3.4-.3 3.9-.6 3.9-4.2v-17.1c0-3.6-.4-3.9-3.7-4.1v-1.6h11.7c3.5 0 5.6.4 7.4 1.5 1.8 1.1 3 3.1 3 5.8 0 3.9-2.4 6.1-5.5 7.4.7 1.3 2.4 4.2 3.7 6.3 1.5 2.4 2.4 3.6 3.3 4.6 1.1 1.1 2 1.6 2.9 2l-.2 1.4zm-16.1-14.5c1.9 0 3.3-.3 4.3-1.2 1.6-1.3 2.3-3 2.3-5.3 0-4.6-3-6.3-5.8-6.3-1.1 0-1.8.2-2.1.5-.3.2-.4.7-.4 1.8v10.4h1.7zm33.4-7.5c-.9-2.8-2.1-5.8-5.7-5.8-2.8 0-4.5 2-4.5 4.4 0 2.7 1.9 4.2 5.5 6 4.1 2 7.6 4.3 7.6 9 0 4.9-4.1 8.7-10.3 8.7-1.7 0-3.1-.3-4.3-.6-1.2-.3-2-.7-2.5-.9-.4-1.1-1-4.5-1.3-7.2l1.7-.5c.7 2.7 2.9 7.3 7.3 7.3 2.9 0 4.7-1.9 4.7-4.8 0-2.8-2.2-4.5-5.4-6.2-3.8-1.9-7.4-4.3-7.4-8.8 0-4.6 3.6-8.3 9.6-8.3 2.5 0 4.6.7 5.8 1.1.2 1.6.5 3.4.9 6.3l-1.7.3zm36-5.4c-3.5.2-3.8.5-3.8 4.2v17.1c0 3.6.4 3.8 3.8 4.2v1.6h-12.7v-1.6c3.6-.3 4-.5 4-4.2v-8.3h-12.8v8.3c0 3.6.4 3.8 3.7 4.2v1.6H609v-1.6c3.3-.3 3.7-.5 3.7-4.2v-17.1c0-3.6-.4-3.9-3.9-4.2v-1.6h12.4v1.6c-3.2.2-3.6.5-3.6 4.2v6.5h12.8v-6.5c0-3.6-.4-3.9-3.6-4.2v-1.6h12.4v1.6zm26.3 19.8c-.3 1.7-1.1 5.9-1.5 7.2h-21.8v-1.6c3.7-.3 4.2-.6 4.2-4.2v-17c0-3.7-.4-4-3.6-4.2v-1.6H663c0 .8.2 4 .4 6.5l-1.7.2c-.4-1.7-.9-2.8-1.5-3.7-.6-.8-1.8-1.2-4.4-1.2h-2.7c-1.5 0-1.7.1-1.7 1.5v9.4h3.4c3.7 0 4.1-.3 4.7-3.3h1.7v8.8h-1.7c-.6-3.2-1-3.4-4.7-3.4h-3.4v7.8c0 2.1.3 3.1 1.1 3.5.7.4 2.3.5 4.2.5 2.6 0 4-.3 5-1.4.8-.9 1.6-2.3 2.3-4.2l1.5.4zm28.2-19.8c-2.8.3-3.6.9-5.2 3.6-1.7 2.8-3 4.9-5.1 8.9-.6 1.2-.7 1.6-.7 2.9v5.7c0 3.6.3 3.9 4.3 4.2v1.6h-13.4v-1.6c3.8-.3 4.2-.5 4.2-4.2v-5.3c0-1.1-.1-1.5-.7-2.5-1.4-2.7-3-5.5-5.4-9.9-1.6-2.8-2.3-3.2-4.7-3.5v-1.6h11.5v1.6c-2.9.4-2.8.9-2 2.4 1.6 3.2 3.5 6.5 5.2 9.6 1.3-2.5 3.5-6.6 4.6-9.3.8-1.9.8-2.4-2.5-2.7v-1.6h10v1.7zm8.5-2.2c3.7 0 6.4 2.9 6.4 6.4 0 3.4-2.7 6.3-6.4 6.3-3.6 0-6.4-2.7-6.4-6.3 0-3.4 2.7-6.4 6.4-6.4zm0 1.2c-2.8 0-5 2.3-5 5.3s2.2 5.1 5 5.1 5-2.1 5-5.1-2.2-5.3-5-5.3zm3.5 8.6c-1.1 0-1.9-.3-2.4-1.1-.4-.6-.8-1.2-.9-1.5-.2-.2-.4-.3-.6-.3h-.2v1.1c0 .9.1.9.9.9v.9h-3.4v-.9c.9 0 1 0 1-.9v-3.3c0-.8-.1-.9-.9-1v-.8h3.4c1.1 0 2.4.3 2.4 1.8 0 .9-.5 1.4-1.3 1.7.5 1 .9 1.4 1.6 2.2.2.3.4.4.7.5l-.3.7zm-3.8-3.7c.2 0 .6-.1.8-.2.4-.3.6-.5.6-1 0-.9-.8-1.1-1.1-1.1-.4 0-.6.2-.6.6v1.7h.3zm41.2 15.8c-.3 1.7-1.2 6.1-1.6 7.3h-20.6v-1.6c3.6-.3 4.1-.6 4.1-4.2v-17c0-3.7-.4-4-3.8-4.2v-1.6h12.6v1.6c-3.4.2-3.8.5-3.8 4.2v17c0 2.1.2 3 1.1 3.4.7.4 2.1.5 3.6.5 2 0 3.5-.2 4.5-1.4.7-.9 1.6-2.3 2.3-4.4l1.6.4zm16.8-22c7.5 0 14 5.8 14 14.6 0 9.6-6.5 15.3-14.5 15.3-8.2 0-14.2-6.3-14.2-14.8-.1-7.7 5.2-15.1 14.7-15.1zm-1 1.9c-4.4 0-8.1 4.6-8.1 12.2 0 7.7 3.6 13.9 9.3 13.9 4.3 0 7.9-4 7.9-12.1 0-8.9-3.9-14-9.1-14zm30.8-1.2c5.5 0 9.6 1.1 12.4 3.8 2.1 2.1 3.7 5.3 3.7 9.4 0 5.4-2 9.2-5.4 11.8-3.2 2.5-7.5 3.7-13 3.7h-10.7v-1.6c3.5-.3 4-.5 4-4.2v-17c0-3.7-.4-4-3.6-4.2v-1.6h12.6zm-3.9 22.5c0 3.1 1 4.1 4 4.1 6.6 0 10.4-5.2 10.4-12.8 0-4.2-1.4-7.8-4-9.8-1.8-1.6-4.2-2.3-7-2.3-1.7 0-2.6.3-3 .6-.4.4-.5 1-.5 2.4v17.8zm52.9-5.9c-2.3.4-2.6.6-2.6 3.3v3.6c0 1.5 0 3 .3 4.2-2.7.6-6.3 1.5-9.8 1.5-9.8 0-16-5.9-16-14.6 0-10.2 8-15.3 16.8-15.3 3.5 0 6.7.8 8.3 1.2.1 1.5.4 3.9.7 7.1l-1.7.3c-1.1-5.2-4.2-6.8-8-6.8-5.6 0-10.3 4.7-10.3 12.7 0 6.6 3.4 13.5 10.8 13.5 1.1 0 2.1-.2 2.8-.6.7-.4 1.1-1.1 1.1-2.6V498c0-3-.3-3.3-4.6-3.7v-1.6h12.2v1.7zm25.6 4.8c-.3 1.7-1.1 5.9-1.5 7.2H841v-1.6c3.7-.3 4.2-.6 4.2-4.2v-17c0-3.7-.4-4-3.6-4.2v-1.6h20.2c0 .8.2 4 .4 6.5l-1.7.2c-.4-1.7-.9-2.8-1.5-3.7-.6-.8-1.8-1.2-4.4-1.2h-2.7c-1.5 0-1.7.1-1.7 1.5v9.4h3.4c3.7 0 4.1-.3 4.7-3.3h1.7v8.8h-1.7c-.6-3.2-1-3.4-4.7-3.4h-3.4v7.8c0 2.1.3 3.1 1.1 3.5.7.4 2.3.5 4.2.5 2.6 0 4-.3 5-1.4.8-.9 1.6-2.3 2.3-4.2l1.5.4z"/>
</svg>
