<svg xmlns="http://www.w3.org/2000/svg" viewBox="0 0 2490 441">
  <g fill="#de1e34">
    <path d="M2256 336.6h94.6V0H2256zM2489.7 0v336.6h-94.6V0zm-2288 130.7h-76.5V0H0v336.6h125.2V169.7h76.5v166.9h125.2V0H201.7v130.7zm587.6-5.5l-7.7-22.2H678.7v233.7h102.9V196.1c0-30.6 19.5-47.3 36.2-47.3 13.9 0 32 2.8 32 33.4v154.4h102.9V185c0-84.9-95.2-118.2-163.4-59.8zm1057.1 113.3l-48-135.6h-70.2l-48 141.2-50.1-141.2h-137.7L1443 221.8l-69.5-118.9H1256l138.4 236.5-18.1 44.5c-6.3 13.9-21.3 14.6-24.2 1.4 0-23.9-19.4-43.3-43.3-43.3s-43.3 19.4-43.3 43.3c.2 25 25.2 57.7 74.6 55.6s70.2-43.1 77.2-60.5l114.4-276.6 82.4 232.8h75.1l45.9-134.2 47.3 134.2h70.9l80-233.7h-41zM504.2 91c-78.8 0-142.6 58.6-142.6 130.8 0 72.3 63.8 130.8 142.6 130.8S646.8 294 646.8 221.8 583 91 504.2 91zm35.5 192c0 19.6-15.9 35.5-35.5 35.5s-35.5-15.9-35.5-35.5V160.7c0-19.6 15.9-35.5 35.5-35.5s35.5 15.9 35.5 35.4z"/>
    <path d="M1267.4 240.6c.7-5.5 1.1-13.1 1.1-18.8 0-72.2-63.8-130.8-142.6-130.8s-142.6 58.6-142.6 130.8c0 72.3 63.8 130.8 142.6 130.8 54.1 0 101.2-27.7 125.4-68.4l-31.5-11.7c-19 29.1-53.9 48.6-93.9 48.6-19.6 0-35.5-18.5-35.5-38.1v-42.4zm-176.9-79.9c0-19.6 15.9-35.4 35.5-35.4s35.5 15.9 35.5 35.4v46.6h-70.9v-46.6zm1129.6 79.9c.8-5.5 1.2-13.1 1.2-18.8 0-72.2-63.8-130.8-142.6-130.8s-142.6 58.6-142.6 130.8c0 72.3 63.8 130.8 142.6 130.8 54.1 0 101.2-27.7 125.4-68.4l-31.5-11.7c-19 29.1-53.9 48.6-93.9 48.6-19.6 0-35.5-18.5-35.5-38.1v-42.4zm-176.9-79.9c0-19.6 15.9-35.4 35.5-35.4s35.5 15.9 35.5 35.4v46.6h-70.9z"/>
  </g>
</svg>
