<svg xmlns="http://www.w3.org/2000/svg" viewBox="89.3 233.6 611.8 178.3">
  <path fill="#0162A1" d="M293.2 257.2h37.3v135.1h-37.3V257.2zm56.9 135.1V257.2h103v26.2h-65.4v27.8h60.2v26.2h-60.2v28.8h65.4v26.2h-103m124-.1V257.2h103v26.2h-65.4v27.8h60.2v26.2h-60.2v28.8h65.4v26.2h-103m124-.1V257.2h103v26.2h-65.4v27.8h60.2v26.2h-60.2v28.8h65.4v26.2h-103M190.5 245.1c5.6 7.2 11.4 14.4 17.3 21.3l14.7 15.4c13.4 13.4 27.8 25.2 42.8 35.7h.7c2 1.3 3.3 3.6 3.6 5.9 0 4.9-5.9 5.9-8.8 8.5-29.8 21.6-56.3 48.4-77.2 77.8l-1.6 1.6c-1.6 1-3.9.7-5.6 0-2.3-.7-2.6-3.3-3.9-4.9-4.6-7.2-10.5-14.1-15.7-20.6-2.9-2.9-5.6-6.2-8.5-9.5-17.3-19-36.6-35.7-56.9-49.4-1.3-1.3-2.6-3.3-2-5.6.7-2.6 3.6-4.3 5.6-5.6 25.2-17.3 48.4-39.9 68-64.4l12.1-16c1.6-1.3 3.9-2.3 5.9-1.3 1 .3 2 1 2.6 1.6l6.9 9.5"/>
  <path fill="#FFF" d="M173.2 258.9c-5.9 4.3-11.1 8.2-16.7 13.1l-1.3 1.3c-12.8 11.4-25.2 23.9-35.7 37-2.9 3.9-5.9 7.5-7.2 12.1 0 2.3.3 4.6 1.6 6.5 8.8 13.1 20.3 25.5 31.7 36 9.8 8.8 19.3 18.6 30.7 24.5 3.6 1.6 7.9-.3 11.1-2.6 15.4-10.8 29.1-24.5 42.2-38.3 5.9-7.5 12.8-14.1 16.4-22.6 1-3.3-.7-6.2-2.3-8.8-10.1-14.4-22.6-28.1-36-40.6l-1-.7c-4.9-4.6-10.1-9.2-15.7-13.1-4.4-4.8-11.9-8.8-17.8-3.8"/>
  <path fill="#0162A1" d="M175.1 262.5c-19 13.1-37.3 30.7-52 49.1-2.9 4.3-8.2 8.5-5.9 14.4 1.6 4.3 5.6 7.5 7.9 11.1 14.4 17.3 31.4 33.4 49.1 46.4 7.9 4.9 13.4-2.9 19.3-6.9 12.4-9.8 23.9-21.6 34.7-33.4v-.3c4.3-5.2 8.8-10.5 12.4-16 1.6-2.6.7-6.5-1-9.2-13.1-19-30.4-36-48.7-50.7-4-2.9-9.6-8.8-15.8-4.5"/>
  <path fill="#FFF" d="M179.1 274.2l-1.6 5.2-8.2 23.9c2 .3 4.6 0 6.5.3v.3l-1.3 26.8.3.3c2.6.3 5.9.3 8.5 0v-.3l-1-26.2.3-1h7.2c-3.6-9.6-7.2-19.5-10.7-29.3"/>
  <path fill="#FFF" d="M150.9 311.5c-4.6 2.3-11.4 5.9-10.8 12.1 1 3.6 4.9 5.9 7.9 7.2 16.4 7.2 38.3 7.5 55.9 2 4.3-1.6 10.1-3.9 10.8-9.5 0-4.3-4.6-7.2-7.9-8.8v-.3c1.3-.3 2.6-1 3.6-1-5.9-1-11.4-2.6-17-3.9 1 2.6 2 5.2 2.9 7.5 1.6-.7 3.6-1 5.2-1.3 2.9 1.3 7.2 2.9 7.5 6.5.3 3.6-3.6 5.2-5.9 6.5-12.8 4.6-27.1 5.2-40.6 1.6-3.6-1.3-9.2-2.6-9.5-7.2 2.6-6.2 9.5-7.5 15-8.8-2.9-2-5.9-3.6-8.5-5.6-3 .4-6 1.7-8.6 3m23.6 26.8c-.7 9.5-.7 18.3-1.3 27.8 3.9.3 8.2.7 12.1 0l-1.3-26.8-.3-1.3c-3 .7-6 .7-9.2.3"/>
  <path fill="#0162A1" d="M210.4 392c1 0 2 .3 3 .8s1.7 1.3 2.3 2.2c.5 1 .8 2 .8 3s-.3 2-.8 3-1.3 1.7-2.2 2.2c-1 .5-2 .8-3 .8s-2-.3-3-.8-1.7-1.3-2.2-2.2c-.5-1-.8-2-.8-3 0-1.1.3-2.1.8-3 .5-1 1.3-1.7 2.3-2.2.8-.6 1.8-.8 2.8-.8zm0 1c-.8 0-1.7.2-2.5.7-.8.4-1.4 1.1-1.9 1.9-.5.8-.7 1.6-.7 2.5 0 .9.2 1.7.7 2.5.4.8 1.1 1.4 1.9 1.9.8.4 1.6.7 2.5.7.9 0 1.7-.2 2.5-.7.8-.4 1.4-1.1 1.9-1.9.4-.8.7-1.6.7-2.5 0-.9-.2-1.7-.7-2.5-.5-.8-1.1-1.4-1.9-1.9-.8-.5-1.6-.7-2.5-.7zm-2.6 8.3v-6.5h2.2c.8 0 1.3.1 1.7.2.3.1.6.3.8.6.2.3.3.6.3 1 0 .5-.2.9-.5 1.2-.3.4-.8.5-1.3.6l.6.3c.3.3.6.7 1 1.3l.8 1.3h-1.3l-.6-1c-.5-.8-.8-1.3-1.1-1.5-.2-.1-.5-.2-.8-.2h-.6v2.8h-1.2zm1-3.6h1.3c.6 0 1-.1 1.2-.3.2-.2.3-.4.3-.7 0-.2-.1-.4-.2-.5-.1-.2-.3-.3-.4-.3-.2-.1-.5-.1-1.1-.1h-1.2v1.9z"/>
</svg>
