<svg xmlns="http://www.w3.org/2000/svg" viewBox="0 0 2428 932">
  <g fill="#b01842">
    <path d="M2245.239 830.256c-30.401-15.888-35.11-60.802-34.422-169.969l.688-167.336-57.651-.078 12.944-31.01h44.707v-79.246l107.104-39.622-.026 116.222 49.09.09-12.97 34.332-36.094-.052-.182 289.589c2.36 23.332 10.208 37.054 21.375 47.067h-94.563zM1192.833 114.662c8.184 22.412 26.692 45.55 13.528 71.515-6.407 26.329-31.322 47.69-57.65 51.944-27.406 2.49-53.735-2.127-74.032-18.858-14.591-76.145 16.38-146.61 76.508-188.593z"/>
    <path d="M1299.056 346.665c-13.71 46.082-149.814 15.836-192.51-59.777 56.042 6.225 119.205-43.41 120.268-99.984zm55.679-5.966c6.225-2.762 18.793-8.988 21.893-22.334L1230.199.775c-9.779-1.246-16.912-2.14-29.363 6.757zm65.834-68.947c62.294-94.303 9.806-249.097-124.354-270.796zm-13.735 203.054c19.61-16.471 54.162-16.86 76.496-6.277 9.43 4.708 18.443 10.998 24.318 19.221l-43.137 67.106c-5.5-4.332-9.429-6.278-16.485-9.805-21.374-9.222-43.928-3.826-56.898 7.833v195.792c-.272 33.838 5.603 64.72 23.151 80.802h-98.077c-20.389-15.68-25.486-40.79-27.457-62.774l-.791-260.303c.882-21.076-4.514-30.401-12.944-42.178l101.605.402c8.262 5.876 8.638 16.083 12.97 23.942l17.25-13.76zm123.978 64.343c-.79-24.72 4.708-54.33-11.478-75.717h94.264c6.278 4.708 9.806 12.568 11.777 20.012 5.097 6.667 4.708 16.083 7.043 23.943l.79 277.384c3.93 16.471 10.208 33.138 22.374 46.081l-100.814.208c-32.957-31.867-22.166-84.355-24.72-138.491zm149.1 2.75c10.182-28.274 41.971-42.385 65.122-57.676 35.29-12.944 74.148-45.122 113.758-18.82 32.956 21.556 61.982 45.9 82.786 79.233 5.097 12.944 7.445 27.457 10.998 41.192 0 18.443 3.904 32.165 3.515 50.608 1.167 20.012 1.167 38.079 0 57.676-1.193 33.333-16.874 63.15-43.163 86.301-39.234 34.928-88.662 74.55-142.006 47.47-47.872-22.373-104.368-66.704-100.84-127.493-1.946-43.164-3.904-80.426 1.971-122.422 2.36-12.153 1.167-25.473 7.86-36.069zm98.052 196.168c4.708 17.25 13.735 38.43 34.526 40.79 12.165.402 21.205-9.805 28.248-18.443 21.984-43.138 18.845-90.231 18.845-139.27-7.069-36.47 1.57-86.3-37.664-108.673-13.735-5.097-24.318 4.332-32.956 12.943-15.305 23.152-17.069 49.623-18.041 79.064-5.11 47.093.389 86.12 7.042 133.589zm247.97 92.189c-30.428-15.888-35.11-60.802-34.423-169.969l.688-167.336-57.677-.078 12.944-31.01h44.733v-79.246l107.104-39.622-.052 116.222 49.09.09-12.943 34.332-36.095-.052-.207 289.589c2.36 23.332 10.207 37.054 21.374 47.067h-94.537v.013zm-979.257-323.868c-.635-21.128-4.513-30.401-12.944-42.178l101.605.402c8.25 5.876 8.638 16.083 12.957 23.942l17.263-13.76c19.61-16.472 54.136-16.861 76.496-6.278 9.429 4.708 18.443 10.998 24.318 19.221l-43.138 67.106c-5.499-4.332-9.429-6.277-16.484-9.805-21.374-9.222-43.942-3.826-56.898 7.833v195.792c-.286 33.838 5.602 64.72 23.164 80.802h-98.078c-20.401-15.68-26.212-39.065-27.47-62.774l-.79-260.303zM278.102 609.394l-37.133 75.938c-25.213 44.81-60.581 99.802-114.847 113.46-21.011 7.34-39.558.687-59.881-.714L.769 905.234c4.903 5.24 11.816 9.676 18.56 12.256 115.21 43.93 161.59-3.346 275.05-259.654l107.143 228.32h142.693l-67.403-154.094 38.157-79.648L620.36 882.628l136.559.882-238.968-525.224-110.088 54.707 86.262 196.012-37.82 77.027L298.218 344.72l-115.989 59.09zm438.624 92.578c2.75-38.08 23.54-73.772 58.857-92.993 34.915-21.582 75.718-30.22 111.812-49.039 6.278-5.097 14.124-11.374 14.514-19.61.389-10.207-4.708-18.067-13.735-21.582-54.927-11.777-100.438 22.749-140.45 56.898 5.097-25.135 9.014-52.592 20.79-76.12 5.889-6.277 9.417-14.914 17.263-19.61 38.845-19.234 87.494-24.72 131.047-21.594 35.706 2.347 68.662 27.846 80.814 60.426 6.278 15.304 5.889 32.554 7.056 48.26l.402 212.64c.39 18.443 9.014 35.719 20 50.608h-101.62c-12.165-10.999-18.144-24.72-21.568-41.97-28.443 25.11-87.793 62.397-123.187 37.664-36.692-16.498-70.232-71.814-61.996-123.978zm180.072-73.967c-.778-14.72-11.374-16.264-18.832-16.264-24.318 3.515-45.264 23.89-56.885 44.707-10.402 18.65-12.853 34.318-13.735 50.608-.09 17.561-1.18 30.596 5.888 43.955 3.917 8.612 12.555 12.541 20.804 14.889 15.68 3.139 30.22-1.167 42.372-9.403 28.637-16.109 23.527-48.287 23.93-76.91zm1517.165 152.823c5.097 5.214 7.652 11.349 7.652 18.443 0 7.29-2.555 13.553-7.704 18.767-5.123 5.188-11.297 7.782-18.547 7.782s-13.45-2.58-18.573-7.73a25.615 25.615 0 0 1-7.756-18.819c0-7.12 2.53-13.242 7.627-18.443 5.136-5.318 11.374-7.95 18.689-7.95 7.263 0 13.45 2.632 18.612 7.95zm3.93-4.072a30.712 30.712 0 0 0-22.516-9.326c-8.378 0-15.68 2.893-21.906 8.638-6.615 6.187-9.935 13.904-9.935 23.203 0 8.962 3.061 16.51 9.196 22.645 6.16 6.16 13.709 9.222 22.645 9.222 8.69 0 16.108-3.01 22.32-8.988a30.738 30.738 0 0 0 9.547-22.879c0-8.793-3.113-16.29-9.352-22.515zm-18.56 20.116a8.729 8.729 0 0 1-5.071 1.297h-3.593v-10.233h2.257c2.308 0 4.072.233 5.37.739 1.893.74 2.84 2.075 2.84 4.007-.013 1.933-.623 3.32-1.803 4.19zm-8.664 7.652h1.945l2.024.13a10.22 10.22 0 0 1 3.164.557 4.241 4.241 0 0 1 2.581 2.581c.299.765.48 2.205.558 4.332.104 2.127.272 3.748.584 4.89h8.82l-.3-.986a5.512 5.512 0 0 1-.31-2.075v-3.165c0-3.592-1.038-6.225-3.113-7.898a11.971 11.971 0 0 0-5.02-2.024 11.44 11.44 0 0 0 6.11-2.386c1.672-1.323 2.476-3.476 2.476-6.433 0-3.904-1.543-6.718-4.682-8.43a17.12 17.12 0 0 0-6.964-1.83c-2.43-.048-4.86-.066-7.29-.051-4.357-.026-7.626-.026-9.83-.026v35.317h9.247z"/>
  </g>
</svg>
