<svg xmlns="http://www.w3.org/2000/svg" viewBox="0 0 659.8 187.4"><linearGradient id="a" x1="329.897" x2="329.897" y1="123.541" y2="37.239" gradientUnits="userSpaceOnUse" gradientTransform="matrix(1 0 0 -1 0 122.33)"><stop offset="0" stop-color="#F1CB00"/><stop offset="1" stop-color="#FFF"/></linearGradient><path fill="url(#a)" d="M438.9 93.9C438.9 42.1 390 0 329.9 0s-109 42.1-109 93.9h1.2c0-14 3.6-27.2 10.1-39.1h18.1c-5.1 11.9-8 25.2-8 39.1h1.2c0-14 2.9-27.2 8.1-39.1h29c-3.2 11.9-5 25.2-5 39.1h1.2c0-14 1.8-27.2 5-39.1H307c-1.4 11.9-2.2 25.1-2.2 39.1h1.2c0-13.7.8-27 2.3-39.1h21.2v39.1h1.2V54.7h21.1c1.5 12.1 2.3 25.4 2.3 39.1h1.2c0-14-.8-27.3-2.2-39.1h25.2c3.2 11.9 5 25.2 5 39.1h1.2c0-14-1.8-27.2-5-39.1h29c5.2 11.9 8.1 25.2 8.1 39.1h1.2c0-14-2.9-27.2-8-39.1h18.1c6.5 11.9 10.1 25.2 10.1 39.1h.9zm-60-40.3c-3.4-12.4-8.4-23.4-14.5-32.1h19.4c10 8.6 18.2 19.6 23.9 32.1h-28.8zm-34.5-33.2h-13.9V1.2c5 .5 9.9 7.3 13.9 19.2zm-9.9-18.9c10.4 1.6 19.9 8.3 27.8 18.8h-16.5c-3.3-9.4-7.1-16-11.3-18.8zm-5.2 18.9h-13.9c4-11.8 8.9-18.7 13.9-19.2v19.2zm-15.2 0h-16.5C305.4 9.9 315 3.1 325.4 1.6c-4.3 2.7-8.1 9.3-11.3 18.8zm-17.9 0h-18.9c11.9-9.8 26.2-16.4 41.8-18.5-8.6 3-16.4 9.4-22.9 18.5zm44.5-18.5c15.6 2.1 29.9 8.7 41.8 18.5h-18.9c-6.5-9.1-14.3-15.5-22.9-18.5zm12 51.7c-1.6-12.5-3.8-23.4-6.6-32.1h17c6.2 8.6 11.2 19.6 14.7 32.1h-25.1zm-22.2 0V21.5h14.3c.7 2 1.3 4.2 1.9 6.5 2 7.6 3.6 16.2 4.8 25.5h-21zm-22.2 0c1.2-9.4 2.8-18 4.8-25.5.6-2.3 1.3-4.5 1.9-6.5h14.3v32.1h-21zm-26.3 0c3.5-12.5 8.5-23.5 14.7-32.1h17c-2.8 8.7-5.1 19.6-6.6 32.1H282zm-29.9 0c5.7-12.5 13.9-23.5 23.9-32.1h19.4c-6.1 8.7-11.1 19.6-14.5 32.1h-28.8zm10.5-32.1h11.6c-9.8 8.7-17.8 19.6-23.4 32.1h-18c7.1-12.5 17.3-23.5 29.8-32.1zM307 3.3c-11.6 3.4-22.3 9.3-31.5 17.1h-11.2c12.4-8.2 26.9-14.2 42.7-17.1zm45.8 0c15.8 3 30.3 8.9 42.7 17.1h-11.2c-9.2-7.9-19.9-13.7-31.5-17.1zM427 53.6h-18c-5.5-12.4-13.6-23.4-23.4-32.1h11.6c12.5 8.6 22.7 19.6 29.8 32.1z"/><linearGradient id="b" x1="329.897" x2="329.897" y1="508.201" y2="421.899" gradientUnits="userSpaceOnUse" gradientTransform="translate(0 -319.55)"><stop offset="0" stop-color="#F1CB00"/><stop offset="1" stop-color="#FFF"/></linearGradient><path fill="url(#b)" d="M437.7 93.6c0 14-3.6 27.2-10.1 39.1h-18.1c5.1-11.9 8-25.2 8-39.1h-1.2c0 14-2.9 27.2-8.1 39.1h-29c3.2-11.9 5-25.2 5-39.1H383c0 14-1.8 27.2-5 39.1h-25.2c1.4-11.9 2.2-25.1 2.2-39.1h-1.2c0 13.8-.8 27-2.3 39.1h-21.1V93.6h-1.2v39.1H308c-1.5-12.1-2.3-25.4-2.3-39.1h-1.2c0 14.1.8 27.3 2.2 39.1h-25.3c-3.2-11.9-5-25.2-5-39.1h-1.2c0 14 1.8 27.2 5 39.1h-29c-5.2-11.9-8.1-25.2-8.1-39.1h-1.2c0 14 2.9 27.2 8 39.1h-18.1c-6.5-11.9-10.1-25.2-10.1-39.1h-1.2c0 51.8 48.9 93.9 109 93.9s109-42.1 109-93.9h-.8zm-30 40.3c-5.6 12.5-13.9 23.5-23.9 32.1h-19.4c6.1-8.7 11.1-19.6 14.5-32.1h28.8zm-77.2 52.4v-19.2h13.9c-4 11.8-8.9 18.7-13.9 19.2zm15.2-19.2h16.5c-7.8 10.5-17.4 17.3-27.8 18.8 4.3-2.8 8.1-9.4 11.3-18.8zm-16.4 19.2c-5-.5-9.9-7.3-13.9-19.2h13.9v19.2zm-4-.4c-10.4-1.6-19.9-8.3-27.8-18.8H314c3.3 9.4 7.1 16 11.3 18.8zm-6.2-.3c-15.6-2.1-29.9-8.7-41.8-18.5h18.9c6.5 9 14.3 15.5 22.9 18.5zm44.5-18.5h18.9c-11.9 9.8-26.2 16.4-41.8 18.5 8.6-3 16.4-9.5 22.9-18.5zm14.2-33.2c-3.5 12.5-8.5 23.5-14.7 32.1h-17c2.8-8.7 5.1-19.6 6.6-32.1h25.1zm-26.3 0c-1.2 9.4-2.8 18-4.8 25.5-.6 2.3-1.3 4.5-1.9 6.6h-14.3v-32.1h21zm-22.2 0V166H315c-.7-2-1.3-4.2-1.9-6.6-2-7.5-3.6-16.2-4.8-25.5h21zm-22.2 0c1.6 12.5 3.8 23.4 6.6 32.1h-17c-6.2-8.6-11.2-19.6-14.7-32.1h25.1zm-26.2 0c3.4 12.4 8.4 23.4 14.5 32.1H276c-10-8.6-18.2-19.6-23.9-32.1h28.8zm-48.1 0h18c5.5 12.4 13.6 23.4 23.4 32.1h-11.6c-12.5-8.7-22.7-19.6-29.8-32.1zm31.5 33.2h11.2c9.2 7.8 19.8 13.7 31.5 17.1-15.8-3-30.3-8.9-42.7-17.1zm120 0h11.2c-12.4 8.2-26.9 14.1-42.7 17.1 11.6-3.4 22.3-9.3 31.5-17.1zm12.9-1.2h-11.6c9.8-8.7 17.8-19.6 23.4-32.1h18c-7.1 12.6-17.3 23.5-29.8 32.1z"/><g fill="#F1CB00"><path d="M438.5 68.4c-.9-1.1-1.4-2.5-1.6-3.9-.4-4.3 1.4-8.5 4.9-11.1-1.2.1-2.4.4-3.4.7-2.1 2.5-3.1 5.8-2.8 9.1.2 2.1 1.3 4 2.9 5.2zm88.8 42.3c-.4-.5-.9-1.1-1.2-1.8-3.2-7-1.4-15.2 1.7-22 1.9-4.2 4.3-7.9 7.4-11.3 1.8-2 3.8-3.8 6.2-4.8.2-.4.3-.9.6-1.3.1-.2 1.5-1.2-.4-.6-3.1.9-5.5 3-7.7 5.4-3.1 3.4-5.5 7.1-7.4 11.3-3.1 6.8-4.9 15-1.7 22 .6 1.2 1.5 2.3 2.5 3.1zm21.3-41c-2.7.3-4.1 4.7-3.3 7.4.5 1.8 1.5 3.4 3 4.5-.7-.9-1.3-2-1.7-3.2-.8-2.8.6-7.1 3.2-7.4 1.5-.2 2.9.4 4.1 1.3-1.2-1.7-3.1-2.8-5.3-2.6zM500 70c1.9 2.5 4.6 6.2 3.9 16.7.5-.1.9-.2 1.4-.3.3-9.4-2.2-12.8-4-15.2-.6-.8-1.3-1.5-2-2.1.2.4.5.6.7.9zm-55.8-32.3c-18.7.4-33.6 31.6-32.6 31.4l1.8-.3c2.8-6.4 16-29.5 32.1-29.8 4.1-.1 7.2 1.2 9.4 3.1-2.2-2.6-5.8-4.5-10.7-4.4zm117.4 42.9c.1 1 .3.8.8.4.1-.1.2-.2.4-.3-.7-4.6-2.6-9-6-11.8 2.7 3.1 4.3 7.3 4.8 11.7zm61.2 29.6c-.8-1-1.4-2.2-1.7-3.5-.8-3.1.1-6.4 2.2-8.8-.9 0-1.7.1-2.5.4-1.2 2.1-1.7 4.6-1.1 7.1.6 1.9 1.7 3.6 3.1 4.8zM548.1 87c-1.3-.6-2.6-1.4-3.7-2.4 1.4 1.5 3.1 2.8 5 3.7 1.7.8 3.8 1.1 5.7 1.1.1-.4.3-.9.4-1.3-2.1.2-5.1 0-7.4-1.1zm98.3-31c-2.5 1.6-5.1 3.3-6.1 6.2-1.2 3.3-.9 6.6-.3 10.1 2.4 12.8 9.3 23.8 7.3 37.1 0 0 .5.3.6.2.3-.2.6-.4.8-.5 1.2-12.5-5.1-23.1-7.5-35.4-.7-3.5-1-6.8.3-10.1 1.1-2.9 3.7-4.6 6.1-6.2m-61.2 2.2c5.1 7 11.5 14.9 8.4 24-2.9 8.6-8.4 15.8-11.1 24.4-.5 1.6.3 2.9 1.5 3.6-.4-.6-.5-1.4-.2-2.3 2.7-8.7 8.2-15.8 11.1-24.4 3.1-9.1-3.4-17.1-8.4-24 1.6-3.9 5.4-8.1 3.2-12.4-.3-.7-.8-1.1-1.3-1.3 2.2 4.3-1.6 8.5-3.2 12.4zm-175.5 49c-.2-.2-.4-.4-.6-.7-7.6-9.7-4-22.2.3-32.4 4.9-.4 12-3 16.8-5.2-.1-.6-.2-1.2-.2-1.8-4.8 2.3-12.6 5.3-17.9 5.7-4.3 10.3-7.9 22.7-.3 32.4.6.8 1.2 1.5 1.9 2z"/><path d="M584.7 65.6c.1-.1.1-.2.2-.2-.3-.4-.5-.7-.8-1.1-.3-.4-.2-.6-.7 0-6.4 9.1-12.5 17.3-22 22.5-1.4 12.5-7.7 24.3-16.9 33-5.1 4.8-11.8 7.6-18.8 7-3.4-.3-6.4-1.7-8.9-3.9 2.6 3 6.2 4.8 10.2 5.2 7 .6 13.7-2.2 18.8-7 9.2-8.7 15.5-20.5 16.9-33 9.4-5.2 15.6-13.4 22-22.5zm-70.9 23.7c.6-1.7.4-1.4-.2-1.1-3.2 1.6-7.1 3-10.5 3.6-4.9 15.2-13.9 32.7-31.6 34.9-5.3.6-9.3-.9-12.2-3.4 3 3.3 7.3 5.4 13.5 4.7 17.7-2.1 26.7-19.7 31.6-34.9 3-.5 6.2-1.6 9.1-3 .1-.2.2-.5.3-.8zm120.9-20.1c0-.5-.1-1.1-.1-1.6 0-.7.3-1.5-.6-.4-2.1 2.5-4 4.6-6 7.2-12.2 15.4-21 33.4-34.2 46-4.9 4.6-11.5 7.9-18.3 6.2-1.7-.4-3.1-1.2-4.3-2.2 1.4 1.7 3.3 3 5.6 3.6 6.8 1.7 13.4-1.6 18.3-6.2 13.2-12.6 21.9-30.7 34.2-46 1.8-2.4 3.6-4.4 5.4-6.6zm23.2 37.7c-.7 1.6-1.8 3.1-2.5 4.7-3.5.3-6.7 1.6-9.4 3.8-4.6 3.8-5.9 9.6-14.6 11.4-6 1.3-10.4-.4-13.4-3.1 3.1 3.5 7.8 5.8 14.7 4.4 8.7-1.9 10-7.6 14.6-11.4 2.7-2.2 5.9-3.5 9.4-3.8 1-2.1 2.5-3.9 3.1-6.2-.6 0-1.2.1-1.9.2zm-205.7-4.1c-.7.1-19.1 27.2-45 23.8-4.2-.6-7.8-2.4-10.8-5.2 3.2 3.5 7.2 5.8 12.1 6.5 22.1 2.8 38.8-16.6 43.6-22.3-.1-1.1 0-2.1.1-2.8zm40-30.5c1.1-.8 3-.2 4.5 1-1.5-1.9-4.3-3.4-5.8-2.3-5.1 3.5-2.6 10.5.8 13.1-2.7-3.1-4-8.7.5-11.8zm-22.4 38c-1.3-1.6-2.1-3.6-2.5-5.7-1.2-7.7 1-15 4.7-21.7 3.1-5.5 7.6-11.3 13.7-13.2l.9-.9c1.3-1.1.3-1 .3-1-7.4.9-12.7 7.5-16.2 13.7-3.8 6.7-6 14-4.7 21.7.4 2.8 1.7 5.4 3.8 7.1zM496 91.5c-3.4-.6-6-2.4-8.4-4.5.1.2.3.3.5.5 2.3 2.3 5 4.3 8.3 5.1.1-.3.2-.6.2-.8 0-.2-.4-.3-.6-.3zM393.3 75.2c-2.9-.5-6.5-.5-9.5-1.9-.6-.3-2.2-1-3.6-2.2 1.7 2 4.1 3.1 4.9 3.5 2.4 1.2 5.2 1.4 7.7 1.7.3-.4.4-.7.5-1.1zm-7.5-10.4c-.1 1.8.8 3 2 3.9-.5-.7-.8-1.6-.7-2.6.1-2.1 2.3-3.2 4.3-3.1-.3-.5-.8-.9-1.4-1.3-2-.1-4.1 1-4.2 3.1zm61.9 12.3c-6.9 4.1-12.7 2.9-16.3-.2 3.4 4 9.7 6.1 17.6 1.5 12.1-7.2 20.6-27.2 9.9-38.6l-1.1-1.1c10.4 11.5 1.9 31.3-10.1 38.4z"/></g><path fill="#ED1C24" d="M407.4 105.1c-7.6-9.7-4-22.2.3-32.4 5.3-.4 13.1-3.4 17.9-5.7 0 7.1 8.5 15.7 20.4 8.6 12.1-7.2 20.6-27.2 9.9-38.6-6.4-6.8-16.4-6.3-24.6-3.6-17.4 5.7-29.2 20.4-38 35.6-3.7 0-9.4-1.2-9.2-5.7.1-2.1 2.3-3.2 4.3-3.1-2.2-3.4-10.7-3.9-12.3 1.6-2 6.6 4.7 9.4 6.1 10.1 3 1.4 6.5 1.4 9.5 1.9-5.5 13.5-9.7 30.8.5 43.6 3.4 4.3 7.8 7.1 13.3 7.9 25.9 3.3 44.3-23.8 45-23.8-.8 6 2.1 26 19.3 24 17.7-2.2 26.7-19.7 31.6-34.9 3.4-.6 7.3-2 10.5-3.6.6-.3.9-.6.2 1.1-3.5 9.5-5.7 20.4-.2 29.8 2.6 4.5 7 7.3 12.1 7.7 7 .6 13.7-2.2 18.8-7 9.2-8.7 15.5-20.5 16.9-33 9.4-5.2 15.6-13.4 21.9-22.5.4-.6.4-.4.7 0 1.8 2.1 2.8 4.5 3.3 7.2.7 3.3-.3 6.2-2 9-4.9 7.9-9.9 14.5-14.9 22.3-2.3 3.6-3.6 7.3-3.6 11.4 0 5.4 3.1 11 8.7 12.3 6.8 1.7 13.4-1.6 18.3-6.2 13.1-12.6 21.9-30.6 34.2-46 2-2.5 4-4.7 6-7.2.9-1.1.6-.2.6.4.1 7 1.9 13.7 2.8 20.7.6 4.4 1.3 8.7.9 13.2-.5 5.6-4.8 11.5-11.1 10.6-3.7-.5-6.5-3.2-7.4-6.8-.8-3.1.1-6.4 2.3-8.8-6.7-.1-10.1 7.7-10.2 13.5-.1 5.7 4.8 19.9 19.5 16.8 8.7-1.9 10-7.6 14.6-11.4 2.7-2.2 5.9-3.5 9.4-3.8 1-2.1 2.5-3.9 3.1-6.2-3.8.1-7.3 1.9-10.6 4.1-.1.1-.6-.1-.6-.2 2-13.3-4.8-24.2-7.3-37-.7-3.5-1-6.8.3-10.1 1.1-2.9 3.7-4.6 6.2-6.2-.7-1-2.3-3.1-2.5-3-15.3 7.7-26.7 30-38.1 44.1-5 6.1-9.1 13.4-17.3 15.2-2.5.5-5.6-1.3-4.7-4.2 2.7-8.7 8.2-15.8 11.1-24.4 3.1-9.1-3.4-17.1-8.4-24 1.6-3.9 5.4-8.1 3.2-12.4-1.4-2.8-4.7-1.3-6.3.7-2.3 3-2.6 6.6-1.8 10.1-2.6 5.3-6.2 9.7-9.9 14.4-2.7 3.4-5.9 5.8-9.3 8.5-.5.4-.7.6-.8-.4-.7-6.6-4-13.1-10.3-15.5-13.5-5-26.6 4.8-33.3 16-4.4 2.6-7.9 4.7-14.1 5.7.7-10.5-2-14.3-3.9-16.7-5.5-7.1-15.8-7.6-23.1-4.4-12.3 5.5-19.9 17.9-22.8 28.1-6.8 7.6-15.3 13.8-25.1 17.1-6.8 1.9-15.1 1.7-20-4.5zM434 61.6c-.4-4.3 1.4-8.5 4.9-11.1-10.6 1.1-12.9 11-13.1 11.1-4.4 2.5-10.6 5.1-15.7 5.9-1 .1 13.9-31.1 32.6-31.4 8.2-.2 12.7 5.2 13.2 10 1 8.7-3.5 18.3-11.8 21.8-4.7 1.9-9.6-1.5-10.1-6.3zM469.1 80c3.5-6.2 8.8-12.8 16.2-13.7.1 0 1.1-.2-.3 1-2.6 2.1-3.1 5.4-3.2 8.3-.1 3.3.8 6.6 3.3 9 2.6 2.5 5.5 4.6 9.2 5.3.2 0 .6.1.6.3-.9 4.7-4.2 9.2-7.3 13.1-3.8 4.8-9.2 8.1-15.4 7.3-4.3-.6-7.1-4.5-7.8-8.8-1.2-7.8 1-15.1 4.7-21.8zm20.2-10.6c1.8-1.2 5.3.9 6.5 3.4 1.8 3.7 1.7 7.7.9 11.8-.1.5-.2.5-.7.5-2.2-.1-4.1-1.1-5.9-2.5-3.4-2.7-6-9.6-.8-13.2zm54.5 6.2c-.8-2.8.6-7.1 3.2-7.4 5.5-.6 9.2 7.5 7.8 13.4-1.6.5-3.2.3-4.9 0-3.1-.7-5.2-3.1-6.1-6zm-11.5-2.9c2.2-2.4 4.6-4.5 7.7-5.4 1.9-.6.5.4.4.6-1.6 2.8-2 5.8-1.4 8.8.8 4.1 3.9 7 7.5 8.7 2.3 1.1 5.3 1.2 7.4 1.1-3.3 10.4-10.1 23.4-22 24.4-3.6.3-7.1-1.5-8.7-5-3.2-7-1.4-15.2 1.7-22 1.9-4.1 4.3-7.8 7.4-11.2z"/><path fill="#F1CB00" d="M167.6 113.8h2.1V62.1h-2.1c-.1 9.3 0 50 0 51.7zm24 2V126h-35.3v1.8h37.4v-12h-2.1z"/><g fill="#F1CB00"><path d="M199.6 92.2c1.2 1.2 2.5 2.3 4 3.2 4.8 3 10.4 4.2 15.4 5.3 4.2.9 7.4 1.7 9.6 3-1.9-2.6-6-3.6-11.9-4.9-4.9-1.1-10.5-2.3-15.4-5.3-.6-.4-1.1-.8-1.7-1.3z"/><path d="M224.8 126h-27.7v1.8h29.8c10.3 0 18.7-8.4 18.7-18.7 0-5.9-2.8-11.4-7.4-14.9 3.3 3.4 5.3 8 5.3 13 0 10.4-8.4 18.8-18.7 18.8zM243 62.1h-2.1v10.3h-27.6c-3.1 0-5.7 2.6-5.7 5.8-.3 1.8.9 3.2 2.8 4.4-.6-.8-.8-1.6-.7-2.5 0-3.3 2.6-5.9 5.7-5.9H243V62.1z"/></g><path fill="#F1CB00" d="M351.4 96.3c-6.6-11.2-20.1-34.2-20.1-34.2h-1.6c4 6.9 18.1 30.9 21.7 36.9v-2.7zm13.7-34.2V126H353c.7 1.2 1.1 1.8 1.1 1.8h13.1V62.1h-2.1zM329 85.5V126h-11.3v1.8H331V89.1l-2-3.6zM43 98.7c-2.8-9.5-3.2-10.8-11-36.6h-1.9c2.2 7.2 10 33.3 11.9 39.9l1-3.3zM22.1 85.1c-1.2 6.2-8.2 40.9-8.2 40.9H2.5l-.4 1.8H16s5.5-27.6 7.6-37.9c-.6-2.2-1.2-3.9-1.5-4.8zm51.1-23h-2.1L84.6 126H72.4c.2 1.1.4 1.8.4 1.8h14.3L73.2 62.1zM62.5 85.4c-1.9 6-12.6 40.6-12.6 40.6H36.2c.2.5.6 1.8.6 1.8H52s8.3-26.6 11.6-37.2c-.5-2.3-.9-4.2-1.1-5.2zm79.6-15c-.9-.9-1.8-1.7-2.8-2.5C145.9 74.2 150 83.1 150 93c0 18.9-15.1 34.3-33.6 34.3-7.9 0-15.1-2.8-20.9-7.5 6 5.8 14.1 9.4 23 9.4 8.8 0 17.2-3.5 23.5-9.8 6.5-6.5 10.1-15.2 10.1-24.5s-3.5-18-10-24.5z"/><path fill="#F1CB00" d="M118.6 72.9c4.2 0 8.2 1.5 11.6 4.1l-.2-.2c-3.7-3.7-8.5-5.8-13.5-5.8s-9.8 2-13.5 5.8C98.9 81 96.5 86.9 96.5 93c0 7.4 3.3 13.9 8.4 17.9-4-4.2-6.3-10-6.3-16-.1-12.1 8.9-22 20-22zm185.3-2.5c-.9-.9-1.8-1.7-2.8-2.5 6.6 6.3 10.8 15.2 10.8 25.1 0 18.9-15.1 34.3-33.6 34.3-7.9 0-15.1-2.8-20.9-7.5 6 5.8 14.1 9.4 23 9.4 8.8 0 17.2-3.5 23.5-9.8 6.5-6.5 10.1-15.2 10.1-24.5s-3.6-18-10.1-24.5z"/><path fill="#F1CB00" d="M280.4 72.9c4.2 0 8.2 1.5 11.6 4.1l-.2-.2c-3.7-3.7-8.5-5.8-13.5-5.8s-9.8 2-13.5 5.8c-4.1 4.2-6.5 10.1-6.5 16.2 0 7.4 3.3 13.9 8.4 17.9-4-4.2-6.3-10-6.3-16 0-12.1 9-22 20-22z"/><path fill="#0067AC" d="M153.9 123.9V60.1h11.5v53.7h24v10.1m34.2 0h-28.9v-10.1h27.1c4.2 0 7.6-3.4 7.6-7.6-.3-10.9-16.2-7.5-27.6-14.7-4.9-2.9-8.2-8.4-8.2-14.5 0-9.3 7.5-16.9 16.8-16.9h28.3v10.2h-26.6c-3.7 0-6.6 3-6.6 6.7-1.2 8 19.4 10 23.1 12 7.4 2.1 12.9 9 12.9 17.1-.1 9.9-8.1 17.8-17.9 17.8zm139.3 0V60.1h-11.5v42l-24.7-42h-11.4v63.8h11.5V81.8l24.5 42.1M0 123.9h12l8.7-43.5 13.5 43.5H48l13.5-43.5 8.8 43.5h11.9L68.8 60.1H54.6l-13.5 45-13.4-45H13.5M244.6 92c0-18.4 14.6-33.4 32.6-33.4s32.6 15 32.6 33.4-14.6 33.4-32.6 33.4-32.6-15-32.6-33.4zm32.6 22.9c11.6 0 21-10.3 21-22.9 0-12.7-9.4-23-21-23s-21 10.3-21 23 9.4 22.9 21 22.9zm-194.6-23c0-18.5 14.6-33.4 32.7-33.4 18 0 32.6 15 32.6 33.4s-14.6 33.4-32.6 33.4c-18.1 0-32.7-14.9-32.7-33.4zm32.7 23c11.6 0 21-10.3 21-23s-9.4-23-21-23-21 10.3-21 23 9.4 23 21 23z"/></svg>
