<svg viewBox="0 0 304 311" xmlns="http://www.w3.org/2000/svg">
  <defs>
    <linearGradient x1="52.743%" y1=".033%" x2="52.743%" y2="100.052%" id="linearGradient-1">
      <stop stop-color="#AEE2F8" offset="0%"/>
      <stop stop-color="#9BDAF5" offset="10%"/>
      <stop stop-color="#7FD3F1" offset="20%"/>
      <stop stop-color="#56C9EE" offset="30%"/>
      <stop stop-color="#1DC0EA" offset="40%"/>
      <stop stop-color="#03B3E1" offset="50%"/>
      <stop stop-color="#029DD0" offset="60%"/>
      <stop stop-color="#098BC0" offset="70%"/>
      <stop stop-color="#1077AF" offset="80%"/>
      <stop stop-color="#1967A2" offset="90%"/>
      <stop stop-color="#145B98" offset="100%"/>
    </linearGradient>
    <linearGradient x1="50.823%" y1=".285%" x2="50.823%" y2="100.304%" id="linearGradient-2">
      <stop stop-color="#AEE2F8" offset="0%"/>
      <stop stop-color="#9BDAF5" offset="10%"/>
      <stop stop-color="#7FD3F1" offset="20%"/>
      <stop stop-color="#56C9EE" offset="30%"/>
      <stop stop-color="#1DC0EA" offset="40%"/>
      <stop stop-color="#03B3E1" offset="50%"/>
      <stop stop-color="#029DD0" offset="60%"/>
      <stop stop-color="#098BC0" offset="70%"/>
      <stop stop-color="#1077AF" offset="80%"/>
      <stop stop-color="#1967A2" offset="90%"/>
      <stop stop-color="#145B98" offset="100%"/>
    </linearGradient>
    <linearGradient x1="51.452%" y1=".285%" x2="51.452%" y2="100.304%" id="linearGradient-3">
      <stop stop-color="#AEE2F8" offset="0%"/>
      <stop stop-color="#9BDAF5" offset="10%"/>
      <stop stop-color="#7FD3F1" offset="20%"/>
      <stop stop-color="#56C9EE" offset="30%"/>
      <stop stop-color="#1DC0EA" offset="40%"/>
      <stop stop-color="#03B3E1" offset="50%"/>
      <stop stop-color="#029DD0" offset="60%"/>
      <stop stop-color="#098BC0" offset="70%"/>
      <stop stop-color="#1077AF" offset="80%"/>
      <stop stop-color="#1967A2" offset="90%"/>
      <stop stop-color="#145B98" offset="100%"/>
    </linearGradient>
    <linearGradient x1="52.114%" y1=".033%" x2="52.114%" y2="100.052%" id="linearGradient-4">
      <stop stop-color="#AEE2F8" offset="0%"/>
      <stop stop-color="#9BDAF5" offset="10%"/>
      <stop stop-color="#7FD3F1" offset="20%"/>
      <stop stop-color="#56C9EE" offset="30%"/>
      <stop stop-color="#1DC0EA" offset="40%"/>
      <stop stop-color="#03B3E1" offset="50%"/>
      <stop stop-color="#029DD0" offset="60%"/>
      <stop stop-color="#098BC0" offset="70%"/>
      <stop stop-color="#1077AF" offset="80%"/>
      <stop stop-color="#1967A2" offset="90%"/>
      <stop stop-color="#145B98" offset="100%"/>
    </linearGradient>
    <linearGradient x1="52.614%" y1=".033%" x2="52.614%" y2="100.052%" id="linearGradient-5">
      <stop stop-color="#AEE2F8" offset="0%"/>
      <stop stop-color="#9BDAF5" offset="10%"/>
      <stop stop-color="#7FD3F1" offset="20%"/>
      <stop stop-color="#56C9EE" offset="30%"/>
      <stop stop-color="#1DC0EA" offset="40%"/>
      <stop stop-color="#03B3E1" offset="50%"/>
      <stop stop-color="#029DD0" offset="60%"/>
      <stop stop-color="#098BC0" offset="70%"/>
      <stop stop-color="#1077AF" offset="80%"/>
      <stop stop-color="#1967A2" offset="90%"/>
      <stop stop-color="#145B98" offset="100%"/>
    </linearGradient>
    <linearGradient x1="52.775%" y1=".033%" x2="52.775%" y2="100.052%" id="linearGradient-6">
      <stop stop-color="#AEE2F8" offset="0%"/>
      <stop stop-color="#9BDAF5" offset="10%"/>
      <stop stop-color="#7FD3F1" offset="20%"/>
      <stop stop-color="#56C9EE" offset="30%"/>
      <stop stop-color="#1DC0EA" offset="40%"/>
      <stop stop-color="#03B3E1" offset="50%"/>
      <stop stop-color="#029DD0" offset="60%"/>
      <stop stop-color="#098BC0" offset="70%"/>
      <stop stop-color="#1077AF" offset="80%"/>
      <stop stop-color="#1967A2" offset="90%"/>
      <stop stop-color="#145B98" offset="100%"/>
    </linearGradient>
  </defs>
  <g id="Page-1" fill="none" fill-rule="evenodd">
    <g id="nyse">
      <path id="Rectangle" fill="#FFF" d="M0 0h304v311H0z"/>
      <path d="M45.8 275.7H32V206h13.8l28.3 44.3V206h13.8v69.7H75l-29.2-45.9v45.9m52-69.7h16.9l15.5 25.5 15.6-25.5h17.1l-25.8 39.6v30.1h-13.8v-30.4L97.8 206m108 19.6l7.2-11.3s-8.2-9-23.4-9c-15.4 0-22.5 10.4-22.5 20.6 0 10.3 9.9 17.2 16.6 19.8 10.3 3.6 17.5 5.4 17.5 10.6 0 3.9-4 6.8-9.6 6.8-10.5 0-18.8-8.6-18.8-8.6l-7.5 11.7s10 10.1 26.1 10.1c12.4 0 23.5-8.7 23.5-21.4 0-11.5-9.8-17.9-18.3-20.3-7.4-2.2-15.2-4.2-15.2-9.5 0-3.4 2.9-6.6 7.9-6.6 8.4.2 16.5 7.1 16.5 7.1m21.5 50.1V206h45.4v12.2h-31.5v16.6h27.1v12.1h-27.1v16.6h31.5v12.2h-45.4" id="Shape" fill="#010101" fill-rule="nonzero"/>
      <path id="Shape" fill="url(#linearGradient-1)" fill-rule="nonzero" d="M32 35h31v154.9H32z"/>
      <path id="Shape" fill="url(#linearGradient-2)" fill-rule="nonzero" d="M74.1 35h31v154.9h-31z"/>
      <path id="Shape" fill="url(#linearGradient-3)" fill-rule="nonzero" d="M115.9 35h31v154.9h-31z"/>
      <path id="Shape" fill="url(#linearGradient-4)" fill-rule="nonzero" d="M158.2 35h31v154.9h-31z"/>
      <path id="Shape" fill="url(#linearGradient-5)" fill-rule="nonzero" d="M199.7 35h31v154.9h-31z"/>
      <path id="Shape" fill="url(#linearGradient-6)" fill-rule="nonzero" d="M241.7 35h31v154.9h-31z"/>
    </g>
  </g>
</svg>
