<svg xmlns="http://www.w3.org/2000/svg" viewBox="0 0 508 118"><g fill="none" fill-rule="evenodd"><path fill="#024A86" d="M112.107 115.69h18.204V99.764h19.496c12.911 0 17.559-7.602 17.559-17.43 0-11.404-4.777-17.861-17.688-17.861h-37.571v51.217zm18.204-39.166h11.75c4.583 0 6.325 1.578 6.325 5.451 0 3.731-1.742 5.308-6.325 5.308h-11.75V76.524zm43.058-12.051h48.997v12.482h-30.792v6.886h28.597v12.481h-28.597v6.885h30.792v12.483h-48.997V64.473m56.615 51.217h18.204V99.764h19.494c12.912 0 17.561-7.602 17.561-17.43 0-11.404-4.777-17.861-17.689-17.861h-37.57v51.217zm18.204-39.166h11.749c4.583 0 6.327 1.578 6.327 5.451 0 3.731-1.744 5.308-6.327 5.308h-11.749V76.524zm54.678 17.43c-8.908-1.505-12.589-7.245-12.589-14.416 0-13.272 11.684-16.857 26.662-16.857 20.528 0 28.985 5.954 29.63 16.784h-21.172c0-2.08-1.1-3.372-2.778-4.089-1.613-.788-3.679-1.075-5.68-1.075-5.423 0-7.295 1.505-7.295 3.658 0 1.436.581 2.367 2.388 2.654l21.756 3.586c9.169 1.507 14.846 6.241 14.846 14.92 0 12.479-9.167 18.362-29.63 18.362-14.008 0-29.307-2.154-29.372-17.214h21.948c.066 1.719.645 2.867 1.937 3.657 1.355.718 3.357 1.077 6.196 1.077 5.684 0 7.233-1.722 7.233-4.161 0-1.506-.841-3.012-3.294-3.443l-20.786-3.443m51.708 21.736h18.203V64.473h-18.203zm85.665-19.943c-1.163 6.743-3.228 12.192-7.747 15.924-4.455 3.73-11.426 5.81-22.531 5.81-11.037 0-31.503-.86-31.503-27.4 0-26.539 20.466-27.4 31.503-27.4 10.975 0 27.888 1.579 30.278 21.877h-20.531c-.515-3.658-2.709-8.965-9.747-8.965-7.424 0-12.135 4.088-12.135 14.488 0 10.401 4.582 14.489 11.232 14.489 5.744 0 9.166-2.654 10.65-8.823h20.531m4.454-5.666c0 26.54 20.464 27.4 31.504 27.4 11.038 0 31.502-.86 31.502-27.4 0-26.539-20.464-27.4-31.502-27.4-11.04 0-31.504.861-31.504 27.4zm19.364 0c0-10.4 4.715-14.488 12.14-14.488 7.422 0 12.134 4.088 12.134 14.488 0 10.401-4.712 14.489-12.134 14.489-7.425 0-12.14-4.088-12.14-14.489zM82.872 68.107c-1.895 2.313-4.28 4.647-7.074 6.859-5.137-29.54-26.861-55.371-42.213-62.91l-.329.232c15.44 12.666 33.862 37.265 41.025 63.837a60.136 60.136 0 0 1-11.764 6.735C47.943 66.249 34.356 34.217 29.978 13.893l-.446.133c.101 19.729 14.114 53.226 31.21 69.566a58.892 58.892 0 0 1-12.157 3.357c-16.387-6.486-28.048-27.264-28.048-48.544 0-13.897 4.239-22.489 5.059-24.251l-.351-.139c-.992 1.499-7.202 10.091-7.202 25.09 0 24.061 11.872 42.445 27.637 48.239-5.394.587-11.07.41-16.89-.795l-.115.368c1.684.62 7.406 3.019 16.129 3.019 19.739 0 33.081-12.256 38.453-21.568l-.385-.261zm1.726-3.125c1.178-24.571-20.025-52.238-48.93-55.659l.047-.336c28.496 0 50.343 26.364 50.343 47.164-.03 4.328-.372 7.011-.983 8.957l-.477-.126z"/><path fill="#008FC5" d="M48.805 7.242c0 7.552-14.513 16.784-26.643 16.784-5.359 0-8.258-2.108-8.258-5.588 0-7.662 14.677-16.735 26.057-16.735 7.419 0 8.844 3.77 8.844 5.539zM42.832.305c-14.964 0-32.509 10.791-32.509 20.655 0 3.816 3.494 7.044 10.723 7.044 16.781 0 32.374-11.527 32.374-20.484 0-4.716-4.533-7.215-10.588-7.215z"/><path fill="#E5713C" d="M4.364 25.528c-.419.727-2.103 4.024-2.103 7.4 0 6.265 6.331 12.08 17.977 12.08 22.408 0 48.294-16.482 48.294-31.782 0-6.868-6.506-10.603-11.024-11.376l-.084.267c1.406.447 6.55 2.835 6.55 8.957 0 12.191-22.854 28.797-45.623 28.797-8.714 0-14.208-4.3-14.208-10.564 0-1.978.414-3.284.524-3.661l-.303-.118"/><path fill="#009252" d="M77.769 14.369c.614.468 4.303 3.54 4.303 9.352 0 19.822-31.073 39.313-58.541 39.313-16.385 0-23.854-8.085-23.52-15.263h.292C.945 51.495 6.264 58.165 20.6 58.165c27.508 0 58.219-20.163 58.219-37.832 0-3.031-.824-4.92-1.291-5.757l.241-.207"/><path fill="#D8232A" d="M88.155 32.873c.129.419.799 2.318.799 5.29 0 22.048-31.45 40.921-58.797 40.921-14.076 0-21.427-6.833-22.978-9.605l.25-.189c3.894 3.409 11.565 5.989 20.519 5.989 24.155 0 60.197-18.363 59.873-42.33l.334-.076"/></g></svg>
