<svg xmlns="http://www.w3.org/2000/svg" viewBox="0 0 342 143"><g fill="none"><path fill="#7F7E82" d="M77 128.304h2.242l9.717 11.798v-11.798h1.56v14.348h-1.56l-10.47-12.826v12.826H77m21.786-14.348h1.942l6.682 14.348h-1.772l-2.595-5.78H96.55l-2.72 5.78h-1.756l6.712-14.348zm3.593 7.147l-2.62-5.78-2.63 5.8 5.25-.01zm8.51-5.62h-5.67v-1.52h12.92v1.53h-5.68v12.83h-1.58m8.82-14.35h1.58v14.35h-1.58zm11.43-.36c4.43 0 7.64 2.85 7.64 7.63 0 5.08-3.89 7.44-7.64 7.44-3.78 0-7.65-2.36-7.65-7.44 0-4.77 3.22-7.62 7.64-7.62m0 13.52c3.17 0 6.02-1.85 6.02-6.21 0-3.2-2.24-5.83-6.03-5.83s-6.03 2.63-6.03 5.84c0 4.36 2.82 6.22 6.03 6.22m9.86-13.17h2.24l9.712 11.8v-11.8h1.57v14.35h-1.57l-10.458-12.83v12.83H141m31.962-14.343h1.592v12.81h10.28v1.53h-11.872m20.95-14.35h1.593v12.81h10.3v1.53h-11.892m29.707-14.35h7.55c1.493 0 5.077 0 5.077 3.74 0 1.98-1.178 2.6-2.002 3.02.79.393 2.44 1.18 2.44 3.56 0 3.87-3.672 4.03-6.397 4.03h-6.668V128.3zm1.582 6.12h5.545c1.836 0 3.907-.34 3.907-2.347 0-2.29-2.116-2.32-4.446-2.32h-5.006v4.666zm0 6.69h6.12c1.89 0 3.747-.36 3.747-2.544 0-2-1.45-2.7-3.57-2.7h-6.3v5.24zm20.678-13.174c4.42 0 7.64 2.85 7.64 7.62 0 5.08-3.878 7.44-7.64 7.44-3.78 0-7.642-2.36-7.642-7.44.005-4.775 3.2-7.624 7.64-7.624m0 13.513c3.17 0 6.025-1.85 6.025-6.218 0-3.2-2.236-5.83-6.024-5.83-3.79 0-6.04 2.63-6.04 5.84 0 4.365 2.82 6.217 6.04 6.217m9.83-13.154h7.55c2.07 0 5.13.49 5.13 4.01 0 2.99-2.54 3.86-4.12 3.93l4.31 6.4h-1.96l-4.2-6.34h-5.12v6.34h-1.6V128.3zm1.6 6.46h5.58c2.29 0 4-.36 4-2.46s-1.72-2.47-4.01-2.47h-5.58v4.93zm31.5-4.93h-5.67v-1.53h12.92v1.53h-5.66v12.826h-1.59m15.05-14.71c4.43 0 7.63 2.85 7.63 7.63 0 5.08-3.86 7.44-7.63 7.44-3.79 0-7.65-2.36-7.65-7.445 0-4.78 3.19-7.63 7.65-7.63m0 13.514c3.17 0 6.03-1.86 6.03-6.22 0-3.204-2.25-5.834-6.03-5.834-3.8 0-6.04 2.63-6.04 5.84 0 4.363 2.82 6.215 6.04 6.215m9.85-13.15h7.53c2.08 0 5.13.49 5.13 4.015 0 2.99-2.53 3.85-4.11 3.93l4.31 6.4h-1.97l-4.19-6.34h-5.12v6.34h-1.58V128.3zm1.58 6.46h5.6c2.27 0 3.97-.364 3.97-2.465 0-2.1-1.7-2.47-3.97-2.47h-5.6v4.93zm18.46 2.096l-6.73-8.55h2.06l5.45 7 5.44-7h2.06l-6.72 8.55v5.794h-1.59m-120.31-14.34h1.93l6.69 14.35h-1.77l-2.6-5.78h-6.51l-2.7 5.78h-1.75l6.71-14.35zm3.59 7.143l-2.64-5.78-2.59 5.79H217zm59.67-7.15h1.93l6.69 14.35h-1.77l-2.61-5.78h-6.47l-2.74 5.78H270l6.706-14.35zm3.59 7.145l-2.62-5.79-2.63 5.78h5.25zm-117.51-7.15h1.93l6.69 14.343h-1.78l-2.6-5.78h-6.48l-2.74 5.78h-1.76l6.72-14.35zm3.59 7.14l-2.63-5.78-2.61 5.786h5.24zm-12.76-26.69c0 5.428 4.39 9.865 9.77 9.865 5.39 0 9.77-4.44 9.77-9.86 0-5.446-4.38-9.878-9.77-9.878s-9.77 4.43-9.77 9.87m4.92 0c0-3.22 1.99-5.445 4.85-5.445 2.85 0 4.85 2.224 4.85 5.443 0 3.2-2 5.43-4.85 5.43-2.86 0-4.85-2.23-4.85-5.43M.46 93.286v24.71h5.325v-9.233h4.297c3.72 0 10.63 0 10.63-7.71 0-7.763-6.91-7.763-10.63-7.763H.458zm10.596 4.89c2.94 0 4.347.43 4.347 2.84 0 2.42-1.406 2.856-4.345 2.856h-5.27v-5.7h5.27zM39.62 117.33c-.1-.195-.264-.784-.264-2.64v-8.77c0-2.27 0-7.002-8.63-7.002-4.346 0-7.215 1.513-8.433 4.397l4.61 1.123c.366-.604 1.294-1.342 3.85-1.342 2.59 0 3.902.623 3.902 1.84v.356c-4.432.284-13.785 1.033-13.785 7.53 0 4.542 4.332 5.76 6.888 5.76 3.104 0 5.465-1.213 6.947-2.066.045.404.115.808.17 1.118l.074.36h5l-.33-.665zm-4.965-4.892c-1.617 1.003-3.753 2.1-6.323 2.1-.88 0-1.558-.218-1.932-.647-.294-.31-.46-.74-.46-1.29v-.06c.036-.92.435-1.86 3.23-2.55 1.817-.47 3.618-.72 5.485-.82v3.28zm21.235-.743c-.578 1.307-2.165 2.52-4.766 2.52-3.673 0-4.985-2.964-4.985-5.744 0-2.51 1.85-5.18 5.29-5.18 2.34 0 3.73 1.23 4.28 2.3l4.56-1.19c-.98-2.93-3.94-5.49-9.1-5.47-6.44.04-9.81 4.75-9.81 9.39 0 6.54 3.71 10.28 10.15 10.28 4.92 0 7.74-2.81 8.92-5.7l-4.56-1.18zm7.162-14.493h4.712V92.71h-4.712v4.492zm0 20.786h4.712v-18.49h-4.712v18.49zm14.763-18.645c0-.74.17-1.133.534-1.612.68-.9 3.23-1.07 4.97-.89l1.34-4.19-.33-.06c-1.85-.27-4.1-.2-4.25-.2h-.04c-.95 0-3.8.33-5.54 2.16-.95.97-1.41 2.33-1.41 3.98v1.59h-3.11v4.37h3.11V118h4.71v-13.53h4.58l1.42-4.367h-6v-.756zm8.57.16h4.71v18.49h-4.71zm0-6.798h4.71v4.492h-4.71zm21.625 18.965c-.57 1.332-2.152 2.545-4.767 2.545-3.683 0-4.98-2.964-4.98-5.744 0-2.51 1.85-5.18 5.294-5.18 2.346 0 3.733 1.23 4.282 2.3l4.56-1.19c-.98-2.93-3.95-5.5-9.1-5.48-6.45.04-9.82 4.74-9.82 9.39 0 6.54 3.7 10.28 10.16 10.28 4.92 0 7.75-2.81 8.92-5.7l-4.56-1.21zm38.503-18.386v16.494l-12.717-16.494h-5.285v24.704h5.09V100.87l13.34 17.118h4.66V93.284m28.72 8.07v-1.852h-4.71v18.486h4.71v-8.08c.04-1.367-.1-5.81 2.78-6.174 1.71-.224 2.79.33 2.79.33v-4.677s-1.27-.344-1.86-.344c-2.14 0-3.07 1.318-3.7 2.31m10.36-6.218v4.297h-2.99v4.702h2.99v8.893c0 3.828 1.9 5.555 6.13 5.555 1.33 0 2.23-.13 4.01-.364l.57-.1v-4.537l-.54.15c-.92.28-2.44.49-3.17.49-1.57 0-2.28-.66-2.28-2.14v-7.93h4.38l1.44-4.7h-5.82v-5.72l-4.7 1.43zm13.78-3.28v26.138h4.71v-12.407c.93-1.183 2.12-2.3 4.87-2.3 1.94 0 3.14.748 3.14 4.496v10.21h4.71V106.28c0-4.806-2.39-7.362-6.94-7.362-2.85 0-4.58 1.033-5.77 2.17V90.415l-4.7 1.442zm43.86 7.987s-3.47 9.347-4.14 11.194c-.67-1.847-4.12-11.194-4.12-11.194h-4.01s-3.39 9.302-4.05 11.184c-.66-1.882-4.08-11.184-4.08-11.184h-4.97l6.93 18.15h4.23s3.3-9.55 3.95-11.453c.66 1.9 3.97 11.45 3.97 11.45h4.29l6.87-18.15h-4.84zm34.23 6.378c-2.33-.34-3.55-.534-3.55-1.482 0-.784.88-1.687 3.32-1.687 2.26 0 3.54.83 4.33 1.63l3.65-2.7c-2.69-2.76-6.31-3.08-7.88-3.08-6.53 0-8.28 3.79-8.28 6.04 0 3.53 2.39 5.36 7.99 6.11 4.15.59 4.67.73 4.67 1.62 0 1.29-1.89 1.75-3.49 1.75-2.56 0-4.42-.85-5.52-2.49l-3.72 2.78c1.4 1.78 3.51 3.89 8.87 3.89 5.57 0 8.76-2.27 8.76-6.22 0-4.89-4.84-5.54-9.12-6.13m13.2-11.08v4.3h-2.98v4.71h2.98v8.89c0 3.83 1.89 5.56 6.125 5.56 1.353 0 2.24-.13 4.038-.36l.56-.1v-4.54l-.53.15c-.923.28-2.435.49-3.184.49-1.57 0-2.29-.66-2.29-2.15v-7.93h5.1l.73-4.7h-5.84v-5.72l-4.71 1.42zM262.34 99c-6.7 0-9.686 4.906-9.686 9.777 0 5.895 4 9.868 9.96 9.868 4.86 0 7.25-2.602 8.25-4.194l-4.29-2.26c-.456 1.01-1.78 2.19-4.09 2.19-2.66-.11-4.25-1.45-4.805-3.92h14.38v-.49c0-6.89-3.53-10.89-9.72-10.95zm-4.48 7.32c.69-2 2.093-3.03 4.373-3.03 2.51 0 3.93.994 4.55 3.035h-8.92z"/><path fill="#D29431" d="M170.898 36.464c.254.055 5.105 2.32 11.858 6.223-1.732.025-2.745.065-2.865.09-1.2.055-2.12 1.093-2.02 2.26.11 1.174 1.08 2.047 2.23 1.992.21-.04 3.84-.26 9.41-.24 2.88 1.83 5.9 3.86 8.93 6.07-2.03.85-3.22 1.41-3.34 1.51-1.22.57-1.81 1.83-1.33 2.77.49.93 1.78 1.21 2.96.67.12-.12 2.01-1.03 5.15-2.36 1.05.8 2.09 1.64 3.13 2.49 2.3 1.79 4.49 3.66 6.61 5.55-2 1.51-3.16 2.48-3.26 2.63-1.26 1.06-1.59 2.76-.71 3.71.87.95 2.5.91 3.72-.11.11-.14 1.41-1.28 3.7-3.06 2.98 2.85 5.69 5.66 8.06 8.22-1.3 1.37-2.05 2.23-2.12 2.39-1.43 1.59-1.51 3.82-.22 4.88 1.3 1.05 3.38.68 4.75-.85.05-.14.64-.82 1.66-1.95 3.64 4.11 5.84 6.82 6.1 6.65.34-.21-1.41-3.45-4.71-8.16 3.79-4.1 10.94-11.39 20.18-19.66 4.878 2.11 7.878 3.7 7.928 3.57.227-.26-2.37-2.14-6.82-4.56 6.15-5.45 13.15-11.26 20.674-16.83 7.197-.19 11.923.01 11.923-.19.06-.25-3.9-.847-10.13-1.13 2.09-1.53 4.22-3.027 6.39-4.49 3.95-2.84 7.98-5.52 11.99-8.047 10.24-3.25 17.355-4.896 17.265-5.17-.02-.31-4.74.29-12.01 1.94C318.9 9.59 339.82 1.34 339.56.8c-.19-.842-28.91 8.805-56.603 25.953-8.31 2.475-17.8 5.85-27.03 10.226-1.92.86-3.85 1.76-5.75 2.68-3.84.37-7.81.89-11.77 1.64-7.15 1.1-14.16 2.84-20.41 4.67-8.94-1.88-17.88-2.71-24.86-3.06-10.35-7.32-19.17-11.83-19.59-11.94-1.126-.54-2.63.29-3.297 1.83-.66 1.55-.39 3.15.655 3.64M224.93 73a140.944 140.944 0 0 0-7.13-8.47 263.432 263.432 0 0 1 16.654-11.636c3.14.972 6.064 2.02 8.714 3.048C235.1 62.92 228.752 69.102 224.93 73m49.223-40.584a237.44 237.44 0 0 0-9.552 6.536c-1.74.004-3.55.044-5.45.114 5.02-2.5 10.1-4.715 15.01-6.65m-19.82 9.047c2.67-.285 5.28-.504 7.74-.67a311.813 311.813 0 0 0-17.38 13.845 121.508 121.508 0 0 0-7.76-3.314c5.35-3.342 11.25-6.756 17.41-9.86m-15.43 2.465c1.56-.34 3.13-.66 4.72-.94-4.06 2.16-7.95 4.4-11.54 6.59-2.43-.8-4.98-1.54-7.58-2.18 4.59-1.34 9.45-2.55 14.41-3.48m-20.35 5.29c.39.07.78.13 1.17.21 3.24.48 6.4 1.16 9.45 1.95-5.89 3.7-10.89 7.18-14.49 9.81-2.16-2.21-4.48-4.42-6.89-6.53-.4-.39-.82-.76-1.23-1.14 3.38-1.34 7.47-2.85 12.02-4.32m-7.39-1.1c-2.89.97-5.49 1.9-7.73 2.75a138.09 138.09 0 0 0-4.744-3.83c3.88.2 8.118.53 12.485 1.08"/></g></svg>
