<svg xmlns="http://www.w3.org/2000/svg" viewBox="0 0 612 164"><path fill="#1394D2" d="M56.6.4h12.3c9.6 1 19.2 2.4 28.4 5.4-.1 8.5-.1 17 0 25.6-9.4-8.8-22.1-14-34.9-14.2-8.3-.2-17.2 1-24 6-7.9 5.2-10.2 16.9-5.2 24.8 4.6 6.8 11.8 11.3 19 15 14.6 7.5 30.5 12.9 43.7 22.8 8.1 6.1 14.7 15.4 14.7 25.9.5 8.9-2.8 17.6-7.9 24.8-9.6 13.2-25.2 20.8-40.9 23.5-7.7 1.2-15.5 1.6-23.1.7-10.8-.6-21.4-3-31.7-6.5-1.4-5.8-2.7-11.5-4-17.3-.8-3.5-1.3-7.2-2.9-10.4v-1.3c3.1 3.1 7 5.4 10.7 7.9 12.5 7.3 26.9 11.9 41.6 11.5 4.9.1 9.6-1.2 14.2-2.8 5.6-2.2 11.3-5.5 14.7-10.7 4.9-6.7 4.3-16.6-.5-23.2-3.8-6-10.2-9.6-16.1-13C52.4 88.5 39.2 84 27.3 76.7c-7.5-4.5-14.5-10.3-18.7-18.1-4.5-8.8-5.4-19.4-2.3-28.8C9.1 20.3 17 12.9 25.7 8.7c9.4-5.3 20.2-7 30.9-8.3zM391 .4h12.4c11.9 1.1 23.7 3.3 35.4 5.8.1 8.8.1 17.6 0 26.3-11.7-7-24.9-12.1-38.7-12.7-9.6-.7-19.3.8-28 4.8-7.6 3.4-14 9-19.2 15.4-6.7 9.2-10.7 20.4-11.3 31.7-.9 12.2 1.1 24.7 6.4 35.8 4.8 10.4 12.5 19.7 22.3 25.9 10 6.4 22.1 9.2 33.9 8.5 16.6-.6 32.4-6.8 46.7-14.7-3.5 7.7-6.9 15.3-10.2 23.1-.7 1.6-1.2 3.7-3.1 4.5-6.2 2.9-13 4.5-19.7 5.5-11.5 1.8-23.1 1.1-34.5-.6-13.6-2.1-26.8-6.9-38.1-14.8-6.9-5-13-11.1-17.6-18.3-6.4-9.6-10.2-21-11.7-32.4-2.9-21.4.9-44.4 13.8-62.1 7.3-10.2 17.5-18.2 28.8-23.5C369 3.8 380 1.5 391 .4zM101.6 4.2c11.3-.1 22.6.1 33.9-.1-.7 5.4.9 10.6 2.4 15.7 11.1 34.2 22 68.5 33 102.7.9 2.1.7 4.9 2.8 6.3C182.5 99 192 69.4 201 39.7c1.5-4.9 3.1-9.8 3.9-14.9.5-5.3.9-11.2-2.6-15.7-1.2-2.3-3.9-3.1-5.4-5 10.8.1 21.6 0 32.5 0-1.4 10.4 2.8 20.2 5.6 29.9 10 31 20 62 29.9 93 .3.3.9.8 1.2 1.1 2.2-8.9 5.4-17.5 7.9-26.3 5.4-17.6 10.9-35.3 16.4-52.9 2.4-8.9 6.2-17.6 6.9-26.8.4-5.1-1.2-10.6-5.2-13.8-1.7-1.7-4-2.4-6-3.5-.1-.2-.2-.5-.3-.7 11.7.5 23.6-.3 35.3.4-5 16.9-10.4 33.7-15.4 50.5-11.1 36-22.1 72-33.2 107.9-.3 1.6-1.8.2-2.6-.3-5.3-4-11.1-7.3-16.1-11.6-5.4-5-7.9-12.1-10.3-18.8-9-28.2-18-56.3-27-84.5-.3 0-.8.1-1.1.1-10 32.4-19.9 64.7-30 97.1-1.8 6.4-4.1 12.6-5.8 19.1-4.1-2.4-7.9-5.6-11.9-8.2-3.7-2.6-7.3-5.4-10.2-9-4.8-6.6-6.9-14.7-9.5-22.3-8.4-26.4-16.9-52.8-25.3-79.2-3.7-10.7-6-21.8-12.1-31.5-2-2.8-3.9-5.6-6.7-7.6-.9-.5-1.7-1.2-2.3-2zm497.3 140.9c-5-7.9-7.9-16.7-11.5-25.2-13.4-33.3-27-66.6-40.5-99.9-2.2-5.3-4.1-10.7-6.6-15.8-12.2.2-24.4-.1-36.6.2 2.8 1.5 6.2 3 7.2 6.4.5 4-.2 8.1-1.8 11.7C495.5 56.8 481.7 91 468 125.2c-3.4 9.3-6.9 18.9-14 26.1-2.5 2.4-5.3 4.5-8.5 5.8 14.4.4 28.8.2 43.2.1-3.2-1.4-6.6-3.1-8.1-6.6-1.1-3.3-.3-6.8.5-10 1.9-6.3 4.5-12.3 6.6-18.5 3-7.3 5.3-14.9 8.3-22.1h52.7c2 .1 4.1-.2 6.1.1 5.4 13.4 10.2 27 15.6 40.4 1.1 3.2 2.5 6.5 1.9 9.9-1.3 3.7-5.2 5.2-8.3 6.9 15.9.1 31.8.1 47.8-.1v-.1c-5.1-2.9-9.5-7.1-12.9-12zM502 82.6c7.7-19.1 15.2-38.4 22.7-57.7.3 0 .7-.1 1-.1 7.7 19.2 15.1 38.5 22.6 57.8H502zm64.6-71.4c0 4.2-3.3 7.5-7.6 7.5s-7.7-3.3-7.7-7.5c0-4.1 3.4-7.4 7.7-7.4 4.3 0 7.6 3.3 7.6 7.4zm-13.3 0c0 3.3 2.4 5.9 5.8 5.9 3.3 0 5.6-2.6 5.6-5.9 0-3.3-2.4-6-5.7-6-3.2.1-5.7 2.8-5.7 6zm4.6 3.9h-1.7V7.7c.7-.1 1.6-.2 2.8-.2 1.4 0 2 .2 2.6.5.4.3.7.9.7 1.6 0 .8-.6 1.4-1.6 1.7v.1c.7.3 1.2.8 1.4 1.8.2 1.2.3 1.6.5 1.8h-1.8c-.2-.3-.3-.9-.6-1.8-.1-.8-.6-1.2-1.6-1.2h-.8v3.1h.1zm0-4.2h.8c.9 0 1.7-.3 1.7-1.1 0-.7-.5-1.2-1.6-1.2-.5 0-.7.1-.9.1v2.2z"/></svg>
