<svg xmlns="http://www.w3.org/2000/svg" viewBox="0 0 187.1 40.7"><path d="M13 4.8c0-1.2-.6-2.2-3.4-2.2s-3.4.9-3.4 2.2v3.4c0 1 .4 2.1 1.3 2.9l9.4 8c1.3 1.1 2.1 2.5 2.1 3.9v5.1c0 3-3.6 4.7-9.5 4.7-6.5 0-9.6-1.5-9.6-4.7v-4.4h5.9v4.2c0 1.5 1.2 2.4 3.7 2.4 2.4 0 3.6-.9 3.6-2.4v-4.5c0-1.1-.4-2-1.7-3.1l-8.7-7.5C1.1 11.4.2 10.3.2 8.7V4.8C.2 1.6 3.5.1 9.5.1c6.6 0 9.3 1.6 9.3 4.5v4.1h-5.9l.1-3.9zm56.8.6c0-3.2 2.4-5.4 10.4-5.4 7.9 0 10.4 2.3 10.3 5.4v21.9c0 3.2-2.4 5.4-10.4 5.4-7.9 0-10.4-2.3-10.4-5.4l.1-21.9zm5.9 21.8c0 1.8.7 3 4.5 3 3.7 0 4.5-1.2 4.5-3V5.5c0-1.8-.7-3-4.5-3-3.7 0-4.5 1.2-4.5 3v21.7zM93.8.3h9.4c7.6 0 9.8 1.2 9.8 4.9v7.9c0 3.7-2.2 4.9-9.8 4.9h-3.5v14.5h-5.9V.3zm8.7 15.2c2.7 0 4.6-.4 4.6-2V4.8c0-1.7-1.9-2-4.6-2h-2.9v12.7h2.9zm25.2-10.8c0-1.2-.6-2.2-3.4-2.2s-3.4.9-3.4 2.2v3.4c0 1 .4 2.1 1.3 2.9l9.4 8c1.3 1.1 2.1 2.5 2.1 3.9V28c0 3-3.6 4.7-9.5 4.7-6.5 0-9.6-1.5-9.6-4.7v-4.4h5.9v4.2c0 1.5 1.2 2.4 3.7 2.4 2.4 0 3.6-.9 3.6-2.4v-4.5c0-1.1-.4-2-1.7-3.1l-8.7-7.5c-1.6-1.4-2.5-2.5-2.5-4.1V4.7c0-3.2 3.3-4.7 9.3-4.7 6.6 0 9.3 1.6 9.3 4.5v4.1h-5.9V4.7h.1zm43.4 0c0-1.2-.6-2.2-3.4-2.2s-3.4.9-3.4 2.2v3.4c0 1 .4 2.1 1.3 2.9l9.4 8c1.3 1.1 2.1 2.5 2.1 3.9V28c0 3-3.6 4.7-9.5 4.7-6.5 0-9.6-1.5-9.6-4.7v-4.4h5.9v4.2c0 1.5 1.2 2.4 3.7 2.4 2.4 0 3.6-.9 3.6-2.4v-4.5c0-1.1-.4-2-1.7-3.1l-8.7-7.5c-1.6-1.4-2.5-2.5-2.5-4.1V4.7c0-3.2 3.3-4.7 9.3-4.7 6.6 0 9.3 1.6 9.3 4.5v4.1H171V4.7h.1zM37.3.3h5.9L30.3 40.7h-5.9L37.3.3M28 25.4L20 .3h5.9L31 16.1l-3 9.3M151.9.3h5.9l-12.9 40.4H139L151.9.3m-9.3 25l-8-25h5.9l5.1 15.8-3 9.2m-76.4 7.2V5.2c0-3.7-2.2-4.9-9.8-4.9H45v32.2h5.9V2.8h4.8c2.7 0 4.6.4 4.6 2v27.7h5.9zM179.5 4.2c0-2.2 1.7-3.7 3.8-3.7 2 0 3.8 1.6 3.8 3.7 0 2.2-1.7 3.8-3.8 3.8-2.1 0-3.8-1.6-3.8-3.8zm3.8 3.2c1.7 0 3-1.3 3-3.1s-1.3-3.1-3-3.1-3.1 1.3-3.1 3.1 1.4 3.1 3.1 3.1zm-.8-1h-.7V2.1h1.6c1 0 1.5.4 1.5 1.2 0 .8-.5 1.1-1.1 1.2l1.2 1.9h-.7l-1.1-1.9h-.8v1.9h.1zm.8-2.4c.6 0 1.1 0 1.1-.7 0-.5-.5-.6-.9-.6h-.9V4h.7z" fill="#5B2E80" fill-rule="evenodd" clip-rule="evenodd"/></svg>
