<svg xmlns="http://www.w3.org/2000/svg" viewBox="0 0 489 73"><g fill="none" fill-rule="evenodd"><path fill="#E6772B" d="M28.974 40.082c.574-.126.939-.701.84-1.284-.128-.597-.707-1.005-1.29-.854a1.042 1.042 0 0 0-.855 1.245c.122.615.698 1.034 1.305.893zm22.197-4.633c.574-.132.936-.702.84-1.285-.132-.607-.715-1.014-1.292-.861-.613.097-.968.688-.855 1.255.116.602.7 1.018 1.307.891zm-19.533 9.544a1.56 1.56 0 0 0 .275-2.152c-.55-.635-1.496-.752-2.154-.254-.638.488-.758 1.453-.232 2.114.496.655 1.458.818 2.111.292zm18.144-14.245c.682-.556.76-1.496.272-2.151-.545-.631-1.495-.748-2.145-.249a1.498 1.498 0 0 0-.232 2.113c.496.656 1.456.818 2.105.287zM37.599 48.43c.428-1.032-.139-2.252-1.174-2.622-1.092-.425-2.231.11-2.677 1.215-.406 1.039.149 2.21 1.221 2.623 1.077.356 2.231-.158 2.63-1.216zm8.245-22.012c.408-1.02-.14-2.246-1.184-2.614-1.088-.419-2.222.119-2.678 1.214-.41 1.043.157 2.213 1.216 2.625 1.081.349 2.238-.15 2.646-1.225zm3.682 12.846c-.184.841.233 1.628 1.046 1.844.807.222 1.638-.29 1.85-1.061a1.475 1.475 0 0 0-1.073-1.803 1.471 1.471 0 0 0-1.823 1.02zm-3.033 4.168a2.291 2.291 0 0 0 .016 3.178c.888.847 2.282.833 3.084-.008.915-.86.933-2.304.056-3.141a2.24 2.24 0 0 0-3.156-.029zm-4.657 2.442c-1.201.3-2.034 1.539-1.737 2.75.262 1.264 1.533 2.059 2.77 1.785 1.263-.259 2.027-1.532 1.775-2.773-.302-1.268-1.533-2.011-2.808-1.762zM27.189 33.299c-.228.827.241 1.615 1.071 1.866.764.201 1.59-.277 1.798-1.064.231-.802-.279-1.606-1.052-1.823a1.484 1.484 0 0 0-1.817 1.021zm2.771-6.521c-.834.886-.876 2.275-.012 3.13.867.877 2.259.884 3.169 0 .845-.855.845-2.244-.029-3.13a2.227 2.227 0 0 0-3.128 0zm6.786-3.792a2.328 2.328 0 0 0-1.819 2.735c.321 1.249 1.534 2.049 2.808 1.755a2.313 2.313 0 0 0 1.751-2.753c-.287-1.232-1.532-2.035-2.74-1.737zm14.826 27.86c.669.647 1.66.669 2.295-.007.64-.592.676-1.589.009-2.225-.612-.662-1.669-.653-2.276-.041-.627.635-.635 1.674-.028 2.273zM25.548 24.665c.647.638 1.678.667 2.305-.008.609-.622.632-1.649-.007-2.273a1.642 1.642 0 0 0-2.287-.004 1.656 1.656 0 0 0-.011 2.285zm30.594 20.554c.835.36 1.778-.05 2.129-.864a1.628 1.628 0 0 0-.866-2.113 1.546 1.546 0 0 0-2.087.864c-.379.839.049 1.797.824 2.113zm2.296-6.332c1.081 0 1.954-.847 1.958-1.917A1.922 1.922 0 0 0 58.504 35c-1.049-.013-1.961.813-1.986 1.897a2.023 2.023 0 0 0 1.92 1.99zm-.031-6.856c1.29-.485 1.906-1.937 1.377-3.235-.484-1.254-1.906-1.925-3.163-1.422-1.32.517-1.965 1.946-1.46 3.228a2.502 2.502 0 0 0 3.246 1.429zm-36.383-1.034c.848.318 1.783-.066 2.132-.889a1.654 1.654 0 0 0-.862-2.125c-.827-.349-1.802.065-2.12.887-.34.813.045 1.762.85 2.127zm-1.083 7.238c1.042.006 1.93-.851 1.954-1.922.018-1.047-.868-1.931-1.879-1.949-1.088-.022-1.971.809-1.994 1.882a1.954 1.954 0 0 0 1.919 1.989zm1.905 7.616a2.482 2.482 0 0 0 1.414-3.256 2.43 2.43 0 0 0-3.213-1.389 2.48 2.48 0 0 0-1.422 3.21c.51 1.278 1.925 1.937 3.221 1.435zm23.235 6.251c-.875.358-1.336 1.355-.946 2.269.367.895 1.404 1.337 2.285.983.892-.382 1.34-1.382.935-2.306-.342-.904-1.385-1.331-2.274-.946zm-6.423.91c-1.283-.021-2.336 1.051-2.364 2.347a2.413 2.413 0 0 0 2.346 2.383c1.301-.029 2.358-1.047 2.387-2.353.02-1.284-1.044-2.344-2.369-2.377zM33.6 51.798c-1.374-.578-2.931.124-3.503 1.504-.529 1.366.151 2.943 1.514 3.468 1.34.544 2.914-.069 3.461-1.45a2.71 2.71 0 0 0-1.472-3.522zm-5.319-3.836c-1.137-1.175-3.031-1.173-4.177-.027-1.192 1.183-1.205 3.049-.051 4.214 1.186 1.161 3.061 1.17 4.228.031a2.973 2.973 0 0 0 0-4.218zm3.749-30.066a1.749 1.749 0 0 0-.968 2.268c.401.913 1.415 1.337 2.313.991a1.772 1.772 0 0 0 .931-2.311c-.357-.915-1.392-1.319-2.276-.948zm7.773-2.404a2.38 2.38 0 0 0-2.377 2.377 2.384 2.384 0 0 0 2.368 2.317c1.27.024 2.358-1.046 2.333-2.342.025-1.248-1.039-2.335-2.324-2.352zm8.065.971c-1.354-.554-2.92.123-3.492 1.459-.543 1.349.131 2.972 1.473 3.507 1.403.551 2.948-.118 3.491-1.493.565-1.371-.106-2.909-1.472-3.473zm7.488 4.629c-1.184-1.168-3.063-1.191-4.228.015-1.153 1.108-1.153 2.998 0 4.153a2.972 2.972 0 0 0 4.212.029c1.178-1.184 1.205-3.035.016-4.197zm.316 36.387a1.422 1.422 0 0 0 2.005.166c.599-.496.674-1.4.156-1.988a1.435 1.435 0 0 0-1.98-.157c-.597.509-.669 1.402-.181 1.979zm4.306-3.871c.724.534 1.753.39 2.284-.347a1.634 1.634 0 0 0-.326-2.281c-.748-.538-1.774-.394-2.295.337a1.643 1.643 0 0 0 .337 2.291zm3.746-5.291a1.899 1.899 0 0 0 2.507-1.078 1.917 1.917 0 0 0-1.071-2.513 1.922 1.922 0 0 0-2.51 1.079 1.952 1.952 0 0 0 1.074 2.512zm2.538-6.89c1.112.134 2.131-.694 2.249-1.802a2.04 2.04 0 0 0-1.811-2.253c-1.137-.109-2.143.703-2.26 1.81-.121 1.113.7 2.144 1.822 2.245zm.513-7.152a2.476 2.476 0 0 0 2.008-2.909c-.222-1.352-1.538-2.264-2.908-2.015-1.358.262-2.268 1.546-2.015 2.915.265 1.357 1.548 2.273 2.915 2.009zM21.677 17.532c.535.585 1.411.667 1.994.169.6-.527.669-1.412.177-1.997-.506-.577-1.415-.657-1.996-.154a1.424 1.424 0 0 0-.175 1.982zm-4.073 4.69a1.616 1.616 0 0 0 2.281-.358 1.59 1.59 0 0 0-.328-2.257 1.616 1.616 0 0 0-2.282.328 1.637 1.637 0 0 0 .329 2.287zm-3.249 6.247a1.954 1.954 0 0 0 2.529-1.087 1.931 1.931 0 0 0-1.081-2.507 1.947 1.947 0 0 0-2.53 1.079 1.962 1.962 0 0 0 1.082 2.515zm-1.52 7.355c1.118.138 2.129-.704 2.275-1.819a2.085 2.085 0 0 0-1.862-2.242c-1.105-.12-2.114.699-2.235 1.811a2.034 2.034 0 0 0 1.822 2.25zm.809 8.022a2.476 2.476 0 0 0 2.021-2.9c-.246-1.365-1.537-2.294-2.913-2.021a2.502 2.502 0 0 0-2.019 2.909c.249 1.343 1.541 2.273 2.911 2.012zm38.104 14.76c-.583.312-.789 1.064-.474 1.644.317.585 1.05.795 1.641.483.579-.313.814-1.049.486-1.633a1.215 1.215 0 0 0-1.653-.494zm-4.828 1.768a1.421 1.421 0 0 0-.946 1.743 1.43 1.43 0 0 0 1.762.963c.733-.234 1.174-1.02.941-1.774-.224-.728-1.01-1.143-1.757-.932zm-5.583.906c-.907.044-1.58.833-1.52 1.729.074.906.837 1.586 1.739 1.521a1.622 1.622 0 0 0 1.515-1.737c-.033-.896-.835-1.567-1.734-1.513zm-6.221-.632a2.123 2.123 0 0 0-2.486 1.66 2.127 2.127 0 0 0 1.666 2.502 2.118 2.118 0 0 0 2.497-1.688 2.116 2.116 0 0 0-1.677-2.474zm-6.364-2.325a2.53 2.53 0 0 0-3.364 1.125 2.55 2.55 0 0 0 1.097 3.368 2.546 2.546 0 0 0 3.385-1.138c.617-1.213.112-2.726-1.118-3.355zm-5.387-4.17c-1.196-1.104-3.055-1.042-4.15.135a2.94 2.94 0 0 0 .132 4.155c1.187 1.112 3.056 1.057 4.159-.121 1.11-1.213 1.057-3.065-.141-4.169zm-4.419-6.234a3.192 3.192 0 0 0-4.323-1.267 3.174 3.174 0 0 0-1.25 4.313 3.19 3.19 0 0 0 4.307 1.289 3.207 3.207 0 0 0 1.266-4.335zm7.669-35.46a1.205 1.205 0 0 0-.491 1.643c.319.577 1.054.816 1.648.484.58-.322.804-1.066.492-1.649a1.217 1.217 0 0 0-1.649-.478zm5.18-2.328c-.738.213-1.146 1.001-.933 1.75.234.743 1.008 1.17 1.744.945a1.402 1.402 0 0 0 .937-1.76c-.211-.743-.988-1.161-1.748-.935zm6.163-1.47a1.644 1.644 0 0 0-1.518 1.727 1.654 1.654 0 0 0 1.742 1.533c.906-.053 1.58-.846 1.525-1.749a1.64 1.64 0 0 0-1.749-1.511zm7.272-.254a2.106 2.106 0 0 0-2.495 1.672 2.116 2.116 0 0 0 1.675 2.475 2.127 2.127 0 0 0 2.494-1.666 2.126 2.126 0 0 0-1.674-2.481zm7.571 1.837c-1.221-.614-2.725-.116-3.348 1.161a2.507 2.507 0 0 0 1.137 3.341c1.243.601 2.754.117 3.355-1.149a2.502 2.502 0 0 0-1.144-3.353zm7.402 4.492c-1.196-1.119-3.057-1.061-4.159.128-1.092 1.195-1.05 3.059.146 4.171 1.181 1.096 3.056 1.042 4.161-.141 1.102-1.192 1.049-3.061-.148-4.158zm5.96 7.492a3.209 3.209 0 0 0-4.323-1.283c-1.542.852-2.114 2.784-1.276 4.316a3.207 3.207 0 0 0 4.323 1.302 3.206 3.206 0 0 0 1.276-4.335zM44.997 70.594a1.832 1.832 0 0 0 2.185 1.433 1.842 1.842 0 0 0 1.427-2.181c-.201-.992-1.194-1.626-2.183-1.426a1.85 1.85 0 0 0-1.429 2.174zm7.363-1.778a2.148 2.148 0 0 0 2.847 1.058 2.16 2.16 0 0 0 1.042-2.862 2.135 2.135 0 0 0-2.849-1.035 2.16 2.16 0 0 0-1.04 2.839zm7.541-3.658a2.61 2.61 0 0 0 3.717.349 2.626 2.626 0 0 0 .344-3.718 2.608 2.608 0 0 0-3.701-.338 2.64 2.64 0 0 0-.36 3.707zm7.101-6.085c1.374.964 3.301.609 4.254-.769a3.066 3.066 0 0 0-.775-4.257c-1.416-.965-3.304-.626-4.266.776-.941 1.379-.611 3.31.787 4.25zm5.186-7.907c1.872.631 3.919-.412 4.551-2.303.622-1.866-.399-3.913-2.298-4.55a3.598 3.598 0 0 0-4.54 2.292 3.607 3.607 0 0 0 2.287 4.561zM30.919 3.333a1.84 1.84 0 0 0 2.188 1.437 1.838 1.838 0 0 0 1.428-2.181 1.851 1.851 0 0 0-2.18-1.423 1.828 1.828 0 0 0-1.436 2.167zm-7.642 2.854a2.133 2.133 0 0 0 2.85 1.026c1.078-.482 1.535-1.757 1.043-2.828a2.171 2.171 0 0 0-2.843-1.05 2.165 2.165 0 0 0-1.05 2.852zm-7.722 5.206a2.623 2.623 0 0 0 3.723.343 2.621 2.621 0 0 0 .356-3.7 2.622 2.622 0 0 0-3.72-.354 2.625 2.625 0 0 0-.359 3.711zm-6.504 7.762c1.39.969 3.292.607 4.275-.783a3.08 3.08 0 0 0-.799-4.257 3.058 3.058 0 0 0-4.251.773 3.069 3.069 0 0 0 .775 4.267zm-3.961 9.73c1.881.63 3.918-.405 4.546-2.287a3.601 3.601 0 0 0-2.296-4.549 3.599 3.599 0 0 0-4.548 2.287c-.612 1.871.396 3.924 2.298 4.549zM39.773 69.42a1.59 1.59 0 0 0-1.585 1.587c0 .878.705 1.577 1.585 1.589a1.596 1.596 0 0 0 1.584-1.589c0-.865-.712-1.587-1.584-1.587zm-6.66-1c-.996-.2-1.986.443-2.185 1.433a1.842 1.842 0 0 0 1.427 2.18 1.835 1.835 0 0 0 2.18-1.429 1.853 1.853 0 0 0-1.422-2.184zm-6.996-2.444a2.114 2.114 0 0 0-2.833 1.028 2.148 2.148 0 0 0 1.043 2.848 2.136 2.136 0 1 0 1.79-3.876zm-6.841-4.525a2.644 2.644 0 0 0-3.721.348 2.62 2.62 0 0 0 .35 3.709 2.62 2.62 0 0 0 3.725-.35 2.634 2.634 0 0 0-.354-3.707zm-5.961-6.628a3.062 3.062 0 0 0-4.256-.767c-1.388.946-1.74 2.857-.798 4.257a3.098 3.098 0 0 0 4.275.764 3.054 3.054 0 0 0 .779-4.254zm-3.673-8.226c-.639-1.886-2.673-2.91-4.544-2.289a3.609 3.609 0 0 0-2.306 4.55 3.601 3.601 0 0 0 4.553 2.297 3.617 3.617 0 0 0 2.297-4.558zm-.92-10.006a4.162 4.162 0 0 0-4.163-4.16 4.165 4.165 0 0 0-4.155 4.16c0 2.31 1.863 4.182 4.155 4.182a4.167 4.167 0 0 0 4.163-4.182zM39.754.595a1.574 1.574 0 0 0-1.578 1.581c0 .875.703 1.589 1.578 1.589.879 0 1.584-.714 1.584-1.589 0-.873-.705-1.586-1.584-1.581zm7.43.577a1.831 1.831 0 0 0-2.18 1.426 1.838 1.838 0 0 0 1.422 2.172 1.828 1.828 0 0 0 2.187-1.431 1.829 1.829 0 0 0-1.429-2.167zm8.017 2.163a2.17 2.17 0 0 0-2.841 1.041c-.483 1.061-.024 2.345 1.04 2.837a2.126 2.126 0 0 0 2.849-1.033 2.138 2.138 0 0 0-1.048-2.845zm8.41 4.351a2.624 2.624 0 0 0-3.714.356 2.63 2.63 0 0 0 .356 3.71c1.126.935 2.797.773 3.708-.351a2.624 2.624 0 0 0-.35-3.715zm7.637 7.202a3.056 3.056 0 0 0-4.257-.766 3.065 3.065 0 0 0-.782 4.246 3.045 3.045 0 0 0 4.266.787 3.067 3.067 0 0 0 .773-4.267zm5.491 9.447c-.638-1.9-2.679-2.921-4.551-2.295a3.607 3.607 0 0 0-2.292 4.551c.636 1.877 2.669 2.905 4.545 2.287 1.893-.627 2.914-2.678 2.298-4.543zm2.39 12.256a4.17 4.17 0 0 0-4.17-4.16 4.168 4.168 0 0 0-4.163 4.16c0 2.31 1.865 4.182 4.163 4.182a4.175 4.175 0 0 0 4.17-4.182z"/><path fill="#5F605C" d="M484.73 27.652c0 .641-.403.787-1.157.787-.122 0-.83-.015-.949-.023v-1.583c.133-.015.797-.029.949-.029.733 0 1.157.234 1.157.782v.066zm1.169 3.385l-1.148-1.956c.6-.233.987-.656.987-1.429v-.066c0-1.25-1.039-1.651-2.165-1.651-.531 0-1.349.036-1.729.095-.147.02-.234.072-.234.218v4.789c0 .079.067.145.147.145h.73c.079 0 .137-.066.137-.145v-1.802c.17.009.761.03.949.03h.163l1.054 1.772c.035.071.064.145.145.145h.892c.057 0 .087-.037.087-.087 0-.016 0-.037-.015-.058zm-6.926-2.339c0-2.528 1.78-4.546 4.523-4.546 2.767 0 4.546 2.018 4.546 4.546 0 2.528-1.779 4.574-4.546 4.574-2.743 0-4.523-2.046-4.523-4.574zm-.772 0c0 2.841 2.097 5.248 5.295 5.248s5.318-2.407 5.318-5.248c0-2.865-2.12-5.22-5.318-5.22-3.198 0-5.295 2.355-5.295 5.22zm-66.828 9.535h11.581a.717.717 0 0 0 .717-.719v-2.613a.718.718 0 0 0-.717-.721h-11.581v-3.318c0-3.027.113-3.11 2.855-3.11h9.166a.732.732 0 0 0 .718-.726v-2.312c0-.508-.182-.692-.718-.761-1.165-.178-3.518-.504-7.822-.504-6.016 0-9.196-.042-9.196 7.413v11.449c0 7.456 3.18 7.415 9.196 7.415 4.304 0 6.657-.323 7.822-.507.536-.069.718-.251.718-.761v-2.311a.727.727 0 0 0-.718-.722h-9.166c-2.742 0-2.855-.082-2.855-3.114v-4.078zm63.029 3.947c0-3.471-1.977-5.266-5.024-6.5-2.406-.967-4.513-1.788-6.12-2.421-1.607-.638-2.965-1.732-2.965-2.924 0-1.626 2.005-2.568 4.687-2.568 3.146 0 5.623.44 8.013.658h.07c.368 0 .614-.294.614-.651v-2.68c0-.359-.285-.614-.649-.684-1.23-.294-4.387-.951-7.836-.951-6.729 0-9.933 2.894-9.933 6.876 0 2.531 1.115 5.025 4.262 6.327 3.163 1.303 9.641 2.805 9.641 5.518 0 2.099-.985 3.252-4.203 3.252-3.345 0-6.731-.474-8.18-.655h-.072a.693.693 0 0 0-.688.689v2.607c0 .398.33.648.688.719 1.736.401 4.98.952 8.178.952 7.238 0 9.517-3.912 9.517-7.564zm-28.756-10.556c0-2.713-2.106-3.872-5.729-3.872-.757 0-4.049.074-4.701.146v7.845c.586.037 4.096.11 4.701.11 3.733 0 5.729-.718 5.729-3.9v-.329zm5.864 17.383c0 .249-.149.432-.433.432h-4.419c-.399 0-.541-.367-.72-.724l-5.216-8.774h-.805c-.938 0-3.865-.104-4.701-.147v8.921c0 .396-.286.724-.682.724h-3.616a.73.73 0 0 1-.725-.724V24.999c0-.723.431-.977 1.157-1.084 1.879-.288 5.929-.466 8.567-.466 5.577 0 10.719 1.991 10.719 8.175v.329c0 3.83-1.92 5.927-4.885 7.08l5.687 9.682a.485.485 0 0 1 .072.292zm-48.856-21.724v-2.86c0-.401-.325-.687-.718-.687h-19.48c-.392 0-.719.286-.719.687v2.86c0 .397.327.647.719.647h7.224v20.785c0 .396.327.724.724.724h3.583a.734.734 0 0 0 .731-.724V27.93h7.218c.393 0 .718-.25.718-.647zm-24.51 12.2v-15.06c0-.401-.326-.687-.728-.687h-3.582c-.397 0-.721.286-.721.687v15.06c0 4.127-1.905 6.083-5.814 6.083-3.902 0-5.811-1.956-5.811-6.083v-15.06c0-.401-.323-.687-.724-.687h-3.576c-.397 0-.726.286-.726.687v15.06c0 7.711 5.015 10.243 10.837 10.243 5.828 0 10.845-2.532 10.845-10.243zm-39.832-1.25h11.582a.725.725 0 0 0 .724-.719v-2.613a.727.727 0 0 0-.724-.721h-11.582v-3.318c0-3.027.116-3.11 2.853-3.11h9.161a.732.732 0 0 0 .726-.726v-2.312c0-.508-.183-.692-.726-.761-1.158-.178-3.515-.504-7.818-.504-6.007 0-9.194-.042-9.194 7.413v11.449c0 7.456 3.187 7.415 9.194 7.415 4.303 0 6.66-.323 7.818-.507.543-.069.726-.251.726-.761v-2.311a.727.727 0 0 0-.726-.722h-9.161c-2.737 0-2.853-.082-2.853-3.114v-4.078zm-15.51-6.609c0-2.713-2.106-3.872-5.725-3.872-.763 0-4.055.074-4.701.146v7.845c.574.037 4.08.11 4.701.11 3.724 0 5.725-.718 5.725-3.9v-.329zm5.862 17.383c0 .249-.144.432-.433.432h-4.418c-.396 0-.543-.367-.722-.724l-5.212-8.774h-.802c-.944 0-3.868-.104-4.701-.147v8.921c0 .396-.292.724-.689.724h-3.621a.728.728 0 0 1-.72-.724V24.999c0-.723.428-.977 1.158-1.084 1.883-.288 5.928-.466 8.573-.466 5.571 0 10.717 1.991 10.717 8.175v.329c0 3.83-1.916 5.927-4.881 7.08l5.677 9.682a.474.474 0 0 1 .074.292zm-70.738-14.271c0-4.775-2.887-6.91-6.434-6.91s-6.433 2.135-6.433 6.91v3.702c0 4.776 2.886 6.908 6.433 6.908 3.547 0 6.434-2.132 6.434-6.908v-3.702zm5.061 0v3.702c0 7.961-5.526 11.288-11.495 11.288-5.969 0-11.495-3.327-11.495-11.288v-3.702c0-7.959 5.526-11.287 11.495-11.287 5.969 0 11.495 3.328 11.495 11.287zm-27.55 7.444c0-3.471-1.973-5.266-5.031-6.5-2.404-.967-4.516-1.788-6.124-2.421-1.6-.635-2.963-1.732-2.963-2.924 0-1.626 2.015-2.568 4.686-2.568 3.151 0 5.629.44 8.019.658h.073c.36 0 .611-.294.611-.651v-2.68c0-.359-.284-.614-.648-.684-1.227-.294-4.384-.951-7.835-.951-6.728 0-9.936 2.894-9.936 6.876 0 2.531 1.115 5.025 4.269 6.327 3.16 1.303 9.63 2.805 9.63 5.518 0 2.099-.977 3.252-4.201 3.252-3.344 0-6.731-.474-8.179-.655h-.073a.689.689 0 0 0-.685.689v2.607c0 .398.325.648.685.719 1.741.401 4.986.952 8.18.952 7.243 0 9.522-3.912 9.522-7.564zm55.269 5.811V24.423a.665.665 0 0 0-.689-.687h-3.114a.663.663 0 0 0-.69.687v17.85c0 .214-.104.328-.176.328-.114 0-.22-.114-.288-.29l-10.208-17.413c-.439-.945-.835-1.162-1.594-1.162h-3.911c-.796 0-1.44.648-1.44 1.445v23.534c0 .396.317.724.723.724h3.069c.397 0 .689-.328.689-.724V31.697c0-.215.079-.293.183-.293.107 0 .219.078.323.293l9.818 16.442c.567 1.3 1.33 1.3 2.199 1.3h3.66c.794 0 1.446-.65 1.446-1.448zm-80.311.905V25.181a1.45 1.45 0 0 0-1.449-1.445h-2.968c-.577 0-1.085.358-1.338.868l-6.94 14.135c-.186.325-.259.506-.399.506-.152 0-.226-.181-.405-.506l-6.942-14.135c-.255-.51-.763-.868-1.337-.868h-2.969a1.45 1.45 0 0 0-1.45 1.445v23.715c0 .36.292.543.621.543h3.652c.325 0 .58-.367.58-.724V33.07c0-.253.037-.36.109-.36.031 0 .106.107.183.215l5.881 12.938c.209.393.681.616 1.152.616h1.883c.47 0 .938-.223 1.15-.616l5.842-12.938c.078-.108.15-.215.178-.215.079 0 .116.107.116.36v15.645c0 .357.253.724.574.724h3.656c.328 0 .62-.183.62-.543zm-36.867-14.16c0-4.775-2.884-6.91-6.431-6.91-3.545 0-6.434 2.135-6.434 6.91v3.702c0 4.776 2.889 6.908 6.434 6.908 3.547 0 6.431-2.132 6.431-6.908v-3.702zm5.072 0v3.702c0 7.961-5.531 11.288-11.503 11.288-5.969 0-11.495-3.327-11.495-11.288v-3.702c0-7.959 5.526-11.287 11.495-11.287 5.972 0 11.503 3.328 11.503 11.287zm-28.712 13.979V24.423c0-.401-.33-.687-.724-.687h-3.576c-.406 0-.732.286-.732.687v9.397h-11.461v-9.397c0-.401-.328-.687-.719-.687h-3.582c-.403 0-.726.286-.726.687v24.292c0 .396.323.724.726.724h3.582a.728.728 0 0 0 .719-.724V38.233h11.461v10.482a.73.73 0 0 0 .732.724h3.576a.73.73 0 0 0 .724-.724zM123.057 27.93h-7.217v20.785a.73.73 0 0 1-.729.724h-3.578a.725.725 0 0 1-.721-.724V27.93h-7.227c-.396 0-.725-.25-.725-.647v-2.86c0-.401.329-.687.725-.687h19.472c.397 0 .725.286.725.687v2.86c0 .397-.328.647-.725.647z"/></g></svg>
