<svg xmlns="http://www.w3.org/2000/svg" xmlns:xlink="http://www.w3.org/1999/xlink" width="1280" height="800" viewBox="0 0 1280 800">
  <defs>
    <filter id="Path_242" x="290.79" y="50.28" width="700.02" height="163.98" filterUnits="userSpaceOnUse">
      <feOffset dy="5" input="SourceAlpha"/>
      <feGaussianBlur stdDeviation="3.5" result="blur"/>
      <feFlood flood-opacity="0.161"/>
      <feComposite operator="in" in2="blur"/>
      <feComposite in="SourceGraphic"/>
    </filter>
    <clipPath id="clip-_2018-08-22-restaurant-managers-training-program01">
      <rect width="1280" height="800"/>
    </clipPath>
  </defs>
  <g id="_2018-08-22-restaurant-managers-training-program01" data-name="2018-08-22-restaurant-managers-training-program01" clip-path="url(#clip-_2018-08-22-restaurant-managers-training-program01)">
    <rect width="1280" height="800" fill="#e6f9ff"/>
    <rect id="Rectangle_44" data-name="Rectangle 44" width="1280" height="74" transform="translate(0 726)" fill="#1aa6b7"/>
    <g id="Illustration" transform="translate(-4.266 77.089)">
      <g id="Backgound" transform="translate(216.266 162.911)">
        <g id="Background">
          <g id="Group_83" data-name="Group 83">
            <path id="Path_198" data-name="Path 198" d="M1001.936,634.1c17.59-21.3,27.637-49.41,24.474-76.855s-20.515-53.533-45.887-64.466c-26.611-11.468-57.476-5.622-84.737,4.2-38.458,13.86-74.548,27.483-114.971,34.816-32.193,5.841-55.994-.34-72.636-30.4-45.55-82.275,225.958-338.485-90.647-338.485-128.337,0-401.265,43.836-401.265,331.841,0,66.276,17.5,115.787,44.555,153.374h727.4A118.927,118.927,0,0,0,1001.936,634.1Z" transform="translate(-216.266 -162.911)" fill="#d9ecf2"/>
            <circle id="Ellipse_12" data-name="Ellipse 12" cx="94.982" cy="94.982" r="94.982" transform="translate(621.152 3.723)" fill="#d9ecf2"/>
          </g>
        </g>
      </g>
      <g id="Computer" transform="translate(370.704 261.615)">
        <g id="Group_92" data-name="Group 92" transform="translate(200.468 308.844)">
          <g id="Group_89" data-name="Group 89">
            <path id="Path_205" data-name="Path 205" d="M455.39,510.944l3.248-3.876a45.308,45.308,0,0,0,10.441-25.1l4.266-46.758h98.4l4.266,46.758a45.314,45.314,0,0,0,10.441,25.1l3.247,3.876Z" transform="translate(-450.332 -432.853)" fill="#fff" fill-rule="evenodd"/>
            <path id="Path_206" data-name="Path 206" d="M571.284,438.366l4.07,44.611a47.876,47.876,0,0,0,10.983,26.4H462.146a47.876,47.876,0,0,0,10.983-26.4l4.07-44.611h94.084m4.31-4.721H472.89l-.391,4.292-4.07,44.611a42.961,42.961,0,0,1-9.9,23.795l-6.5,7.753H596.453l-6.5-7.753a42.962,42.962,0,0,1-9.9-23.795l-4.07-44.611-.391-4.292Z" transform="translate(-452.03 -433.645)" fill="#194253"/>
          </g>
          <path id="Path_207" data-name="Path 207" d="M466.75,442.894v7.926l101.773,3.814v-11.74Z" transform="translate(-444.591 -428.971)" fill="#194253" fill-rule="evenodd"/>
          <g id="Group_91" data-name="Group 91" transform="translate(30.084 60.006)">
            <g id="Group_90" data-name="Group 90">
              <path id="Path_208" data-name="Path 208" d="M553.909,478.229H474.375a2.361,2.361,0,0,1,0-4.722h79.533a2.361,2.361,0,0,1,0,4.722Z" transform="translate(-472.015 -473.507)" fill="#194253"/>
            </g>
          </g>
        </g>
        <g id="Group_93" data-name="Group 93" transform="translate(0 0)">
          <rect id="Rectangle_48" data-name="Rectangle 48" width="540.638" height="319.551" rx="8.432" transform="translate(2.361 2.361)" fill="#fff"/>
          <path id="Path_209" data-name="Path 209" d="M849.165,228.48H333.912a15.054,15.054,0,0,0-15.053,15.053V537.7a15.054,15.054,0,0,0,15.053,15.053H849.165A15.054,15.054,0,0,0,864.219,537.7V243.533A15.054,15.054,0,0,0,849.165,228.48ZM333.912,233.2H849.165A10.344,10.344,0,0,1,859.5,243.533V502.539H323.58V243.533A10.344,10.344,0,0,1,333.912,233.2Zm515.253,314.83H333.912A10.344,10.344,0,0,1,323.58,537.7V507.26H859.5V537.7A10.344,10.344,0,0,1,849.165,548.032Z" transform="translate(-318.859 -228.48)" fill="#194253"/>
          <circle id="Ellipse_14" data-name="Ellipse 14" cx="7.527" cy="7.527" r="7.527" transform="translate(265.153 291.639)" fill="#194253"/>
        </g>
      </g>
      <g id="Mouse" transform="translate(779.39 623.971)">
        <path id="Path_210" data-name="Path 210" d="M597.949,472.307h0c-3.413.409-6.032,4.349-6.032,9.073v8.44c0,1.746,1.025,3.16,2.291,3.16h59.268c1.266,0,2.291-1.414,2.291-3.16v-8.44c0-4.724-2.619-8.663-6.032-9.073h0A217.026,217.026,0,0,0,597.949,472.307Z" transform="translate(-589.557 -468.402)" fill="#fff"/>
        <path id="Path_211" data-name="Path 211" d="M654.269,496.131H595c-2.609,0-4.652-2.425-4.652-5.52v-8.442c0-5.952,3.488-10.86,8.111-11.415h0a220.147,220.147,0,0,1,52.347,0c4.624.555,8.112,5.463,8.112,11.415v8.442C658.921,493.706,656.878,496.131,654.269,496.131Zm-58.94-4.627h0Zm-.072-.093h58.757a1.641,1.641,0,0,0,.187-.8v-8.442c0-3.447-1.773-6.467-3.955-6.729a215.394,215.394,0,0,0-51.222,0h0c-2.181.262-3.955,3.282-3.955,6.729v8.442A1.641,1.641,0,0,0,595.256,491.411Z" transform="translate(-590.349 -469.193)" fill="#194253"/>
      </g>
      <g id="Flower" transform="translate(979.713 520.935)">
        <g id="Leafs" transform="translate(12.185)">
          <g id="Group_94" data-name="Group 94" transform="translate(7.386 11.853)">
            <path id="Path_212" data-name="Path 212" d="M741.176,410.268a1.51,1.51,0,0,0-1.927.914,25.129,25.129,0,0,0,17.484,32.153,25.134,25.134,0,0,0-15.558-33.066Z" transform="translate(-735.632 -407.828)" fill="#fff"/>
            <path id="Path_213" data-name="Path 213" d="M758.958,446.951l-2.038-.542A27.492,27.492,0,0,1,737.8,411.238a3.768,3.768,0,0,1,1.9-2.2,3.958,3.958,0,0,1,3.011-.22h0a27.487,27.487,0,0,1,17.015,36.166Zm-16.94-33.372a22.583,22.583,0,0,0-.872,6.205,22.86,22.86,0,0,0,14.885,21.4,22.517,22.517,0,0,0,.873-6.205A22.8,22.8,0,0,0,742.018,413.579Zm-.79-.277Z" transform="translate(-736.424 -408.62)" fill="#194253"/>
          </g>
          <g id="Group_95" data-name="Group 95" transform="translate(0 27.489)">
            <path id="Path_214" data-name="Path 214" d="M734.876,420.579a1.487,1.487,0,0,0-1.557,1.269,25.2,25.2,0,0,0,24.649,28.62,25.2,25.2,0,0,0-23.092-29.889Z" transform="translate(-730.725 -418.214)" fill="#fff"/>
            <path id="Path_215" data-name="Path 215" d="M760.708,453.645l-1.975-.023a27.555,27.555,0,0,1-26.959-31.3,3.843,3.843,0,0,1,4.048-3.3A27.558,27.558,0,0,1,761.079,451.7ZM736.352,423.8a22.841,22.841,0,0,0,20.385,24.987A22.842,22.842,0,0,0,736.352,423.8Z" transform="translate(-731.518 -419.007)" fill="#194253"/>
          </g>
          <g id="Group_96" data-name="Group 96" transform="translate(35.827 11.851)">
            <path id="Path_216" data-name="Path 216" d="M774.183,410.268a1.51,1.51,0,0,1,1.927.914,25.129,25.129,0,0,1-17.484,32.153,25.134,25.134,0,0,1,15.558-33.066Z" transform="translate(-754.525 -407.826)" fill="#fff"/>
            <path id="Path_217" data-name="Path 217" d="M757.987,446.951l-.768-1.964a27.491,27.491,0,0,1,17.016-36.166h0a3.871,3.871,0,0,1,4.907,2.416,27.485,27.485,0,0,1-19.121,35.174Zm16.941-33.372a22.8,22.8,0,0,0-14.888,21.4,22.559,22.559,0,0,0,.872,6.205,22.859,22.859,0,0,0,14.888-21.4A22.583,22.583,0,0,0,774.928,413.579Zm.787-.277Z" transform="translate(-755.318 -408.619)" fill="#194253"/>
          </g>
          <g id="Group_97" data-name="Group 97" transform="translate(38.362 27.489)">
            <path id="Path_218" data-name="Path 218" d="M782.112,420.579a1.485,1.485,0,0,1,1.555,1.269,25.2,25.2,0,0,1-24.647,28.62,25.2,25.2,0,0,1,23.092-29.889Z" transform="translate(-756.209 -418.214)" fill="#fff"/>
            <path id="Path_219" data-name="Path 219" d="M757.866,453.645l-.372-1.94a27.558,27.558,0,0,1,25.257-32.689h0a3.855,3.855,0,0,1,4.048,3.306,27.556,27.556,0,0,1-26.958,31.3ZM782.221,423.8a22.841,22.841,0,0,0-20.385,24.987A22.841,22.841,0,0,0,782.221,423.8Z" transform="translate(-757.001 -419.007)" fill="#194253"/>
          </g>
          <g id="Group_98" data-name="Group 98" transform="translate(21.212)">
            <path id="Path_220" data-name="Path 220" d="M759.019,402.929a1.492,1.492,0,0,0-2.415,0,50.641,50.641,0,0,0,1.207,60.473,50.641,50.641,0,0,0,1.207-60.473Z" transform="translate(-744.816 -399.954)" fill="#fff"/>
            <path id="Path_221" data-name="Path 221" d="M758.6,468.044l-1.864-2.4a52.994,52.994,0,0,1-1.265-63.292,3.847,3.847,0,0,1,3.128-1.6h0a3.843,3.843,0,0,1,3.127,1.6,53,53,0,0,1-1.263,63.289Zm0-61.925a48.295,48.295,0,0,0,0,54.06,48.3,48.3,0,0,0,0-54.06Z" transform="translate(-745.609 -400.746)" fill="#194253"/>
          </g>
        </g>
        <g id="Pot" transform="translate(0 50.238)">
          <path id="Path_222" data-name="Path 222" d="M732.251,442.451a44.032,44.032,0,1,0,73.282-.393,14.8,14.8,0,0,0-12.3-6.371h-48.4A15.073,15.073,0,0,0,732.251,442.451Z" transform="translate(-722.631 -433.327)" fill="#fff"/>
          <g id="Group_100" data-name="Group 100">
            <g id="Group_99" data-name="Group 99">
              <path id="Path_223" data-name="Path 223" d="M808.281,441.53a17.109,17.109,0,0,0-14.257-7.411h-48.4a17.385,17.385,0,0,0-14.548,7.823,46.128,46.128,0,0,0-7.623,27.155,46.725,46.725,0,0,0,43.414,44.668q1.5.093,2.987.092a45.961,45.961,0,0,0,31.733-12.585,46.386,46.386,0,0,0,6.7-59.743Zm-73.267,3.015a12.671,12.671,0,0,1,10.608-5.705h48.4a12.4,12.4,0,0,1,10.346,5.332A41.357,41.357,0,0,1,811,461.113c-2.97.875-4.792,3.021-6.307,4.84-1.894,2.27-3.083,3.554-5.529,3.554s-3.635-1.284-5.529-3.554c-1.949-2.341-4.378-5.252-9.154-5.252s-7.2,2.911-9.151,5.252c-1.891,2.27-3.08,3.554-5.523,3.554s-3.635-1.284-5.528-3.554c-1.948-2.341-4.376-5.252-9.151-5.252s-7.2,2.913-9.151,5.252c-1.891,2.27-3.078,3.554-5.522,3.554s-3.631-1.284-5.522-3.554c-1.51-1.814-3.322-3.955-6.277-4.834A41.254,41.254,0,0,1,735.014,444.545Zm63.336,53.288a41.286,41.286,0,0,1-31.192,11.219,41.96,41.96,0,0,1-38.987-40.116c-.033-.986-.023-1.966.01-2.941a11.737,11.737,0,0,1,3.124,2.979c1.949,2.341,4.376,5.254,9.149,5.254s7.2-2.911,9.15-5.252c1.891-2.27,3.078-3.553,5.523-3.553s3.634,1.283,5.526,3.553c1.949,2.341,4.377,5.252,9.152,5.252s7.2-2.911,9.151-5.252c1.891-2.27,3.08-3.553,5.523-3.553s3.635,1.283,5.529,3.553c1.951,2.341,4.378,5.252,9.154,5.252s7.2-2.911,9.154-5.252A11.834,11.834,0,0,1,811.433,466c.016.488.054.972.054,1.462A41.278,41.278,0,0,1,798.35,497.833Z" transform="translate(-723.423 -434.119)" fill="#194253"/>
              <circle id="Ellipse_15" data-name="Ellipse 15" cx="2.36" cy="2.36" r="2.36" transform="translate(73.386 26.581)" fill="#194253"/>
              <circle id="Ellipse_16" data-name="Ellipse 16" cx="2.36" cy="2.36" r="2.36" transform="translate(58.709 35.388)" fill="#194253"/>
              <circle id="Ellipse_17" data-name="Ellipse 17" cx="2.36" cy="2.36" r="2.36" transform="translate(44.032 26.581)" fill="#194253"/>
              <circle id="Ellipse_18" data-name="Ellipse 18" cx="2.36" cy="2.36" r="2.36" transform="translate(29.355 35.388)" fill="#194253"/>
              <circle id="Ellipse_19" data-name="Ellipse 19" cx="2.36" cy="2.36" r="2.36" transform="translate(14.678 26.581)" fill="#194253"/>
            </g>
          </g>
        </g>
      </g>
      <g id="Lines" transform="translate(339.197 230.11)">
        <path id="Path_224" data-name="Path 224" d="M329.651,227.325a2.36,2.36,0,0,1-2.36-2.36V209.911a2.36,2.36,0,1,1,4.721,0v15.053A2.36,2.36,0,0,1,329.651,227.325Z" transform="translate(-283.091 -207.551)" fill="#194253"/>
        <path id="Path_225" data-name="Path 225" d="M319.534,231.516a2.355,2.355,0,0,1-1.669-.691L307.22,220.181a2.361,2.361,0,1,1,3.339-3.339L321.2,227.486a2.36,2.36,0,0,1-1.669,4.03Z" transform="translate(-293.583 -203.205)" fill="#194253"/>
        <path id="Path_226" data-name="Path 226" d="M315.343,241.632H300.289a2.36,2.36,0,1,1,0-4.719h15.053a2.36,2.36,0,1,1,0,4.719Z" transform="translate(-297.929 -192.713)" fill="#194253"/>
      </g>
      <g id="Coffee" transform="translate(217.538 489.479)">
        <g id="PaperCup">
          <g id="Group_101" data-name="Group 101" transform="translate(5.568 29.296)">
            <path id="Path_227" data-name="Path 227" d="M222.546,400.88l12.977,127.413h59.017L307.518,400.88Z" transform="translate(-219.933 -398.518)" fill="#fff"/>
            <path id="Path_228" data-name="Path 228" d="M297.549,531.446H234.268L220.81,399.311h90.2Zm-59.017-4.721h54.752l12.5-122.692H226.037Z" transform="translate(-220.81 -399.311)" fill="#194253"/>
          </g>
          <g id="Group_102" data-name="Group 102" transform="translate(0 11.791)">
            <path id="Path_229" data-name="Path 229" d="M311.968,391.451a3.009,3.009,0,0,0-2.9-2.2H224.9a3.011,3.011,0,0,0-2.9,2.2l-3.209,11.484a3.011,3.011,0,0,0,2.9,3.821h90.586a3.01,3.01,0,0,0,2.9-3.821Z" transform="translate(-216.318 -386.89)" fill="#fff"/>
            <path id="Path_230" data-name="Path 230" d="M313.071,409.909H222.487a5.371,5.371,0,0,1-5.174-6.816l3.209-11.483a5.392,5.392,0,0,1,5.174-3.927h84.165a5.389,5.389,0,0,1,5.172,3.927l3.211,11.483a5.372,5.372,0,0,1-5.174,6.816Zm-87.375-17.5a.651.651,0,0,0-.626.476l-3.209,11.483a.648.648,0,0,0,.626.823h90.584a.65.65,0,0,0,.626-.823l-3.209-11.483a.651.651,0,0,0-.626-.476Z" transform="translate(-217.111 -387.683)" fill="#194253"/>
          </g>
          <g id="Group_103" data-name="Group 103" transform="translate(9.587)">
            <path id="Path_231" data-name="Path 231" d="M228.227,383.619l-2.681,9.592h75.94l-2.681-9.592a3.012,3.012,0,0,0-2.9-2.2H231.126A3.011,3.011,0,0,0,228.227,383.619Z" transform="translate(-222.436 -379.058)" fill="#fff"/>
            <path id="Path_232" data-name="Path 232" d="M305.64,396.364H223.48L227,383.774a5.391,5.391,0,0,1,5.172-3.924h64.78a5.389,5.389,0,0,1,5.172,3.926Zm-75.94-4.722h69.719l-1.844-6.595a.649.649,0,0,0-.625-.474H232.17a.656.656,0,0,0-.628.476Z" transform="translate(-223.48 -379.85)" fill="#194253"/>
          </g>
          <g id="Group_104" data-name="Group 104" transform="translate(6.165 63.461)">
            <path id="Path_233" data-name="Path 233" d="M222.79,426.891l5.544,54.439a3.012,3.012,0,0,0,3,2.705H298.5a3.01,3.01,0,0,0,2.994-2.705l5.546-54.439a3.01,3.01,0,0,0-3-3.315H225.786A3.01,3.01,0,0,0,222.79,426.891Z" transform="translate(-220.414 -421.214)" fill="#fff"/>
            <path id="Path_234" data-name="Path 234" d="M299.3,487.188H232.122a5.359,5.359,0,0,1-5.344-4.826l-5.544-54.438a5.373,5.373,0,0,1,5.344-5.918H304.84a5.373,5.373,0,0,1,5.344,5.916l-5.544,54.439A5.359,5.359,0,0,1,299.3,487.188Zm-72.717-60.459a.651.651,0,0,0-.647.716l5.544,54.438a.649.649,0,0,0,.647.584H299.3a.647.647,0,0,0,.646-.584l5.546-54.438a.652.652,0,0,0-.164-.5.639.639,0,0,0-.483-.214Z" transform="translate(-221.207 -422.007)" fill="#194253"/>
          </g>
        </g>
        <g id="Shadow" transform="translate(8.181 31.657)">
          <g id="Group_105" data-name="Group 105">
            <path id="Path_235" data-name="Path 235" d="M228.948,462.739h65.7l-.966,8.536-64.167-3.317Z" transform="translate(-219.31 -369.619)" fill="#194253"/>
            <path id="Path_236" data-name="Path 236" d="M222.546,400.88l.547,4.179,83.374,3.84,1.05-8.019Z" transform="translate(-222.546 -400.88)" fill="#194253"/>
          </g>
        </g>
      </g>
      <g id="Checklist" transform="translate(514.629 248.342)">
        <g id="Browser">
          <path id="Path_237" data-name="Path 237" d="M416.037,508.562V233.924a12.707,12.707,0,0,1,12.692-12.693h227.4a12.707,12.707,0,0,1,12.692,12.693V508.562Z" transform="translate(-413.675 -218.871)" fill="#fff"/>
          <g id="Group_112" data-name="Group 112" transform="translate(13.753 11.118)">
            <g id="Group_107" data-name="Group 107">
              <g id="Group_106" data-name="Group 106">
                <circle id="Ellipse_20" data-name="Ellipse 20" cx="4.516" cy="4.516" r="4.516" fill="#194253"/>
              </g>
            </g>
            <g id="Group_109" data-name="Group 109" transform="translate(18.064)">
              <g id="Group_108" data-name="Group 108">
                <circle id="Ellipse_21" data-name="Ellipse 21" cx="4.516" cy="4.516" r="4.516" fill="#194253"/>
              </g>
            </g>
            <g id="Group_111" data-name="Group 111" transform="translate(36.128)">
              <g id="Group_110" data-name="Group 110">
                <circle id="Ellipse_22" data-name="Ellipse 22" cx="4.516" cy="4.516" r="4.516" fill="#194253"/>
              </g>
            </g>
          </g>
          <path id="Path_238" data-name="Path 238" d="M656.925,219.663h-227.4a15.054,15.054,0,0,0-15.053,15.053v277h257.51v-277A15.054,15.054,0,0,0,656.925,219.663Zm-227.4,4.722h227.4a10.344,10.344,0,0,1,10.333,10.331v11.492H419.189V234.716A10.344,10.344,0,0,1,429.521,224.385ZM419.189,506.994V250.929H667.258V506.994Z" transform="translate(-414.468 -219.663)" fill="#194253"/>
        </g>
        <g id="Tick" transform="translate(25.702 62.027)">
          <g id="Group_113" data-name="Group 113">
            <rect id="Rectangle_49" data-name="Rectangle 49" width="50.805" height="50.805" rx="2" fill="#1aa6b7"/>
            <path id="Path_239" data-name="Path 239" d="M462.116,271.542l-11.991,11.991-6.843-6.843-3.338,3.338,10.181,10.181,15.329-15.329Z" transform="translate(-427.296 -255.473)" fill="#fff"/>
          </g>
          <g id="Group_114" data-name="Group 114" transform="translate(70.626 4.721)">
            <rect id="Rectangle_50" data-name="Rectangle 50" width="120.428" height="4.721" fill="#b4d0d9"/>
            <rect id="Rectangle_51" data-name="Rectangle 51" width="120.428" height="4.721" transform="translate(0 9.442)" fill="#b4d0d9"/>
            <rect id="Rectangle_52" data-name="Rectangle 52" width="60.214" height="4.721" transform="translate(0 18.883)" fill="#b4d0d9"/>
          </g>
          <g id="Group_115" data-name="Group 115" transform="translate(0 65.233)">
            <rect id="Rectangle_53" data-name="Rectangle 53" width="50.805" height="50.805" rx="2" fill="#1aa6b7"/>
            <path id="Path_240" data-name="Path 240" d="M462.116,314.876l-11.991,11.991-6.843-6.843-3.338,3.338,10.181,10.181,15.329-15.329Z" transform="translate(-427.296 -298.807)" fill="#fff"/>
          </g>
          <g id="Group_116" data-name="Group 116" transform="translate(70.626 69.954)">
            <rect id="Rectangle_54" data-name="Rectangle 54" width="120.428" height="4.721" fill="#b4d0d9"/>
            <rect id="Rectangle_55" data-name="Rectangle 55" width="120.428" height="4.721" transform="translate(0 9.442)" fill="#b4d0d9"/>
            <rect id="Rectangle_56" data-name="Rectangle 56" width="60.214" height="4.721" transform="translate(0 18.883)" fill="#b4d0d9"/>
          </g>
          <g id="Group_117" data-name="Group 117" transform="translate(0 130.466)">
            <rect id="Rectangle_57" data-name="Rectangle 57" width="50.805" height="50.805" rx="2" fill="#1aa6b7"/>
            <path id="Path_241" data-name="Path 241" d="M462.116,358.21,450.125,370.2l-6.843-6.843-3.338,3.338,10.181,10.181,15.329-15.329Z" transform="translate(-427.296 -342.141)" fill="#fff"/>
          </g>
          <g id="Group_118" data-name="Group 118" transform="translate(70.626 135.187)">
            <rect id="Rectangle_58" data-name="Rectangle 58" width="120.428" height="4.721" fill="#b4d0d9"/>
            <rect id="Rectangle_59" data-name="Rectangle 59" width="120.428" height="4.721" transform="translate(0 9.441)" fill="#b4d0d9"/>
            <rect id="Rectangle_60" data-name="Rectangle 60" width="60.214" height="4.721" transform="translate(0 18.883)" fill="#b4d0d9"/>
          </g>
        </g>
      </g>
    </g>
    <g id="Group_52" data-name="Group 52" transform="translate(508 746)">
      <g id="nav__logo__e_1_">
        <path id="Path_137" data-name="Path 137" d="M23.4,35.564h9.954a1.93,1.93,0,0,0,1.935-1.843V26.9A36.608,36.608,0,0,1,23.4,35.564Z" transform="translate(-1.833 -2.107)" fill="#fff"/>
        <path id="Path_138" data-name="Path 138" d="M19.731,10.977C19.639,9.226,18.348,8.12,15.583,8.4,10.146,8.765,6,14.94,4.8,21.3,16.6,20.378,19.823,13.189,19.731,10.977Z" transform="translate(-0.376 -0.654)" fill="#fff"/>
        <path id="Path_139" data-name="Path 139" d="M18.341,3.963c5.622-.369,8.2,1.843,8.387,4.608.461,6.083-9.493,13.272-22.581,14.378H3.963a10.209,10.209,0,0,0,.369,5.069c.922,2.4,3.318,3.318,6.083,3.318,12.166,0,21.106-13.456,23.041-19.539V1.843A1.871,1.871,0,0,0,31.521,0H1.843A1.849,1.849,0,0,0,0,1.843V15.484C4.793,9.4,12.166,4.424,18.341,3.963Z" fill="#fff"/>
      </g>
      <g id="nav__logo__edgepoint_1_" transform="translate(51.982 7.097)">
        <path id="Path_140" data-name="Path 140" d="M62.3,23.683a4.855,4.855,0,0,0,3.779-1.659l1.106.922a6.365,6.365,0,0,1-4.885,2.3,5.892,5.892,0,0,1-5.9-6.175c0-3.41,2.4-6.175,5.714-6.175,3.5,0,5.53,2.857,5.53,6.267v.553H58.151A4.081,4.081,0,0,0,62.3,23.683Zm3.41-5.346c-.184-2.12-1.475-4.055-3.779-4.055-2.028,0-3.594,1.751-3.871,4.055Z" transform="translate(-56.4 -8.107)" fill="#fff"/>
        <path id="Path_141" data-name="Path 141" d="M81.33,24.566v-2.4a5.23,5.23,0,0,1-4.516,2.673A5.856,5.856,0,0,1,71.1,18.668a5.856,5.856,0,0,1,5.714-6.175,5.228,5.228,0,0,1,4.516,2.581V7.7h1.751V24.566Zm-4.24-10.6c-2.3,0-4.147,1.751-4.147,4.608s1.935,4.608,4.147,4.608a4.452,4.452,0,0,0,4.332-4.608A4.452,4.452,0,0,0,77.091,13.967Z" transform="translate(-57.552 -7.7)" fill="#fff"/>
        <path id="Path_142" data-name="Path 142" d="M93.7,28.66A9.258,9.258,0,0,1,88.261,27l.829-1.382A8.066,8.066,0,0,0,93.7,27.094c2.581,0,4.332-1.475,4.332-4.24V21.471a5.681,5.681,0,0,1-4.7,2.581,5.427,5.427,0,0,1-5.53-5.53A5.5,5.5,0,0,1,93.33,12.9a5.773,5.773,0,0,1,4.7,2.4v-2.12h1.751v9.77C99.689,26.725,97.293,28.66,93.7,28.66Zm-.092-14.286a3.892,3.892,0,0,0-4.147,4.055,4,4,0,0,0,4.147,4.055A4.176,4.176,0,0,0,98.03,18.43,4.23,4.23,0,0,0,93.606,14.375Z" transform="translate(-58.86 -8.107)" fill="#fff"/>
        <path id="Path_143" data-name="Path 143" d="M110.2,23.683a4.855,4.855,0,0,0,3.779-1.659l1.106.922a6.365,6.365,0,0,1-4.885,2.3,5.892,5.892,0,0,1-5.9-6.175c0-3.41,2.4-6.175,5.714-6.175,3.5,0,5.53,2.857,5.53,6.267v.553h-9.4A3.948,3.948,0,0,0,110.2,23.683Zm3.41-5.346c-.184-2.12-1.475-4.055-3.779-4.055-2.028,0-3.594,1.751-3.871,4.055Z" transform="translate(-60.153 -8.107)" fill="#fff"/>
        <path id="Path_144" data-name="Path 144" d="M126.067,25.235a5.228,5.228,0,0,1-4.516-2.581v5.991H119.8V13.069h1.751v2.3a5.23,5.23,0,0,1,4.516-2.673,5.856,5.856,0,0,1,5.714,6.175C131.782,22.838,128.924,25.235,126.067,25.235ZM125.7,14.359a4.452,4.452,0,0,0-4.332,4.608,4.34,4.34,0,0,0,4.332,4.608c2.3,0,4.147-1.751,4.147-4.608A4.153,4.153,0,0,0,125.7,14.359Z" transform="translate(-61.367 -8.092)" fill="#fff"/>
        <path id="Path_145" data-name="Path 145" d="M141.675,25.242a6.116,6.116,0,0,1-6.175-6.175,6.194,6.194,0,0,1,6.175-6.267,6.116,6.116,0,0,1,6.175,6.175A6.194,6.194,0,0,1,141.675,25.242Zm0-10.876a4.339,4.339,0,0,0-4.332,4.608,4.491,4.491,0,0,0,4.424,4.7,4.412,4.412,0,0,0,4.424-4.608,4.625,4.625,0,0,0-4.516-4.7Z" transform="translate(-62.597 -8.1)" fill="#fff"/>
        <path id="Path_146" data-name="Path 146" d="M152.4,10.135V8.2h2.028v1.935Zm.184,14.47V12.716h1.751V24.605Z" transform="translate(-63.921 -7.739)" fill="#fff"/>
        <path id="Path_147" data-name="Path 147" d="M160.751,24.966H159V13.076h1.751V15.1a4.43,4.43,0,0,1,4.055-2.3c2.857,0,4.516,1.935,4.516,4.7v7.373h-1.751V17.961c0-2.212-1.2-3.594-3.318-3.594a3.51,3.51,0,0,0-3.594,3.687l.092,6.912Z" transform="translate(-64.438 -8.1)" fill="#fff"/>
        <path id="Path_148" data-name="Path 148" d="M176.618,21.274a1.8,1.8,0,0,0,2.028,2.028,3.994,3.994,0,0,0,1.751-.369v1.475a4,4,0,0,1-2.12.461c-1.935,0-3.318-.922-3.318-3.318V14.361H173.3V12.7h1.659V9.2h1.751v3.5h3.779v1.567H176.71v7Z" transform="translate(-65.558 -7.818)" fill="#fff"/>
      </g>
      <g id="nav__logo__learning_1_" transform="translate(176.958 7.097)">
        <path id="Path_149" data-name="Path 149" d="M192,24.566V7.7h1.751V24.566Z" transform="translate(-192 -7.7)" fill="#fff"/>
        <path id="Path_150" data-name="Path 150" d="M203.7,23.683a4.855,4.855,0,0,0,3.779-1.659l1.106.922a6.365,6.365,0,0,1-4.885,2.3,5.892,5.892,0,0,1-5.9-6.175c0-3.41,2.4-6.175,5.714-6.175,3.5,0,5.53,2.857,5.53,6.267v.553h-9.4a3.948,3.948,0,0,0,4.055,3.963Zm3.41-5.346c-.184-2.12-1.475-4.055-3.779-4.055-2.028,0-3.594,1.751-3.871,4.055Z" transform="translate(-192.454 -8.107)" fill="#fff"/>
        <path id="Path_151" data-name="Path 151" d="M213.759,15.4l-.553-1.475A9.105,9.105,0,0,1,217.538,13c3.226,0,5.069,1.659,5.069,4.793v7.281h-1.751V23.323a5.161,5.161,0,0,1-4.332,2.028c-2.212,0-4.424-1.2-4.424-3.687,0-2.581,2.028-3.871,5.069-3.871a13.114,13.114,0,0,1,3.594.461v-.369c0-2.12-1.29-3.226-3.594-3.226a5.9,5.9,0,0,0-3.41.737Zm.276,5.991c0,1.475,1.382,2.4,3.041,2.4,2.212,0,3.963-1.29,3.963-3.226v-1.2a11.937,11.937,0,0,0-3.5-.461c-2.212,0-3.5,1.014-3.5,2.488Z" transform="translate(-193.575 -8.115)" fill="#fff"/>
        <path id="Path_152" data-name="Path 152" d="M229.451,24.965H227.7V13.076h1.751v3.041a5.068,5.068,0,0,1,4.885-3.318v1.843h-.092c-2.581,0-4.7,1.843-4.7,5.438v4.885Z" transform="translate(-194.797 -8.099)" fill="#fff"/>
        <path id="Path_153" data-name="Path 153" d="M239.551,24.966H237.8V13.076h1.751V15.1a4.43,4.43,0,0,1,4.055-2.3c2.857,0,4.516,1.935,4.516,4.7v7.373h-1.751V17.961c0-2.212-1.2-3.594-3.318-3.594a3.51,3.51,0,0,0-3.594,3.687v6.912Z" transform="translate(-195.588 -8.1)" fill="#fff"/>
        <path id="Path_154" data-name="Path 154" d="M253.1,10.135V8.2h2.028v1.935Zm.184,14.47V12.716h1.751V24.605Z" transform="translate(-196.787 -7.739)" fill="#fff"/>
        <path id="Path_155" data-name="Path 155" d="M261.451,24.966H259.7V13.076h1.751V15.1a4.43,4.43,0,0,1,4.055-2.3c2.857,0,4.516,1.935,4.516,4.7v7.373h-1.751V17.961c0-2.212-1.2-3.594-3.318-3.594a3.51,3.51,0,0,0-3.594,3.687l.092,6.912Z" transform="translate(-197.304 -8.1)" fill="#fff"/>
        <path id="Path_156" data-name="Path 156" d="M280.3,28.66A9.258,9.258,0,0,1,274.861,27l.83-1.382a8.066,8.066,0,0,0,4.608,1.475c2.581,0,4.332-1.475,4.332-4.24V21.471a5.681,5.681,0,0,1-4.7,2.581,5.427,5.427,0,0,1-5.53-5.53,5.5,5.5,0,0,1,5.53-5.622,5.641,5.641,0,0,1,4.7,2.4v-2.12h1.751v9.77c-.092,3.779-2.488,5.714-6.083,5.714Zm-.092-14.286a3.892,3.892,0,0,0-4.147,4.055,4,4,0,0,0,4.147,4.055,4.176,4.176,0,0,0,4.424-4.055A4.23,4.23,0,0,0,280.206,14.375Z" transform="translate(-198.455 -8.107)" fill="#fff"/>
      </g>
    </g>
    <g transform="matrix(1, 0, 0, 1, 0, 0)" filter="url(#Path_242)">
      <path id="Path_242-2" data-name="Path 242" d="M29.05,55H56.47V48.82H36.07V37.72H56.05V31.54H36.07V21.16h20.4V14.98H29.05Zm35.94,0h6.3V31.54h5.88V26.02H71.29V24.4c0-3.24,1.56-4.86,4.02-4.86a5.05,5.05,0,0,1,2.52.6l1.38-4.62a10.435,10.435,0,0,0-5.04-1.14c-5.34,0-9.18,3.54-9.18,10.02v1.62h-4.8v5.52h4.8Zm18.48,0h6.3V31.54h5.88V26.02H89.77V24.4c0-3.24,1.56-4.86,4.02-4.86a5.05,5.05,0,0,1,2.52.6l1.38-4.62a10.435,10.435,0,0,0-5.04-1.14c-5.34,0-9.18,3.54-9.18,10.02v1.62h-4.8v5.52h4.8ZM98.65,40.48c0,9.18,6.48,15.24,15.18,15.24a16.892,16.892,0,0,0,11.76-4.2l-2.88-4.14a12.265,12.265,0,0,1-8.22,3.18c-5.46,0-8.76-3.6-9.24-7.98h22.38v-1.5c0-9.12-5.58-15.78-14.28-15.78C104.77,25.3,98.65,32.08,98.65,40.48Zm14.7-10.02a7.751,7.751,0,0,1,8.16,7.68H105.19C105.49,34.6,107.95,30.46,113.35,30.46Zm18.72,10.02c0,8.82,6.18,15.24,15,15.24,5.64,0,9.06-2.4,11.1-5.16l-4.14-3.84a7.878,7.878,0,0,1-6.66,3.42c-5.28,0-8.76-4.02-8.76-9.66s3.48-9.6,8.76-9.6a7.735,7.735,0,0,1,6.66,3.42l4.14-3.84c-2.04-2.76-5.46-5.16-11.1-5.16C138.25,25.3,132.07,31.72,132.07,40.48Zm40.32,15.24c2.94,0,4.8-.78,5.94-1.86l-1.5-4.74a4.067,4.067,0,0,1-2.82,1.02c-1.8,0-2.76-1.44-2.76-3.42V31.54h5.88V26.02h-5.88V18.1h-6.3v7.92h-4.8v5.52h4.8V48.28C164.95,53.08,167.53,55.72,172.39,55.72Zm13.56-34.14a3.9,3.9,0,1,0-3.9-3.9A3.892,3.892,0,0,0,185.95,21.58ZM182.83,55h6.3V26.02h-6.3Zm22.08,0h6.78l11.82-28.98h-6.78l-8.46,21.72-8.46-21.72h-6.72Zm20.76-14.52c0,9.18,6.48,15.24,15.18,15.24a16.892,16.892,0,0,0,11.76-4.2l-2.88-4.14a12.265,12.265,0,0,1-8.22,3.18c-5.46,0-8.76-3.6-9.24-7.98h22.38v-1.5c0-9.12-5.58-15.78-14.28-15.78C231.79,25.3,225.67,32.08,225.67,40.48Zm14.7-10.02a7.751,7.751,0,0,1,8.16,7.68H232.21C232.51,34.6,234.97,30.46,240.37,30.46Zm44.64,25.26c2.94,0,4.8-.78,5.94-1.86l-1.5-4.74a4.067,4.067,0,0,1-2.82,1.02c-1.8,0-2.76-1.44-2.76-3.42V31.54h5.88V26.02h-5.88V18.1h-6.3v7.92h-4.8v5.52h4.8V48.28C277.57,53.08,280.15,55.72,285.01,55.72ZM295.45,55h6.3V35.26c1.26-2.04,4.8-3.84,7.44-3.84a9.287,9.287,0,0,1,1.98.18V25.36a12.376,12.376,0,0,0-9.42,4.92V26.02h-6.3Zm38.52,0h6.3V35.8c0-7.8-5.64-10.5-12.06-10.5a17.234,17.234,0,0,0-12.18,4.68l2.58,4.38a11.866,11.866,0,0,1,8.58-3.66c4.02,0,6.78,2.04,6.78,5.4v4.32c-2.1-2.46-5.46-3.72-9.36-3.72-4.74,0-10.08,2.76-10.08,9.42,0,6.42,5.34,9.6,10.08,9.6a12.234,12.234,0,0,0,9.36-3.84Zm0-6.6c-1.44,1.98-4.14,3-6.9,3-3.54,0-6.18-2.04-6.18-5.16,0-3.18,2.64-5.22,6.18-5.22,2.76,0,5.46,1.02,6.9,3Zm17.58-26.82a3.9,3.9,0,1,0-3.9-3.9A3.892,3.892,0,0,0,351.55,21.58ZM348.43,55h6.3V26.02h-6.3Zm34.02,0h6.3V34.6c0-5.94-3.12-9.3-9.36-9.3a13.711,13.711,0,0,0-10.2,4.68V26.02h-6.3V55h6.3V34.78a9.54,9.54,0,0,1,7.44-3.9c3.54,0,5.82,1.5,5.82,6Zm17.58-33.42a3.9,3.9,0,1,0-3.9-3.9A3.892,3.892,0,0,0,400.03,21.58ZM396.91,55h6.3V26.02h-6.3Zm34.02,0h6.3V34.6c0-5.94-3.12-9.3-9.36-9.3a13.711,13.711,0,0,0-10.2,4.68V26.02h-6.3V55h6.3V34.78a9.54,9.54,0,0,1,7.44-3.9c3.54,0,5.82,1.5,5.82,6Zm14.1,7.44c3.54,3.24,7.2,4.32,12.12,4.32,7.14,0,14.88-2.82,14.88-13.26V26.02h-6.3v4.02a11.542,11.542,0,0,0-9.3-4.74c-7.44,0-12.84,5.52-12.84,14.88,0,9.54,5.46,14.88,12.84,14.88a11.763,11.763,0,0,0,9.3-4.8v3.48c0,5.94-4.44,7.86-8.58,7.86-3.84,0-6.84-1.02-9.18-3.72Zm20.7-16.86a9.4,9.4,0,0,1-7.44,3.9c-4.98,0-8.16-3.72-8.16-9.3s3.18-9.3,8.16-9.3a9.4,9.4,0,0,1,7.44,3.9ZM495.61,55h6.3V35.26c1.26-2.04,4.8-3.84,7.44-3.84a9.287,9.287,0,0,1,1.98.18V25.36a12.376,12.376,0,0,0-9.42,4.92V26.02h-6.3Zm19.02-14.52c0,9.18,6.48,15.24,15.18,15.24a16.892,16.892,0,0,0,11.76-4.2l-2.88-4.14a12.266,12.266,0,0,1-8.22,3.18c-5.46,0-8.76-3.6-9.24-7.98h22.38v-1.5c0-9.12-5.58-15.78-14.28-15.78C520.75,25.3,514.63,32.08,514.63,40.48Zm14.7-10.02a7.751,7.751,0,0,1,8.16,7.68H521.17C521.47,34.6,523.93,30.46,529.33,30.46ZM570.25,55h6.3V14.98h-6.3V30.04a11.626,11.626,0,0,0-9.3-4.74c-7.5,0-12.9,5.88-12.9,15.24,0,9.54,5.46,15.18,12.9,15.18a11.736,11.736,0,0,0,9.3-4.68Zm0-8.7a9.469,9.469,0,0,1-7.5,3.84c-4.98,0-8.16-4.02-8.16-9.6,0-5.64,3.18-9.66,8.16-9.66a9.521,9.521,0,0,1,7.5,3.9ZM604.27,55h6.3V26.02h-6.3V46.36a9.639,9.639,0,0,1-7.44,3.78c-3.54,0-5.82-1.38-5.82-5.88V26.02h-6.3V46.54c0,5.94,3.06,9.18,9.3,9.18a13.89,13.89,0,0,0,10.26-4.56Zm12.66-14.52c0,8.82,6.18,15.24,15,15.24,5.64,0,9.06-2.4,11.1-5.16l-4.14-3.84a7.878,7.878,0,0,1-6.66,3.42c-5.28,0-8.76-4.02-8.76-9.66s3.48-9.6,8.76-9.6a7.735,7.735,0,0,1,6.66,3.42l4.14-3.84c-2.04-2.76-5.46-5.16-11.1-5.16C623.11,25.3,616.93,31.72,616.93,40.48Zm29.82,0c0,9.18,6.48,15.24,15.18,15.24a16.892,16.892,0,0,0,11.76-4.2l-2.88-4.14a12.266,12.266,0,0,1-8.22,3.18c-5.46,0-8.76-3.6-9.24-7.98h22.38v-1.5c0-9.12-5.58-15.78-14.28-15.78C652.87,25.3,646.75,32.08,646.75,40.48Zm14.7-10.02a7.751,7.751,0,0,1,8.16,7.68H653.29C653.59,34.6,656.05,30.46,661.45,30.46Zm18,20.76c3,2.94,7.5,4.5,12.42,4.5,7.8,0,12.06-3.9,12.06-9,0-6.84-6.18-8.28-11.22-9.36-3.42-.78-6.3-1.56-6.3-3.78,0-2.04,2.1-3.24,5.4-3.24a11.687,11.687,0,0,1,8.58,3.48l2.64-4.44a16.567,16.567,0,0,0-11.28-4.08c-7.32,0-11.4,4.08-11.4,8.82,0,6.48,5.94,7.8,10.92,8.88,3.54.78,6.6,1.68,6.6,4.2,0,2.16-1.92,3.54-5.7,3.54a14.958,14.958,0,0,1-9.84-4.08ZM26.29,130.48c0,9.18,6.48,15.24,15.18,15.24a16.892,16.892,0,0,0,11.76-4.2l-2.88-4.14a12.265,12.265,0,0,1-8.22,3.18c-5.46,0-8.76-3.6-9.24-7.98H55.27v-1.5c0-9.12-5.58-15.78-14.28-15.78C32.41,115.3,26.29,122.08,26.29,130.48Zm14.7-10.02a7.751,7.751,0,0,1,8.16,7.68H32.83C33.13,124.6,35.59,120.46,40.99,120.46ZM97.03,145h6.3V124.06c0-5.88-3-8.76-8.34-8.76a12.291,12.291,0,0,0-9.84,5.34c-.96-3.18-3.6-5.34-7.92-5.34a12.516,12.516,0,0,0-9.42,4.68v-3.96h-6.3V145h6.3V124.78c1.32-1.92,3.9-3.9,6.66-3.9,3.42,0,4.8,2.1,4.8,5.22V145h6.3V124.72a8.793,8.793,0,0,1,6.72-3.84c3.36,0,4.74,2.1,4.74,5.22Zm20.76,11.04V140.98a11.379,11.379,0,0,0,9.3,4.74c7.5,0,12.84-5.7,12.84-15.24s-5.34-15.18-12.84-15.18a11.564,11.564,0,0,0-9.3,4.68v-3.96h-6.3v40.02Zm15.6-25.56c0,5.64-3.18,9.66-8.16,9.66a9.576,9.576,0,0,1-7.44-3.9V124.78a9.4,9.4,0,0,1,7.44-3.9C130.21,120.88,133.39,124.9,133.39,130.48ZM146.29,145h6.3V104.98h-6.3Zm27.54.72c9.3,0,14.94-6.9,14.94-15.24,0-8.28-5.64-15.18-14.94-15.18-9.18,0-14.88,6.9-14.88,15.18C158.95,138.82,164.65,145.72,173.83,145.72Zm0-5.58c-5.34,0-8.34-4.5-8.34-9.66,0-5.1,3-9.6,8.34-9.6,5.4,0,8.4,4.5,8.4,9.6C182.23,135.64,179.23,140.14,173.83,140.14Zm21,10.56-.96,5.64a17.817,17.817,0,0,0,3.54.42c4.5-.06,7.98-1.62,9.96-6.54l13.98-34.2h-6.78l-8.46,21.72-8.46-21.72h-6.72l11.88,29.34-1.44,3.3c-.84,1.92-2.16,2.52-4.14,2.52A6.584,6.584,0,0,1,194.83,150.7Zm28.68-20.22c0,9.18,6.48,15.24,15.18,15.24a16.892,16.892,0,0,0,11.76-4.2l-2.88-4.14a12.265,12.265,0,0,1-8.22,3.18c-5.46,0-8.76-3.6-9.24-7.98h22.38v-1.5c0-9.12-5.58-15.78-14.28-15.78C229.63,115.3,223.51,122.08,223.51,130.48Zm14.7-10.02a7.751,7.751,0,0,1,8.16,7.68H230.05C230.35,124.6,232.81,120.46,238.21,120.46Zm18.72,10.02c0,9.18,6.48,15.24,15.18,15.24a16.892,16.892,0,0,0,11.76-4.2l-2.88-4.14a12.266,12.266,0,0,1-8.22,3.18c-5.46,0-8.76-3.6-9.24-7.98h22.38v-1.5c0-9.12-5.58-15.78-14.28-15.78C263.05,115.3,256.93,122.08,256.93,130.48Zm14.7-10.02a7.751,7.751,0,0,1,8.16,7.68H263.47C263.77,124.6,266.23,120.46,271.63,120.46Zm44.64,25.26c2.94,0,4.8-.78,5.94-1.86l-1.5-4.74a4.067,4.067,0,0,1-2.82,1.02c-1.8,0-2.76-1.44-2.76-3.42V121.54h5.88v-5.52h-5.88V108.1h-6.3v7.92h-4.8v5.52h4.8v16.74C308.83,143.08,311.41,145.72,316.27,145.72Zm30-.72h6.3V116.02h-6.3v20.34a9.639,9.639,0,0,1-7.44,3.78c-3.54,0-5.82-1.38-5.82-5.88V116.02h-6.3v20.52c0,5.94,3.06,9.18,9.3,9.18a13.89,13.89,0,0,0,10.26-4.56Zm14.46,0h6.3V125.26c1.26-2.04,4.8-3.84,7.44-3.84a9.287,9.287,0,0,1,1.98.18v-6.24a12.376,12.376,0,0,0-9.42,4.92v-4.26h-6.3Zm40.38,0h6.3V124.6c0-5.94-3.12-9.3-9.36-9.3a13.711,13.711,0,0,0-10.2,4.68v-3.96h-6.3V145h6.3V124.78a9.54,9.54,0,0,1,7.44-3.9c3.54,0,5.82,1.5,5.82,6Zm27.54.72c9.3,0,14.94-6.9,14.94-15.24,0-8.28-5.64-15.18-14.94-15.18-9.18,0-14.88,6.9-14.88,15.18C413.77,138.82,419.47,145.72,428.65,145.72Zm0-5.58c-5.34,0-8.34-4.5-8.34-9.66,0-5.1,3-9.6,8.34-9.6,5.4,0,8.4,4.5,8.4,9.6C437.05,135.64,434.05,140.14,428.65,140.14ZM457.57,145h6.78l11.82-28.98h-6.78l-8.46,21.72-8.46-21.72h-6.72Zm20.76-14.52c0,9.18,6.48,15.24,15.18,15.24a16.892,16.892,0,0,0,11.76-4.2l-2.88-4.14a12.265,12.265,0,0,1-8.22,3.18c-5.46,0-8.76-3.6-9.24-7.98h22.38v-1.5c0-9.12-5.58-15.78-14.28-15.78C484.45,115.3,478.33,122.08,478.33,130.48Zm14.7-10.02a7.751,7.751,0,0,1,8.16,7.68H484.87C485.17,124.6,487.63,120.46,493.03,120.46ZM513.55,145h6.3V125.26c1.26-2.04,4.8-3.84,7.44-3.84a9.287,9.287,0,0,1,1.98.18v-6.24a12.376,12.376,0,0,0-9.42,4.92v-4.26h-6.3Zm36.24,0h6.3v-3.96a11.649,11.649,0,0,0,9.3,4.68c7.38,0,12.84-5.64,12.84-15.18,0-9.36-5.4-15.24-12.84-15.24a11.459,11.459,0,0,0-9.3,4.74V104.98h-6.3Zm6.3-8.7V124.84a9.457,9.457,0,0,1,7.44-3.96c5.04,0,8.22,4.02,8.22,9.66s-3.18,9.6-8.22,9.6A9.352,9.352,0,0,1,556.09,136.3Zm28.26,14.4-.96,5.64a17.817,17.817,0,0,0,3.54.42c4.5-.06,7.98-1.62,9.96-6.54l13.98-34.2h-6.78l-8.46,21.72-8.46-21.72h-6.72l11.88,29.34-1.44,3.3c-.84,1.92-2.16,2.52-4.14,2.52A6.584,6.584,0,0,1,584.35,150.7Zm46.26-9.48a15.727,15.727,0,0,0,11.46,4.44c11.58,0,17.64-9.12,17.64-20.64,0-11.16-4.74-20.7-16.5-20.7-8.94,0-14.76,6.06-14.76,13.44,0,8.52,6.24,12.96,13.44,12.96a13.876,13.876,0,0,0,10.74-5.64v1.2c0,6.54-3.3,13.14-10.56,13.14a10.509,10.509,0,0,1-8.22-3.48Zm21.9-21.24a10.818,10.818,0,0,1-8.76,4.68c-4.32,0-8.16-2.22-8.16-7.14,0-3.18,2.76-6.96,7.98-6.96C649.75,110.56,652.15,115.66,652.51,119.98Zm11.4-5.58a9.5,9.5,0,0,0,9.9,9.84c6,0,10.02-4.26,10.02-9.84a9.674,9.674,0,0,0-10.02-10.02C667.87,104.38,663.91,108.76,663.91,114.4Zm6.06,30.6h3.96l25.62-40.02h-4.02Zm9.18-30.6c0,3.42-2.22,5.88-5.34,5.88-3.06,0-5.28-2.46-5.28-5.88,0-3.6,2.22-6,5.28-6C676.93,108.4,679.15,110.8,679.15,114.4Zm6.3,21.48a9.93,9.93,0,0,0,19.86,0,9.66,9.66,0,0,0-9.96-10.02C689.41,125.86,685.45,130.24,685.45,135.88Zm15.24,0c0,3.48-2.22,5.88-5.34,5.88s-5.28-2.4-5.28-5.88c0-3.6,2.16-6,5.28-6S700.69,132.28,700.69,135.88Z" transform="translate(275 42)" fill="#194253"/>
    </g>
  </g>
</svg>
