<svg xmlns="http://www.w3.org/2000/svg" xmlns:xlink="http://www.w3.org/1999/xlink" width="1280" height="800" viewBox="0 0 1280 800">
  <defs>
    <filter id="Path_180" x="409.673" y="305.566" width="775.826" height="130.623" filterUnits="userSpaceOnUse">
      <feOffset dy="5" input="SourceAlpha"/>
      <feGaussianBlur stdDeviation="3.5" result="blur"/>
      <feFlood flood-opacity="0.161"/>
      <feComposite operator="in" in2="blur"/>
      <feComposite in="SourceGraphic"/>
    </filter>
    <clipPath id="clip-_2019-010-23-crisis-management-training01">
      <rect width="1280" height="800"/>
    </clipPath>
  </defs>
  <g id="_2019-010-23-crisis-management-training01" data-name="2019-010-23-crisis-management-training01" clip-path="url(#clip-_2019-010-23-crisis-management-training01)">
    <rect width="1280" height="800" fill="#004b63"/>
    <g id="Group_68" data-name="Group 68" transform="translate(0 -0.193)" opacity="0.03">
      <path id="Path_169" data-name="Path 169" d="M999.234,566.239H984.278v13.353H970.925v14.956h13.353V607.9h14.956V594.548h13.353V579.593H999.234Z" transform="translate(-970.925 -566.047)" fill="#fff"/>
      <path id="Path_170" data-name="Path 170" d="M999.234,566.239H984.278v13.353H970.925v14.956h13.353V607.9h14.956V594.548h13.353V579.593H999.234Z" transform="translate(267.075 -566.047)" fill="#fff"/>
      <path id="Path_171" data-name="Path 171" d="M999.234,566.239H984.278v13.353H970.925v14.956h13.353V607.9h14.956V594.548h13.353V579.593H999.234Z" transform="translate(143.075 -566.047)" fill="#fff"/>
      <path id="Path_172" data-name="Path 172" d="M999.234,566.239H984.278v13.353H970.925v14.956h13.353V607.9h14.956V594.548h13.353V579.593H999.234Z" transform="translate(19.075 -566.047)" fill="#fff"/>
      <path id="Path_173" data-name="Path 173" d="M999.234,566.239H984.278v13.353H970.925v14.956h13.353V607.9h14.956V594.548h13.353V579.593H999.234Z" transform="translate(-351.925 -566.047)" fill="#fff"/>
      <path id="Path_177" data-name="Path 177" d="M999.234,566.239H984.278v13.353H970.925v14.956h13.353V607.9h14.956V594.548h13.353V579.593H999.234Z" transform="translate(-227.925 -566.047)" fill="#fff"/>
      <path id="Path_179" data-name="Path 179" d="M999.234,566.239H984.278v13.353H970.925v14.956h13.353V607.9h14.956V594.548h13.353V579.593H999.234Z" transform="translate(-103.925 -566.047)" fill="#fff"/>
      <path id="Path_174" data-name="Path 174" d="M999.234,566.239H984.278v13.353H970.925v14.956h13.353V607.9h14.956V594.548h13.353V579.593H999.234Z" transform="translate(-722.925 -566.047)" fill="#fff"/>
      <path id="Path_175" data-name="Path 175" d="M999.234,566.239H984.278v13.353H970.925v14.956h13.353V607.9h14.956V594.548h13.353V579.593H999.234Z" transform="translate(-846.925 -566.047)" fill="#fff"/>
      <path id="Path_176" data-name="Path 176" d="M999.234,566.239H984.278v13.353H970.925v14.956h13.353V607.9h14.956V594.548h13.353V579.593H999.234Z" transform="translate(-599.925 -566.047)" fill="#fff"/>
      <path id="Path_178" data-name="Path 178" d="M999.234,566.239H984.278v13.353H970.925v14.956h13.353V607.9h14.956V594.548h13.353V579.593H999.234Z" transform="translate(-475.925 -566.047)" fill="#fff"/>
    </g>
    <g id="Group_69" data-name="Group 69" transform="translate(0 97.807)" opacity="0.03">
      <path id="Path_169-2" data-name="Path 169" d="M999.234,566.239H984.278v13.353H970.925v14.956h13.353V607.9h14.956V594.548h13.353V579.593H999.234Z" transform="translate(-970.925 -566.047)" fill="#fff"/>
      <path id="Path_170-2" data-name="Path 170" d="M999.234,566.239H984.278v13.353H970.925v14.956h13.353V607.9h14.956V594.548h13.353V579.593H999.234Z" transform="translate(267.075 -566.047)" fill="#fff"/>
      <path id="Path_171-2" data-name="Path 171" d="M999.234,566.239H984.278v13.353H970.925v14.956h13.353V607.9h14.956V594.548h13.353V579.593H999.234Z" transform="translate(143.075 -566.047)" fill="#fff"/>
      <path id="Path_172-2" data-name="Path 172" d="M999.234,566.239H984.278v13.353H970.925v14.956h13.353V607.9h14.956V594.548h13.353V579.593H999.234Z" transform="translate(19.075 -566.047)" fill="#fff"/>
      <path id="Path_173-2" data-name="Path 173" d="M999.234,566.239H984.278v13.353H970.925v14.956h13.353V607.9h14.956V594.548h13.353V579.593H999.234Z" transform="translate(-351.925 -566.047)" fill="#fff"/>
      <path id="Path_177-2" data-name="Path 177" d="M999.234,566.239H984.278v13.353H970.925v14.956h13.353V607.9h14.956V594.548h13.353V579.593H999.234Z" transform="translate(-227.925 -566.047)" fill="#fff"/>
      <path id="Path_179-2" data-name="Path 179" d="M999.234,566.239H984.278v13.353H970.925v14.956h13.353V607.9h14.956V594.548h13.353V579.593H999.234Z" transform="translate(-103.925 -566.047)" fill="#fff"/>
      <path id="Path_174-2" data-name="Path 174" d="M999.234,566.239H984.278v13.353H970.925v14.956h13.353V607.9h14.956V594.548h13.353V579.593H999.234Z" transform="translate(-722.925 -566.047)" fill="#fff"/>
      <path id="Path_175-2" data-name="Path 175" d="M999.234,566.239H984.278v13.353H970.925v14.956h13.353V607.9h14.956V594.548h13.353V579.593H999.234Z" transform="translate(-846.925 -566.047)" fill="#fff"/>
      <path id="Path_176-2" data-name="Path 176" d="M999.234,566.239H984.278v13.353H970.925v14.956h13.353V607.9h14.956V594.548h13.353V579.593H999.234Z" transform="translate(-599.925 -566.047)" fill="#fff"/>
      <path id="Path_178-2" data-name="Path 178" d="M999.234,566.239H984.278v13.353H970.925v14.956h13.353V607.9h14.956V594.548h13.353V579.593H999.234Z" transform="translate(-475.925 -566.047)" fill="#fff"/>
    </g>
    <g id="Group_70" data-name="Group 70" transform="translate(0 195.807)" opacity="0.03">
      <path id="Path_169-3" data-name="Path 169" d="M999.234,566.239H984.278v13.353H970.925v14.956h13.353V607.9h14.956V594.548h13.353V579.593H999.234Z" transform="translate(-970.925 -566.047)" fill="#fff"/>
      <path id="Path_170-3" data-name="Path 170" d="M999.234,566.239H984.278v13.353H970.925v14.956h13.353V607.9h14.956V594.548h13.353V579.593H999.234Z" transform="translate(267.075 -566.047)" fill="#fff"/>
      <path id="Path_171-3" data-name="Path 171" d="M999.234,566.239H984.278v13.353H970.925v14.956h13.353V607.9h14.956V594.548h13.353V579.593H999.234Z" transform="translate(143.075 -566.047)" fill="#fff"/>
      <path id="Path_172-3" data-name="Path 172" d="M999.234,566.239H984.278v13.353H970.925v14.956h13.353V607.9h14.956V594.548h13.353V579.593H999.234Z" transform="translate(19.075 -566.047)" fill="#fff"/>
      <path id="Path_173-3" data-name="Path 173" d="M999.234,566.239H984.278v13.353H970.925v14.956h13.353V607.9h14.956V594.548h13.353V579.593H999.234Z" transform="translate(-351.925 -566.047)" fill="#fff"/>
      <path id="Path_177-3" data-name="Path 177" d="M999.234,566.239H984.278v13.353H970.925v14.956h13.353V607.9h14.956V594.548h13.353V579.593H999.234Z" transform="translate(-227.925 -566.047)" fill="#fff"/>
      <path id="Path_179-3" data-name="Path 179" d="M999.234,566.239H984.278v13.353H970.925v14.956h13.353V607.9h14.956V594.548h13.353V579.593H999.234Z" transform="translate(-103.925 -566.047)" fill="#fff"/>
      <path id="Path_174-3" data-name="Path 174" d="M999.234,566.239H984.278v13.353H970.925v14.956h13.353V607.9h14.956V594.548h13.353V579.593H999.234Z" transform="translate(-722.925 -566.047)" fill="#fff"/>
      <path id="Path_175-3" data-name="Path 175" d="M999.234,566.239H984.278v13.353H970.925v14.956h13.353V607.9h14.956V594.548h13.353V579.593H999.234Z" transform="translate(-846.925 -566.047)" fill="#fff"/>
      <path id="Path_176-3" data-name="Path 176" d="M999.234,566.239H984.278v13.353H970.925v14.956h13.353V607.9h14.956V594.548h13.353V579.593H999.234Z" transform="translate(-599.925 -566.047)" fill="#fff"/>
      <path id="Path_178-3" data-name="Path 178" d="M999.234,566.239H984.278v13.353H970.925v14.956h13.353V607.9h14.956V594.548h13.353V579.593H999.234Z" transform="translate(-475.925 -566.047)" fill="#fff"/>
    </g>
    <g id="Group_71" data-name="Group 71" transform="translate(0 683.807)" opacity="0.03">
      <path id="Path_169-4" data-name="Path 169" d="M999.234,566.239H984.278v13.353H970.925v14.956h13.353V607.9h14.956V594.548h13.353V579.593H999.234Z" transform="translate(-970.925 -566.047)" fill="#fff"/>
      <path id="Path_170-4" data-name="Path 170" d="M999.234,566.239H984.278v13.353H970.925v14.956h13.353V607.9h14.956V594.548h13.353V579.593H999.234Z" transform="translate(267.075 -566.047)" fill="#fff"/>
      <path id="Path_171-4" data-name="Path 171" d="M999.234,566.239H984.278v13.353H970.925v14.956h13.353V607.9h14.956V594.548h13.353V579.593H999.234Z" transform="translate(143.075 -566.047)" fill="#fff"/>
      <path id="Path_172-4" data-name="Path 172" d="M999.234,566.239H984.278v13.353H970.925v14.956h13.353V607.9h14.956V594.548h13.353V579.593H999.234Z" transform="translate(19.075 -566.047)" fill="#fff"/>
      <path id="Path_173-4" data-name="Path 173" d="M999.234,566.239H984.278v13.353H970.925v14.956h13.353V607.9h14.956V594.548h13.353V579.593H999.234Z" transform="translate(-351.925 -566.047)" fill="#fff"/>
      <path id="Path_177-4" data-name="Path 177" d="M999.234,566.239H984.278v13.353H970.925v14.956h13.353V607.9h14.956V594.548h13.353V579.593H999.234Z" transform="translate(-227.925 -566.047)" fill="#fff"/>
      <path id="Path_179-4" data-name="Path 179" d="M999.234,566.239H984.278v13.353H970.925v14.956h13.353V607.9h14.956V594.548h13.353V579.593H999.234Z" transform="translate(-103.925 -566.047)" fill="#fff"/>
      <path id="Path_174-4" data-name="Path 174" d="M999.234,566.239H984.278v13.353H970.925v14.956h13.353V607.9h14.956V594.548h13.353V579.593H999.234Z" transform="translate(-722.925 -566.047)" fill="#fff"/>
      <path id="Path_175-4" data-name="Path 175" d="M999.234,566.239H984.278v13.353H970.925v14.956h13.353V607.9h14.956V594.548h13.353V579.593H999.234Z" transform="translate(-846.925 -566.047)" fill="#fff"/>
      <path id="Path_176-4" data-name="Path 176" d="M999.234,566.239H984.278v13.353H970.925v14.956h13.353V607.9h14.956V594.548h13.353V579.593H999.234Z" transform="translate(-599.925 -566.047)" fill="#fff"/>
      <path id="Path_178-4" data-name="Path 178" d="M999.234,566.239H984.278v13.353H970.925v14.956h13.353V607.9h14.956V594.548h13.353V579.593H999.234Z" transform="translate(-475.925 -566.047)" fill="#fff"/>
    </g>
    <g id="Group_72" data-name="Group 72" transform="translate(0 585.807)" opacity="0.03">
      <path id="Path_169-5" data-name="Path 169" d="M999.234,566.239H984.278v13.353H970.925v14.956h13.353V607.9h14.956V594.548h13.353V579.593H999.234Z" transform="translate(-970.925 -566.047)" fill="#fff"/>
      <path id="Path_170-5" data-name="Path 170" d="M999.234,566.239H984.278v13.353H970.925v14.956h13.353V607.9h14.956V594.548h13.353V579.593H999.234Z" transform="translate(267.075 -566.047)" fill="#fff"/>
      <path id="Path_171-5" data-name="Path 171" d="M999.234,566.239H984.278v13.353H970.925v14.956h13.353V607.9h14.956V594.548h13.353V579.593H999.234Z" transform="translate(143.075 -566.047)" fill="#fff"/>
      <path id="Path_172-5" data-name="Path 172" d="M999.234,566.239H984.278v13.353H970.925v14.956h13.353V607.9h14.956V594.548h13.353V579.593H999.234Z" transform="translate(19.075 -566.047)" fill="#fff"/>
      <path id="Path_173-5" data-name="Path 173" d="M999.234,566.239H984.278v13.353H970.925v14.956h13.353V607.9h14.956V594.548h13.353V579.593H999.234Z" transform="translate(-351.925 -566.047)" fill="#fff"/>
      <path id="Path_177-5" data-name="Path 177" d="M999.234,566.239H984.278v13.353H970.925v14.956h13.353V607.9h14.956V594.548h13.353V579.593H999.234Z" transform="translate(-227.925 -566.047)" fill="#fff"/>
      <path id="Path_179-5" data-name="Path 179" d="M999.234,566.239H984.278v13.353H970.925v14.956h13.353V607.9h14.956V594.548h13.353V579.593H999.234Z" transform="translate(-103.925 -566.047)" fill="#fff"/>
      <path id="Path_174-5" data-name="Path 174" d="M999.234,566.239H984.278v13.353H970.925v14.956h13.353V607.9h14.956V594.548h13.353V579.593H999.234Z" transform="translate(-722.925 -566.047)" fill="#fff"/>
      <path id="Path_175-5" data-name="Path 175" d="M999.234,566.239H984.278v13.353H970.925v14.956h13.353V607.9h14.956V594.548h13.353V579.593H999.234Z" transform="translate(-846.925 -566.047)" fill="#fff"/>
      <path id="Path_176-5" data-name="Path 176" d="M999.234,566.239H984.278v13.353H970.925v14.956h13.353V607.9h14.956V594.548h13.353V579.593H999.234Z" transform="translate(-599.925 -566.047)" fill="#fff"/>
      <path id="Path_178-5" data-name="Path 178" d="M999.234,566.239H984.278v13.353H970.925v14.956h13.353V607.9h14.956V594.548h13.353V579.593H999.234Z" transform="translate(-475.925 -566.047)" fill="#fff"/>
    </g>
    <g id="Group_73" data-name="Group 73" transform="translate(0 488.807)" opacity="0.03">
      <path id="Path_169-6" data-name="Path 169" d="M999.234,566.239H984.278v13.353H970.925v14.956h13.353V607.9h14.956V594.548h13.353V579.593H999.234Z" transform="translate(-970.925 -566.047)" fill="#fff"/>
      <path id="Path_170-6" data-name="Path 170" d="M999.234,566.239H984.278v13.353H970.925v14.956h13.353V607.9h14.956V594.548h13.353V579.593H999.234Z" transform="translate(267.075 -566.047)" fill="#fff"/>
      <path id="Path_171-6" data-name="Path 171" d="M999.234,566.239H984.278v13.353H970.925v14.956h13.353V607.9h14.956V594.548h13.353V579.593H999.234Z" transform="translate(143.075 -566.047)" fill="#fff"/>
      <path id="Path_172-6" data-name="Path 172" d="M999.234,566.239H984.278v13.353H970.925v14.956h13.353V607.9h14.956V594.548h13.353V579.593H999.234Z" transform="translate(19.075 -566.047)" fill="#fff"/>
      <path id="Path_173-6" data-name="Path 173" d="M999.234,566.239H984.278v13.353H970.925v14.956h13.353V607.9h14.956V594.548h13.353V579.593H999.234Z" transform="translate(-351.925 -566.047)" fill="#fff"/>
      <path id="Path_177-6" data-name="Path 177" d="M999.234,566.239H984.278v13.353H970.925v14.956h13.353V607.9h14.956V594.548h13.353V579.593H999.234Z" transform="translate(-227.925 -566.047)" fill="#fff"/>
      <path id="Path_179-6" data-name="Path 179" d="M999.234,566.239H984.278v13.353H970.925v14.956h13.353V607.9h14.956V594.548h13.353V579.593H999.234Z" transform="translate(-103.925 -566.047)" fill="#fff"/>
      <path id="Path_174-6" data-name="Path 174" d="M999.234,566.239H984.278v13.353H970.925v14.956h13.353V607.9h14.956V594.548h13.353V579.593H999.234Z" transform="translate(-722.925 -566.047)" fill="#fff"/>
      <path id="Path_175-6" data-name="Path 175" d="M999.234,566.239H984.278v13.353H970.925v14.956h13.353V607.9h14.956V594.548h13.353V579.593H999.234Z" transform="translate(-846.925 -566.047)" fill="#fff"/>
      <path id="Path_176-6" data-name="Path 176" d="M999.234,566.239H984.278v13.353H970.925v14.956h13.353V607.9h14.956V594.548h13.353V579.593H999.234Z" transform="translate(-599.925 -566.047)" fill="#fff"/>
      <path id="Path_178-6" data-name="Path 178" d="M999.234,566.239H984.278v13.353H970.925v14.956h13.353V607.9h14.956V594.548h13.353V579.593H999.234Z" transform="translate(-475.925 -566.047)" fill="#fff"/>
    </g>
    <g id="Group_74" data-name="Group 74" transform="translate(0 390.807)" opacity="0.03">
      <path id="Path_169-7" data-name="Path 169" d="M999.234,566.239H984.278v13.353H970.925v14.956h13.353V607.9h14.956V594.548h13.353V579.593H999.234Z" transform="translate(-970.925 -566.047)" fill="#fff"/>
      <path id="Path_170-7" data-name="Path 170" d="M999.234,566.239H984.278v13.353H970.925v14.956h13.353V607.9h14.956V594.548h13.353V579.593H999.234Z" transform="translate(267.075 -566.047)" fill="#fff"/>
      <path id="Path_171-7" data-name="Path 171" d="M999.234,566.239H984.278v13.353H970.925v14.956h13.353V607.9h14.956V594.548h13.353V579.593H999.234Z" transform="translate(143.075 -566.047)" fill="#fff"/>
      <path id="Path_172-7" data-name="Path 172" d="M999.234,566.239H984.278v13.353H970.925v14.956h13.353V607.9h14.956V594.548h13.353V579.593H999.234Z" transform="translate(19.075 -566.047)" fill="#fff"/>
      <path id="Path_173-7" data-name="Path 173" d="M999.234,566.239H984.278v13.353H970.925v14.956h13.353V607.9h14.956V594.548h13.353V579.593H999.234Z" transform="translate(-351.925 -566.047)" fill="#fff"/>
      <path id="Path_177-7" data-name="Path 177" d="M999.234,566.239H984.278v13.353H970.925v14.956h13.353V607.9h14.956V594.548h13.353V579.593H999.234Z" transform="translate(-227.925 -566.047)" fill="#fff"/>
      <path id="Path_179-7" data-name="Path 179" d="M999.234,566.239H984.278v13.353H970.925v14.956h13.353V607.9h14.956V594.548h13.353V579.593H999.234Z" transform="translate(-103.925 -566.047)" fill="#fff"/>
      <path id="Path_174-7" data-name="Path 174" d="M999.234,566.239H984.278v13.353H970.925v14.956h13.353V607.9h14.956V594.548h13.353V579.593H999.234Z" transform="translate(-722.925 -566.047)" fill="#fff"/>
      <path id="Path_175-7" data-name="Path 175" d="M999.234,566.239H984.278v13.353H970.925v14.956h13.353V607.9h14.956V594.548h13.353V579.593H999.234Z" transform="translate(-846.925 -566.047)" fill="#fff"/>
      <path id="Path_176-7" data-name="Path 176" d="M999.234,566.239H984.278v13.353H970.925v14.956h13.353V607.9h14.956V594.548h13.353V579.593H999.234Z" transform="translate(-599.925 -566.047)" fill="#fff"/>
      <path id="Path_178-7" data-name="Path 178" d="M999.234,566.239H984.278v13.353H970.925v14.956h13.353V607.9h14.956V594.548h13.353V579.593H999.234Z" transform="translate(-475.925 -566.047)" fill="#fff"/>
    </g>
    <g id="Group_75" data-name="Group 75" transform="translate(0 292.807)" opacity="0.03">
      <path id="Path_169-8" data-name="Path 169" d="M999.234,566.239H984.278v13.353H970.925v14.956h13.353V607.9h14.956V594.548h13.353V579.593H999.234Z" transform="translate(-970.925 -566.047)" fill="#fff"/>
      <path id="Path_170-8" data-name="Path 170" d="M999.234,566.239H984.278v13.353H970.925v14.956h13.353V607.9h14.956V594.548h13.353V579.593H999.234Z" transform="translate(267.075 -566.047)" fill="#fff"/>
      <path id="Path_171-8" data-name="Path 171" d="M999.234,566.239H984.278v13.353H970.925v14.956h13.353V607.9h14.956V594.548h13.353V579.593H999.234Z" transform="translate(143.075 -566.047)" fill="#fff"/>
      <path id="Path_172-8" data-name="Path 172" d="M999.234,566.239H984.278v13.353H970.925v14.956h13.353V607.9h14.956V594.548h13.353V579.593H999.234Z" transform="translate(19.075 -566.047)" fill="#fff"/>
      <path id="Path_173-8" data-name="Path 173" d="M999.234,566.239H984.278v13.353H970.925v14.956h13.353V607.9h14.956V594.548h13.353V579.593H999.234Z" transform="translate(-351.925 -566.047)" fill="#fff"/>
      <path id="Path_177-8" data-name="Path 177" d="M999.234,566.239H984.278v13.353H970.925v14.956h13.353V607.9h14.956V594.548h13.353V579.593H999.234Z" transform="translate(-227.925 -566.047)" fill="#fff"/>
      <path id="Path_179-8" data-name="Path 179" d="M999.234,566.239H984.278v13.353H970.925v14.956h13.353V607.9h14.956V594.548h13.353V579.593H999.234Z" transform="translate(-103.925 -566.047)" fill="#fff"/>
      <path id="Path_174-8" data-name="Path 174" d="M999.234,566.239H984.278v13.353H970.925v14.956h13.353V607.9h14.956V594.548h13.353V579.593H999.234Z" transform="translate(-722.925 -566.047)" fill="#fff"/>
      <path id="Path_175-8" data-name="Path 175" d="M999.234,566.239H984.278v13.353H970.925v14.956h13.353V607.9h14.956V594.548h13.353V579.593H999.234Z" transform="translate(-846.925 -566.047)" fill="#fff"/>
      <path id="Path_176-8" data-name="Path 176" d="M999.234,566.239H984.278v13.353H970.925v14.956h13.353V607.9h14.956V594.548h13.353V579.593H999.234Z" transform="translate(-599.925 -566.047)" fill="#fff"/>
      <path id="Path_178-8" data-name="Path 178" d="M999.234,566.239H984.278v13.353H970.925v14.956h13.353V607.9h14.956V594.548h13.353V579.593H999.234Z" transform="translate(-475.925 -566.047)" fill="#fff"/>
    </g>
    <rect id="Rectangle_44" data-name="Rectangle 44" width="1280" height="74" transform="translate(0 726)" fill="#e45746"/>
    <g id="Group_52" data-name="Group 52" transform="translate(961.462 746)">
      <g id="nav__logo__e_1_">
        <path id="Path_137" data-name="Path 137" d="M23.4,35.564h9.954a1.93,1.93,0,0,0,1.935-1.843V26.9A36.608,36.608,0,0,1,23.4,35.564Z" transform="translate(-1.833 -2.107)" fill="#fff"/>
        <path id="Path_138" data-name="Path 138" d="M19.731,10.977C19.639,9.226,18.348,8.12,15.583,8.4,10.146,8.765,6,14.94,4.8,21.3,16.6,20.378,19.823,13.189,19.731,10.977Z" transform="translate(-0.376 -0.654)" fill="#fff"/>
        <path id="Path_139" data-name="Path 139" d="M18.341,3.963c5.622-.369,8.2,1.843,8.387,4.608.461,6.083-9.493,13.272-22.581,14.378H3.963a10.209,10.209,0,0,0,.369,5.069c.922,2.4,3.318,3.318,6.083,3.318,12.166,0,21.106-13.456,23.041-19.539V1.843A1.871,1.871,0,0,0,31.521,0H1.843A1.849,1.849,0,0,0,0,1.843V15.484C4.793,9.4,12.166,4.424,18.341,3.963Z" fill="#fff"/>
      </g>
      <g id="nav__logo__edgepoint_1_" transform="translate(51.982 7.097)">
        <path id="Path_140" data-name="Path 140" d="M62.3,23.683a4.855,4.855,0,0,0,3.779-1.659l1.106.922a6.365,6.365,0,0,1-4.885,2.3,5.892,5.892,0,0,1-5.9-6.175c0-3.41,2.4-6.175,5.714-6.175,3.5,0,5.53,2.857,5.53,6.267v.553H58.151A4.081,4.081,0,0,0,62.3,23.683Zm3.41-5.346c-.184-2.12-1.475-4.055-3.779-4.055-2.028,0-3.594,1.751-3.871,4.055Z" transform="translate(-56.4 -8.107)" fill="#fff"/>
        <path id="Path_141" data-name="Path 141" d="M81.33,24.566v-2.4a5.23,5.23,0,0,1-4.516,2.673A5.856,5.856,0,0,1,71.1,18.668a5.856,5.856,0,0,1,5.714-6.175,5.228,5.228,0,0,1,4.516,2.581V7.7h1.751V24.566Zm-4.24-10.6c-2.3,0-4.147,1.751-4.147,4.608s1.935,4.608,4.147,4.608a4.452,4.452,0,0,0,4.332-4.608A4.452,4.452,0,0,0,77.091,13.967Z" transform="translate(-57.552 -7.7)" fill="#fff"/>
        <path id="Path_142" data-name="Path 142" d="M93.7,28.66A9.258,9.258,0,0,1,88.261,27l.829-1.382A8.066,8.066,0,0,0,93.7,27.094c2.581,0,4.332-1.475,4.332-4.24V21.471a5.681,5.681,0,0,1-4.7,2.581,5.427,5.427,0,0,1-5.53-5.53A5.5,5.5,0,0,1,93.33,12.9a5.773,5.773,0,0,1,4.7,2.4v-2.12h1.751v9.77C99.689,26.725,97.293,28.66,93.7,28.66Zm-.092-14.286a3.892,3.892,0,0,0-4.147,4.055,4,4,0,0,0,4.147,4.055A4.176,4.176,0,0,0,98.03,18.43,4.23,4.23,0,0,0,93.606,14.375Z" transform="translate(-58.86 -8.107)" fill="#fff"/>
        <path id="Path_143" data-name="Path 143" d="M110.2,23.683a4.855,4.855,0,0,0,3.779-1.659l1.106.922a6.365,6.365,0,0,1-4.885,2.3,5.892,5.892,0,0,1-5.9-6.175c0-3.41,2.4-6.175,5.714-6.175,3.5,0,5.53,2.857,5.53,6.267v.553h-9.4A3.948,3.948,0,0,0,110.2,23.683Zm3.41-5.346c-.184-2.12-1.475-4.055-3.779-4.055-2.028,0-3.594,1.751-3.871,4.055Z" transform="translate(-60.153 -8.107)" fill="#fff"/>
        <path id="Path_144" data-name="Path 144" d="M126.067,25.235a5.228,5.228,0,0,1-4.516-2.581v5.991H119.8V13.069h1.751v2.3a5.23,5.23,0,0,1,4.516-2.673,5.856,5.856,0,0,1,5.714,6.175C131.782,22.838,128.924,25.235,126.067,25.235ZM125.7,14.359a4.452,4.452,0,0,0-4.332,4.608,4.34,4.34,0,0,0,4.332,4.608c2.3,0,4.147-1.751,4.147-4.608A4.153,4.153,0,0,0,125.7,14.359Z" transform="translate(-61.367 -8.092)" fill="#fff"/>
        <path id="Path_145" data-name="Path 145" d="M141.675,25.242a6.116,6.116,0,0,1-6.175-6.175,6.194,6.194,0,0,1,6.175-6.267,6.116,6.116,0,0,1,6.175,6.175A6.194,6.194,0,0,1,141.675,25.242Zm0-10.876a4.339,4.339,0,0,0-4.332,4.608,4.491,4.491,0,0,0,4.424,4.7,4.412,4.412,0,0,0,4.424-4.608,4.625,4.625,0,0,0-4.516-4.7Z" transform="translate(-62.597 -8.1)" fill="#fff"/>
        <path id="Path_146" data-name="Path 146" d="M152.4,10.135V8.2h2.028v1.935Zm.184,14.47V12.716h1.751V24.605Z" transform="translate(-63.921 -7.739)" fill="#fff"/>
        <path id="Path_147" data-name="Path 147" d="M160.751,24.966H159V13.076h1.751V15.1a4.43,4.43,0,0,1,4.055-2.3c2.857,0,4.516,1.935,4.516,4.7v7.373h-1.751V17.961c0-2.212-1.2-3.594-3.318-3.594a3.51,3.51,0,0,0-3.594,3.687l.092,6.912Z" transform="translate(-64.438 -8.1)" fill="#fff"/>
        <path id="Path_148" data-name="Path 148" d="M176.618,21.274a1.8,1.8,0,0,0,2.028,2.028,3.994,3.994,0,0,0,1.751-.369v1.475a4,4,0,0,1-2.12.461c-1.935,0-3.318-.922-3.318-3.318V14.361H173.3V12.7h1.659V9.2h1.751v3.5h3.779v1.567H176.71v7Z" transform="translate(-65.558 -7.818)" fill="#fff"/>
      </g>
      <g id="nav__logo__learning_1_" transform="translate(176.958 7.097)">
        <path id="Path_149" data-name="Path 149" d="M192,24.566V7.7h1.751V24.566Z" transform="translate(-192 -7.7)" fill="#fff"/>
        <path id="Path_150" data-name="Path 150" d="M203.7,23.683a4.855,4.855,0,0,0,3.779-1.659l1.106.922a6.365,6.365,0,0,1-4.885,2.3,5.892,5.892,0,0,1-5.9-6.175c0-3.41,2.4-6.175,5.714-6.175,3.5,0,5.53,2.857,5.53,6.267v.553h-9.4a3.948,3.948,0,0,0,4.055,3.963Zm3.41-5.346c-.184-2.12-1.475-4.055-3.779-4.055-2.028,0-3.594,1.751-3.871,4.055Z" transform="translate(-192.454 -8.107)" fill="#fff"/>
        <path id="Path_151" data-name="Path 151" d="M213.759,15.4l-.553-1.475A9.105,9.105,0,0,1,217.538,13c3.226,0,5.069,1.659,5.069,4.793v7.281h-1.751V23.323a5.161,5.161,0,0,1-4.332,2.028c-2.212,0-4.424-1.2-4.424-3.687,0-2.581,2.028-3.871,5.069-3.871a13.114,13.114,0,0,1,3.594.461v-.369c0-2.12-1.29-3.226-3.594-3.226a5.9,5.9,0,0,0-3.41.737Zm.276,5.991c0,1.475,1.382,2.4,3.041,2.4,2.212,0,3.963-1.29,3.963-3.226v-1.2a11.937,11.937,0,0,0-3.5-.461c-2.212,0-3.5,1.014-3.5,2.488Z" transform="translate(-193.575 -8.115)" fill="#fff"/>
        <path id="Path_152" data-name="Path 152" d="M229.451,24.965H227.7V13.076h1.751v3.041a5.068,5.068,0,0,1,4.885-3.318v1.843h-.092c-2.581,0-4.7,1.843-4.7,5.438v4.885Z" transform="translate(-194.797 -8.099)" fill="#fff"/>
        <path id="Path_153" data-name="Path 153" d="M239.551,24.966H237.8V13.076h1.751V15.1a4.43,4.43,0,0,1,4.055-2.3c2.857,0,4.516,1.935,4.516,4.7v7.373h-1.751V17.961c0-2.212-1.2-3.594-3.318-3.594a3.51,3.51,0,0,0-3.594,3.687v6.912Z" transform="translate(-195.588 -8.1)" fill="#fff"/>
        <path id="Path_154" data-name="Path 154" d="M253.1,10.135V8.2h2.028v1.935Zm.184,14.47V12.716h1.751V24.605Z" transform="translate(-196.787 -7.739)" fill="#fff"/>
        <path id="Path_155" data-name="Path 155" d="M261.451,24.966H259.7V13.076h1.751V15.1a4.43,4.43,0,0,1,4.055-2.3c2.857,0,4.516,1.935,4.516,4.7v7.373h-1.751V17.961c0-2.212-1.2-3.594-3.318-3.594a3.51,3.51,0,0,0-3.594,3.687l.092,6.912Z" transform="translate(-197.304 -8.1)" fill="#fff"/>
        <path id="Path_156" data-name="Path 156" d="M280.3,28.66A9.258,9.258,0,0,1,274.861,27l.83-1.382a8.066,8.066,0,0,0,4.608,1.475c2.581,0,4.332-1.475,4.332-4.24V21.471a5.681,5.681,0,0,1-4.7,2.581,5.427,5.427,0,0,1-5.53-5.53,5.5,5.5,0,0,1,5.53-5.622,5.641,5.641,0,0,1,4.7,2.4v-2.12h1.751v9.77c-.092,3.779-2.488,5.714-6.083,5.714Zm-.092-14.286a3.892,3.892,0,0,0-4.147,4.055,4,4,0,0,0,4.147,4.055,4.176,4.176,0,0,0,4.424-4.055A4.23,4.23,0,0,0,280.206,14.375Z" transform="translate(-198.455 -8.107)" fill="#fff"/>
      </g>
    </g>
    <g transform="matrix(1, 0, 0, 1, 0, 0)" filter="url(#Path_180)">
      <path id="Path_180-2" data-name="Path 180" d="M2.173-17.6C2.173-7.791,6.36.636,16.748.636c7.9,0,13.038-5.3,13.038-11.872,0-7.526-5.459-11.395-11.819-11.395A12.045,12.045,0,0,0,8.48-17.7a6.086,6.086,0,0,1-.053-1.007c0-6.2,3.445-11.66,9.328-11.66a9.071,9.071,0,0,1,7.261,3.127l2.915-4.717a14.148,14.148,0,0,0-10.176-3.922C7.526-35.881,2.173-27.825,2.173-17.6Zm21.359,6.572c0,2.862-2.438,6.148-7.1,6.148-5.459,0-7.526-4.452-7.9-8.268a9.685,9.685,0,0,1,7.738-4.187C20.14-17.331,23.532-15.37,23.532-11.024Zm10.494-6.625c0,8.9,4.24,18.285,14.151,18.285S62.328-8.745,62.328-17.649s-4.24-18.232-14.151-18.232S34.026-26.553,34.026-17.649Zm22,0c0,6.731-2.067,12.773-7.844,12.773s-7.844-6.042-7.844-12.773,2.067-12.72,7.844-12.72S56.021-24.38,56.021-17.649Zm9.964-9.381a8.391,8.391,0,0,0,8.745,8.692,8.449,8.449,0,0,0,8.851-8.692,8.546,8.546,0,0,0-8.851-8.851A8.49,8.49,0,0,0,65.985-27.03ZM71.338,0h3.5L97.467-35.351H93.916Zm8.109-27.03c0,3.021-1.961,5.194-4.717,5.194-2.7,0-4.664-2.173-4.664-5.194,0-3.18,1.961-5.3,4.664-5.3C77.486-32.33,79.447-30.21,79.447-27.03ZM85.012-8.056A8.391,8.391,0,0,0,93.757.636a8.435,8.435,0,0,0,8.8-8.692,8.533,8.533,0,0,0-8.8-8.851A8.49,8.49,0,0,0,85.012-8.056Zm13.462,0c0,3.074-1.961,5.194-4.717,5.194s-4.664-2.12-4.664-5.194c0-3.18,1.908-5.3,4.664-5.3S98.474-11.236,98.474-8.056Zm21.359-9.593C119.833-7.1,127.306.636,137.906.636S155.979-7.1,155.979-17.649s-7.473-18.285-18.073-18.285S119.833-28.2,119.833-17.649Zm29.786,0c0,7.261-4.611,12.773-11.713,12.773-7.155,0-11.713-5.512-11.713-12.773,0-7.314,4.558-12.773,11.713-12.773C145.008-30.422,149.619-24.963,149.619-17.649ZM161.968,0h6.2V-15.264h17.649v-5.459H168.169v-9.169h18.02v-5.459H161.968Zm68.423,0h6.784L223.289-35.351h-7.738L201.665,0h6.784l2.6-6.784h16.748ZM219.42-30.1l6.625,17.861h-13.25ZM241.044,0h13.144c11.024,0,18.5-7.261,18.5-17.649s-7.473-17.7-18.5-17.7H241.044Zm6.2-5.459V-29.892h6.943c7.9,0,12.137,5.406,12.137,12.243,0,6.678-4.452,12.19-12.137,12.19Zm31.429-8.48c0,8.692,5.035,14.575,15.317,14.575,10.229,0,15.264-5.83,15.264-14.628V-35.351H303v21.2c0,5.618-3.127,9.275-9.01,9.275-5.936,0-9.063-3.657-9.063-9.275v-21.2h-6.254ZM316.781,0h21.783V-5.459H322.982V-35.351h-6.2Zm30.528,0h6.2V-29.892h10.706v-5.459H336.6v5.459h10.706Zm19.61-4.982c3.127,3.339,7.844,5.618,14.363,5.618,9.54,0,13.674-5.035,13.674-10.918,0-7.685-6.943-9.487-12.773-10.971-4.187-1.06-7.791-1.961-7.791-4.717,0-2.65,2.332-4.4,5.989-4.4a14.371,14.371,0,0,1,10.229,4.028l3.551-4.611c-3.286-3.18-7.738-4.929-13.25-4.929-7.738,0-12.879,4.505-12.879,10.335,0,7.473,6.784,9.169,12.561,10.6,4.293,1.113,8.056,2.067,8.056,5.247,0,2.332-2.014,4.823-7.1,4.823a15.249,15.249,0,0,1-11.183-4.876ZM414.3,0h13.144c11.024,0,18.5-7.261,18.5-17.649s-7.473-17.7-18.5-17.7H414.3Zm6.2-5.459V-29.892h6.943c7.9,0,12.137,5.406,12.137,12.243,0,6.678-4.452,12.19-12.137,12.19Zm29.839-12.19C450.341-7.1,457.814.636,468.414.636S486.487-7.1,486.487-17.649s-7.473-18.285-18.073-18.285S450.341-28.2,450.341-17.649Zm29.786,0c0,7.261-4.611,12.773-11.713,12.773-7.155,0-11.713-5.512-11.713-12.773,0-7.314,4.558-12.773,11.713-12.773C475.516-30.422,480.127-24.963,480.127-17.649ZM530.742,0h5.989V-35.351h-6.2v25.069L512.457-35.351H506.1V0h6.2V-25.758Zm11.925-17.649C542.667-7.1,550.14.636,560.74.636S578.813-7.1,578.813-17.649,571.34-35.934,560.74-35.934,542.667-28.2,542.667-17.649Zm29.786,0c0,7.261-4.611,12.773-11.713,12.773-7.155,0-11.713-5.512-11.713-12.773,0-7.314,4.558-12.773,11.713-12.773C567.842-30.422,572.453-24.963,572.453-17.649ZM591.9,0h6.2V-29.892h10.706v-5.459H581.2v5.459H591.9ZM3.763,73h6.2V59.8h9.328c7.367,0,11.554-5.088,11.554-11.077S26.712,37.649,19.292,37.649H3.763ZM24.486,48.726c0,3.392-2.544,5.618-6.042,5.618H9.964V43.108h8.48C21.942,43.108,24.486,45.334,24.486,48.726ZM56.18,73h7.155L54.7,59.114c4.24-.689,8.374-4.081,8.374-10.388,0-6.519-4.558-11.077-11.554-11.077H35.987V73h6.2V59.8h6.148Zm.53-24.274c0,3.392-2.544,5.618-6.042,5.618h-8.48V43.108h8.48C54.166,43.108,56.71,45.334,56.71,48.726ZM94.287,73h6.784L87.185,37.649H79.447L65.561,73h6.784l2.6-6.784H91.69ZM83.316,42.9l6.625,17.861H76.691Zm36.464,30.74a16.178,16.178,0,0,0,14.469-7.95l-5.3-2.7a10.5,10.5,0,0,1-9.169,5.141c-6.731,0-11.925-5.353-11.925-12.773s5.194-12.773,11.925-12.773a10.607,10.607,0,0,1,9.169,5.141l5.3-2.7a16.114,16.114,0,0,0-14.469-7.95c-10.176,0-18.285,7.42-18.285,18.285S109.6,73.636,119.78,73.636ZM147.658,73h6.2V43.108h10.706V37.649H136.952v5.459h10.706Zm22.154,0h6.2V37.649h-6.2Zm30.422.636a16.178,16.178,0,0,0,14.469-7.95l-5.3-2.7a10.5,10.5,0,0,1-9.169,5.141c-6.731,0-11.925-5.353-11.925-12.773s5.194-12.773,11.925-12.773a10.607,10.607,0,0,1,9.169,5.141l5.3-2.7a16.114,16.114,0,0,0-14.469-7.95c-10.176,0-18.285,7.42-18.285,18.285S190.058,73.636,200.234,73.636ZM219.685,73h24.221V67.541h-18.02V57.736h17.649V52.277H225.886V43.108h18.02V37.649H219.685Zm44.2,0h24.221V67.541h-18.02V57.736h17.649V52.277H270.088V43.108h18.02V37.649H263.887ZM325,73h6.2V37.649h-8.745l-9.646,23.8-9.593-23.8h-8.745V73h6.2V46.235L311.481,73h2.65L325,46.235Zm13.727,0h24.221V67.541h-18.02V57.736h17.649V52.277H344.924V43.108h18.02V37.649H338.723ZM389.5,73h7.155l-8.639-13.886c4.24-.689,8.374-4.081,8.374-10.388,0-6.519-4.558-11.077-11.554-11.077H369.3V73h6.2V59.8h6.148Zm.53-24.274c0,3.392-2.544,5.618-6.042,5.618H375.5V43.108h8.48C387.483,43.108,390.027,45.334,390.027,48.726ZM401,55.351c0,11.077,8.321,18.338,18.55,18.338a19.176,19.176,0,0,0,14.575-6.413V54.026H417.375v5.459h10.547V65a12.962,12.962,0,0,1-8.374,3.18c-7,0-12.19-5.406-12.19-12.826s5.194-12.773,12.19-12.773a11.256,11.256,0,0,1,9.169,4.717l5.088-2.862a16.62,16.62,0,0,0-14.257-7.367C409.319,37.066,401,44.274,401,55.351ZM440.589,73H464.81V67.541H446.79V57.736h17.649V52.277H446.79V43.108h18.02V37.649H440.589Zm55.226,0H501.8V37.649h-6.2V62.718L477.53,37.649h-6.36V73h6.2V47.242Zm30.21.636a16.178,16.178,0,0,0,14.469-7.95l-5.3-2.7a10.5,10.5,0,0,1-9.169,5.141c-6.731,0-11.925-5.353-11.925-12.773s5.194-12.773,11.925-12.773a10.607,10.607,0,0,1,9.169,5.141l5.3-2.7a16.114,16.114,0,0,0-14.469-7.95c-10.176,0-18.285,7.42-18.285,18.285S515.849,73.636,526.025,73.636ZM554.433,73h6.2V58.319l13.674-20.67h-7.1L557.56,52.807l-9.752-15.158h-7.1l13.727,20.67ZM591.8,73h13.144c11.024,0,18.5-7.261,18.5-17.649s-7.473-17.7-18.5-17.7H591.8Zm6.2-5.459V43.108h6.943c7.9,0,12.137,5.406,12.137,12.243,0,6.678-4.452,12.19-12.137,12.19ZM649.621,73h7.155l-8.639-13.886c4.24-.689,8.374-4.081,8.374-10.388,0-6.519-4.558-11.077-11.554-11.077H629.428V73h6.2V59.8h6.148Zm.53-24.274c0,3.392-2.544,5.618-6.042,5.618h-8.48V43.108h8.48C647.607,43.108,650.151,45.334,650.151,48.726ZM662.712,73h6.2V37.649h-6.2Zm13.727,0h21.783V67.541H682.64V37.649h-6.2Zm27.4,0h21.783V67.541H710.041V37.649h-6.2Zm25.122-4.982c3.127,3.339,7.844,5.618,14.363,5.618,9.54,0,13.674-5.035,13.674-10.918,0-7.685-6.943-9.487-12.773-10.971-4.187-1.06-7.791-1.961-7.791-4.717,0-2.65,2.332-4.4,5.989-4.4a14.371,14.371,0,0,1,10.229,4.028l3.551-4.611c-3.286-3.18-7.738-4.929-13.25-4.929-7.738,0-12.879,4.505-12.879,10.335,0,7.473,6.784,9.169,12.561,10.6,4.293,1.113,8.056,2.067,8.056,5.247,0,2.332-2.014,4.823-7.1,4.823a15.249,15.249,0,0,1-11.183-4.876Z" transform="translate(418 347)" fill="#fff"/>
    </g>
    <g id="Group_67" data-name="Group 67" transform="translate(-680.913 -170.874)">
      <circle id="Ellipse_1" data-name="Ellipse 1" cx="148.838" cy="148.838" r="148.838" transform="translate(760.913 385.874)" fill="#fff"/>
      <g id="Group_66" data-name="Group 66" transform="translate(806.94 439.97)">
        <g id="Group_53" data-name="Group 53" transform="translate(36.184 23.52)">
          <rect id="Rectangle_72" data-name="Rectangle 72" width="137.643" height="109.295" rx="32.417" transform="translate(2.761 2.761)" fill="#fff"/>
          <path id="Rectangle_73" data-name="Rectangle 73" d="M36.779,0h69.608a36.778,36.778,0,0,1,36.778,36.778v41.26a36.779,36.779,0,0,1-36.779,36.779H36.778A36.778,36.778,0,0,1,0,78.039V36.779A36.779,36.779,0,0,1,36.779,0Z" fill="#e45746"/>
        </g>
        <path id="Path_157" data-name="Path 157" d="M999.234,566.239H984.278v13.353H970.925v14.956h13.353V607.9h14.956V594.548h13.353V579.593H999.234Z" transform="translate(-883.99 -506.142)" fill="#fff"/>
        <g id="Group_54" data-name="Group 54" transform="translate(81.33)">
          <path id="Path_158" data-name="Path 158" d="M998.133,471.317h-19.25c-9.9,0-16.812,6.11-16.812,14.857v8.352h9.939v-8.352c0-4.438,4.806-4.918,6.872-4.918h19.25c2.067,0,6.873.48,6.873,4.918v8.352h9.939v-8.352C1014.945,477.427,1008.032,471.317,998.133,471.317Z" transform="translate(-962.071 -471.317)" fill="#004b63"/>
        </g>
        <g id="Group_59" data-name="Group 59" transform="translate(117.888 72.758)">
          <g id="Group_58" data-name="Group 58">
            <g id="Group_55" data-name="Group 55" transform="translate(0 36.297)">
              <rect id="Rectangle_74" data-name="Rectangle 74" width="84.478" height="59.609" rx="13.803" transform="translate(2.761 2.761)" fill="#004b63"/>
              <path id="Path_159" data-name="Path 159" d="M1098.313,643.568h-67a11.513,11.513,0,0,0-11.5,11.5V697.2a11.513,11.513,0,0,0,11.5,11.5h67a11.513,11.513,0,0,0,11.5-11.5V655.068A11.513,11.513,0,0,0,1098.313,643.568Zm5.978,53.632a5.984,5.984,0,0,1-5.978,5.978h-67a5.985,5.985,0,0,1-5.979-5.978V655.068a5.985,5.985,0,0,1,5.979-5.978h67a5.984,5.984,0,0,1,5.978,5.978Z" transform="translate(-1019.814 -643.568)" fill="#004b63"/>
            </g>
            <circle id="Ellipse_2" data-name="Ellipse 2" cx="19.627" cy="19.627" r="19.627" transform="translate(10.646 49.713)" fill="#fff"/>
            <g id="Group_56" data-name="Group 56" transform="translate(14.837)">
              <path id="Path_160" data-name="Path 160" d="M1101.506,586.59l-57.246,36.944a2.209,2.209,0,0,0,2.4,3.712L1103.9,590.3a2.209,2.209,0,0,0-2.4-3.712Z" transform="translate(-1043.249 -586.237)" fill="#004b63"/>
            </g>
            <g id="Group_57" data-name="Group 57" transform="translate(54.146 76.398)">
              <path id="Path_161" data-name="Path 161" d="M1123.959,706.906h-15.42a2.791,2.791,0,1,0,0,5.522h15.42a2.791,2.791,0,1,0,0-5.522Z" transform="translate(-1105.337 -706.906)" fill="#7bc0c9"/>
            </g>
          </g>
          <circle id="Ellipse_3" data-name="Ellipse 3" cx="4.335" cy="4.335" r="4.335" transform="translate(54.138 55.316)" fill="#fff"/>
          <circle id="Ellipse_4" data-name="Ellipse 4" cx="4.335" cy="4.335" r="4.335" transform="translate(67.246 55.316)" fill="#e45746"/>
        </g>
        <g id="Group_61" data-name="Group 61" transform="translate(31.139 60.296)">
          <path id="Path_162" data-name="Path 162" d="M919.623,615.014l-.018-2.143a9.885,9.885,0,0,0,3.81-7.882l-.006-.74c-.054-6.431-7.238-18.66-14.24-22.127l-.034-4.165-12.506.062.035,4.192c-6.872,3.568-13.921,15.824-13.867,22.24l.006.738a9.961,9.961,0,0,0,3.941,7.844l.018,2.144a11.889,11.889,0,0,0-3.8,8.574l.405,48.482a6.523,6.523,0,0,0,3.613,5.465c2.062,2.286,6.142,6.236,12.9,2.855,0,0,2.845-1.364,7.4-.037,5.473,2.66,9.139.612,11.42-1.492a29.438,29.438,0,0,1,2.534-2,6.21,6.21,0,0,0,2.747-4.993l-.406-48.48A11.976,11.976,0,0,0,919.623,615.014Z" transform="translate(-882.796 -570.738)" fill="#7bc0c9"/>
          <g id="Group_60" data-name="Group 60" transform="translate(11.213)">
            <path id="Path_163" data-name="Path 163" d="M920.616,571.171l-11.9.067a.747.747,0,0,0-.786.7l.037,5.09a.75.75,0,0,0,.8.69l11.9-.068a.745.745,0,0,0,.786-.7l-.037-5.089A.748.748,0,0,0,920.616,571.171Z" transform="translate(-903.23 -568.248)" fill="#004b63"/>
            <path id="Path_164" data-name="Path 164" d="M915.616,566.554s-.009,0-.015,0l-12.533.068a2.712,2.712,0,0,0-1.856.733,2.231,2.231,0,0,0-.706,1.635l.039,5.089a2.479,2.479,0,0,0,2.579,2.334h.014l12.533-.067a2.717,2.717,0,0,0,1.856-.734,2.235,2.235,0,0,0,.706-1.635l-.039-5.089A2.479,2.479,0,0,0,915.616,566.554Z" transform="translate(-900.507 -566.554)" fill="#004b63"/>
          </g>
        </g>
        <g id="Group_62" data-name="Group 62" transform="translate(1.972 116.711)">
          <rect id="Rectangle_75" data-name="Rectangle 75" width="41.537" height="52.45" transform="translate(2.657 2.265)" fill="#fff"/>
          <path id="Path_165" data-name="Path 165" d="M881.326,655.659H838.979a2.233,2.233,0,0,0-2.252,2.213v52.554a2.233,2.233,0,0,0,2.252,2.213h42.347a2.233,2.233,0,0,0,2.252-2.213V657.872A2.233,2.233,0,0,0,881.326,655.659Z" transform="translate(-836.727 -655.659)" fill="#e45746"/>
        </g>
        <g id="Group_63" data-name="Group 63" transform="translate(0 115.11)">
          <path id="Path_166" data-name="Path 166" d="M880.858,653.131h-43.7a3.549,3.549,0,1,0,0,7.1h43.7a3.549,3.549,0,0,0,0-7.1Z" transform="translate(-833.612 -653.131)" fill="#004b63"/>
        </g>
        <g id="Group_64" data-name="Group 64" transform="translate(0 170.191)">
          <path id="Path_167" data-name="Path 167" d="M880.858,740.131h-43.7a3.549,3.549,0,1,0,0,7.1h43.7a3.549,3.549,0,0,0,0-7.1Z" transform="translate(-833.612 -740.131)" fill="#004b63"/>
        </g>
        <g id="Group_65" data-name="Group 65" transform="translate(7.703 134.19)">
          <path id="Path_168" data-name="Path 168" d="M863.473,683.268c-8.369,0-17.694,4.68-17.694,11.4s9.325,11.4,17.694,11.4,17.694-4.68,17.694-11.4S871.843,683.268,863.473,683.268Z" transform="translate(-845.779 -683.268)" fill="#fff"/>
        </g>
        <rect id="Rectangle_76" data-name="Rectangle 76" width="8.492" height="7.683" transform="translate(189.066 72.363) rotate(-34.482)" fill="#004b63"/>
      </g>
    </g>
  </g>
</svg>
