<svg xmlns="http://www.w3.org/2000/svg" xmlns:xlink="http://www.w3.org/1999/xlink" width="1280" height="800" viewBox="0 0 1280 800">
  <defs>
    <clipPath id="clip-_2019-09-25-mental-health-training02">
      <rect width="1280" height="800"/>
    </clipPath>
  </defs>
  <g id="_2019-09-25-mental-health-training02" data-name="2019-09-25-mental-health-training02" clip-path="url(#clip-_2019-09-25-mental-health-training02)">
    <rect width="1280" height="800" fill="#582d89"/>
    <path id="Path_262" data-name="Path 262" d="M15.87,63h8.073V24.084H37.881V16.977H1.932v7.107H15.87Zm51.2,0h7.245V39.4c0-6.831-3.588-10.557-10.764-10.557a15.93,15.93,0,0,0-11.8,5.382V16.977H44.505V63H51.75V39.747a11.2,11.2,0,0,1,8.556-4.485c4.071,0,6.762,1.587,6.762,6.762ZM81.627,46.3c0,10.557,7.452,17.526,17.457,17.526,5.313,0,10.212-1.656,13.524-4.83L109.3,54.237a14.105,14.105,0,0,1-9.453,3.657c-6.279,0-10.074-4.14-10.626-9.177h25.737V46.992c0-10.488-6.417-18.147-16.422-18.147C88.665,28.845,81.627,36.642,81.627,46.3Zm16.9-11.523a8.914,8.914,0,0,1,9.384,8.832H89.148C89.493,39.54,92.322,34.779,98.532,34.779ZM122.13,63h7.245V40.3c1.449-2.346,5.52-4.416,8.556-4.416a10.68,10.68,0,0,1,2.277.207V28.914a14.233,14.233,0,0,0-10.833,5.658v-4.9H122.13ZM144,46.3c0,10.557,7.452,17.526,17.457,17.526,5.313,0,10.212-1.656,13.524-4.83l-3.312-4.761a14.105,14.105,0,0,1-9.453,3.657c-6.279,0-10.074-4.14-10.626-9.177H177.33V46.992c0-10.488-6.417-18.147-16.422-18.147C151.041,28.845,144,36.642,144,46.3Zm16.905-11.523a8.914,8.914,0,0,1,9.384,8.832H151.524C151.869,39.54,154.7,34.779,160.908,34.779Zm44.919-10.212a4.485,4.485,0,1,0-4.485-4.485A4.476,4.476,0,0,0,205.827,24.567ZM202.239,63h7.245V29.673h-7.245Zm13.731-4.347c3.45,3.381,8.625,5.175,14.283,5.175,8.97,0,13.869-4.485,13.869-10.35,0-7.866-7.107-9.522-12.9-10.764-3.933-.9-7.245-1.794-7.245-4.347,0-2.346,2.415-3.726,6.21-3.726a13.44,13.44,0,0,1,9.867,4l3.036-5.106a19.052,19.052,0,0,0-12.972-4.692c-8.418,0-13.11,4.692-13.11,10.143,0,7.452,6.831,8.97,12.558,10.212,4.071.9,7.59,1.932,7.59,4.83,0,2.484-2.208,4.071-6.555,4.071a17.2,17.2,0,0,1-11.316-4.692Zm68.241,5.175c10.7,0,17.181-7.935,17.181-17.526,0-9.522-6.486-17.457-17.181-17.457-10.557,0-17.112,7.935-17.112,17.457C267.1,55.893,273.654,63.828,284.211,63.828Zm0-6.417c-6.141,0-9.591-5.175-9.591-11.109,0-5.865,3.45-11.04,9.591-11.04,6.21,0,9.66,5.175,9.66,11.04C293.871,52.236,290.421,57.411,284.211,57.411ZM331.2,63h7.245V39.54c0-6.831-3.588-10.7-10.764-10.7a15.768,15.768,0,0,0-11.73,5.382V29.673h-7.245V63h7.245V39.747a10.971,10.971,0,0,1,8.556-4.485c4.071,0,6.693,1.725,6.693,6.9Zm14.559-16.7c0,10.557,7.452,17.526,17.457,17.526,5.313,0,10.212-1.656,13.524-4.83l-3.312-4.761a14.105,14.105,0,0,1-9.453,3.657c-6.279,0-10.074-4.14-10.626-9.177h25.737V46.992c0-10.488-6.417-18.147-16.422-18.147C352.8,28.845,345.759,36.642,345.759,46.3Zm16.9-11.523a8.914,8.914,0,0,1,9.384,8.832H353.28C353.625,39.54,356.454,34.779,362.664,34.779ZM427.455,63H434.7V16.977h-7.245V34.3a13.37,13.37,0,0,0-10.7-5.451c-8.625,0-14.835,6.762-14.835,17.526,0,10.971,6.279,17.457,14.835,17.457a13.5,13.5,0,0,0,10.7-5.382Zm0-10.005a10.89,10.89,0,0,1-8.625,4.416c-5.727,0-9.384-4.623-9.384-11.04,0-6.486,3.657-11.109,9.384-11.109a10.949,10.949,0,0,1,8.625,4.485ZM442.014,46.3c0,10.557,7.452,17.526,17.457,17.526,5.313,0,10.212-1.656,13.524-4.83l-3.312-4.761a14.105,14.105,0,0,1-9.453,3.657c-6.279,0-10.074-4.14-10.626-9.177h25.737V46.992c0-10.488-6.417-18.147-16.422-18.147C449.052,28.845,442.014,36.642,442.014,46.3Zm16.9-11.523a8.914,8.914,0,0,1,9.384,8.832H449.535C449.88,39.54,452.709,34.779,458.919,34.779ZM502.872,63h7.245V40.92c0-8.97-6.486-12.075-13.869-12.075a19.819,19.819,0,0,0-14.007,5.382l2.967,5.037a13.646,13.646,0,0,1,9.867-4.209c4.623,0,7.8,2.346,7.8,6.21v4.968c-2.415-2.829-6.279-4.278-10.764-4.278-5.451,0-11.592,3.174-11.592,10.833,0,7.383,6.141,11.04,11.592,11.04a14.069,14.069,0,0,0,10.764-4.416Zm0-7.59c-1.656,2.277-4.761,3.45-7.935,3.45-4.071,0-7.107-2.346-7.107-5.934,0-3.657,3.036-6,7.107-6,3.174,0,6.279,1.173,7.935,3.45Zm26.634,8.418c3.381,0,5.52-.9,6.831-2.139l-1.725-5.451a4.677,4.677,0,0,1-3.243,1.173c-2.07,0-3.174-1.656-3.174-3.933V36.021h6.762V29.673h-6.762V20.565H520.95v9.108h-5.52v6.348h5.52V55.272C520.95,60.792,523.917,63.828,529.506,63.828ZM564.075,63h7.245V39.4c0-6.831-3.588-10.557-10.764-10.557a15.93,15.93,0,0,0-11.8,5.382V16.977h-7.245V63h7.245V39.747a11.2,11.2,0,0,1,8.556-4.485c4.071,0,6.762,1.587,6.762,6.762Zm34.362,0h7.245V58.446a13.4,13.4,0,0,0,10.7,5.382c8.487,0,14.766-6.486,14.766-17.457,0-10.764-6.21-17.526-14.766-17.526a13.178,13.178,0,0,0-10.7,5.451V16.977h-7.245Zm7.245-10.005V39.816a10.875,10.875,0,0,1,8.556-4.554c5.8,0,9.453,4.623,9.453,11.109s-3.657,11.04-9.453,11.04A10.755,10.755,0,0,1,605.682,52.995Zm32.5,16.56-1.1,6.486a20.491,20.491,0,0,0,4.071.483c5.175-.069,9.177-1.863,11.454-7.521l16.077-39.33h-7.8l-9.729,24.978-9.729-24.978H633.7l13.662,33.741L645.7,67.209c-.966,2.208-2.484,2.9-4.761,2.9A7.572,7.572,0,0,1,638.181,69.555ZM1.794,148.653c3.45,3.381,8.625,5.175,14.283,5.175,8.97,0,13.869-4.485,13.869-10.35,0-7.866-7.107-9.522-12.9-10.764-3.933-.9-7.245-1.794-7.245-4.347,0-2.346,2.415-3.726,6.21-3.726a13.44,13.44,0,0,1,9.867,4l3.036-5.106a19.052,19.052,0,0,0-12.972-4.692c-8.418,0-13.11,4.692-13.11,10.143,0,7.452,6.831,8.97,12.558,10.212,4.071.9,7.59,1.932,7.59,4.83,0,2.484-2.208,4.071-6.555,4.071a17.2,17.2,0,0,1-11.316-4.692ZM59.754,153H67V119.673H59.754v23.391a11.085,11.085,0,0,1-8.556,4.347c-4.071,0-6.693-1.587-6.693-6.762V119.673H37.26v23.6c0,6.831,3.519,10.557,10.695,10.557a15.973,15.973,0,0,0,11.8-5.244Zm20.217-38.433a4.485,4.485,0,1,0-4.485-4.485A4.476,4.476,0,0,0,79.971,114.567ZM76.383,153h7.245V119.673H76.383Zm14.559-16.7c0,10.143,7.107,17.526,17.25,17.526,6.486,0,10.419-2.76,12.765-5.934l-4.761-4.416a9.06,9.06,0,0,1-7.659,3.933c-6.072,0-10.074-4.623-10.074-11.109s4-11.04,10.074-11.04a8.9,8.9,0,0,1,7.659,3.933l4.761-4.416c-2.346-3.174-6.279-5.934-12.765-5.934C98.049,118.845,90.942,126.228,90.942,136.3Zm39.951-21.735a4.485,4.485,0,1,0-4.485-4.485A4.476,4.476,0,0,0,130.893,114.567ZM127.3,153h7.245V119.673H127.3Zm40.089,0h7.245V106.977h-7.245V124.3a13.37,13.37,0,0,0-10.7-5.451c-8.625,0-14.835,6.762-14.835,17.526,0,10.971,6.279,17.457,14.835,17.457a13.5,13.5,0,0,0,10.7-5.382Zm0-10.005a10.89,10.89,0,0,1-8.625,4.416c-5.727,0-9.384-4.623-9.384-11.04,0-6.486,3.657-11.109,9.384-11.109a10.949,10.949,0,0,1,8.625,4.485Zm14.559-6.693c0,10.557,7.452,17.526,17.457,17.526,5.313,0,10.212-1.656,13.524-4.83l-3.312-4.761a14.105,14.105,0,0,1-9.453,3.657c-6.279,0-10.074-4.14-10.626-9.177H215.28v-1.725c0-10.488-6.417-18.147-16.422-18.147C188.991,118.845,181.953,126.642,181.953,136.3Zm16.905-11.523a8.914,8.914,0,0,1,9.384,8.832H189.474C189.819,129.54,192.648,124.779,198.858,124.779ZM238.119,136.3c0,10.557,7.452,17.526,17.457,17.526,5.313,0,10.212-1.656,13.524-4.83l-3.312-4.761a14.105,14.105,0,0,1-9.453,3.657c-6.279,0-10.074-4.14-10.626-9.177h25.737v-1.725c0-10.488-6.417-18.147-16.422-18.147C245.157,118.845,238.119,126.642,238.119,136.3Zm16.905-11.523a8.914,8.914,0,0,1,9.384,8.832H245.64C245.985,129.54,248.814,124.779,255.024,124.779ZM287.385,153h7.8l13.593-33.327h-7.8l-9.729,24.978-9.729-24.978h-7.728Zm23.874-16.7c0,10.557,7.452,17.526,17.457,17.526,5.313,0,10.212-1.656,13.524-4.83l-3.312-4.761a14.105,14.105,0,0,1-9.453,3.657c-6.279,0-10.074-4.14-10.626-9.177h25.737v-1.725c0-10.488-6.417-18.147-16.422-18.147C318.3,118.845,311.259,126.642,311.259,136.3Zm16.9-11.523a8.914,8.914,0,0,1,9.384,8.832H318.78C319.125,129.54,321.954,124.779,328.164,124.779ZM351.762,153h7.245V130.3c1.449-2.346,5.52-4.416,8.556-4.416a10.68,10.68,0,0,1,2.277.207v-7.176a14.232,14.232,0,0,0-10.833,5.658v-4.9h-7.245Zm23.6,6.555-1.1,6.486a20.49,20.49,0,0,0,4.071.483c5.175-.069,9.177-1.863,11.454-7.521l16.077-39.33h-7.8l-9.729,24.978L378.6,119.673h-7.728l13.662,33.741-1.656,3.795c-.966,2.208-2.484,2.9-4.761,2.9A7.572,7.572,0,0,1,375.36,159.555ZM426.9,153H460.23v-7.107H439.806c12.351-9.315,20.148-16.9,20.148-25.392,0-9.177-7.8-14.214-16.7-14.214-6.417,0-12.9,2.484-16.974,7.383l4.692,5.313a15.98,15.98,0,0,1,12.42-5.52c4.209,0,8.349,2.208,8.349,7.038,0,6.624-6.969,12.627-24.84,26.151Zm40.434-22.977c0,11.592,5.52,23.805,18.423,23.805s18.423-12.213,18.423-23.805-5.52-23.736-18.423-23.736S467.337,118.431,467.337,130.023Zm28.635,0c0,8.763-2.691,16.629-10.212,16.629s-10.212-7.866-10.212-16.629,2.691-16.56,10.212-16.56S495.972,121.26,495.972,130.023Zm30.567,18.63c3.45,3.381,8.625,5.175,14.283,5.175,8.97,0,13.869-4.485,13.869-10.35,0-7.866-7.107-9.522-12.9-10.764-3.933-.9-7.245-1.794-7.245-4.347,0-2.346,2.415-3.726,6.21-3.726a13.44,13.44,0,0,1,9.867,4l3.036-5.106a19.053,19.053,0,0,0-12.972-4.692c-8.418,0-13.11,4.692-13.11,10.143,0,7.452,6.831,8.97,12.558,10.212,4.071.9,7.59,1.932,7.59,4.83,0,2.484-2.208,4.071-6.555,4.071a17.2,17.2,0,0,1-11.316-4.692Zm33.4-12.351c0,10.557,7.452,17.526,17.457,17.526,5.313,0,10.212-1.656,13.524-4.83l-3.312-4.761a14.105,14.105,0,0,1-9.453,3.657c-6.279,0-10.074-4.14-10.626-9.177h25.737v-1.725c0-10.488-6.417-18.147-16.422-18.147C566.973,118.845,559.935,126.642,559.935,136.3Zm16.9-11.523a8.914,8.914,0,0,1,9.384,8.832H567.456C567.8,129.54,570.63,124.779,576.84,124.779ZM598.368,136.3c0,10.143,7.107,17.526,17.25,17.526,6.486,0,10.419-2.76,12.765-5.934l-4.761-4.416a9.06,9.06,0,0,1-7.659,3.933c-6.072,0-10.074-4.623-10.074-11.109s4-11.04,10.074-11.04a8.9,8.9,0,0,1,7.659,3.933l4.761-4.416c-2.346-3.174-6.279-5.934-12.765-5.934C605.475,118.845,598.368,126.228,598.368,136.3Zm51.4,17.526c10.7,0,17.181-7.935,17.181-17.526,0-9.522-6.486-17.457-17.181-17.457-10.557,0-17.112,7.935-17.112,17.457C632.661,145.893,639.216,153.828,649.773,153.828Zm0-6.417c-6.141,0-9.591-5.175-9.591-11.109,0-5.865,3.45-11.04,9.591-11.04,6.21,0,9.66,5.175,9.66,11.04C659.433,142.236,655.983,147.411,649.773,147.411ZM696.762,153h7.245V129.54c0-6.831-3.588-10.695-10.764-10.695a15.768,15.768,0,0,0-11.73,5.382v-4.554h-7.245V153h7.245V129.747a10.971,10.971,0,0,1,8.556-4.485c4.071,0,6.693,1.725,6.693,6.9Zm40.089,0H744.1V106.977h-7.245V124.3a13.37,13.37,0,0,0-10.7-5.451c-8.625,0-14.835,6.762-14.835,17.526,0,10.971,6.279,17.457,14.835,17.457a13.5,13.5,0,0,0,10.7-5.382Zm0-10.005a10.89,10.89,0,0,1-8.625,4.416c-5.727,0-9.384-4.623-9.384-11.04,0-6.486,3.657-11.109,9.384-11.109a10.949,10.949,0,0,1,8.625,4.485Zm13.731,5.658c3.45,3.381,8.625,5.175,14.283,5.175,8.97,0,13.869-4.485,13.869-10.35,0-7.866-7.107-9.522-12.9-10.764-3.933-.9-7.245-1.794-7.245-4.347,0-2.346,2.415-3.726,6.21-3.726a13.44,13.44,0,0,1,9.867,4l3.036-5.106a19.053,19.053,0,0,0-12.972-4.692c-8.418,0-13.11,4.692-13.11,10.143,0,7.452,6.831,8.97,12.558,10.212,4.071.9,7.59,1.932,7.59,4.83,0,2.484-2.208,4.071-6.555,4.071a17.2,17.2,0,0,1-11.316-4.692Z" transform="translate(395 311)" fill="#fff"/>
    <rect id="Rectangle_44" data-name="Rectangle 44" width="1280" height="74" transform="translate(0 726)" fill="#24beca"/>
    <g id="Group_52" data-name="Group 52" transform="translate(961.462 746)">
      <g id="nav__logo__e_1_">
        <path id="Path_137" data-name="Path 137" d="M23.4,35.564h9.954a1.93,1.93,0,0,0,1.935-1.843V26.9A36.608,36.608,0,0,1,23.4,35.564Z" transform="translate(-1.833 -2.107)" fill="#582d89"/>
        <path id="Path_138" data-name="Path 138" d="M19.731,10.977C19.639,9.226,18.348,8.12,15.583,8.4,10.146,8.765,6,14.94,4.8,21.3,16.6,20.378,19.823,13.189,19.731,10.977Z" transform="translate(-0.376 -0.654)" fill="#582d89"/>
        <path id="Path_139" data-name="Path 139" d="M18.341,3.963c5.622-.369,8.2,1.843,8.387,4.608.461,6.083-9.493,13.272-22.581,14.378H3.963a10.209,10.209,0,0,0,.369,5.069c.922,2.4,3.318,3.318,6.083,3.318,12.166,0,21.106-13.456,23.041-19.539V1.843A1.871,1.871,0,0,0,31.521,0H1.843A1.849,1.849,0,0,0,0,1.843V15.484C4.793,9.4,12.166,4.424,18.341,3.963Z" fill="#582d89"/>
      </g>
      <g id="nav__logo__edgepoint_1_" transform="translate(51.982 7.097)">
        <path id="Path_140" data-name="Path 140" d="M62.3,23.683a4.855,4.855,0,0,0,3.779-1.659l1.106.922a6.365,6.365,0,0,1-4.885,2.3,5.892,5.892,0,0,1-5.9-6.175c0-3.41,2.4-6.175,5.714-6.175,3.5,0,5.53,2.857,5.53,6.267v.553H58.151A4.081,4.081,0,0,0,62.3,23.683Zm3.41-5.346c-.184-2.12-1.475-4.055-3.779-4.055-2.028,0-3.594,1.751-3.871,4.055Z" transform="translate(-56.4 -8.107)" fill="#582d89"/>
        <path id="Path_141" data-name="Path 141" d="M81.33,24.566v-2.4a5.23,5.23,0,0,1-4.516,2.673A5.856,5.856,0,0,1,71.1,18.668a5.856,5.856,0,0,1,5.714-6.175,5.228,5.228,0,0,1,4.516,2.581V7.7h1.751V24.566Zm-4.24-10.6c-2.3,0-4.147,1.751-4.147,4.608s1.935,4.608,4.147,4.608a4.452,4.452,0,0,0,4.332-4.608A4.452,4.452,0,0,0,77.091,13.967Z" transform="translate(-57.552 -7.7)" fill="#582d89"/>
        <path id="Path_142" data-name="Path 142" d="M93.7,28.66A9.258,9.258,0,0,1,88.261,27l.829-1.382A8.066,8.066,0,0,0,93.7,27.094c2.581,0,4.332-1.475,4.332-4.24V21.471a5.681,5.681,0,0,1-4.7,2.581,5.427,5.427,0,0,1-5.53-5.53A5.5,5.5,0,0,1,93.33,12.9a5.773,5.773,0,0,1,4.7,2.4v-2.12h1.751v9.77C99.689,26.725,97.293,28.66,93.7,28.66Zm-.092-14.286a3.892,3.892,0,0,0-4.147,4.055,4,4,0,0,0,4.147,4.055A4.176,4.176,0,0,0,98.03,18.43,4.23,4.23,0,0,0,93.606,14.375Z" transform="translate(-58.86 -8.107)" fill="#582d89"/>
        <path id="Path_143" data-name="Path 143" d="M110.2,23.683a4.855,4.855,0,0,0,3.779-1.659l1.106.922a6.365,6.365,0,0,1-4.885,2.3,5.892,5.892,0,0,1-5.9-6.175c0-3.41,2.4-6.175,5.714-6.175,3.5,0,5.53,2.857,5.53,6.267v.553h-9.4A3.948,3.948,0,0,0,110.2,23.683Zm3.41-5.346c-.184-2.12-1.475-4.055-3.779-4.055-2.028,0-3.594,1.751-3.871,4.055Z" transform="translate(-60.153 -8.107)" fill="#582d89"/>
        <path id="Path_144" data-name="Path 144" d="M126.067,25.235a5.228,5.228,0,0,1-4.516-2.581v5.991H119.8V13.069h1.751v2.3a5.23,5.23,0,0,1,4.516-2.673,5.856,5.856,0,0,1,5.714,6.175C131.782,22.838,128.924,25.235,126.067,25.235ZM125.7,14.359a4.452,4.452,0,0,0-4.332,4.608,4.34,4.34,0,0,0,4.332,4.608c2.3,0,4.147-1.751,4.147-4.608A4.153,4.153,0,0,0,125.7,14.359Z" transform="translate(-61.367 -8.092)" fill="#582d89"/>
        <path id="Path_145" data-name="Path 145" d="M141.675,25.242a6.116,6.116,0,0,1-6.175-6.175,6.194,6.194,0,0,1,6.175-6.267,6.116,6.116,0,0,1,6.175,6.175A6.194,6.194,0,0,1,141.675,25.242Zm0-10.876a4.339,4.339,0,0,0-4.332,4.608,4.491,4.491,0,0,0,4.424,4.7,4.412,4.412,0,0,0,4.424-4.608,4.625,4.625,0,0,0-4.516-4.7Z" transform="translate(-62.597 -8.1)" fill="#582d89"/>
        <path id="Path_146" data-name="Path 146" d="M152.4,10.135V8.2h2.028v1.935Zm.184,14.47V12.716h1.751V24.605Z" transform="translate(-63.921 -7.739)" fill="#582d89"/>
        <path id="Path_147" data-name="Path 147" d="M160.751,24.966H159V13.076h1.751V15.1a4.43,4.43,0,0,1,4.055-2.3c2.857,0,4.516,1.935,4.516,4.7v7.373h-1.751V17.961c0-2.212-1.2-3.594-3.318-3.594a3.51,3.51,0,0,0-3.594,3.687l.092,6.912Z" transform="translate(-64.438 -8.1)" fill="#582d89"/>
        <path id="Path_148" data-name="Path 148" d="M176.618,21.274a1.8,1.8,0,0,0,2.028,2.028,3.994,3.994,0,0,0,1.751-.369v1.475a4,4,0,0,1-2.12.461c-1.935,0-3.318-.922-3.318-3.318V14.361H173.3V12.7h1.659V9.2h1.751v3.5h3.779v1.567H176.71v7Z" transform="translate(-65.558 -7.818)" fill="#582d89"/>
      </g>
      <g id="nav__logo__learning_1_" transform="translate(176.958 7.097)">
        <path id="Path_149" data-name="Path 149" d="M192,24.566V7.7h1.751V24.566Z" transform="translate(-192 -7.7)" fill="#582d89"/>
        <path id="Path_150" data-name="Path 150" d="M203.7,23.683a4.855,4.855,0,0,0,3.779-1.659l1.106.922a6.365,6.365,0,0,1-4.885,2.3,5.892,5.892,0,0,1-5.9-6.175c0-3.41,2.4-6.175,5.714-6.175,3.5,0,5.53,2.857,5.53,6.267v.553h-9.4a3.948,3.948,0,0,0,4.055,3.963Zm3.41-5.346c-.184-2.12-1.475-4.055-3.779-4.055-2.028,0-3.594,1.751-3.871,4.055Z" transform="translate(-192.454 -8.107)" fill="#582d89"/>
        <path id="Path_151" data-name="Path 151" d="M213.759,15.4l-.553-1.475A9.105,9.105,0,0,1,217.538,13c3.226,0,5.069,1.659,5.069,4.793v7.281h-1.751V23.323a5.161,5.161,0,0,1-4.332,2.028c-2.212,0-4.424-1.2-4.424-3.687,0-2.581,2.028-3.871,5.069-3.871a13.114,13.114,0,0,1,3.594.461v-.369c0-2.12-1.29-3.226-3.594-3.226a5.9,5.9,0,0,0-3.41.737Zm.276,5.991c0,1.475,1.382,2.4,3.041,2.4,2.212,0,3.963-1.29,3.963-3.226v-1.2a11.937,11.937,0,0,0-3.5-.461c-2.212,0-3.5,1.014-3.5,2.488Z" transform="translate(-193.575 -8.115)" fill="#582d89"/>
        <path id="Path_152" data-name="Path 152" d="M229.451,24.965H227.7V13.076h1.751v3.041a5.068,5.068,0,0,1,4.885-3.318v1.843h-.092c-2.581,0-4.7,1.843-4.7,5.438v4.885Z" transform="translate(-194.797 -8.099)" fill="#582d89"/>
        <path id="Path_153" data-name="Path 153" d="M239.551,24.966H237.8V13.076h1.751V15.1a4.43,4.43,0,0,1,4.055-2.3c2.857,0,4.516,1.935,4.516,4.7v7.373h-1.751V17.961c0-2.212-1.2-3.594-3.318-3.594a3.51,3.51,0,0,0-3.594,3.687v6.912Z" transform="translate(-195.588 -8.1)" fill="#582d89"/>
        <path id="Path_154" data-name="Path 154" d="M253.1,10.135V8.2h2.028v1.935Zm.184,14.47V12.716h1.751V24.605Z" transform="translate(-196.787 -7.739)" fill="#582d89"/>
        <path id="Path_155" data-name="Path 155" d="M261.451,24.966H259.7V13.076h1.751V15.1a4.43,4.43,0,0,1,4.055-2.3c2.857,0,4.516,1.935,4.516,4.7v7.373h-1.751V17.961c0-2.212-1.2-3.594-3.318-3.594a3.51,3.51,0,0,0-3.594,3.687l.092,6.912Z" transform="translate(-197.304 -8.1)" fill="#582d89"/>
        <path id="Path_156" data-name="Path 156" d="M280.3,28.66A9.258,9.258,0,0,1,274.861,27l.83-1.382a8.066,8.066,0,0,0,4.608,1.475c2.581,0,4.332-1.475,4.332-4.24V21.471a5.681,5.681,0,0,1-4.7,2.581,5.427,5.427,0,0,1-5.53-5.53,5.5,5.5,0,0,1,5.53-5.622,5.641,5.641,0,0,1,4.7,2.4v-2.12h1.751v9.77c-.092,3.779-2.488,5.714-6.083,5.714Zm-.092-14.286a3.892,3.892,0,0,0-4.147,4.055,4,4,0,0,0,4.147,4.055,4.176,4.176,0,0,0,4.424-4.055A4.23,4.23,0,0,0,280.206,14.375Z" transform="translate(-198.455 -8.107)" fill="#582d89"/>
      </g>
    </g>
    <g id="Group_426" data-name="Group 426" transform="translate(-11.396 -107.912)">
      <g id="Group_424" data-name="Group 424" transform="translate(70.455 304.912)">
        <g id="Group_420" data-name="Group 420" transform="translate(0 69.873)">
          <path id="Path_257" data-name="Path 257" d="M204.731,601.592c-74.041,0-134.276-60.238-134.276-134.276S130.69,333.042,204.731,333.042s134.274,60.233,134.274,134.274S278.77,601.592,204.731,601.592Zm0-237.62A103.343,103.343,0,1,0,308.075,467.316,103.46,103.46,0,0,0,204.731,363.972Z" transform="translate(-70.455 -333.042)" fill="#fff"/>
        </g>
        <rect id="Rectangle_46" data-name="Rectangle 46" width="31.635" height="33.744" transform="translate(118.46 42.453)" fill="#fff"/>
        <g id="Group_421" data-name="Group 421" transform="translate(98.394)">
          <path id="Path_258" data-name="Path 258" d="M181.83,340.792a35.882,35.882,0,1,0-57.322,28.756V349.71a23.227,23.227,0,1,1,42.883,0v19.839A35.86,35.86,0,0,0,181.83,340.792Z" transform="translate(-110.067 -304.912)" fill="#fff"/>
        </g>
        <g id="Group_422" data-name="Group 422" transform="translate(6.311 76.182)">
          <rect id="Rectangle_47" data-name="Rectangle 47" width="18.281" height="28.883" transform="translate(0 12.927) rotate(-45)" fill="#fff"/>
          <rect id="Rectangle_48" data-name="Rectangle 48" width="28.881" height="18.28" transform="translate(222.581 20.422) rotate(-44.997)" fill="#fff"/>
        </g>
        <g id="Group_423" data-name="Group 423" transform="translate(86.073 169.297)">
          <path id="Path_259" data-name="Path 259" d="M106.22,434.484l-1.113-2.685,16.513-21.717a78.886,78.886,0,0,0,6.351-9.695,15.428,15.428,0,0,0,2.089-7.094,5.642,5.642,0,0,0-2.089-4.593,8.867,8.867,0,0,0-5.8-1.716,17.234,17.234,0,0,0-6.587,1.254,44.9,44.9,0,0,0-5.472,2.643,65.455,65.455,0,0,1-2.6-6.585,25.681,25.681,0,0,1-1.3-6.868,36.291,36.291,0,0,1,7.7-3.058,37.405,37.405,0,0,1,10.3-1.3,32.853,32.853,0,0,1,8.766,1.115,20.071,20.071,0,0,1,7,3.388,15.7,15.7,0,0,1,4.638,5.7,18.466,18.466,0,0,1,1.669,8.162,23.068,23.068,0,0,1-.832,6.3,34.587,34.587,0,0,1-2.134,5.666,42.02,42.02,0,0,1-2.921,5.1q-1.628,2.407-3.2,4.637l-5.288,7.422h16.235a32.936,32.936,0,0,1,.837,6.774,34.329,34.329,0,0,1-.837,7.141Z" transform="translate(-105.107 -373.069)" fill="#fff"/>
          <path id="Path_260" data-name="Path 260" d="M150.05,373.069a22.646,22.646,0,0,1,10.76,2.414,21.272,21.272,0,0,1,7.511,6.63,29,29,0,0,1,4.359,9.975,52.6,52.6,0,0,1,1.393,12.43,48.551,48.551,0,0,1-1.483,12.338,29.893,29.893,0,0,1-4.454,9.836,20.9,20.9,0,0,1-7.608,6.543,23.588,23.588,0,0,1-10.852,2.36,23.027,23.027,0,0,1-10.765-2.36,20.763,20.763,0,0,1-7.467-6.543,29.717,29.717,0,0,1-4.359-9.836,49.983,49.983,0,0,1-1.438-12.338,49.459,49.459,0,0,1,1.488-12.43,30.236,30.236,0,0,1,4.451-9.975,21.071,21.071,0,0,1,7.561-6.63A23.108,23.108,0,0,1,150.05,373.069Zm-.189,14.009q-3.707,0-5.75,4.359t-2.042,13.08q0,8.629,2.087,12.986c1.391,2.914,3.294,4.362,5.706,4.362,2.352,0,4.2-1.448,5.564-4.362s2.044-7.233,2.044-12.986q0-8.718-2.044-13.08T149.861,387.078Z" transform="translate(-74.626 -373.069)" fill="#fff"/>
        </g>
        <rect id="Rectangle_49" data-name="Rectangle 49" width="28.033" height="8.172" transform="translate(130.139 133.126) rotate(-89.794)" fill="#fff"/>
        <rect id="Rectangle_50" data-name="Rectangle 50" width="28.031" height="8.174" transform="translate(181.568 151.002) rotate(-44.794)" fill="#fff"/>
        <rect id="Rectangle_51" data-name="Rectangle 51" width="8.171" height="28.033" transform="matrix(0.003, -1, 1, 0.003, 205.265, 208.183)" fill="#fff"/>
        <rect id="Rectangle_52" data-name="Rectangle 52" width="8.173" height="28.032" transform="matrix(0.709, -0.705, 0.705, 0.709, 181.617, 257.202)" fill="#fff"/>
        <rect id="Rectangle_53" data-name="Rectangle 53" width="28.035" height="8.172" transform="translate(130.144 303.17) rotate(-89.812)" fill="#fff"/>
        <rect id="Rectangle_54" data-name="Rectangle 54" width="28.033" height="8.171" transform="translate(61.332 271.237) rotate(-44.794)" fill="#fff"/>
        <rect id="Rectangle_55" data-name="Rectangle 55" width="8.171" height="28.033" transform="translate(35.224 208.181) rotate(-89.796)" fill="#fff"/>
        <rect id="Rectangle_56" data-name="Rectangle 56" width="8.172" height="28.033" transform="matrix(0.71, -0.705, 0.705, 0.71, 61.381, 136.958)" fill="#fff"/>
      </g>
      <g id="Group_425" data-name="Group 425" transform="translate(204.731 409.975)">
        <path id="Path_261" data-name="Path 261" d="M195.474,446.293a70.465,70.465,0,0,1-9.541,35.461l24.342,14.057a99.008,99.008,0,0,0-85.763-148.6v28.12A71.043,71.043,0,0,1,195.474,446.293Z" transform="translate(-124.513 -347.209)" fill="#fff"/>
      </g>
    </g>
  </g>
</svg>
