<svg xmlns="http://www.w3.org/2000/svg" xmlns:xlink="http://www.w3.org/1999/xlink" width="1280" height="800" viewBox="0 0 1280 800">
  <defs>
    <clipPath id="clip-_2020-03-25-hard-skills-vs-soft-skills01">
      <rect width="1280" height="800"/>
    </clipPath>
  </defs>
  <g id="_2020-03-25-hard-skills-vs-soft-skills01" data-name="2020-03-25-hard-skills-vs-soft-skills01" clip-path="url(#clip-_2020-03-25-hard-skills-vs-soft-skills01)">
    <rect width="1280" height="800" fill="#fff"/>
    <g id="Group_67" data-name="Group 67">
      <path id="Path_190" data-name="Path 190" d="M-60,0H640V800H60Z" transform="translate(640)" fill="#740bd3"/>
      <path id="Path_191" data-name="Path 191" d="M0,0H580L700,800H0Z" fill="#f11e62"/>
    </g>
    <g id="Group_66" data-name="Group 66" transform="translate(1106.759 761.022)" style="mix-blend-mode: luminosity;isolation: isolate">
      <g id="nav__logo__e_1_">
        <path id="Path_137" data-name="Path 137" d="M23.4,31.656h5.465a1.06,1.06,0,0,0,1.063-1.012V26.9A20.1,20.1,0,0,1,23.4,31.656Z" transform="translate(-11.56 -13.289)" fill="#fff"/>
        <path id="Path_138" data-name="Path 138" d="M13,9.794c-.051-.961-.759-1.569-2.277-1.417-2.985.2-5.262,3.592-5.92,7.084C11.276,14.955,13.047,11.008,13,9.794Z" transform="translate(-2.371 -4.127)" fill="#fff"/>
        <path id="Path_139" data-name="Path 139" d="M10.069,2.176c3.086-.2,4.5,1.012,4.6,2.53.253,3.339-5.212,7.286-12.4,7.893h-.1a5.6,5.6,0,0,0,.2,2.783C2.884,16.7,4.2,17.2,5.718,17.2,12.4,17.2,17.3,9.816,18.367,6.476V1.012A1.027,1.027,0,0,0,17.3,0H1.012A1.015,1.015,0,0,0,0,1.012V8.5C2.631,5.161,6.679,2.429,10.069,2.176Z" fill="#fff"/>
      </g>
      <g id="nav__logo__edgepoint_1_" transform="translate(28.537 3.896)">
        <path id="Path_140" data-name="Path 140" d="M59.638,18.82a2.665,2.665,0,0,0,2.075-.911l.607.506a3.494,3.494,0,0,1-2.682,1.265A3.235,3.235,0,0,1,56.4,16.29a3.214,3.214,0,0,1,3.137-3.39c1.923,0,3.036,1.569,3.036,3.441v.3H57.361A2.241,2.241,0,0,0,59.638,18.82Zm1.872-2.935a2.185,2.185,0,0,0-2.075-2.226,2.3,2.3,0,0,0-2.125,2.226Z" transform="translate(-56.4 -10.269)" fill="#fff"/>
        <path id="Path_141" data-name="Path 141" d="M76.716,16.959V15.644a2.871,2.871,0,0,1-2.479,1.467,3.215,3.215,0,0,1-3.137-3.39,3.215,3.215,0,0,1,3.137-3.39,2.87,2.87,0,0,1,2.479,1.417V7.7h.961v9.259Zm-2.327-5.819a2.307,2.307,0,0,0-2.277,2.53,2.336,2.336,0,0,0,2.277,2.53,2.444,2.444,0,0,0,2.378-2.53A2.444,2.444,0,0,0,74.389,11.141Z" transform="translate(-63.662 -7.7)" fill="#fff"/>
        <path id="Path_142" data-name="Path 142" d="M91.038,21.552a5.082,5.082,0,0,1-2.985-.911l.455-.759a4.428,4.428,0,0,0,2.53.81,2.167,2.167,0,0,0,2.378-2.327v-.759a3.119,3.119,0,0,1-2.58,1.417A2.979,2.979,0,0,1,87.8,15.986,3.021,3.021,0,0,1,90.836,12.9a3.169,3.169,0,0,1,2.58,1.316V13.052h.961v5.363A3,3,0,0,1,91.038,21.552Zm-.051-7.843a2.137,2.137,0,0,0-2.277,2.226,2.193,2.193,0,0,0,2.277,2.226,2.293,2.293,0,0,0,2.429-2.226A2.322,2.322,0,0,0,90.988,13.71Z" transform="translate(-71.912 -10.269)" fill="#fff"/>
        <path id="Path_143" data-name="Path 143" d="M107.538,18.82a2.665,2.665,0,0,0,2.075-.911l.607.506a3.494,3.494,0,0,1-2.682,1.265,3.235,3.235,0,0,1-3.238-3.39,3.214,3.214,0,0,1,3.137-3.39c1.923,0,3.036,1.569,3.036,3.441v.3h-5.161A2.168,2.168,0,0,0,107.538,18.82Zm1.872-2.935a2.185,2.185,0,0,0-2.075-2.226,2.3,2.3,0,0,0-2.125,2.226Z" transform="translate(-80.064 -10.269)" fill="#fff"/>
        <path id="Path_144" data-name="Path 144" d="M123.241,19.581a2.87,2.87,0,0,1-2.479-1.417v3.289H119.8V12.9h.961v1.265a2.871,2.871,0,0,1,2.479-1.467,3.215,3.215,0,0,1,3.137,3.39A3.277,3.277,0,0,1,123.241,19.581Zm-.2-5.971a2.444,2.444,0,0,0-2.378,2.53,2.383,2.383,0,0,0,2.378,2.53,2.307,2.307,0,0,0,2.277-2.53A2.28,2.28,0,0,0,123.038,13.611Z" transform="translate(-87.721 -10.17)" fill="#fff"/>
        <path id="Path_145" data-name="Path 145" d="M138.89,19.631a3.358,3.358,0,0,1-3.39-3.39,3.4,3.4,0,0,1,3.39-3.441,3.358,3.358,0,0,1,3.39,3.39A3.4,3.4,0,0,1,138.89,19.631Zm0-5.971a2.382,2.382,0,0,0-2.378,2.53,2.465,2.465,0,0,0,2.429,2.58,2.422,2.422,0,0,0,2.429-2.53,2.539,2.539,0,0,0-2.479-2.58Z" transform="translate(-95.477 -10.22)" fill="#fff"/>
        <path id="Path_146" data-name="Path 146" d="M152.4,9.263V8.2h1.113V9.263Zm.1,7.944V10.679h.961v6.527Z" transform="translate(-103.826 -7.947)" fill="#fff"/>
        <path id="Path_147" data-name="Path 147" d="M159.961,19.479H159V12.952h.961v1.113a2.432,2.432,0,0,1,2.226-1.265,2.365,2.365,0,0,1,2.479,2.58v4.048h-.961V15.633a1.746,1.746,0,0,0-1.822-1.973,1.927,1.927,0,0,0-1.973,2.024l.051,3.795Z" transform="translate(-107.087 -10.22)" fill="#fff"/>
        <path id="Path_148" data-name="Path 148" d="M175.121,15.828a.989.989,0,0,0,1.113,1.113,2.193,2.193,0,0,0,.961-.2v.81a2.195,2.195,0,0,1-1.164.253,1.629,1.629,0,0,1-1.822-1.822V12.033H173.3v-.911h.911V9.2h.961v1.923h2.074v.86h-2.074v3.845Z" transform="translate(-114.151 -8.441)" fill="#fff"/>
      </g>
      <g id="nav__logo__learning_1_" transform="translate(97.147 3.896)">
        <path id="Path_149" data-name="Path 149" d="M192,16.959V7.7h.961v9.259Z" transform="translate(-192 -7.7)" fill="#fff"/>
        <path id="Path_150" data-name="Path 150" d="M201.038,18.82a2.666,2.666,0,0,0,2.075-.911l.607.506a3.494,3.494,0,0,1-2.682,1.265,3.235,3.235,0,0,1-3.238-3.39,3.214,3.214,0,0,1,3.137-3.39c1.923,0,3.036,1.569,3.036,3.441v.3h-5.161a2.168,2.168,0,0,0,2.226,2.176Zm1.872-2.935a2.185,2.185,0,0,0-2.074-2.226,2.3,2.3,0,0,0-2.125,2.226Z" transform="translate(-194.865 -10.269)" fill="#fff"/>
        <path id="Path_151" data-name="Path 151" d="M213.011,14.316l-.3-.81A5,5,0,0,1,215.085,13c1.771,0,2.783.911,2.783,2.631v4h-.961v-.961a2.833,2.833,0,0,1-2.378,1.113,2.166,2.166,0,0,1-2.429-2.024c0-1.417,1.113-2.125,2.783-2.125a7.2,7.2,0,0,1,1.973.253v-.2c0-1.164-.708-1.771-1.973-1.771a3.24,3.24,0,0,0-1.872.4Zm.152,3.289c0,.81.759,1.316,1.67,1.316a1.941,1.941,0,0,0,2.176-1.771v-.658a6.553,6.553,0,0,0-1.923-.253c-1.214,0-1.923.557-1.923,1.366Z" transform="translate(-201.93 -10.318)" fill="#fff"/>
        <path id="Path_152" data-name="Path 152" d="M228.661,19.477H227.7V12.949h.961v1.67a2.782,2.782,0,0,1,2.682-1.822V13.81h-.051c-1.417,0-2.58,1.012-2.58,2.985v2.682Z" transform="translate(-209.637 -10.217)" fill="#fff"/>
        <path id="Path_153" data-name="Path 153" d="M238.761,19.479H237.8V12.952h.961v1.113a2.432,2.432,0,0,1,2.226-1.265,2.365,2.365,0,0,1,2.479,2.58v4.048h-.961V15.633a1.746,1.746,0,0,0-1.822-1.973,1.927,1.927,0,0,0-1.973,2.024v3.795Z" transform="translate(-214.626 -10.22)" fill="#fff"/>
        <path id="Path_154" data-name="Path 154" d="M253.1,9.263V8.2h1.113V9.263Zm.1,7.944V10.679h.961v6.527Z" transform="translate(-222.185 -7.947)" fill="#fff"/>
        <path id="Path_155" data-name="Path 155" d="M260.661,19.479H259.7V12.952h.961v1.113a2.432,2.432,0,0,1,2.226-1.265,2.365,2.365,0,0,1,2.479,2.58v4.048h-.961V15.633a1.746,1.746,0,0,0-1.822-1.973,1.927,1.927,0,0,0-1.973,2.024l.051,3.795Z" transform="translate(-225.445 -10.22)" fill="#fff"/>
        <path id="Path_156" data-name="Path 156" d="M277.638,21.552a5.082,5.082,0,0,1-2.985-.911l.455-.759a4.428,4.428,0,0,0,2.53.81,2.167,2.167,0,0,0,2.378-2.327v-.759a3.119,3.119,0,0,1-2.581,1.417,2.979,2.979,0,0,1-3.036-3.036,3.021,3.021,0,0,1,3.036-3.086,3.1,3.1,0,0,1,2.581,1.316V13.052h.961v5.363a3,3,0,0,1-3.339,3.137Zm-.051-7.843a2.137,2.137,0,0,0-2.277,2.226,2.193,2.193,0,0,0,2.277,2.226,2.293,2.293,0,0,0,2.429-2.226A2.322,2.322,0,0,0,277.588,13.71Z" transform="translate(-232.708 -10.269)" fill="#fff"/>
      </g>
    </g>
    <g id="Group_64" data-name="Group 64" transform="translate(678.977 -47.38)">
      <path id="Path_173" data-name="Path 173" d="M300.934,157.554l-16.686,11.625L264.391,142.4" transform="translate(42.451 10.803)" fill="none" stroke="#fff" stroke-linecap="round" stroke-linejoin="round" stroke-width="1.8"/>
      <path id="Path_174" data-name="Path 174" d="M284.472,143.947l-19.583-3.1a8.523,8.523,0,0,0-5.354.9l-11.229,5.983a8.542,8.542,0,0,0-4.243,5.366s-.467,3.831-1.007,8.186.612,5.424,4.212,6.194h0c3.808.815,7.679-1.6,9.942-9.15l.437-1.446s10.457,2.727,16.2,1.469" transform="translate(22.37 9.177)" fill="none" stroke="#fff" stroke-linecap="round" stroke-linejoin="round" stroke-width="1.8"/>
      <line id="Line_1" data-name="Line 1" x1="10.847" y2="6.774" transform="translate(315.852 180.303)" fill="none" stroke="#fff" stroke-linecap="round" stroke-linejoin="round" stroke-width="1.8"/>
      <path id="Path_175" data-name="Path 175" d="M235.713,160.253l-1.727,2.114a4.667,4.667,0,0,0,.718,6.61h0a4.668,4.668,0,0,0,6.514-.708l1.727-2.116a4.666,4.666,0,0,0-.718-6.608h0A4.664,4.664,0,0,0,235.713,160.253Z" transform="translate(13.017 26.362)" fill="none" stroke="#fff" stroke-linecap="round" stroke-linejoin="round" stroke-width="1.8"/>
      <path id="Path_176" data-name="Path 176" d="M240.653,162.512l-2.886,3.536a4.667,4.667,0,0,0,.718,6.61h0a4.666,4.666,0,0,0,6.514-.708l2.888-3.538a4.668,4.668,0,0,0-.718-6.608h0A4.668,4.668,0,0,0,240.653,162.512Z" transform="translate(16.554 28.78)" fill="none" stroke="#fff" stroke-linecap="round" stroke-linejoin="round" stroke-width="1.8"/>
      <path id="Path_177" data-name="Path 177" d="M244.432,165.507l-2.886,3.538a4.667,4.667,0,0,0,.718,6.608h0a4.667,4.667,0,0,0,6.516-.708l2.886-3.537a4.669,4.669,0,0,0-.718-6.61h0A4.67,4.67,0,0,0,244.432,165.507Z" transform="translate(20.092 31.583)" fill="none" stroke="#fff" stroke-linecap="round" stroke-linejoin="round" stroke-width="1.8"/>
      <path id="Path_178" data-name="Path 178" d="M248.347,168.252l-2.741,3.358a4.667,4.667,0,0,0,.718,6.61h0a4.668,4.668,0,0,0,6.514-.708l2.741-3.358a4.667,4.667,0,0,0-.718-6.61h0A4.668,4.668,0,0,0,248.347,168.252Z" transform="translate(23.89 34.151)" fill="none" stroke="#fff" stroke-linecap="round" stroke-linejoin="round" stroke-width="1.8"/>
      <line id="Line_2" data-name="Line 2" x1="18.902" y1="1.636" transform="translate(255.565 153.041)" fill="none" stroke="#fff" stroke-linecap="round" stroke-linejoin="round" stroke-width="1.8"/>
      <path id="Path_179" data-name="Path 179" d="M219.023,167.407l16.685,11.625,19.857-26.784-29.256-20.383" transform="translate(0 0.454)" fill="none" stroke="#fff" stroke-linecap="round" stroke-linejoin="round" stroke-width="1.8"/>
      <path id="Path_180" data-name="Path 180" d="M251.137,174.076l2.923,2.609a4.666,4.666,0,0,0,6.659-.565h0a4.665,4.665,0,0,0-.552-6.492l-5.329-4.609" transform="translate(30.049 32.733)" fill="none" stroke="#fff" stroke-linecap="round" stroke-linejoin="round" stroke-width="1.8"/>
      <path id="Path_181" data-name="Path 181" d="M253.049,168.506l7.425,6.423a4.665,4.665,0,0,0,6.659-.567h0a4.665,4.665,0,0,0-.552-6.49l-7.605-6.579" transform="translate(31.838 29.245)" fill="none" stroke="#fff" stroke-linecap="round" stroke-linejoin="round" stroke-width="1.8"/>
      <path id="Path_182" data-name="Path 182" d="M256.111,164.778l10.584,9.158a4.669,4.669,0,0,0,6.659-.567h0a4.667,4.667,0,0,0-.554-6.492l-10.763-9.311" transform="translate(34.704 25.509)" fill="none" stroke="#fff" stroke-linecap="round" stroke-linejoin="round" stroke-width="1.8"/>
      <path id="Path_183" data-name="Path 183" d="M261.548,164.434l13,11.25a4.667,4.667,0,0,0,6.659-.567h0a4.668,4.668,0,0,0-.554-6.492l-24.022-18.4" transform="translate(35.194 18.481)" fill="none" stroke="#fff" stroke-linecap="round" stroke-linejoin="round" stroke-width="1.8"/>
      <line id="Line_3" data-name="Line 3" x2="12.125" y2="6.774" transform="translate(235.708 180.303)" fill="none" stroke="#fff" stroke-linecap="round" stroke-linejoin="round" stroke-width="1.8"/>
      <line id="Line_4" data-name="Line 4" y1="21.322" x2="30.604" transform="translate(306.841 131.38)" fill="none" stroke="#fff" stroke-linecap="round" stroke-linejoin="round" stroke-width="1.8"/>
    </g>
    <g id="Group_65" data-name="Group 65" transform="translate(147.053 -48.223)">
      <path id="Path_184" data-name="Path 184" d="M180.232,187.286l-34.495-34.495-6.087-2.029-8.116-12.175,6.087-6.087,12.175,8.116,2.029,6.087L186.319,181.2" transform="translate(0.603 1.314)" fill="none" stroke="#fff" stroke-miterlimit="10" stroke-width="2"/>
      <path id="Path_185" data-name="Path 185" d="M178.882,187.788,162.65,171.555c-.01-.012-6.087,0-6.087,0s-2.049-4.578-2.029-4.6l11.284-11.284c.02-.02,4.949,1.678,4.949,1.678s-.012,6.075,0,6.087L187,179.671a5.738,5.738,0,0,1,0,8.116h0A5.738,5.738,0,0,1,178.882,187.788Z" transform="translate(24.272 25.161)" fill="none" stroke="#fff" stroke-miterlimit="10" stroke-width="2"/>
      <line id="Line_5" data-name="Line 5" y1="2.87" x2="2.87" transform="translate(137.035 206.385)" fill="none" stroke="#fff" stroke-linejoin="round" stroke-width="2"/>
      <path id="Path_186" data-name="Path 186" d="M160.893,172.044l9.31-9.307a2.066,2.066,0,0,1,2.161-.459c5.566,1.934,11.5,1.142,15.987-3.344a16.213,16.213,0,0,0,4.5-14.354,2.035,2.035,0,0,0-3.439-1.049l-6.8,6.8a2.031,2.031,0,0,1-2.869,0l-5.74-5.74a2.027,2.027,0,0,1,0-2.869l6.8-6.8a2.035,2.035,0,0,0-1.051-3.439,16.216,16.216,0,0,0-14.354,4.5c-4.484,4.486-5.276,10.421-3.342,15.989a2.074,2.074,0,0,1-.459,2.161l-9.308,9.308" transform="translate(21.96)" fill="none" stroke="#fff" stroke-linejoin="round" stroke-width="2"/>
      <path id="Path_187" data-name="Path 187" d="M161.522,153.369,132.731,182.16a6.088,6.088,0,1,0,8.609,8.609l28.62-28.622" transform="translate(0 22.79)" fill="none" stroke="#fff" stroke-linejoin="round" stroke-width="2"/>
    </g>
    <text id="Hard_Skills" data-name="Hard Skills" transform="translate(192 279)" fill="#fff" font-size="54" font-family="ProximaNova-Semibold, Proxima Nova" font-weight="600"><tspan x="0" y="0">Hard Skills</tspan></text>
    <text id="Soft_Skills" data-name="Soft Skills" transform="translate(960 279)" fill="#fff" font-size="54" font-family="ProximaNova-Semibold, Proxima Nova" font-weight="600"><tspan x="-117.882" y="0">Soft Skills</tspan></text>
    <text id="_Measurable_Easily_defined_Specific" data-name="• Measurable 
• Easily defined 
• Specific" transform="translate(146 330)" fill="#fff" font-size="40" font-family="ProximaNova-Semibold, Proxima Nova" font-weight="600"><tspan x="0" y="37">• Measurable </tspan><tspan x="0" y="92">• Easily defined </tspan><tspan x="0" y="147">• Specific</tspan></text>
    <text id="_Hard_to_measure_Difficult_to_define_Universal_" data-name="• Hard to measure
• Difficult to define
• Universal
" transform="translate(786 330)" fill="#fff" font-size="40" font-family="ProximaNova-Semibold, Proxima Nova" font-weight="600"><tspan x="0" y="37">• Hard to measure</tspan><tspan x="0" y="92">• Difficult to define</tspan><tspan x="0" y="147">• Universal</tspan></text>
    <text id="Examples:_Bookkeeping_analytics_and_inventory_control" data-name="Examples:
Bookkeeping, analytics, and inventory control" transform="translate(146 540)" fill="#fff" font-size="30" font-family="ProximaNova-Semibold, Proxima Nova" font-weight="600"><tspan x="0" y="28">Examples:</tspan><tspan x="0" y="72">Bookkeeping, analytics, </tspan><tspan x="0" y="116">and inventory control</tspan></text>
    <text id="Examples:_Creativity_collaboration_and_adaptability" data-name="Examples:
Creativity, collaboration, and adaptability" transform="translate(786 540)" fill="#fff" font-size="30" font-family="ProximaNova-Semibold, Proxima Nova" font-weight="600"><tspan x="0" y="28">Examples:</tspan><tspan x="0" y="72">Creativity, collaboration, </tspan><tspan x="0" y="116">and adaptability</tspan></text>
    <circle id="Ellipse_1" data-name="Ellipse 1" cx="77" cy="77" r="77" transform="translate(563 323)" fill="#fff"/>
    <path id="Path_188" data-name="Path 188" d="M329.54,130.249l-24.279,57.906H287.854L267.72,130.249h19.056L298.1,164.084l14.038-33.835Z" transform="translate(319.28 241.074)" fill="#740bd3"/>
    <path id="Path_189" data-name="Path 189" d="M298.5,188.717a31.1,31.1,0,0,1-10.011-4.341l6.209-14.229a33.344,33.344,0,0,0,8.267,3.847,29.551,29.551,0,0,0,8.874,1.446,12.923,12.923,0,0,0,5.282-.783,2.633,2.633,0,0,0,1.657-2.359,2.8,2.8,0,0,0-1.963-2.729,39.308,39.308,0,0,0-6.717-1.985,69.268,69.268,0,0,1-10.025-3.022,16.428,16.428,0,0,1-6.86-5.293q-2.873-3.681-2.642-9.969a18.961,18.961,0,0,1,3.131-9.927,19.661,19.661,0,0,1,8.542-7.032,32.2,32.2,0,0,1,13.479-2.564,43.8,43.8,0,0,1,10.573,1.28,30.274,30.274,0,0,1,9.053,3.766l-5.83,14.144q-7.578-4.3-14.479-4.3-6.824,0-6.956,3.642a2.688,2.688,0,0,0,1.929,2.606,38.885,38.885,0,0,0,6.613,1.862,62.053,62.053,0,0,1,10.028,2.85,16.77,16.77,0,0,1,6.973,5.254q2.915,3.643,2.687,9.927a18.789,18.789,0,0,1-3.131,9.887,20.081,20.081,0,0,1-8.542,7.029,31.737,31.737,0,0,1-13.482,2.609A49.527,49.527,0,0,1,298.5,188.717Z" transform="translate(356.842 240.222)" fill="#f11e62"/>
  </g>
</svg>
