<svg xmlns="http://www.w3.org/2000/svg" xmlns:xlink="http://www.w3.org/1999/xlink" width="1280" height="800" viewBox="0 0 1280 800">
  <defs>
    <clipPath id="clip-_2020-05-06-ppe-training02">
      <rect width="1280" height="800"/>
    </clipPath>
  </defs>
  <g id="_2020-05-06-ppe-training02" data-name="2020-05-06-ppe-training02" clip-path="url(#clip-_2020-05-06-ppe-training02)">
    <rect width="1280" height="800" fill="#f9fbff"/>
    <g id="Group_112" data-name="Group 112" transform="translate(-842.97 -549.082)">
      <path id="Path_596" data-name="Path 596" d="M1039.385,1088.948,917.556,1018.61c-3.623-2.093-3.164-5.781,1.021-8.2l118.946-68.674c4.185-2.417,10.574-2.682,14.2-.589l121.829,70.338c3.623,2.093,3.166,5.781-1.019,8.2l-118.948,68.674C1049.4,1090.776,1043.01,1091.041,1039.385,1088.948Z" transform="translate(0 187.883)" fill="none" stroke="#3b2ad1" stroke-linecap="round" stroke-linejoin="round" stroke-width="1"/>
      <g id="Group_107" data-name="Group 107" transform="translate(1270.34 658.963)" opacity="0.46">
        <path id="Path_597" data-name="Path 597" d="M1258.505,653.748c36.965,21.343,66.84,73.088,66.72,115.563,0,.87-.037,1.734-.059,2.59a48.213,48.213,0,0,1,5.562,2.764c22.153,12.791,40.045,43.781,39.972,69.236-.07,24.6-16.9,35.01-38.035,24.126l-148.788-86.444c-24.995-14.3-45.118-49.251-45.037-77.959.083-28.978,20.349-40.809,45.567-26.249a69.108,69.108,0,0,1,7.544,5.084C1196.289,647.09,1224.454,634.088,1258.505,653.748Z" transform="translate(-1138.84 -644.57)" fill="#bde1ff"/>
      </g>
      <g id="Group_108" data-name="Group 108" transform="translate(984.542 711.159)" opacity="0.46">
        <path id="Path_598" data-name="Path 598" d="M1041.069,683.751c25.4,14.666,45.931,50.223,45.847,79.411,0,.6-.024,1.191-.04,1.78a33.113,33.113,0,0,1,3.822,1.9c15.224,8.79,27.518,30.085,27.468,47.576-.048,16.9-11.615,24.058-26.136,16.579l-102.243-59.4c-17.175-9.827-31-33.843-30.947-53.571.057-19.912,13.983-28.041,31.312-18.037a47.291,47.291,0,0,1,5.182,3.495C998.317,679.175,1017.67,670.242,1041.069,683.751Z" transform="translate(-958.84 -677.444)" fill="#bde1ff"/>
      </g>
      <path id="Path_599" data-name="Path 599" d="M973.4,792.073l-8.253,24.979a95.466,95.466,0,0,0,2.891,67.537l11.707,27.332,10.992-8.528L982.8,871.21a51.176,51.176,0,0,1,1.451-28.916C988.776,829.135,991.77,807.971,973.4,792.073Z" transform="translate(26.574 101.091)" fill="#fbddd3"/>
      <path id="Path_600" data-name="Path 600" d="M1000.8,806.191,996.375,855.8c-1.618,3.966-37.644-6.505-35.855-12.467.316-1.051,7.493-59.409,24.658-71.835C999.12,761.407,1005.351,783.831,1000.8,806.191Z" transform="translate(26.651 87.536)" fill="#f28420"/>
      <g id="Group_110" data-name="Group 110" transform="translate(1114.256 620.082)">
        <path id="Path_601" data-name="Path 601" d="M1260.061,1049.947l84.966-51.031a11.336,11.336,0,0,0-.165-19.388l-251.945-149.8L1059.8,934.472Z" transform="translate(-1029.213 -496.858)" fill="#a8c4e5" opacity="0.4" style="mix-blend-mode: multiply;isolation: isolate"/>
        <path id="Path_602" data-name="Path 602" d="M1251.165,1180.157l-177.087-117.441c-11.075-6.394-20.054-23.548-20.054-38.316l0-386.512c0-14.768,8.979-21.556,20.055-15.16l184.892,106.747c11.076,6.4,20.055,23.55,20.055,38.318v384.684c0,9.716-3.636,13.768-9.749,17.3Z" transform="translate(-1032.609 -619.941)" fill="#a6b5e0"/>
        <path id="Path_603" data-name="Path 603" d="M1154.54,817.2s-94.8,221.724-94.8,206.956l-15.573-390.843,23.24-12.272c3.411-1.607,7.712-1.256,12.386,1.443l184.894,106.747c5.408,3.123,10.316,8.811,13.923,15.533Z" transform="translate(-1038.404 -620.082)" fill="#ccd9ff"/>
        <path id="Path_604" data-name="Path 604" d="M1246.905,1175.409l-184.44-106.749c-11.075-6.394-19.6-23.548-19.6-38.316V643.832c0-14.768,8.744-21.555,19.819-15.16l184.337,106.747c11.076,6.4,19.5,23.55,19.5,38.318v386.512C1266.519,1175.015,1257.98,1181.8,1246.905,1175.409Z" transform="translate(-1039.167 -616.448)" fill="#e6f0ff"/>
        <path id="Path_605" data-name="Path 605" d="M1244.575,1176.271l-184.438-106.749c-11.076-6.394-19.6-23.55-19.6-38.316V644.7c0-14.768,8.744-21.556,19.82-15.16l184.336,106.747c11.075,6.394,19.5,23.55,19.5,38.318v386.512C1264.19,1175.878,1255.651,1182.665,1244.575,1176.271Z" transform="translate(-1040.536 -615.941)" fill="#3f5fc2"/>
        <path id="Path_606" data-name="Path 606" d="M1233.511,1094.83,1053.681,991a6.042,6.042,0,0,1-3.021-5.235V659.364a6.044,6.044,0,0,1,9.066-5.235l179.831,103.824a6.047,6.047,0,0,1,3.021,5.236v326.405A6.044,6.044,0,0,1,1233.511,1094.83Z" transform="translate(-1034.586 -600.552)" fill="#2c1f9c"/>
        <path id="Path_607" data-name="Path 607" d="M1153.228,705.517,1096.2,672.59c-2-1.156-3.638-4.284-3.638-6.951h0c0-2.669,1.637-3.906,3.638-2.752l57.031,32.929c2,1.156,3.639,4.284,3.639,6.951h0C1156.867,705.434,1155.23,706.673,1153.228,705.517Z" transform="translate(-1009.959 -595.177)" fill="#2c1f9c"/>
        <g id="Group_109" data-name="Group 109" transform="translate(180.419 403.909)">
          <path id="Path_608" data-name="Path 608" d="M1154.167,874.47" transform="translate(-1154.167 -874.47)" fill="none" stroke="#fff" stroke-miterlimit="10" stroke-width="1.371"/>
        </g>
      </g>
      <g id="Group_111" data-name="Group 111" transform="translate(1157.427 822.016)">
        <path id="Path_609" data-name="Path 609" d="M1164.116,796.347c-9.095-14.769-21.3-26.819-34.369-33.926-13.794-7.5-27.11-8.772-37.489-3.574-10.8,5.406-16.741,16.9-16.734,32.351.006,14.031,5,29.866,14.071,44.591,9.095,14.77,21.3,26.818,34.369,33.926,8.21,4.465,16.251,6.723,23.6,6.723a30.739,30.739,0,0,0,13.887-3.149c10.8-5.408,16.741-16.9,16.733-32.351C1178.18,826.907,1173.184,811.071,1164.116,796.347Zm-7.815,68.42a26.155,26.155,0,0,1-11.818,2.68c-6.257,0-13.1-1.921-20.089-5.722-11.122-6.049-21.51-16.3-29.251-28.874-7.717-12.531-11.969-26.009-11.975-37.951-.006-13.151,5.052-22.931,14.242-27.532,8.834-4.425,20.166-3.342,31.906,3.042,11.122,6.048,21.509,16.3,29.25,28.874,7.717,12.531,11.97,26.009,11.975,37.949C1170.55,850.387,1165.491,860.165,1156.3,864.768Z" transform="translate(-1063.142 -742.305)" fill="#fff"/>
        <path id="Path_610" data-name="Path 610" d="M1177.209,797.5c-11.24-18.253-26.324-33.141-42.474-41.925-17.048-9.271-33.5-10.843-46.328-4.417-13.345,6.682-20.69,20.881-20.681,39.978.008,17.34,6.183,36.911,17.388,55.107,11.24,18.253,26.325,33.143,42.474,41.925,10.147,5.519,20.082,8.309,29.169,8.309a38,38,0,0,0,17.161-3.89c13.345-6.683,20.69-20.881,20.679-39.98C1194.59,835.263,1188.414,815.694,1177.209,797.5Z" transform="translate(-1067.726 -747.263)" fill="none" stroke="#fff" stroke-miterlimit="10" stroke-width="1.342" opacity="0.44"/>
        <path id="Path_611" data-name="Path 611" d="M1105.477,778.665l27.929,38.049c1.734,2.363,1.334,5.121-.729,5.021l-29.605-1.44c-1.991-.1-4.16-2.807-4.055-5.07l1.675-36.609C1100.807,776.088,1103.605,776.117,1105.477,778.665Z" transform="translate(-1049.337 -729.939)" fill="#e24152"/>
      </g>
      <ellipse id="Ellipse_33" data-name="Ellipse 33" cx="55.684" cy="27.663" rx="55.684" ry="27.663" transform="translate(992.631 1183.247) rotate(-1.016)" fill="#a8c4e5" opacity="0.4" style="mix-blend-mode: multiply;isolation: isolate"/>
      <path id="Path_612" data-name="Path 612" d="M974.8,979.784l13.042-1.635c8.728-3.955,12.807-6.927,16.694-4.682l1.1.637c3.887,2.244,3.4,6.2-1.092,8.792L985.37,998.129a12.656,12.656,0,0,1-14.118-1.372s-2.147-1.935-.611-10.086C971.515,982.024,971.21,981.858,974.8,979.784Z" transform="translate(32.312 207.253)" fill="#2c1f9c"/>
      <path id="Path_613" data-name="Path 613" d="M1012.427,996.545l12.918,2.432c9.52-1.094,14.312-2.674,17.326.652l.854.942c3.014,3.327,1.335,6.943-3.731,8.036l-22.918,8.636a12.655,12.655,0,0,1-13.021-5.627s-1.45-2.5,2.505-9.789C1008.615,997.672,1008.375,997.418,1012.427,996.545Z" transform="translate(52.008 221.272)" fill="#2c1f9c"/>
      <path id="Path_614" data-name="Path 614" d="M1020.7,1006.4c0,6.527-15.878,6.527-15.878,0V985.19H1020.7Z" transform="translate(52.731 214.598)" fill="#c6d2f2"/>
      <path id="Path_615" data-name="Path 615" d="M1033.624,1071.048c-5.217,7.4-16.576,7.448-19.792,2.1L986.251,852.4h57.306Z" transform="translate(41.813 136.549)" fill="#3b2ad1"/>
      <path id="Path_616" data-name="Path 616" d="M986.666,985.905c-.362,5.911-16.24,5.911-15.878,0l1.176-19.212h15.878Z" transform="translate(32.721 203.726)" fill="#c6d2f2"/>
      <path id="Path_617" data-name="Path 617" d="M990.6,1044.62c-6.343,6.527-18.821,3.741-21.222-.973l8.409-191.367,39.905,5.91Z" transform="translate(31.898 136.478)" fill="#3b2ad1"/>
      <ellipse id="Ellipse_34" data-name="Ellipse 34" cx="16.903" cy="29.821" rx="16.903" ry="29.821" transform="translate(1028.208 803.033) rotate(-7.368)" fill="#fbddd3"/>
      <path id="Path_618" data-name="Path 618" d="M1032.095,776.606c-3.934,13.714-18.635,18.675-27.278,9.723S992.356,759,996.291,745.289s14.131-17.573,22.773-8.622S1036.029,762.893,1032.095,776.606Z" transform="translate(46.803 65.689)" fill="#fbddd3"/>
      <path id="Path_619" data-name="Path 619" d="M1000.543,802.21l-1.47-.327a9.277,9.277,0,0,1-7.013-11.041l6.243-27.994a9.276,9.276,0,0,1,11.041-7.013l1.47.327a9.278,9.278,0,0,1,7.013,11.041l-2.047,27.781C1014.674,799.949,1005.506,803.318,1000.543,802.21Z" transform="translate(45.097 79.66)" fill="#fbddd3"/>
      <path id="Path_620" data-name="Path 620" d="M987.689,779.835s1.488,12.92,19.844,10.333c13.169-1.856,9.333-23.28,22.5-25.428,14.482-2.361,17.107-20.252,11.4-27.119s-21.656-10.455-33.208-5.36S978.858,737.053,987.689,779.835Z" transform="translate(41.263 64.523)" fill="#4432db"/>
      <path id="Path_621" data-name="Path 621" d="M1018.072,759.48a6.281,6.281,0,1,1-4.3-7.769A6.281,6.281,0,0,1,1018.072,759.48Z" transform="translate(53.275 77.223)" fill="#fbddd3"/>
      <path id="Path_622" data-name="Path 622" d="M973.623,898.462c4.687-25.695-.353-46,.056-73.323,0-49.113-2.356-61.1,23.608-53.627l7.317,1.943a50.447,50.447,0,0,1,10.157,3.922c34.231,17.635,43.367,23.075,41.865,43.533.154,33.7-4.813,71.488-5.519,88.067C1044.052,932.279,981.452,915.137,973.623,898.462Z" transform="translate(34.391 87.806)" fill="#fbb040"/>
      <path id="Path_623" data-name="Path 623" d="M1008.309,770.272l-1.489-3.439s2.651,2.653,7.7,2.005A12.1,12.1,0,0,1,1008.309,770.272Z" transform="translate(53.903 86.255)" fill="#2c1f9c"/>
      <path id="Path_624" data-name="Path 624" d="M1008.53,793.371S1016,827.516,1058.6,872.6c11.715,12.4,60.948-33.656,60.948-33.656l-3.788-17.149S1075,860.919,1064.042,846.1C1051.692,829.391,1043.237,778.076,1008.53,793.371Z" transform="translate(54.908 100.201)" fill="#fbddd3"/>
      <path id="Path_625" data-name="Path 625" d="M1016.921,822.346l21.141,45.1c2.877,3.172,33.14-19,29.418-23.991-.657-.88-27.379-53.252-47.762-59.049C1003.164,779.7,1004.989,802.9,1016.921,822.346Z" transform="translate(54.381 96.221)" fill="#fbb040"/>
      <path id="Path_626" data-name="Path 626" d="M1091.965,823.919l-5.453,4.022a9.492,9.492,0,0,1-13.235-2h0a9.491,9.491,0,0,1,2-13.234l5.452-4.022a9.492,9.492,0,0,1,13.234,2h0A9.493,9.493,0,0,1,1091.965,823.919Z" transform="translate(91.884 109.775)" fill="#fbddd3"/>
      <path id="Path_627" data-name="Path 627" d="M1028.945,841.056l-11.928-25.446,8.583,50.635Z" transform="translate(59.896 114.924)" fill="#2c1f9c"/>
      <path id="Path_628" data-name="Path 628" d="M1191.685,766.421h0c-3,1.184-5.452-.527-5.452-3.8v-19.8a9.4,9.4,0,0,1,5.452-8.114h0c3-1.186,5.451.526,5.451,3.8v19.8A9.4,9.4,0,0,1,1191.685,766.421Z" transform="translate(159.356 67.149)" fill="#3f5fc2"/>
      <path id="Path_629" data-name="Path 629" d="M1191.685,789.671h0c-3,1.184-5.452-.527-5.452-3.8v-19.8a9.4,9.4,0,0,1,5.452-8.114h0c3-1.186,5.451.526,5.451,3.8v19.8A9.4,9.4,0,0,1,1191.685,789.671Z" transform="translate(159.356 80.814)" fill="#3f5fc2"/>
    </g>
    <path id="Path_636" data-name="Path 636" d="M33,47h5.967V12.983H30.549l-9.282,22.9-9.231-22.9H3.621V47H9.588V21.245L19.992,47h2.55L33,21.245Zm24.174.612c7.905,0,12.7-5.865,12.7-12.954,0-7.038-4.794-12.9-12.7-12.9-7.8,0-12.648,5.865-12.648,12.9C44.523,41.747,49.368,47.612,57.171,47.612Zm0-4.743c-4.539,0-7.089-3.825-7.089-8.211,0-4.335,2.55-8.16,7.089-8.16,4.59,0,7.14,3.825,7.14,8.16C64.311,39.044,61.761,42.869,57.171,42.869ZM75.276,47h5.355V43.634a9.9,9.9,0,0,0,7.9,3.978c6.273,0,10.914-4.794,10.914-12.9,0-7.956-4.59-12.954-10.914-12.954a9.74,9.74,0,0,0-7.9,4.029v-12.8H75.276Zm5.355-7.4V29.864A8.038,8.038,0,0,1,86.955,26.5c4.284,0,6.987,3.417,6.987,8.211s-2.7,8.16-6.987,8.16A7.949,7.949,0,0,1,80.631,39.6Zm26.928-21.012a3.315,3.315,0,1,0-3.315-3.315A3.308,3.308,0,0,0,107.559,18.593ZM104.907,47h5.355V22.367h-5.355ZM117.2,47h5.355V12.983H117.2Zm10.761-12.342c0,7.8,5.508,12.954,12.9,12.954a14.359,14.359,0,0,0,10-3.57l-2.448-3.519a10.426,10.426,0,0,1-6.987,2.7,7.461,7.461,0,0,1-7.854-6.783h19.023V35.168c0-7.752-4.743-13.413-12.138-13.413C133.161,21.755,127.959,27.518,127.959,34.658Zm12.495-8.517a6.589,6.589,0,0,1,6.936,6.528H133.518A6.8,6.8,0,0,1,140.454,26.141Zm35.9,30.243v-12.8a9.672,9.672,0,0,0,7.9,4.029c6.375,0,10.914-4.845,10.914-12.954s-4.539-12.9-10.914-12.9a9.829,9.829,0,0,0-7.9,3.978V22.367H171V56.384Zm13.26-21.726c0,4.794-2.7,8.211-6.936,8.211a8.139,8.139,0,0,1-6.324-3.315V29.813a7.993,7.993,0,0,1,6.324-3.315C186.915,26.5,189.618,29.915,189.618,34.658ZM200.583,47h5.355V12.983h-5.355Zm27.336,0h5.355V30.68c0-6.63-4.794-8.925-10.251-8.925a14.649,14.649,0,0,0-10.353,3.978l2.193,3.723a10.086,10.086,0,0,1,7.293-3.111c3.417,0,5.763,1.734,5.763,4.59v3.672c-1.785-2.091-4.641-3.162-7.956-3.162-4.029,0-8.568,2.346-8.568,8.007,0,5.457,4.539,8.16,8.568,8.16a10.4,10.4,0,0,0,7.956-3.264Zm0-5.61a7.211,7.211,0,0,1-5.865,2.55c-3.009,0-5.253-1.734-5.253-4.386,0-2.7,2.244-4.437,5.253-4.437a7.211,7.211,0,0,1,5.865,2.55ZM247.6,47.612c2.5,0,4.08-.663,5.049-1.581L251.379,42a3.457,3.457,0,0,1-2.4.867c-1.53,0-2.346-1.224-2.346-2.907v-12.9h5V22.367h-5V15.635h-5.355v6.732H237.2v4.692h4.08V41.288C241.281,45.368,243.474,47.612,247.6,47.612ZM257.754,47h5.355V27.059h5V22.367h-5V20.99c0-2.754,1.326-4.131,3.417-4.131a4.292,4.292,0,0,1,2.142.51l1.173-3.927a8.87,8.87,0,0,0-4.284-.969c-4.539,0-7.8,3.009-7.8,8.517v1.377h-4.08v4.692h4.08Zm25.551.612c7.9,0,12.7-5.865,12.7-12.954,0-7.038-4.794-12.9-12.7-12.9-7.8,0-12.648,5.865-12.648,12.9C270.657,41.747,275.5,47.612,283.3,47.612Zm0-4.743c-4.539,0-7.089-3.825-7.089-8.211,0-4.335,2.55-8.16,7.089-8.16,4.59,0,7.14,3.825,7.14,8.16C290.445,39.044,287.895,42.869,283.3,42.869ZM301.41,47h5.355V30.221a8.506,8.506,0,0,1,6.324-3.264,7.894,7.894,0,0,1,1.683.153v-5.3a10.52,10.52,0,0,0-8.007,4.182V22.367H301.41ZM349.3,47h5.355V29.2c0-5-2.55-7.446-7.089-7.446a10.447,10.447,0,0,0-8.364,4.539c-.816-2.7-3.06-4.539-6.732-4.539a10.638,10.638,0,0,0-8.007,3.978V22.367h-5.355V47h5.355V29.813a7.453,7.453,0,0,1,5.661-3.315c2.907,0,4.08,1.785,4.08,4.437V47h5.355V29.762A7.474,7.474,0,0,1,345.27,26.5c2.856,0,4.029,1.785,4.029,4.437Zm10.149-3.213A14.982,14.982,0,0,0,370,47.612c6.63,0,10.251-3.315,10.251-7.65,0-5.814-5.253-7.038-9.537-7.956-2.907-.663-5.355-1.326-5.355-3.213,0-1.734,1.785-2.754,4.59-2.754A9.934,9.934,0,0,1,377.247,29l2.244-3.774a14.082,14.082,0,0,0-9.588-3.468c-6.222,0-9.69,3.468-9.69,7.5,0,5.508,5.049,6.63,9.282,7.548,3.009.663,5.61,1.428,5.61,3.57,0,1.836-1.632,3.009-4.845,3.009a12.714,12.714,0,0,1-8.364-3.468ZM33.66,103h5.355V85.2c0-5-2.55-7.446-7.089-7.446a10.447,10.447,0,0,0-8.364,4.539c-.816-2.7-3.06-4.539-6.732-4.539a10.638,10.638,0,0,0-8.007,3.978V78.367H3.468V103H8.823V85.813A7.453,7.453,0,0,1,14.484,82.5c2.907,0,4.08,1.785,4.08,4.437V103h5.355V85.762A7.474,7.474,0,0,1,29.631,82.5c2.856,0,4.029,1.785,4.029,4.437ZM48.6,74.593a3.315,3.315,0,1,0-3.315-3.315A3.308,3.308,0,0,0,48.6,74.593ZM45.951,103h5.355V78.367H45.951Zm11.985,6.324c3.009,2.754,6.12,3.672,10.3,3.672,6.069,0,12.648-2.4,12.648-11.271V78.367H75.531v3.417a9.811,9.811,0,0,0-7.9-4.029c-6.324,0-10.914,4.692-10.914,12.648,0,8.109,4.641,12.648,10.914,12.648a10,10,0,0,0,7.9-4.08v2.958c0,5.049-3.774,6.681-7.293,6.681-3.264,0-5.814-.867-7.8-3.162Zm17.6-14.331a7.993,7.993,0,0,1-6.324,3.315c-4.233,0-6.936-3.162-6.936-7.9s2.7-7.9,6.936-7.9a7.993,7.993,0,0,1,6.324,3.315ZM104.5,103h5.355V85.558c0-5.049-2.652-7.8-7.956-7.8a11.774,11.774,0,0,0-8.721,3.978V68.983H87.822V103h5.355V85.813A8.276,8.276,0,0,1,99.5,82.5c3.009,0,5,1.173,5,5Zm19.686.612c2.5,0,4.08-.663,5.049-1.581L127.959,98a3.457,3.457,0,0,1-2.4.867c-1.53,0-2.346-1.224-2.346-2.907v-12.9h5V78.367h-5V71.635h-5.355v6.732h-4.08v4.692h4.08V97.288C117.861,101.368,120.054,103.612,124.185,103.612ZM146.166,103h5.355V99.634a9.9,9.9,0,0,0,7.9,3.978c6.273,0,10.914-4.794,10.914-12.9,0-7.956-4.59-12.954-10.914-12.954a9.74,9.74,0,0,0-7.9,4.029v-12.8h-5.355Zm5.355-7.4V85.864a8.038,8.038,0,0,1,6.324-3.366c4.284,0,6.987,3.417,6.987,8.211s-2.7,8.16-6.987,8.16A7.949,7.949,0,0,1,151.521,95.6Zm22.746-4.947c0,7.8,5.508,12.954,12.9,12.954a14.359,14.359,0,0,0,10-3.57l-2.448-3.519a10.426,10.426,0,0,1-6.987,2.7,7.461,7.461,0,0,1-7.854-6.783H198.9V91.168c0-7.752-4.743-13.413-12.138-13.413C179.469,77.755,174.267,83.518,174.267,90.658Zm12.495-8.517a6.589,6.589,0,0,1,6.936,6.528H179.826A6.8,6.8,0,0,1,186.762,82.141Zm37.944,21.471c2.5,0,4.08-.663,5.049-1.581L228.48,98a3.457,3.457,0,0,1-2.4.867c-1.53,0-2.346-1.224-2.346-2.907v-12.9h5V78.367h-5V71.635h-5.355v6.732H214.3v4.692h4.08V97.288C218.382,101.368,220.575,103.612,224.706,103.612ZM250.257,103h5.355V85.558c0-5.049-2.652-7.8-7.956-7.8a11.774,11.774,0,0,0-8.721,3.978V68.983H233.58V103h5.355V85.813a8.276,8.276,0,0,1,6.324-3.315c3.009,0,5,1.173,5,5Zm10.761-12.342c0,7.8,5.508,12.954,12.9,12.954a14.359,14.359,0,0,0,10-3.57l-2.448-3.519a10.426,10.426,0,0,1-6.987,2.7,7.461,7.461,0,0,1-7.854-6.783h19.023V91.168c0-7.752-4.743-13.413-12.138-13.413C266.22,77.755,261.018,83.518,261.018,90.658Zm12.5-8.517a6.589,6.589,0,0,1,6.936,6.528H266.577A6.8,6.8,0,0,1,273.513,82.141ZM304.062,103h5.355V99.634a9.9,9.9,0,0,0,7.9,3.978c6.273,0,10.914-4.794,10.914-12.9,0-7.956-4.59-12.954-10.914-12.954a9.74,9.74,0,0,0-7.9,4.029v-12.8h-5.355Zm5.355-7.4V85.864a8.038,8.038,0,0,1,6.324-3.366c4.284,0,6.987,3.417,6.987,8.211s-2.7,8.16-6.987,8.16A7.949,7.949,0,0,1,309.417,95.6Zm22.746-4.947c0,7.8,5.508,12.954,12.9,12.954a14.359,14.359,0,0,0,10-3.57l-2.448-3.519a10.426,10.426,0,0,1-6.987,2.7,7.461,7.461,0,0,1-7.854-6.783H356.8V91.168c0-7.752-4.743-13.413-12.138-13.413C337.365,77.755,332.163,83.518,332.163,90.658Zm12.5-8.517a6.589,6.589,0,0,1,6.936,6.528H337.722A6.8,6.8,0,0,1,344.658,82.141Zm15.3,17.646a14.982,14.982,0,0,0,10.557,3.825c6.63,0,10.251-3.315,10.251-7.65,0-5.814-5.253-7.038-9.537-7.956-2.907-.663-5.355-1.326-5.355-3.213,0-1.734,1.785-2.754,4.59-2.754A9.934,9.934,0,0,1,377.757,85L380,81.223a14.082,14.082,0,0,0-9.588-3.468c-6.222,0-9.69,3.468-9.69,7.5,0,5.508,5.049,6.63,9.282,7.548,3.009.663,5.61,1.428,5.61,3.57,0,1.836-1.632,3.009-4.845,3.009a12.714,12.714,0,0,1-8.364-3.468Zm33.609,3.825c2.5,0,4.08-.663,5.049-1.581L397.341,98a3.457,3.457,0,0,1-2.4.867c-1.53,0-2.346-1.224-2.346-2.907v-12.9h5V78.367h-5V71.635h-5.355v6.732h-4.08v4.692h4.08V97.288C387.243,101.368,389.436,103.612,393.567,103.612ZM1.938,146.658c0,7.5,5.253,12.954,12.75,12.954,4.794,0,7.7-2.04,9.435-4.386L20.6,151.962a6.7,6.7,0,0,1-5.661,2.907c-4.488,0-7.446-3.417-7.446-8.211s2.958-8.16,7.446-8.16A6.575,6.575,0,0,1,20.6,141.4l3.519-3.264c-1.734-2.346-4.641-4.386-9.435-4.386C7.191,133.755,1.938,139.212,1.938,146.658ZM45.492,159h5.355V141.558c0-5.049-2.652-7.8-7.956-7.8a11.774,11.774,0,0,0-8.721,3.978v-12.75H28.815V159H34.17V141.813a8.276,8.276,0,0,1,6.324-3.315c3.009,0,5,1.173,5,5Zm23.409.612c7.9,0,12.7-5.865,12.7-12.954,0-7.038-4.794-12.9-12.7-12.9-7.8,0-12.648,5.865-12.648,12.9C56.253,153.747,61.1,159.612,68.9,159.612Zm0-4.743c-4.539,0-7.089-3.825-7.089-8.211,0-4.335,2.55-8.16,7.089-8.16,4.59,0,7.14,3.825,7.14,8.16C76.041,151.044,73.491,154.869,68.9,154.869Zm20.757-24.276a3.315,3.315,0,1,0-3.315-3.315A3.308,3.308,0,0,0,89.658,130.593ZM87.006,159h5.355V134.367H87.006Zm10.761-12.342c0,7.5,5.253,12.954,12.75,12.954,4.794,0,7.7-2.04,9.435-4.386l-3.519-3.264a6.7,6.7,0,0,1-5.661,2.907c-4.488,0-7.446-3.417-7.446-8.211s2.958-8.16,7.446-8.16a6.575,6.575,0,0,1,5.661,2.907l3.519-3.264c-1.734-2.346-4.641-4.386-9.435-4.386C103.02,133.755,97.767,139.212,97.767,146.658Zm25.347,0c0,7.8,5.508,12.954,12.9,12.954a14.358,14.358,0,0,0,10-3.57l-2.448-3.519a10.426,10.426,0,0,1-6.987,2.7,7.461,7.461,0,0,1-7.854-6.783h19.023v-1.275c0-7.752-4.743-13.413-12.138-13.413C128.316,133.755,123.114,139.518,123.114,146.658Zm12.495-8.517a6.589,6.589,0,0,1,6.936,6.528H128.673A6.8,6.8,0,0,1,135.609,138.141ZM167.433,159h5.355V139.059h5v-4.692h-5V132.99c0-2.754,1.326-4.131,3.417-4.131a4.292,4.292,0,0,1,2.142.51l1.173-3.927a8.87,8.87,0,0,0-4.284-.969c-4.539,0-7.8,3.009-7.8,8.517v1.377h-4.08v4.692h4.08Zm25.551.612c7.9,0,12.7-5.865,12.7-12.954,0-7.038-4.794-12.9-12.7-12.9-7.8,0-12.648,5.865-12.648,12.9C180.336,153.747,185.181,159.612,192.984,159.612Zm0-4.743c-4.539,0-7.089-3.825-7.089-8.211,0-4.335,2.55-8.16,7.089-8.16,4.59,0,7.14,3.825,7.14,8.16C200.124,151.044,197.574,154.869,192.984,154.869Zm18.1,4.131h5.355V142.221a8.506,8.506,0,0,1,6.324-3.264,7.894,7.894,0,0,1,1.683.153v-5.3a10.52,10.52,0,0,0-8.007,4.182v-3.621h-5.355Zm45.849,0h5.355V142.68c0-6.63-4.794-8.925-10.251-8.925a14.649,14.649,0,0,0-10.353,3.978l2.193,3.723a10.087,10.087,0,0,1,7.293-3.111c3.417,0,5.763,1.734,5.763,4.59v3.672c-1.785-2.091-4.641-3.162-7.956-3.162-4.029,0-8.568,2.346-8.568,8.007,0,5.457,4.539,8.16,8.568,8.16a10.4,10.4,0,0,0,7.956-3.264Zm0-5.61a7.211,7.211,0,0,1-5.865,2.55c-3.009,0-5.253-1.734-5.253-4.386,0-2.7,2.244-4.437,5.253-4.437a7.211,7.211,0,0,1,5.865,2.55Zm11.985,11.934c3.009,2.754,6.12,3.672,10.3,3.672,6.069,0,12.648-2.4,12.648-11.271V134.367h-5.355v3.417a9.811,9.811,0,0,0-7.9-4.029c-6.324,0-10.914,4.692-10.914,12.648,0,8.109,4.641,12.648,10.914,12.648a10,10,0,0,0,7.9-4.08v2.958c0,5.049-3.774,6.681-7.293,6.681-3.264,0-5.814-.867-7.8-3.162Zm17.6-14.331a7.993,7.993,0,0,1-6.324,3.315c-4.233,0-6.936-3.162-6.936-7.9s2.7-7.9,6.936-7.9a7.993,7.993,0,0,1,6.324,3.315Zm14.943-20.4a3.315,3.315,0,1,0-3.315-3.315A3.308,3.308,0,0,0,301.461,130.593ZM298.809,159h5.355V134.367h-5.355Zm12.291,0h5.355V124.983H311.1Zm10.761-12.342c0,7.8,5.508,12.954,12.9,12.954a14.358,14.358,0,0,0,10-3.57l-2.448-3.519a10.426,10.426,0,0,1-6.987,2.7,7.461,7.461,0,0,1-7.854-6.783h19.023v-1.275c0-7.752-4.743-13.413-12.138-13.413C327.063,133.755,321.861,139.518,321.861,146.658Zm12.5-8.517a6.589,6.589,0,0,1,6.936,6.528H327.42A6.8,6.8,0,0,1,334.356,138.141ZM379.95,159H385.3V142.68c0-6.63-4.794-8.925-10.251-8.925a14.649,14.649,0,0,0-10.353,3.978l2.193,3.723a10.087,10.087,0,0,1,7.293-3.111c3.417,0,5.763,1.734,5.763,4.59v3.672c-1.785-2.091-4.641-3.162-7.956-3.162-4.029,0-8.568,2.346-8.568,8.007,0,5.457,4.539,8.16,8.568,8.16a10.4,10.4,0,0,0,7.956-3.264Zm0-5.61a7.211,7.211,0,0,1-5.865,2.55c-3.009,0-5.253-1.734-5.253-4.386,0-2.7,2.244-4.437,5.253-4.437a7.211,7.211,0,0,1,5.865,2.55ZM408.867,159h5.355V141.66c0-5.049-2.652-7.9-7.956-7.9a11.655,11.655,0,0,0-8.67,3.978v-3.366h-5.355V159H397.6V141.813a8.109,8.109,0,0,1,6.324-3.315c3.009,0,4.947,1.275,4.947,5.1Zm29.631,0h5.355V124.983H438.5v12.8a9.882,9.882,0,0,0-7.9-4.029c-6.375,0-10.965,5-10.965,12.954,0,8.109,4.641,12.9,10.965,12.9a9.976,9.976,0,0,0,7.9-3.978Zm0-7.4a8.049,8.049,0,0,1-6.375,3.264c-4.233,0-6.936-3.417-6.936-8.16,0-4.794,2.7-8.211,6.936-8.211a8.093,8.093,0,0,1,6.375,3.315ZM1.938,202.658c0,7.8,5.508,12.954,12.9,12.954a14.358,14.358,0,0,0,10-3.57l-2.448-3.519a10.426,10.426,0,0,1-6.987,2.7,7.461,7.461,0,0,1-7.854-6.783H26.571v-1.275c0-7.752-4.743-13.413-12.138-13.413C7.14,189.755,1.938,195.518,1.938,202.658Zm12.5-8.517a6.589,6.589,0,0,1,6.936,6.528H7.5A6.8,6.8,0,0,1,14.433,194.141ZM33.15,215h5.355V195.059h5v-4.692h-5V188.99c0-2.754,1.326-4.131,3.417-4.131a4.292,4.292,0,0,1,2.142.51l1.173-3.927a8.87,8.87,0,0,0-4.284-.969c-4.539,0-7.8,3.009-7.8,8.517v1.377H29.07v4.692h4.08Zm15.708,0h5.355V195.059h5v-4.692h-5V188.99c0-2.754,1.326-4.131,3.417-4.131a4.292,4.292,0,0,1,2.142.51l1.173-3.927a8.87,8.87,0,0,0-4.284-.969c-4.539,0-7.8,3.009-7.8,8.517v1.377h-4.08v4.692h4.08Zm12.9-12.342c0,7.8,5.508,12.954,12.9,12.954a14.358,14.358,0,0,0,10-3.57l-2.448-3.519a10.426,10.426,0,0,1-6.987,2.7,7.461,7.461,0,0,1-7.854-6.783H86.394v-1.275c0-7.752-4.743-13.413-12.138-13.413C66.963,189.755,61.761,195.518,61.761,202.658Zm12.495-8.517a6.589,6.589,0,0,1,6.936,6.528H67.32A6.8,6.8,0,0,1,74.256,194.141Zm15.912,8.517c0,7.5,5.253,12.954,12.75,12.954,4.794,0,7.7-2.04,9.435-4.386l-3.519-3.264a6.7,6.7,0,0,1-5.661,2.907c-4.488,0-7.446-3.417-7.446-8.211s2.958-8.16,7.446-8.16a6.575,6.575,0,0,1,5.661,2.907l3.519-3.264c-1.734-2.346-4.641-4.386-9.435-4.386C95.421,189.755,90.168,195.212,90.168,202.658Zm34.272,12.954c2.5,0,4.08-.663,5.049-1.581L128.214,210a3.457,3.457,0,0,1-2.4.867c-1.53,0-2.346-1.224-2.346-2.907v-12.9h5v-4.692h-5v-6.732h-5.355v6.732h-4.08v4.692h4.08v14.229C118.116,213.368,120.309,215.612,124.44,215.612Zm11.526-29.019a3.315,3.315,0,1,0-3.315-3.315A3.308,3.308,0,0,0,135.966,186.593ZM133.314,215h5.355V190.367h-5.355Zm18.768,0h5.763l10.047-24.633h-5.763l-7.191,18.462-7.191-18.462h-5.712Zm17.646-12.342c0,7.8,5.508,12.954,12.9,12.954a14.359,14.359,0,0,0,10-3.57l-2.448-3.519a10.426,10.426,0,0,1-6.987,2.7,7.461,7.461,0,0,1-7.854-6.783h19.023v-1.275c0-7.752-4.743-13.413-12.138-13.413C174.93,189.755,169.728,195.518,169.728,202.658Zm12.495-8.517a6.589,6.589,0,0,1,6.936,6.528H175.287A6.8,6.8,0,0,1,182.223,194.141ZM212.925,215h5.967V202.3h8.976c7.089,0,11.118-4.9,11.118-10.659s-3.978-10.659-11.118-10.659H212.925Zm19.941-23.358c0,3.264-2.448,5.406-5.814,5.406h-8.16V186.236h8.16C230.418,186.236,232.866,188.378,232.866,191.642ZM243.933,215H249.9V202.3h8.976c7.089,0,11.118-4.9,11.118-10.659s-3.978-10.659-11.118-10.659H243.933Zm19.941-23.358c0,3.264-2.448,5.406-5.814,5.406H249.9V186.236h8.16C261.426,186.236,263.874,188.378,263.874,191.642ZM274.941,215h23.307v-5.253h-17.34v-9.435h16.983v-5.253H280.908v-8.823h17.34v-5.253H274.941Zm49.776.612c2.5,0,4.08-.663,5.049-1.581L328.491,210a3.457,3.457,0,0,1-2.4.867c-1.53,0-2.346-1.224-2.346-2.907v-12.9h5v-4.692h-5v-6.732h-5.355v6.732h-4.08v4.692h4.08v14.229C318.393,213.368,320.586,215.612,324.717,215.612Zm8.874-.612h5.355V198.221a8.506,8.506,0,0,1,6.324-3.264,7.893,7.893,0,0,1,1.683.153v-5.3a10.52,10.52,0,0,0-8.007,4.182v-3.621h-5.355Zm32.742,0h5.355V198.68c0-6.63-4.794-8.925-10.251-8.925a14.649,14.649,0,0,0-10.353,3.978l2.193,3.723a10.087,10.087,0,0,1,7.293-3.111c3.417,0,5.763,1.734,5.763,4.59v3.672c-1.785-2.091-4.641-3.162-7.956-3.162-4.029,0-8.568,2.346-8.568,8.007,0,5.457,4.539,8.16,8.568,8.16a10.4,10.4,0,0,0,7.956-3.264Zm0-5.61a7.211,7.211,0,0,1-5.865,2.55c-3.009,0-5.253-1.734-5.253-4.386,0-2.7,2.244-4.437,5.253-4.437a7.211,7.211,0,0,1,5.865,2.55Zm14.943-22.8a3.315,3.315,0,1,0-3.315-3.315A3.308,3.308,0,0,0,381.276,186.593ZM378.624,215h5.355V190.367h-5.355Zm28.917,0H412.9V197.66c0-5.049-2.652-7.9-7.956-7.9a11.655,11.655,0,0,0-8.67,3.978v-3.366h-5.355V215h5.355V197.813a8.109,8.109,0,0,1,6.324-3.315c3.009,0,4.947,1.275,4.947,5.1Zm14.943-28.407a3.315,3.315,0,1,0-3.315-3.315A3.308,3.308,0,0,0,422.484,186.593ZM419.832,215h5.355V190.367h-5.355Zm28.917,0H454.1V197.66c0-5.049-2.652-7.9-7.956-7.9a11.655,11.655,0,0,0-8.67,3.978v-3.366h-5.355V215h5.355V197.813A8.109,8.109,0,0,1,443.8,194.5c3.009,0,4.947,1.275,4.947,5.1Zm11.985,6.324c3.009,2.754,6.12,3.672,10.3,3.672,6.069,0,12.648-2.4,12.648-11.271V190.367h-5.355v3.417a9.811,9.811,0,0,0-7.9-4.029c-6.324,0-10.914,4.692-10.914,12.648,0,8.109,4.641,12.648,10.914,12.648a10,10,0,0,0,7.9-4.08v2.958c0,5.049-3.774,6.681-7.293,6.681-3.264,0-5.814-.867-7.8-3.162Zm17.6-14.331A7.993,7.993,0,0,1,472,210.308c-4.233,0-6.936-3.162-6.936-7.9s2.7-7.9,6.936-7.9a7.993,7.993,0,0,1,6.324,3.315Z" transform="translate(737 266)" fill="#e24152"/>
    <g id="Group_52" data-name="Group 52" transform="translate(531 751)">
      <g id="nav__logo__e_1_">
        <path id="Path_137" data-name="Path 137" d="M23.4,34h8.159a1.582,1.582,0,0,0,1.587-1.511V26.9A30.008,30.008,0,0,1,23.4,34Z" transform="translate(-5.722 -6.578)" fill="#2c1f9c"/>
        <path id="Path_138" data-name="Path 138" d="M17.039,10.5c-.076-1.435-1.133-2.342-3.4-2.115-4.457.3-7.857,5.364-8.839,10.577C14.47,18.21,17.114,12.317,17.039,10.5Z" transform="translate(-1.174 -2.043)" fill="#2c1f9c"/>
        <path id="Path_139" data-name="Path 139" d="M15.034,3.249c4.608-.3,6.724,1.511,6.875,3.777C22.287,12.012,14.127,17.9,3.4,18.811H3.249a8.368,8.368,0,0,0,.3,4.155c.755,1.964,2.72,2.72,4.986,2.72,9.972,0,17.3-11.03,18.887-16.016V1.511A1.533,1.533,0,0,0,25.837,0H1.511A1.515,1.515,0,0,0,0,1.511V12.692C3.928,7.706,9.972,3.626,15.034,3.249Z" fill="#2c1f9c"/>
      </g>
      <g id="nav__logo__edgepoint_1_" transform="translate(42.609 5.817)">
        <path id="Path_140" data-name="Path 140" d="M61.235,21.739a3.98,3.98,0,0,0,3.1-1.36l.907.755a5.217,5.217,0,0,1-4,1.889A4.83,4.83,0,0,1,56.4,17.962,4.8,4.8,0,0,1,61.084,12.9c2.871,0,4.533,2.342,4.533,5.137v.453H57.835A3.345,3.345,0,0,0,61.235,21.739Zm2.8-4.382c-.151-1.738-1.209-3.324-3.1-3.324a3.436,3.436,0,0,0-3.173,3.324Z" transform="translate(-56.4 -8.972)" fill="#2c1f9c"/>
        <path id="Path_141" data-name="Path 141" d="M79.486,21.525V19.561a4.287,4.287,0,0,1-3.7,2.191A4.8,4.8,0,0,1,71.1,16.69a4.8,4.8,0,0,1,4.684-5.062,4.286,4.286,0,0,1,3.7,2.115V7.7h1.435V21.525Zm-3.475-8.688a3.445,3.445,0,0,0-3.4,3.777,3.488,3.488,0,0,0,3.4,3.777,3.649,3.649,0,0,0,3.551-3.777A3.649,3.649,0,0,0,76.011,12.837Z" transform="translate(-59.994 -7.7)" fill="#2c1f9c"/>
        <path id="Path_142" data-name="Path 142" d="M92.635,25.819a7.588,7.588,0,0,1-4.457-1.36l.68-1.133a6.612,6.612,0,0,0,3.777,1.209,3.236,3.236,0,0,0,3.551-3.475V19.926a4.657,4.657,0,0,1-3.853,2.115A4.448,4.448,0,0,1,87.8,17.508,4.511,4.511,0,0,1,92.333,12.9a4.732,4.732,0,0,1,3.853,1.964V13.127h1.435v8.008C97.546,24.232,95.581,25.819,92.635,25.819Zm-.076-11.71a3.191,3.191,0,0,0-3.4,3.324,3.275,3.275,0,0,0,3.4,3.324,3.423,3.423,0,0,0,3.626-3.324A3.468,3.468,0,0,0,92.56,14.109Z" transform="translate(-64.078 -8.972)" fill="#2c1f9c"/>
        <path id="Path_143" data-name="Path 143" d="M109.135,21.739a3.98,3.98,0,0,0,3.1-1.36l.907.755a5.217,5.217,0,0,1-4,1.889,4.83,4.83,0,0,1-4.835-5.062,4.8,4.8,0,0,1,4.684-5.062c2.871,0,4.533,2.342,4.533,5.137v.453h-7.706A3.236,3.236,0,0,0,109.135,21.739Zm2.8-4.382c-.151-1.738-1.209-3.324-3.1-3.324a3.436,3.436,0,0,0-3.173,3.324Z" transform="translate(-68.113 -8.972)" fill="#2c1f9c"/>
        <path id="Path_144" data-name="Path 144" d="M124.937,22.974a4.286,4.286,0,0,1-3.7-2.115V25.77H119.8V13h1.435v1.889a4.287,4.287,0,0,1,3.7-2.191,4.8,4.8,0,0,1,4.684,5.062A4.893,4.893,0,0,1,124.937,22.974Zm-.3-8.915a3.649,3.649,0,0,0-3.551,3.777,3.558,3.558,0,0,0,3.551,3.777,3.445,3.445,0,0,0,3.4-3.777A3.4,3.4,0,0,0,124.635,14.06Z" transform="translate(-71.903 -8.923)" fill="#2c1f9c"/>
        <path id="Path_145" data-name="Path 145" d="M140.562,23a5.014,5.014,0,0,1-5.062-5.062,5.077,5.077,0,0,1,5.062-5.137,5.014,5.014,0,0,1,5.062,5.062A5.077,5.077,0,0,1,140.562,23Zm0-8.915a3.556,3.556,0,0,0-3.551,3.777,3.681,3.681,0,0,0,3.626,3.853,3.616,3.616,0,0,0,3.626-3.777,3.791,3.791,0,0,0-3.7-3.853Z" transform="translate(-75.742 -8.947)" fill="#2c1f9c"/>
        <path id="Path_146" data-name="Path 146" d="M152.4,9.787V8.2h1.662V9.787Zm.151,11.861V11.9h1.435v9.746Z" transform="translate(-79.874 -7.822)" fill="#2c1f9c"/>
        <path id="Path_147" data-name="Path 147" d="M160.435,22.772H159V13.027h1.435v1.662A3.632,3.632,0,0,1,163.76,12.8a3.531,3.531,0,0,1,3.7,3.853V22.7h-1.435V17.031c0-1.813-.982-2.946-2.72-2.946a2.877,2.877,0,0,0-2.946,3.022l.076,5.666Z" transform="translate(-81.488 -8.947)" fill="#2c1f9c"/>
        <path id="Path_148" data-name="Path 148" d="M176.02,19.1a1.477,1.477,0,0,0,1.662,1.662,3.274,3.274,0,0,0,1.435-.3v1.209a3.277,3.277,0,0,1-1.738.378,2.432,2.432,0,0,1-2.72-2.72V13.431H173.3v-1.36h1.36V9.2H176.1v2.871h3.1v1.284h-3.1V19.1Z" transform="translate(-84.984 -8.067)" fill="#2c1f9c"/>
      </g>
      <g id="nav__logo__learning_1_" transform="translate(145.052 5.817)">
        <path id="Path_149" data-name="Path 149" d="M192,21.525V7.7h1.435V21.525Z" transform="translate(-192 -7.7)" fill="#2c1f9c"/>
        <path id="Path_150" data-name="Path 150" d="M202.635,21.739a3.98,3.98,0,0,0,3.1-1.36l.907.755a5.217,5.217,0,0,1-4,1.889,4.83,4.83,0,0,1-4.835-5.062,4.8,4.8,0,0,1,4.684-5.062c2.871,0,4.533,2.342,4.533,5.137v.453h-7.706a3.236,3.236,0,0,0,3.324,3.249Zm2.8-4.382c-.151-1.738-1.209-3.324-3.1-3.324a3.436,3.436,0,0,0-3.173,3.324Z" transform="translate(-193.418 -8.972)" fill="#2c1f9c"/>
        <path id="Path_151" data-name="Path 151" d="M213.46,14.964l-.453-1.209A7.463,7.463,0,0,1,216.557,13c2.644,0,4.155,1.36,4.155,3.928V22.9h-1.435V21.461a4.231,4.231,0,0,1-3.551,1.662c-1.813,0-3.626-.982-3.626-3.022,0-2.115,1.662-3.173,4.155-3.173a10.75,10.75,0,0,1,2.946.378V17c0-1.738-1.058-2.644-2.946-2.644a4.838,4.838,0,0,0-2.8.6Zm.227,4.911c0,1.209,1.133,1.964,2.493,1.964,1.813,0,3.249-1.058,3.249-2.644v-.982a9.784,9.784,0,0,0-2.871-.378c-1.813,0-2.871.831-2.871,2.04Z" transform="translate(-196.915 -8.996)" fill="#2c1f9c"/>
        <path id="Path_152" data-name="Path 152" d="M229.135,22.771H227.7V13.025h1.435v2.493a4.154,4.154,0,0,1,4-2.72V14.31h-.076c-2.115,0-3.853,1.511-3.853,4.457v4Z" transform="translate(-200.729 -8.946)" fill="#2c1f9c"/>
        <path id="Path_153" data-name="Path 153" d="M239.235,22.772H237.8V13.027h1.435v1.662a3.632,3.632,0,0,1,3.324-1.889,3.531,3.531,0,0,1,3.7,3.853V22.7h-1.435V17.031c0-1.813-.982-2.946-2.72-2.946a2.877,2.877,0,0,0-2.946,3.022v5.666Z" transform="translate(-203.199 -8.947)" fill="#2c1f9c"/>
        <path id="Path_154" data-name="Path 154" d="M253.1,9.787V8.2h1.662V9.787Zm.151,11.861V11.9h1.435v9.746Z" transform="translate(-206.94 -7.822)" fill="#2c1f9c"/>
        <path id="Path_155" data-name="Path 155" d="M261.135,22.772H259.7V13.027h1.435v1.662A3.631,3.631,0,0,1,264.46,12.8a3.531,3.531,0,0,1,3.7,3.853V22.7h-1.435V17.031c0-1.813-.982-2.946-2.72-2.946a2.877,2.877,0,0,0-2.946,3.022l.076,5.666Z" transform="translate(-208.554 -8.947)" fill="#2c1f9c"/>
        <path id="Path_156" data-name="Path 156" d="M279.235,25.819a7.589,7.589,0,0,1-4.457-1.36l.68-1.133a6.611,6.611,0,0,0,3.777,1.209,3.236,3.236,0,0,0,3.551-3.475V19.926a4.657,4.657,0,0,1-3.853,2.115,4.448,4.448,0,0,1-4.533-4.533,4.511,4.511,0,0,1,4.533-4.608,4.624,4.624,0,0,1,3.853,1.964V13.127h1.435v8.008c-.076,3.1-2.04,4.684-4.986,4.684Zm-.075-11.71a3.191,3.191,0,0,0-3.4,3.324,3.275,3.275,0,0,0,3.4,3.324,3.423,3.423,0,0,0,3.626-3.324A3.468,3.468,0,0,0,279.16,14.109Z" transform="translate(-212.148 -8.972)" fill="#2c1f9c"/>
      </g>
    </g>
  </g>
</svg>
