<svg xmlns="http://www.w3.org/2000/svg" xmlns:xlink="http://www.w3.org/1999/xlink" width="1280" height="800" viewBox="0 0 1280 800">
  <defs>
    <linearGradient id="linear-gradient" y1="0.5" x2="1" y2="0.5" gradientUnits="objectBoundingBox">
      <stop offset="0.046" stop-color="#ae4200"/>
      <stop offset="0.435" stop-color="#bb4021"/>
      <stop offset="1" stop-color="#4d2415"/>
    </linearGradient>
    <clipPath id="clip-_2020-05-06-ppe-training01">
      <rect width="1280" height="800"/>
    </clipPath>
  </defs>
  <g id="_2020-05-06-ppe-training01" data-name="2020-05-06-ppe-training01" clip-path="url(#clip-_2020-05-06-ppe-training01)">
    <rect width="1280" height="800" fill="#f9fbff"/>
    <g id="Group_52" data-name="Group 52" transform="translate(531 751)">
      <g id="nav__logo__e_1_">
        <path id="Path_137" data-name="Path 137" d="M23.4,34h8.159a1.582,1.582,0,0,0,1.587-1.511V26.9A30.008,30.008,0,0,1,23.4,34Z" transform="translate(-5.722 -6.578)" fill="#2c1f9c"/>
        <path id="Path_138" data-name="Path 138" d="M17.039,10.5c-.076-1.435-1.133-2.342-3.4-2.115-4.457.3-7.857,5.364-8.839,10.577C14.47,18.21,17.114,12.317,17.039,10.5Z" transform="translate(-1.174 -2.043)" fill="#2c1f9c"/>
        <path id="Path_139" data-name="Path 139" d="M15.034,3.249c4.608-.3,6.724,1.511,6.875,3.777C22.287,12.012,14.127,17.9,3.4,18.811H3.249a8.368,8.368,0,0,0,.3,4.155c.755,1.964,2.72,2.72,4.986,2.72,9.972,0,17.3-11.03,18.887-16.016V1.511A1.533,1.533,0,0,0,25.837,0H1.511A1.515,1.515,0,0,0,0,1.511V12.692C3.928,7.706,9.972,3.626,15.034,3.249Z" fill="#2c1f9c"/>
      </g>
      <g id="nav__logo__edgepoint_1_" transform="translate(42.609 5.817)">
        <path id="Path_140" data-name="Path 140" d="M61.235,21.739a3.98,3.98,0,0,0,3.1-1.36l.907.755a5.217,5.217,0,0,1-4,1.889A4.83,4.83,0,0,1,56.4,17.962,4.8,4.8,0,0,1,61.084,12.9c2.871,0,4.533,2.342,4.533,5.137v.453H57.835A3.345,3.345,0,0,0,61.235,21.739Zm2.8-4.382c-.151-1.738-1.209-3.324-3.1-3.324a3.436,3.436,0,0,0-3.173,3.324Z" transform="translate(-56.4 -8.972)" fill="#2c1f9c"/>
        <path id="Path_141" data-name="Path 141" d="M79.486,21.525V19.561a4.287,4.287,0,0,1-3.7,2.191A4.8,4.8,0,0,1,71.1,16.69a4.8,4.8,0,0,1,4.684-5.062,4.286,4.286,0,0,1,3.7,2.115V7.7h1.435V21.525Zm-3.475-8.688a3.445,3.445,0,0,0-3.4,3.777,3.488,3.488,0,0,0,3.4,3.777,3.649,3.649,0,0,0,3.551-3.777A3.649,3.649,0,0,0,76.011,12.837Z" transform="translate(-59.994 -7.7)" fill="#2c1f9c"/>
        <path id="Path_142" data-name="Path 142" d="M92.635,25.819a7.588,7.588,0,0,1-4.457-1.36l.68-1.133a6.612,6.612,0,0,0,3.777,1.209,3.236,3.236,0,0,0,3.551-3.475V19.926a4.657,4.657,0,0,1-3.853,2.115A4.448,4.448,0,0,1,87.8,17.508,4.511,4.511,0,0,1,92.333,12.9a4.732,4.732,0,0,1,3.853,1.964V13.127h1.435v8.008C97.546,24.232,95.581,25.819,92.635,25.819Zm-.076-11.71a3.191,3.191,0,0,0-3.4,3.324,3.275,3.275,0,0,0,3.4,3.324,3.423,3.423,0,0,0,3.626-3.324A3.468,3.468,0,0,0,92.56,14.109Z" transform="translate(-64.078 -8.972)" fill="#2c1f9c"/>
        <path id="Path_143" data-name="Path 143" d="M109.135,21.739a3.98,3.98,0,0,0,3.1-1.36l.907.755a5.217,5.217,0,0,1-4,1.889,4.83,4.83,0,0,1-4.835-5.062,4.8,4.8,0,0,1,4.684-5.062c2.871,0,4.533,2.342,4.533,5.137v.453h-7.706A3.236,3.236,0,0,0,109.135,21.739Zm2.8-4.382c-.151-1.738-1.209-3.324-3.1-3.324a3.436,3.436,0,0,0-3.173,3.324Z" transform="translate(-68.113 -8.972)" fill="#2c1f9c"/>
        <path id="Path_144" data-name="Path 144" d="M124.937,22.974a4.286,4.286,0,0,1-3.7-2.115V25.77H119.8V13h1.435v1.889a4.287,4.287,0,0,1,3.7-2.191,4.8,4.8,0,0,1,4.684,5.062A4.893,4.893,0,0,1,124.937,22.974Zm-.3-8.915a3.649,3.649,0,0,0-3.551,3.777,3.558,3.558,0,0,0,3.551,3.777,3.445,3.445,0,0,0,3.4-3.777A3.4,3.4,0,0,0,124.635,14.06Z" transform="translate(-71.903 -8.923)" fill="#2c1f9c"/>
        <path id="Path_145" data-name="Path 145" d="M140.562,23a5.014,5.014,0,0,1-5.062-5.062,5.077,5.077,0,0,1,5.062-5.137,5.014,5.014,0,0,1,5.062,5.062A5.077,5.077,0,0,1,140.562,23Zm0-8.915a3.556,3.556,0,0,0-3.551,3.777,3.681,3.681,0,0,0,3.626,3.853,3.616,3.616,0,0,0,3.626-3.777,3.791,3.791,0,0,0-3.7-3.853Z" transform="translate(-75.742 -8.947)" fill="#2c1f9c"/>
        <path id="Path_146" data-name="Path 146" d="M152.4,9.787V8.2h1.662V9.787Zm.151,11.861V11.9h1.435v9.746Z" transform="translate(-79.874 -7.822)" fill="#2c1f9c"/>
        <path id="Path_147" data-name="Path 147" d="M160.435,22.772H159V13.027h1.435v1.662A3.632,3.632,0,0,1,163.76,12.8a3.531,3.531,0,0,1,3.7,3.853V22.7h-1.435V17.031c0-1.813-.982-2.946-2.72-2.946a2.877,2.877,0,0,0-2.946,3.022l.076,5.666Z" transform="translate(-81.488 -8.947)" fill="#2c1f9c"/>
        <path id="Path_148" data-name="Path 148" d="M176.02,19.1a1.477,1.477,0,0,0,1.662,1.662,3.274,3.274,0,0,0,1.435-.3v1.209a3.277,3.277,0,0,1-1.738.378,2.432,2.432,0,0,1-2.72-2.72V13.431H173.3v-1.36h1.36V9.2H176.1v2.871h3.1v1.284h-3.1V19.1Z" transform="translate(-84.984 -8.067)" fill="#2c1f9c"/>
      </g>
      <g id="nav__logo__learning_1_" transform="translate(145.052 5.817)">
        <path id="Path_149" data-name="Path 149" d="M192,21.525V7.7h1.435V21.525Z" transform="translate(-192 -7.7)" fill="#2c1f9c"/>
        <path id="Path_150" data-name="Path 150" d="M202.635,21.739a3.98,3.98,0,0,0,3.1-1.36l.907.755a5.217,5.217,0,0,1-4,1.889,4.83,4.83,0,0,1-4.835-5.062,4.8,4.8,0,0,1,4.684-5.062c2.871,0,4.533,2.342,4.533,5.137v.453h-7.706a3.236,3.236,0,0,0,3.324,3.249Zm2.8-4.382c-.151-1.738-1.209-3.324-3.1-3.324a3.436,3.436,0,0,0-3.173,3.324Z" transform="translate(-193.418 -8.972)" fill="#2c1f9c"/>
        <path id="Path_151" data-name="Path 151" d="M213.46,14.964l-.453-1.209A7.463,7.463,0,0,1,216.557,13c2.644,0,4.155,1.36,4.155,3.928V22.9h-1.435V21.461a4.231,4.231,0,0,1-3.551,1.662c-1.813,0-3.626-.982-3.626-3.022,0-2.115,1.662-3.173,4.155-3.173a10.75,10.75,0,0,1,2.946.378V17c0-1.738-1.058-2.644-2.946-2.644a4.838,4.838,0,0,0-2.8.6Zm.227,4.911c0,1.209,1.133,1.964,2.493,1.964,1.813,0,3.249-1.058,3.249-2.644v-.982a9.784,9.784,0,0,0-2.871-.378c-1.813,0-2.871.831-2.871,2.04Z" transform="translate(-196.915 -8.996)" fill="#2c1f9c"/>
        <path id="Path_152" data-name="Path 152" d="M229.135,22.771H227.7V13.025h1.435v2.493a4.154,4.154,0,0,1,4-2.72V14.31h-.076c-2.115,0-3.853,1.511-3.853,4.457v4Z" transform="translate(-200.729 -8.946)" fill="#2c1f9c"/>
        <path id="Path_153" data-name="Path 153" d="M239.235,22.772H237.8V13.027h1.435v1.662a3.632,3.632,0,0,1,3.324-1.889,3.531,3.531,0,0,1,3.7,3.853V22.7h-1.435V17.031c0-1.813-.982-2.946-2.72-2.946a2.877,2.877,0,0,0-2.946,3.022v5.666Z" transform="translate(-203.199 -8.947)" fill="#2c1f9c"/>
        <path id="Path_154" data-name="Path 154" d="M253.1,9.787V8.2h1.662V9.787Zm.151,11.861V11.9h1.435v9.746Z" transform="translate(-206.94 -7.822)" fill="#2c1f9c"/>
        <path id="Path_155" data-name="Path 155" d="M261.135,22.772H259.7V13.027h1.435v1.662A3.631,3.631,0,0,1,264.46,12.8a3.531,3.531,0,0,1,3.7,3.853V22.7h-1.435V17.031c0-1.813-.982-2.946-2.72-2.946a2.877,2.877,0,0,0-2.946,3.022l.076,5.666Z" transform="translate(-208.554 -8.947)" fill="#2c1f9c"/>
        <path id="Path_156" data-name="Path 156" d="M279.235,25.819a7.589,7.589,0,0,1-4.457-1.36l.68-1.133a6.611,6.611,0,0,0,3.777,1.209,3.236,3.236,0,0,0,3.551-3.475V19.926a4.657,4.657,0,0,1-3.853,2.115,4.448,4.448,0,0,1-4.533-4.533,4.511,4.511,0,0,1,4.533-4.608,4.624,4.624,0,0,1,3.853,1.964V13.127h1.435v8.008c-.076,3.1-2.04,4.684-4.986,4.684Zm-.075-11.71a3.191,3.191,0,0,0-3.4,3.324,3.275,3.275,0,0,0,3.4,3.324,3.423,3.423,0,0,0,3.626-3.324A3.468,3.468,0,0,0,279.16,14.109Z" transform="translate(-212.148 -8.972)" fill="#2c1f9c"/>
      </g>
    </g>
    <path id="Path_635" data-name="Path 635" d="M-138.225,0h5.85V-28.2h10.1v-5.15h-26.05v5.15h10.1Zm16.5,4.75-.8,4.7a14.848,14.848,0,0,0,2.95.35c3.75-.05,6.65-1.35,8.3-5.45l11.65-28.5h-5.65l-7.05,18.1-7.05-18.1h-5.6l9.9,24.45-1.2,2.75a3.271,3.271,0,0,1-3.45,2.1A5.487,5.487,0,0,1-121.725,4.75Zm30.65,4.45V-3.35A9.482,9.482,0,0,0-83.325.6c6.25,0,10.7-4.75,10.7-12.7s-4.45-12.65-10.7-12.65a9.636,9.636,0,0,0-7.75,3.9v-3.3h-5.25V9.2Zm13-21.3c0,4.7-2.65,8.05-6.8,8.05a7.98,7.98,0,0,1-6.2-3.25v-9.55a7.837,7.837,0,0,1,6.2-3.25C-80.725-20.1-78.075-16.75-78.075-12.1Zm9.25,0c0,7.65,5.4,12.7,12.65,12.7a14.077,14.077,0,0,0,9.8-3.5l-2.4-3.45a10.221,10.221,0,0,1-6.85,2.65,7.315,7.315,0,0,1-7.7-6.65h18.65V-11.6c0-7.6-4.65-13.15-11.9-13.15C-63.725-24.75-68.825-19.1-68.825-12.1Zm12.25-8.35a6.459,6.459,0,0,1,6.8,6.4h-13.6A6.662,6.662,0,0,1-56.575-20.45Zm15,17.3A14.688,14.688,0,0,0-31.225.6c6.5,0,10.05-3.25,10.05-7.5,0-5.7-5.15-6.9-9.35-7.8-2.85-.65-5.25-1.3-5.25-3.15,0-1.7,1.75-2.7,4.5-2.7a9.739,9.739,0,0,1,7.15,2.9l2.2-3.7a13.806,13.806,0,0,0-9.4-3.4c-6.1,0-9.5,3.4-9.5,7.35,0,5.4,4.95,6.5,9.1,7.4,2.95.65,5.5,1.4,5.5,3.5,0,1.8-1.6,2.95-4.75,2.95a12.465,12.465,0,0,1-8.2-3.4Zm37.2-13.5C-4.375-6.7,2.675.6,12.675.6s17.05-7.3,17.05-17.25S22.675-33.9,12.675-33.9-4.375-26.6-4.375-16.65Zm28.1,0c0,6.85-4.35,12.05-11.05,12.05-6.75,0-11.05-5.2-11.05-12.05,0-6.9,4.3-12.05,11.05-12.05C19.375-28.7,23.725-23.55,23.725-16.65ZM36.475,0h5.25V-19.55h4.9v-4.6h-4.9V-25.5c0-2.7,1.3-4.05,3.35-4.05a4.208,4.208,0,0,1,2.1.5l1.15-3.85a8.7,8.7,0,0,0-4.2-.95c-4.45,0-7.65,2.95-7.65,8.35v1.35h-4v4.6h4Zm27.15,0h5.85V-12.45h8.8c6.95,0,10.9-4.8,10.9-10.45s-3.9-10.45-10.9-10.45H63.625Zm19.55-22.9c0,3.2-2.4,5.3-5.7,5.3h-8V-28.2h8C80.775-28.2,83.175-26.1,83.175-22.9ZM94.025,0h5.85V-12.45h8.8c6.95,0,10.9-4.8,10.9-10.45s-3.9-10.45-10.9-10.45H94.025Zm19.55-22.9c0,3.2-2.4,5.3-5.7,5.3h-8V-28.2h8C111.175-28.2,113.575-26.1,113.575-22.9ZM124.425,0h22.85V-5.15h-17V-14.4h16.65v-5.15h-16.65V-28.2h17v-5.15h-22.85Z" transform="translate(640 71)" fill="#e24152"/>
    <g id="Group_88" data-name="Group 88" transform="translate(549.612 151.995)">
      <g id="Group_86" data-name="Group 86" transform="translate(0 0)">
        <path id="Path_509" data-name="Path 509" d="M188.989,146.036a18.282,18.282,0,0,0,7.722,1.4c4.2-.22,28.765,3.231,38.455-1.85,0,0,2.38,5.568-2.833,8.487s-27.61,10.14-40.133,2.553C192.2,156.626,185.858,148.141,188.989,146.036Z" transform="translate(-111.499 -52.853)" fill="#4b1b10"/>
        <g id="Group_73" data-name="Group 73" transform="translate(29.469)">
          <g id="Group_53" data-name="Group 53" transform="translate(0 72.624)">
            <path id="Path_510" data-name="Path 510" d="M206.279,128.134c-.107-.017-.2-.036-.293-.051v-.125s-.105.027-.3.067c-.19-.04-.3-.067-.3-.067v.125a29.072,29.072,0,0,1-23.663-6.747s2.292,18.133,1.951,22.422-28.143,8.335-32.956,11.947-13.835,9.5-14.317,16.267-3.61,18.282-3.129,25.731c.464,7.175,67.494.527,72.411.03l.165.017C206.071,179.728,206.406,147.179,206.279,128.134Z" transform="translate(-133.23 -121.336)" fill="#fbdca3"/>
            <path id="Path_511" data-name="Path 511" d="M288.393,197.7c.482-7.449-2.647-18.96-3.128-25.731s-8.9-13.092-13.719-16.7-33.214-7.223-33.555-11.511,1.951-22.422,1.951-22.422a29.126,29.126,0,0,1-23.371,6.8c.127,19.045-.208,51.594-.424,69.615C222.157,198.354,287.935,204.811,288.393,197.7Z" transform="translate(-144.448 -121.336)" fill="#fbdca3"/>
          </g>
          <g id="Group_72" data-name="Group 72" transform="translate(32.566)">
            <g id="Group_60" data-name="Group 60" transform="translate(2.457)">
              <path id="Path_512" data-name="Path 512" d="M179.968,67.07a53.459,53.459,0,0,0-4.711,28.464l7.962,6.883s.361-16.815,1.805-22.8S179.968,67.07,179.968,67.07Z" transform="translate(-174.351 -39.444)"/>
              <path id="Path_513" data-name="Path 513" d="M250.615,67.07a55.735,55.735,0,0,1,4.711,28.464l-7.962,6.883S247,85.6,245.559,79.621,250.615,67.07,250.615,67.07Z" transform="translate(-183.096 -39.444)"/>
              <g id="Group_55" data-name="Group 55" transform="translate(0 28.389)">
                <g id="Group_54" data-name="Group 54" transform="translate(7.649)">
                  <path id="Path_514" data-name="Path 514" d="M240.581,84.7c.042-15.127-28.2-17.3-28.669-16.59-.463-.706-28.711,1.464-28.67,16.59,0,.666-2.085,28.185,6.1,35.258s14.041,12.17,22.551,12.637v0a.093.093,0,0,1,.021,0,.109.109,0,0,1,.023,0v0c8.508-.467,14.381-5.577,22.55-12.637S240.58,85.362,240.581,84.7Z" transform="translate(-183.006 -67.99)" fill="#fbdca3"/>
                  <path id="Path_515" data-name="Path 515" d="M216.032,132.6v0c8.508-.467,14.381-5.577,22.55-12.637s6.1-34.592,6.1-35.258c.042-15.127-28.2-17.3-28.669-16.59v64.486A.109.109,0,0,1,216.032,132.6Z" transform="translate(-187.103 -67.99)" fill="#fbdca3"/>
                </g>
                <path id="Path_516" data-name="Path 516" d="M181.922,95.1s-5.359-4.5-6.743-.787-1.209,6.114.709,10.779,3.843,10.09,7.213,9.859l2.407-1.434Z" transform="translate(-174.273 -72.235)" fill="#fbdca3"/>
                <path id="Path_517" data-name="Path 517" d="M248.936,95.1s5.359-4.5,6.742-.787,1.21,6.114-.709,10.779-3.843,10.09-7.213,9.859l-2.406-1.434Z" transform="translate(-183.096 -72.235)" fill="#fbdca3"/>
              </g>
              <path id="Path_518" data-name="Path 518" d="M242.142,76.1c-1.579-1.666-5.648-4.382-10.517-6.349-4.188-2.648-10.743-5.256-20.155-5.01-9.412-.246-15.966,2.362-20.155,5.01-4.87,1.967-8.938,4.683-10.518,6.349-2.888,3.047-.321,5.23,0,8.986s0,4.67.482,8.782.482,5.067,1.765,8.7,1.123,4.49,1.457,4.49.949-.451.381-3.16a21.691,21.691,0,0,1-.226-6.624,4.866,4.866,0,0,0,.057-.5,23.4,23.4,0,0,1,.576-2.964c.017-.065.026-.111.042-.172,1.314-4.946,4.286-12.827,4.53-13.471a27.139,27.139,0,0,1,2.488-4.311c3.133-4.5,12.556-5.3,17.535-5.4l.008.028s.593-.03,1.577-.038c.985.008,1.577.038,1.577.038l.008-.028c4.978.1,14.4.9,17.536,5.4a27.152,27.152,0,0,1,2.494,4.324c.267.706,3.2,8.5,4.516,13.424.018.071.029.128.049.2a23.384,23.384,0,0,1,.58,2.994c.013.185.032.342.053.466a21.727,21.727,0,0,1-.224,6.633c-.568,2.709.046,3.16.381,3.16s.173-.856,1.457-4.49,1.283-4.59,1.765-8.7.159-5.026.481-8.782S245.03,79.143,242.142,76.1Z" transform="translate(-174.914 -39.043)"/>
              <g id="Group_59" data-name="Group 59" transform="translate(0.863)">
                <g id="Group_57" data-name="Group 57" transform="translate(0.752)">
                  <path id="Path_519" data-name="Path 519" d="M222.724,38.72c-4.132-2.032-4.362-1.805-5.74-3.159s-1.837-1.806-5.97-1.806-4.591.452-5.968,1.806-1.608,1.128-5.741,3.159-22.5,14.671-23.188,35.211c0,0,3.9-12.64,34.9-12.415,31-.225,34.9,12.415,34.9,12.415C245.225,53.392,226.857,40.752,222.724,38.72Z" transform="translate(-176.117 -33.755)" fill="#ffbf00"/>
                </g>
                <g id="Group_58" data-name="Group 58" transform="translate(0 27.626)">
                  <path id="Path_522" data-name="Path 522" d="M210.957,67.318c-3.9-.072-32.588-.066-35.65,14.052v1.56h2.318s1.177-12.742,33.332-13.788c32.154,1.046,33.331,13.788,33.331,13.788h2.318V81.37C243.544,67.252,214.859,67.246,210.957,67.318Z" transform="translate(-175.264 -67.111)" fill="#c1631e"/>
                  <path id="Path_523" data-name="Path 523" d="M210.908,67.08c-3.9-.073-32.587-.068-35.65,14.051v.605c3.063-14.118,31.748-14.123,35.65-14.051,3.9-.072,32.588-.066,35.65,14.051v-.605C243.5,67.012,214.81,67.007,210.908,67.08Z" transform="translate(-175.258 -67.071)" fill="#bc7d44"/>
                </g>
              </g>
            </g>
            <path id="Path_524" data-name="Path 524" d="M246.087,81.943V81.8c-3.062-14.118-31.747-14.123-35.65-14.051-3.9-.072-32.587-.067-35.65,14.051v.141c-.437.195-3.81,1.749-3.259,3.07.18.4.671.695,1.64.454a9.842,9.842,0,0,1,3.487-.608l.43-1.5h.02s.006-.053.023-.15l.29-1.01c1.189-3.163,6.823-11.777,33.019-12.628,26.192.852,31.828,9.463,33.019,12.627h0l.293,1.021c.016.09.02.14.02.14h.02l.429,1.5a9.836,9.836,0,0,1,3.487.608c.97.241,1.46-.05,1.64-.454C249.9,83.692,246.526,82.139,246.087,81.943Z" transform="translate(-171.468 -39.559)" fill="url(#linear-gradient)"/>
            <g id="Group_67" data-name="Group 67" transform="translate(2.416 42.749)">
              <g id="Group_63" data-name="Group 63">
                <g id="Group_61" data-name="Group 61">
                  <path id="Path_525" data-name="Path 525" d="M175.088,85.4l2.731-.1.59,4.293-2.612.244Z" transform="translate(-174.333 -85.308)" fill="#a08677"/>
                  <path id="Path_526" data-name="Path 526" d="M174.981,85.423l-.755.715.755,4.29.83-.659Z" transform="translate(-174.226 -85.328)" fill="#58595b"/>
                  <path id="Path_527" data-name="Path 527" d="M175.088,91.293l2.807-.159.514-.649-2.491.149Z" transform="translate(-174.333 -86.192)" fill="#3a190b"/>
                </g>
                <g id="Group_62" data-name="Group 62" transform="translate(1.831 4.941)">
                  <path id="Path_528" data-name="Path 528" d="M178.048,91.267s4.607,31.986,23.38,42.932c0,0-20.864-8.342-25.11-42.772Z" transform="translate(-176.317 -91.267)" fill="#898481"/>
                  <path id="Path_529" data-name="Path 529" d="M178.048,91.267l-1.731.159c.191,1.545.426,3.019.681,4.46l1.821-.539C178.271,92.817,178.048,91.267,178.048,91.267Z" transform="translate(-176.317 -91.267)" fill="#a09f9f"/>
                </g>
              </g>
              <g id="Group_66" data-name="Group 66" transform="translate(46.44)">
                <g id="Group_64" data-name="Group 64" transform="translate(22.864)">
                  <path id="Path_530" data-name="Path 530" d="M256.675,85.4l-2.73-.1-.592,4.293,2.612.244Z" transform="translate(-253.353 -85.308)" fill="#a08677"/>
                  <path id="Path_531" data-name="Path 531" d="M257.028,85.423l.755.715-.755,4.29-.83-.659Z" transform="translate(-253.706 -85.328)" fill="#58595b"/>
                  <path id="Path_532" data-name="Path 532" d="M256.675,91.293l-2.807-.159-.515-.649,2.492.149Z" transform="translate(-253.353 -86.192)" fill="#3a190b"/>
                </g>
                <g id="Group_65" data-name="Group 65" transform="translate(0 4.941)">
                  <path id="Path_533" data-name="Path 533" d="M250.628,91.267s-4.608,31.986-23.38,42.932c0,0,20.863-8.342,25.109-42.772Z" transform="translate(-227.248 -91.267)" fill="#898481"/>
                  <path id="Path_534" data-name="Path 534" d="M253.833,91.267l1.729.159c-.191,1.545-.425,3.019-.68,4.46l-1.821-.539C253.608,92.817,253.833,91.267,253.833,91.267Z" transform="translate(-230.452 -91.267)" fill="#a09f9f"/>
                </g>
              </g>
            </g>
            <g id="Group_68" data-name="Group 68" transform="translate(24.607 84.669)">
              <path id="Path_535" data-name="Path 535" d="M224.17,137.361c-3.77,3.838-8.985,2.4-10.108,2.5-1.124-.1-6.338,1.343-10.108-2.5s-6.706.526-1.846,3.718,11.955,4.052,11.955,4.052,7.1-.861,11.956-4.052S227.941,133.524,224.17,137.361Z" transform="translate(-199.562 -135.861)" fill="#a5a2a0"/>
            </g>
            <g id="Group_69" data-name="Group 69" transform="translate(13.921 53.33)">
              <path id="Path_536" data-name="Path 536" d="M235.77,112.752s2.322-2.977,0-5.041a23.077,23.077,0,0,0-11.521-4.746c-4.214-.382-6.363-1.188-8.341-2.963-1.449-1.3-2.162-1.73-3.181-1.869v-.066c-.232,0-.446,0-.645.011-.2-.009-.411-.011-.645-.011v.066c-1.02.139-1.733.571-3.181,1.869-1.978,1.775-4.127,2.581-8.34,2.963a23.084,23.084,0,0,0-11.522,4.746c-2.321,2.064,0,5.041,0,5.041a44.693,44.693,0,0,1,1.978,4.83c1.118,3.145-1.634,6.854-1.032,9.112s6.535,4.919,11.091,8.386c3.414,2.6,8.612,3.339,11.006,3.548v.08s.242-.007.645-.031c.4.025.645.031.645.031v-.08c2.395-.209,7.593-.951,11.006-3.548,4.557-3.467,10.489-6.128,11.092-8.386s-2.15-5.967-1.032-9.112A44.6,44.6,0,0,1,235.77,112.752Z" transform="translate(-187.362 -98.068)" fill="#e1f9eb"/>
              <path id="Path_537" data-name="Path 537" d="M227.183,102.986c-4.213-.382-6.363-1.188-8.34-2.963a6.078,6.078,0,0,0-2.982-1.833c.838,9.421,1.241,26.65-4.859,39.98a32.37,32.37,0,0,0,3.37.478v.08s.242-.007.645-.031c.4.025.645.031.645.031v-.08c2.395-.209,7.593-.951,11.006-3.548,4.557-3.467,10.489-6.128,11.091-8.386s-2.149-5.967-1.031-9.112a44.6,44.6,0,0,1,1.977-4.83s2.323-2.977,0-5.041A23.08,23.08,0,0,0,227.183,102.986Z" transform="translate(-190.297 -98.089)" fill="#e1f9eb"/>
            </g>
            <g id="Group_71" data-name="Group 71" transform="translate(10.797 41.223)">
              <g id="Group_70" data-name="Group 70">
                <path id="Path_538" data-name="Path 538" d="M239.076,94.384c-.562-3.687-1.043-6.144-1.043-6.144-9.548-6.521-26.394-4.465-26.394-4.465s-16.846-2.056-26.393,4.465c0,0-.482,2.457-1.043,6.144s-1.524,5.793,4.893,6.244,12.034,4.237,14.681,2.308,3.53-10.207,7.862-10.131c4.333-.075,5.215,8.2,7.862,10.131s8.264-1.856,14.681-2.308S239.638,98.072,239.076,94.384Z" transform="translate(-183.795 -83.468)" fill="#c1bcb8"/>
                <path id="Path_539" data-name="Path 539" d="M221.553,102.87a2.37,2.37,0,0,1-1.434-.382c-.863-.629-1.619-2.331-2.35-3.977-1.316-2.96-2.807-6.317-5.956-6.317H211.7c-3.148,0-4.639,3.357-5.955,6.317-.731,1.646-1.487,3.348-2.35,3.977a2.34,2.34,0,0,1-1.435.382,19.025,19.025,0,0,1-4.868-1.113,34.65,34.65,0,0,0-7.815-1.736c-2.293-.162-3.666-.545-4.2-1.173s-.355-1.745-.1-3.274c.05-.3.1-.6.15-.924.441-2.892.836-5.043.98-5.81,5.589-3.668,13.657-4.447,19.484-4.447a55.937,55.937,0,0,1,6.058.3l.105.012.105-.012a56.159,56.159,0,0,1,6.058-.3c5.828,0,13.9.779,19.485,4.447.144.767.537,2.918.979,5.81.048.32.1.628.15.924.256,1.529.441,2.634-.1,3.274s-1.9,1.011-4.2,1.173a34.642,34.642,0,0,0-7.814,1.736,19.033,19.033,0,0,1-4.868,1.113Z" transform="translate(-183.911 -83.626)" fill="#595958"/>
              </g>
              <path id="Path_540" data-name="Path 540" d="M224.807,102.759a2.369,2.369,0,0,0,1.434.382h0a19.038,19.038,0,0,0,4.869-1.113,34.631,34.631,0,0,1,7.814-1.736c2.292-.162,3.666-.545,4.2-1.173s.353-1.745.1-3.274c-.05-.3-.1-.6-.15-.924-.441-2.892-.835-5.043-.979-5.81a24.676,24.676,0,0,0-7.538-3.129L222.489,98.853C223.209,100.476,223.956,102.139,224.807,102.759Z" transform="translate(-188.598 -83.897)" fill="#595958"/>
            </g>
          </g>
        </g>
        <path id="Path_541" data-name="Path 541" d="M157.222,624.272c-.483,1.805-33.67,31.123-16.836,43.3s30.3-6.766,32.227-12.63,5.292-14.888,10.582-19.848,8.177-10.825,4.81-15.788-25.973,1.806-28.859,4.062S157.222,624.272,157.222,624.272Z" transform="translate(-104.983 -133.449)" fill="#020102"/>
        <path id="Path_542" data-name="Path 542" d="M244.692,623.332s-2.886,9.019.481,10.826,5.77.9,7.7,7.218,6.25,32.028,27.416,28.419,10.581-16.691,4.809-27.065-5.771-15.79-9.138-20.751-4.33-10.375-8.18-9.923S244.692,623.332,244.692,623.332Z" transform="translate(-118.379 -132.509)" fill="#020102"/>
        <path id="Path_543" data-name="Path 543" d="M153.947,370.5c-.963,1.353-4.329,14.885-3.368,23.006s0,21.652.961,36.54,1.925,16.689,1.925,32.478.482,23.456.482,29.319-7.215,12.632-5.773,24.358.962,15.341,2.405,27.518,3.848,14.438,3.848,19.4-3.368,4.059,0,9.473,2.886,6.767,2.405,9.022-1.443,7.218,9.138,7.218,21.646,4.511,25.013-6.766,0-10.826.481-15.337,2.4-13.085-.963-19.4-2.885-15.786-1.443-25.259,5.29-12.633,4.329-22.106.962-9.022,1.923-18.493,0-7.219,4.33-18.045,4.809-12.18,6.252-21.652.963-9.473,1.443-16.24,2.405-10.826,3.849-9.924,2.4,11.729,5.29,21.654.963,9.019,6.253,23.907,7.772,15.168,7.7,24.811c-.055,7.043-1.9,2.206-.48,13.982,1.854,15.406,4.809,14.434,2.886,25.714s-4.329,22.1-3.848,32.48-1.444,9.472.48,17.139.482,7.668,1.443,9.923,2.888,6.768,16.837,2.709,16.835-2.256,18.759-2.256,4.326-5.414,1.441-12.631-3.365-2.707-2.886-9.472,4.809-9.928,2.406-16.241-4.812-2.705-1.924-13.984,4.808-9.922,4.328-18.944.48-2.255,1.443-13.535,5.29-8.119,2.406-21.651-2.406-10.826-2.406-25.715,1.444-12.18,0-29.32,0-21.2.482-31.126,2.4-13.53,1.443-18.043-2.406-9.923-2.406-9.923-4.326.453-19.238,2.706-12.026,9.022-31.264,4.963-28.861-.9-38-1.805S153.947,370.5,153.947,370.5Z" transform="translate(-106.517 -90.338)" fill="#333"/>
        <g id="Group_74" data-name="Group 74" transform="translate(5.69 93.562)">
          <path id="Path_544" data-name="Path 544" d="M245.111,147.512l.015-.023A.04.04,0,0,0,245.111,147.512Z" transform="translate(-124.263 -146.74)" fill="#ed6e06"/>
          <path id="Path_545" data-name="Path 545" d="M306.4,287.85c-.482-3.607-1.443-3.382-1.2-7.217s-.483-3.383-1.925-8.8-.962-3.834-.962-7.894-.722-4.06-2.406-9.923-1.683-8.571-2.884-14.887-9.861-27.066-18.039-54.807-35.834-30.675-43.769-33.608c-6.993-2.583-7.265-3.241-7.231-3.36a50.64,50.64,0,0,1-7.68,8.774c-5.29,4.96-18.518,4.511-30.542,3.383s-12.747-9.924-12.747-12.18c0-1.269-.914-.824-3.509.569l-.434.2s-2.458,1.164-4.09,2.153c-1.416.7-3.059,1.461-4.955,2.266l-.475.2c-3.652,1.379-8.263,3.047-8.263,3.047l-9.835,4.68a5.678,5.678,0,0,0-2.518,1.237c-.775.354-.8.532-.8.532-24.531,21.654-27.416,78.04-28.378,84.13s-.241,3.609-2.646,7.217-.721,1.352,0,7.9.482,3.384-.962,6.766-1.684,1.129-.963,4.285.481,2.255-.48,4.961-.242,1.806,1.2,5.414-.723,2.931-1.924,5.637.962,3.836.24,6.543-1.4,6.379-.945,6.936c.66.8,8.4,1.408,10.566,2.311s15.657,2.76,16.379,2.537.49-1.5,2.118-5.4c1.946-4.664.984-2.095,1.945-6.379s0-1.581,2.887-4.737.24-1.579-.723-6.54,0-2.256,2.888-6.091.962-1.352,1.443-5.638-.962-4.736.481-8.345c1.273-3.181,5.559-36.993,5.982-40.68.315,2.967-.229,21.148.264,27.277.587,7.3-1.8,12.7-.921,13.386.268.209.209,2.765,0,6.218a3.51,3.51,0,0,0-.078,1.237c-.527,7.947-1.683,19.389-1.683,19.389a31.415,31.415,0,0,0,1.32,5.091c-1.665,3.256-5.542,12.435-5.125,16.346.483,4.512,2.406,8.572,1.443,12.63s-.961,6.767-1.443,8.121.483,2.707.483,4.509,10.1,3.609,25.974,5.867,19.239,6.313,30.3,5.411,16.833.451,29.821-2.256,12.506-2.255,22.607-4.96,14.91-4.062,14.91-6.315.482-1.354-.961-6.765,1.924-4.513-1.443-9.927-1.445-6.315-2.407-9.471c-.146-.479-.315-.981-.5-1.485,0,0-1.428-16.157-1.429-16.857,0-.517,0-1.024,0-1.505,0-2.029-.722-4.511-1.2-9.924-.137-1.534-.254-2.434-.335-3a27.328,27.328,0,0,1,.335-2.861,3.993,3.993,0,0,0,.095-.58c.025-5.5-1.775-1.4-1.918-9.185-.1-5.324-1.305-6.486-1.794-8.017l.009-.037a16.851,16.851,0,0,0,.179-4.008c.339-2.685-1.919-25.1-2.333-28.326.275.678,6.219,16.417,6.609,17.109,2.165,3.834-2.769,4.85,1.078,7.557s1.824,4.336,1.3,9.8c-.173,1.814-.371,1.534-.1,3.054.516,2.893,2.165,3.609,3.37,7.218s.962,2.029,1.682,5.64,1.2,2.48,2.406,5.187a26.994,26.994,0,0,0,3.608,6.09,16.686,16.686,0,0,1,2.885,7.893c.483,2.933.241,4.061.962,5.638s3.849,1.58,5.531,1.353,23.089.9,23.089-1.577a19.278,19.278,0,0,1,.481-4.737C308.567,292.137,306.882,291.459,306.4,287.85Z" transform="translate(-107.137 -146.585)" fill="#2c1f9c"/>
        </g>
        <g id="Group_76" data-name="Group 76" transform="translate(45.427 226.407)">
          <path id="Path_546" data-name="Path 546" d="M203.476,327.66s-20.76-4.086-31.064-9.049-12.447-5.9-14.609-10.217c-.307-.614-.768-1.6-.768-1.6s-1.845,3.794-1.69,5.691,2.459,10.655,2.459,10.655l1.077,5.109s15.225,12.989,45.826,14.3c0,0-.153-10.07-.616-11.238A16.43,16.43,0,0,1,203.476,327.66Z" transform="translate(-152.856 -306.789)" fill="#5b5851"/>
          <g id="Group_75" data-name="Group 75" transform="translate(0 1.004)">
            <path id="Path_547" data-name="Path 547" d="M231.545,329.1s11.161-1.849,15.411-3.027,9.212-1.177,12.933-2.858,6.2-1.346,8.5-1.851,7.618-2.522,7.618-2.522,1.946-.167,1.77,1.346,0,16.142,0,16.142-3.19,3.194-5.848,4.035-11.866,2.859-16.829,3.7-13.64,2.186-17,2.859a47.645,47.645,0,0,1-6.555.672c-1.24.168-2.3,2.858-5.137,2.692s-3.544-1.178-3.544-1.178l-.885-17.487s3.366,1.85,5.846.841l2.48-1.008Z" transform="translate(-161.129 -309.851)" fill="#333"/>
            <path id="Path_548" data-name="Path 548" d="M153.391,308s6.022,16.309,30.115,18.831c0,0,9.388.169,12.755,1.513s6.731,2.356,6.731,2.356,4.606,2.688,6.023,0l1.389.027.116,17.654s-4.872,2.83-7.706.139a15.382,15.382,0,0,0-6.731-2.69c-3.9-.5-34.19-3.194-43.579-18.83V309.513Z" transform="translate(-152.505 -308)" fill="#333"/>
          </g>
          <path id="Path_549" data-name="Path 549" d="M227.757,329.959h-8.5s-.442-1.347-1.595-1.515l-5.756.253v1.513h-2.657l.087-1.219s-7.883,3.152-7.883,11.307,1.417,16.225,7.086,17.317v-1.26h2.216l.441.925,6.556-.085.8-.924,8.149-.506s4.429-1.008,4.607-7.565S232.185,331.977,227.757,329.959Zm-11.515,21.857c-.088,1.681-1.417,1.514-1.417,1.514h-5.578V336.179c0-2.69,2.746-2.353,2.746-2.353L211.815,335H215v-.842a1.016,1.016,0,0,1,1.239.758S216.331,350.134,216.242,351.816Zm10.541.671c-.886.926-2.215-.587-2.215-.587h-2.126s0,.925-1.771,1.009-.709-2.27-.709-2.27c1.683-6.474.443-14.375.443-14.375-.355-2.1.353-2.691.353-2.691s6.024.253,6.024,0Z" transform="translate(-158.581 -310.487)" fill="#0a0b0c"/>
        </g>
        <g id="Group_78" data-name="Group 78" transform="translate(174.954 241.569)">
          <path id="Path_550" data-name="Path 550" d="M323.084,384.892s-.528,8.7-1.753,10.181-10.5,12.808-4.9,13.794,6.656-.493,9.629-4.269,3.854-13.3,1.926-15.929A12.281,12.281,0,0,0,323.084,384.892Z" transform="translate(-302.159 -335.29)" fill="#5b3f21"/>
          <g id="Group_77" data-name="Group 77">
            <path id="Path_551" data-name="Path 551" d="M335.118,357.186c-.522-1.591-.9-2.666-1.2-3.586L331.6,329.641l-.152-4.39s-20.988-.708-28.84.707v2.833s1.4,16.4,4.628,23.707a.252.252,0,0,0,.017.034c.323.974.666,1.953,1.064,2.946,4.2,10.507-9.622,20.54-7.755,27.545s14.941-3.5,17.277-6.567,2.8,3.063,5.137,6.567-6.071,18.83-1.869,21.021,6.07-.878,8.871-4.82,6.536-19.7,7-26.71S336.984,362.881,335.118,357.186Z" transform="translate(-300.39 -325.074)" fill="#fbb040"/>
            <path id="Path_552" data-name="Path 552" d="M331.914,329.641l-.151-4.39s-20.988-.708-28.841.707v2.833s.054.629.164,1.687c5.808-.828,17.426-2.076,28.864-.447Z" transform="translate(-300.704 -325.074)" fill="#604829"/>
          </g>
        </g>
        <g id="Group_80" data-name="Group 80" transform="translate(0 248.424)">
          <path id="Path_553" data-name="Path 553" d="M117.883,393.157s.528,8.705,1.753,10.181,10.505,12.81,4.9,13.794-6.656-.492-9.629-4.269-3.854-13.3-1.927-15.929A12.293,12.293,0,0,1,117.883,393.157Z" transform="translate(-102.045 -343.555)" fill="#5b3f21"/>
          <g id="Group_79" data-name="Group 79">
            <path id="Path_554" data-name="Path 554" d="M102.674,365.452c.522-1.591.9-2.666,1.2-3.586l2.318-23.959.152-4.391s20.988-.707,28.841.709v2.832s-1.4,16.405-4.628,23.708c0,.012-.012.022-.018.033-.322.974-.667,1.953-1.064,2.946-4.2,10.508,9.622,20.54,7.755,27.545s-14.941-3.505-17.276-6.567-2.8,3.062-5.137,6.567,6.07,18.83,1.868,21.022-6.07-.879-8.87-4.82-6.537-19.707-7-26.711S100.809,371.148,102.674,365.452Z" transform="translate(-100.64 -333.34)" fill="#fbb040"/>
            <path id="Path_555" data-name="Path 555" d="M106.975,337.907l.151-4.391s20.988-.707,28.841.709v2.832s-.055.629-.164,1.688c-5.809-.828-17.426-2.077-28.865-.448Z" transform="translate(-101.422 -333.34)" fill="#604829"/>
          </g>
        </g>
        <path id="Path_556" data-name="Path 556" d="M188.564,146.029s-2.4,12.18,22.85,11.729,23.327-12.18,23.327-12.18a4.224,4.224,0,0,1,4.088,1.8c1.443,2.255-5.288,18.721-31.022,15.562-20.2-.676-24.291-9.924-22.849-15.788A2.514,2.514,0,0,1,188.564,146.029Z" transform="translate(-111.074 -52.845)" fill="#192b3a"/>
        <g id="Group_85" data-name="Group 85" transform="translate(39.62 93.269)">
          <path id="Path_557" data-name="Path 557" d="M243.851,147.127l9.163,3.4c6.547,2.429,10.475,4.539,13.966,5.278s3.49,2.013,2.4,4.516-9.6,26.582-2.618,44.82,9.6,24.005,9.6,24.005-.218,17.556,0,31.686,4.8,34.987-5.019,39.921-26.839,8.3-39.714,5.159-14.619-14.353-15.056-23.1,0-36.109,0-46.649-.436-17.269,1.527-23.1,8.292-25.138,13.311-37.016S239.7,153.93,243.851,147.127Z" transform="translate(-154.628 -146.386)" fill="#f28420"/>
          <g id="Group_81" data-name="Group 81" transform="translate(61.769 4.326)">
            <path id="Path_558" data-name="Path 558" d="M216.4,292.388c-.008,5.205.02,9.907.115,13.194,23.249,4.471,52.6,1.72,61.091.766-.116-4.414-.543-9.085-.863-13.511C260.036,295.638,226.059,293.176,216.4,292.388Z" transform="translate(-216.399 -175.519)" fill="#d6cccc"/>
            <path id="Path_559" data-name="Path 559" d="M276.306,245.589c.007-5.956.049-11.1.075-13.763-5.542,1.221-13.681,1.654-22.272,1.672-.118-5.373-.273-17.442.262-31.138.575-14.747,6.168-38.094,8.794-47.024-2.553-.983-5.583-2.366-9.628-3.886-13.744,24.592-14.264,69.327-14.125,81.739-9.8-.393-18.541-1.064-22.823-1.425.012,1.611.025,3.314.025,5.138,0,2.106-.017,4.892-.043,8.061C239.956,249.594,269.68,246.4,276.306,245.589Z" transform="translate(-216.42 -151.45)" fill="#d6cccc"/>
          </g>
          <path id="Path_560" data-name="Path 560" d="M180.38,147.127l-8.691,3.4c-6.207,2.429-9.932,4.539-13.244,5.278s-3.311,2.013-2.276,4.516,9.106,26.582,2.483,44.82-9.1,24.005-9.1,24.005.207,17.556,0,31.686-4.553,34.987,4.759,39.921,25.454,8.3,37.662,5.159,13.865-14.353,14.279-23.1,0-36.109,0-46.649.413-17.269-1.449-23.1-7.864-25.138-12.623-37.016S184.312,153.93,180.38,147.127Z" transform="translate(-146.184 -146.386)" fill="#f28420"/>
          <g id="Group_82" data-name="Group 82" transform="translate(2.187 4.326)">
            <path id="Path_561" data-name="Path 561" d="M206.419,292.388c.007,5.205-.02,9.907-.11,13.194-22.048,4.471-49.888,1.72-57.935.766.11-4.414.514-9.085.818-13.511C165.035,295.638,197.258,293.176,206.419,292.388Z" transform="translate(-148.373 -175.519)" fill="#d6cccc"/>
            <path id="Path_562" data-name="Path 562" d="M149.792,245.589c-.006-5.957-.046-11.1-.07-13.763,5.256,1.221,12.974,1.655,21.122,1.672.111-5.373.259-17.442-.249-31.138-.546-14.747-5.85-38.094-8.341-47.024,2.423-.983,5.3-2.365,9.132-3.886,13.035,24.592,13.527,69.327,13.4,81.739,9.3-.393,17.585-1.064,21.645-1.425-.011,1.611-.024,3.314-.024,5.138,0,2.106.017,4.892.04,8.061C184.266,249.594,156.077,246.4,149.792,245.589Z" transform="translate(-148.54 -151.45)" fill="#d6cccc"/>
          </g>
          <g id="Group_83" data-name="Group 83" transform="translate(121.73 117.31)">
            <path id="Path_563" data-name="Path 563" d="M285.268,297.577v1.961s.694-.283.682.925l-.012,1.208h2.14l.6-1.556-.786-2.018Z" transform="translate(-284.909 -289.389)" fill="#300b0b"/>
            <path id="Path_564" data-name="Path 564" d="M284.858,287.7h1.261l2.5,3.633v7.093l-2.5-1.038-.861-.576Z" transform="translate(-284.858 -287.703)" fill="#5b5050"/>
          </g>
          <g id="Group_84" data-name="Group 84" transform="translate(0 117.31)">
            <path id="Path_565" data-name="Path 565" d="M149.282,297.577v1.961s-.694-.283-.681.925l.012,1.208h-2.141l-.6-1.556.786-2.018Z" transform="translate(-145.876 -289.389)" fill="#300b0b"/>
            <path id="Path_566" data-name="Path 566" d="M149.641,287.7H148.38l-2.5,3.633v7.093l2.5-1.038.862-.576Z" transform="translate(-145.876 -287.703)" fill="#5b5050"/>
          </g>
          <path id="Path_567" data-name="Path 567" d="M148.8,270.971c.267-3.668.52-7.132.567-10.3.2-13.957,0-31.487,0-31.663a.777.777,0,0,1,.064-.323c.024-.058,2.556-5.974,9.088-23.965,6.08-16.745-.512-39.509-2.471-44.247-.487-1.181-.963-2.534-.435-3.654.145-.307.7-.3.982-.537.057.083-.226-.057-.172.237.1.53.17.951.334,1.573a6.771,6.771,0,0,0,.54,1.775c.1.245,9.656,25.676,2.5,45.4-5.978,16.464-8.619,22.853-9.056,23.892.02,1.835.192,18.293,0,31.539-.046,3.217-.3,6.7-.571,10.394-.863,11.836-1.843,25.252,4.948,28.849,7.224,3.828,17.773,6.3,26.874,6.3a41.688,41.688,0,0,0,10.33-1.2c11.322-2.912,13.306-12.967,13.754-22.417.292-6.164.171-21.552.074-33.917-.041-5.154-.075-9.607-.075-12.694,0-1.711.011-3.323.021-4.846.053-7.69.088-13.247-1.432-18.012l-.727-2.287c-2.478-7.818-7.633-24.086-11.878-34.676-1.585-3.957-2.963-7.668-4.3-11.255-2.51-6.758-4.69-12.629-7.163-17.06,0,0,.114-.22-.646-.9l.7-.7a.659.659,0,0,1,.812.3c2.656,4.6,4.929,10.716,7.561,17.8,1.33,3.579,2.7,7.28,4.282,11.219,4.266,10.644,9.433,26.948,11.917,34.784l.725,2.284c1.6,5.007,1.561,10.67,1.507,18.508-.01,1.52-.02,3.127-.02,4.834,0,3.081.034,7.53.075,12.681.1,12.385.218,27.8-.076,34.007-.446,9.416-2.531,20.628-14.8,23.783a42.878,42.878,0,0,1-10.646,1.238c-9.293,0-20.078-2.532-27.475-6.451C146.884,297.228,147.859,283.879,148.8,270.971Z" transform="translate(-146.16 -146.233)" fill="#300b0b"/>
        </g>
      </g>
      <g id="Group_87" data-name="Group 87" transform="translate(100.095 93.782)">
        <path id="Path_568" data-name="Path 568" d="M276.4,158.386c-.018-.012-.039-.022-.054-.035C276.324,158.383,276.358,158.382,276.4,158.386Z" transform="translate(-222.545 -148.815)" fill="#300b0b"/>
        <path id="Path_569" data-name="Path 569" d="M276.412,158.393a.885.885,0,0,0,.118.065A.13.13,0,0,0,276.412,158.393Z" transform="translate(-222.554 -148.822)" fill="#300b0b"/>
        <path id="Path_570" data-name="Path 570" d="M276.944,271.076c-.282-3.668-.549-7.132-.6-10.3-.215-13.957,0-31.488,0-31.663a.758.758,0,0,0-.067-.323c-.026-.057-2.7-5.973-9.584-23.964-6.411-16.745.541-39.509,2.6-44.247.515-1.181,1.018-2.534.46-3.654-.128-.255-.553-.294-.863-.437a.206.206,0,0,1,.009.137c-.1.53-.18.951-.352,1.573a6.473,6.473,0,0,1-.57,1.775c-.107.245-10.181,25.676-2.63,45.4,6.3,16.463,9.088,22.853,9.548,23.892-.02,1.834-.2,18.293,0,31.539.05,3.217.318,6.7.6,10.394.912,11.836,1.944,25.252-5.217,28.849-7.617,3.828-18.741,6.3-28.338,6.3a46.235,46.235,0,0,1-10.891-1.2c-11.939-2.912-14.031-12.967-14.5-22.417-.307-6.164-.181-21.552-.079-33.917.043-5.154.08-9.607.08-12.694,0-1.712-.011-3.323-.023-4.846-.054-7.69-.094-13.247,1.511-18.012l.766-2.287c2.613-7.818,8.05-24.086,12.524-34.676,1.673-3.957,3.125-7.668,4.53-11.255,2.648-6.758,4.947-12.629,7.553-17.06a3.1,3.1,0,0,1,.615-.766l-1.1-.365-.627.158c-2.719,4.559-5.07,10.556-7.782,17.479-1.4,3.579-2.851,7.28-4.515,11.219-4.5,10.644-9.946,26.948-12.565,34.784l-.766,2.284c-1.685,5.007-1.645,10.67-1.589,18.508.01,1.52.021,3.127.021,4.834,0,3.081-.037,7.53-.079,12.681-.1,12.384-.229,27.8.081,34.007.469,9.416,2.668,20.628,15.61,23.783a47.549,47.549,0,0,0,11.225,1.238c9.8,0,21.172-2.532,28.972-6.451C278.965,297.334,277.937,283.985,276.944,271.076Z" transform="translate(-214.921 -146.851)" fill="#300b0b"/>
      </g>
    </g>
    <g id="Group_90" data-name="Group 90" transform="translate(263 106)">
      <ellipse id="Ellipse_25" data-name="Ellipse 25" cx="74.663" cy="73.959" rx="74.663" ry="73.959" transform="translate(0)" fill="#e24152"/>
      <g id="Group_89" data-name="Group 89" transform="translate(30.593 14.85)">
        <path id="Path_571" data-name="Path 571" d="M516.68,367.686l-1.233-6.1h-3.064a37.554,37.554,0,0,0-32.644-35.625v-.117s-1.925-2.38-3.946-2.952v-.027a3.229,3.229,0,0,0-1.5,0v.027c-2.02.572-3.946,2.952-3.946,2.952v.117a37.539,37.539,0,0,0-32.635,35.625h-3.07l-1.234,6.1a2.879,2.879,0,0,0,.481,5.722h1.889c5.79,2.3,21.184,3.941,39.268,3.941s33.479-1.643,39.267-3.941H516.2a2.879,2.879,0,0,0,.48-5.722Z" transform="translate(-430.972 -322.775)" fill="#fff"/>
        <path id="Path_572" data-name="Path 572" d="M475.329,445.327h-.035c-15.069-.638-25.167-16.414-26.195-18.086-2.461-2.216-5.536-15.118-6.6-19.875a4.075,4.075,0,0,1-2.087.639c-4.641,0-5.615-9.9-5.615-18.21,0-2.681,1.545-4.218,4.239-4.218a9.293,9.293,0,0,1,1.98.234v-5.22l1.056.32c12.358,3.737,20.643,4.521,25.417,4.521,5.212,0,7.5-.908,7.526-.919l.315-.129.317.131c.019.007,2.309.916,7.521.916,4.774,0,13.06-.784,25.418-4.521l1.055-.32v5.22a9.31,9.31,0,0,1,1.981-.234c2.694,0,4.239,1.537,4.239,4.218a67.945,67.945,0,0,1-.743,10.5c-.879,5.19-2.473,7.713-4.871,7.713h0a4.141,4.141,0,0,1-2.085-.642c-1.066,4.755-4.141,17.661-6.6,19.878-1.029,1.672-11.125,17.448-26.195,18.086Zm-31.787-40.834.287,1.322c1.548,7.147,4.651,18.961,6.388,20.244l.13.1.084.139c.1.168,10.232,16.767,24.9,17.413,14.681-.647,24.8-17.244,24.9-17.413l.083-.139.131-.1c1.737-1.283,4.84-13.1,6.387-20.244l.287-1.322,1.042.875a3.552,3.552,0,0,0,2.09,1.018h0c1.408,0,2.565-2.26,3.261-6.361a66.41,66.41,0,0,0,.72-10.23c0-1.8-.8-2.6-2.6-2.6a8.477,8.477,0,0,0-2.517.443l-1.1.4v-5.262c-9.629,2.838-17.981,4.276-24.839,4.276a26,26,0,0,1-7.839-.929,26.039,26.039,0,0,1-7.84.929c-6.856,0-15.208-1.437-24.838-4.276v5.265l-1.1-.4a8.467,8.467,0,0,0-2.516-.443c-1.8,0-2.6.8-2.6,2.6,0,10.078,1.562,16.591,3.98,16.591a3.549,3.549,0,0,0,2.091-1.018Z" transform="translate(-431.259 -327.11)" fill="#fff"/>
      </g>
    </g>
    <g id="Group_92" data-name="Group 92" transform="translate(899 217.002)">
      <ellipse id="Ellipse_26" data-name="Ellipse 26" cx="74.663" cy="73.959" rx="74.663" ry="73.959" transform="translate(0)" fill="#e24152"/>
      <g id="Group_91" data-name="Group 91" transform="translate(14.1 41.406)">
        <path id="Path_573" data-name="Path 573" d="M883.09,581.675c-1.081-4.261-3.91-7.744-8.409-10.352-13.607-7.893-43.282-7.786-50.487-7.635-7.24-.149-36.87-.25-50.465,7.635-4.5,2.608-7.327,6.091-8.409,10.352-1.981,7.8,2.594,15.347,2.789,15.664l.242-.147c3.339,7.472,10.7,13.933,17.426,14.124.471.012.936.02,1.394.02,12.875,0,22.156-5.289,24.828-14.153a11.137,11.137,0,0,1,1.235-2.685l.094-.152.027-.177c.578-3.685,5.385-6.572,10.944-6.572s10.366,2.886,10.945,6.572l.028.176.094.153a11.165,11.165,0,0,1,1.234,2.685c2.672,8.864,11.953,14.153,24.828,14.153.459,0,.923-.007,1.395-.02,6.693-.19,14.027-6.6,17.386-14.034l.094.057C880.5,597.022,885.07,589.476,883.09,581.675Zm-116.037.421c.963-3.78,3.513-6.89,7.577-9.246,12.244-7.1,39.039-7.492,48.059-7.409l0,.057c.043,0,.583-.019,1.519-.037.929.018,1.467.035,1.509.037l0-.056c9.021-.082,35.812.305,48.06,7.408,4.064,2.357,6.613,5.467,7.576,9.246a14.892,14.892,0,0,1,.414,4.344c-1.049-5.005-5.4-11.98-21.248-13.184-4.544-.345-8.8-.638-12.6-.869a162.415,162.415,0,0,0-20.985-1.185c-12.706,0-23.308,1.006-23.374,1.013-4.51.252-9.722.6-15.489,1.041-16.688,1.268-20.632,8.938-21.391,13.965A15.347,15.347,0,0,1,767.052,582.1Zm95.717,27.453c-.454.014-.9.019-1.342.019-12.044,0-20.686-4.819-23.12-12.89a12.674,12.674,0,0,0-1.334-2.959c-.833-4.511-6.237-7.891-12.677-7.891s-11.844,3.379-12.676,7.891a12.689,12.689,0,0,0-1.334,2.958c-2.433,8.071-11.076,12.89-23.118,12.89-.44,0-.891-.005-1.343-.019-8.124-.229-17.289-10.651-17.513-19.913-.2-8.436,6.862-13.627,19.9-14.617,5.755-.437,10.955-.786,15.49-1.041.1-.011,10.64-1.007,23.237-1.007a161.15,161.15,0,0,1,20.82,1.176c3.844.235,8.091.528,12.627.872,13.034.99,20.1,6.181,19.9,14.617C880.059,598.9,870.893,609.32,862.77,609.548Z" transform="translate(-763.642 -546.229)" fill="#fff"/>
        <path id="Path_574" data-name="Path 574" d="M863.819,547.371c-15.169-5.746-39.71,0-39.71,0s-24.541-5.746-39.711,0-23.531,23.573-20.078,32.286c0,0,1.785-21.237,19.633-26.1s29.449-.442,40.157,0c10.708-.442,22.31-4.862,40.157,0s19.633,26.1,19.633,26.1C887.351,570.944,878.99,553.116,863.819,547.371Z" transform="translate(-763.546 -544.817)" fill="#fff"/>
      </g>
    </g>
    <g id="Group_96" data-name="Group 96" transform="translate(263 328.005)">
      <ellipse id="Ellipse_27" data-name="Ellipse 27" cx="74.663" cy="73.959" rx="74.663" ry="73.959" transform="translate(0 0)" fill="#e24152"/>
      <g id="Group_95" data-name="Group 95" transform="translate(31.684 28.51)">
        <g id="Group_93" data-name="Group 93">
          <path id="Path_575" data-name="Path 575" d="M803.393,337.541H797v14.594l-13.489,15.647v10.2h19.878Z" transform="translate(-782.627 -337.541)" fill="#fff"/>
          <rect id="Rectangle_42" data-name="Rectangle 42" width="40.29" height="13.009" transform="translate(0.888 46.593)" fill="#fff"/>
          <rect id="Rectangle_43" data-name="Rectangle 43" width="41.178" height="6.926" transform="translate(0 62.346)" fill="#fff"/>
          <path id="Path_576" data-name="Path 576" d="M782.555,414.729h41.178v11.236s-1.6,6.681-10.3,8.262H783.443V415.414Z" transform="translate(-782.555 -343.329)" fill="#fff"/>
          <path id="Path_577" data-name="Path 577" d="M809.994,337.541V377.98h15.8V365.673l-5.144-11.25v-5.276l-5.77-5.712v-5.891Z" transform="translate(-784.612 -337.541)" fill="#fff"/>
        </g>
        <g id="Group_94" data-name="Group 94" transform="translate(44.781 0.002)">
          <path id="Path_578" data-name="Path 578" d="M853.032,337.543h6.389v14.592l13.49,15.647v10.2H853.032Z" transform="translate(-832.62 -337.543)" fill="#fff"/>
          <rect id="Rectangle_44" data-name="Rectangle 44" width="40.291" height="13.009" transform="translate(0 46.592)" fill="#fff"/>
          <rect id="Rectangle_45" data-name="Rectangle 45" width="41.177" height="6.926" transform="translate(0 62.344)" fill="#fff"/>
          <path id="Path_579" data-name="Path 579" d="M872.142,414.729H830.966v11.236s1.6,6.681,10.294,8.262h30V415.414Z" transform="translate(-830.966 -343.331)" fill="#fff"/>
          <path id="Path_580" data-name="Path 580" d="M846.763,337.543V377.98h-15.8V365.673l5.145-11.25v-5.276l5.77-5.712v-5.891Z" transform="translate(-830.966 -337.543)" fill="#fff"/>
        </g>
      </g>
    </g>
    <g id="Group_102" data-name="Group 102" transform="translate(899 439.007)">
      <path id="Path_581" data-name="Path 581" d="M547.225,574.014c0,40.846-33.427,73.958-74.664,73.958S397.9,614.86,397.9,574.014s33.427-73.959,74.661-73.959S547.225,533.168,547.225,574.014Z" transform="translate(-397.9 -500.062)" fill="#e24152"/>
      <g id="Group_101" data-name="Group 101" transform="translate(31 31.993)">
        <g id="Group_97" data-name="Group 97" transform="translate(44.552 0.382)">
          <path id="Path_582" data-name="Path 582" d="M518.847,538.861a3.3,3.3,0,0,0-3.486,3.07v10.053a18.135,18.135,0,0,0-2.119-1.425V535.427a3.377,3.377,0,0,0-6.754,0V548.5c-.475-.032-.963-.039-1.459-.026V530.881a3.378,3.378,0,0,0-6.756,0V549.8a17.385,17.385,0,0,0-1.855.809V539.735a3.352,3.352,0,0,0-6.7,0V558.5l-2.314-5.3a3.865,3.865,0,0,0-5.064-1.988,3.8,3.8,0,0,0-2.007,5.016l5.751,13.173v30.427h36.254V541.931A3.3,3.3,0,0,0,518.847,538.861Z" transform="translate(-480.01 -527.537)" fill="#fff"/>
          <path id="Path_583" data-name="Path 583" d="M487.5,620.058h36.342v9.92H487.5v-9.92Z" transform="translate(-481.519 -546.177)" fill="#fff"/>
        </g>
        <g id="Group_100" data-name="Group 100">
          <g id="Group_98" data-name="Group 98" transform="translate(0)">
            <path id="Path_584" data-name="Path 584" d="M461.244,600.109H424.218V541.834a3.9,3.9,0,0,1,7.743,0v9.288c.441-.314.891-.609,1.348-.879V535.331a3.762,3.762,0,0,1,7.525,0V548c.229-.007.461-.008.689-.01v-17.2a3.763,3.763,0,0,1,7.526,0V549.44c.371.143.733.3,1.085.458v-10.26a3.738,3.738,0,0,1,7.475,0v16.921l1.575-3.611a4.257,4.257,0,0,1,5.571-2.189,4.19,4.19,0,0,1,2.208,5.519l-5.719,13.1Zm-36.255-.763h35.484V569.221l5.782-13.244a3.428,3.428,0,0,0-1.805-4.516,3.482,3.482,0,0,0-4.559,1.79l-3.053,7V539.638a2.967,2.967,0,0,0-5.935,0v11.5l-.561-.286a16.924,16.924,0,0,0-1.813-.791l-.252-.093V530.785a2.993,2.993,0,0,0-5.985,0v17.984l-.4-.01c-.483-.015-.961-.006-1.424.024l-.41.026V535.331a2.992,2.992,0,0,0-5.984,0v15.35l-.192.11a18.089,18.089,0,0,0-2.073,1.4l-.624.485V541.834a3.133,3.133,0,0,0-6.2,0Z" transform="translate(-424.218 -527.059)" fill="#fff"/>
          </g>
          <g id="Group_99" data-name="Group 99" transform="translate(0 73.881)">
            <path id="Path_585" data-name="Path 585" d="M461.331,630.264H424.218V619.58h36.728v.763H424.988V629.5H460.56v-8.522h.771Z" transform="translate(-424.218 -619.58)" fill="#fff"/>
          </g>
        </g>
      </g>
    </g>
    <g id="Group_106" data-name="Group 106" transform="translate(263 550.01)">
      <path id="Path_586" data-name="Path 586" d="M722.427,574.014c0,40.846-33.427,73.959-74.664,73.959S573.1,614.86,573.1,574.014s33.427-73.959,74.662-73.959S722.427,533.168,722.427,574.014Z" transform="translate(-573.101 -500.055)" fill="#e24152"/>
      <g id="Group_105" data-name="Group 105" transform="translate(17.152 35.562)">
        <g id="Group_103" data-name="Group 103" transform="translate(22.071 7.339)">
          <path id="Path_587" data-name="Path 587" d="M663.744,609.364c-7.1,2.483-16.017,1.846-23.115,2.207s-24.247-4.327-24.247-4.327h-.87v4.743H615.5v3.944h3.068v-2.576a17.817,17.817,0,0,0,2.936.724v1.852h3.068v-1.495c.946.069,1.928.114,2.937.133v1.362h3.068v-1.367c.976-.023,1.958-.061,2.936-.113v1.48h3.069v-1.682c1-.078,1.986-.166,2.935-.26v1.942h3.069v-2.27c.187-.023.365-.045.548-.066.9,0,1.7,0,2.388-.006v2.341h3.068V613.56l9.87.175,14.2-2.794v3.7h1.192v1.3h2.185v-1.3h2.091v1.3h2.185v-1.3h2.09v1.3h2.185v-1.3h2.091v1.3h2.185v-1.3h2.091v1.3h2.184v-1.3h2.091v1.3h2.185v-1.3h.736v-6.67l-29.13.18Z" transform="translate(-615.503 -550.993)" fill="#fff"/>
          <path id="Path_588" data-name="Path 588" d="M638.879,604.667c17.473.9,19.111-2.885,32.943-3.244s26.392-1.082,26.392-1.082v-13.07s.364-13.613-3.822-17.579l-3.458-3.966v-11.9h2v5.049h1.456v-12.44l-37.857.722v16.923s-8.919,19.855-21.842,24c0,0-15.652-4.508-17.835,7.753a5.409,5.409,0,0,0,0,4.147S621.406,603.766,638.879,604.667ZM663.056,551.9a1.758,1.758,0,1,1-1.774,1.758A1.766,1.766,0,0,1,663.056,551.9Zm0,7.5a1.758,1.758,0,1,1-1.774,1.758A1.766,1.766,0,0,1,663.056,559.4Z" transform="translate(-615.574 -546.433)" fill="#fff"/>
        </g>
        <g id="Group_104" data-name="Group 104">
          <path id="Path_589" data-name="Path 589" d="M643.276,556.318a2.2,2.2,0,1,1,2.22-2.2A2.214,2.214,0,0,1,643.276,556.318Zm0-7.5a2.2,2.2,0,1,1,2.22-2.2A2.212,2.212,0,0,1,643.276,548.815Z" transform="translate(-595.348 -538.943)" fill="none"/>
          <path id="Path_590" data-name="Path 590" d="M643.348,545.372a1.315,1.315,0,1,0,1.328,1.315A1.324,1.324,0,0,0,643.348,545.372Z" transform="translate(-595.42 -539.014)" fill="none"/>
          <path id="Path_591" data-name="Path 591" d="M643.348,553.483a1.316,1.316,0,1,0,1.328,1.315A1.324,1.324,0,0,0,643.348,553.483Z" transform="translate(-595.42 -539.622)" fill="none"/>
          <path id="Path_592" data-name="Path 592" d="M607.156,606.638l-.436.011v1.357h-2.176v-1.353l-.437-.009c-1.021-.018-2-.064-2.912-.133l-.48-.034v1.53H598.54v-1.783l-.371-.063a17.343,17.343,0,0,1-2.86-.7l-.6-.213v2.763h-2.177l.007-7.8h.363c.879.239,8.856,2.387,15.99,3.572v-.9c-7.377-1.241-15.7-3.5-15.81-3.536l-1.435-.016-.008,9.571H595.6v-2.408a18.787,18.787,0,0,0,2.044.484v1.924h3.961v-1.464c.654.043,1.338.072,2.043.091v1.374h3.961v-1.38c.426-.012.855-.031,1.283-.049v-.891C608.316,606.6,607.734,606.625,607.156,606.638Z" transform="translate(-591.643 -543.059)" fill="#fff"/>
          <path id="Path_593" data-name="Path 593" d="M643.276,544.416a2.2,2.2,0,1,0,2.22,2.2A2.213,2.213,0,0,0,643.276,544.416Zm0,3.515a1.315,1.315,0,1,1,1.328-1.315A1.325,1.325,0,0,1,643.276,547.931Z" transform="translate(-595.348 -538.943)" fill="#fff"/>
          <path id="Path_594" data-name="Path 594" d="M643.276,552.527a2.2,2.2,0,1,0,2.22,2.2A2.212,2.212,0,0,0,643.276,552.527Zm0,3.516a1.316,1.316,0,1,1,1.328-1.316A1.325,1.325,0,0,1,643.276,556.043Z" transform="translate(-595.348 -539.551)" fill="#fff"/>
          <path id="Path_595" data-name="Path 595" d="M593.815,592.22a5.028,5.028,0,0,1,.027-3.672l.041-.121c1.206-6.775,6.747-8.2,11.182-8.2a24.774,24.774,0,0,1,6.09.792l.131.039.131-.043c12.962-4.16,21.743-23.424,22.112-24.243l.038-16.67,36.965-.7v5.225h.893V538.5l-38.75.738V556.5c-.648,1.4-9.308,19.646-21.4,23.636-1.566-.418-16.067-3.939-18.255,8.082a5.886,5.886,0,0,0,.012,4.439l.043.1.088.075c.163.136,3.672,2.931,15.811,4.275v-.892C598.215,595.007,594.409,592.634,593.815,592.22Z" transform="translate(-591.714 -538.499)" fill="#fff"/>
        </g>
      </g>
    </g>
    <line id="Line_1" data-name="Line 1" y1="20.35" x2="250.681" transform="translate(400.366 168.439)" fill="none" stroke="#e24152" stroke-width="1"/>
    <ellipse id="Ellipse_28" data-name="Ellipse 28" cx="4.5" cy="5" rx="4.5" ry="5" transform="translate(646 163)" fill="#e24152"/>
    <line id="Line_2" data-name="Line 2" y1="69.377" x2="220.155" transform="translate(400.366 337.718)" fill="none" stroke="#e24152" stroke-width="1"/>
    <ellipse id="Ellipse_29" data-name="Ellipse 29" cx="5" cy="4.5" rx="5" ry="4.5" transform="translate(616 333)" fill="#e24152"/>
    <line id="Line_3" data-name="Line 3" x2="199.804" y2="41.626" transform="translate(400.366 628.174)" fill="none" stroke="#e24152" stroke-width="1"/>
    <circle id="Ellipse_30" data-name="Ellipse 30" cx="4.5" cy="4.5" r="4.5" transform="translate(596 665)" fill="#e24152"/>
    <line id="Line_4" data-name="Line 4" x2="236.878" y2="82.985" transform="translate(668.622 204.515)" fill="none" stroke="#e24152" stroke-width="1"/>
    <circle id="Ellipse_31" data-name="Ellipse 31" cx="4.5" cy="4.5" r="4.5" transform="translate(662 199)" fill="#e24152"/>
    <line id="Line_5" data-name="Line 5" x2="167.429" y2="84.177" transform="translate(746.323 428.37)" fill="none" stroke="#e24152" stroke-width="1"/>
    <circle id="Ellipse_32" data-name="Ellipse 32" cx="4.5" cy="4.5" r="4.5" transform="translate(742 424)" fill="#e24152"/>
    <path id="Path_630" data-name="Path 630" d="M-13.711,0h1.989V-11.339h-1.989V-6.7h-5.9v-4.641H-21.6V0h1.989V-4.947h5.9Zm4.4,0h7.769V-1.751h-5.78V-4.9h5.661V-6.647H-7.319V-9.588h5.78v-1.751H-9.308ZM8.526,0H10.7L6.248-11.339H3.766L-.688,0H1.488l.833-2.176H7.693ZM5.007-9.656,7.132-3.927H2.882ZM11.943,0h4.216c3.536,0,5.933-2.329,5.933-5.661s-2.4-5.678-5.933-5.678H11.943Zm1.989-1.751V-9.588h2.227a3.674,3.674,0,0,1,3.893,3.927,3.724,3.724,0,0,1-3.893,3.91ZM-50.924,18h1.989V13.767h2.992a3.468,3.468,0,0,0,3.706-3.553,3.459,3.459,0,0,0-3.706-3.553h-4.981Zm6.647-7.786a1.788,1.788,0,0,1-1.938,1.8h-2.72v-3.6h2.72A1.788,1.788,0,0,1-44.277,10.214ZM-34.111,18h2.295l-2.771-4.454A3.18,3.18,0,0,0-31.9,10.214a3.442,3.442,0,0,0-3.706-3.553h-4.981V18H-38.6V13.767h1.972Zm.17-7.786a1.788,1.788,0,0,1-1.938,1.8H-38.6v-3.6h2.72A1.788,1.788,0,0,1-33.941,10.214Zm3.519,2.125a5.625,5.625,0,0,0,5.8,5.865,5.625,5.625,0,0,0,5.8-5.865,5.625,5.625,0,0,0-5.8-5.865A5.625,5.625,0,0,0-30.422,12.339Zm9.554,0a3.775,3.775,0,0,1-3.757,4.1c-2.295,0-3.757-1.768-3.757-4.1,0-2.346,1.462-4.1,3.757-4.1C-22.347,8.242-20.868,9.993-20.868,12.339ZM-14.629,18h1.989V8.412h3.434V6.661h-8.857V8.412h3.434Zm7.106,0H.247V16.249h-5.78V13.1H.128V11.353H-5.533V8.412H.247V6.661H-7.523Zm15.164.2a5.189,5.189,0,0,0,4.641-2.55l-1.7-.867a3.366,3.366,0,0,1-2.941,1.649,3.868,3.868,0,0,1-3.825-4.1,3.868,3.868,0,0,1,3.825-4.1,3.4,3.4,0,0,1,2.941,1.649l1.7-.867a5.169,5.169,0,0,0-4.641-2.55,5.7,5.7,0,0,0-5.865,5.865A5.7,5.7,0,0,0,7.642,18.2Zm8.942-.2h1.989V8.412h3.434V6.661H13.15V8.412h3.434Zm7.106,0h1.989V6.661H23.69Zm3.893-5.661a5.625,5.625,0,0,0,5.8,5.865,5.625,5.625,0,0,0,5.8-5.865,5.625,5.625,0,0,0-5.8-5.865A5.625,5.625,0,0,0,27.583,12.339Zm9.554,0a3.775,3.775,0,0,1-3.757,4.1c-2.295,0-3.757-1.768-3.757-4.1,0-2.346,1.462-4.1,3.757-4.1C35.658,8.242,37.137,9.993,37.137,12.339ZM49,18h1.921V6.661H48.935V14.7l-5.8-8.041H41.1V18h1.989V9.738Z" transform="translate(338 276)" fill="#2c4359"/>
    <path id="Path_634" data-name="Path 634" d="M-56.823,0h7.769V-1.751h-5.78V-4.9h5.661V-6.647h-5.661V-9.588h5.78v-1.751h-7.769ZM-43.8,0h1.989V-4.709l4.386-6.63H-39.7L-42.8-6.477l-3.128-4.862H-48.2l4.4,6.63Zm7.616,0h7.769V-1.751H-34.2V-4.9h5.661V-6.647H-34.2V-9.588h5.78v-1.751h-7.769Zm22.2,0h2.176l-4.454-11.339h-2.482L-23.2,0h2.176l.833-2.176h5.372ZM-17.5-9.656l2.125,5.729h-4.25ZM-2.661,0H-.74V-11.339H-2.729V-3.3l-5.8-8.041h-2.04V0h1.989V-8.262ZM1.674,0H5.89c3.536,0,5.933-2.329,5.933-5.661s-2.4-5.678-5.933-5.678H1.674ZM3.663-1.751V-9.588H5.89A3.674,3.674,0,0,1,9.783-5.661,3.724,3.724,0,0,1,5.89-1.751ZM18.114,0H20.1V-4.9h5.661V-6.647H20.1V-9.588h5.78v-1.751H18.114Zm16.9,0h2.176L32.734-11.339H30.252L25.8,0h2.176l.833-2.176h5.372ZM31.493-9.656l2.125,5.729h-4.25ZM43.189.2a5.189,5.189,0,0,0,4.641-2.55l-1.7-.867a3.367,3.367,0,0,1-2.941,1.649,3.868,3.868,0,0,1-3.825-4.1,3.868,3.868,0,0,1,3.825-4.1A3.4,3.4,0,0,1,46.13-8.109l1.7-.867a5.169,5.169,0,0,0-4.641-2.55,5.7,5.7,0,0,0-5.865,5.865A5.7,5.7,0,0,0,43.189.2ZM49.428,0H57.2V-1.751h-5.78V-4.9h5.661V-6.647H51.417V-9.588H57.2v-1.751H49.428ZM-50.924,18h1.989V13.767h2.992a3.468,3.468,0,0,0,3.706-3.553,3.459,3.459,0,0,0-3.706-3.553h-4.981Zm6.647-7.786a1.788,1.788,0,0,1-1.938,1.8h-2.72v-3.6h2.72A1.788,1.788,0,0,1-44.277,10.214ZM-34.111,18h2.295l-2.771-4.454A3.18,3.18,0,0,0-31.9,10.214a3.442,3.442,0,0,0-3.706-3.553h-4.981V18H-38.6V13.767h1.972Zm.17-7.786a1.788,1.788,0,0,1-1.938,1.8H-38.6v-3.6h2.72A1.788,1.788,0,0,1-33.941,10.214Zm3.519,2.125a5.625,5.625,0,0,0,5.8,5.865,5.625,5.625,0,0,0,5.8-5.865,5.625,5.625,0,0,0-5.8-5.865A5.625,5.625,0,0,0-30.422,12.339Zm9.554,0a3.775,3.775,0,0,1-3.757,4.1c-2.295,0-3.757-1.768-3.757-4.1,0-2.346,1.462-4.1,3.757-4.1C-22.347,8.242-20.868,9.993-20.868,12.339ZM-14.629,18h1.989V8.412h3.434V6.661h-8.857V8.412h3.434Zm7.106,0H.247V16.249h-5.78V13.1H.128V11.353H-5.533V8.412H.247V6.661H-7.523Zm15.164.2a5.189,5.189,0,0,0,4.641-2.55l-1.7-.867a3.366,3.366,0,0,1-2.941,1.649,3.868,3.868,0,0,1-3.825-4.1,3.868,3.868,0,0,1,3.825-4.1,3.4,3.4,0,0,1,2.941,1.649l1.7-.867a5.169,5.169,0,0,0-4.641-2.55,5.7,5.7,0,0,0-5.865,5.865A5.7,5.7,0,0,0,7.642,18.2Zm8.942-.2h1.989V8.412h3.434V6.661H13.15V8.412h3.434Zm7.106,0h1.989V6.661H23.69Zm3.893-5.661a5.625,5.625,0,0,0,5.8,5.865,5.625,5.625,0,0,0,5.8-5.865,5.625,5.625,0,0,0-5.8-5.865A5.625,5.625,0,0,0,27.583,12.339Zm9.554,0a3.775,3.775,0,0,1-3.757,4.1c-2.295,0-3.757-1.768-3.757-4.1,0-2.346,1.462-4.1,3.757-4.1C35.658,8.242,37.137,9.993,37.137,12.339ZM49,18h1.921V6.661H48.935V14.7l-5.8-8.041H41.1V18h1.989V9.738Z" transform="translate(973 387)" fill="#2c4359"/>
    <path id="Path_633" data-name="Path 633" d="M-14.926,0h1.989V-11.339h-1.989V-6.7h-5.9v-4.641h-1.989V0h1.989V-4.947h5.9ZM-2.5,0H-.323L-4.777-11.339H-7.259L-11.713,0h2.176L-8.7-2.176h5.372ZM-6.018-9.656l2.125,5.729h-4.25ZM8.823,0h1.921V-11.339H8.755V-3.3l-5.8-8.041H.918V0H2.907V-8.262Zm4.335,0h4.216c3.536,0,5.933-2.329,5.933-5.661s-2.4-5.678-5.933-5.678H13.158Zm1.989-1.751V-9.588h2.227a3.674,3.674,0,0,1,3.893,3.927,3.724,3.724,0,0,1-3.893,3.91ZM-50.924,18h1.989V13.767h2.992a3.468,3.468,0,0,0,3.706-3.553,3.459,3.459,0,0,0-3.706-3.553h-4.981Zm6.647-7.786a1.788,1.788,0,0,1-1.938,1.8h-2.72v-3.6h2.72A1.788,1.788,0,0,1-44.277,10.214ZM-34.111,18h2.295l-2.771-4.454A3.18,3.18,0,0,0-31.9,10.214a3.442,3.442,0,0,0-3.706-3.553h-4.981V18H-38.6V13.767h1.972Zm.17-7.786a1.788,1.788,0,0,1-1.938,1.8H-38.6v-3.6h2.72A1.788,1.788,0,0,1-33.941,10.214Zm3.519,2.125a5.625,5.625,0,0,0,5.8,5.865,5.625,5.625,0,0,0,5.8-5.865,5.625,5.625,0,0,0-5.8-5.865A5.625,5.625,0,0,0-30.422,12.339Zm9.554,0a3.775,3.775,0,0,1-3.757,4.1c-2.295,0-3.757-1.768-3.757-4.1,0-2.346,1.462-4.1,3.757-4.1C-22.347,8.242-20.868,9.993-20.868,12.339ZM-14.629,18h1.989V8.412h3.434V6.661h-8.857V8.412h3.434Zm7.106,0H.247V16.249h-5.78V13.1H.128V11.353H-5.533V8.412H.247V6.661H-7.523Zm15.164.2a5.189,5.189,0,0,0,4.641-2.55l-1.7-.867a3.366,3.366,0,0,1-2.941,1.649,3.868,3.868,0,0,1-3.825-4.1,3.868,3.868,0,0,1,3.825-4.1,3.4,3.4,0,0,1,2.941,1.649l1.7-.867a5.169,5.169,0,0,0-4.641-2.55,5.7,5.7,0,0,0-5.865,5.865A5.7,5.7,0,0,0,7.642,18.2Zm8.942-.2h1.989V8.412h3.434V6.661H13.15V8.412h3.434Zm7.106,0h1.989V6.661H23.69Zm3.893-5.661a5.625,5.625,0,0,0,5.8,5.865,5.625,5.625,0,0,0,5.8-5.865,5.625,5.625,0,0,0-5.8-5.865A5.625,5.625,0,0,0,27.583,12.339Zm9.554,0a3.775,3.775,0,0,1-3.757,4.1c-2.295,0-3.757-1.768-3.757-4.1,0-2.346,1.462-4.1,3.757-4.1C35.658,8.242,37.137,9.993,37.137,12.339ZM49,18h1.921V6.661H48.935V14.7l-5.8-8.041H41.1V18h1.989V9.738Z" transform="translate(973 609)" fill="#2c4359"/>
    <path id="Path_631" data-name="Path 631" d="M-35.131.2a5.189,5.189,0,0,0,4.641-2.55l-1.7-.867a3.366,3.366,0,0,1-2.941,1.649,3.868,3.868,0,0,1-3.825-4.1,3.868,3.868,0,0,1,3.825-4.1A3.4,3.4,0,0,1-32.19-8.109l1.7-.867a5.169,5.169,0,0,0-4.641-2.55A5.7,5.7,0,0,0-41-5.661,5.7,5.7,0,0,0-35.131.2Zm6.239-.2H-21.9V-1.751h-5v-9.588h-1.989Zm7.769-5.661A5.625,5.625,0,0,0-15.326.2a5.625,5.625,0,0,0,5.8-5.865,5.625,5.625,0,0,0-5.8-5.865A5.625,5.625,0,0,0-21.123-5.661Zm9.554,0a3.775,3.775,0,0,1-3.757,4.1c-2.295,0-3.757-1.768-3.757-4.1,0-2.346,1.462-4.1,3.757-4.1C-13.048-9.758-11.569-8.007-11.569-5.661ZM-5.33,0h1.989V-9.588H.093v-1.751H-8.764v1.751H-5.33ZM9.665,0h1.989V-11.339H9.665V-6.7h-5.9v-4.641H1.776V0H3.766V-4.947h5.9Zm4.4,0h1.989V-11.339H14.068ZM26.375,0H28.3V-11.339H26.307V-3.3l-5.8-8.041h-2.04V0h1.989V-8.262ZM30.2-5.661A5.733,5.733,0,0,0,36.151.221a6.151,6.151,0,0,0,4.675-2.057v-4.25H35.454v1.751h3.383v1.768a4.158,4.158,0,0,1-2.686,1.02,3.9,3.9,0,0,1-3.91-4.114,3.884,3.884,0,0,1,3.91-4.1,3.61,3.61,0,0,1,2.941,1.513l1.632-.918a5.331,5.331,0,0,0-4.573-2.363A5.719,5.719,0,0,0,30.2-5.661Z" transform="translate(338 498)" fill="#2c4359"/>
    <path id="Path_632" data-name="Path 632" d="M-44.906,0h1.989V-4.9h5.661V-6.647h-5.661V-9.588h5.78v-1.751h-7.769Zm9.044-5.661A5.625,5.625,0,0,0-30.065.2a5.625,5.625,0,0,0,5.8-5.865,5.625,5.625,0,0,0-5.8-5.865A5.625,5.625,0,0,0-35.862-5.661Zm9.554,0a3.775,3.775,0,0,1-3.757,4.1c-2.295,0-3.757-1.768-3.757-4.1,0-2.346,1.462-4.1,3.757-4.1C-27.787-9.758-26.308-8.007-26.308-5.661Zm3.451,0A5.625,5.625,0,0,0-17.06.2a5.625,5.625,0,0,0,5.8-5.865,5.625,5.625,0,0,0-5.8-5.865A5.625,5.625,0,0,0-22.857-5.661Zm9.554,0a3.775,3.775,0,0,1-3.757,4.1c-2.295,0-3.757-1.768-3.757-4.1,0-2.346,1.462-4.1,3.757-4.1C-14.782-9.758-13.3-8.007-13.3-5.661ZM-7.064,0h1.989V-9.588h3.434v-1.751H-10.5v1.751h3.434ZM8.712,0h2.125l3.23-11.339H11.84L9.647-2.6,7.3-11.339H5.72L3.374-2.6l-2.21-8.738H-1.063L2.184,0H4.309L6.5-8.364Zm6.681,0h7.769V-1.751h-5.78V-4.9h5.661V-6.647H17.382V-9.588h5.78v-1.751H15.394ZM33.227,0H35.4L30.949-11.339H28.467L24.013,0h2.176l.833-2.176h5.372ZM29.708-9.656l2.125,5.729h-4.25ZM43.121,0h2.295L42.645-4.454a3.18,3.18,0,0,0,2.686-3.332,3.442,3.442,0,0,0-3.706-3.553H36.644V0h1.989V-4.233H40.6Zm.17-7.786a1.788,1.788,0,0,1-1.938,1.8h-2.72v-3.6h2.72A1.788,1.788,0,0,1,43.291-7.786Z" transform="translate(338 720)" fill="#2c4359"/>
  </g>
</svg>
