<svg xmlns="http://www.w3.org/2000/svg" xmlns:xlink="http://www.w3.org/1999/xlink" width="1280" height="800" viewBox="0 0 1280 800">
  <defs>
    <clipPath id="clip-_2020-03-25-hard-skills-vs-soft-skills01">
      <rect width="1280" height="800"/>
    </clipPath>
  </defs>
  <g id="_2020-03-25-hard-skills-vs-soft-skills01" data-name="2020-03-25-hard-skills-vs-soft-skills01" clip-path="url(#clip-_2020-03-25-hard-skills-vs-soft-skills01)">
    <rect width="1280" height="800" fill="#fff"/>
    <g id="Group_67" data-name="Group 67">
      <path id="Path_190" data-name="Path 190" d="M-60,0H640V800H60Z" transform="translate(640)" fill="#740bd3"/>
      <path id="Path_191" data-name="Path 191" d="M0,0H580L700,800H0Z" fill="#f11e62"/>
    </g>
    <g id="Group_66" data-name="Group 66" transform="translate(1106.759 761.022)" style="mix-blend-mode: luminosity;isolation: isolate">
      <g id="nav__logo__e_1_">
        <path id="Path_137" data-name="Path 137" d="M23.4,31.656h5.465a1.06,1.06,0,0,0,1.063-1.012V26.9A20.1,20.1,0,0,1,23.4,31.656Z" transform="translate(-11.56 -13.289)" fill="#fff"/>
        <path id="Path_138" data-name="Path 138" d="M13,9.794c-.051-.961-.759-1.569-2.277-1.417-2.985.2-5.262,3.592-5.92,7.084C11.276,14.955,13.047,11.008,13,9.794Z" transform="translate(-2.371 -4.127)" fill="#fff"/>
        <path id="Path_139" data-name="Path 139" d="M10.069,2.176c3.086-.2,4.5,1.012,4.6,2.53.253,3.339-5.212,7.286-12.4,7.893h-.1a5.6,5.6,0,0,0,.2,2.783C2.884,16.7,4.2,17.2,5.718,17.2,12.4,17.2,17.3,9.816,18.367,6.476V1.012A1.027,1.027,0,0,0,17.3,0H1.012A1.015,1.015,0,0,0,0,1.012V8.5C2.631,5.161,6.679,2.429,10.069,2.176Z" fill="#fff"/>
      </g>
      <g id="nav__logo__edgepoint_1_" transform="translate(28.537 3.896)">
        <path id="Path_140" data-name="Path 140" d="M59.638,18.82a2.665,2.665,0,0,0,2.075-.911l.607.506a3.494,3.494,0,0,1-2.682,1.265A3.235,3.235,0,0,1,56.4,16.29a3.214,3.214,0,0,1,3.137-3.39c1.923,0,3.036,1.569,3.036,3.441v.3H57.361A2.241,2.241,0,0,0,59.638,18.82Zm1.872-2.935a2.185,2.185,0,0,0-2.075-2.226,2.3,2.3,0,0,0-2.125,2.226Z" transform="translate(-56.4 -10.269)" fill="#fff"/>
        <path id="Path_141" data-name="Path 141" d="M76.716,16.959V15.644a2.871,2.871,0,0,1-2.479,1.467,3.215,3.215,0,0,1-3.137-3.39,3.215,3.215,0,0,1,3.137-3.39,2.87,2.87,0,0,1,2.479,1.417V7.7h.961v9.259Zm-2.327-5.819a2.307,2.307,0,0,0-2.277,2.53,2.336,2.336,0,0,0,2.277,2.53,2.444,2.444,0,0,0,2.378-2.53A2.444,2.444,0,0,0,74.389,11.141Z" transform="translate(-63.662 -7.7)" fill="#fff"/>
        <path id="Path_142" data-name="Path 142" d="M91.038,21.552a5.082,5.082,0,0,1-2.985-.911l.455-.759a4.428,4.428,0,0,0,2.53.81,2.167,2.167,0,0,0,2.378-2.327v-.759a3.119,3.119,0,0,1-2.58,1.417A2.979,2.979,0,0,1,87.8,15.986,3.021,3.021,0,0,1,90.836,12.9a3.169,3.169,0,0,1,2.58,1.316V13.052h.961v5.363A3,3,0,0,1,91.038,21.552Zm-.051-7.843a2.137,2.137,0,0,0-2.277,2.226,2.193,2.193,0,0,0,2.277,2.226,2.293,2.293,0,0,0,2.429-2.226A2.322,2.322,0,0,0,90.988,13.71Z" transform="translate(-71.912 -10.269)" fill="#fff"/>
        <path id="Path_143" data-name="Path 143" d="M107.538,18.82a2.665,2.665,0,0,0,2.075-.911l.607.506a3.494,3.494,0,0,1-2.682,1.265,3.235,3.235,0,0,1-3.238-3.39,3.214,3.214,0,0,1,3.137-3.39c1.923,0,3.036,1.569,3.036,3.441v.3h-5.161A2.168,2.168,0,0,0,107.538,18.82Zm1.872-2.935a2.185,2.185,0,0,0-2.075-2.226,2.3,2.3,0,0,0-2.125,2.226Z" transform="translate(-80.064 -10.269)" fill="#fff"/>
        <path id="Path_144" data-name="Path 144" d="M123.241,19.581a2.87,2.87,0,0,1-2.479-1.417v3.289H119.8V12.9h.961v1.265a2.871,2.871,0,0,1,2.479-1.467,3.215,3.215,0,0,1,3.137,3.39A3.277,3.277,0,0,1,123.241,19.581Zm-.2-5.971a2.444,2.444,0,0,0-2.378,2.53,2.383,2.383,0,0,0,2.378,2.53,2.307,2.307,0,0,0,2.277-2.53A2.28,2.28,0,0,0,123.038,13.611Z" transform="translate(-87.721 -10.17)" fill="#fff"/>
        <path id="Path_145" data-name="Path 145" d="M138.89,19.631a3.358,3.358,0,0,1-3.39-3.39,3.4,3.4,0,0,1,3.39-3.441,3.358,3.358,0,0,1,3.39,3.39A3.4,3.4,0,0,1,138.89,19.631Zm0-5.971a2.382,2.382,0,0,0-2.378,2.53,2.465,2.465,0,0,0,2.429,2.58,2.422,2.422,0,0,0,2.429-2.53,2.539,2.539,0,0,0-2.479-2.58Z" transform="translate(-95.477 -10.22)" fill="#fff"/>
        <path id="Path_146" data-name="Path 146" d="M152.4,9.263V8.2h1.113V9.263Zm.1,7.944V10.679h.961v6.527Z" transform="translate(-103.826 -7.947)" fill="#fff"/>
        <path id="Path_147" data-name="Path 147" d="M159.961,19.479H159V12.952h.961v1.113a2.432,2.432,0,0,1,2.226-1.265,2.365,2.365,0,0,1,2.479,2.58v4.048h-.961V15.633a1.746,1.746,0,0,0-1.822-1.973,1.927,1.927,0,0,0-1.973,2.024l.051,3.795Z" transform="translate(-107.087 -10.22)" fill="#fff"/>
        <path id="Path_148" data-name="Path 148" d="M175.121,15.828a.989.989,0,0,0,1.113,1.113,2.193,2.193,0,0,0,.961-.2v.81a2.195,2.195,0,0,1-1.164.253,1.629,1.629,0,0,1-1.822-1.822V12.033H173.3v-.911h.911V9.2h.961v1.923h2.074v.86h-2.074v3.845Z" transform="translate(-114.151 -8.441)" fill="#fff"/>
      </g>
      <g id="nav__logo__learning_1_" transform="translate(97.147 3.896)">
        <path id="Path_149" data-name="Path 149" d="M192,16.959V7.7h.961v9.259Z" transform="translate(-192 -7.7)" fill="#fff"/>
        <path id="Path_150" data-name="Path 150" d="M201.038,18.82a2.666,2.666,0,0,0,2.075-.911l.607.506a3.494,3.494,0,0,1-2.682,1.265,3.235,3.235,0,0,1-3.238-3.39,3.214,3.214,0,0,1,3.137-3.39c1.923,0,3.036,1.569,3.036,3.441v.3h-5.161a2.168,2.168,0,0,0,2.226,2.176Zm1.872-2.935a2.185,2.185,0,0,0-2.074-2.226,2.3,2.3,0,0,0-2.125,2.226Z" transform="translate(-194.865 -10.269)" fill="#fff"/>
        <path id="Path_151" data-name="Path 151" d="M213.011,14.316l-.3-.81A5,5,0,0,1,215.085,13c1.771,0,2.783.911,2.783,2.631v4h-.961v-.961a2.833,2.833,0,0,1-2.378,1.113,2.166,2.166,0,0,1-2.429-2.024c0-1.417,1.113-2.125,2.783-2.125a7.2,7.2,0,0,1,1.973.253v-.2c0-1.164-.708-1.771-1.973-1.771a3.24,3.24,0,0,0-1.872.4Zm.152,3.289c0,.81.759,1.316,1.67,1.316a1.941,1.941,0,0,0,2.176-1.771v-.658a6.553,6.553,0,0,0-1.923-.253c-1.214,0-1.923.557-1.923,1.366Z" transform="translate(-201.93 -10.318)" fill="#fff"/>
        <path id="Path_152" data-name="Path 152" d="M228.661,19.477H227.7V12.949h.961v1.67a2.782,2.782,0,0,1,2.682-1.822V13.81h-.051c-1.417,0-2.58,1.012-2.58,2.985v2.682Z" transform="translate(-209.637 -10.217)" fill="#fff"/>
        <path id="Path_153" data-name="Path 153" d="M238.761,19.479H237.8V12.952h.961v1.113a2.432,2.432,0,0,1,2.226-1.265,2.365,2.365,0,0,1,2.479,2.58v4.048h-.961V15.633a1.746,1.746,0,0,0-1.822-1.973,1.927,1.927,0,0,0-1.973,2.024v3.795Z" transform="translate(-214.626 -10.22)" fill="#fff"/>
        <path id="Path_154" data-name="Path 154" d="M253.1,9.263V8.2h1.113V9.263Zm.1,7.944V10.679h.961v6.527Z" transform="translate(-222.185 -7.947)" fill="#fff"/>
        <path id="Path_155" data-name="Path 155" d="M260.661,19.479H259.7V12.952h.961v1.113a2.432,2.432,0,0,1,2.226-1.265,2.365,2.365,0,0,1,2.479,2.58v4.048h-.961V15.633a1.746,1.746,0,0,0-1.822-1.973,1.927,1.927,0,0,0-1.973,2.024l.051,3.795Z" transform="translate(-225.445 -10.22)" fill="#fff"/>
        <path id="Path_156" data-name="Path 156" d="M277.638,21.552a5.082,5.082,0,0,1-2.985-.911l.455-.759a4.428,4.428,0,0,0,2.53.81,2.167,2.167,0,0,0,2.378-2.327v-.759a3.119,3.119,0,0,1-2.581,1.417,2.979,2.979,0,0,1-3.036-3.036,3.021,3.021,0,0,1,3.036-3.086,3.1,3.1,0,0,1,2.581,1.316V13.052h.961v5.363a3,3,0,0,1-3.339,3.137Zm-.051-7.843a2.137,2.137,0,0,0-2.277,2.226,2.193,2.193,0,0,0,2.277,2.226,2.293,2.293,0,0,0,2.429-2.226A2.322,2.322,0,0,0,277.588,13.71Z" transform="translate(-232.708 -10.269)" fill="#fff"/>
      </g>
    </g>
    <g id="Group_64" data-name="Group 64" transform="translate(678.977 -47.38)">
      <path id="Path_173" data-name="Path 173" d="M300.934,157.554l-16.686,11.625L264.391,142.4" transform="translate(42.451 10.803)" fill="none" stroke="#fff" stroke-linecap="round" stroke-linejoin="round" stroke-width="1.8"/>
      <path id="Path_174" data-name="Path 174" d="M284.472,143.947l-19.583-3.1a8.523,8.523,0,0,0-5.354.9l-11.229,5.983a8.542,8.542,0,0,0-4.243,5.366s-.467,3.831-1.007,8.186.612,5.424,4.212,6.194h0c3.808.815,7.679-1.6,9.942-9.15l.437-1.446s10.457,2.727,16.2,1.469" transform="translate(22.37 9.177)" fill="none" stroke="#fff" stroke-linecap="round" stroke-linejoin="round" stroke-width="1.8"/>
      <line id="Line_1" data-name="Line 1" x1="10.847" y2="6.774" transform="translate(315.852 180.303)" fill="none" stroke="#fff" stroke-linecap="round" stroke-linejoin="round" stroke-width="1.8"/>
      <path id="Path_175" data-name="Path 175" d="M235.713,160.253l-1.727,2.114a4.667,4.667,0,0,0,.718,6.61h0a4.668,4.668,0,0,0,6.514-.708l1.727-2.116a4.666,4.666,0,0,0-.718-6.608h0A4.664,4.664,0,0,0,235.713,160.253Z" transform="translate(13.017 26.362)" fill="none" stroke="#fff" stroke-linecap="round" stroke-linejoin="round" stroke-width="1.8"/>
      <path id="Path_176" data-name="Path 176" d="M240.653,162.512l-2.886,3.536a4.667,4.667,0,0,0,.718,6.61h0a4.666,4.666,0,0,0,6.514-.708l2.888-3.538a4.668,4.668,0,0,0-.718-6.608h0A4.668,4.668,0,0,0,240.653,162.512Z" transform="translate(16.554 28.78)" fill="none" stroke="#fff" stroke-linecap="round" stroke-linejoin="round" stroke-width="1.8"/>
      <path id="Path_177" data-name="Path 177" d="M244.432,165.507l-2.886,3.538a4.667,4.667,0,0,0,.718,6.608h0a4.667,4.667,0,0,0,6.516-.708l2.886-3.537a4.669,4.669,0,0,0-.718-6.61h0A4.67,4.67,0,0,0,244.432,165.507Z" transform="translate(20.092 31.583)" fill="none" stroke="#fff" stroke-linecap="round" stroke-linejoin="round" stroke-width="1.8"/>
      <path id="Path_178" data-name="Path 178" d="M248.347,168.252l-2.741,3.358a4.667,4.667,0,0,0,.718,6.61h0a4.668,4.668,0,0,0,6.514-.708l2.741-3.358a4.667,4.667,0,0,0-.718-6.61h0A4.668,4.668,0,0,0,248.347,168.252Z" transform="translate(23.89 34.151)" fill="none" stroke="#fff" stroke-linecap="round" stroke-linejoin="round" stroke-width="1.8"/>
      <line id="Line_2" data-name="Line 2" x1="18.902" y1="1.636" transform="translate(255.565 153.041)" fill="none" stroke="#fff" stroke-linecap="round" stroke-linejoin="round" stroke-width="1.8"/>
      <path id="Path_179" data-name="Path 179" d="M219.023,167.407l16.685,11.625,19.857-26.784-29.256-20.383" transform="translate(0 0.454)" fill="none" stroke="#fff" stroke-linecap="round" stroke-linejoin="round" stroke-width="1.8"/>
      <path id="Path_180" data-name="Path 180" d="M251.137,174.076l2.923,2.609a4.666,4.666,0,0,0,6.659-.565h0a4.665,4.665,0,0,0-.552-6.492l-5.329-4.609" transform="translate(30.049 32.733)" fill="none" stroke="#fff" stroke-linecap="round" stroke-linejoin="round" stroke-width="1.8"/>
      <path id="Path_181" data-name="Path 181" d="M253.049,168.506l7.425,6.423a4.665,4.665,0,0,0,6.659-.567h0a4.665,4.665,0,0,0-.552-6.49l-7.605-6.579" transform="translate(31.838 29.245)" fill="none" stroke="#fff" stroke-linecap="round" stroke-linejoin="round" stroke-width="1.8"/>
      <path id="Path_182" data-name="Path 182" d="M256.111,164.778l10.584,9.158a4.669,4.669,0,0,0,6.659-.567h0a4.667,4.667,0,0,0-.554-6.492l-10.763-9.311" transform="translate(34.704 25.509)" fill="none" stroke="#fff" stroke-linecap="round" stroke-linejoin="round" stroke-width="1.8"/>
      <path id="Path_183" data-name="Path 183" d="M261.548,164.434l13,11.25a4.667,4.667,0,0,0,6.659-.567h0a4.668,4.668,0,0,0-.554-6.492l-24.022-18.4" transform="translate(35.194 18.481)" fill="none" stroke="#fff" stroke-linecap="round" stroke-linejoin="round" stroke-width="1.8"/>
      <line id="Line_3" data-name="Line 3" x2="12.125" y2="6.774" transform="translate(235.708 180.303)" fill="none" stroke="#fff" stroke-linecap="round" stroke-linejoin="round" stroke-width="1.8"/>
      <line id="Line_4" data-name="Line 4" y1="21.322" x2="30.604" transform="translate(306.841 131.38)" fill="none" stroke="#fff" stroke-linecap="round" stroke-linejoin="round" stroke-width="1.8"/>
    </g>
    <g id="Group_65" data-name="Group 65" transform="translate(147.053 -48.223)">
      <path id="Path_184" data-name="Path 184" d="M180.232,187.286l-34.495-34.495-6.087-2.029-8.116-12.175,6.087-6.087,12.175,8.116,2.029,6.087L186.319,181.2" transform="translate(0.603 1.314)" fill="none" stroke="#fff" stroke-miterlimit="10" stroke-width="2"/>
      <path id="Path_185" data-name="Path 185" d="M178.882,187.788,162.65,171.555c-.01-.012-6.087,0-6.087,0s-2.049-4.578-2.029-4.6l11.284-11.284c.02-.02,4.949,1.678,4.949,1.678s-.012,6.075,0,6.087L187,179.671a5.738,5.738,0,0,1,0,8.116h0A5.738,5.738,0,0,1,178.882,187.788Z" transform="translate(24.272 25.161)" fill="none" stroke="#fff" stroke-miterlimit="10" stroke-width="2"/>
      <line id="Line_5" data-name="Line 5" y1="2.87" x2="2.87" transform="translate(137.035 206.385)" fill="none" stroke="#fff" stroke-linejoin="round" stroke-width="2"/>
      <path id="Path_186" data-name="Path 186" d="M160.893,172.044l9.31-9.307a2.066,2.066,0,0,1,2.161-.459c5.566,1.934,11.5,1.142,15.987-3.344a16.213,16.213,0,0,0,4.5-14.354,2.035,2.035,0,0,0-3.439-1.049l-6.8,6.8a2.031,2.031,0,0,1-2.869,0l-5.74-5.74a2.027,2.027,0,0,1,0-2.869l6.8-6.8a2.035,2.035,0,0,0-1.051-3.439,16.216,16.216,0,0,0-14.354,4.5c-4.484,4.486-5.276,10.421-3.342,15.989a2.074,2.074,0,0,1-.459,2.161l-9.308,9.308" transform="translate(21.96)" fill="none" stroke="#fff" stroke-linejoin="round" stroke-width="2"/>
      <path id="Path_187" data-name="Path 187" d="M161.522,153.369,132.731,182.16a6.088,6.088,0,1,0,8.609,8.609l28.62-28.622" transform="translate(0 22.79)" fill="none" stroke="#fff" stroke-linejoin="round" stroke-width="2"/>
    </g>
    <path id="Path_195" data-name="Path 195" d="M28.89,0h6.318V-36.018H28.89v14.742H10.152V-36.018H3.834V0h6.318V-15.714H28.89ZM58.644,0h5.67V-17.28c0-7.02-5.076-9.45-10.854-9.45A15.51,15.51,0,0,0,42.5-22.518l2.322,3.942a10.68,10.68,0,0,1,7.722-3.294c3.618,0,6.1,1.836,6.1,4.86v3.888c-1.89-2.214-4.914-3.348-8.424-3.348-4.266,0-9.072,2.484-9.072,8.478,0,5.778,4.806,8.64,9.072,8.64a11.011,11.011,0,0,0,8.424-3.456Zm0-5.94a7.635,7.635,0,0,1-6.21,2.7c-3.186,0-5.562-1.836-5.562-4.644,0-2.862,2.376-4.7,5.562-4.7a7.635,7.635,0,0,1,6.21,2.7ZM71.658,0h5.67V-17.766c1.134-1.836,4.32-3.456,6.7-3.456a8.358,8.358,0,0,1,1.782.162v-5.616a11.139,11.139,0,0,0-8.478,4.428v-3.834h-5.67Zm37.1,0h5.67V-36.018h-5.67v13.554a10.463,10.463,0,0,0-8.37-4.266c-6.75,0-11.61,5.292-11.61,13.716,0,8.586,4.914,13.662,11.61,13.662a10.563,10.563,0,0,0,8.37-4.212Zm0-7.83a8.522,8.522,0,0,1-6.75,3.456c-4.482,0-7.344-3.618-7.344-8.64,0-5.076,2.862-8.694,7.344-8.694a8.569,8.569,0,0,1,6.75,3.51Zm24.732,2.754c3.186,3.4,7.992,5.724,14.634,5.724,9.72,0,13.932-5.13,13.932-11.124,0-7.83-7.074-9.666-13.014-11.178-4.266-1.08-7.938-2-7.938-4.806,0-2.7,2.376-4.482,6.1-4.482a14.642,14.642,0,0,1,10.422,4.1l3.618-4.7c-3.348-3.24-7.884-5.022-13.5-5.022-7.884,0-13.122,4.59-13.122,10.53,0,7.614,6.912,9.342,12.8,10.8,4.374,1.134,8.208,2.106,8.208,5.346,0,2.376-2.052,4.914-7.236,4.914A15.536,15.536,0,0,1,137-9.936ZM185,0h7.128l-11.07-14.256,10.854-11.826H184.9L173.394-13.5V-36.018h-5.67V0h5.67V-7.02l3.618-3.726Zm13.932-30.078a3.5,3.5,0,0,0,3.51-3.51,3.5,3.5,0,0,0-3.51-3.51,3.538,3.538,0,0,0-3.51,3.51A3.538,3.538,0,0,0,198.936-30.078ZM196.128,0h5.67V-26.082h-5.67Zm13.014,0h5.67V-36.018h-5.67Zm13.014,0h5.67V-36.018h-5.67ZM232.9-3.4A15.863,15.863,0,0,0,244.08.648c7.02,0,10.854-3.51,10.854-8.1,0-6.156-5.562-7.452-10.1-8.424-3.078-.7-5.67-1.4-5.67-3.4,0-1.836,1.89-2.916,4.86-2.916a10.518,10.518,0,0,1,7.722,3.132l2.376-4a14.911,14.911,0,0,0-10.152-3.672c-6.588,0-10.26,3.672-10.26,7.938,0,5.832,5.346,7.02,9.828,7.992,3.186.7,5.94,1.512,5.94,3.78,0,1.944-1.728,3.186-5.13,3.186a13.462,13.462,0,0,1-8.856-3.672Z" transform="translate(192 279)" fill="#fff"/>
    <path id="Path_196" data-name="Path 196" d="M-116.37-5.076c3.186,3.4,7.992,5.724,14.634,5.724,9.72,0,13.932-5.13,13.932-11.124,0-7.83-7.074-9.666-13.014-11.178-4.266-1.08-7.938-2-7.938-4.806,0-2.7,2.376-4.482,6.1-4.482a14.642,14.642,0,0,1,10.422,4.1l3.618-4.7c-3.348-3.24-7.884-5.022-13.5-5.022-7.884,0-13.122,4.59-13.122,10.53,0,7.614,6.912,9.342,12.8,10.8,4.374,1.134,8.208,2.106,8.208,5.346,0,2.376-2.052,4.914-7.236,4.914A15.536,15.536,0,0,1-112.86-9.936ZM-70.362.648c8.37,0,13.446-6.21,13.446-13.716,0-7.452-5.076-13.662-13.446-13.662-8.262,0-13.392,6.21-13.392,13.662C-83.754-5.562-78.624.648-70.362.648Zm0-5.022c-4.806,0-7.506-4.05-7.506-8.694,0-4.59,2.7-8.64,7.506-8.64,4.86,0,7.56,4.05,7.56,8.64C-62.8-8.424-65.5-4.374-70.362-4.374ZM-49.842,0h5.67V-21.114h5.292v-4.968h-5.292V-27.54c0-2.916,1.4-4.374,3.618-4.374a4.545,4.545,0,0,1,2.268.54l1.242-4.158a9.392,9.392,0,0,0-4.536-1.026c-4.806,0-8.262,3.186-8.262,9.018v1.458h-4.32v4.968h4.32ZM-26.73.648c2.646,0,4.32-.7,5.346-1.674l-1.35-4.266a3.66,3.66,0,0,1-2.538.918c-1.62,0-2.484-1.3-2.484-3.078V-21.114h5.292v-4.968h-5.292V-33.21h-5.67v7.128h-4.32v4.968h4.32V-6.048C-33.426-1.728-31.1.648-26.73.648ZM-5.616-5.076C-2.43-1.674,2.376.648,9.018.648c9.72,0,13.932-5.13,13.932-11.124,0-7.83-7.074-9.666-13.014-11.178C5.67-22.734,2-23.652,2-26.46c0-2.7,2.376-4.482,6.1-4.482a14.642,14.642,0,0,1,10.422,4.1l3.618-4.7c-3.348-3.24-7.884-5.022-13.5-5.022-7.884,0-13.122,4.59-13.122,10.53,0,7.614,6.912,9.342,12.8,10.8,4.374,1.134,8.208,2.106,8.208,5.346,0,2.376-2.052,4.914-7.236,4.914A15.536,15.536,0,0,1-2.106-9.936ZM45.9,0h7.128L41.958-14.256,52.812-26.082h-7.02L34.29-13.5V-36.018H28.62V0h5.67V-7.02l3.618-3.726ZM59.832-30.078a3.5,3.5,0,0,0,3.51-3.51,3.5,3.5,0,0,0-3.51-3.51,3.538,3.538,0,0,0-3.51,3.51A3.538,3.538,0,0,0,59.832-30.078ZM57.024,0h5.67V-26.082h-5.67ZM70.038,0h5.67V-36.018h-5.67ZM83.052,0h5.67V-36.018h-5.67ZM93.8-3.4A15.863,15.863,0,0,0,104.976.648c7.02,0,10.854-3.51,10.854-8.1,0-6.156-5.562-7.452-10.1-8.424-3.078-.7-5.67-1.4-5.67-3.4,0-1.836,1.89-2.916,4.86-2.916a10.518,10.518,0,0,1,7.722,3.132l2.376-4a14.911,14.911,0,0,0-10.152-3.672c-6.588,0-10.26,3.672-10.26,7.938,0,5.832,5.346,7.02,9.828,7.992,3.186.7,5.94,1.512,5.94,3.78,0,1.944-1.728,3.186-5.13,3.186A13.462,13.462,0,0,1,96.39-7.506Z" transform="translate(960 279)" fill="#fff"/>
    <path id="Path_194" data-name="Path 194" d="M7.2,31.84a4.54,4.54,0,1,0-4.56-4.52A4.55,4.55,0,0,0,7.2,31.84ZM50.48,37h4.68V10.32h-6.6L41.28,28.28,34.04,10.32h-6.6V37h4.68V16.8L40.28,37h2l8.2-20.2Zm9.04-9.68A9.712,9.712,0,0,0,69.64,37.48a11.262,11.262,0,0,0,7.84-2.8l-1.92-2.76a8.177,8.177,0,0,1-5.48,2.12,5.852,5.852,0,0,1-6.16-5.32H78.84v-1c0-6.08-3.72-10.52-9.52-10.52A9.765,9.765,0,0,0,59.52,27.32Zm9.8-6.68a5.168,5.168,0,0,1,5.44,5.12H63.88A5.329,5.329,0,0,1,69.32,20.64ZM94.8,37H99V24.2c0-5.2-3.76-7-8.04-7a11.489,11.489,0,0,0-8.12,3.12l1.72,2.92a7.911,7.911,0,0,1,5.72-2.44c2.68,0,4.52,1.36,4.52,3.6v2.88a7.986,7.986,0,0,0-6.24-2.48c-3.16,0-6.72,1.84-6.72,6.28,0,4.28,3.56,6.4,6.72,6.4a8.156,8.156,0,0,0,6.24-2.56Zm0-4.4a5.656,5.656,0,0,1-4.6,2c-2.36,0-4.12-1.36-4.12-3.44,0-2.12,1.76-3.48,4.12-3.48a5.656,5.656,0,0,1,4.6,2Zm7.96,1.88a11.75,11.75,0,0,0,8.28,3c5.2,0,8.04-2.6,8.04-6,0-4.56-4.12-5.52-7.48-6.24-2.28-.52-4.2-1.04-4.2-2.52,0-1.36,1.4-2.16,3.6-2.16a7.791,7.791,0,0,1,5.72,2.32l1.76-2.96a11.045,11.045,0,0,0-7.52-2.72c-4.88,0-7.6,2.72-7.6,5.88,0,4.32,3.96,5.2,7.28,5.92,2.36.52,4.4,1.12,4.4,2.8,0,1.44-1.28,2.36-3.8,2.36a9.972,9.972,0,0,1-6.56-2.72ZM136.36,37h4.2V17.68h-4.2V31.24a6.426,6.426,0,0,1-4.96,2.52c-2.36,0-3.88-.92-3.88-3.92V17.68h-4.2V31.36c0,3.96,2.04,6.12,6.2,6.12a9.26,9.26,0,0,0,6.84-3.04ZM146,37h4.2V23.84a6.671,6.671,0,0,1,4.96-2.56,6.191,6.191,0,0,1,1.32.12V17.24a8.251,8.251,0,0,0-6.28,3.28V17.68H146Zm25.68,0h4.2V24.2c0-5.2-3.76-7-8.04-7a11.489,11.489,0,0,0-8.12,3.12l1.72,2.92a7.911,7.911,0,0,1,5.72-2.44c2.68,0,4.52,1.36,4.52,3.6v2.88a7.986,7.986,0,0,0-6.24-2.48c-3.16,0-6.72,1.84-6.72,6.28,0,4.28,3.56,6.4,6.72,6.4a8.156,8.156,0,0,0,6.24-2.56Zm0-4.4a5.656,5.656,0,0,1-4.6,2c-2.36,0-4.12-1.36-4.12-3.44,0-2.12,1.76-3.48,4.12-3.48a5.656,5.656,0,0,1,4.6,2Zm9.64,4.4h4.2V34.36a7.766,7.766,0,0,0,6.2,3.12c4.92,0,8.56-3.76,8.56-10.12,0-6.24-3.6-10.16-8.56-10.16a7.64,7.64,0,0,0-6.2,3.16V10.32h-4.2Zm4.2-5.8V23.56a6.3,6.3,0,0,1,4.96-2.64c3.36,0,5.48,2.68,5.48,6.44s-2.12,6.4-5.48,6.4A6.235,6.235,0,0,1,185.52,31.2ZM204.56,37h4.2V10.32h-4.2ZM213,27.32a9.712,9.712,0,0,0,10.12,10.16,11.262,11.262,0,0,0,7.84-2.8l-1.92-2.76a8.177,8.177,0,0,1-5.48,2.12,5.852,5.852,0,0,1-6.16-5.32h14.92v-1c0-6.08-3.72-10.52-9.52-10.52A9.765,9.765,0,0,0,213,27.32Zm9.8-6.68a5.168,5.168,0,0,1,5.44,5.12H217.36A5.329,5.329,0,0,1,222.8,20.64ZM7.2,86.84a4.54,4.54,0,1,0-4.56-4.52A4.55,4.55,0,0,0,7.2,86.84ZM27.44,92H45.72V87.88H32.12v-7.4H45.44V76.36H32.12V69.44h13.6V65.32H27.44ZM62.2,92h4.2V79.2c0-5.2-3.76-7-8.04-7a11.489,11.489,0,0,0-8.12,3.12l1.72,2.92a7.911,7.911,0,0,1,5.72-2.44c2.68,0,4.52,1.36,4.52,3.6v2.88a7.986,7.986,0,0,0-6.24-2.48c-3.16,0-6.72,1.84-6.72,6.28,0,4.28,3.56,6.4,6.72,6.4a8.156,8.156,0,0,0,6.24-2.56Zm0-4.4a5.655,5.655,0,0,1-4.6,2c-2.36,0-4.12-1.36-4.12-3.44,0-2.12,1.76-3.48,4.12-3.48a5.655,5.655,0,0,1,4.6,2Zm7.96,1.88a11.75,11.75,0,0,0,8.28,3c5.2,0,8.04-2.6,8.04-6,0-4.56-4.12-5.52-7.48-6.24-2.28-.52-4.2-1.04-4.2-2.52,0-1.36,1.4-2.16,3.6-2.16a7.791,7.791,0,0,1,5.72,2.32l1.76-2.96a11.045,11.045,0,0,0-7.52-2.72c-4.88,0-7.6,2.72-7.6,5.88,0,4.32,3.96,5.2,7.28,5.92,2.36.52,4.4,1.12,4.4,2.8,0,1.44-1.28,2.36-3.8,2.36a9.972,9.972,0,0,1-6.56-2.72ZM92.8,69.72a2.6,2.6,0,1,0-2.6-2.6A2.595,2.595,0,0,0,92.8,69.72ZM90.72,92h4.2V72.68h-4.2Zm9.64,0h4.2V65.32h-4.2Zm9.44,3.8-.64,3.76a11.878,11.878,0,0,0,2.36.28c3-.04,5.32-1.08,6.64-4.36l9.32-22.8h-4.52l-5.64,14.48-5.64-14.48H107.2l7.92,19.56-.96,2.2a2.617,2.617,0,0,1-2.76,1.68A4.389,4.389,0,0,1,109.8,95.8ZM154,92h4.2V65.32H154V75.36a7.751,7.751,0,0,0-6.2-3.16c-5,0-8.6,3.92-8.6,10.16,0,6.36,3.64,10.12,8.6,10.12a7.824,7.824,0,0,0,6.2-3.12Zm0-5.8a6.313,6.313,0,0,1-5,2.56c-3.32,0-5.44-2.68-5.44-6.4,0-3.76,2.12-6.44,5.44-6.44a6.347,6.347,0,0,1,5,2.6Zm8.44-3.88a9.712,9.712,0,0,0,10.12,10.16,11.262,11.262,0,0,0,7.84-2.8l-1.92-2.76A8.177,8.177,0,0,1,173,89.04a5.852,5.852,0,0,1-6.16-5.32h14.92v-1c0-6.08-3.72-10.52-9.52-10.52A9.765,9.765,0,0,0,162.44,82.32Zm9.8-6.68a5.168,5.168,0,0,1,5.44,5.12H166.8A5.329,5.329,0,0,1,172.24,75.64Zm28.08-5.92a2.6,2.6,0,1,0-2.6-2.6A2.595,2.595,0,0,0,200.32,69.72ZM186.92,92h4.2V76.36h3.92V72.68h-3.92V71.6c0-2.16,1.04-3.24,2.68-3.24a2.894,2.894,0,0,1,1.68.44l.92-3.12a6.957,6.957,0,0,0-3.36-.76c-3.56,0-6.12,2.36-6.12,6.68v1.08h-3.2v3.68h3.2Zm11.32,0h4.2V72.68h-4.2Zm22.68,0h4.2V78.4c0-3.96-2.08-6.2-6.24-6.2a9.141,9.141,0,0,0-6.8,3.12V72.68h-4.2V92h4.2V78.52a6.36,6.36,0,0,1,4.96-2.6c2.36,0,3.88,1,3.88,4Zm8.44-9.68a9.712,9.712,0,0,0,10.12,10.16,11.262,11.262,0,0,0,7.84-2.8l-1.92-2.76a8.177,8.177,0,0,1-5.48,2.12,5.852,5.852,0,0,1-6.16-5.32h14.92v-1c0-6.08-3.72-10.52-9.52-10.52A9.765,9.765,0,0,0,229.36,82.32Zm9.8-6.68a5.168,5.168,0,0,1,5.44,5.12H233.72A5.329,5.329,0,0,1,239.16,75.64ZM266.44,92h4.2V65.32h-4.2V75.36a7.751,7.751,0,0,0-6.2-3.16c-5,0-8.6,3.92-8.6,10.16,0,6.36,3.64,10.12,8.6,10.12a7.824,7.824,0,0,0,6.2-3.12Zm0-5.8a6.313,6.313,0,0,1-5,2.56c-3.32,0-5.44-2.68-5.44-6.4,0-3.76,2.12-6.44,5.44-6.44a6.347,6.347,0,0,1,5,2.6ZM7.2,141.84a4.54,4.54,0,1,0-4.56-4.52A4.55,4.55,0,0,0,7.2,141.84Zm18.52,1.4c2.36,2.52,5.92,4.24,10.84,4.24,7.2,0,10.32-3.8,10.32-8.24,0-5.8-5.24-7.16-9.64-8.28-3.16-.8-5.88-1.48-5.88-3.56,0-2,1.76-3.32,4.52-3.32a10.846,10.846,0,0,1,7.72,3.04l2.68-3.48a13.883,13.883,0,0,0-10-3.72c-5.84,0-9.72,3.4-9.72,7.8,0,5.64,5.12,6.92,9.48,8,3.24.84,6.08,1.56,6.08,3.96,0,1.76-1.52,3.64-5.36,3.64a11.508,11.508,0,0,1-8.44-3.68Zm29.56,11.12V144.32a7.586,7.586,0,0,0,6.2,3.16c5,0,8.56-3.8,8.56-10.16s-3.56-10.12-8.56-10.12a7.709,7.709,0,0,0-6.2,3.12v-2.64h-4.2v26.68Zm10.4-17.04c0,3.76-2.12,6.44-5.44,6.44a6.384,6.384,0,0,1-4.96-2.6v-7.64a6.269,6.269,0,0,1,4.96-2.6C63.56,130.92,65.68,133.6,65.68,137.32Zm7.4,0A9.712,9.712,0,0,0,83.2,147.48a11.262,11.262,0,0,0,7.84-2.8l-1.92-2.76a8.177,8.177,0,0,1-5.48,2.12,5.852,5.852,0,0,1-6.16-5.32H92.4v-1c0-6.08-3.72-10.52-9.52-10.52A9.765,9.765,0,0,0,73.08,137.32Zm9.8-6.68a5.168,5.168,0,0,1,5.44,5.12H77.44A5.329,5.329,0,0,1,82.88,130.64Zm12.48,6.68c0,5.88,4.12,10.16,10,10.16a8.663,8.663,0,0,0,7.4-3.44L110,141.48a5.252,5.252,0,0,1-4.44,2.28c-3.52,0-5.84-2.68-5.84-6.44s2.32-6.4,5.84-6.4A5.157,5.157,0,0,1,110,133.2l2.76-2.56a8.663,8.663,0,0,0-7.4-3.44A9.7,9.7,0,0,0,95.36,137.32Zm23.16-12.6a2.6,2.6,0,1,0-2.6-2.6A2.595,2.595,0,0,0,118.52,124.72ZM116.44,147h4.2V127.68h-4.2Zm24.04-22.28a2.6,2.6,0,1,0-2.6-2.6A2.595,2.595,0,0,0,140.48,124.72ZM127.08,147h4.2V131.36h3.92v-3.68h-3.92V126.6c0-2.16,1.04-3.24,2.68-3.24a2.894,2.894,0,0,1,1.68.44l.92-3.12a6.957,6.957,0,0,0-3.36-.76c-3.56,0-6.12,2.36-6.12,6.68v1.08h-3.2v3.68h3.2Zm11.32,0h4.2V127.68h-4.2Zm8.44-9.68c0,5.88,4.12,10.16,10,10.16a8.663,8.663,0,0,0,7.4-3.44l-2.76-2.56a5.252,5.252,0,0,1-4.44,2.28c-3.52,0-5.84-2.68-5.84-6.44s2.32-6.4,5.84-6.4a5.157,5.157,0,0,1,4.44,2.28l2.76-2.56a8.663,8.663,0,0,0-7.4-3.44A9.7,9.7,0,0,0,146.84,137.32Z" transform="translate(146 330)" fill="#fff"/>
    <path id="Path_197" data-name="Path 197" d="M7.2,31.84a4.54,4.54,0,1,0-4.56-4.52A4.55,4.55,0,0,0,7.2,31.84ZM46,37h4.68V10.32H46V21.24H32.12V10.32H27.44V37h4.68V25.36H46Zm22.04,0h4.2V24.2c0-5.2-3.76-7-8.04-7a11.489,11.489,0,0,0-8.12,3.12l1.72,2.92a7.911,7.911,0,0,1,5.72-2.44c2.68,0,4.52,1.36,4.52,3.6v2.88A7.986,7.986,0,0,0,61.8,24.8c-3.16,0-6.72,1.84-6.72,6.28,0,4.28,3.56,6.4,6.72,6.4a8.156,8.156,0,0,0,6.24-2.56Zm0-4.4a5.655,5.655,0,0,1-4.6,2c-2.36,0-4.12-1.36-4.12-3.44,0-2.12,1.76-3.48,4.12-3.48a5.655,5.655,0,0,1,4.6,2ZM77.68,37h4.2V23.84a6.671,6.671,0,0,1,4.96-2.56,6.191,6.191,0,0,1,1.32.12V17.24a8.251,8.251,0,0,0-6.28,3.28V17.68h-4.2Zm27.48,0h4.2V10.32h-4.2V20.36a7.75,7.75,0,0,0-6.2-3.16c-5,0-8.6,3.92-8.6,10.16,0,6.36,3.64,10.12,8.6,10.12a7.824,7.824,0,0,0,6.2-3.12Zm0-5.8a6.313,6.313,0,0,1-5,2.56c-3.32,0-5.44-2.68-5.44-6.4,0-3.76,2.12-6.44,5.44-6.44a6.347,6.347,0,0,1,5,2.6Zm25.72,6.28a5.541,5.541,0,0,0,3.96-1.24l-1-3.16a2.711,2.711,0,0,1-1.88.68c-1.2,0-1.84-.96-1.84-2.28V21.36h3.92V17.68h-3.92V12.4h-4.2v5.28h-3.2v3.68h3.2V32.52C125.92,35.72,127.64,37.48,130.88,37.48Zm15.68,0c6.2,0,9.96-4.6,9.96-10.16,0-5.52-3.76-10.12-9.96-10.12-6.12,0-9.92,4.6-9.92,10.12C136.64,32.88,140.44,37.48,146.56,37.48Zm0-3.72c-3.56,0-5.56-3-5.56-6.44,0-3.4,2-6.4,5.56-6.4,3.6,0,5.6,3,5.6,6.4C152.16,30.76,150.16,33.76,146.56,33.76ZM194.72,37h4.2V23.04c0-3.92-2-5.84-5.56-5.84a8.194,8.194,0,0,0-6.56,3.56c-.64-2.12-2.4-3.56-5.28-3.56a8.344,8.344,0,0,0-6.28,3.12V17.68h-4.2V37h4.2V23.52a5.846,5.846,0,0,1,4.44-2.6c2.28,0,3.2,1.4,3.2,3.48V37h4.2V23.48a5.862,5.862,0,0,1,4.48-2.56c2.24,0,3.16,1.4,3.16,3.48Zm8.44-9.68a9.712,9.712,0,0,0,10.12,10.16,11.262,11.262,0,0,0,7.84-2.8l-1.92-2.76a8.177,8.177,0,0,1-5.48,2.12,5.852,5.852,0,0,1-6.16-5.32h14.92v-1c0-6.08-3.72-10.52-9.52-10.52A9.765,9.765,0,0,0,203.16,27.32Zm9.8-6.68a5.168,5.168,0,0,1,5.44,5.12H207.52A5.329,5.329,0,0,1,212.96,20.64ZM238.44,37h4.2V24.2c0-5.2-3.76-7-8.04-7a11.489,11.489,0,0,0-8.12,3.12l1.72,2.92a7.911,7.911,0,0,1,5.72-2.44c2.68,0,4.52,1.36,4.52,3.6v2.88a7.986,7.986,0,0,0-6.24-2.48c-3.16,0-6.72,1.84-6.72,6.28,0,4.28,3.56,6.4,6.72,6.4a8.156,8.156,0,0,0,6.24-2.56Zm0-4.4a5.656,5.656,0,0,1-4.6,2c-2.36,0-4.12-1.36-4.12-3.44,0-2.12,1.76-3.48,4.12-3.48a5.656,5.656,0,0,1,4.6,2Zm7.96,1.88a11.75,11.75,0,0,0,8.28,3c5.2,0,8.04-2.6,8.04-6,0-4.56-4.12-5.52-7.48-6.24-2.28-.52-4.2-1.04-4.2-2.52,0-1.36,1.4-2.16,3.6-2.16a7.791,7.791,0,0,1,5.72,2.32l1.76-2.96a11.045,11.045,0,0,0-7.52-2.72c-4.88,0-7.6,2.72-7.6,5.88,0,4.32,3.96,5.2,7.28,5.92,2.36.52,4.4,1.12,4.4,2.8,0,1.44-1.28,2.36-3.8,2.36a9.972,9.972,0,0,1-6.56-2.72ZM280,37h4.2V17.68H280V31.24a6.426,6.426,0,0,1-4.96,2.52c-2.36,0-3.88-.92-3.88-3.92V17.68h-4.2V31.36c0,3.96,2.04,6.12,6.2,6.12A9.26,9.26,0,0,0,280,34.44Zm9.64,0h4.2V23.84a6.671,6.671,0,0,1,4.96-2.56,6.191,6.191,0,0,1,1.32.12V17.24a8.251,8.251,0,0,0-6.28,3.28V17.68h-4.2Zm12.68-9.68a9.712,9.712,0,0,0,10.12,10.16,11.262,11.262,0,0,0,7.84-2.8l-1.92-2.76a8.177,8.177,0,0,1-5.48,2.12,5.852,5.852,0,0,1-6.16-5.32h14.92v-1c0-6.08-3.72-10.52-9.52-10.52A9.765,9.765,0,0,0,302.32,27.32Zm9.8-6.68a5.168,5.168,0,0,1,5.44,5.12H306.68A5.329,5.329,0,0,1,312.12,20.64ZM7.2,86.84a4.54,4.54,0,1,0-4.56-4.52A4.55,4.55,0,0,0,7.2,86.84ZM27.44,92h9.92c8.32,0,13.96-5.48,13.96-13.32S45.68,65.32,37.36,65.32H27.44Zm4.68-4.12V69.44h5.24c5.96,0,9.16,4.08,9.16,9.24,0,5.04-3.36,9.2-9.16,9.2ZM57.8,69.72a2.6,2.6,0,1,0-2.6-2.6A2.595,2.595,0,0,0,57.8,69.72ZM55.72,92h4.2V72.68h-4.2ZM92.08,69.72a2.6,2.6,0,1,0-2.6-2.6A2.595,2.595,0,0,0,92.08,69.72ZM66.36,92h4.2V76.36h3.92V72.68H70.56V71.6c0-2.16,1.04-3.24,2.68-3.24a3.366,3.366,0,0,1,1.68.4l.92-3.08a6.957,6.957,0,0,0-3.36-.76c-3.56,0-6.12,2.36-6.12,6.68v1.08h-3.2v3.68h3.2Zm12.32,0h4.2V76.36H86.8V72.68H82.88V71.6c0-2.16,1.04-3.24,2.68-3.24a2.894,2.894,0,0,1,1.68.44l.92-3.12a6.957,6.957,0,0,0-3.36-.76c-3.56,0-6.12,2.36-6.12,6.68v1.08h-3.2v3.68h3.2ZM90,92h4.2V72.68H90Zm8.44-9.68c0,5.88,4.12,10.16,10,10.16a8.663,8.663,0,0,0,7.4-3.44l-2.76-2.56a5.252,5.252,0,0,1-4.44,2.28c-3.52,0-5.84-2.68-5.84-6.44s2.32-6.4,5.84-6.4a5.157,5.157,0,0,1,4.44,2.28l2.76-2.56a8.663,8.663,0,0,0-7.4-3.44A9.7,9.7,0,0,0,98.44,82.32ZM132.56,92h4.2V72.68h-4.2V86.24a6.426,6.426,0,0,1-4.96,2.52c-2.36,0-3.88-.92-3.88-3.92V72.68h-4.2V86.36c0,3.96,2.04,6.12,6.2,6.12a9.26,9.26,0,0,0,6.84-3.04Zm9.64,0h4.2V65.32h-4.2Zm15.44.48a5.541,5.541,0,0,0,3.96-1.24l-1-3.16a2.711,2.711,0,0,1-1.88.68c-1.2,0-1.84-.96-1.84-2.28V76.36h3.92V72.68h-3.92V67.4h-4.2v5.28h-3.2v3.68h3.2V87.52C152.68,90.72,154.4,92.48,157.64,92.48Zm23.04,0a5.541,5.541,0,0,0,3.96-1.24l-1-3.16a2.711,2.711,0,0,1-1.88.68c-1.2,0-1.84-.96-1.84-2.28V76.36h3.92V72.68h-3.92V67.4h-4.2v5.28h-3.2v3.68h3.2V87.52C175.72,90.72,177.44,92.48,180.68,92.48Zm15.68,0c6.2,0,9.96-4.6,9.96-10.16,0-5.52-3.76-10.12-9.96-10.12-6.12,0-9.92,4.6-9.92,10.12C186.44,87.88,190.24,92.48,196.36,92.48Zm0-3.72c-3.56,0-5.56-3-5.56-6.44,0-3.4,2-6.4,5.56-6.4,3.6,0,5.6,3,5.6,6.4C201.96,85.76,199.96,88.76,196.36,88.76ZM234.44,92h4.2V65.32h-4.2V75.36a7.751,7.751,0,0,0-6.2-3.16c-5,0-8.6,3.92-8.6,10.16,0,6.36,3.64,10.12,8.6,10.12a7.824,7.824,0,0,0,6.2-3.12Zm0-5.8a6.313,6.313,0,0,1-5,2.56c-3.32,0-5.44-2.68-5.44-6.4,0-3.76,2.12-6.44,5.44-6.44a6.347,6.347,0,0,1,5,2.6Zm8.44-3.88A9.712,9.712,0,0,0,253,92.48a11.262,11.262,0,0,0,7.84-2.8l-1.92-2.76a8.177,8.177,0,0,1-5.48,2.12,5.852,5.852,0,0,1-6.16-5.32H262.2v-1c0-6.08-3.72-10.52-9.52-10.52A9.765,9.765,0,0,0,242.88,82.32Zm9.8-6.68a5.168,5.168,0,0,1,5.44,5.12H247.24A5.329,5.329,0,0,1,252.68,75.64Zm28.08-5.92a2.6,2.6,0,1,0-2.6-2.6A2.595,2.595,0,0,0,280.76,69.72ZM267.36,92h4.2V76.36h3.92V72.68h-3.92V71.6c0-2.16,1.04-3.24,2.68-3.24a2.894,2.894,0,0,1,1.68.44l.92-3.12a6.957,6.957,0,0,0-3.36-.76c-3.56,0-6.12,2.36-6.12,6.68v1.08h-3.2v3.68h3.2Zm11.32,0h4.2V72.68h-4.2Zm22.68,0h4.2V78.4c0-3.96-2.08-6.2-6.24-6.2a9.141,9.141,0,0,0-6.8,3.12V72.68h-4.2V92h4.2V78.52a6.36,6.36,0,0,1,4.96-2.6c2.36,0,3.88,1,3.88,4Zm8.44-9.68a9.712,9.712,0,0,0,10.12,10.16,11.262,11.262,0,0,0,7.84-2.8l-1.92-2.76a8.177,8.177,0,0,1-5.48,2.12,5.852,5.852,0,0,1-6.16-5.32h14.92v-1c0-6.08-3.72-10.52-9.52-10.52A9.765,9.765,0,0,0,309.8,82.32Zm9.8-6.68a5.168,5.168,0,0,1,5.44,5.12H314.16A5.329,5.329,0,0,1,319.6,75.64ZM7.2,141.84a4.54,4.54,0,1,0-4.56-4.52A4.55,4.55,0,0,0,7.2,141.84Zm20.24-5.36c0,6.56,3.8,11,11.56,11,7.72,0,11.52-4.4,11.52-11.04V120.32H45.8v16c0,4.24-2.36,7-6.8,7-4.48,0-6.84-2.76-6.84-7v-16H27.44ZM69.12,147h4.2V133.4c0-3.96-2.08-6.2-6.24-6.2a9.141,9.141,0,0,0-6.8,3.12v-2.64h-4.2V147h4.2V133.52a6.36,6.36,0,0,1,4.96-2.6c2.36,0,3.88,1,3.88,4Zm11.72-22.28a2.6,2.6,0,1,0-2.6-2.6A2.595,2.595,0,0,0,80.84,124.72ZM78.76,147h4.2V127.68h-4.2Zm14.72,0H98l7.88-19.32h-4.52l-5.64,14.48-5.64-14.48H85.6Zm13.84-9.68a9.712,9.712,0,0,0,10.12,10.16,11.262,11.262,0,0,0,7.84-2.8l-1.92-2.76a8.177,8.177,0,0,1-5.48,2.12,5.852,5.852,0,0,1-6.16-5.32h14.92v-1c0-6.08-3.72-10.52-9.52-10.52A9.765,9.765,0,0,0,107.32,137.32Zm9.8-6.68a5.168,5.168,0,0,1,5.44,5.12H111.68A5.329,5.329,0,0,1,117.12,130.64ZM130.8,147H135V133.84a6.671,6.671,0,0,1,4.96-2.56,6.191,6.191,0,0,1,1.32.12v-4.16a8.251,8.251,0,0,0-6.28,3.28v-2.84h-4.2Zm12.2-2.52a11.75,11.75,0,0,0,8.28,3c5.2,0,8.04-2.6,8.04-6,0-4.56-4.12-5.52-7.48-6.24-2.28-.52-4.2-1.04-4.2-2.52,0-1.36,1.4-2.16,3.6-2.16a7.791,7.791,0,0,1,5.72,2.32l1.76-2.96a11.045,11.045,0,0,0-7.52-2.72c-4.88,0-7.6,2.72-7.6,5.88,0,4.32,3.96,5.2,7.28,5.92,2.36.52,4.4,1.12,4.4,2.8,0,1.44-1.28,2.36-3.8,2.36a9.972,9.972,0,0,1-6.56-2.72ZM175.36,147h4.2V134.2c0-5.2-3.76-7-8.04-7a11.489,11.489,0,0,0-8.12,3.12l1.72,2.92a7.911,7.911,0,0,1,5.72-2.44c2.68,0,4.52,1.36,4.52,3.6v2.88a7.986,7.986,0,0,0-6.24-2.48c-3.16,0-6.72,1.84-6.72,6.28,0,4.28,3.56,6.4,6.72,6.4a8.156,8.156,0,0,0,6.24-2.56Zm0-4.4a5.656,5.656,0,0,1-4.6,2c-2.36,0-4.12-1.36-4.12-3.44,0-2.12,1.76-3.48,4.12-3.48a5.656,5.656,0,0,1,4.6,2ZM185,147h4.2V120.32H185Z" transform="translate(786 330)" fill="#fff"/>
    <path id="Path_193" data-name="Path 193" d="M2.13,28H15.84V24.91H5.64V19.36h9.99V16.27H5.64V11.08h10.2V7.99H2.13ZM28.5,28h3.54L26.7,20.56l5.01-7.05H28.17l-3.42,4.92L21.3,13.51H17.76l5.01,7.05L17.46,28h3.51l3.78-5.34Zm14.58,0h3.15V18.4c0-3.9-2.82-5.25-6.03-5.25a8.617,8.617,0,0,0-6.09,2.34l1.29,2.19a5.933,5.933,0,0,1,4.29-1.83c2.01,0,3.39,1.02,3.39,2.7v2.16a5.99,5.99,0,0,0-4.68-1.86c-2.37,0-5.04,1.38-5.04,4.71a4.813,4.813,0,0,0,5.04,4.8,6.117,6.117,0,0,0,4.68-1.92Zm0-3.3a4.242,4.242,0,0,1-3.45,1.5c-1.77,0-3.09-1.02-3.09-2.58,0-1.59,1.32-2.61,3.09-2.61a4.242,4.242,0,0,1,3.45,1.5ZM68.07,28h3.15V17.53c0-2.94-1.5-4.38-4.17-4.38a6.145,6.145,0,0,0-4.92,2.67,3.775,3.775,0,0,0-3.96-2.67,6.258,6.258,0,0,0-4.71,2.34V13.51H50.31V28h3.15V17.89a4.384,4.384,0,0,1,3.33-1.95c1.71,0,2.4,1.05,2.4,2.61V28h3.15V17.86a4.4,4.4,0,0,1,3.36-1.92c1.68,0,2.37,1.05,2.37,2.61Zm10.38,5.52V25.99a5.689,5.689,0,0,0,4.65,2.37c3.75,0,6.42-2.85,6.42-7.62s-2.67-7.59-6.42-7.59a5.782,5.782,0,0,0-4.65,2.34V13.51H75.3V33.52Zm7.8-12.78c0,2.82-1.59,4.83-4.08,4.83a4.788,4.788,0,0,1-3.72-1.95V17.89a4.7,4.7,0,0,1,3.72-1.95C84.66,15.94,86.25,17.95,86.25,20.74ZM92.7,28h3.15V7.99H92.7Zm6.33-7.26a7.284,7.284,0,0,0,7.59,7.62,8.446,8.446,0,0,0,5.88-2.1l-1.44-2.07a6.133,6.133,0,0,1-4.11,1.59,4.389,4.389,0,0,1-4.62-3.99h11.19v-.75c0-4.56-2.79-7.89-7.14-7.89A7.324,7.324,0,0,0,99.03,20.74Zm7.35-5.01a3.876,3.876,0,0,1,4.08,3.84H102.3A4,4,0,0,1,106.38,15.73Zm9,10.38a8.813,8.813,0,0,0,6.21,2.25c3.9,0,6.03-1.95,6.03-4.5,0-3.42-3.09-4.14-5.61-4.68-1.71-.39-3.15-.78-3.15-1.89,0-1.02,1.05-1.62,2.7-1.62a5.844,5.844,0,0,1,4.29,1.74l1.32-2.22a8.284,8.284,0,0,0-5.64-2.04c-3.66,0-5.7,2.04-5.7,4.41,0,3.24,2.97,3.9,5.46,4.44,1.77.39,3.3.84,3.3,2.1,0,1.08-.96,1.77-2.85,1.77a7.479,7.479,0,0,1-4.92-2.04ZM130.32,15.4a2.1,2.1,0,1,0,2.1-2.1A2.126,2.126,0,0,0,130.32,15.4Zm0,10.83a2.1,2.1,0,1,0,2.1-2.1A2.126,2.126,0,0,0,130.32,26.23ZM2.13,72H12.24c3.75,0,5.82-2.31,5.82-5.4a4.921,4.921,0,0,0-3.87-4.92,4.5,4.5,0,0,0,3.48-4.59c0-2.82-2.04-5.1-5.7-5.1H2.13ZM5.64,60.27V55.08h5.61a2.6,2.6,0,1,1,0,5.19Zm0,8.64V63.36H11.4a2.75,2.75,0,0,1,3.06,2.76c0,1.74-1.14,2.79-3.06,2.79Zm22.38,3.45c4.65,0,7.47-3.45,7.47-7.62a7.243,7.243,0,0,0-7.47-7.59,7.254,7.254,0,0,0-7.44,7.59A7.261,7.261,0,0,0,28.02,72.36Zm0-2.79c-2.67,0-4.17-2.25-4.17-4.83,0-2.55,1.5-4.8,4.17-4.8,2.7,0,4.2,2.25,4.2,4.8C32.22,67.32,30.72,69.57,28.02,69.57Zm17.19,2.79c4.65,0,7.47-3.45,7.47-7.62a7.456,7.456,0,1,0-14.91,0A7.261,7.261,0,0,0,45.21,72.36Zm0-2.79c-2.67,0-4.17-2.25-4.17-4.83,0-2.55,1.5-4.8,4.17-4.8,2.7,0,4.2,2.25,4.2,4.8C49.41,67.32,47.91,69.57,45.21,69.57ZM65.46,72h3.96l-6.15-7.92,6.03-6.57H65.4L59.01,64.5V51.99H55.86V72h3.15V68.1l2.01-2.07Zm15.78,0H85.2l-6.15-7.92,6.03-6.57h-3.9L74.79,64.5V51.99H71.64V72h3.15V68.1l2.01-2.07Zm4.53-7.26a7.284,7.284,0,0,0,7.59,7.62,8.446,8.446,0,0,0,5.88-2.1L97.8,68.19a6.133,6.133,0,0,1-4.11,1.59,4.389,4.389,0,0,1-4.62-3.99h11.19v-.75c0-4.56-2.79-7.89-7.14-7.89A7.324,7.324,0,0,0,85.77,64.74Zm7.35-5.01a3.876,3.876,0,0,1,4.08,3.84H89.04A4,4,0,0,1,93.12,59.73Zm9.36,5.01a7.284,7.284,0,0,0,7.59,7.62,8.446,8.446,0,0,0,5.88-2.1l-1.44-2.07a6.133,6.133,0,0,1-4.11,1.59,4.389,4.389,0,0,1-4.62-3.99h11.19v-.75c0-4.56-2.79-7.89-7.14-7.89A7.324,7.324,0,0,0,102.48,64.74Zm7.35-5.01a3.876,3.876,0,0,1,4.08,3.84h-8.16A4,4,0,0,1,109.83,59.73Zm13.41,17.79V69.99a5.689,5.689,0,0,0,4.65,2.37c3.75,0,6.42-2.85,6.42-7.62s-2.67-7.59-6.42-7.59a5.782,5.782,0,0,0-4.65,2.34V57.51h-3.15V77.52Zm7.8-12.78c0,2.82-1.59,4.83-4.08,4.83a4.788,4.788,0,0,1-3.72-1.95V61.89a4.7,4.7,0,0,1,3.72-1.95C129.45,59.94,131.04,61.95,131.04,64.74Zm8.01-9.45a1.95,1.95,0,1,0-1.95-1.95A1.946,1.946,0,0,0,139.05,55.29ZM137.49,72h3.15V57.51h-3.15Zm17.01,0h3.15V61.8c0-2.97-1.56-4.65-4.68-4.65a6.856,6.856,0,0,0-5.1,2.34V57.51h-3.15V72h3.15V61.89a4.77,4.77,0,0,1,3.72-1.95c1.77,0,2.91.75,2.91,3Zm7.05,3.72a8.178,8.178,0,0,0,6.06,2.16c3.57,0,7.44-1.41,7.44-6.63V57.51H171.9v2.01a5.771,5.771,0,0,0-4.65-2.37c-3.72,0-6.42,2.76-6.42,7.44,0,4.77,2.73,7.44,6.42,7.44a5.881,5.881,0,0,0,4.65-2.4v1.74c0,2.97-2.22,3.93-4.29,3.93a5.617,5.617,0,0,1-4.59-1.86Zm10.35-8.43a4.7,4.7,0,0,1-3.72,1.95c-2.49,0-4.08-1.86-4.08-4.65s1.59-4.65,4.08-4.65a4.7,4.7,0,0,1,3.72,1.95Zm8.31,8.7a6.43,6.43,0,0,0,2.82-5.13,2.456,2.456,0,0,0-2.34-2.73,2.068,2.068,0,0,0-2.04,2.07,1.791,1.791,0,0,0,1.8,1.89,1.958,1.958,0,0,0,.51-.09,5,5,0,0,1-2.16,2.82ZM203.04,72h3.15V62.4c0-3.9-2.82-5.25-6.03-5.25a8.617,8.617,0,0,0-6.09,2.34l1.29,2.19a5.933,5.933,0,0,1,4.29-1.83c2.01,0,3.39,1.02,3.39,2.7v2.16a5.99,5.99,0,0,0-4.68-1.86c-2.37,0-5.04,1.38-5.04,4.71a4.813,4.813,0,0,0,5.04,4.8,6.117,6.117,0,0,0,4.68-1.92Zm0-3.3a4.242,4.242,0,0,1-3.45,1.5c-1.77,0-3.09-1.02-3.09-2.58,0-1.59,1.32-2.61,3.09-2.61a4.242,4.242,0,0,1,3.45,1.5ZM220.05,72h3.15V61.8c0-2.97-1.56-4.65-4.68-4.65a6.856,6.856,0,0,0-5.1,2.34V57.51h-3.15V72h3.15V61.89a4.77,4.77,0,0,1,3.72-1.95c1.77,0,2.91.75,2.91,3Zm16.08,0h3.15V62.4c0-3.9-2.82-5.25-6.03-5.25a8.617,8.617,0,0,0-6.09,2.34l1.29,2.19a5.933,5.933,0,0,1,4.29-1.83c2.01,0,3.39,1.02,3.39,2.7v2.16a5.99,5.99,0,0,0-4.68-1.86c-2.37,0-5.04,1.38-5.04,4.71a4.813,4.813,0,0,0,5.04,4.8,6.117,6.117,0,0,0,4.68-1.92Zm0-3.3a4.242,4.242,0,0,1-3.45,1.5c-1.77,0-3.09-1.02-3.09-2.58,0-1.59,1.32-2.61,3.09-2.61a4.242,4.242,0,0,1,3.45,1.5Zm7.23,3.3h3.15V51.99h-3.15Zm7.08,2.85-.48,2.82a8.909,8.909,0,0,0,1.77.21,4.851,4.851,0,0,0,4.98-3.27l6.99-17.1h-3.39l-4.23,10.86-4.23-10.86h-3.36l5.94,14.67-.72,1.65a1.963,1.963,0,0,1-2.07,1.26A3.292,3.292,0,0,1,250.44,74.85Zm19.59-2.49a4.156,4.156,0,0,0,2.97-.93l-.75-2.37a2.034,2.034,0,0,1-1.41.51c-.9,0-1.38-.72-1.38-1.71V60.27h2.94V57.51h-2.94V53.55h-3.15v3.96h-2.4v2.76h2.4v8.37C266.31,71.04,267.6,72.36,270.03,72.36Zm6.78-17.07a1.95,1.95,0,1,0-1.95-1.95A1.946,1.946,0,0,0,276.81,55.29ZM275.25,72h3.15V57.51h-3.15Zm6.33-7.26a7.279,7.279,0,0,0,7.5,7.62,6.5,6.5,0,0,0,5.55-2.58l-2.07-1.92a3.939,3.939,0,0,1-3.33,1.71c-2.64,0-4.38-2.01-4.38-4.83s1.74-4.8,4.38-4.8a3.867,3.867,0,0,1,3.33,1.71l2.07-1.92a6.5,6.5,0,0,0-5.55-2.58A7.272,7.272,0,0,0,281.58,64.74Zm14.55,5.37a8.813,8.813,0,0,0,6.21,2.25c3.9,0,6.03-1.95,6.03-4.5,0-3.42-3.09-4.14-5.61-4.68-1.71-.39-3.15-.78-3.15-1.89,0-1.02,1.05-1.62,2.7-1.62a5.844,5.844,0,0,1,4.29,1.74l1.32-2.22a8.284,8.284,0,0,0-5.64-2.04c-3.66,0-5.7,2.04-5.7,4.41,0,3.24,2.97,3.9,5.46,4.44,1.77.39,3.3.84,3.3,2.1,0,1.08-.96,1.77-2.85,1.77a7.479,7.479,0,0,1-4.92-2.04Zm16.5,5.88a6.43,6.43,0,0,0,2.82-5.13,2.456,2.456,0,0,0-2.34-2.73,2.068,2.068,0,0,0-2.04,2.07,1.791,1.791,0,0,0,1.8,1.89,1.958,1.958,0,0,0,.51-.09,5,5,0,0,1-2.16,2.82ZM10.89,116h3.15v-9.6c0-3.9-2.82-5.25-6.03-5.25a8.617,8.617,0,0,0-6.09,2.34l1.29,2.19a5.933,5.933,0,0,1,4.29-1.83c2.01,0,3.39,1.02,3.39,2.7v2.16a5.99,5.99,0,0,0-4.68-1.86c-2.37,0-5.04,1.38-5.04,4.71a4.813,4.813,0,0,0,5.04,4.8,6.117,6.117,0,0,0,4.68-1.92Zm0-3.3a4.242,4.242,0,0,1-3.45,1.5c-1.77,0-3.09-1.02-3.09-2.58,0-1.59,1.32-2.61,3.09-2.61a4.242,4.242,0,0,1,3.45,1.5ZM27.9,116h3.15V105.8c0-2.97-1.56-4.65-4.68-4.65a6.856,6.856,0,0,0-5.1,2.34v-1.98H18.12V116h3.15V105.89a4.77,4.77,0,0,1,3.72-1.95c1.77,0,2.91.75,2.91,3Zm17.43,0h3.15V95.99H45.33v7.53a5.813,5.813,0,0,0-4.65-2.37c-3.75,0-6.45,2.94-6.45,7.62,0,4.77,2.73,7.59,6.45,7.59a5.868,5.868,0,0,0,4.65-2.34Zm0-4.35a4.735,4.735,0,0,1-3.75,1.92c-2.49,0-4.08-2.01-4.08-4.8,0-2.82,1.59-4.83,4.08-4.83a4.76,4.76,0,0,1,3.75,1.95Zm16.5-12.36a1.95,1.95,0,1,0-1.95-1.95A1.946,1.946,0,0,0,61.83,99.29ZM60.27,116h3.15V101.51H60.27Zm17.01,0h3.15V105.8c0-2.97-1.56-4.65-4.68-4.65a6.856,6.856,0,0,0-5.1,2.34v-1.98H67.5V116h3.15V105.89a4.77,4.77,0,0,1,3.72-1.95c1.77,0,2.91.75,2.91,3Zm11.04,0h3.39l5.91-14.49H94.23L90,112.37l-4.23-10.86H82.41Zm10.38-7.26a7.284,7.284,0,0,0,7.59,7.62,8.446,8.446,0,0,0,5.88-2.1l-1.44-2.07a6.133,6.133,0,0,1-4.11,1.59,4.389,4.389,0,0,1-4.62-3.99h11.19v-.75c0-4.56-2.79-7.89-7.14-7.89A7.324,7.324,0,0,0,98.7,108.74Zm7.35-5.01a3.876,3.876,0,0,1,4.08,3.84h-8.16A4,4,0,0,1,106.05,103.73ZM126.09,116h3.15V105.8c0-2.97-1.56-4.65-4.68-4.65a6.856,6.856,0,0,0-5.1,2.34v-1.98h-3.15V116h3.15V105.89a4.77,4.77,0,0,1,3.72-1.95c1.77,0,2.91.75,2.91,3Zm11.58.36a4.156,4.156,0,0,0,2.97-.93l-.75-2.37a2.034,2.034,0,0,1-1.41.51c-.9,0-1.38-.72-1.38-1.71v-7.59h2.94v-2.76H137.1V97.55h-3.15v3.96h-2.4v2.76h2.4v8.37C133.95,115.04,135.24,116.36,137.67,116.36Zm11.76,0c4.65,0,7.47-3.45,7.47-7.62a7.457,7.457,0,1,0-7.47,7.62Zm0-2.79c-2.67,0-4.17-2.25-4.17-4.83,0-2.55,1.5-4.8,4.17-4.8,2.7,0,4.2,2.25,4.2,4.8C153.63,111.32,152.13,113.57,149.43,113.57ZM160.08,116h3.15v-9.87a5,5,0,0,1,3.72-1.92,4.643,4.643,0,0,1,.99.09v-3.12a6.188,6.188,0,0,0-4.71,2.46v-2.13h-3.15Zm10.26,2.85-.48,2.82a8.909,8.909,0,0,0,1.77.21,4.851,4.851,0,0,0,4.98-3.27l6.99-17.1h-3.39l-4.23,10.86-4.23-10.86h-3.36l5.94,14.67-.72,1.65a1.963,1.963,0,0,1-2.07,1.26A3.292,3.292,0,0,1,170.34,118.85Zm22.05-10.11a7.279,7.279,0,0,0,7.5,7.62,6.5,6.5,0,0,0,5.55-2.58l-2.07-1.92a3.939,3.939,0,0,1-3.33,1.71c-2.64,0-4.38-2.01-4.38-4.83s1.74-4.8,4.38-4.8a3.868,3.868,0,0,1,3.33,1.71l2.07-1.92a6.5,6.5,0,0,0-5.55-2.58A7.272,7.272,0,0,0,192.39,108.74Zm22.35,7.62c4.65,0,7.47-3.45,7.47-7.62a7.457,7.457,0,1,0-7.47,7.62Zm0-2.79c-2.67,0-4.17-2.25-4.17-4.83,0-2.55,1.5-4.8,4.17-4.8,2.7,0,4.2,2.25,4.2,4.8C218.94,111.32,217.44,113.57,214.74,113.57ZM235.17,116h3.15V105.8c0-2.97-1.56-4.65-4.68-4.65a6.856,6.856,0,0,0-5.1,2.34v-1.98h-3.15V116h3.15V105.89a4.77,4.77,0,0,1,3.72-1.95c1.77,0,2.91.75,2.91,3Zm11.58.36a4.156,4.156,0,0,0,2.97-.93l-.75-2.37a2.034,2.034,0,0,1-1.41.51c-.9,0-1.38-.72-1.38-1.71v-7.59h2.94v-2.76h-2.94V97.55h-3.15v3.96h-2.4v2.76h2.4v8.37C243.03,115.04,244.32,116.36,246.75,116.36Zm5.22-.36h3.15v-9.87a5,5,0,0,1,3.72-1.92,4.643,4.643,0,0,1,.99.09v-3.12a6.188,6.188,0,0,0-4.71,2.46v-2.13h-3.15Zm16.95.36c4.65,0,7.47-3.45,7.47-7.62a7.457,7.457,0,1,0-7.47,7.62Zm0-2.79c-2.67,0-4.17-2.25-4.17-4.83,0-2.55,1.5-4.8,4.17-4.8,2.7,0,4.2,2.25,4.2,4.8C273.12,111.32,271.62,113.57,268.92,113.57ZM279.57,116h3.15V95.99h-3.15Z" transform="translate(146 540)" fill="#fff"/>
    <path id="Path_198" data-name="Path 198" d="M2.13,28H15.84V24.91H5.64V19.36h9.99V16.27H5.64V11.08h10.2V7.99H2.13ZM28.5,28h3.54L26.7,20.56l5.01-7.05H28.17l-3.42,4.92L21.3,13.51H17.76l5.01,7.05L17.46,28h3.51l3.78-5.34Zm14.58,0h3.15V18.4c0-3.9-2.82-5.25-6.03-5.25a8.617,8.617,0,0,0-6.09,2.34l1.29,2.19a5.933,5.933,0,0,1,4.29-1.83c2.01,0,3.39,1.02,3.39,2.7v2.16a5.99,5.99,0,0,0-4.68-1.86c-2.37,0-5.04,1.38-5.04,4.71a4.813,4.813,0,0,0,5.04,4.8,6.117,6.117,0,0,0,4.68-1.92Zm0-3.3a4.242,4.242,0,0,1-3.45,1.5c-1.77,0-3.09-1.02-3.09-2.58,0-1.59,1.32-2.61,3.09-2.61a4.242,4.242,0,0,1,3.45,1.5ZM68.07,28h3.15V17.53c0-2.94-1.5-4.38-4.17-4.38a6.145,6.145,0,0,0-4.92,2.67,3.775,3.775,0,0,0-3.96-2.67,6.258,6.258,0,0,0-4.71,2.34V13.51H50.31V28h3.15V17.89a4.384,4.384,0,0,1,3.33-1.95c1.71,0,2.4,1.05,2.4,2.61V28h3.15V17.86a4.4,4.4,0,0,1,3.36-1.92c1.68,0,2.37,1.05,2.37,2.61Zm10.38,5.52V25.99a5.689,5.689,0,0,0,4.65,2.37c3.75,0,6.42-2.85,6.42-7.62s-2.67-7.59-6.42-7.59a5.782,5.782,0,0,0-4.65,2.34V13.51H75.3V33.52Zm7.8-12.78c0,2.82-1.59,4.83-4.08,4.83a4.788,4.788,0,0,1-3.72-1.95V17.89a4.7,4.7,0,0,1,3.72-1.95C84.66,15.94,86.25,17.95,86.25,20.74ZM92.7,28h3.15V7.99H92.7Zm6.33-7.26a7.284,7.284,0,0,0,7.59,7.62,8.446,8.446,0,0,0,5.88-2.1l-1.44-2.07a6.133,6.133,0,0,1-4.11,1.59,4.389,4.389,0,0,1-4.62-3.99h11.19v-.75c0-4.56-2.79-7.89-7.14-7.89A7.324,7.324,0,0,0,99.03,20.74Zm7.35-5.01a3.876,3.876,0,0,1,4.08,3.84H102.3A4,4,0,0,1,106.38,15.73Zm9,10.38a8.813,8.813,0,0,0,6.21,2.25c3.9,0,6.03-1.95,6.03-4.5,0-3.42-3.09-4.14-5.61-4.68-1.71-.39-3.15-.78-3.15-1.89,0-1.02,1.05-1.62,2.7-1.62a5.844,5.844,0,0,1,4.29,1.74l1.32-2.22a8.284,8.284,0,0,0-5.64-2.04c-3.66,0-5.7,2.04-5.7,4.41,0,3.24,2.97,3.9,5.46,4.44,1.77.39,3.3.84,3.3,2.1,0,1.08-.96,1.77-2.85,1.77a7.479,7.479,0,0,1-4.92-2.04ZM130.32,15.4a2.1,2.1,0,1,0,2.1-2.1A2.126,2.126,0,0,0,130.32,15.4Zm0,10.83a2.1,2.1,0,1,0,2.1-2.1A2.126,2.126,0,0,0,130.32,26.23ZM11.58,72.36a9.157,9.157,0,0,0,8.19-4.5l-3-1.53a5.941,5.941,0,0,1-5.19,2.91c-3.81,0-6.75-3.03-6.75-7.23s2.94-7.23,6.75-7.23a6,6,0,0,1,5.19,2.91l3-1.53a9.121,9.121,0,0,0-8.19-4.5,10.35,10.35,0,0,0,0,20.7ZM22.5,72h3.15V62.13a5,5,0,0,1,3.72-1.92,4.643,4.643,0,0,1,.99.09V57.18a6.188,6.188,0,0,0-4.71,2.46V57.51H22.5Zm9.51-7.26a7.284,7.284,0,0,0,7.59,7.62,8.446,8.446,0,0,0,5.88-2.1l-1.44-2.07a6.133,6.133,0,0,1-4.11,1.59,4.389,4.389,0,0,1-4.62-3.99H46.5v-.75c0-4.56-2.79-7.89-7.14-7.89A7.324,7.324,0,0,0,32.01,64.74Zm7.35-5.01a3.876,3.876,0,0,1,4.08,3.84H35.28A4,4,0,0,1,39.36,59.73ZM58.47,72h3.15V62.4c0-3.9-2.82-5.25-6.03-5.25a8.617,8.617,0,0,0-6.09,2.34l1.29,2.19a5.933,5.933,0,0,1,4.29-1.83c2.01,0,3.39,1.02,3.39,2.7v2.16a5.99,5.99,0,0,0-4.68-1.86c-2.37,0-5.04,1.38-5.04,4.71a4.813,4.813,0,0,0,5.04,4.8,6.117,6.117,0,0,0,4.68-1.92Zm0-3.3a4.242,4.242,0,0,1-3.45,1.5c-1.77,0-3.09-1.02-3.09-2.58,0-1.59,1.32-2.61,3.09-2.61a4.242,4.242,0,0,1,3.45,1.5Zm11.58,3.66a4.156,4.156,0,0,0,2.97-.93l-.75-2.37a2.034,2.034,0,0,1-1.41.51c-.9,0-1.38-.72-1.38-1.71V60.27h2.94V57.51H69.48V53.55H66.33v3.96h-2.4v2.76h2.4v8.37C66.33,71.04,67.62,72.36,70.05,72.36Zm6.78-17.07a1.95,1.95,0,1,0-1.95-1.95A1.946,1.946,0,0,0,76.83,55.29ZM75.27,72h3.15V57.51H75.27Zm11.04,0H89.7l5.91-14.49H92.22L87.99,68.37,83.76,57.51H80.4ZM99.15,55.29a1.95,1.95,0,1,0-1.95-1.95A1.946,1.946,0,0,0,99.15,55.29ZM97.59,72h3.15V57.51H97.59Zm11.58.36a4.156,4.156,0,0,0,2.97-.93l-.75-2.37a2.034,2.034,0,0,1-1.41.51c-.9,0-1.38-.72-1.38-1.71V60.27h2.94V57.51H108.6V53.55h-3.15v3.96h-2.4v2.76h2.4v8.37C105.45,71.04,106.74,72.36,109.17,72.36Zm5.07,2.49-.48,2.82a8.909,8.909,0,0,0,1.77.21,4.851,4.851,0,0,0,4.98-3.27l6.99-17.1h-3.39l-4.23,10.86-4.23-10.86h-3.36l5.94,14.67-.72,1.65a1.963,1.963,0,0,1-2.07,1.26A3.292,3.292,0,0,1,114.24,74.85Zm14.67,1.14a6.43,6.43,0,0,0,2.82-5.13,2.456,2.456,0,0,0-2.34-2.73,2.068,2.068,0,0,0-2.04,2.07,1.791,1.791,0,0,0,1.8,1.89,1.958,1.958,0,0,0,.51-.09,5,5,0,0,1-2.16,2.82Zm13.08-11.25a7.279,7.279,0,0,0,7.5,7.62,6.5,6.5,0,0,0,5.55-2.58l-2.07-1.92a3.939,3.939,0,0,1-3.33,1.71c-2.64,0-4.38-2.01-4.38-4.83s1.74-4.8,4.38-4.8a3.868,3.868,0,0,1,3.33,1.71l2.07-1.92a6.5,6.5,0,0,0-5.55-2.58A7.272,7.272,0,0,0,141.99,64.74Zm22.35,7.62c4.65,0,7.47-3.45,7.47-7.62a7.456,7.456,0,1,0-14.91,0A7.261,7.261,0,0,0,164.34,72.36Zm0-2.79c-2.67,0-4.17-2.25-4.17-4.83,0-2.55,1.5-4.8,4.17-4.8,2.7,0,4.2,2.25,4.2,4.8C168.54,67.32,167.04,69.57,164.34,69.57ZM174.99,72h3.15V51.99h-3.15Zm7.23,0h3.15V51.99h-3.15Zm16.08,0h3.15V62.4c0-3.9-2.82-5.25-6.03-5.25a8.617,8.617,0,0,0-6.09,2.34l1.29,2.19a5.933,5.933,0,0,1,4.29-1.83c2.01,0,3.39,1.02,3.39,2.7v2.16a5.99,5.99,0,0,0-4.68-1.86c-2.37,0-5.04,1.38-5.04,4.71a4.813,4.813,0,0,0,5.04,4.8,6.117,6.117,0,0,0,4.68-1.92Zm0-3.3a4.242,4.242,0,0,1-3.45,1.5c-1.77,0-3.09-1.02-3.09-2.58,0-1.59,1.32-2.61,3.09-2.61a4.242,4.242,0,0,1,3.45,1.5Zm7.23,3.3h3.15V70.02a5.825,5.825,0,0,0,4.65,2.34c3.69,0,6.42-2.82,6.42-7.59,0-4.68-2.7-7.62-6.42-7.62a5.73,5.73,0,0,0-4.65,2.37V51.99h-3.15Zm3.15-4.35V61.92a4.728,4.728,0,0,1,3.72-1.98c2.52,0,4.11,2.01,4.11,4.83s-1.59,4.8-4.11,4.8A4.676,4.676,0,0,1,208.68,67.65Zm20.82,4.71c4.65,0,7.47-3.45,7.47-7.62a7.456,7.456,0,1,0-14.91,0A7.261,7.261,0,0,0,229.5,72.36Zm0-2.79c-2.67,0-4.17-2.25-4.17-4.83,0-2.55,1.5-4.8,4.17-4.8,2.7,0,4.2,2.25,4.2,4.8C233.7,67.32,232.2,69.57,229.5,69.57ZM240.15,72h3.15V62.13a5,5,0,0,1,3.72-1.92,4.643,4.643,0,0,1,.99.09V57.18a6.188,6.188,0,0,0-4.71,2.46V57.51h-3.15Zm19.26,0h3.15V62.4c0-3.9-2.82-5.25-6.03-5.25a8.617,8.617,0,0,0-6.09,2.34l1.29,2.19a5.933,5.933,0,0,1,4.29-1.83c2.01,0,3.39,1.02,3.39,2.7v2.16a5.99,5.99,0,0,0-4.68-1.86c-2.37,0-5.04,1.38-5.04,4.71a4.813,4.813,0,0,0,5.04,4.8,6.117,6.117,0,0,0,4.68-1.92Zm0-3.3a4.242,4.242,0,0,1-3.45,1.5c-1.77,0-3.09-1.02-3.09-2.58,0-1.59,1.32-2.61,3.09-2.61a4.242,4.242,0,0,1,3.45,1.5Zm11.58,3.66a4.156,4.156,0,0,0,2.97-.93l-.75-2.37a2.034,2.034,0,0,1-1.41.51c-.9,0-1.38-.72-1.38-1.71V60.27h2.94V57.51h-2.94V53.55h-3.15v3.96h-2.4v2.76h2.4v8.37C267.27,71.04,268.56,72.36,270.99,72.36Zm6.78-17.07a1.95,1.95,0,1,0-1.95-1.95A1.946,1.946,0,0,0,277.77,55.29ZM276.21,72h3.15V57.51h-3.15Zm13.77.36c4.65,0,7.47-3.45,7.47-7.62a7.456,7.456,0,1,0-14.91,0A7.261,7.261,0,0,0,289.98,72.36Zm0-2.79c-2.67,0-4.17-2.25-4.17-4.83,0-2.55,1.5-4.8,4.17-4.8,2.7,0,4.2,2.25,4.2,4.8C294.18,67.32,292.68,69.57,289.98,69.57ZM310.41,72h3.15V61.8c0-2.97-1.56-4.65-4.68-4.65a6.856,6.856,0,0,0-5.1,2.34V57.51h-3.15V72h3.15V61.89a4.77,4.77,0,0,1,3.72-1.95c1.77,0,2.91.75,2.91,3Zm8.31,3.99a6.43,6.43,0,0,0,2.82-5.13,2.456,2.456,0,0,0-2.34-2.73,2.068,2.068,0,0,0-2.04,2.07,1.791,1.791,0,0,0,1.8,1.89,1.958,1.958,0,0,0,.51-.09,5,5,0,0,1-2.16,2.82ZM10.89,116h3.15v-9.6c0-3.9-2.82-5.25-6.03-5.25a8.617,8.617,0,0,0-6.09,2.34l1.29,2.19a5.933,5.933,0,0,1,4.29-1.83c2.01,0,3.39,1.02,3.39,2.7v2.16a5.99,5.99,0,0,0-4.68-1.86c-2.37,0-5.04,1.38-5.04,4.71a4.813,4.813,0,0,0,5.04,4.8,6.117,6.117,0,0,0,4.68-1.92Zm0-3.3a4.242,4.242,0,0,1-3.45,1.5c-1.77,0-3.09-1.02-3.09-2.58,0-1.59,1.32-2.61,3.09-2.61a4.242,4.242,0,0,1,3.45,1.5ZM27.9,116h3.15V105.8c0-2.97-1.56-4.65-4.68-4.65a6.856,6.856,0,0,0-5.1,2.34v-1.98H18.12V116h3.15V105.89a4.77,4.77,0,0,1,3.72-1.95c1.77,0,2.91.75,2.91,3Zm17.43,0h3.15V95.99H45.33v7.53a5.813,5.813,0,0,0-4.65-2.37c-3.75,0-6.45,2.94-6.45,7.62,0,4.77,2.73,7.59,6.45,7.59a5.868,5.868,0,0,0,4.65-2.34Zm0-4.35a4.735,4.735,0,0,1-3.75,1.92c-2.49,0-4.08-2.01-4.08-4.8,0-2.82,1.59-4.83,4.08-4.83a4.76,4.76,0,0,1,3.75,1.95ZM69.12,116h3.15v-9.6c0-3.9-2.82-5.25-6.03-5.25a8.617,8.617,0,0,0-6.09,2.34l1.29,2.19a5.933,5.933,0,0,1,4.29-1.83c2.01,0,3.39,1.02,3.39,2.7v2.16a5.99,5.99,0,0,0-4.68-1.86c-2.37,0-5.04,1.38-5.04,4.71a4.813,4.813,0,0,0,5.04,4.8,6.117,6.117,0,0,0,4.68-1.92Zm0-3.3a4.242,4.242,0,0,1-3.45,1.5c-1.77,0-3.09-1.02-3.09-2.58,0-1.59,1.32-2.61,3.09-2.61a4.242,4.242,0,0,1,3.45,1.5ZM86.55,116H89.7V95.99H86.55v7.53a5.813,5.813,0,0,0-4.65-2.37c-3.75,0-6.45,2.94-6.45,7.62,0,4.77,2.73,7.59,6.45,7.59a5.868,5.868,0,0,0,4.65-2.34Zm0-4.35a4.735,4.735,0,0,1-3.75,1.92c-2.49,0-4.08-2.01-4.08-4.8,0-2.82,1.59-4.83,4.08-4.83a4.76,4.76,0,0,1,3.75,1.95ZM102.63,116h3.15v-9.6c0-3.9-2.82-5.25-6.03-5.25a8.617,8.617,0,0,0-6.09,2.34l1.29,2.19a5.933,5.933,0,0,1,4.29-1.83c2.01,0,3.39,1.02,3.39,2.7v2.16a5.99,5.99,0,0,0-4.68-1.86c-2.37,0-5.04,1.38-5.04,4.71a4.813,4.813,0,0,0,5.04,4.8,6.117,6.117,0,0,0,4.68-1.92Zm0-3.3a4.242,4.242,0,0,1-3.45,1.5c-1.77,0-3.09-1.02-3.09-2.58,0-1.59,1.32-2.61,3.09-2.61a4.242,4.242,0,0,1,3.45,1.5Zm10.38,8.82v-7.53a5.689,5.689,0,0,0,4.65,2.37c3.75,0,6.42-2.85,6.42-7.62s-2.67-7.59-6.42-7.59a5.782,5.782,0,0,0-4.65,2.34v-1.98h-3.15v20.01Zm7.8-12.78c0,2.82-1.59,4.83-4.08,4.83a4.788,4.788,0,0,1-3.72-1.95v-5.73a4.7,4.7,0,0,1,3.72-1.95C119.22,103.94,120.81,105.95,120.81,108.74Zm10.8,7.62a4.156,4.156,0,0,0,2.97-.93l-.75-2.37a2.034,2.034,0,0,1-1.41.51c-.9,0-1.38-.72-1.38-1.71v-7.59h2.94v-2.76h-2.94V97.55h-3.15v3.96h-2.4v2.76h2.4v8.37C127.89,115.04,129.18,116.36,131.61,116.36Zm14.07-.36h3.15v-9.6c0-3.9-2.82-5.25-6.03-5.25a8.617,8.617,0,0,0-6.09,2.34l1.29,2.19a5.933,5.933,0,0,1,4.29-1.83c2.01,0,3.39,1.02,3.39,2.7v2.16a5.99,5.99,0,0,0-4.68-1.86c-2.37,0-5.04,1.38-5.04,4.71a4.813,4.813,0,0,0,5.04,4.8,6.117,6.117,0,0,0,4.68-1.92Zm0-3.3a4.242,4.242,0,0,1-3.45,1.5c-1.77,0-3.09-1.02-3.09-2.58,0-1.59,1.32-2.61,3.09-2.61a4.242,4.242,0,0,1,3.45,1.5Zm7.23,3.3h3.15v-1.98a5.825,5.825,0,0,0,4.65,2.34c3.69,0,6.42-2.82,6.42-7.59,0-4.68-2.7-7.62-6.42-7.62a5.73,5.73,0,0,0-4.65,2.37V95.99h-3.15Zm3.15-4.35v-5.73a4.728,4.728,0,0,1,3.72-1.98c2.52,0,4.11,2.01,4.11,4.83s-1.59,4.8-4.11,4.8A4.676,4.676,0,0,1,156.06,111.65ZM171.9,99.29a1.95,1.95,0,1,0-1.95-1.95A1.946,1.946,0,0,0,171.9,99.29ZM170.34,116h3.15V101.51h-3.15Zm7.23,0h3.15V95.99h-3.15Zm8.79-16.71a1.95,1.95,0,1,0-1.95-1.95A1.946,1.946,0,0,0,186.36,99.29ZM184.8,116h3.15V101.51H184.8Zm11.58.36a4.156,4.156,0,0,0,2.97-.93l-.75-2.37a2.034,2.034,0,0,1-1.41.51c-.9,0-1.38-.72-1.38-1.71v-7.59h2.94v-2.76h-2.94V97.55h-3.15v3.96h-2.4v2.76h2.4v8.37C192.66,115.04,193.95,116.36,196.38,116.36Zm5.07,2.49-.48,2.82a8.909,8.909,0,0,0,1.77.21,4.851,4.851,0,0,0,4.98-3.27l6.99-17.1h-3.39l-4.23,10.86-4.23-10.86H199.5l5.94,14.67-.72,1.65a1.963,1.963,0,0,1-2.07,1.26A3.292,3.292,0,0,1,201.45,118.85Z" transform="translate(786 540)" fill="#fff"/>
    <circle id="Ellipse_1" data-name="Ellipse 1" cx="77" cy="77" r="77" transform="translate(563 323)" fill="#fff"/>
    <path id="Path_188" data-name="Path 188" d="M329.54,130.249l-24.279,57.906H287.854L267.72,130.249h19.056L298.1,164.084l14.038-33.835Z" transform="translate(319.28 241.074)" fill="#740bd3"/>
    <path id="Path_189" data-name="Path 189" d="M298.5,188.717a31.1,31.1,0,0,1-10.011-4.341l6.209-14.229a33.344,33.344,0,0,0,8.267,3.847,29.551,29.551,0,0,0,8.874,1.446,12.923,12.923,0,0,0,5.282-.783,2.633,2.633,0,0,0,1.657-2.359,2.8,2.8,0,0,0-1.963-2.729,39.308,39.308,0,0,0-6.717-1.985,69.268,69.268,0,0,1-10.025-3.022,16.428,16.428,0,0,1-6.86-5.293q-2.873-3.681-2.642-9.969a18.961,18.961,0,0,1,3.131-9.927,19.661,19.661,0,0,1,8.542-7.032,32.2,32.2,0,0,1,13.479-2.564,43.8,43.8,0,0,1,10.573,1.28,30.274,30.274,0,0,1,9.053,3.766l-5.83,14.144q-7.578-4.3-14.479-4.3-6.824,0-6.956,3.642a2.688,2.688,0,0,0,1.929,2.606,38.885,38.885,0,0,0,6.613,1.862,62.053,62.053,0,0,1,10.028,2.85,16.77,16.77,0,0,1,6.973,5.254q2.915,3.643,2.687,9.927a18.789,18.789,0,0,1-3.131,9.887,20.081,20.081,0,0,1-8.542,7.029,31.737,31.737,0,0,1-13.482,2.609A49.527,49.527,0,0,1,298.5,188.717Z" transform="translate(356.842 240.222)" fill="#f11e62"/>
  </g>
</svg>
