<svg version="1.1" id="free_mom" xmlns="http://www.w3.org/2000/svg" x="0" y="0" viewBox="0 0 600 600" xml:space="preserve"><style>.st0{fill:#ff9d5a}.st1{fill:#ffc196}.st2{fill:#6c60bf}.st3{fill:#493f93}.st6{fill:#ff7867}.st7{fill:#ffcec8}.st8{fill:#ffa99e}.st10{fill:#ff6754}.st11{fill:#ffb6ad}.st12{fill:#8e85c7}.st13{fill:#d7ccf0}.st14{fill:#cdbef0}.st16{fill:#f4f0ff}.st17{fill:#ffede0}</style><path class="st0" d="M533.9 400.2c-1.8-.1-3.4-.5-5-1.3-6.2-2.8-10.7-9.8-13.8-15.4-4.4-7.9-6.5-17.1-6.1-26.2.3-6.3 1.9-12 4.3-17.7.5-1.1 4.2-12.1 5.6-12.1H531c-3.3 0-5.2 20.2-5.3 23-.3 7.8-1.6 16.3 2.4 23.4 1.9 3.5 6.2 6.3 9.7 9.3 2.7 2.3 4.9 4.7 5.4 7.5 1.3 5.9-3.9 9.8-9.3 9.5z"/><path class="st1" d="M533.9 400.2c-1.8-.1-3.4-.5-5-1.3.3-2.6 1.3-7.4 5.3-10.1 2.1-1.4 3.2-3.6 3.7-5.6 2.7 2.3 4.9 4.7 5.4 7.5 1.2 5.9-4 9.8-9.4 9.5z"/><path class="st2" d="M147.1 458h12.8v56h-12.8z"/><path class="st2" d="M221.7 555.9c-2.8 0-5-2.2-5-5 0-16.6-28.9-30.6-63.2-30.6-34.3 0-63.2 14-63.2 30.6 0 2.8-2.2 5-5 5s-5-2.2-5-5c0-22.8 32.2-40.6 73.2-40.6s73.2 17.8 73.2 40.6c0 2.8-2.2 5-5 5z"/><path class="st3" d="M155.7 460.5h-4.4c-4.7 0-8.5-3.8-8.5-8.5v-50h21.4v50c0 4.7-3.8 8.5-8.5 8.5z"/><path d="M197.9 406.3h-91.2c-2.5 0-4.6-2-4.6-4.6V394h95.8v12.3z" fill="#6356bf"/><path fill="#5749bf" d="M164.2 394h43.6v12.3h-43.6z"/><path class="st2" d="M188.9 389.7l-6.1-123.5c-4.1-3.7-6-14.7-6.9-24.5-1-10.9-9.8-19.6-20.8-20.2-29.5-1.5-58 9.7-75.4 18.5-10.3 5.2-15 17.4-10.6 28.2 4.5 11.2 11.5 25.7 21.1 38.5 19 25.1 11.9 88.2 11.9 88.2h86.8v-5.2z"/><path class="st6" d="M271.7 260.2c-.6-2-1.4-4-2.3-5.8-6.4-12.7-19.7-16.7-31.7-22.5-3.7-1.8-8.4-5.4-12.5-6.1-16.7-3-29.4 3.2-35.8 17.9-6.1 14-8.5 29.4-15 43.2-12.6 26.8-36.3 44.5-36.3 75.8 0 0 39.4-4.9 47.9-5.3 8.5-.5 48.5-7 51.6-6l4.4-42.2 15.8 4.4v3.8s13.6.5 15.7-.3c2.1-.8 1.5-6.9 1.8-9.4.5-3.7.4-7.7.3-11.5 0-7.2-.4-14.4-1.3-21.5-.5-4.8-1.2-9.8-2.6-14.5z"/><path class="st7" d="M227.5 204.2s3.1 10-2 21.1c0 0 4.9 9.8 14.8 10.5 5.8.4 6.3.4 6.3.4l2.9-25.5c.1.1-7.8 5.8-22-6.5z"/><path class="st7" d="M213.5 198.4s-4 5.2-12.5-2.4c0 0-3.7-6.7-1.2-9.2 2.5-2.5 4.8-4 8.4-2.3 0 0-6.3-29 14.9-35.9 21.2-6.8 38.5 1.5 41.2 8 0 0 12.8 21.4 1.8 42.1-11 20.7-20.1 23.2-20.1 23.2s-10-.3-23.4-13.8l-9.1-9.7z"/><path class="st3" d="M249.6 219.7c1.4.1-.5.5 4.1-3.9 6.5-6.2 14.9-19.8 15.8-26.3 1-6.6-.1-22.8-3.1-28.7-3-5.9-10.8 7.7-23.8-3.1v-.1c0 .9-.1 1.6-.3 2.2 0 0-5 30.2-34.1 24.6-3.7-.7-7.6.3-8.4 4.6-.5 2.4.5 5 2.1 6.8 1.6 1.8 3.9 3 6.3 3.6 2.2.6 3.4 0 5.2-1 3.8 4.4 8.2 8.4 12.2 12.6l.9 3.8.2 3.3.3 3.7-1.6 3.6s1.6 2.8-13.8-3.4c-15.4-6.3-16.7 9.8-22 5.4-5.3-4.4-13.8-19.5-5.8-33.6 7.9-14.1 12.4-22 9.3-30.8-3.1-8.8 3.3-24.8 17.4-25.4 14.2-.6 16.6-1.6 23.2-3.1.7-.2 1.4-.1 2 .3 0 0 12.1-10 21.3-.7 9.3 9.3 13.6 8.8 15.8 19.3 2.2 10.5 7 8.8 5.3 18.7-1.7 9.9 5.3 11.6.5 23.1-3.9 9.4 1.3 10.3-.4 15.4-.3 1.1-1 2.3-2.1 3.9-6.3 8.9-5.7 8.1-4.5 12 1.2 3.9-5.5 5.7-11.5 3.8-6-2-11.8-3.2-11.8-3.2l.1-3.5v-.5l.3-3.3.9-.1z"/><path class="st8" d="M203.8 189.7s5.7.1 5.8 4.7l-5.8-4.7z"/><path class="st7" d="M263.6 317.1s18.9-2.3 23 1.3c0 0 .3 7-.9 7.8h-26.2s1.9-5.9 4.1-9.1zM193.9 500.5s-9.3 24.2-10.4 26.8c-1.1 2.6-4.5 11.5-3.6 16.4.9 4.9.2 12.4 4.6 13.3 4.3.9 7.4-3.8 8.5-6.4 1.1-2.6 3.8-16 4.8-19.4 1-3.3 4.3-29 4.3-29l-8.2-1.7z"/><path class="st6" d="M185.8 521.5s-3 17.6 3.1 16.4 10.3-14.4 10.3-14.4-3.5 33.4-13.2 33.4c-8.4.1-8.8-19.8-.2-35.4zM191.2 278.2s5.7 46.3 13.5 48.4 57.5 1.4 57.5 1.4c-3.4-5.3 4-13.5 4-13.5-3 0-43.6-10.7-43.6-10.7l-2.8-39.5-28.6 13.9z"/><path class="st3" d="M138.1 362.7s-4.9 28.3 24.7 32.3c29.5 3.9 39.4-1.8 39.4-1.8l-13.5 101.5c-.4 2.9 1.4 5.7 4.2 6.5 3.5 1 8.1 2 11.5 1.6 6-.7 7.5-8.9 7.5-8.9l13.5-52.7-2.1 36.7c-.2 3.3 2.4 6 5.7 6h11.1c2.7 0 5-1.8 5.6-4.4 4.3-18.5 9.8-36.7 14-55.3 4.6-20.6 26.2-56.8-.8-71.7-6.8-3.8-15.2-3.6-22.9-2.4-19.8 3.2-39.6 5.8-59.5 8.1-12.8 1.5-25.6 2.9-38.4 4.5z"/><path d="M225.4 441.2s8.2-43.8 10.7-57.6c2.5-13.9-12.8-14.9-12.8-14.9-16-3.2-21.1 24.6-21.1 24.6s7.1-19.8 13.5-21.2c6.4-1.4 11.9-1.9 14.5.9 2.6 2.8 1.9 15.7 2.4 18.3.4 2.5-7.2 49.9-7.2 49.9z" fill="#413693"/><path class="st7" d="M248.5 220.2c.2-1.2.6-.9 1.5-1.6 3.2-2.4 9.8-8.6 12.7-15 .4-.9 2.5-2.2 3.4-2 .9.3 1.3 1.4 1.3 2.4.2 4-.9 7.9-2.6 11.5-.7 1.5-1.6 2.8-2.9 3.8-1.9 1.5-3.6 2.5-4.9 4.7-1.1 1.7-2.1 3.6-2.8 5.5.4 3.6.9 7.1 1.3 10.7.1.6 1.1 7.8.5 8-3.7 1.2-7.5 1.2-11.4 0l3.9-28z"/><path class="st3" d="M225.2 225.8s7.1-3.7 3.6-12.3c-3.6-8.6-13.3-15.1-7.1-21.4 6.2-6.4 8.1-7.7 13.2-16 5.1-8.4-15.2-2.4-15.2-2.4s-23.1 9.9-23.1 10.3c0 .4-1.7 16.6-.7 17.7.9 1.1 16.8 9 17.6 9.2.5.2 10.2 8.5 11.7 14.9z"/><path class="st10" d="M204.8 326.6s-4.5-2.7-7.2-14.2-6.3-30.8-6.3-34.2-.9-6.2 0-9.3c0 0-.9 8.9-1.4 13-.5 4.1-1.6 7.2 0 14.3 1.6 7.1 1.8 9.4 1.4 12.8-.4 3.4 0 19.2 0 19.2h13.5v-1.6zM215.7 260.9s2.8.9 3.7 5.6c.8 4.6 1.5 14 1.7 16.8.2 2.9 1.4 19.4 1.4 20 0 .6 7.1 2.4 9.3 3 2.2.6 9.6 2.4 9.6 2.4s-12.8-3.8-12.8-5.6-3.5-1.7-2.8-5.2c.7-3.6-4.4-15.2-4-18.4.4-3.2-.6-16.6-2.8-17.3-2.4-.7-3.3-1.3-3.3-1.3zM241.4 308.7s23.9 5.9 24.8 5.8c0 0-21.7-6-24.8-5.8z"/><path class="st10" d="M244.6 248.3s-4 57.7-4.3 60.1c0 0 1.4.1 2.2.5.8.5-.5-27.8.7-31 1.2-3.1 1.4-29.6 1.4-29.6zM256 248.3l5.3 65s-.8-.4-1.7-.4c-.8 0-1-22-1.3-25.8-.4-3.6-2.3-38.8-2.3-38.8z"/><path class="st7" d="M229.5 483.9l-4.9 25.4c-.4 2 .3 4.1 1.8 5.5 3.2 3 8.6 8.4 9.9 11.8 1.9 4.9 6.1 11.3 9.6 12.9 3.6 1.6 8.6 1.2 9.4-1 .7-2.2-7.6-14.7-9.5-19-1.9-4.3-7.3-29.6-5.5-35.5h-10.8z"/><path class="st6" d="M227.2 495.8s5.2 15.4 8.1 19c2.9 3.5 6.6 11.3 9.8 14.2 3.2 2.9 6.3.3 5.1-1.7 0 0 5.1 9.4 5.1 10.3 0 .8-.2 3.7-7.4 2.5-7.2-1.2-11.3-12.8-11.3-12.8s-4.1-7.5-8.6-10.9c-4.5-3.5-3.4-7.1-3.4-7.1l2.6-13.5z"/><path class="st11" d="M246 221.8c-5.7.2-17.3-8.3-17.3-8.3 1.4 2.8.9 6 .9 6 2.5.5 4.9 1.4 7.2 2.4l3 1.5c1 .5 2 1 2.7 1.8 1.4 1.5 2.2 4.5 1.5 6.5-.7 1.9-2.6 2.9-4.4 3.3-.7.2-1.4.3-2.1.4 0 0 6.6 1.3 8.7.9l1.1-7.9 1-7-2.3.4z"/><path class="st8" d="M247.8 213h-.7c-2.1-.3-3.3-1.9-3.3-1.9-.2-.2-.1-.5.1-.7.2-.2.5-.1.7.1 0 0 1 1.3 2.7 1.5 1.2.2 2.5-.3 3.8-1.2.2-.2.5-.1.7.1.2.2.1.5-.1.7-1.4.9-2.7 1.4-3.9 1.4z"/><path class="st3" d="M237.3 181.7s7.1-3.6 9.4-2.6c.3.1.8.2 1 .5.5.9-.9.8-1.5.9-2.9.3-5.7 1-8.6 1.6 0 0-.9-.1-.3-.4zM268.8 181.4s-6.9-4-9.2-3.1c-.3.1-.8.2-1 .5-.5.9.9.9 1.5 1 2.9.5 5.6 1.4 8.5 2.1-.1-.1.7-.2.2-.5zM243.9 190.3c0 1.4-.6 2.5-1.3 2.5s-1.3-1.1-1.3-2.5.6-2.5 1.3-2.5 1.3 1.1 1.3 2.5zM262.3 190.3c0 1.4-.6 2.5-1.3 2.5s-1.3-1.1-1.3-2.5.6-2.5 1.3-2.5 1.3 1.1 1.3 2.5z"/><g><path class="st8" d="M252.7 203.1c-1 0-1.4-.3-1.5-.4-.2-.2-.2-.5-.1-.7.2-.2.5-.2.7-.1 0 0 .6.4 2.3-.1.5-.1.5-.3.5-.3.1-.2-.6-1-1-1.7-.5-.6-1-1.3-1.6-2.2-2.2-3.3-.2-11.5-.1-11.8.1-.3.3-.4.6-.4.3.1.4.3.4.6 0 .1-2 8.1-.1 11 .6.9 1.1 1.6 1.5 2.2.9 1.2 1.4 1.9 1.2 2.6-.2.6-.8.8-1.2.9-.5.3-1.1.4-1.6.4z"/></g><g><path class="st11" d="M246 221.8s2.6-3.2 4.4-5.5c1.8-2.3 5-4.5 6.7-6.2 1.7-1.8 6.5-8.6 7.6-9 0 0-5.1 7.8-5.8 8.7-.7.9-9.2 8.9-10.1 9.8l-.5 1.8-2.3.4z"/></g><g><path class="st7" d="M514.4 531c.3 0 1.3-1.7 1.5-2 .5-.7 1-1.5 1.4-2.3.9-1.6 1.6-3.2 2.2-4.9 1-3.2.8-6.6-.8-9.5-.3-.6-.7-1.1-1.3-1.4-.7-.3-1.6-.2-2.3.2-.7.4-1.3 1-1.8 1.7-.9 1.2-1.8 2.3-2.6 3.5-.6.9-1.2 1.9-1.7 2.9-.2.3-1.3 2.9-1.6 2.9l-32.4-3.8V531h39.4z"/><path class="st7" d="M475 530.3l43.7.8c2.2-4.6 4.7-7.2 6.8-8.7 3.2-2.2 7.6 0 7.6 3.8.1 5.9-4.9 14.3-6 15.4-1.6 1.6-8.7 3.6-16.7 4.4-8 .8-35.4 0-35.4 0v-15.7z"/><path class="st11" d="M475 529.4s15.6.5 18.7.5c3.1.1 22.5-.7 24.5-4.8 0 0-2.5 5-3.7 5.8H475v-1.5z"/><path class="st3" d="M423.9 520.8s2.8 11.8 9.4 21.4c10.2 14.9 41.7 8.2 41.7 8.2 1-7.2.9-14.5 0-21.9.3-4.7.4-9.3 0-13.7l-51.1 6z"/><path class="st6" d="M451.3 470.2c0-.2-.1-.4-.2-.6-.3-.7-1.3-2.7-2.7-3.3l-1.4-1-1.2-.5c-3.7-2.5-9.4-4.1-17-1.1-1 .4-1.8 3.8-2.2 4.6-1.5 3.8-2.8 7.8-3.8 11.8-2.5 9.7-3.4 19.6-1.9 29.6 1 6.4 2.8 12.3 4.7 18.3 0 0 33.5 4.9 40.5-12.2.1.1-13.8-39.3-14.8-45.6z"/><path class="st7" d="M438.8 497.3s9.2 13.6 12.3 13.8c3.1.3 28.2-5.6 29.8-6.3s12.7-5.2 11.5-14.9l-9 7.1s-19 3.1-27.7 1.5l-6.2-8.7c-2 3.1-5.2 5.8-10.7 7.5z"/><path class="st12" d="M472.3 491.3l11.2 5.7 31.4-24.8-15.4-10z"/><path class="st13" d="M514.9 472.2l3.1-13.6-4.6-2.2-1.9 8.5s-6.7-5.6-12.2-5.6l.1 3 15.5 9.9z"/><path class="st14" d="M499.4 459.3l-27.1 28.5v3.5l27.2-29.1zM513.5 456.5l-5.7 5.7 3.8 2.7z"/><path class="st7" d="M459.4 496.3l11.5-12.4s2.3-3.3 4-3.3h4.3l-6.9 7.3v3.5l2.6 1.4s-2.7 4-5.1 6c-3.4.3-6.6.4-9.6.3l-.8-2.8z"/><path d="M463 522.8l2.4 5.8 9.6.8s-1 .8-3.1.9c-2 .1-7.3-.9-7.3-.9l-1.6-6.6z" fill="#342893"/><path class="st7" d="M428.6 438.4s6.2 7.5 1.9 20l-2.3 5.8s12.2-1 17.7 4.1 4 1.6 4 1.6-3.4-6.5-2.1-13.4c1.6 2 3.4 3.8 5.4 5.3.8.6 1.7 1.2 2.6 1.6 1.4.6 3.1.4 4.6.2 1.5-.1 2.9-.3 4.3-.6.9-.2 1.8-.5 2.7-.9 1.1-.6 1.9-1.5 2.7-2.4.6-.7 1.6-2.1 2.6-2.2 1.1-.1 2.3-.4 3.3-.9.6-.2 1.1-.5 1.6-1 .5-.6.5-1.5.3-2.3-.1-.7-.5-1.3-.8-2-.3-.6-.5-1.3-.6-2-.3-1.6-.2-3.2.6-4.6 0 0 8.3-9.4 10.4-14.5 2-5.1 3.8-12.2 0-14.8-3.8-2.6-29.6-31.5-49-9.7-19.5 21.8-9.9 32.7-9.9 32.7z"/><path class="st8" d="M444.2 440.2c-1.2-.4-2.3-1.1-3.3-1.9-1-.9-1.8-2-2.3-3.2-.5-1.2-.7-2.6-.4-4 0-.7.3-1.3.4-2 .2-.6.5-1.2.7-1.8.9-1.3 1.9-2.4 3.1-3.3.6-.4 1.4-.8 2.2-.9.9-.1 1.7.4 2.3 1 1 1.1 1.8 2.4 2.5 3.7.6 1.3 1.2 2.7 1.6 4.1-.6-1.3-1.3-2.6-2-3.8-.7-1.2-1.6-2.4-2.6-3.4-.5-.4-1-.7-1.6-.6-.6.1-1.2.4-1.8.8-1.1.8-2.1 1.9-2.9 3v-.1c-.2.6-.5 1.1-.7 1.7l-.2.9c-.1.3-.2.6-.2.9l-.1.9v.9c0 .3.1.6.1.9 0 .3.1.6.2.9.3 1.2 1 2.2 1.9 3.1 1 .8 2 1.6 3.1 2.2zM469 461h-.1c-5.5-1.2-5.2-6.4-5.2-6.4 0-.3.3-.5.5-.5.3 0 .5.3.5.5s-.2 4.4 4.4 5.4c.3.1.4.3.4.6 0 .2-.2.4-.5.4z"/><path class="st3" d="M438.6 434.4s-4.7 6.4-8.8 5.8c0 0-2.5-4-5.5-5.8-3.1-1.8-5.1-6.3-2.3-10.9 2.8-4.6-3.8-9.3 1.3-12.2 5.1-3 7.1-13.8 12.1-16.3 5-2.4 1.6-1.9 10.2-2 8.6-.1 9-4.4 14.8-1.6 5.8 2.8 6.5 4.4 15.1 6.3 8.6 1.8 11.4 1.4 13.2 8.9 1.7 7.5 6.7 7 4.3 10.8-2.4 3.8-2.2 8.2-3.3 8.9-1.1.7.6-4.2-7.2-3.4-7.8.8-9.7-6.3-16.9-2.4-7.3 3.9-12.5 6.5-14.4 5.9-1.9-.5-2.4.6-2.4.6s-2.8-6.2-7.5-1.2c-4.9 5-2.7 8.6-2.7 8.6z"/><path class="st11" d="M460.3 499s8.9 0 9.6-.3l1.9-1.9s-.7.8-4.4 1.1c-3.8.3-7.3-1.1-7.5-2l-.4.4.8 2.7z"/><path class="st3" d="M471 443.3c-.3.9-1.2 1.3-1.9 1-.7-.3-1-1.2-.6-2.1.3-.9 1.2-1.3 1.9-1 .6.3.9 1.2.6 2.1zM466.4 434.9s8-.6 9.7 1.2c.2.2.7.5.7.9.1 1-1.2.4-1.7.2-2.8-.8-5.7-1.2-8.5-1.8-.1 0-.9-.5-.2-.5z"/><path class="st10" d="M445.9 475.3l6.6 12.5c-4.4 4.9-9.4 8.6-15.3 10.8l-6.6-14s6.4 13.3 7.3 12.5c.9-.8 5.1-4 6.8-4.9 1.7-.9 6.6-3.3 6.5-4.4-.2-1.2-5.3-12.5-5.3-12.5z"/></g><g><path class="st2" d="M527.9 339H170.6c-3.5 0-6.4-2.9-6.4-6.4 0-3.5 2.9-6.4 6.4-6.4h357.3c3.5 0 6.4 2.9 6.4 6.4 0 3.5-2.9 6.4-6.4 6.4z"/><path class="st12" d="M361.3 325.9h-76.1c-3.6 0-6.3-3.4-5.6-6.9l11.7-52.7c.6-2.6 2.9-4.5 5.6-4.5H373c3.6 0 6.3 3.4 5.6 6.9l-11.7 52.7c-.6 2.6-3 4.5-5.6 4.5z"/><path class="st13" d="M364.1 325.9H288c-3.6 0-6.3-3.4-5.6-6.9l11.7-52.7c.6-2.6 2.9-4.5 5.6-4.5h76.1c3.6 0 6.3 3.4 5.6 6.9l-11.7 52.7c-.6 2.6-2.9 4.5-5.6 4.5z"/><path class="st2" d="M390.5 341.5l-70.4 206c-.9 2.6-3.8 4-6.4 3.1l-2.6-.9c-2.6-.9-4-3.8-3.1-6.4l70.4-206c.9-2.6 3.8-4 6.4-3.1l2.6.9c2.6 1 4 3.8 3.1 6.4z"/><path class="st2" d="M308 341.5l70.4 206c.9 2.6 3.8 4 6.4 3.1l2.6-.9c2.6-.9 4-3.8 3.1-6.4l-70.4-206c-.9-2.6-3.8-4-6.4-3.1l-2.6.9c-2.6 1-4 3.8-3.1 6.4z"/><path class="st16" d="M339.3 292.9c-.2 3.4-3.2 6-6.6 5.8-3.4-.2-6-3.2-5.8-6.6.2-3.4 3.2-6 6.6-5.8 3.5.2 6.1 3.2 5.8 6.6z"/></g><g><path class="st0" d="M456.4 361c-.3 4.3.3 4 4.4 10.3 4.1 6.3-1.5 12.2-5.8 10.5-.9-.4-1.8-1.2-2.6-2.4-3-4.2-5.4-12.5-6.6-17.2-1.5-6-6.7-36.1-6.7-36.1h-28.6c-7.2-.1-12.4-8.2-9.9-16.1 1.5-4.9 2.7-5.8 2.7-5.8l-1.5-14.5 9.2 7.7c11-4 18.9.5 18.9.5 4.2-5.7 11.6-7.2 11.6-7.2l-1 13c7.9-2.1 15.8-3.9 22.9-8 2.9-1.7 5.6-3.6 8.3-5.5l.2-.1c3.3-2.3 6.7-4.6 10.6-6 4.8-1.9 10-2.4 15.2-2.5 4.6-.1 9.3.1 13.5 1.8 4.9 2 8.8 6 11.6 10.6.3.4.5.9.8 1.3 2.7 4.8 4.9 10.4 5.4 15.8.5 5.6.8 9.6.3 15.1H460c0-.1-3.2 30.4-3.6 34.8z"/><path class="st17" d="M411.7 312.3h-.4c-2.1-.2-3.5-1.8-3.5-1.8-.1-.1-.1-.4 0-.5.1-.1.4-.1.5 0 0 0 1.2 1.4 3 1.6 1.3.1 2.6-.4 3.9-1.6.1-.1.4-.1.5 0 .1.1.1.4 0 .5-1.3 1.2-2.6 1.8-4 1.8zM426.2 312.3h-.4c-2.1-.2-3.5-1.8-3.5-1.8-.1-.1-.1-.4 0-.5.1-.1.4-.1.5 0 0 0 1.2 1.4 3.1 1.6 1.3.1 2.6-.4 3.9-1.6.1-.1.4-.1.5 0 .1.1.1.4 0 .5-1.4 1.2-2.7 1.8-4.1 1.8z"/><path class="st1" d="M432.8 298.8s4.7-4 6.5-3.9c0 0-.7 5.4-.9 6.9-.1-.1-2.8-2.8-5.6-3zM405.6 301.7s-1.2-5-.8-6c0 0 3 .9 4.5 2.5 0 .1-3.2 2-3.7 3.5zM455.1 381.8c-.9-.4-1.8-1.2-2.6-2.4 0-.4 1.1-8.2 8.4-8.1 4 6.3-1.6 12.2-5.8 10.5z"/></g><g><path class="st13" d="M375.1 132.9l-22.7-21.2-22.6 21.2h-.1v32.6h45.4v-32.6z"/><path d="M352.4 154.7l-23-21.4c-.2-.2-.2-.5 0-.7.2-.2.5-.2.7 0l22.3 20.8 22.3-20.8c.2-.2.5-.2.7 0 .2.2.2.5 0 .7l-23 21.4z" fill="#fff"/><path class="st16" d="M366.6 120.4v20.5L352.4 154l-14.2-13.2v-20.4z"/><path class="st13" d="M203.4 88c0-4.4-3.6-8-8-8h-15.9c-4.4 0-8 3.6-8 8v7.1c0 4.4 3.6 8 8 8h15.8l4.9 5.1c1.2 1.2 3.2.4 3.2-1.3v-9.8V88z"/><circle class="st16" cx="179.7" cy="91.8" r="2.7"/><path class="st16" d="M190.1 91.8c0 1.5-1.2 2.7-2.7 2.7-1.5 0-2.7-1.2-2.7-2.7 0-1.5 1.2-2.7 2.7-2.7 1.5 0 2.7 1.2 2.7 2.7zM197.9 91.8c0 1.5-1.2 2.7-2.7 2.7-1.5 0-2.7-1.2-2.7-2.7 0-1.5 1.2-2.7 2.7-2.7 1.5 0 2.7 1.2 2.7 2.7zM274.2 81.9s4.7-6.3 13.4-3.3L282 85l-7.8-3.1z"/><path class="st13" d="M292.2 98.9c-1.3 5.2-9.9 13.7-9.9 13.7l-1 1c-3 3-7.8 3.5-11.1.9-1.6-1.3-2.6-3-1.6-5.2 2.6-5.9 6.5-6.2 6.9-11.3.1-1.5 0-3.5-.1-5.6 0-.4-.1-.8-.1-1.3-.4-4.7-1.1-9.4-1.1-9.4 4.2 1.5 8.7.1 13.4-3.3 0 0 1.5 3.7 2.8 8.1l.3.9c1.2 4.5 2.1 9.1 1.5 11.5z"/><path class="st16" d="M290.7 87.7h-.3c-3.3-1.4-4.5 1-4.5 1.1 0 0-1.5 3.3-5.7 1.7-1.1-.4-2.1-.4-2.9 0-1.1.5-1.5 1.7-1.5 1.7-.1.2-.2.3-.4.3 0-.4-.1-.8-.1-1.3.3-.5.8-1.1 1.6-1.5 1-.5 2.2-.5 3.6 0 3.4 1.3 4.6-1.2 4.6-1.3 0 0 1.5-3.1 5.3-1.7.1.4.2.7.3 1z"/><g><path class="st13" d="M151.7 165.8v-20.1c0-7.1-5.8-12.9-12.9-12.9H109c-7.1 0-12.9 5.8-12.9 12.9v20.1h55.6z"/><path class="st16" d="M123.8 130.3v3h1.8v-3.1c2.3-.5 3.9-2.5 3.9-4.9 0-2.5-3.6-6.8-4.3-7.6-.4-.4-1-.4-1.4 0-.7.8-4.3 5.1-4.3 7.6s1.9 4.7 4.3 5zm.6-10.7c1.4 1.8 3.3 4.3 3.3 5.6 0 1.8-1.4 3.3-3.3 3.3s-3.3-1.4-3.3-3.3c.1-1.2 1.9-3.8 3.3-5.6zM151.7 146.6c-1.8.4-2.8 1.4-3.8 2.3-1.2 1.1-2.2 2-4.2 2s-3.1-.9-4.2-2c-1.3-1.2-2.7-2.4-5.4-2.4-2.8 0-4.2 1.3-5.4 2.4-1.2 1.1-2.2 2-4.2 2-2.1 0-3.1-.9-4.2-2-1.3-1.2-2.7-2.4-5.4-2.4-2.8 0-4.2 1.3-5.4 2.4-1.2 1.1-2.2 2-4.2 2s-3.1-.9-4.2-2c-1.1-1-2.5-2.2-4.7-2.4v1.7c1.7.2 2.6 1 3.7 1.9 1.3 1.2 2.7 2.4 5.4 2.4 2.8 0 4.2-1.3 5.4-2.4 1.2-1.1 2.2-2 4.2-2 2.1 0 3.1.9 4.2 2 1.3 1.2 2.7 2.4 5.4 2.4 2.8 0 4.2-1.3 5.4-2.4 1.2-1.1 2.2-2 4.2-2s3.1.9 4.2 2c1.3 1.2 2.7 2.4 5.4 2.4s4.2-1.3 5.4-2.4c.8-.7 1.5-1.3 2.5-1.7v-1.8zM152.1 170.8H94.7c-1.4 0-2.5-1.1-2.5-2.5s1.1-2.5 2.5-2.5H152c1.4 0 2.5 1.1 2.5 2.5.1 1.3-1 2.5-2.4 2.5z"/></g><g><path class="st6" d="M115.3 93.4c0 3-2.4 5.4-5.4 5.4-3 0-5.4-2.4-5.4-5.4s2.4-5.4 5.4-5.4c3 0 5.4 2.4 5.4 5.4z"/></g><g><path class="st6" d="M408.5 193.5c0 3-2.4 5.4-5.4 5.4-3 0-5.4-2.4-5.4-5.4 0-3 2.4-5.4 5.4-5.4 3 .1 5.4 2.4 5.4 5.4z"/></g><g><path class="st0" d="M237.4 84.9l2.7 4.9 4.9 2.7-4.9 2.7-2.7 4.9-2.7-4.9-4.9-2.7 4.9-2.7z"/></g><g><path class="st2" d="M96.7 101.8c-.2 0-.3-.1-.4-.2-.1-.2-.1-.5.2-.7 1.6-1 2.6-1.5 2.6-1.5.2-.1.5 0 .7.2.1.2 0 .5-.2.7 0 0-1 .5-2.6 1.5h-.3zM63.5 162.9c-.2 0-.4-.1-.5-.3-.8-2-1.3-4.1-1.7-6.1-.1-.3.1-.5.4-.6.3-.1.5.1.6.4.4 2 1 4 1.7 6 .1.3 0 .5-.3.6h-.2zm-2.3-12.3c-.3 0-.5-.2-.5-.5v-.4c0-2 .2-3.9.5-5.9 0-.3.3-.5.6-.4.3 0 .5.3.4.6-.3 1.9-.5 3.8-.5 5.7v.4c0 .3-.2.5-.5.5zm2-12.4H63c-.3-.1-.4-.4-.3-.6.7-1.9 1.5-3.9 2.5-5.8.1-.2.4-.3.7-.2.2.1.3.4.2.7-1 1.9-1.8 3.8-2.4 5.7-.1.1-.3.2-.5.2zm5.7-11.2c-.1 0-.2 0-.3-.1-.2-.2-.3-.5-.1-.7 1.1-1.7 2.4-3.4 3.8-5.1.2-.2.5-.2.7-.1.2.2.2.5.1.7-1.4 1.6-2.6 3.3-3.7 5-.2.3-.3.3-.5.3zm8-9.7c-.1 0-.3 0-.3-.1-.2-.2-.2-.5 0-.7 1.4-1.5 3-2.9 4.6-4.4.2-.2.5-.2.7 0 .2.2.2.5 0 .7-1.6 1.4-3.1 2.9-4.5 4.3-.3.2-.4.2-.5.2zm9.4-8.3c-.1 0-.3-.1-.4-.2-.2-.2-.1-.5.1-.7 1.6-1.3 3.4-2.5 5.1-3.7.2-.2.5-.1.7.1.2.2.1.5-.1.7-1.7 1.2-3.4 2.4-5.1 3.7-.1 0-.2.1-.3.1zM67.7 171.2c-.2 0-.3-.1-.4-.2-.5-.9-1-1.8-1.5-2.6-.1-.2 0-.5.2-.7.2-.1.5 0 .7.2.5.9 1 1.7 1.5 2.6.1.2.1.5-.2.7h-.3z"/></g><g><path class="st2" d="M246.1 79.8c-.1 0-.2 0-.3-.1-.2-.2-.3-.5-.1-.7 0 0 .6-1 1.8-2.5.2-.2.5-.3.7-.1.2.2.3.5.1.7-1.1 1.4-1.7 2.4-1.7 2.4-.2.2-.4.3-.5.3zM343.8 99.2h-.1c-2-.5-3.8-1.2-5.5-2-.2-.1-.3-.4-.2-.7.1-.2.4-.3.7-.2 1.7.8 3.4 1.5 5.3 2 .3.1.4.3.4.6-.2.1-.4.3-.6.3zm-10.4-5.1c-.1 0-.2 0-.3-.1-1.3-1-2.7-2.2-4.5-3.8-.2-.2-.2-.5 0-.7.2-.2.5-.2.7 0 1.7 1.5 3.1 2.7 4.4 3.7.2.2.3.5.1.7-.1.1-.2.2-.4.2zm-8.6-7.7c-.1 0-.2 0-.3-.1l-.3-.3c-1.2-1.1-2.5-2.4-3.9-3.7-.2-.2-.2-.5 0-.7.2-.2.5-.2.7 0 1.4 1.3 2.7 2.5 3.9 3.7l.3.3c.2.2.2.5 0 .7-.2.1-.3.1-.4.1zm-8.5-7.9c-.1 0-.2 0-.3-.1-1.5-1.3-2.9-2.6-4.4-3.8-.2-.2-.2-.5-.1-.7.2-.2.5-.2.7-.1 1.5 1.3 2.9 2.5 4.4 3.8.2.2.2.5 0 .7 0 .2-.2.2-.3.2zm-64.7-5.6c-.1 0-.2 0-.3-.1-.2-.2-.2-.5 0-.7 1.3-1.4 2.8-2.8 4.2-4.1.2-.2.5-.2.7 0 .2.2.2.5 0 .7-1.4 1.2-2.8 2.6-4.1 4-.2.2-.4.2-.5.2zm55.9-1.9c-.1 0-.2 0-.3-.1-1.4-1.2-2.9-2.4-4.5-3.6-.2-.2-.3-.5-.1-.7.2-.2.5-.3.7-.1 1.6 1.2 3.1 2.5 4.5 3.6.2.2.2.5.1.7-.1.1-.3.2-.4.2zm-47.2-5.7c-.2 0-.3-.1-.4-.2-.2-.2-.1-.5.1-.7 1.6-1.2 3.3-2.2 5-3.1.2-.1.5 0 .7.2.1.2 0 .5-.2.7-1.6.9-3.3 1.9-4.9 3-.1 0-.2.1-.3.1zm37.9-1.3c-.1 0-.2 0-.3-.1-1.7-1.1-3.3-2-5-2.8-.3-.1-.4-.4-.2-.7.1-.3.4-.4.7-.2 1.7.8 3.4 1.7 5.1 2.8.2.1.3.5.1.7 0 .2-.2.3-.4.3zm-27.6-4.1c-.2 0-.4-.1-.5-.3-.1-.3.1-.5.3-.6 1.9-.6 3.8-1.1 5.7-1.4.3 0 .5.2.6.4 0 .3-.2.5-.4.6-1.8.3-3.7.7-5.5 1.3h-.2zm17.1-.7h-.1c-1.9-.5-3.8-.8-5.6-.9-.3 0-.5-.3-.5-.5 0-.3.3-.5.5-.5 1.9.1 3.9.4 5.8.9.3.1.4.3.4.6-.1.3-.3.4-.5.4zM352.6 100.6c-.1 0-.1 0 0 0-1.1-.1-2.1-.2-3-.3-.3 0-.5-.3-.4-.6 0-.3.3-.5.6-.4.9.1 1.9.2 3 .3.3 0 .5.3.5.5-.3.3-.5.5-.7.5z"/></g><g><path class="st2" d="M390.5 189.4h-.2s-1-.5-2.7-1.1c-.3-.1-.4-.4-.3-.6.1-.3.4-.4.6-.3 1.8.6 2.8 1.1 2.8 1.1.3.1.4.4.2.7-.1.1-.3.2-.4.2zM314.1 229.6c-.2 0-.4-.1-.5-.3-.1-.3 0-.5.3-.7 1.8-.7 3.5-1.6 5.2-2.5.2-.1.5 0 .7.2.1.2 0 .5-.2.7-1.7.9-3.5 1.8-5.3 2.5-.1.1-.2.1-.2.1zm10.2-5.5c-.2 0-.3-.1-.4-.2-.2-.2-.1-.5.1-.7 1.6-1.1 3.2-2.2 4.7-3.4.2-.2.5-.1.7.1.2.2.1.5-.1.7-1.5 1.2-3.1 2.4-4.7 3.5h-.3zm9.1-7.3c-.1 0-.3 0-.4-.1-.2-.2-.2-.5 0-.7 1.4-1.4 2.7-2.8 3.9-4.3.2-.2.5-.2.7-.1.2.2.2.5.1.7-1.2 1.5-2.6 3-3.9 4.4-.2.1-.3.1-.4.1zm7.3-9c-.1 0-.2 0-.3-.1-.2-.1-.3-.5-.1-.7 1-1.6 2-3.3 2.9-5 .1-.2.4-.3.7-.2.2.1.3.4.2.7-.9 1.7-1.9 3.5-2.9 5.1-.2.1-.3.2-.5.2zm5.4-10.3c-.1 0-.2 0-.2-.1-.2-.1-.3-.4-.2-.7 1-1.8 2.2-3.4 3.5-4.8.2-.2.5-.2.7 0 .2.2.2.5 0 .7-1.2 1.4-2.4 2.9-3.3 4.6-.1.2-.3.3-.5.3zm7.8-8.5c-.2 0-.3-.1-.4-.2-.2-.2-.1-.5.1-.7 1.6-1.1 3.4-2 5.3-2.6.3-.1.5 0 .6.3.1.3 0 .5-.3.6-1.8.6-3.5 1.5-5.1 2.5 0 0-.1.1-.2.1zm28.2-2.5h-.1c-1.9-.5-3.8-.9-5.7-1.2-.3 0-.5-.3-.4-.6 0-.3.3-.5.6-.4 1.9.3 3.8.7 5.8 1.2.3.1.4.3.4.6-.2.3-.4.4-.6.4zm-17.3-1.4c-.2 0-.5-.2-.5-.4 0-.3.2-.5.4-.6 1.9-.2 3.9-.3 5.9-.3.3 0 .5.2.5.5s-.2.5-.5.5c-1.9-.1-3.9 0-5.8.3.1 0 0 0 0 0zM305.7 232.4c-.2 0-.4-.2-.5-.4-.1-.3.1-.5.4-.6 0 0 1.1-.2 2.8-.8.3-.1.5.1.6.3.1.3-.1.5-.3.6-1.8.6-2.9.8-3 .9 0-.1 0 0 0 0z"/></g></g></svg>