<svg xmlns="http://www.w3.org/2000/svg" xmlns:xlink="http://www.w3.org/1999/xlink" width="1280" height="800" viewBox="0 0 1280 800">
  <defs>
    <filter id="Path_520" x="300.525" y="31.65" width="678.95" height="118.65" filterUnits="userSpaceOnUse">
      <feOffset dy="5" input="SourceAlpha"/>
      <feGaussianBlur stdDeviation="3.5" result="blur"/>
      <feFlood flood-opacity="0.161"/>
      <feComposite operator="in" in2="blur"/>
      <feComposite in="SourceGraphic"/>
    </filter>
    <clipPath id="clip-examples-of-corporate-sustainability-initiatives02">
      <rect width="1280" height="800"/>
    </clipPath>
  </defs>
  <g id="examples-of-corporate-sustainability-initiatives02" clip-path="url(#clip-examples-of-corporate-sustainability-initiatives02)">
    <rect width="1280" height="800" fill="#fff"/>
    <g id="Group_52" data-name="Group 52" transform="translate(508 751)">
      <g id="nav__logo__e_1_">
        <path id="Path_137" data-name="Path 137" d="M23.4,35.564h9.954a1.93,1.93,0,0,0,1.935-1.843V26.9A36.608,36.608,0,0,1,23.4,35.564Z" transform="translate(-1.833 -2.107)" fill="#7fbb65"/>
        <path id="Path_138" data-name="Path 138" d="M19.731,10.977C19.639,9.226,18.348,8.12,15.583,8.4,10.146,8.765,6,14.94,4.8,21.3,16.6,20.378,19.823,13.189,19.731,10.977Z" transform="translate(-0.376 -0.654)" fill="#7fbb65"/>
        <path id="Path_139" data-name="Path 139" d="M18.341,3.963c5.622-.369,8.2,1.843,8.387,4.608.461,6.083-9.493,13.272-22.581,14.378H3.963a10.209,10.209,0,0,0,.369,5.069c.922,2.4,3.318,3.318,6.083,3.318,12.166,0,21.106-13.456,23.041-19.539V1.843A1.871,1.871,0,0,0,31.521,0H1.843A1.849,1.849,0,0,0,0,1.843V15.484C4.793,9.4,12.166,4.424,18.341,3.963Z" fill="#7fbb65"/>
      </g>
      <g id="nav__logo__edgepoint_1_" transform="translate(51.982 7.097)">
        <path id="Path_140" data-name="Path 140" d="M62.3,23.683a4.855,4.855,0,0,0,3.779-1.659l1.106.922a6.365,6.365,0,0,1-4.885,2.3,5.892,5.892,0,0,1-5.9-6.175c0-3.41,2.4-6.175,5.714-6.175,3.5,0,5.53,2.857,5.53,6.267v.553H58.151A4.081,4.081,0,0,0,62.3,23.683Zm3.41-5.346c-.184-2.12-1.475-4.055-3.779-4.055-2.028,0-3.594,1.751-3.871,4.055Z" transform="translate(-56.4 -8.107)" fill="#7fbb65"/>
        <path id="Path_141" data-name="Path 141" d="M81.33,24.566v-2.4a5.23,5.23,0,0,1-4.516,2.673A5.856,5.856,0,0,1,71.1,18.668a5.856,5.856,0,0,1,5.714-6.175,5.228,5.228,0,0,1,4.516,2.581V7.7h1.751V24.566Zm-4.24-10.6c-2.3,0-4.147,1.751-4.147,4.608s1.935,4.608,4.147,4.608a4.452,4.452,0,0,0,4.332-4.608A4.452,4.452,0,0,0,77.091,13.967Z" transform="translate(-57.552 -7.7)" fill="#7fbb65"/>
        <path id="Path_142" data-name="Path 142" d="M93.7,28.66A9.258,9.258,0,0,1,88.261,27l.829-1.382A8.066,8.066,0,0,0,93.7,27.094c2.581,0,4.332-1.475,4.332-4.24V21.471a5.681,5.681,0,0,1-4.7,2.581,5.427,5.427,0,0,1-5.53-5.53A5.5,5.5,0,0,1,93.33,12.9a5.773,5.773,0,0,1,4.7,2.4v-2.12h1.751v9.77C99.689,26.725,97.293,28.66,93.7,28.66Zm-.092-14.286a3.892,3.892,0,0,0-4.147,4.055,4,4,0,0,0,4.147,4.055A4.176,4.176,0,0,0,98.03,18.43,4.23,4.23,0,0,0,93.606,14.375Z" transform="translate(-58.86 -8.107)" fill="#7fbb65"/>
        <path id="Path_143" data-name="Path 143" d="M110.2,23.683a4.855,4.855,0,0,0,3.779-1.659l1.106.922a6.365,6.365,0,0,1-4.885,2.3,5.892,5.892,0,0,1-5.9-6.175c0-3.41,2.4-6.175,5.714-6.175,3.5,0,5.53,2.857,5.53,6.267v.553h-9.4A3.948,3.948,0,0,0,110.2,23.683Zm3.41-5.346c-.184-2.12-1.475-4.055-3.779-4.055-2.028,0-3.594,1.751-3.871,4.055Z" transform="translate(-60.153 -8.107)" fill="#7fbb65"/>
        <path id="Path_144" data-name="Path 144" d="M126.067,25.235a5.228,5.228,0,0,1-4.516-2.581v5.991H119.8V13.069h1.751v2.3a5.23,5.23,0,0,1,4.516-2.673,5.856,5.856,0,0,1,5.714,6.175C131.782,22.838,128.924,25.235,126.067,25.235ZM125.7,14.359a4.452,4.452,0,0,0-4.332,4.608,4.34,4.34,0,0,0,4.332,4.608c2.3,0,4.147-1.751,4.147-4.608A4.153,4.153,0,0,0,125.7,14.359Z" transform="translate(-61.367 -8.092)" fill="#7fbb65"/>
        <path id="Path_145" data-name="Path 145" d="M141.675,25.242a6.116,6.116,0,0,1-6.175-6.175,6.194,6.194,0,0,1,6.175-6.267,6.116,6.116,0,0,1,6.175,6.175A6.194,6.194,0,0,1,141.675,25.242Zm0-10.876a4.339,4.339,0,0,0-4.332,4.608,4.491,4.491,0,0,0,4.424,4.7,4.412,4.412,0,0,0,4.424-4.608,4.625,4.625,0,0,0-4.516-4.7Z" transform="translate(-62.597 -8.1)" fill="#7fbb65"/>
        <path id="Path_146" data-name="Path 146" d="M152.4,10.135V8.2h2.028v1.935Zm.184,14.47V12.716h1.751V24.605Z" transform="translate(-63.921 -7.739)" fill="#7fbb65"/>
        <path id="Path_147" data-name="Path 147" d="M160.751,24.966H159V13.076h1.751V15.1a4.43,4.43,0,0,1,4.055-2.3c2.857,0,4.516,1.935,4.516,4.7v7.373h-1.751V17.961c0-2.212-1.2-3.594-3.318-3.594a3.51,3.51,0,0,0-3.594,3.687l.092,6.912Z" transform="translate(-64.438 -8.1)" fill="#7fbb65"/>
        <path id="Path_148" data-name="Path 148" d="M176.618,21.274a1.8,1.8,0,0,0,2.028,2.028,3.994,3.994,0,0,0,1.751-.369v1.475a4,4,0,0,1-2.12.461c-1.935,0-3.318-.922-3.318-3.318V14.361H173.3V12.7h1.659V9.2h1.751v3.5h3.779v1.567H176.71v7Z" transform="translate(-65.558 -7.818)" fill="#7fbb65"/>
      </g>
      <g id="nav__logo__learning_1_" transform="translate(176.958 7.097)">
        <path id="Path_149" data-name="Path 149" d="M192,24.566V7.7h1.751V24.566Z" transform="translate(-192 -7.7)" fill="#7fbb65"/>
        <path id="Path_150" data-name="Path 150" d="M203.7,23.683a4.855,4.855,0,0,0,3.779-1.659l1.106.922a6.365,6.365,0,0,1-4.885,2.3,5.892,5.892,0,0,1-5.9-6.175c0-3.41,2.4-6.175,5.714-6.175,3.5,0,5.53,2.857,5.53,6.267v.553h-9.4a3.948,3.948,0,0,0,4.055,3.963Zm3.41-5.346c-.184-2.12-1.475-4.055-3.779-4.055-2.028,0-3.594,1.751-3.871,4.055Z" transform="translate(-192.454 -8.107)" fill="#7fbb65"/>
        <path id="Path_151" data-name="Path 151" d="M213.759,15.4l-.553-1.475A9.105,9.105,0,0,1,217.538,13c3.226,0,5.069,1.659,5.069,4.793v7.281h-1.751V23.323a5.161,5.161,0,0,1-4.332,2.028c-2.212,0-4.424-1.2-4.424-3.687,0-2.581,2.028-3.871,5.069-3.871a13.114,13.114,0,0,1,3.594.461v-.369c0-2.12-1.29-3.226-3.594-3.226a5.9,5.9,0,0,0-3.41.737Zm.276,5.991c0,1.475,1.382,2.4,3.041,2.4,2.212,0,3.963-1.29,3.963-3.226v-1.2a11.937,11.937,0,0,0-3.5-.461c-2.212,0-3.5,1.014-3.5,2.488Z" transform="translate(-193.575 -8.115)" fill="#7fbb65"/>
        <path id="Path_152" data-name="Path 152" d="M229.451,24.965H227.7V13.076h1.751v3.041a5.068,5.068,0,0,1,4.885-3.318v1.843h-.092c-2.581,0-4.7,1.843-4.7,5.438v4.885Z" transform="translate(-194.797 -8.099)" fill="#7fbb65"/>
        <path id="Path_153" data-name="Path 153" d="M239.551,24.966H237.8V13.076h1.751V15.1a4.43,4.43,0,0,1,4.055-2.3c2.857,0,4.516,1.935,4.516,4.7v7.373h-1.751V17.961c0-2.212-1.2-3.594-3.318-3.594a3.51,3.51,0,0,0-3.594,3.687v6.912Z" transform="translate(-195.588 -8.1)" fill="#7fbb65"/>
        <path id="Path_154" data-name="Path 154" d="M253.1,10.135V8.2h2.028v1.935Zm.184,14.47V12.716h1.751V24.605Z" transform="translate(-196.787 -7.739)" fill="#7fbb65"/>
        <path id="Path_155" data-name="Path 155" d="M261.451,24.966H259.7V13.076h1.751V15.1a4.43,4.43,0,0,1,4.055-2.3c2.857,0,4.516,1.935,4.516,4.7v7.373h-1.751V17.961c0-2.212-1.2-3.594-3.318-3.594a3.51,3.51,0,0,0-3.594,3.687l.092,6.912Z" transform="translate(-197.304 -8.1)" fill="#7fbb65"/>
        <path id="Path_156" data-name="Path 156" d="M280.3,28.66A9.258,9.258,0,0,1,274.861,27l.83-1.382a8.066,8.066,0,0,0,4.608,1.475c2.581,0,4.332-1.475,4.332-4.24V21.471a5.681,5.681,0,0,1-4.7,2.581,5.427,5.427,0,0,1-5.53-5.53,5.5,5.5,0,0,1,5.53-5.622,5.641,5.641,0,0,1,4.7,2.4v-2.12h1.751v9.77c-.092,3.779-2.488,5.714-6.083,5.714Zm-.092-14.286a3.892,3.892,0,0,0-4.147,4.055,4,4,0,0,0,4.147,4.055,4.176,4.176,0,0,0,4.424-4.055A4.23,4.23,0,0,0,280.206,14.375Z" transform="translate(-198.455 -8.107)" fill="#7fbb65"/>
      </g>
    </g>
    <g id="Rectangle_2" data-name="Rectangle 2" fill="#7fbb65" stroke="#707070" stroke-width="1">
      <rect width="1280" height="161" stroke="none"/>
      <rect x="0.5" y="0.5" width="1279" height="160" fill="none"/>
    </g>
    <g transform="matrix(1, 0, 0, 1, 0, 0)" filter="url(#Path_520)">
      <path id="Path_520-2" data-name="Path 520" d="M-265.8,0h6.4l-13.1-33.35h-7.3L-292.9,0h6.4l2.45-6.4h15.8Zm-10.35-28.4,6.25,16.85h-12.5Zm25.5,37.6V-3.35A9.482,9.482,0,0,0-242.9.6c6.25,0,10.7-4.75,10.7-12.7s-4.45-12.65-10.7-12.65a9.636,9.636,0,0,0-7.75,3.9v-3.3h-5.25V9.2Zm13-21.3c0,4.7-2.65,8.05-6.8,8.05a7.98,7.98,0,0,1-6.2-3.25v-9.55a7.837,7.837,0,0,1,6.2-3.25C-240.3-20.1-237.65-16.75-237.65-12.1Zm16,21.3V-3.35A9.482,9.482,0,0,0-213.9.6c6.25,0,10.7-4.75,10.7-12.7s-4.45-12.65-10.7-12.65a9.636,9.636,0,0,0-7.75,3.9v-3.3h-5.25V9.2Zm13-21.3c0,4.7-2.65,8.05-6.8,8.05a7.98,7.98,0,0,1-6.2-3.25v-9.55a7.837,7.837,0,0,1,6.2-3.25C-211.3-20.1-208.65-16.75-208.65-12.1ZM-197.9,0h5.25V-33.35h-5.25Zm10.55-12.1c0,7.65,5.4,12.7,12.65,12.7a14.077,14.077,0,0,0,9.8-3.5l-2.4-3.45a10.221,10.221,0,0,1-6.85,2.65,7.315,7.315,0,0,1-7.7-6.65h18.65V-11.6c0-7.6-4.65-13.15-11.9-13.15C-182.25-24.75-187.35-19.1-187.35-12.1Zm12.25-8.35a6.459,6.459,0,0,1,6.8,6.4h-13.6A6.662,6.662,0,0,1-175.1-20.45ZM-145.15,0h5.25V-16.45a8.339,8.339,0,0,1,6.2-3.2,7.739,7.739,0,0,1,1.65.15v-5.2a10.313,10.313,0,0,0-7.85,4.1v-3.55h-5.25Zm33.65,0h5.25V-24.15h-5.25V-7.2a8.032,8.032,0,0,1-6.2,3.15c-2.95,0-4.85-1.15-4.85-4.9v-15.2h-5.25v17.1c0,4.95,2.55,7.65,7.75,7.65a11.575,11.575,0,0,0,8.55-3.8Zm28.35,0h5.25V-17c0-4.95-2.6-7.75-7.8-7.75a11.426,11.426,0,0,0-8.5,3.9v-3.3h-5.25V0h5.25V-16.85A7.95,7.95,0,0,1-88-20.1c2.95,0,4.85,1.25,4.85,5Zm9.95-3.15A14.688,14.688,0,0,0-62.85.6c6.5,0,10.05-3.25,10.05-7.5,0-5.7-5.15-6.9-9.35-7.8C-65-15.35-67.4-16-67.4-17.85c0-1.7,1.75-2.7,4.5-2.7a9.739,9.739,0,0,1,7.15,2.9l2.2-3.7a13.806,13.806,0,0,0-9.4-3.4c-6.1,0-9.5,3.4-9.5,7.35,0,5.4,4.95,6.5,9.1,7.4,2.95.65,5.5,1.4,5.5,3.5,0,1.8-1.6,2.95-4.75,2.95a12.465,12.465,0,0,1-8.2-3.4ZM-23.75.6C-16,.6-11.3-5.15-11.3-12.1c0-6.9-4.7-12.65-12.45-12.65-7.65,0-12.4,5.75-12.4,12.65C-36.15-5.15-31.4.6-23.75.6Zm0-4.65c-4.45,0-6.95-3.75-6.95-8.05,0-4.25,2.5-8,6.95-8,4.5,0,7,3.75,7,8C-16.75-7.8-19.25-4.05-23.75-4.05ZM10.3,0h5.25V-17c0-4.95-2.6-7.75-7.8-7.75a11.426,11.426,0,0,0-8.5,3.9v-3.3H-6V0H-.75V-16.85a7.95,7.95,0,0,1,6.2-3.25c2.95,0,4.85,1.25,4.85,5ZM41.4,0h5.85V-33.35h-5.1l-9.6,9.7,3.4,3.55,5.45-5.65ZM52.85-16.65C52.85-8.25,56.85.6,66.2.6S79.55-8.25,79.55-16.65s-4-17.2-13.35-17.2S52.85-25.05,52.85-16.65Zm20.75,0c0,6.35-1.95,12.05-7.4,12.05s-7.4-5.7-7.4-12.05,1.95-12,7.4-12S73.6-23,73.6-16.65Zm10.05,0C83.65-8.25,87.65.6,97,.6s13.35-8.85,13.35-17.25-4-17.2-13.35-17.2S83.65-25.05,83.65-16.65Zm20.75,0c0,6.35-1.95,12.05-7.4,12.05s-7.4-5.7-7.4-12.05,1.95-12,7.4-12S104.4-23,104.4-16.65Zm9.4-8.85a7.916,7.916,0,0,0,8.25,8.2,7.97,7.97,0,0,0,8.35-8.2,8.062,8.062,0,0,0-8.35-8.35A8.009,8.009,0,0,0,113.8-25.5ZM118.85,0h3.3L143.5-33.35h-3.35Zm7.65-25.5c0,2.85-1.85,4.9-4.45,4.9-2.55,0-4.4-2.05-4.4-4.9,0-3,1.85-5,4.4-5C124.65-30.5,126.5-28.5,126.5-25.5Zm5.25,17.9A7.916,7.916,0,0,0,140,.6a7.957,7.957,0,0,0,8.3-8.2,8.05,8.05,0,0,0-8.3-8.35A8.009,8.009,0,0,0,131.75-7.6Zm12.7,0c0,2.9-1.85,4.9-4.45,4.9s-4.4-2-4.4-4.9c0-3,1.8-5,4.4-5S144.45-10.6,144.45-7.6Zm21.2,13.8c2.95,2.7,6,3.6,10.1,3.6,5.95,0,12.4-2.35,12.4-11.05v-22.9H182.9v3.35a9.618,9.618,0,0,0-7.75-3.95c-6.2,0-10.7,4.6-10.7,12.4,0,7.95,4.55,12.4,10.7,12.4a9.8,9.8,0,0,0,7.75-4v2.9c0,4.95-3.7,6.55-7.15,6.55-3.2,0-5.7-.85-7.65-3.1ZM182.9-7.85a7.837,7.837,0,0,1-6.2,3.25c-4.15,0-6.8-3.1-6.8-7.75s2.65-7.75,6.8-7.75a7.837,7.837,0,0,1,6.2,3.25ZM194.95,0h5.25V-16.45a8.339,8.339,0,0,1,6.2-3.2,7.739,7.739,0,0,1,1.65.15v-5.2a10.313,10.313,0,0,0-7.85,4.1v-3.55h-5.25ZM210.8-12.1c0,7.65,5.4,12.7,12.65,12.7a14.077,14.077,0,0,0,9.8-3.5l-2.4-3.45A10.221,10.221,0,0,1,224-3.7a7.315,7.315,0,0,1-7.7-6.65h18.65V-11.6c0-7.6-4.65-13.15-11.9-13.15C215.9-24.75,210.8-19.1,210.8-12.1Zm12.25-8.35a6.459,6.459,0,0,1,6.8,6.4h-13.6A6.662,6.662,0,0,1,223.05-20.45Zm15.6,8.35c0,7.65,5.4,12.7,12.65,12.7a14.077,14.077,0,0,0,9.8-3.5l-2.4-3.45a10.221,10.221,0,0,1-6.85,2.65,7.315,7.315,0,0,1-7.7-6.65H262.8V-11.6c0-7.6-4.65-13.15-11.9-13.15C243.75-24.75,238.65-19.1,238.65-12.1Zm12.25-8.35a6.459,6.459,0,0,1,6.8,6.4H244.1A6.662,6.662,0,0,1,250.9-20.45ZM284.3,0h5.25V-17c0-4.95-2.6-7.75-7.8-7.75a11.426,11.426,0,0,0-8.5,3.9v-3.3H268V0h5.25V-16.85a7.95,7.95,0,0,1,6.2-3.25c2.95,0,4.85,1.25,4.85,5ZM-328.975,41.9c0,7.65,5.4,12.7,12.65,12.7a14.077,14.077,0,0,0,9.8-3.5l-2.4-3.45a10.221,10.221,0,0,1-6.85,2.65,7.315,7.315,0,0,1-7.7-6.65h18.65V42.4c0-7.6-4.65-13.15-11.9-13.15C-323.875,29.25-328.975,34.9-328.975,41.9Zm12.25-8.35a6.459,6.459,0,0,1,6.8,6.4h-13.6A6.662,6.662,0,0,1-316.725,33.55Zm33.4,20.45h5.25V37c0-4.95-2.6-7.75-7.8-7.75a11.426,11.426,0,0,0-8.5,3.9v-3.3h-5.25V54h5.25V37.15a7.95,7.95,0,0,1,6.2-3.25c2.95,0,4.85,1.25,4.85,5Zm10.55-12.1c0,7.65,5.4,12.7,12.65,12.7a14.077,14.077,0,0,0,9.8-3.5l-2.4-3.45a10.221,10.221,0,0,1-6.85,2.65,7.315,7.315,0,0,1-7.7-6.65h18.65V42.4c0-7.6-4.65-13.15-11.9-13.15C-267.675,29.25-272.775,34.9-272.775,41.9Zm12.25-8.35a6.459,6.459,0,0,1,6.8,6.4h-13.6A6.662,6.662,0,0,1-260.525,33.55Zm17.1,20.45h5.25V37.55a8.339,8.339,0,0,1,6.2-3.2,7.739,7.739,0,0,1,1.65.15V29.3a10.313,10.313,0,0,0-7.85,4.1V29.85h-5.25Zm17.05,6.2c2.95,2.7,6,3.6,10.1,3.6,5.95,0,12.4-2.35,12.4-11.05V29.85h-5.25V33.2a9.618,9.618,0,0,0-7.75-3.95c-6.2,0-10.7,4.6-10.7,12.4,0,7.95,4.55,12.4,10.7,12.4a9.8,9.8,0,0,0,7.75-4v2.9c0,4.95-3.7,6.55-7.15,6.55-3.2,0-5.7-.85-7.65-3.1Zm17.25-14.05a7.837,7.837,0,0,1-6.2,3.25c-4.15,0-6.8-3.1-6.8-7.75s2.65-7.75,6.8-7.75a7.837,7.837,0,0,1,6.2,3.25Zm11.8,12.6-.8,4.7a14.848,14.848,0,0,0,2.95.35c3.75-.05,6.65-1.35,8.3-5.45l11.65-28.5h-5.65l-7.05,18.1-7.05-18.1h-5.6l9.9,24.45-1.2,2.75a3.271,3.271,0,0,1-3.45,2.1A5.487,5.487,0,0,1-197.325,58.75Zm53-4.75h5.25V38c0-6.5-4.7-8.75-10.05-8.75a14.361,14.361,0,0,0-10.15,3.9l2.15,3.65a9.889,9.889,0,0,1,7.15-3.05c3.35,0,5.65,1.7,5.65,4.5v3.6c-1.75-2.05-4.55-3.1-7.8-3.1-3.95,0-8.4,2.3-8.4,7.85,0,5.35,4.45,8,8.4,8a10.2,10.2,0,0,0,7.8-3.2Zm0-5.5a7.069,7.069,0,0,1-5.75,2.5c-2.95,0-5.15-1.7-5.15-4.3,0-2.65,2.2-4.35,5.15-4.35a7.069,7.069,0,0,1,5.75,2.5Zm19.3,6.1a6.926,6.926,0,0,0,4.95-1.55l-1.25-3.95a3.389,3.389,0,0,1-2.35.85c-1.5,0-2.3-1.2-2.3-2.85V34.45h4.9v-4.6h-4.9v-6.6h-5.25v6.6h-4v4.6h4V48.4C-131.225,52.4-129.075,54.6-125.025,54.6Zm26.8,8.6V50.65a9.482,9.482,0,0,0,7.75,3.95c6.25,0,10.7-4.75,10.7-12.7s-4.45-12.65-10.7-12.65a9.636,9.636,0,0,0-7.75,3.9v-3.3h-5.25V63.2Zm13-21.3c0,4.7-2.65,8.05-6.8,8.05a7.98,7.98,0,0,1-6.2-3.25V37.15a7.837,7.837,0,0,1,6.2-3.25C-87.875,33.9-85.225,37.25-85.225,41.9ZM-74.475,54h5.25V37.55a8.339,8.339,0,0,1,6.2-3.2,7.739,7.739,0,0,1,1.65.15V29.3a10.313,10.313,0,0,0-7.85,4.1V29.85h-5.25Zm28.25.6c7.75,0,12.45-5.75,12.45-12.7,0-6.9-4.7-12.65-12.45-12.65-7.65,0-12.4,5.75-12.4,12.65C-58.625,48.85-53.875,54.6-46.225,54.6Zm0-4.65c-4.45,0-6.95-3.75-6.95-8.05,0-4.25,2.5-8,6.95-8,4.5,0,7,3.75,7,8C-39.225,46.2-41.725,49.95-46.225,49.95ZM-11.475,54h5.25V20.65h-5.25V33.2a9.688,9.688,0,0,0-7.75-3.95c-6.25,0-10.75,4.9-10.75,12.7,0,7.95,4.55,12.65,10.75,12.65a9.78,9.78,0,0,0,7.75-3.9Zm0-7.25a7.891,7.891,0,0,1-6.25,3.2c-4.15,0-6.8-3.35-6.8-8,0-4.7,2.65-8.05,6.8-8.05a7.934,7.934,0,0,1,6.25,3.25ZM16.875,54h5.25V29.85h-5.25V46.8a8.032,8.032,0,0,1-6.2,3.15c-2.95,0-4.85-1.15-4.85-4.9V29.85H.575v17.1c0,4.95,2.55,7.65,7.75,7.65a11.575,11.575,0,0,0,8.55-3.8Zm10.55-12.1c0,7.35,5.15,12.7,12.5,12.7,4.7,0,7.55-2,9.25-4.3l-3.45-3.2a6.565,6.565,0,0,1-5.55,2.85c-4.4,0-7.3-3.35-7.3-8.05s2.9-8,7.3-8a6.446,6.446,0,0,1,5.55,2.85l3.45-3.2c-1.7-2.3-4.55-4.3-9.25-4.3C32.575,29.25,27.425,34.6,27.425,41.9Zm33.6,12.7a6.926,6.926,0,0,0,4.95-1.55l-1.25-3.95a3.389,3.389,0,0,1-2.35.85c-1.5,0-2.3-1.2-2.3-2.85V34.45h4.9v-4.6h-4.9v-6.6h-5.25v6.6h-4v4.6h4V48.4C54.825,52.4,56.975,54.6,61.025,54.6Zm11.3-28.45a3.25,3.25,0,1,0-3.25-3.25A3.244,3.244,0,0,0,72.325,26.15ZM69.725,54h5.25V29.85h-5.25Zm22.95.6c7.75,0,12.45-5.75,12.45-12.7,0-6.9-4.7-12.65-12.45-12.65-7.65,0-12.4,5.75-12.4,12.65C80.275,48.85,85.025,54.6,92.675,54.6Zm0-4.65c-4.45,0-6.95-3.75-6.95-8.05,0-4.25,2.5-8,6.95-8,4.5,0,7,3.75,7,8C99.675,46.2,97.175,49.95,92.675,49.95ZM126.725,54h5.25V37c0-4.95-2.6-7.75-7.8-7.75a11.426,11.426,0,0,0-8.5,3.9v-3.3h-5.25V54h5.25V37.15a7.95,7.95,0,0,1,6.2-3.25c2.95,0,4.85,1.25,4.85,5Zm26.15,0h5.25V34.45h4.9v-4.6h-4.9V28.5c0-2.7,1.3-4.05,3.35-4.05a4.208,4.208,0,0,1,2.1.5l1.15-3.85a8.7,8.7,0,0,0-4.2-.95c-4.45,0-7.65,2.95-7.65,8.35v1.35h-4v4.6h4Zm28.9,0h5.25V38c0-6.5-4.7-8.75-10.05-8.75a14.361,14.361,0,0,0-10.15,3.9l2.15,3.65a9.889,9.889,0,0,1,7.15-3.05c3.35,0,5.65,1.7,5.65,4.5v3.6c-1.75-2.05-4.55-3.1-7.8-3.1-3.95,0-8.4,2.3-8.4,7.85,0,5.35,4.45,8,8.4,8a10.2,10.2,0,0,0,7.8-3.2Zm0-5.5a7.069,7.069,0,0,1-5.75,2.5c-2.95,0-5.15-1.7-5.15-4.3,0-2.65,2.2-4.35,5.15-4.35a7.069,7.069,0,0,1,5.75,2.5Zm10.55-6.6c0,7.35,5.15,12.7,12.5,12.7,4.7,0,7.55-2,9.25-4.3l-3.45-3.2a6.565,6.565,0,0,1-5.55,2.85c-4.4,0-7.3-3.35-7.3-8.05s2.9-8,7.3-8a6.446,6.446,0,0,1,5.55,2.85l3.45-3.2c-1.7-2.3-4.55-4.3-9.25-4.3C197.475,29.25,192.325,34.6,192.325,41.9Zm28.95-15.75a3.25,3.25,0,1,0-3.25-3.25A3.244,3.244,0,0,0,221.275,26.15ZM218.675,54h5.25V29.85h-5.25Zm12.05,0h5.25V20.65h-5.25Zm14.65-27.85a3.25,3.25,0,1,0-3.25-3.25A3.244,3.244,0,0,0,245.375,26.15ZM242.775,54h5.25V29.85h-5.25Zm19.3.6a6.926,6.926,0,0,0,4.95-1.55l-1.25-3.95a3.389,3.389,0,0,1-2.35.85c-1.5,0-2.3-1.2-2.3-2.85V34.45h4.9v-4.6h-4.9v-6.6h-5.25v6.6h-4v4.6h4V48.4C255.875,52.4,258.025,54.6,262.075,54.6Zm11.3-28.45a3.25,3.25,0,1,0-3.25-3.25A3.244,3.244,0,0,0,273.375,26.15ZM270.775,54h5.25V29.85h-5.25Zm10.55-12.1c0,7.65,5.4,12.7,12.65,12.7a14.077,14.077,0,0,0,9.8-3.5l-2.4-3.45a10.221,10.221,0,0,1-6.85,2.65,7.315,7.315,0,0,1-7.7-6.65h18.65V42.4c0-7.6-4.65-13.15-11.9-13.15C286.425,29.25,281.325,34.9,281.325,41.9Zm12.25-8.35a6.459,6.459,0,0,1,6.8,6.4h-13.6A6.662,6.662,0,0,1,293.575,33.55Zm15,17.3a14.688,14.688,0,0,0,10.35,3.75c6.5,0,10.05-3.25,10.05-7.5,0-5.7-5.15-6.9-9.35-7.8-2.85-.65-5.25-1.3-5.25-3.15,0-1.7,1.75-2.7,4.5-2.7a9.739,9.739,0,0,1,7.15,2.9l2.2-3.7a13.806,13.806,0,0,0-9.4-3.4c-6.1,0-9.5,3.4-9.5,7.35,0,5.4,4.95,6.5,9.1,7.4,2.95.65,5.5,1.4,5.5,3.5,0,1.8-1.6,2.95-4.75,2.95a12.465,12.465,0,0,1-8.2-3.4Z" transform="translate(640 71)" fill="#fff"/>
    </g>
    <g id="undraw_factory_dy0a" transform="translate(93 132.875)">
      <path id="Path_488" data-name="Path 488" d="M375.615,713.364l-26.958-42.782,26.971,47.442.014,4.875q2.885-.034,5.711-.221l-2.2-62.621.029-.484-.05-.092-.209-5.917,28.187-46.889L378.9,649.132l-.084,1.253-1.661-47.313,24.232-48.512-24.421,40.2-1.136-98.066-.005-.326,0,.321-.553,77.318L352.108,543.07l23.176,37.6.107,42.348-21.484-40.9,21.5,47.126.059,23.548-31.208-56.946L375.487,661Z" transform="translate(-112.249 -175.663)" fill="#e2e2e2"/>
      <path id="Path_489" data-name="Path 489" d="M563.327,713.364l-26.959-42.782,26.971,47.443.014,4.875q2.885-.034,5.711-.221l-2.2-62.621.029-.484-.05-.092-.209-5.917,28.187-46.889-28.216,42.457-.084,1.253-1.661-47.313,24.232-48.512-24.421,40.2-1.136-98.066-.005-.326,0,.321-.553,77.318L539.819,543.07l23.176,37.6.108,42.348-21.484-40.9,21.5,47.126.059,23.548L531.966,595.84,563.2,661Z" transform="translate(-68.623 -175.663)" fill="#e2e2e2"/>
      <path id="Path_490" data-name="Path 490" d="M186.081,704.225l-19.466-30.892L186.09,707.59l.01,3.52q2.083-.024,4.124-.16l-1.588-45.218.021-.35-.036-.067-.151-4.273,20.354-33.858-20.375,30.658-.061.905-1.2-34.164,17.5-35.03-17.635,29.027-.82-70.813,0-.236,0,.232-.4,55.831-16.72-22.339L185.842,608.4l.078,30.579L170.406,609.45l15.522,34.029.043,17-22.535-41.121,22.553,47.053Z" transform="translate(-154.272 -163.772)" fill="#e2e2e2"/>
      <path id="Path_491" data-name="Path 491" d="M1019.864,713.364l-26.958-42.782,26.971,47.442.015,4.875q2.885-.034,5.711-.221l-2.2-62.621.029-.484-.049-.092-.209-5.917,28.187-46.889-28.216,42.457-.084,1.253-1.661-47.313,24.232-48.512-24.421,40.2-1.136-98.066-.005-.326,0,.321-.553,77.318L996.357,543.07l23.176,37.6.107,42.348-21.484-40.9,21.5,47.126.059,23.548L988.5,595.84,1019.735,661Z" transform="translate(37.478 -175.663)" fill="#e2e2e2"/>
      <rect id="Rectangle_4" data-name="Rectangle 4" width="145.424" height="6.162" transform="translate(471.659 473.109) rotate(180)" fill="#6c63ff"/>
      <rect id="Rectangle_5" data-name="Rectangle 5" width="145.424" height="6.162" transform="translate(464.264 466.947) rotate(180)" fill="#6c63ff"/>
      <rect id="Rectangle_6" data-name="Rectangle 6" width="145.424" height="6.162" transform="translate(472.891 460.785) rotate(180)" fill="#6c63ff"/>
      <rect id="Rectangle_7" data-name="Rectangle 7" width="145.424" height="6.162" transform="translate(487.68 454.623) rotate(180)" fill="#6c63ff"/>
      <rect id="Rectangle_8" data-name="Rectangle 8" width="5.049" height="35.849" transform="translate(223.571 457.081) rotate(180)" fill="#3f3d56"/>
      <rect id="Rectangle_9" data-name="Rectangle 9" width="5.049" height="201.647" transform="translate(220.406 425.455) rotate(-112.092)" fill="#3f3d56"/>
      <rect id="Rectangle_10" data-name="Rectangle 10" width="43.927" height="17.167" transform="translate(169.04 510.601) rotate(180)" fill="#3f3d56"/>
      <rect id="Rectangle_11" data-name="Rectangle 11" width="216.608" height="19.187" transform="translate(345.759 527.768) rotate(180)" fill="#3f3d56"/>
      <path id="Path_492" data-name="Path 492" d="M133.68,449.192h52.006V383.806H146.808L133.68,416.784Z" transform="translate(31.068 68.982)" fill="#e2e2e2"/>
      <rect id="Rectangle_12" data-name="Rectangle 12" width="22.216" height="22.216" transform="translate(208.676 479.044) rotate(180)" fill="#fff"/>
      <path id="Path_493" data-name="Path 493" d="M137.777,409.5h14.138V387.289h-6.06Z" transform="translate(32.02 69.792)" fill="#fff"/>
      <rect id="Rectangle_13" data-name="Rectangle 13" width="5.049" height="9.593" transform="translate(207.665 501.26) rotate(180)" fill="#3f3d56"/>
      <path id="Path_494" data-name="Path 494" d="M0,0H.252a4.8,4.8,0,0,1,4.8,4.8h0a4.8,4.8,0,0,1-4.8,4.8H0V0Z" transform="translate(179.644 480.812) rotate(180)" fill="#3f3d56"/>
      <path id="Path_495" data-name="Path 495" d="M0,0H.252a4.8,4.8,0,0,1,4.8,4.8h0a4.8,4.8,0,0,1-4.8,4.8H0V0Z" transform="translate(367.47 518.175) rotate(180)" fill="#3f3d56"/>
      <path id="Path_496" data-name="Path 496" d="M278.814,653.635A24.982,24.982,0,0,0,259.4,663.3H249.53l9.593-26.723,44.685-8.813L302.545,663.3h-4.313a24.982,24.982,0,0,0-19.418-9.666Z" transform="translate(-134.263 -145.126)" fill="#e2e2e2"/>
      <circle id="Ellipse_20" data-name="Ellipse 20" cx="21.964" cy="21.964" r="21.964" transform="translate(122.084 502.522)" fill="#3f3d56"/>
      <circle id="Ellipse_21" data-name="Ellipse 21" cx="11.56" cy="11.56" r="11.56" transform="translate(132.487 512.926)" fill="#e2e2e2"/>
      <circle id="Ellipse_22" data-name="Ellipse 22" cx="19.187" cy="19.187" r="19.187" transform="translate(323.291 507.824)" fill="#3f3d56"/>
      <circle id="Ellipse_23" data-name="Ellipse 23" cx="10.098" cy="10.098" r="10.098" transform="translate(332.38 516.913)" fill="#e2e2e2"/>
      <rect id="Rectangle_14" data-name="Rectangle 14" width="10.603" height="76.494" transform="translate(225.843 520.194) rotate(180)" fill="#3f3d56"/>
      <rect id="Rectangle_15" data-name="Rectangle 15" width="152.484" height="4.544" transform="translate(367.723 510.854) rotate(180)" fill="#3f3d56"/>
      <rect id="Rectangle_16" data-name="Rectangle 16" width="5.049" height="2.02" transform="translate(181.663 482.326) rotate(180)" fill="#3f3d56"/>
      <path id="Path_497" data-name="Path 497" d="M480.419,632.579a.5.5,0,0,1-.128-.393l6.963-65.85a.505.505,0,0,1,.5-.452h0a.505.505,0,0,1,.5.448l7.531,65.713a.5.5,0,0,1-.5.562l-14.495.137h0A.5.5,0,0,1,480.419,632.579ZM487.776,571l-6.422,60.729,13.368-.126Z" transform="translate(-80.634 -159.507)" fill="#3f3d56"/>
      <path id="Path_498" data-name="Path 498" d="M0,0H.252a4.8,4.8,0,0,1,4.8,4.8h0a4.8,4.8,0,0,1-4.8,4.8H0V0Z" transform="matrix(0.935, 0.354, -0.354, 0.935, 124.952, 491.844)" fill="#3f3d56"/>
      <rect id="Rectangle_17" data-name="Rectangle 17" width="5.049" height="73.717" transform="translate(409.884 418.707) rotate(180)" fill="#3f3d56"/>
      <circle id="Ellipse_24" data-name="Ellipse 24" cx="7.069" cy="7.069" r="7.069" transform="translate(213.977 415.173)" fill="#3f3d56"/>
      <rect id="Rectangle_18" data-name="Rectangle 18" width="145.424" height="6.162" transform="translate(376.763 506.384) rotate(180)" fill="#6c63ff"/>
      <rect id="Rectangle_19" data-name="Rectangle 19" width="145.424" height="6.162" transform="translate(385.39 500.222) rotate(180)" fill="#6c63ff"/>
      <rect id="Rectangle_20" data-name="Rectangle 20" width="145.424" height="6.162" transform="translate(379.228 495.293) rotate(180)" fill="#6c63ff"/>
      <rect id="Rectangle_21" data-name="Rectangle 21" width="145.424" height="6.162" transform="translate(387.855 489.13) rotate(180)" fill="#6c63ff"/>
      <path id="Path_499" data-name="Path 499" d="M541.9,342.738a19.221,19.221,0,0,1,12.616,4.7,19.232,19.232,0,0,1,8.488-.373,19.3,19.3,0,0,1,35.191,10.952H523.019A19.305,19.305,0,0,1,541.9,342.738Z" transform="translate(-70.703 -212.302)" fill="#e2e2e2"/>
      <path id="Path_500" data-name="Path 500" d="M449.938,392.044a18.171,18.171,0,0,1,11.927,4.444,18.183,18.183,0,0,1,8.024-.353,18.246,18.246,0,0,1,33.27,10.354H432.09A18.251,18.251,0,0,1,449.938,392.044Z" transform="translate(-91.835 -200.792)" fill="#e2e2e2"/>
      <path id="Path_501" data-name="Path 501" d="M358.326,310.681a18.906,18.906,0,0,1,12.409,4.624,18.919,18.919,0,0,1,8.349-.367A18.984,18.984,0,0,1,413.7,325.711H339.756a18.99,18.99,0,0,1,18.57-15.03Z" transform="translate(-113.294 -219.737)" fill="#e2e2e2"/>
      <rect id="Rectangle_22" data-name="Rectangle 22" width="181.728" height="210.235" transform="translate(882.047 545.458) rotate(180)" fill="#3f3d56"/>
      <rect id="Rectangle_23" data-name="Rectangle 23" width="48.995" height="42.76" transform="translate(815.681 545.458) rotate(180)" fill="#e2e2e2"/>
      <path id="Path_504" data-name="Path 504" d="M685.941,479.99h21.382l-.764-32.067v-.012l-2.8-117.584a13.673,13.673,0,0,1-14.259,0l-2.8,117.584v.012Z" transform="translate(-32.839 -214.252)" fill="#7fbb65"/>
      <path id="Path_505" data-name="Path 505" d="M498.141,261.234V517.8h99.764V257.672l-23.158.826V206.01H521.3v54.4Z" transform="translate(115.771 27.662)" fill="#7fbb65"/>
      <path id="Path_507" data-name="Path 507" d="M892.674,479.989h21.38l-3.563-149.658a21.075,21.075,0,0,1-14.253,0Z" transform="translate(15.207 -214.251)" fill="#7fbb65"/>
      <path id="Path_508" data-name="Path 508" d="M704.871,261.234V517.8h99.776V257.672l-8.2.3-14.974.53V206.01H728.028v54.4Z" transform="translate(163.816 27.662)" fill="#7fbb65"/>
      <rect id="Rectangle_24" data-name="Rectangle 24" width="24.648" height="24.648" transform="translate(842.944 385.245) rotate(180)" fill="#fff"/>
      <rect id="Rectangle_25" data-name="Rectangle 25" width="24.648" height="24.648" transform="translate(803.507 385.245) rotate(180)" fill="#fff"/>
      <rect id="Rectangle_26" data-name="Rectangle 26" width="24.648" height="24.648" transform="translate(764.07 385.245) rotate(180)" fill="#fff"/>
      <rect id="Rectangle_27" data-name="Rectangle 27" width="24.648" height="24.648" transform="translate(842.944 424.682) rotate(180)" fill="#fff"/>
      <rect id="Rectangle_28" data-name="Rectangle 28" width="24.648" height="24.648" transform="translate(803.507 424.682) rotate(180)" fill="#fff"/>
      <rect id="Rectangle_29" data-name="Rectangle 29" width="24.648" height="24.648" transform="translate(764.07 424.682) rotate(180)" fill="#fff"/>
      <rect id="Rectangle_30" data-name="Rectangle 30" width="24.648" height="24.648" transform="translate(842.944 464.119) rotate(180)" fill="#fff"/>
      <rect id="Rectangle_31" data-name="Rectangle 31" width="24.648" height="24.648" transform="translate(803.507 464.119) rotate(180)" fill="#fff"/>
      <rect id="Rectangle_32" data-name="Rectangle 32" width="24.648" height="24.648" transform="translate(764.07 464.119) rotate(180)" fill="#fff"/>
      <rect id="Rectangle_33" data-name="Rectangle 33" width="24.648" height="24.648" transform="translate(676.119 375.386) rotate(180)" fill="#fff"/>
      <rect id="Rectangle_34" data-name="Rectangle 34" width="24.648" height="24.648" transform="translate(676.119 414.823) rotate(180)" fill="#fff"/>
      <rect id="Rectangle_35" data-name="Rectangle 35" width="24.648" height="24.648" transform="translate(676.119 454.26) rotate(180)" fill="#fff"/>
      <rect id="Rectangle_36" data-name="Rectangle 36" width="24.648" height="24.648" transform="translate(676.119 493.697) rotate(180)" fill="#fff"/>
      <rect id="Rectangle_37" data-name="Rectangle 37" width="24.648" height="24.648" transform="translate(930.69 375.386) rotate(180)" fill="#fff"/>
      <rect id="Rectangle_38" data-name="Rectangle 38" width="24.648" height="24.648" transform="translate(930.69 414.823) rotate(180)" fill="#fff"/>
      <rect id="Rectangle_39" data-name="Rectangle 39" width="24.648" height="24.648" transform="translate(930.69 454.26) rotate(180)" fill="#fff"/>
      <rect id="Rectangle_40" data-name="Rectangle 40" width="24.648" height="24.648" transform="translate(930.69 493.697) rotate(180)" fill="#fff"/>
      <rect id="Rectangle_41" data-name="Rectangle 41" width="1094.376" height="2.465" transform="translate(0 544.589)" fill="#3f3d56"/>
    </g>
  </g>
</svg>
