<svg xmlns="http://www.w3.org/2000/svg" xmlns:xlink="http://www.w3.org/1999/xlink" width="1280" height="800" viewBox="0 0 1280 800">
  <defs>
    <filter id="Path_521" x="76.25" y="31.15" width="1128.45" height="119.15" filterUnits="userSpaceOnUse">
      <feOffset dy="5" input="SourceAlpha"/>
      <feGaussianBlur stdDeviation="3.5" result="blur"/>
      <feFlood flood-opacity="0.161"/>
      <feComposite operator="in" in2="blur"/>
      <feComposite in="SourceGraphic"/>
    </filter>
    <clipPath id="clip-examples-of-corporate-sustainability-initiatives03">
      <rect width="1280" height="800"/>
    </clipPath>
  </defs>
  <g id="examples-of-corporate-sustainability-initiatives03" clip-path="url(#clip-examples-of-corporate-sustainability-initiatives03)">
    <rect width="1280" height="800" fill="#f7fff2"/>
    <g id="Group_52" data-name="Group 52" transform="translate(508 751)">
      <g id="nav__logo__e_1_">
        <path id="Path_137" data-name="Path 137" d="M23.4,35.564h9.954a1.93,1.93,0,0,0,1.935-1.843V26.9A36.608,36.608,0,0,1,23.4,35.564Z" transform="translate(-1.833 -2.107)" fill="#7fbb65"/>
        <path id="Path_138" data-name="Path 138" d="M19.731,10.977C19.639,9.226,18.348,8.12,15.583,8.4,10.146,8.765,6,14.94,4.8,21.3,16.6,20.378,19.823,13.189,19.731,10.977Z" transform="translate(-0.376 -0.654)" fill="#7fbb65"/>
        <path id="Path_139" data-name="Path 139" d="M18.341,3.963c5.622-.369,8.2,1.843,8.387,4.608.461,6.083-9.493,13.272-22.581,14.378H3.963a10.209,10.209,0,0,0,.369,5.069c.922,2.4,3.318,3.318,6.083,3.318,12.166,0,21.106-13.456,23.041-19.539V1.843A1.871,1.871,0,0,0,31.521,0H1.843A1.849,1.849,0,0,0,0,1.843V15.484C4.793,9.4,12.166,4.424,18.341,3.963Z" fill="#7fbb65"/>
      </g>
      <g id="nav__logo__edgepoint_1_" transform="translate(51.982 7.097)">
        <path id="Path_140" data-name="Path 140" d="M62.3,23.683a4.855,4.855,0,0,0,3.779-1.659l1.106.922a6.365,6.365,0,0,1-4.885,2.3,5.892,5.892,0,0,1-5.9-6.175c0-3.41,2.4-6.175,5.714-6.175,3.5,0,5.53,2.857,5.53,6.267v.553H58.151A4.081,4.081,0,0,0,62.3,23.683Zm3.41-5.346c-.184-2.12-1.475-4.055-3.779-4.055-2.028,0-3.594,1.751-3.871,4.055Z" transform="translate(-56.4 -8.107)" fill="#7fbb65"/>
        <path id="Path_141" data-name="Path 141" d="M81.33,24.566v-2.4a5.23,5.23,0,0,1-4.516,2.673A5.856,5.856,0,0,1,71.1,18.668a5.856,5.856,0,0,1,5.714-6.175,5.228,5.228,0,0,1,4.516,2.581V7.7h1.751V24.566Zm-4.24-10.6c-2.3,0-4.147,1.751-4.147,4.608s1.935,4.608,4.147,4.608a4.452,4.452,0,0,0,4.332-4.608A4.452,4.452,0,0,0,77.091,13.967Z" transform="translate(-57.552 -7.7)" fill="#7fbb65"/>
        <path id="Path_142" data-name="Path 142" d="M93.7,28.66A9.258,9.258,0,0,1,88.261,27l.829-1.382A8.066,8.066,0,0,0,93.7,27.094c2.581,0,4.332-1.475,4.332-4.24V21.471a5.681,5.681,0,0,1-4.7,2.581,5.427,5.427,0,0,1-5.53-5.53A5.5,5.5,0,0,1,93.33,12.9a5.773,5.773,0,0,1,4.7,2.4v-2.12h1.751v9.77C99.689,26.725,97.293,28.66,93.7,28.66Zm-.092-14.286a3.892,3.892,0,0,0-4.147,4.055,4,4,0,0,0,4.147,4.055A4.176,4.176,0,0,0,98.03,18.43,4.23,4.23,0,0,0,93.606,14.375Z" transform="translate(-58.86 -8.107)" fill="#7fbb65"/>
        <path id="Path_143" data-name="Path 143" d="M110.2,23.683a4.855,4.855,0,0,0,3.779-1.659l1.106.922a6.365,6.365,0,0,1-4.885,2.3,5.892,5.892,0,0,1-5.9-6.175c0-3.41,2.4-6.175,5.714-6.175,3.5,0,5.53,2.857,5.53,6.267v.553h-9.4A3.948,3.948,0,0,0,110.2,23.683Zm3.41-5.346c-.184-2.12-1.475-4.055-3.779-4.055-2.028,0-3.594,1.751-3.871,4.055Z" transform="translate(-60.153 -8.107)" fill="#7fbb65"/>
        <path id="Path_144" data-name="Path 144" d="M126.067,25.235a5.228,5.228,0,0,1-4.516-2.581v5.991H119.8V13.069h1.751v2.3a5.23,5.23,0,0,1,4.516-2.673,5.856,5.856,0,0,1,5.714,6.175C131.782,22.838,128.924,25.235,126.067,25.235ZM125.7,14.359a4.452,4.452,0,0,0-4.332,4.608,4.34,4.34,0,0,0,4.332,4.608c2.3,0,4.147-1.751,4.147-4.608A4.153,4.153,0,0,0,125.7,14.359Z" transform="translate(-61.367 -8.092)" fill="#7fbb65"/>
        <path id="Path_145" data-name="Path 145" d="M141.675,25.242a6.116,6.116,0,0,1-6.175-6.175,6.194,6.194,0,0,1,6.175-6.267,6.116,6.116,0,0,1,6.175,6.175A6.194,6.194,0,0,1,141.675,25.242Zm0-10.876a4.339,4.339,0,0,0-4.332,4.608,4.491,4.491,0,0,0,4.424,4.7,4.412,4.412,0,0,0,4.424-4.608,4.625,4.625,0,0,0-4.516-4.7Z" transform="translate(-62.597 -8.1)" fill="#7fbb65"/>
        <path id="Path_146" data-name="Path 146" d="M152.4,10.135V8.2h2.028v1.935Zm.184,14.47V12.716h1.751V24.605Z" transform="translate(-63.921 -7.739)" fill="#7fbb65"/>
        <path id="Path_147" data-name="Path 147" d="M160.751,24.966H159V13.076h1.751V15.1a4.43,4.43,0,0,1,4.055-2.3c2.857,0,4.516,1.935,4.516,4.7v7.373h-1.751V17.961c0-2.212-1.2-3.594-3.318-3.594a3.51,3.51,0,0,0-3.594,3.687l.092,6.912Z" transform="translate(-64.438 -8.1)" fill="#7fbb65"/>
        <path id="Path_148" data-name="Path 148" d="M176.618,21.274a1.8,1.8,0,0,0,2.028,2.028,3.994,3.994,0,0,0,1.751-.369v1.475a4,4,0,0,1-2.12.461c-1.935,0-3.318-.922-3.318-3.318V14.361H173.3V12.7h1.659V9.2h1.751v3.5h3.779v1.567H176.71v7Z" transform="translate(-65.558 -7.818)" fill="#7fbb65"/>
      </g>
      <g id="nav__logo__learning_1_" transform="translate(176.958 7.097)">
        <path id="Path_149" data-name="Path 149" d="M192,24.566V7.7h1.751V24.566Z" transform="translate(-192 -7.7)" fill="#7fbb65"/>
        <path id="Path_150" data-name="Path 150" d="M203.7,23.683a4.855,4.855,0,0,0,3.779-1.659l1.106.922a6.365,6.365,0,0,1-4.885,2.3,5.892,5.892,0,0,1-5.9-6.175c0-3.41,2.4-6.175,5.714-6.175,3.5,0,5.53,2.857,5.53,6.267v.553h-9.4a3.948,3.948,0,0,0,4.055,3.963Zm3.41-5.346c-.184-2.12-1.475-4.055-3.779-4.055-2.028,0-3.594,1.751-3.871,4.055Z" transform="translate(-192.454 -8.107)" fill="#7fbb65"/>
        <path id="Path_151" data-name="Path 151" d="M213.759,15.4l-.553-1.475A9.105,9.105,0,0,1,217.538,13c3.226,0,5.069,1.659,5.069,4.793v7.281h-1.751V23.323a5.161,5.161,0,0,1-4.332,2.028c-2.212,0-4.424-1.2-4.424-3.687,0-2.581,2.028-3.871,5.069-3.871a13.114,13.114,0,0,1,3.594.461v-.369c0-2.12-1.29-3.226-3.594-3.226a5.9,5.9,0,0,0-3.41.737Zm.276,5.991c0,1.475,1.382,2.4,3.041,2.4,2.212,0,3.963-1.29,3.963-3.226v-1.2a11.937,11.937,0,0,0-3.5-.461c-2.212,0-3.5,1.014-3.5,2.488Z" transform="translate(-193.575 -8.115)" fill="#7fbb65"/>
        <path id="Path_152" data-name="Path 152" d="M229.451,24.965H227.7V13.076h1.751v3.041a5.068,5.068,0,0,1,4.885-3.318v1.843h-.092c-2.581,0-4.7,1.843-4.7,5.438v4.885Z" transform="translate(-194.797 -8.099)" fill="#7fbb65"/>
        <path id="Path_153" data-name="Path 153" d="M239.551,24.966H237.8V13.076h1.751V15.1a4.43,4.43,0,0,1,4.055-2.3c2.857,0,4.516,1.935,4.516,4.7v7.373h-1.751V17.961c0-2.212-1.2-3.594-3.318-3.594a3.51,3.51,0,0,0-3.594,3.687v6.912Z" transform="translate(-195.588 -8.1)" fill="#7fbb65"/>
        <path id="Path_154" data-name="Path 154" d="M253.1,10.135V8.2h2.028v1.935Zm.184,14.47V12.716h1.751V24.605Z" transform="translate(-196.787 -7.739)" fill="#7fbb65"/>
        <path id="Path_155" data-name="Path 155" d="M261.451,24.966H259.7V13.076h1.751V15.1a4.43,4.43,0,0,1,4.055-2.3c2.857,0,4.516,1.935,4.516,4.7v7.373h-1.751V17.961c0-2.212-1.2-3.594-3.318-3.594a3.51,3.51,0,0,0-3.594,3.687l.092,6.912Z" transform="translate(-197.304 -8.1)" fill="#7fbb65"/>
        <path id="Path_156" data-name="Path 156" d="M280.3,28.66A9.258,9.258,0,0,1,274.861,27l.83-1.382a8.066,8.066,0,0,0,4.608,1.475c2.581,0,4.332-1.475,4.332-4.24V21.471a5.681,5.681,0,0,1-4.7,2.581,5.427,5.427,0,0,1-5.53-5.53,5.5,5.5,0,0,1,5.53-5.622,5.641,5.641,0,0,1,4.7,2.4v-2.12h1.751v9.77c-.092,3.779-2.488,5.714-6.083,5.714Zm-.092-14.286a3.892,3.892,0,0,0-4.147,4.055,4,4,0,0,0,4.147,4.055,4.176,4.176,0,0,0,4.424-4.055A4.23,4.23,0,0,0,280.206,14.375Z" transform="translate(-198.455 -8.107)" fill="#7fbb65"/>
      </g>
    </g>
    <rect id="Rectangle_2" data-name="Rectangle 2" width="1280" height="161" fill="#7fbb65"/>
    <g transform="matrix(1, 0, 0, 1, 0, 0)" filter="url(#Path_521)">
      <path id="Path_521-2" data-name="Path 521" d="M-483.45,0h16.85c6.25,0,9.7-3.85,9.7-9,0-4.1-2.9-7.65-6.45-8.2a7.493,7.493,0,0,0,5.8-7.65c0-4.7-3.4-8.5-9.5-8.5h-16.4Zm5.85-19.55V-28.2h9.35c3,0,4.7,1.85,4.7,4.35s-1.7,4.3-4.7,4.3Zm0,14.4V-14.4h9.6c3.35,0,5.1,2.1,5.1,4.6,0,2.9-1.9,4.65-5.1,4.65ZM-440.3.6c7.75,0,12.45-5.75,12.45-12.7,0-6.9-4.7-12.65-12.45-12.65-7.65,0-12.4,5.75-12.4,12.65C-452.7-5.15-447.95.6-440.3.6Zm0-4.65c-4.45,0-6.95-3.75-6.95-8.05,0-4.25,2.5-8,6.95-8,4.5,0,7,3.75,7,8C-433.3-7.8-435.8-4.05-440.3-4.05Zm15.65.9A14.688,14.688,0,0,0-414.3.6c6.5,0,10.05-3.25,10.05-7.5,0-5.7-5.15-6.9-9.35-7.8-2.85-.65-5.25-1.3-5.25-3.15,0-1.7,1.75-2.7,4.5-2.7a9.739,9.739,0,0,1,7.15,2.9l2.2-3.7a13.806,13.806,0,0,0-9.4-3.4c-6.1,0-9.5,3.4-9.5,7.35,0,5.4,4.95,6.5,9.1,7.4,2.95.65,5.5,1.4,5.5,3.5,0,1.8-1.6,2.95-4.75,2.95a12.465,12.465,0,0,1-8.2-3.4Zm24.2-8.95c0,7.35,5.15,12.7,12.5,12.7,4.7,0,7.55-2,9.25-4.3l-3.45-3.2a6.565,6.565,0,0,1-5.55,2.85c-4.4,0-7.3-3.35-7.3-8.05s2.9-8,7.3-8a6.446,6.446,0,0,1,5.55,2.85l3.45-3.2c-1.7-2.3-4.55-4.3-9.25-4.3C-395.3-24.75-400.45-19.4-400.45-12.1ZM-357.75,0h5.25V-17.1c0-4.95-2.6-7.65-7.8-7.65a11.543,11.543,0,0,0-8.55,3.9v-12.5h-5.25V0h5.25V-16.85a8.114,8.114,0,0,1,6.2-3.25c2.95,0,4.9,1.15,4.9,4.9Zm41.25,0h5.25V-17.1c0-4.95-2.6-7.65-7.8-7.65a11.543,11.543,0,0,0-8.55,3.9v-12.5h-5.25V0h5.25V-16.85a8.114,8.114,0,0,1,6.2-3.25c2.95,0,4.9,1.15,4.9,4.9Zm26.8,0h5.25V-16c0-6.5-4.7-8.75-10.05-8.75a14.361,14.361,0,0,0-10.15,3.9l2.15,3.65a9.889,9.889,0,0,1,7.15-3.05c3.35,0,5.65,1.7,5.65,4.5v3.6c-1.75-2.05-4.55-3.1-7.8-3.1-3.95,0-8.4,2.3-8.4,7.85,0,5.35,4.45,8,8.4,8a10.2,10.2,0,0,0,7.8-3.2Zm0-5.5A7.069,7.069,0,0,1-295.45-3c-2.95,0-5.15-1.7-5.15-4.3,0-2.65,2.2-4.35,5.15-4.35a7.069,7.069,0,0,1,5.75,2.5Zm9.95,2.35A14.688,14.688,0,0,0-269.4.6c6.5,0,10.05-3.25,10.05-7.5,0-5.7-5.15-6.9-9.35-7.8-2.85-.65-5.25-1.3-5.25-3.15,0-1.7,1.75-2.7,4.5-2.7a9.739,9.739,0,0,1,7.15,2.9l2.2-3.7a13.806,13.806,0,0,0-9.4-3.4c-6.1,0-9.5,3.4-9.5,7.35,0,5.4,4.95,6.5,9.1,7.4,2.95.65,5.5,1.4,5.5,3.5,0,1.8-1.6,2.95-4.75,2.95a12.465,12.465,0,0,1-8.2-3.4ZM-224.2,0h5.25V-33.35h-5.25V-20.8a9.688,9.688,0,0,0-7.75-3.95c-6.25,0-10.75,4.9-10.75,12.7C-242.7-4.1-238.15.6-231.95.6a9.78,9.78,0,0,0,7.75-3.9Zm0-7.25a7.891,7.891,0,0,1-6.25,3.2c-4.15,0-6.8-3.35-6.8-8,0-4.7,2.65-8.05,6.8-8.05a7.934,7.934,0,0,1,6.25,3.25Zm10.55-4.85c0,7.65,5.4,12.7,12.65,12.7a14.077,14.077,0,0,0,9.8-3.5l-2.4-3.45a10.221,10.221,0,0,1-6.85,2.65,7.315,7.315,0,0,1-7.7-6.65h18.65V-11.6c0-7.6-4.65-13.15-11.9-13.15C-208.55-24.75-213.65-19.1-213.65-12.1Zm12.25-8.35a6.459,6.459,0,0,1,6.8,6.4h-13.6A6.662,6.662,0,0,1-201.4-20.45ZM-167.3,0h5.25V-33.35h-5.25V-20.8a9.688,9.688,0,0,0-7.75-3.95c-6.25,0-10.75,4.9-10.75,12.7C-185.8-4.1-181.25.6-175.05.6a9.78,9.78,0,0,0,7.75-3.9Zm0-7.25a7.891,7.891,0,0,1-6.25,3.2c-4.15,0-6.8-3.35-6.8-8,0-4.7,2.65-8.05,6.8-8.05a7.934,7.934,0,0,1,6.25,3.25Zm14.65-20.6a3.244,3.244,0,0,0,3.25-3.25,3.244,3.244,0,0,0-3.25-3.25,3.276,3.276,0,0,0-3.25,3.25A3.276,3.276,0,0,0-152.65-27.85ZM-155.25,0H-150V-24.15h-5.25Zm10.55-12.1c0,7.35,5.15,12.7,12.5,12.7,4.7,0,7.55-2,9.25-4.3l-3.45-3.2a6.565,6.565,0,0,1-5.55,2.85c-4.4,0-7.3-3.35-7.3-8.05s2.9-8,7.3-8a6.446,6.446,0,0,1,5.55,2.85l3.45-3.2c-1.7-2.3-4.55-4.3-9.25-4.3C-139.55-24.75-144.7-19.4-144.7-12.1ZM-103.6,0h5.25V-16c0-6.5-4.7-8.75-10.05-8.75a14.361,14.361,0,0,0-10.15,3.9l2.15,3.65a9.889,9.889,0,0,1,7.15-3.05c3.35,0,5.65,1.7,5.65,4.5v3.6c-1.75-2.05-4.55-3.1-7.8-3.1-3.95,0-8.4,2.3-8.4,7.85,0,5.35,4.45,8,8.4,8a10.2,10.2,0,0,0,7.8-3.2Zm0-5.5A7.069,7.069,0,0,1-109.35-3c-2.95,0-5.15-1.7-5.15-4.3,0-2.65,2.2-4.35,5.15-4.35a7.069,7.069,0,0,1,5.75,2.5ZM-84.3.6A6.926,6.926,0,0,0-79.35-.95L-80.6-4.9a3.389,3.389,0,0,1-2.35.85c-1.5,0-2.3-1.2-2.3-2.85V-19.55h4.9v-4.6h-4.9v-6.6H-90.5v6.6h-4v4.6h4V-5.6C-90.5-1.6-88.35.6-84.3.6Zm7.2-12.7C-77.1-4.45-71.7.6-64.45.6a14.077,14.077,0,0,0,9.8-3.5l-2.4-3.45A10.221,10.221,0,0,1-63.9-3.7a7.315,7.315,0,0,1-7.7-6.65h18.65V-11.6c0-7.6-4.65-13.15-11.9-13.15C-72-24.75-77.1-19.1-77.1-12.1Zm12.25-8.35a6.459,6.459,0,0,1,6.8,6.4h-13.6A6.662,6.662,0,0,1-64.85-20.45ZM-30.75,0h5.25V-33.35h-5.25V-20.8a9.688,9.688,0,0,0-7.75-3.95c-6.25,0-10.75,4.9-10.75,12.7C-49.25-4.1-44.7.6-38.5.6a9.78,9.78,0,0,0,7.75-3.9Zm0-7.25A7.891,7.891,0,0,1-37-4.05c-4.15,0-6.8-3.35-6.8-8,0-4.7,2.65-8.05,6.8-8.05a7.934,7.934,0,0,1,6.25,3.25Zm24.3,2.7C-3.75-1.35.2.6,5.95.6c7.45,0,12.7-4.35,12.7-11.3A10.341,10.341,0,0,0,8-21.45a10.863,10.863,0,0,0-7.55,2.9V-28.2h16v-5.15H-5.4V-14.7l4.15,1.2a10.031,10.031,0,0,1,7.3-2.9c4.1,0,6.7,2.35,6.7,5.95C12.75-7.2,10.1-4.6,5.9-4.6a11.5,11.5,0,0,1-9-3.95ZM22.8-16.65C22.8-8.25,26.8.6,36.15.6S49.5-8.25,49.5-16.65s-4-17.2-13.35-17.2S22.8-25.05,22.8-16.65Zm20.75,0c0,6.35-1.95,12.05-7.4,12.05s-7.4-5.7-7.4-12.05,1.95-12,7.4-12S43.55-23,43.55-16.65Zm9.4-8.85a7.916,7.916,0,0,0,8.25,8.2,7.97,7.97,0,0,0,8.35-8.2,8.062,8.062,0,0,0-8.35-8.35A8.009,8.009,0,0,0,52.95-25.5ZM58,0h3.3L82.65-33.35H79.3Zm7.65-25.5c0,2.85-1.85,4.9-4.45,4.9-2.55,0-4.4-2.05-4.4-4.9,0-3,1.85-5,4.4-5C63.8-30.5,65.65-28.5,65.65-25.5ZM70.9-7.6A7.916,7.916,0,0,0,79.15.6a7.957,7.957,0,0,0,8.3-8.2,8.05,8.05,0,0,0-8.3-8.35A8.009,8.009,0,0,0,70.9-7.6Zm12.7,0c0,2.9-1.85,4.9-4.45,4.9s-4.4-2-4.4-4.9c0-3,1.8-5,4.4-5S83.6-10.6,83.6-7.6ZM116,.6c7.75,0,12.45-5.75,12.45-12.7,0-6.9-4.7-12.65-12.45-12.65-7.65,0-12.4,5.75-12.4,12.65C103.6-5.15,108.35.6,116,.6Zm0-4.65c-4.45,0-6.95-3.75-6.95-8.05,0-4.25,2.5-8,6.95-8,4.5,0,7,3.75,7,8C123-7.8,120.5-4.05,116-4.05ZM135,0h5.25V-19.55h4.9v-4.6h-4.9V-25.5c0-2.7,1.3-4.05,3.35-4.05a4.208,4.208,0,0,1,2.1.5l1.15-3.85a8.7,8.7,0,0,0-4.2-.95c-4.45,0-7.65,2.95-7.65,8.35v1.35h-4v4.6h4Zm46.2,0h6.75L179.8-13.1c4-.65,7.9-3.85,7.9-9.8,0-6.15-4.3-10.45-10.9-10.45H162.15V0H168V-12.45h5.8Zm.5-22.9c0,3.2-2.4,5.3-5.7,5.3h-8V-28.2h8C179.3-28.2,181.7-26.1,181.7-22.9ZM214.65-6.55a42.654,42.654,0,0,0,4.6-8.25l-4.3-1.95a28.561,28.561,0,0,1-3.3,6.95c-1.1-1.25-2.2-2.5-3.3-3.85-.95-1.1-2.15-2.55-3.25-4.1,4.15-2.05,8.3-4.2,8.3-9.25,0-4.35-3.7-6.85-8.25-6.85-5.2,0-9.05,3.4-9.05,7.9a15.6,15.6,0,0,0,2.35,7.3c-3.8,2-7.25,4.6-7.25,9.75,0,6.35,4.8,9.5,10.75,9.5a14.152,14.152,0,0,0,9.35-3.5c1.1,1.1,2.15,2.15,2.95,2.9h6.85C218.75-2.3,216.65-4.45,214.65-6.55ZM201.4-25.85a3.943,3.943,0,0,1,4-4.1,3.084,3.084,0,0,1,3.35,3.2c0,2.8-2.55,4.4-5.7,5.9A11.308,11.308,0,0,1,201.4-25.85ZM202.6-3.6a5.576,5.576,0,0,1-5.8-5.75c0-2.8,1.6-4.55,3.75-6,1.2,1.7,2.5,3.35,3.7,4.8.9,1.05,2.45,2.8,4.1,4.6A8.938,8.938,0,0,1,202.6-3.6ZM225.5,0h12.4c10.4,0,17.45-6.85,17.45-16.65s-7.05-16.7-17.45-16.7H225.5Zm5.85-5.15V-28.2h6.55c7.45,0,11.45,5.1,11.45,11.55,0,6.3-4.2,11.5-11.45,11.5ZM273.7,0h5.25V-3.3A9.708,9.708,0,0,0,286.7.6c6.15,0,10.7-4.7,10.7-12.65,0-7.8-4.5-12.7-10.7-12.7a9.549,9.549,0,0,0-7.75,3.95V-33.35H273.7Zm5.25-7.25V-16.8a7.881,7.881,0,0,1,6.2-3.3c4.2,0,6.85,3.35,6.85,8.05s-2.65,8-6.85,8A7.793,7.793,0,0,1,278.95-7.25ZM319.05,0h5.25V-24.15h-5.25V-7.2a8.032,8.032,0,0,1-6.2,3.15c-2.95,0-4.85-1.15-4.85-4.9v-15.2h-5.25v17.1C302.75-2.1,305.3.6,310.5.6a11.575,11.575,0,0,0,8.55-3.8ZM348.1,0h5.25V-33.35H348.1V-20.8a9.688,9.688,0,0,0-7.75-3.95c-6.25,0-10.75,4.9-10.75,12.7C329.6-4.1,334.15.6,340.35.6a9.78,9.78,0,0,0,7.75-3.9Zm0-7.25a7.891,7.891,0,0,1-6.25,3.2c-4.15,0-6.8-3.35-6.8-8,0-4.7,2.65-8.05,6.8-8.05a7.934,7.934,0,0,1,6.25,3.25ZM359.85,6.2c2.95,2.7,6,3.6,10.1,3.6,5.95,0,12.4-2.35,12.4-11.05v-22.9H377.1v3.35a9.618,9.618,0,0,0-7.75-3.95c-6.2,0-10.7,4.6-10.7,12.4,0,7.95,4.55,12.4,10.7,12.4a9.8,9.8,0,0,0,7.75-4v2.9c0,4.95-3.7,6.55-7.15,6.55-3.2,0-5.7-.85-7.65-3.1ZM377.1-7.85a7.837,7.837,0,0,1-6.2,3.25c-4.15,0-6.8-3.1-6.8-7.75s2.65-7.75,6.8-7.75a7.837,7.837,0,0,1,6.2,3.25Zm10.55-4.25c0,7.65,5.4,12.7,12.65,12.7a14.077,14.077,0,0,0,9.8-3.5l-2.4-3.45a10.221,10.221,0,0,1-6.85,2.65,7.315,7.315,0,0,1-7.7-6.65H411.8V-11.6c0-7.6-4.65-13.15-11.9-13.15C392.75-24.75,387.65-19.1,387.65-12.1Zm12.25-8.35a6.459,6.459,0,0,1,6.8,6.4H393.1A6.662,6.662,0,0,1,399.9-20.45ZM424.25.6A6.926,6.926,0,0,0,429.2-.95L427.95-4.9a3.389,3.389,0,0,1-2.35.85c-1.5,0-2.3-1.2-2.3-2.85V-19.55h4.9v-4.6h-4.9v-6.6h-5.25v6.6h-4v4.6h4V-5.6C418.05-1.6,420.2.6,424.25.6Zm28.8,0A6.926,6.926,0,0,0,458-.95L456.75-4.9a3.389,3.389,0,0,1-2.35.85c-1.5,0-2.3-1.2-2.3-2.85V-19.55H457v-4.6h-4.9v-6.6h-5.25v6.6h-4v4.6h4V-5.6C446.85-1.6,449,.6,453.05.6Zm19.6,0c7.75,0,12.45-5.75,12.45-12.7,0-6.9-4.7-12.65-12.45-12.65-7.65,0-12.4,5.75-12.4,12.65C460.25-5.15,465,.6,472.65.6Zm0-4.65c-4.45,0-6.95-3.75-6.95-8.05,0-4.25,2.5-8,6.95-8,4.5,0,7,3.75,7,8C479.65-7.8,477.15-4.05,472.65-4.05Zm-1025.9,54.9A14.688,14.688,0,0,0-542.9,54.6c6.5,0,10.05-3.25,10.05-7.5,0-5.7-5.15-6.9-9.35-7.8-2.85-.65-5.25-1.3-5.25-3.15,0-1.7,1.75-2.7,4.5-2.7a9.739,9.739,0,0,1,7.15,2.9l2.2-3.7a13.806,13.806,0,0,0-9.4-3.4c-6.1,0-9.5,3.4-9.5,7.35,0,5.4,4.95,6.5,9.1,7.4,2.95.65,5.5,1.4,5.5,3.5,0,1.8-1.6,2.95-4.75,2.95a12.465,12.465,0,0,1-8.2-3.4Zm42,3.15H-506V29.85h-5.25V46.8a8.032,8.032,0,0,1-6.2,3.15c-2.95,0-4.85-1.15-4.85-4.9V29.85h-5.25v17.1c0,4.95,2.55,7.65,7.75,7.65a11.575,11.575,0,0,0,8.55-3.8Zm17.3,9.2V50.65a9.482,9.482,0,0,0,7.75,3.95c6.25,0,10.7-4.75,10.7-12.7s-4.45-12.65-10.7-12.65a9.636,9.636,0,0,0-7.75,3.9v-3.3h-5.25V63.2Zm13-21.3c0,4.7-2.65,8.05-6.8,8.05a7.98,7.98,0,0,1-6.2-3.25V37.15a7.837,7.837,0,0,1,6.2-3.25C-483.6,33.9-480.95,37.25-480.95,41.9Zm16,21.3V50.65a9.482,9.482,0,0,0,7.75,3.95c6.25,0,10.7-4.75,10.7-12.7s-4.45-12.65-10.7-12.65a9.636,9.636,0,0,0-7.75,3.9v-3.3h-5.25V63.2Zm13-21.3c0,4.7-2.65,8.05-6.8,8.05a7.98,7.98,0,0,1-6.2-3.25V37.15a7.837,7.837,0,0,1,6.2-3.25C-454.6,33.9-451.95,37.25-451.95,41.9Zm21.65,12.7c7.75,0,12.45-5.75,12.45-12.7,0-6.9-4.7-12.65-12.45-12.65-7.65,0-12.4,5.75-12.4,12.65C-442.7,48.85-437.95,54.6-430.3,54.6Zm0-4.65c-4.45,0-6.95-3.75-6.95-8.05,0-4.25,2.5-8,6.95-8,4.5,0,7,3.75,7,8C-423.3,46.2-425.8,49.95-430.3,49.95ZM-412.55,54h5.25V37.55a8.339,8.339,0,0,1,6.2-3.2,7.739,7.739,0,0,1,1.65.15V29.3a10.313,10.313,0,0,0-7.85,4.1V29.85h-5.25Zm24.6.6A6.926,6.926,0,0,0-383,53.05l-1.25-3.95a3.389,3.389,0,0,1-2.35.85c-1.5,0-2.3-1.2-2.3-2.85V34.45h4.9v-4.6h-4.9v-6.6h-5.25v6.6h-4v4.6h4V48.4C-394.15,52.4-392,54.6-387.95,54.6Zm28.8,0a6.926,6.926,0,0,0,4.95-1.55l-1.25-3.95a3.389,3.389,0,0,1-2.35.85c-1.5,0-2.3-1.2-2.3-2.85V34.45h4.9v-4.6h-4.9v-6.6h-5.25v6.6h-4v4.6h4V48.4C-365.35,52.4-363.2,54.6-359.15,54.6Zm7.2-12.7c0,7.65,5.4,12.7,12.65,12.7a14.077,14.077,0,0,0,9.8-3.5l-2.4-3.45a10.221,10.221,0,0,1-6.85,2.65,7.315,7.315,0,0,1-7.7-6.65h18.65V42.4c0-7.6-4.65-13.15-11.9-13.15C-346.85,29.25-351.95,34.9-351.95,41.9Zm12.25-8.35a6.459,6.459,0,0,1,6.8,6.4h-13.6A6.662,6.662,0,0,1-339.7,33.55Zm15.6,8.35c0,7.35,5.15,12.7,12.5,12.7,4.7,0,7.55-2,9.25-4.3l-3.45-3.2a6.565,6.565,0,0,1-5.55,2.85c-4.4,0-7.3-3.35-7.3-8.05s2.9-8,7.3-8a6.446,6.446,0,0,1,5.55,2.85l3.45-3.2c-1.7-2.3-4.55-4.3-9.25-4.3C-318.95,29.25-324.1,34.6-324.1,41.9ZM-281.4,54h5.25V36.9c0-4.95-2.6-7.65-7.8-7.65a11.543,11.543,0,0,0-8.55,3.9V20.65h-5.25V54h5.25V37.15a8.114,8.114,0,0,1,6.2-3.25c2.95,0,4.9,1.15,4.9,4.9Zm28.35,0h5.25V37c0-4.95-2.6-7.75-7.8-7.75a11.426,11.426,0,0,0-8.5,3.9v-3.3h-5.25V54h5.25V37.15a7.95,7.95,0,0,1,6.2-3.25c2.95,0,4.85,1.25,4.85,5Zm22.95.6c7.75,0,12.45-5.75,12.45-12.7,0-6.9-4.7-12.65-12.45-12.65-7.65,0-12.4,5.75-12.4,12.65C-242.5,48.85-237.75,54.6-230.1,54.6Zm0-4.65c-4.45,0-6.95-3.75-6.95-8.05,0-4.25,2.5-8,6.95-8,4.5,0,7,3.75,7,8C-223.1,46.2-225.6,49.95-230.1,49.95ZM-212.35,54h5.25V20.65h-5.25Zm22.95.6c7.75,0,12.45-5.75,12.45-12.7,0-6.9-4.7-12.65-12.45-12.65-7.65,0-12.4,5.75-12.4,12.65C-201.8,48.85-197.05,54.6-189.4,54.6Zm0-4.65c-4.45,0-6.95-3.75-6.95-8.05,0-4.25,2.5-8,6.95-8,4.5,0,7,3.75,7,8C-182.4,46.2-184.9,49.95-189.4,49.95Zm17.45,10.25c2.95,2.7,6,3.6,10.1,3.6,5.95,0,12.4-2.35,12.4-11.05V29.85h-5.25V33.2a9.618,9.618,0,0,0-7.75-3.95c-6.2,0-10.7,4.6-10.7,12.4,0,7.95,4.55,12.4,10.7,12.4a9.8,9.8,0,0,0,7.75-4v2.9c0,4.95-3.7,6.55-7.15,6.55-3.2,0-5.7-.85-7.65-3.1Zm17.25-14.05a7.837,7.837,0,0,1-6.2,3.25c-4.15,0-6.8-3.1-6.8-7.75s2.65-7.75,6.8-7.75a7.837,7.837,0,0,1,6.2,3.25Zm11.8,12.6-.8,4.7a14.848,14.848,0,0,0,2.95.35c3.75-.05,6.65-1.35,8.3-5.45l11.65-28.5h-5.65l-7.05,18.1-7.05-18.1h-5.6l9.9,24.45-1.2,2.75a3.271,3.271,0,0,1-3.45,2.1A5.487,5.487,0,0,1-142.9,58.75Zm45.5-4.15a6.926,6.926,0,0,0,4.95-1.55L-93.7,49.1a3.389,3.389,0,0,1-2.35.85c-1.5,0-2.3-1.2-2.3-2.85V34.45h4.9v-4.6h-4.9v-6.6h-5.25v6.6h-4v4.6h4V48.4C-103.6,52.4-101.45,54.6-97.4,54.6Zm25.05-.6h5.25V36.9c0-4.95-2.6-7.65-7.8-7.65a11.543,11.543,0,0,0-8.55,3.9V20.65H-88.7V54h5.25V37.15a8.114,8.114,0,0,1,6.2-3.25c2.95,0,4.9,1.15,4.9,4.9Zm26.8,0h5.25V38c0-6.5-4.7-8.75-10.05-8.75a14.361,14.361,0,0,0-10.15,3.9l2.15,3.65a9.889,9.889,0,0,1,7.15-3.05c3.35,0,5.65,1.7,5.65,4.5v3.6c-1.75-2.05-4.55-3.1-7.8-3.1-3.95,0-8.4,2.3-8.4,7.85,0,5.35,4.45,8,8.4,8a10.2,10.2,0,0,0,7.8-3.2Zm0-5.5A7.069,7.069,0,0,1-51.3,51c-2.95,0-5.15-1.7-5.15-4.3,0-2.65,2.2-4.35,5.15-4.35a7.069,7.069,0,0,1,5.75,2.5Zm19.3,6.1a6.926,6.926,0,0,0,4.95-1.55l-1.25-3.95a3.389,3.389,0,0,1-2.35.85c-1.5,0-2.3-1.2-2.3-2.85V34.45h4.9v-4.6h-4.9v-6.6h-5.25v6.6h-4v4.6h4V48.4C-32.45,52.4-30.3,54.6-26.25,54.6ZM.55,63.2V50.65A9.482,9.482,0,0,0,8.3,54.6c6.25,0,10.7-4.75,10.7-12.7S14.55,29.25,8.3,29.25a9.636,9.636,0,0,0-7.75,3.9v-3.3H-4.7V63.2Zm13-21.3c0,4.7-2.65,8.05-6.8,8.05A7.98,7.98,0,0,1,.55,46.7V37.15a7.837,7.837,0,0,1,6.2-3.25C10.9,33.9,13.55,37.25,13.55,41.9ZM24.3,54h5.25V37.55a8.339,8.339,0,0,1,6.2-3.2,7.739,7.739,0,0,1,1.65.15V29.3a10.313,10.313,0,0,0-7.85,4.1V29.85H24.3Zm28.25.6C60.3,54.6,65,48.85,65,41.9c0-6.9-4.7-12.65-12.45-12.65-7.65,0-12.4,5.75-12.4,12.65C40.15,48.85,44.9,54.6,52.55,54.6Zm0-4.65c-4.45,0-6.95-3.75-6.95-8.05,0-4.25,2.5-8,6.95-8,4.5,0,7,3.75,7,8C59.55,46.2,57.05,49.95,52.55,49.95Zm25,4.65a6.926,6.926,0,0,0,4.95-1.55L81.25,49.1a3.389,3.389,0,0,1-2.35.85c-1.5,0-2.3-1.2-2.3-2.85V34.45h4.9v-4.6H76.6v-6.6H71.35v6.6h-4v4.6h4V48.4C71.35,52.4,73.5,54.6,77.55,54.6Zm7.2-12.7c0,7.65,5.4,12.7,12.65,12.7a14.077,14.077,0,0,0,9.8-3.5l-2.4-3.45a10.221,10.221,0,0,1-6.85,2.65,7.315,7.315,0,0,1-7.7-6.65H108.9V42.4c0-7.6-4.65-13.15-11.9-13.15C89.85,29.25,84.75,34.9,84.75,41.9ZM97,33.55a6.459,6.459,0,0,1,6.8,6.4H90.2A6.662,6.662,0,0,1,97,33.55Zm15.6,8.35c0,7.35,5.15,12.7,12.5,12.7,4.7,0,7.55-2,9.25-4.3l-3.45-3.2a6.565,6.565,0,0,1-5.55,2.85c-4.4,0-7.3-3.35-7.3-8.05s2.9-8,7.3-8a6.446,6.446,0,0,1,5.55,2.85l3.45-3.2c-1.7-2.3-4.55-4.3-9.25-4.3C117.75,29.25,112.6,34.6,112.6,41.9Zm33.6,12.7a6.926,6.926,0,0,0,4.95-1.55L149.9,49.1a3.389,3.389,0,0,1-2.35.85c-1.5,0-2.3-1.2-2.3-2.85V34.45h4.9v-4.6h-4.9v-6.6H140v6.6h-4v4.6h4V48.4C140,52.4,142.15,54.6,146.2,54.6Zm6.6-3.75a14.688,14.688,0,0,0,10.35,3.75c6.5,0,10.05-3.25,10.05-7.5,0-5.7-5.15-6.9-9.35-7.8-2.85-.65-5.25-1.3-5.25-3.15,0-1.7,1.75-2.7,4.5-2.7a9.739,9.739,0,0,1,7.15,2.9l2.2-3.7a13.806,13.806,0,0,0-9.4-3.4c-6.1,0-9.5,3.4-9.5,7.35,0,5.4,4.95,6.5,9.1,7.4,2.95.65,5.5,1.4,5.5,3.5,0,1.8-1.6,2.95-4.75,2.95a12.465,12.465,0,0,1-8.2-3.4Zm45.8,3.75a6.926,6.926,0,0,0,4.95-1.55L202.3,49.1a3.389,3.389,0,0,1-2.35.85c-1.5,0-2.3-1.2-2.3-2.85V34.45h4.9v-4.6h-4.9v-6.6H192.4v6.6h-4v4.6h4V48.4C192.4,52.4,194.55,54.6,198.6,54.6Zm25.05-.6h5.25V36.9c0-4.95-2.6-7.65-7.8-7.65a11.543,11.543,0,0,0-8.55,3.9V20.65H207.3V54h5.25V37.15a8.114,8.114,0,0,1,6.2-3.25c2.95,0,4.9,1.15,4.9,4.9ZM234.2,41.9c0,7.65,5.4,12.7,12.65,12.7a14.077,14.077,0,0,0,9.8-3.5l-2.4-3.45a10.221,10.221,0,0,1-6.85,2.65,7.315,7.315,0,0,1-7.7-6.65h18.65V42.4c0-7.6-4.65-13.15-11.9-13.15C239.3,29.25,234.2,34.9,234.2,41.9Zm12.25-8.35a6.459,6.459,0,0,1,6.8,6.4h-13.6A6.662,6.662,0,0,1,246.45,33.55ZM274.9,41.9c0,7.65,5.4,12.7,12.65,12.7a14.077,14.077,0,0,0,9.8-3.5l-2.4-3.45a10.221,10.221,0,0,1-6.85,2.65,7.315,7.315,0,0,1-7.7-6.65h18.65V42.4c0-7.6-4.65-13.15-11.9-13.15C280,29.25,274.9,34.9,274.9,41.9Zm12.25-8.35a6.459,6.459,0,0,1,6.8,6.4h-13.6A6.662,6.662,0,0,1,287.15,33.55ZM320.55,54h5.25V37c0-4.95-2.6-7.75-7.8-7.75a11.426,11.426,0,0,0-8.5,3.9v-3.3h-5.25V54h5.25V37.15a7.95,7.95,0,0,1,6.2-3.25c2.95,0,4.85,1.25,4.85,5Zm18.4,0h5.65l9.85-24.15H348.8l-7.05,18.1-7.05-18.1h-5.6Zm21.4-27.85a3.25,3.25,0,1,0-3.25-3.25A3.244,3.244,0,0,0,360.35,26.15ZM357.75,54H363V29.85h-5.25Zm12.05,0h5.25V37.55a8.339,8.339,0,0,1,6.2-3.2,7.739,7.739,0,0,1,1.65.15V29.3a10.313,10.313,0,0,0-7.85,4.1V29.85H369.8Zm28.25.6c7.75,0,12.45-5.75,12.45-12.7,0-6.9-4.7-12.65-12.45-12.65-7.65,0-12.4,5.75-12.4,12.65C385.65,48.85,390.4,54.6,398.05,54.6Zm0-4.65c-4.45,0-6.95-3.75-6.95-8.05,0-4.25,2.5-8,6.95-8,4.5,0,7,3.75,7,8C405.05,46.2,402.55,49.95,398.05,49.95ZM432.1,54h5.25V37c0-4.95-2.6-7.75-7.8-7.75a11.426,11.426,0,0,0-8.5,3.9v-3.3H415.8V54h5.25V37.15a7.95,7.95,0,0,1,6.2-3.25c2.95,0,4.85,1.25,4.85,5Zm41.65,0H479V36.55c0-4.9-2.5-7.3-6.95-7.3a10.242,10.242,0,0,0-8.2,4.45c-.8-2.65-3-4.45-6.6-4.45a10.43,10.43,0,0,0-7.85,3.9v-3.3h-5.25V54h5.25V37.15a7.307,7.307,0,0,1,5.55-3.25c2.85,0,4,1.75,4,4.35V54h5.25V37.1a7.328,7.328,0,0,1,5.6-3.2c2.8,0,3.95,1.75,3.95,4.35ZM484.3,41.9c0,7.65,5.4,12.7,12.65,12.7a14.077,14.077,0,0,0,9.8-3.5l-2.4-3.45a10.221,10.221,0,0,1-6.85,2.65,7.315,7.315,0,0,1-7.7-6.65h18.65V42.4c0-7.6-4.65-13.15-11.9-13.15C489.4,29.25,484.3,34.9,484.3,41.9Zm12.25-8.35a6.459,6.459,0,0,1,6.8,6.4h-13.6A6.662,6.662,0,0,1,496.55,33.55ZM529.95,54h5.25V37c0-4.95-2.6-7.75-7.8-7.75a11.426,11.426,0,0,0-8.5,3.9v-3.3h-5.25V54h5.25V37.15a7.95,7.95,0,0,1,6.2-3.25c2.95,0,4.85,1.25,4.85,5Zm19.3.6a6.926,6.926,0,0,0,4.95-1.55l-1.25-3.95a3.389,3.389,0,0,1-2.35.85c-1.5,0-2.3-1.2-2.3-2.85V34.45h4.9v-4.6h-4.9v-6.6h-5.25v6.6h-4v4.6h4V48.4C543.05,52.4,545.2,54.6,549.25,54.6Z" transform="translate(640 71)" fill="#fff"/>
    </g>
    <g id="undraw_environment_iaus" transform="translate(129 198.557)">
      <path id="Path_509" data-name="Path 509" d="M527.3,553.383s89.218-10.706,120.444-27.657,263.192-24.981,263.192,27.657-266.761,75.836-266.761,75.836l-140.071-8.03Z" transform="translate(-240.913 -216.839)" fill="#fbbebe"/>
      <path id="Path_510" data-name="Path 510" d="M527.3,553.383s89.218-10.706,120.444-27.657,263.192-24.981,263.192,27.657-266.761,75.836-266.761,75.836l-140.071-8.03Z" transform="translate(-240.913 -216.839)" opacity="0.1"/>
      <path id="Path_511" data-name="Path 511" d="M598.261,544.3l-26.476,54.423L157,602.294V522s158.854-25.873,284.929,29.442C441.929,551.44,590.7,538.95,598.261,544.3Z" transform="translate(-286 -217.573)" fill="#6c63ff"/>
      <path id="Path_512" data-name="Path 512" d="M598.261,544.188,571.786,598.61,157,602.178v-80.3s158.854-25.873,284.929,29.442C441.929,551.325,590.7,538.834,598.261,544.188Z" transform="translate(-286 -217.544)" opacity="0.1"/>
      <path id="Path_513" data-name="Path 513" d="M937.126,501.166c0,3.041-6.819,5.3-7.489,8.231-.665,2.909,3.386,7.333,2.1,10.112a55.028,55.028,0,0,1-4.68,8.138c-1.679,2.4-6.867,2.054-8.995,4.309a71.515,71.515,0,0,1-6.606,5.745c-2.257,1.877-5.315,2.271-7.882,4-2.44,1.643-2.145,7.67-4.845,9.166-2.58,1.43-6.528.28-9.327,1.565-2.686,1.233-4.1,5.7-6.974,6.786-2.769,1.052-6.2.6-9.125,1.511-2.834.882-6,.739-8.973,1.482-2.883.721-5.085,5.043-8.085,5.626-2.922.568-6.347-.946-9.369-.516-2.951.42-6.383-3.315-9.418-3.032-2.971.277-5.771,2.006-8.814,2.145-2.984.137-5.933,1.451-8.977,1.451s-6.183,2.855-9.167,2.718c-3.043-.14-5.8-4.467-8.768-4.744-3.036-.283-6.657,4.237-9.608,3.818-3.022-.43-5.415-4.855-8.337-5.422-3-.583-6.875,2.579-9.759,1.858-2.97-.743-4.732-5.89-7.566-6.772-2.928-.911-6.557.323-9.326-.729-2.872-1.091-6.37-.916-9.057-2.15-2.8-1.285-4.807-4.326-7.387-5.756-2.7-1.5-3.944-5.207-6.385-6.85-2.567-1.728-6.478-1.508-8.735-3.385-2.383-1.982-6.848-2.085-8.859-4.218-2.127-2.255-2.988-6.042-4.667-8.447-1.769-2.533,1.7-7.888.468-10.565-1.281-2.778-6.639-3.907-7.3-6.816a42.789,42.789,0,0,1-1.049-9.256c0-3.041,4.582-5.365,5.252-8.3.665-2.909-2.707-7.088-1.426-9.866,1.235-2.677,1.077-6.793,2.847-9.326,1.679-2.4,5.871-3.347,8-5.6,2.011-2.132,5.611-2.727,7.994-4.709,2.257-1.877,1.97-7.538,4.536-9.266,2.44-1.643,5.848-2.393,8.547-3.889,2.58-1.43,6.23-1.189,9.029-2.474,2.686-1.234,6.893,1.2,9.764.106,2.769-1.052,5.015-3.352,7.943-4.263,2.834-.882,4.165-7.609,7.134-8.351,2.883-.721,6.431.476,9.43-.107,2.922-.568,6.854,4.74,9.876,4.31,2.951-.42,5.158-7.5,8.193-7.788,2.971-.277,6.321,3.393,9.364,3.253,2.984-.137,5.979,2.013,9.023,2.013s6.075-2.951,9.058-2.814c3.043.14,5.726,4.039,8.7,4.316,3.036.283,6.763-5.649,9.714-5.229,3.022.43,5.356,5.015,8.279,5.583,3,.583,6.758-2.264,9.642-1.543,2.969.743,4.756,5.616,7.59,6.5,2.928.911,4.731,4.349,7.5,5.4,2.872,1.091,8.207-4.014,10.893-2.781,2.8,1.285,5.215,3.509,7.795,4.939,2.7,1.5,6.991.744,9.432,2.387,2.567,1.728,3.2,6.367,5.455,8.245,2.383,1.982,6.314,2.579,8.325,4.711,2.127,2.255,2.423,6.3,4.1,8.7,1.769,2.533,1.713,6.042,2.948,8.719,1.281,2.778,4.7,4.879,5.367,7.788C935.147,494.765,937.126,498.126,937.126,501.166Z" transform="translate(-289.278 -197.186)" fill="#3f3d56"/>
      <path id="Path_514" data-name="Path 514" d="M585.085,584.992S685.9,533.245,751.03,552.873,907.161,538.6,917.867,550.2s25.873,136.5-102.6,143.64-238.211-21.412-238.211-21.412Z" transform="translate(-258.549 -225.25)" fill="#fbbebe"/>
      <path id="Path_515" data-name="Path 515" d="M574.385,580.079s54.864-2.519,52.4,11.756-4.919,124.9-19.677,127.581-131.59,2.677-179.553,2.677H157V551.051s191.851-8.286,287.777,26.509C444.777,577.56,560.106,576.352,574.385,580.079Z" transform="translate(-286 -225.849)" fill="#6c63ff"/>
      <path id="Path_516" data-name="Path 516" d="M796.115,236.779a20.5,20.5,0,0,0-17.674,12.357c-4.419,10.683,1.271,23.231,9.813,31.021s19.515,12.243,29.485,18.1c13.391,7.861,25.424,18.774,32.125,32.782s7.413,31.36-.463,44.742c-7.31,12.421-20.6,19.855-33.28,26.712" transform="translate(-306.863 -150.082)" fill="none" stroke="#3f3d56" stroke-miterlimit="10" stroke-width="1"/>
      <path id="Path_517" data-name="Path 517" d="M843.18,150.885a20.5,20.5,0,0,0-17.674,12.357c-4.419,10.683,1.271,23.231,9.813,31.021s19.515,12.243,29.485,18.1c13.391,7.861,25.424,18.774,32.125,32.782s7.413,31.36-.463,44.742c-7.31,12.421-20.6,19.855-33.28,26.712" transform="translate(-318.241 -129.317)" fill="none" stroke="#3f3d56" stroke-miterlimit="10" stroke-width="1"/>
      <path id="Path_518" data-name="Path 518" d="M976.75,169.489a20.5,20.5,0,0,0-21.54-1.048c-10.034,5.742-13.217,19.147-11.231,30.537s7.936,21.627,12.237,32.358c5.776,14.414,8.611,30.409,5.333,45.587s-13.336,29.335-27.756,35.1c-13.384,5.347-28.446,3.088-42.667.748" transform="translate(-334.476 -132.942)" fill="none" stroke="#3f3d56" stroke-miterlimit="10" stroke-width="1"/>
      <ellipse id="Ellipse_25" data-name="Ellipse 25" cx="21.412" cy="10.4" rx="21.412" ry="10.4" transform="translate(517.462 150.385)" fill="#7fbb65"/>
      <ellipse id="Ellipse_26" data-name="Ellipse 26" cx="21.412" cy="10.4" rx="21.412" ry="10.4" transform="translate(514.786 148.601)" fill="none" stroke="#3f3d56" stroke-miterlimit="10" stroke-width="1"/>
      <ellipse id="Ellipse_27" data-name="Ellipse 27" cx="21.412" cy="10.4" rx="21.412" ry="10.4" transform="translate(563.855 141.464)" fill="#7fbb65"/>
      <ellipse id="Ellipse_28" data-name="Ellipse 28" cx="21.412" cy="10.4" rx="21.412" ry="10.4" transform="translate(561.179 139.68)" fill="none" stroke="#3f3d56" stroke-miterlimit="10" stroke-width="1"/>
      <ellipse id="Ellipse_29" data-name="Ellipse 29" cx="21.412" cy="10.4" rx="21.412" ry="10.4" transform="translate(570.993 180.72)" fill="#7fbb65"/>
      <ellipse id="Ellipse_30" data-name="Ellipse 30" cx="21.412" cy="10.4" rx="21.412" ry="10.4" transform="translate(568.316 178.935)" fill="none" stroke="#3f3d56" stroke-miterlimit="10" stroke-width="1"/>
      <ellipse id="Ellipse_31" data-name="Ellipse 31" cx="21.412" cy="10.4" rx="21.412" ry="10.4" transform="translate(566.532 82.58)" fill="#7fbb65"/>
      <ellipse id="Ellipse_32" data-name="Ellipse 32" cx="21.412" cy="10.4" rx="21.412" ry="10.4" transform="translate(563.855 80.796)" fill="none" stroke="#3f3d56" stroke-miterlimit="10" stroke-width="1"/>
      <ellipse id="Ellipse_33" data-name="Ellipse 33" cx="21.412" cy="10.4" rx="21.412" ry="10.4" transform="translate(513.001 76.335)" fill="#7fbb65"/>
      <ellipse id="Ellipse_34" data-name="Ellipse 34" cx="21.412" cy="10.4" rx="21.412" ry="10.4" transform="translate(510.325 74.551)" fill="none" stroke="#3f3d56" stroke-miterlimit="10" stroke-width="1"/>
      <ellipse id="Ellipse_35" data-name="Ellipse 35" cx="21.412" cy="10.4" rx="21.412" ry="10.4" transform="translate(537.09 54.031)" fill="#7fbb65"/>
      <ellipse id="Ellipse_36" data-name="Ellipse 36" cx="21.412" cy="10.4" rx="21.412" ry="10.4" transform="translate(534.414 52.246)" fill="none" stroke="#3f3d56" stroke-miterlimit="10" stroke-width="1"/>
      <ellipse id="Ellipse_37" data-name="Ellipse 37" cx="21.412" cy="10.4" rx="21.412" ry="10.4" transform="translate(589.728 58.491)" fill="#7fbb65"/>
      <ellipse id="Ellipse_38" data-name="Ellipse 38" cx="21.412" cy="10.4" rx="21.412" ry="10.4" transform="translate(587.052 56.707)" fill="none" stroke="#3f3d56" stroke-miterlimit="10" stroke-width="1"/>
      <ellipse id="Ellipse_39" data-name="Ellipse 39" cx="21.412" cy="10.4" rx="21.412" ry="10.4" transform="translate(628.984 87.934)" fill="#7fbb65"/>
      <ellipse id="Ellipse_40" data-name="Ellipse 40" cx="21.412" cy="10.4" rx="21.412" ry="10.4" transform="translate(626.308 86.149)" fill="none" stroke="#3f3d56" stroke-miterlimit="10" stroke-width="1"/>
      <ellipse id="Ellipse_41" data-name="Ellipse 41" cx="21.412" cy="10.4" rx="21.412" ry="10.4" transform="translate(490.697 36.187)" fill="#7fbb65"/>
      <ellipse id="Ellipse_42" data-name="Ellipse 42" cx="21.412" cy="10.4" rx="21.412" ry="10.4" transform="translate(488.02 34.403)" fill="none" stroke="#3f3d56" stroke-miterlimit="10" stroke-width="1"/>
      <ellipse id="Ellipse_43" data-name="Ellipse 43" cx="21.412" cy="10.4" rx="21.412" ry="10.4" transform="translate(504.079 2.284)" fill="#7fbb65"/>
      <ellipse id="Ellipse_44" data-name="Ellipse 44" cx="21.412" cy="10.4" rx="21.412" ry="10.4" transform="translate(501.403 0.5)" fill="none" stroke="#3f3d56" stroke-miterlimit="10" stroke-width="1"/>
      <ellipse id="Ellipse_45" data-name="Ellipse 45" cx="21.412" cy="10.4" rx="21.412" ry="10.4" transform="translate(628.092 27.265)" fill="#7fbb65"/>
      <ellipse id="Ellipse_46" data-name="Ellipse 46" cx="21.412" cy="10.4" rx="21.412" ry="10.4" transform="translate(625.415 25.481)" fill="none" stroke="#3f3d56" stroke-miterlimit="10" stroke-width="1"/>
      <ellipse id="Ellipse_47" data-name="Ellipse 47" cx="21.412" cy="10.4" rx="21.412" ry="10.4" transform="translate(430.921 109.346)" fill="#7fbb65"/>
      <ellipse id="Ellipse_48" data-name="Ellipse 48" cx="21.412" cy="10.4" rx="21.412" ry="10.4" transform="translate(428.245 107.561)" fill="none" stroke="#3f3d56" stroke-miterlimit="10" stroke-width="1"/>
      <ellipse id="Ellipse_49" data-name="Ellipse 49" cx="21.412" cy="10.4" rx="21.412" ry="10.4" transform="translate(504.972 103.993)" fill="#7fbb65"/>
      <ellipse id="Ellipse_50" data-name="Ellipse 50" cx="21.412" cy="10.4" rx="21.412" ry="10.4" transform="translate(502.295 102.208)" fill="none" stroke="#3f3d56" stroke-miterlimit="10" stroke-width="1"/>
      <ellipse id="Ellipse_51" data-name="Ellipse 51" cx="21.412" cy="10.4" rx="21.412" ry="10.4" transform="translate(602.219 112.022)" fill="#7fbb65"/>
      <ellipse id="Ellipse_52" data-name="Ellipse 52" cx="21.412" cy="10.4" rx="21.412" ry="10.4" transform="translate(599.542 110.238)" fill="none" stroke="#3f3d56" stroke-miterlimit="10" stroke-width="1"/>
      <ellipse id="Ellipse_53" data-name="Ellipse 53" cx="21.412" cy="10.4" rx="21.412" ry="10.4" transform="translate(550.473 115.591)" fill="#7fbb65"/>
      <ellipse id="Ellipse_54" data-name="Ellipse 54" cx="21.412" cy="10.4" rx="21.412" ry="10.4" transform="translate(547.796 113.807)" fill="none" stroke="#3f3d56" stroke-miterlimit="10" stroke-width="1"/>
      <ellipse id="Ellipse_55" data-name="Ellipse 55" cx="21.412" cy="10.4" rx="21.412" ry="10.4" transform="translate(554.041 26.373)" fill="#57b894"/>
      <ellipse id="Ellipse_56" data-name="Ellipse 56" cx="21.412" cy="10.4" rx="21.412" ry="10.4" transform="translate(551.365 24.589)" fill="#7fbb65" stroke="#3f3d56" stroke-miterlimit="10" stroke-width="1"/>
      <ellipse id="Ellipse_57" data-name="Ellipse 57" cx="21.412" cy="10.4" rx="21.412" ry="10.4" transform="translate(462.147 81.688)" fill="#7fbb65"/>
      <ellipse id="Ellipse_58" data-name="Ellipse 58" cx="21.412" cy="10.4" rx="21.412" ry="10.4" transform="translate(459.471 79.904)" fill="none" stroke="#3f3d56" stroke-miterlimit="10" stroke-width="1"/>
      <ellipse id="Ellipse_59" data-name="Ellipse 59" cx="21.412" cy="10.4" rx="21.412" ry="10.4" transform="translate(474.638 121.836)" fill="#7fbb65"/>
      <ellipse id="Ellipse_60" data-name="Ellipse 60" cx="21.412" cy="10.4" rx="21.412" ry="10.4" transform="translate(471.961 120.052)" fill="none" stroke="#3f3d56" stroke-miterlimit="10" stroke-width="1"/>
      <g id="Group_121" data-name="Group 121" transform="translate(481.184 188.715)" opacity="0.3">
        <ellipse id="Ellipse_61" data-name="Ellipse 61" cx="11.218" cy="4.858" rx="11.218" ry="4.858" transform="translate(1.412 19.584) rotate(-60.799)" fill="#57b894"/>
        <ellipse id="Ellipse_62" data-name="Ellipse 62" cx="11.218" cy="4.858" rx="11.218" ry="4.858" transform="translate(0 20.402) rotate(-60.799)" fill="none" stroke="#3f3d56" stroke-miterlimit="10" stroke-width="1"/>
      </g>
      <g id="Group_122" data-name="Group 122" transform="translate(587.708 209.037)" opacity="0.3">
        <ellipse id="Ellipse_63" data-name="Ellipse 63" cx="4.858" cy="11.218" rx="4.858" ry="11.218" transform="matrix(0.667, -0.745, 0.745, 0.667, 0.489, 8.796)" fill="#57b894"/>
        <ellipse id="Ellipse_64" data-name="Ellipse 64" cx="4.858" cy="11.218" rx="4.858" ry="11.218" transform="matrix(0.667, -0.745, 0.745, 0.667, 0, 7.24)" fill="none" stroke="#3f3d56" stroke-miterlimit="10" stroke-width="1"/>
      </g>
      <g id="Group_123" data-name="Group 123" transform="translate(487.785 152.83)" opacity="0.3">
        <ellipse id="Ellipse_65" data-name="Ellipse 65" cx="4.858" cy="11.218" rx="4.858" ry="11.218" transform="matrix(0.667, -0.745, 0.745, 0.667, 0.489, 8.796)" fill="#57b894"/>
        <ellipse id="Ellipse_66" data-name="Ellipse 66" cx="4.858" cy="11.218" rx="4.858" ry="11.218" transform="matrix(0.667, -0.745, 0.745, 0.667, 0, 7.24)" fill="none" stroke="#3f3d56" stroke-miterlimit="10" stroke-width="1"/>
      </g>
    </g>
  </g>
</svg>
