<svg xmlns="http://www.w3.org/2000/svg" xmlns:xlink="http://www.w3.org/1999/xlink" width="1280" height="800" viewBox="0 0 1280 800">
  <defs>
    <filter id="Path_519" x="313.6" y="31.15" width="654.3" height="119.15" filterUnits="userSpaceOnUse">
      <feOffset dy="5" input="SourceAlpha"/>
      <feGaussianBlur stdDeviation="3.5" result="blur"/>
      <feFlood flood-opacity="0.161"/>
      <feComposite operator="in" in2="blur"/>
      <feComposite in="SourceGraphic"/>
    </filter>
    <linearGradient id="linear-gradient" x1="0.5" y1="1" x2="0.5" gradientUnits="objectBoundingBox">
      <stop offset="0" stop-color="gray" stop-opacity="0.251"/>
      <stop offset="0.54" stop-color="gray" stop-opacity="0.122"/>
      <stop offset="1" stop-color="gray" stop-opacity="0.102"/>
    </linearGradient>
    <clipPath id="clip-examples-of-corporate-sustainability-initiatives01">
      <rect width="1280" height="800"/>
    </clipPath>
  </defs>
  <g id="examples-of-corporate-sustainability-initiatives01" clip-path="url(#clip-examples-of-corporate-sustainability-initiatives01)">
    <rect width="1280" height="800" fill="#fff"/>
    <g id="Group_52" data-name="Group 52" transform="translate(508 751)">
      <g id="nav__logo__e_1_">
        <path id="Path_137" data-name="Path 137" d="M23.4,35.564h9.954a1.93,1.93,0,0,0,1.935-1.843V26.9A36.608,36.608,0,0,1,23.4,35.564Z" transform="translate(-1.833 -2.107)" fill="#7fbb65"/>
        <path id="Path_138" data-name="Path 138" d="M19.731,10.977C19.639,9.226,18.348,8.12,15.583,8.4,10.146,8.765,6,14.94,4.8,21.3,16.6,20.378,19.823,13.189,19.731,10.977Z" transform="translate(-0.376 -0.654)" fill="#7fbb65"/>
        <path id="Path_139" data-name="Path 139" d="M18.341,3.963c5.622-.369,8.2,1.843,8.387,4.608.461,6.083-9.493,13.272-22.581,14.378H3.963a10.209,10.209,0,0,0,.369,5.069c.922,2.4,3.318,3.318,6.083,3.318,12.166,0,21.106-13.456,23.041-19.539V1.843A1.871,1.871,0,0,0,31.521,0H1.843A1.849,1.849,0,0,0,0,1.843V15.484C4.793,9.4,12.166,4.424,18.341,3.963Z" fill="#7fbb65"/>
      </g>
      <g id="nav__logo__edgepoint_1_" transform="translate(51.982 7.097)">
        <path id="Path_140" data-name="Path 140" d="M62.3,23.683a4.855,4.855,0,0,0,3.779-1.659l1.106.922a6.365,6.365,0,0,1-4.885,2.3,5.892,5.892,0,0,1-5.9-6.175c0-3.41,2.4-6.175,5.714-6.175,3.5,0,5.53,2.857,5.53,6.267v.553H58.151A4.081,4.081,0,0,0,62.3,23.683Zm3.41-5.346c-.184-2.12-1.475-4.055-3.779-4.055-2.028,0-3.594,1.751-3.871,4.055Z" transform="translate(-56.4 -8.107)" fill="#7fbb65"/>
        <path id="Path_141" data-name="Path 141" d="M81.33,24.566v-2.4a5.23,5.23,0,0,1-4.516,2.673A5.856,5.856,0,0,1,71.1,18.668a5.856,5.856,0,0,1,5.714-6.175,5.228,5.228,0,0,1,4.516,2.581V7.7h1.751V24.566Zm-4.24-10.6c-2.3,0-4.147,1.751-4.147,4.608s1.935,4.608,4.147,4.608a4.452,4.452,0,0,0,4.332-4.608A4.452,4.452,0,0,0,77.091,13.967Z" transform="translate(-57.552 -7.7)" fill="#7fbb65"/>
        <path id="Path_142" data-name="Path 142" d="M93.7,28.66A9.258,9.258,0,0,1,88.261,27l.829-1.382A8.066,8.066,0,0,0,93.7,27.094c2.581,0,4.332-1.475,4.332-4.24V21.471a5.681,5.681,0,0,1-4.7,2.581,5.427,5.427,0,0,1-5.53-5.53A5.5,5.5,0,0,1,93.33,12.9a5.773,5.773,0,0,1,4.7,2.4v-2.12h1.751v9.77C99.689,26.725,97.293,28.66,93.7,28.66Zm-.092-14.286a3.892,3.892,0,0,0-4.147,4.055,4,4,0,0,0,4.147,4.055A4.176,4.176,0,0,0,98.03,18.43,4.23,4.23,0,0,0,93.606,14.375Z" transform="translate(-58.86 -8.107)" fill="#7fbb65"/>
        <path id="Path_143" data-name="Path 143" d="M110.2,23.683a4.855,4.855,0,0,0,3.779-1.659l1.106.922a6.365,6.365,0,0,1-4.885,2.3,5.892,5.892,0,0,1-5.9-6.175c0-3.41,2.4-6.175,5.714-6.175,3.5,0,5.53,2.857,5.53,6.267v.553h-9.4A3.948,3.948,0,0,0,110.2,23.683Zm3.41-5.346c-.184-2.12-1.475-4.055-3.779-4.055-2.028,0-3.594,1.751-3.871,4.055Z" transform="translate(-60.153 -8.107)" fill="#7fbb65"/>
        <path id="Path_144" data-name="Path 144" d="M126.067,25.235a5.228,5.228,0,0,1-4.516-2.581v5.991H119.8V13.069h1.751v2.3a5.23,5.23,0,0,1,4.516-2.673,5.856,5.856,0,0,1,5.714,6.175C131.782,22.838,128.924,25.235,126.067,25.235ZM125.7,14.359a4.452,4.452,0,0,0-4.332,4.608,4.34,4.34,0,0,0,4.332,4.608c2.3,0,4.147-1.751,4.147-4.608A4.153,4.153,0,0,0,125.7,14.359Z" transform="translate(-61.367 -8.092)" fill="#7fbb65"/>
        <path id="Path_145" data-name="Path 145" d="M141.675,25.242a6.116,6.116,0,0,1-6.175-6.175,6.194,6.194,0,0,1,6.175-6.267,6.116,6.116,0,0,1,6.175,6.175A6.194,6.194,0,0,1,141.675,25.242Zm0-10.876a4.339,4.339,0,0,0-4.332,4.608,4.491,4.491,0,0,0,4.424,4.7,4.412,4.412,0,0,0,4.424-4.608,4.625,4.625,0,0,0-4.516-4.7Z" transform="translate(-62.597 -8.1)" fill="#7fbb65"/>
        <path id="Path_146" data-name="Path 146" d="M152.4,10.135V8.2h2.028v1.935Zm.184,14.47V12.716h1.751V24.605Z" transform="translate(-63.921 -7.739)" fill="#7fbb65"/>
        <path id="Path_147" data-name="Path 147" d="M160.751,24.966H159V13.076h1.751V15.1a4.43,4.43,0,0,1,4.055-2.3c2.857,0,4.516,1.935,4.516,4.7v7.373h-1.751V17.961c0-2.212-1.2-3.594-3.318-3.594a3.51,3.51,0,0,0-3.594,3.687l.092,6.912Z" transform="translate(-64.438 -8.1)" fill="#7fbb65"/>
        <path id="Path_148" data-name="Path 148" d="M176.618,21.274a1.8,1.8,0,0,0,2.028,2.028,3.994,3.994,0,0,0,1.751-.369v1.475a4,4,0,0,1-2.12.461c-1.935,0-3.318-.922-3.318-3.318V14.361H173.3V12.7h1.659V9.2h1.751v3.5h3.779v1.567H176.71v7Z" transform="translate(-65.558 -7.818)" fill="#7fbb65"/>
      </g>
      <g id="nav__logo__learning_1_" transform="translate(176.958 7.097)">
        <path id="Path_149" data-name="Path 149" d="M192,24.566V7.7h1.751V24.566Z" transform="translate(-192 -7.7)" fill="#7fbb65"/>
        <path id="Path_150" data-name="Path 150" d="M203.7,23.683a4.855,4.855,0,0,0,3.779-1.659l1.106.922a6.365,6.365,0,0,1-4.885,2.3,5.892,5.892,0,0,1-5.9-6.175c0-3.41,2.4-6.175,5.714-6.175,3.5,0,5.53,2.857,5.53,6.267v.553h-9.4a3.948,3.948,0,0,0,4.055,3.963Zm3.41-5.346c-.184-2.12-1.475-4.055-3.779-4.055-2.028,0-3.594,1.751-3.871,4.055Z" transform="translate(-192.454 -8.107)" fill="#7fbb65"/>
        <path id="Path_151" data-name="Path 151" d="M213.759,15.4l-.553-1.475A9.105,9.105,0,0,1,217.538,13c3.226,0,5.069,1.659,5.069,4.793v7.281h-1.751V23.323a5.161,5.161,0,0,1-4.332,2.028c-2.212,0-4.424-1.2-4.424-3.687,0-2.581,2.028-3.871,5.069-3.871a13.114,13.114,0,0,1,3.594.461v-.369c0-2.12-1.29-3.226-3.594-3.226a5.9,5.9,0,0,0-3.41.737Zm.276,5.991c0,1.475,1.382,2.4,3.041,2.4,2.212,0,3.963-1.29,3.963-3.226v-1.2a11.937,11.937,0,0,0-3.5-.461c-2.212,0-3.5,1.014-3.5,2.488Z" transform="translate(-193.575 -8.115)" fill="#7fbb65"/>
        <path id="Path_152" data-name="Path 152" d="M229.451,24.965H227.7V13.076h1.751v3.041a5.068,5.068,0,0,1,4.885-3.318v1.843h-.092c-2.581,0-4.7,1.843-4.7,5.438v4.885Z" transform="translate(-194.797 -8.099)" fill="#7fbb65"/>
        <path id="Path_153" data-name="Path 153" d="M239.551,24.966H237.8V13.076h1.751V15.1a4.43,4.43,0,0,1,4.055-2.3c2.857,0,4.516,1.935,4.516,4.7v7.373h-1.751V17.961c0-2.212-1.2-3.594-3.318-3.594a3.51,3.51,0,0,0-3.594,3.687v6.912Z" transform="translate(-195.588 -8.1)" fill="#7fbb65"/>
        <path id="Path_154" data-name="Path 154" d="M253.1,10.135V8.2h2.028v1.935Zm.184,14.47V12.716h1.751V24.605Z" transform="translate(-196.787 -7.739)" fill="#7fbb65"/>
        <path id="Path_155" data-name="Path 155" d="M261.451,24.966H259.7V13.076h1.751V15.1a4.43,4.43,0,0,1,4.055-2.3c2.857,0,4.516,1.935,4.516,4.7v7.373h-1.751V17.961c0-2.212-1.2-3.594-3.318-3.594a3.51,3.51,0,0,0-3.594,3.687l.092,6.912Z" transform="translate(-197.304 -8.1)" fill="#7fbb65"/>
        <path id="Path_156" data-name="Path 156" d="M280.3,28.66A9.258,9.258,0,0,1,274.861,27l.83-1.382a8.066,8.066,0,0,0,4.608,1.475c2.581,0,4.332-1.475,4.332-4.24V21.471a5.681,5.681,0,0,1-4.7,2.581,5.427,5.427,0,0,1-5.53-5.53,5.5,5.5,0,0,1,5.53-5.622,5.641,5.641,0,0,1,4.7,2.4v-2.12h1.751v9.77c-.092,3.779-2.488,5.714-6.083,5.714Zm-.092-14.286a3.892,3.892,0,0,0-4.147,4.055,4,4,0,0,0,4.147,4.055,4.176,4.176,0,0,0,4.424-4.055A4.23,4.23,0,0,0,280.206,14.375Z" transform="translate(-198.455 -8.107)" fill="#7fbb65"/>
      </g>
    </g>
    <g id="Rectangle_2" data-name="Rectangle 2" fill="#7fbb65" stroke="#707070" stroke-width="1">
      <rect width="1280" height="161" stroke="none"/>
      <rect x="0.5" y="0.5" width="1279" height="160" fill="none"/>
    </g>
    <g transform="matrix(1, 0, 0, 1, 0, 0)" filter="url(#Path_519)">
      <path id="Path_519-2" data-name="Path 519" d="M-301.7,0h5.85V-33.35h-5.1l-9.6,9.7,3.4,3.55,5.45-5.65Zm9.4,1h3.9l11.85-35.35h-3.9Zm16.95-5.8c2.25,3,6.65,5.4,12.6,5.4,7.7,0,12.55-4.05,12.55-9.7,0-5.15-4.5-7.8-7.75-8.1,3.45-.6,7.25-3.2,7.25-7.65,0-5.6-4.85-9-12.05-9A15.441,15.441,0,0,0-274.9-28.6l3,3.65a11.725,11.725,0,0,1,8.6-3.7c3.75,0,6.75,1.6,6.75,4.7,0,3.05-2.95,4.4-6.85,4.4-1.3,0-3.25,0-3.85-.05v5.25c.5-.05,2.45-.05,3.85-.05,4.75,0,7.4,1.4,7.4,4.7,0,3.1-2.55,5.1-6.95,5.1a12.449,12.449,0,0,1-9.25-4.05ZM-220.7.6c7.75,0,12.45-5.75,12.45-12.7,0-6.9-4.7-12.65-12.45-12.65-7.65,0-12.4,5.75-12.4,12.65C-233.1-5.15-228.35.6-220.7.6Zm0-4.65c-4.45,0-6.95-3.75-6.95-8.05,0-4.25,2.5-8,6.95-8,4.5,0,7,3.75,7,8C-213.7-7.8-216.2-4.05-220.7-4.05Zm19,4.05h5.25V-19.55h4.9v-4.6h-4.9V-25.5c0-2.7,1.3-4.05,3.35-4.05a4.208,4.208,0,0,1,2.1.5l1.15-3.85a8.7,8.7,0,0,0-4.2-.95c-4.45,0-7.65,2.95-7.65,8.35v1.35h-4v4.6h4Zm27.15,0h16.85c6.25,0,9.7-3.85,9.7-9,0-4.1-2.9-7.65-6.45-8.2a7.493,7.493,0,0,0,5.8-7.65c0-4.7-3.4-8.5-9.5-8.5h-16.4Zm5.85-19.55V-28.2h9.35c3,0,4.7,1.85,4.7,4.35s-1.7,4.3-4.7,4.3Zm0,14.4V-14.4h9.6c3.35,0,5.1,2.1,5.1,4.6,0,2.9-1.9,4.65-5.1,4.65ZM-127.55,0h5.25V-16c0-6.5-4.7-8.75-10.05-8.75a14.361,14.361,0,0,0-10.15,3.9l2.15,3.65a9.889,9.889,0,0,1,7.15-3.05c3.35,0,5.65,1.7,5.65,4.5v3.6c-1.75-2.05-4.55-3.1-7.8-3.1-3.95,0-8.4,2.3-8.4,7.85,0,5.35,4.45,8,8.4,8a10.2,10.2,0,0,0,7.8-3.2Zm0-5.5A7.069,7.069,0,0,1-133.3-3c-2.95,0-5.15-1.7-5.15-4.3,0-2.65,2.2-4.35,5.15-4.35a7.069,7.069,0,0,1,5.75,2.5ZM-99.2,0h5.25V-17c0-4.95-2.6-7.75-7.8-7.75a11.426,11.426,0,0,0-8.5,3.9v-3.3h-5.25V0h5.25V-16.85a7.95,7.95,0,0,1,6.2-3.25c2.95,0,4.85,1.25,4.85,5Zm10.55-12.1C-88.65-4.75-83.5.6-76.15.6c4.7,0,7.55-2,9.25-4.3l-3.45-3.2A6.565,6.565,0,0,1-75.9-4.05c-4.4,0-7.3-3.35-7.3-8.05s2.9-8,7.3-8a6.446,6.446,0,0,1,5.55,2.85l3.45-3.2c-1.7-2.3-4.55-4.3-9.25-4.3C-83.5-24.75-88.65-19.4-88.65-12.1ZM-51.4.6c7.75,0,12.45-5.75,12.45-12.7,0-6.9-4.7-12.65-12.45-12.65-7.65,0-12.4,5.75-12.4,12.65C-63.8-5.15-59.05.6-51.4.6Zm0-4.65c-4.45,0-6.95-3.75-6.95-8.05,0-4.25,2.5-8,6.95-8,4.5,0,7,3.75,7,8C-44.4-7.8-46.9-4.05-51.4-4.05ZM-3.8,0H1.45V-33.35H-3.8V-20.8a9.688,9.688,0,0,0-7.75-3.95c-6.25,0-10.75,4.9-10.75,12.7C-22.3-4.1-17.75.6-11.55.6A9.78,9.78,0,0,0-3.8-3.3Zm0-7.25a7.891,7.891,0,0,1-6.25,3.2c-4.15,0-6.8-3.35-6.8-8,0-4.7,2.65-8.05,6.8-8.05A7.934,7.934,0,0,1-3.8-16.85ZM6.75-12.1C6.75-4.45,12.15.6,19.4.6a14.077,14.077,0,0,0,9.8-3.5L26.8-6.35A10.221,10.221,0,0,1,19.95-3.7a7.315,7.315,0,0,1-7.7-6.65H30.9V-11.6c0-7.6-4.65-13.15-11.9-13.15C11.85-24.75,6.75-19.1,6.75-12.1ZM19-20.45a6.459,6.459,0,0,1,6.8,6.4H12.2A6.662,6.662,0,0,1,19-20.45ZM49.1,0H65.95c6.25,0,9.7-3.85,9.7-9,0-4.1-2.9-7.65-6.45-8.2A7.493,7.493,0,0,0,75-24.85c0-4.7-3.4-8.5-9.5-8.5H49.1Zm5.85-19.55V-28.2H64.3c3,0,4.7,1.85,4.7,4.35s-1.7,4.3-4.7,4.3Zm0,14.4V-14.4h9.6c3.35,0,5.1,2.1,5.1,4.6,0,2.9-1.9,4.65-5.1,4.65ZM81.35,0H86.6V-16.45a8.339,8.339,0,0,1,6.2-3.2,7.739,7.739,0,0,1,1.65.15v-5.2a10.313,10.313,0,0,0-7.85,4.1v-3.55H81.35Zm32.1,0h5.25V-16c0-6.5-4.7-8.75-10.05-8.75a14.361,14.361,0,0,0-10.15,3.9l2.15,3.65a9.889,9.889,0,0,1,7.15-3.05c3.35,0,5.65,1.7,5.65,4.5v3.6c-1.75-2.05-4.55-3.1-7.8-3.1-3.95,0-8.4,2.3-8.4,7.85,0,5.35,4.45,8,8.4,8a10.2,10.2,0,0,0,7.8-3.2Zm0-5.5A7.069,7.069,0,0,1,107.7-3c-2.95,0-5.15-1.7-5.15-4.3,0-2.65,2.2-4.35,5.15-4.35a7.069,7.069,0,0,1,5.75,2.5Zm9.95,2.35A14.688,14.688,0,0,0,133.75.6c6.5,0,10.05-3.25,10.05-7.5,0-5.7-5.15-6.9-9.35-7.8-2.85-.65-5.25-1.3-5.25-3.15,0-1.7,1.75-2.7,4.5-2.7a9.739,9.739,0,0,1,7.15,2.9l2.2-3.7a13.806,13.806,0,0,0-9.4-3.4c-6.1,0-9.5,3.4-9.5,7.35,0,5.4,4.95,6.5,9.1,7.4,2.95.65,5.5,1.4,5.5,3.5,0,1.8-1.6,2.95-4.75,2.95a12.465,12.465,0,0,1-8.2-3.4Zm28.3-24.7a3.244,3.244,0,0,0,3.25-3.25,3.244,3.244,0,0,0-3.25-3.25,3.276,3.276,0,0,0-3.25,3.25A3.276,3.276,0,0,0,151.7-27.85ZM149.1,0h5.25V-24.15H149.1Zm12.05,0h5.25V-33.35h-5.25Zm12.8-19.55h2.4s1.75-10.5,1.75-11.35a2.988,2.988,0,0,0-2.95-2.95,2.955,2.955,0,0,0-2.95,2.95C172.2-30.05,173.95-19.55,173.95-19.55Zm6.35,16.4A14.688,14.688,0,0,0,190.65.6c6.5,0,10.05-3.25,10.05-7.5,0-5.7-5.15-6.9-9.35-7.8-2.85-.65-5.25-1.3-5.25-3.15,0-1.7,1.75-2.7,4.5-2.7a9.739,9.739,0,0,1,7.15,2.9l2.2-3.7a13.806,13.806,0,0,0-9.4-3.4c-6.1,0-9.5,3.4-9.5,7.35,0,5.4,4.95,6.5,9.1,7.4,2.95.65,5.5,1.4,5.5,3.5,0,1.8-1.6,2.95-4.75,2.95a12.465,12.465,0,0,1-8.2-3.4ZM218.85,0h5.25V-33.35h-5.25ZM241.8.6c7.75,0,12.45-5.75,12.45-12.7,0-6.9-4.7-12.65-12.45-12.65-7.65,0-12.4,5.75-12.4,12.65C229.4-5.15,234.15.6,241.8.6Zm0-4.65c-4.45,0-6.95-3.75-6.95-8.05,0-4.25,2.5-8,6.95-8,4.5,0,7,3.75,7,8C248.8-7.8,246.3-4.05,241.8-4.05ZM274.3,0h5.25V-16c0-6.5-4.7-8.75-10.05-8.75a14.361,14.361,0,0,0-10.15,3.9l2.15,3.65a9.889,9.889,0,0,1,7.15-3.05c3.35,0,5.65,1.7,5.65,4.5v3.6c-1.75-2.05-4.55-3.1-7.8-3.1-3.95,0-8.4,2.3-8.4,7.85,0,5.35,4.45,8,8.4,8a10.2,10.2,0,0,0,7.8-3.2Zm0-5.5A7.069,7.069,0,0,1,268.55-3c-2.95,0-5.15-1.7-5.15-4.3,0-2.65,2.2-4.35,5.15-4.35a7.069,7.069,0,0,1,5.75,2.5ZM302.65,0h5.25V-17c0-4.95-2.6-7.75-7.8-7.75a11.426,11.426,0,0,0-8.5,3.9v-3.3h-5.25V0h5.25V-16.85a7.95,7.95,0,0,1,6.2-3.25c2.95,0,4.85,1.25,4.85,5ZM-315.9,54h5.25V50.7a9.708,9.708,0,0,0,7.75,3.9c6.15,0,10.7-4.7,10.7-12.65,0-7.8-4.5-12.7-10.7-12.7a9.549,9.549,0,0,0-7.75,3.95V20.65h-5.25Zm5.25-7.25V37.2a7.881,7.881,0,0,1,6.2-3.3c4.2,0,6.85,3.35,6.85,8.05s-2.65,8-6.85,8A7.793,7.793,0,0,1-310.65,46.75Zm34.7,7.85c7.75,0,12.45-5.75,12.45-12.7,0-6.9-4.7-12.65-12.45-12.65-7.65,0-12.4,5.75-12.4,12.65C-288.35,48.85-283.6,54.6-275.95,54.6Zm0-4.65c-4.45,0-6.95-3.75-6.95-8.05,0-4.25,2.5-8,6.95-8,4.5,0,7,3.75,7,8C-268.95,46.2-271.45,49.95-275.95,49.95Zm28.65,4.65c7.75,0,12.45-5.75,12.45-12.7,0-6.9-4.7-12.65-12.45-12.65-7.65,0-12.4,5.75-12.4,12.65C-259.7,48.85-254.95,54.6-247.3,54.6Zm0-4.65c-4.45,0-6.95-3.75-6.95-8.05,0-4.25,2.5-8,6.95-8,4.5,0,7,3.75,7,8C-240.3,46.2-242.8,49.95-247.3,49.95ZM-213.55,54h6.6L-217.2,40.8l10.05-10.95h-6.5L-224.3,41.5V20.65h-5.25V54h5.25V47.5l3.35-3.45Zm21.65-12.1c0,7.35,5.15,12.7,12.5,12.7,4.7,0,7.55-2,9.25-4.3l-3.45-3.2a6.565,6.565,0,0,1-5.55,2.85c-4.4,0-7.3-3.35-7.3-8.05s2.9-8,7.3-8a6.446,6.446,0,0,1,5.55,2.85l3.45-3.2c-1.7-2.3-4.55-4.3-9.25-4.3C-186.75,29.25-191.9,34.6-191.9,41.9Zm37.25,12.7c7.75,0,12.45-5.75,12.45-12.7,0-6.9-4.7-12.65-12.45-12.65-7.65,0-12.4,5.75-12.4,12.65C-167.05,48.85-162.3,54.6-154.65,54.6Zm0-4.65c-4.45,0-6.95-3.75-6.95-8.05,0-4.25,2.5-8,6.95-8,4.5,0,7,3.75,7,8C-147.65,46.2-150.15,49.95-154.65,49.95ZM-120.6,54h5.25V37c0-4.95-2.6-7.75-7.8-7.75a11.426,11.426,0,0,0-8.5,3.9v-3.3h-5.25V54h5.25V37.15a7.95,7.95,0,0,1,6.2-3.25c2.95,0,4.85,1.25,4.85,5Zm9.95-3.15A14.688,14.688,0,0,0-100.3,54.6c6.5,0,10.05-3.25,10.05-7.5,0-5.7-5.15-6.9-9.35-7.8-2.85-.65-5.25-1.3-5.25-3.15,0-1.7,1.75-2.7,4.5-2.7a9.739,9.739,0,0,1,7.15,2.9l2.2-3.7a13.806,13.806,0,0,0-9.4-3.4c-6.1,0-9.5,3.4-9.5,7.35,0,5.4,4.95,6.5,9.1,7.4,2.95.65,5.5,1.4,5.5,3.5,0,1.8-1.6,2.95-4.75,2.95a12.465,12.465,0,0,1-8.2-3.4Zm28.3-24.7A3.244,3.244,0,0,0-79.1,22.9a3.244,3.244,0,0,0-3.25-3.25A3.276,3.276,0,0,0-85.6,22.9,3.276,3.276,0,0,0-82.35,26.15ZM-84.95,54h5.25V29.85h-5.25ZM-75,50.85A14.688,14.688,0,0,0-64.65,54.6c6.5,0,10.05-3.25,10.05-7.5,0-5.7-5.15-6.9-9.35-7.8-2.85-.65-5.25-1.3-5.25-3.15,0-1.7,1.75-2.7,4.5-2.7a9.739,9.739,0,0,1,7.15,2.9l2.2-3.7a13.806,13.806,0,0,0-9.4-3.4c-6.1,0-9.5,3.4-9.5,7.35,0,5.4,4.95,6.5,9.1,7.4,2.95.65,5.5,1.4,5.5,3.5,0,1.8-1.6,2.95-4.75,2.95a12.465,12.465,0,0,1-8.2-3.4Zm32.95,3.75a6.926,6.926,0,0,0,4.95-1.55l-1.25-3.95a3.389,3.389,0,0,1-2.35.85c-1.5,0-2.3-1.2-2.3-2.85V34.45h4.9v-4.6H-43v-6.6h-5.25v6.6h-4v4.6h4V48.4C-48.25,52.4-46.1,54.6-42.05,54.6Zm6.6-3.75A14.688,14.688,0,0,0-25.1,54.6c6.5,0,10.05-3.25,10.05-7.5,0-5.7-5.15-6.9-9.35-7.8-2.85-.65-5.25-1.3-5.25-3.15,0-1.7,1.75-2.7,4.5-2.7A9.739,9.739,0,0,1-18,36.35l2.2-3.7a13.806,13.806,0,0,0-9.4-3.4c-6.1,0-9.5,3.4-9.5,7.35,0,5.4,4.95,6.5,9.1,7.4,2.95.65,5.5,1.4,5.5,3.5,0,1.8-1.6,2.95-4.75,2.95a12.465,12.465,0,0,1-8.2-3.4ZM14,54.6c7.75,0,12.45-5.75,12.45-12.7,0-6.9-4.7-12.65-12.45-12.65C6.35,29.25,1.6,35,1.6,41.9,1.6,48.85,6.35,54.6,14,54.6Zm0-4.65c-4.45,0-6.95-3.75-6.95-8.05,0-4.25,2.5-8,6.95-8,4.5,0,7,3.75,7,8C21,46.2,18.5,49.95,14,49.95ZM33,54h5.25V34.45h4.9v-4.6h-4.9V28.5c0-2.7,1.3-4.05,3.35-4.05a4.208,4.208,0,0,1,2.1.5l1.15-3.85a8.7,8.7,0,0,0-4.2-.95C36.2,20.15,33,23.1,33,28.5v1.35H29v4.6h4Zm26.7,6.2c2.95,2.7,6,3.6,10.1,3.6,5.95,0,12.4-2.35,12.4-11.05V29.85H76.95V33.2a9.618,9.618,0,0,0-7.75-3.95c-6.2,0-10.7,4.6-10.7,12.4,0,7.95,4.55,12.4,10.7,12.4a9.8,9.8,0,0,0,7.75-4v2.9c0,4.95-3.7,6.55-7.15,6.55-3.2,0-5.7-.85-7.65-3.1ZM76.95,46.15a7.837,7.837,0,0,1-6.2,3.25c-4.15,0-6.8-3.1-6.8-7.75s2.65-7.75,6.8-7.75a7.837,7.837,0,0,1,6.2,3.25ZM89,54h5.25V37.55a8.339,8.339,0,0,1,6.2-3.2,7.739,7.739,0,0,1,1.65.15V29.3a10.313,10.313,0,0,0-7.85,4.1V29.85H89Zm15.85-12.1c0,7.65,5.4,12.7,12.65,12.7a14.077,14.077,0,0,0,9.8-3.5l-2.4-3.45a10.221,10.221,0,0,1-6.85,2.65,7.315,7.315,0,0,1-7.7-6.65H129V42.4c0-7.6-4.65-13.15-11.9-13.15C109.95,29.25,104.85,34.9,104.85,41.9Zm12.25-8.35a6.459,6.459,0,0,1,6.8,6.4H110.3A6.662,6.662,0,0,1,117.1,33.55Zm15.6,8.35c0,7.65,5.4,12.7,12.65,12.7a14.077,14.077,0,0,0,9.8-3.5l-2.4-3.45a10.221,10.221,0,0,1-6.85,2.65,7.315,7.315,0,0,1-7.7-6.65h18.65V42.4c0-7.6-4.65-13.15-11.9-13.15C137.8,29.25,132.7,34.9,132.7,41.9Zm12.25-8.35a6.459,6.459,0,0,1,6.8,6.4h-13.6A6.662,6.662,0,0,1,144.95,33.55ZM178.35,54h5.25V37c0-4.95-2.6-7.75-7.8-7.75a11.426,11.426,0,0,0-8.5,3.9v-3.3h-5.25V54h5.25V37.15a7.95,7.95,0,0,1,6.2-3.25c2.95,0,4.85,1.25,4.85,5Zm24.9,0h5.25V20.65h-5.25Zm22.95.6c7.75,0,12.45-5.75,12.45-12.7,0-6.9-4.7-12.65-12.45-12.65-7.65,0-12.4,5.75-12.4,12.65C213.8,48.85,218.55,54.6,226.2,54.6Zm0-4.65c-4.45,0-6.95-3.75-6.95-8.05,0-4.25,2.5-8,6.95-8,4.5,0,7,3.75,7,8C233.2,46.2,230.7,49.95,226.2,49.95ZM258.7,54h5.25V38c0-6.5-4.7-8.75-10.05-8.75a14.361,14.361,0,0,0-10.15,3.9l2.15,3.65a9.889,9.889,0,0,1,7.15-3.05c3.35,0,5.65,1.7,5.65,4.5v3.6c-1.75-2.05-4.55-3.1-7.8-3.1-3.95,0-8.4,2.3-8.4,7.85,0,5.35,4.45,8,8.4,8a10.2,10.2,0,0,0,7.8-3.2Zm0-5.5a7.069,7.069,0,0,1-5.75,2.5c-2.95,0-5.15-1.7-5.15-4.3,0-2.65,2.2-4.35,5.15-4.35a7.069,7.069,0,0,1,5.75,2.5ZM287.05,54h5.25V37c0-4.95-2.6-7.75-7.8-7.75a11.426,11.426,0,0,0-8.5,3.9v-3.3h-5.25V54H276V37.15a7.95,7.95,0,0,1,6.2-3.25c2.95,0,4.85,1.25,4.85,5ZM297,50.85a14.688,14.688,0,0,0,10.35,3.75c6.5,0,10.05-3.25,10.05-7.5,0-5.7-5.15-6.9-9.35-7.8-2.85-.65-5.25-1.3-5.25-3.15,0-1.7,1.75-2.7,4.5-2.7a9.739,9.739,0,0,1,7.15,2.9l2.2-3.7a13.806,13.806,0,0,0-9.4-3.4c-6.1,0-9.5,3.4-9.5,7.35,0,5.4,4.95,6.5,9.1,7.4,2.95.65,5.5,1.4,5.5,3.5,0,1.8-1.6,2.95-4.75,2.95a12.465,12.465,0,0,1-8.2-3.4Z" transform="translate(640 71)" fill="#fff"/>
    </g>
    <g id="undraw_wallet_aym5" transform="translate(276 215)">
      <rect id="Rectangle_3" data-name="Rectangle 3" width="728.86" height="5.326" transform="translate(0 465.907)" fill="#85848b"/>
      <path id="Path_393" data-name="Path 393" d="M870.8,652.408c0,4.1-23.881,16.041-52.249,16.041S768.08,656.5,768.08,652.408s22.993-2.778,51.388-2.778S870.8,648.3,870.8,652.408Z" transform="translate(-293.354 -280.547)" fill="#504f60"/>
      <path id="Path_394" data-name="Path 394" d="M870.8,653.72c0,4.1-23.881,16.041-52.249,16.041S768.08,657.817,768.08,653.72" transform="translate(-293.354 -281.86)" opacity="0.2"/>
      <path id="Path_395" data-name="Path 395" d="M503.739,540.67c4.6.59,9.382.965,13.791-.465.694-.215,1.458-.694,1.389-1.389a1.68,1.68,0,0,0-.312-.694,42.9,42.9,0,0,1-4.167-7.937.694.694,0,0,0-.257-.361.653.653,0,0,0-.445,0c-2.035.535-3.792,1.847-5.812,2.41a8.263,8.263,0,0,1-3.167.236c-.917-.1-2.167-.861-3-.764C502.232,534.739,503.385,537.573,503.739,540.67Z" transform="translate(-211.974 -243.988)" fill="#6c63ff"/>
      <path id="Path_396" data-name="Path 396" d="M627.775,527.46c3.035-2.083,6.18-4.271,7.972-7.486a1.3,1.3,0,0,0,.215-.646,1.334,1.334,0,0,0-.257-.625,25.8,25.8,0,0,0-6.479-6.993,18.9,18.9,0,0,0-3.611,3.333c-.764.806-2.875,2.083-2.9,3.312,0,.694.806,1.5,1.181,2.083.507.75.986,1.514,1.444,2.292C625.609,523.113,628.018,527.307,627.775,527.46Z" transform="translate(-248.936 -238.466)" fill="#6c63ff"/>
      <path id="Path_397" data-name="Path 397" d="M509.9,552.149a3.09,3.09,0,0,1-.556,2.014,2.728,2.728,0,0,1-1.167.694c-6.437,2.306-13.889-.569-20.312,1.7-1.319.465-2.569,1.139-3.9,1.583A21.193,21.193,0,0,1,479.1,559c-2.271.215-4.555.354-6.833.417a16.427,16.427,0,0,1-5.153-.451,6.187,6.187,0,0,1-3.951-3.132,3.007,3.007,0,0,1-.194-2.229,2.4,2.4,0,0,1,.424-.694,6.091,6.091,0,0,1,1.514-1.229l2.368-1.528a15.9,15.9,0,0,1,3.59-1.9c.937-.306,1.93-.437,2.882-.694,3.326-.972,5.868-3.611,8.229-6.146l3.222-3.437a3.243,3.243,0,0,1,1.118-.9,3.1,3.1,0,0,1,1.389-.132,18.569,18.569,0,0,1,8.785,2.944,11.384,11.384,0,0,0,2.167,1.278,7.736,7.736,0,0,0,6.055-.75c.826-.444.646-.694.993-1.486s1.194-1.3,1.931-.576a2.042,2.042,0,0,1,.458.875c.694,2.292.431,4.757.431,7.16a3.154,3.154,0,0,0,.139,1.111,6.282,6.282,0,0,0,.632,1.028,2.348,2.348,0,0,1,.132.264,7.062,7.062,0,0,1,.465,3.354Z" transform="translate(-200.083 -246.169)" fill="#514e7f"/>
      <path id="Path_398" data-name="Path 398" d="M509.9,557.365a3.09,3.09,0,0,1-.556,2.014,2.729,2.729,0,0,1-1.167.694c-6.437,2.306-13.889-.569-20.312,1.7-1.319.465-2.569,1.139-3.9,1.583a21.193,21.193,0,0,1-4.861.861c-2.271.215-4.555.354-6.833.417a16.431,16.431,0,0,1-5.153-.451,6.187,6.187,0,0,1-3.951-3.132,3.007,3.007,0,0,1-.194-2.229,2.4,2.4,0,0,1,.424-.694c.375.785.646,1.826.882,2.2a4.507,4.507,0,0,0,3.014,2.174,7.486,7.486,0,0,0,2.778-.354c5.833-1.444,12.034-1.465,17.639-3.653a40.781,40.781,0,0,1,5.778-2.222,45.426,45.426,0,0,1,6.25-.507c3.292-.264,6.479-1.257,9.722-1.778a7.062,7.062,0,0,1,.438,3.375Z" transform="translate(-200.083 -251.385)" fill="#464353"/>
      <path id="Path_399" data-name="Path 399" d="M635.185,528.887c-.306,2.444-1.854,4.548-3.555,6.333a41.417,41.417,0,0,0-4.979,5.444c-1.667,2.549-2.417,5.708-4.583,7.861a12.573,12.573,0,0,1-2.778,1.979,19.391,19.391,0,0,1-3.576,1.646c-3.236,1.035-6.722.8-10.1.549a9.089,9.089,0,0,1-3.208-.618,9.667,9.667,0,0,1-1.333-.819,6.368,6.368,0,0,1-2.083-2.083,2.083,2.083,0,0,1-.2-1.514,3.555,3.555,0,0,1,.965-1.472,22.92,22.92,0,0,1,2.444-2.2,14.636,14.636,0,0,0,3.18-2.778,8.97,8.97,0,0,0,1.229-2.778,24.638,24.638,0,0,0,.9-5.312,16.833,16.833,0,0,1,.368-3.555c.514-1.833,1.875-3.472,1.722-5.368a1.34,1.34,0,0,1,.069-.812,1.132,1.132,0,0,1,.639-.4,11.321,11.321,0,0,1,3.319-.771,3.869,3.869,0,0,1,3.083,1.208c.472.569.785,1.389,1.479,1.611a2.346,2.346,0,0,0,1.055.042,8.844,8.844,0,0,0,4.861-1.493,6.063,6.063,0,0,0,2.014-4.424c0-.632-.285-1.292.694-1.389.736-.1,1.319.694,1.694,1.181a16.452,16.452,0,0,1,3.25,5.917,1.743,1.743,0,0,1,.618-.118,2.688,2.688,0,0,1,2.215,1.132,4.409,4.409,0,0,1,.6,3Z" transform="translate(-241.603 -240.317)" fill="#514e7f"/>
      <path id="Path_400" data-name="Path 400" d="M635.3,531.916c-.306,2.444-1.854,4.549-3.555,6.333a41.412,41.412,0,0,0-4.979,5.444c-1.667,2.549-2.417,5.708-4.583,7.861a12.571,12.571,0,0,1-2.778,1.979,19.387,19.387,0,0,1-3.576,1.646c-3.236,1.035-6.722.8-10.1.549a9.089,9.089,0,0,1-3.208-.618,9.66,9.66,0,0,1-1.333-.819,6.368,6.368,0,0,1-2.083-2.083,5.078,5.078,0,0,1,2.083-.5c1.5.083,2.6,1.5,4.035,1.938,2.049.618,4.09-.826,6.167-1.319,1.354-.319,2.778-.236,4.118-.694a10.179,10.179,0,0,0,3.049-1.847,15.519,15.519,0,0,0,3.257-3.139,20.167,20.167,0,0,0,1.91-3.812,54.506,54.506,0,0,1,3.861-7.389,5.221,5.221,0,0,1,.785-1.028,10.933,10.933,0,0,1,1.063-.771c1.389-1.049,1.965-2.778,2.451-4.472a7.828,7.828,0,0,1,.549-1.493,2.687,2.687,0,0,1,2.215,1.132A4.409,4.409,0,0,1,635.3,531.916Z" transform="translate(-241.718 -243.346)" fill="#464353"/>
      <path id="Path_401" data-name="Path 401" d="M440.348,214.449a14.729,14.729,0,0,1,4.167,4.861c.972,1.9,6.576,16.666,6.25,18.812,1.826-1.84,9.028-2.139,10.875-3.979.771-.771,4.93-4.618,5.555-5.514s5.264-2.778,5.771-3.722c1.9-3.4-13.444-16.264-11.479-19.618a.875.875,0,0,0,.16-.528.861.861,0,0,0-.257-.41,23,23,0,0,0-4.437-3.035,7.037,7.037,0,0,1-3.382-4.028,14.583,14.583,0,0,0-3.924,2.653q-4.222,3.618-8.3,7.382c-1.062.986-3.118,2.3-3.611,3.708C437.154,212.547,439.334,213.623,440.348,214.449Z" transform="translate(-192.381 -142.388)" fill="#a1616a"/>
      <path id="Path_402" data-name="Path 402" d="M468.8,214.13a45.2,45.2,0,0,0-6.569,5.375c-1.9,1.882-3.708,4.062-4.167,6.694-.194,1.035-.167,2.083-.326,3.132-.694,4.549-4.625,7.882-6.361,12.139a21.046,21.046,0,0,0-1.1,4.062,48.016,48.016,0,0,0-.8,7.972c-.042,2.59,2.5,4.375,3.431,6.792a41.474,41.474,0,0,1,1.653,7.382,87.463,87.463,0,0,0,4.167,13.68c3.424,9.458,14.521,35.6,17.944,45.069,10.493-2.632,38.423-8.68,47.714-14.229,3.1-1.847-21.493-22.687-18.18-24.124a1.236,1.236,0,0,0,.931-1.743c-3.312-14.486-13.673-26.388-18.375-40.492-1.632-4.9-4.562-9.076-6.785-13.729-2.014-4.215-3.09-8.875-5.5-12.882a8.125,8.125,0,0,0-1.757-2.187,10.363,10.363,0,0,0-1.937-1.174C471.4,215.2,470.122,214.8,468.8,214.13Z" transform="translate(-195.996 -147.534)" fill="#514e7f"/>
      <circle id="Ellipse_5" data-name="Ellipse 5" cx="16.423" cy="16.423" r="16.423" transform="translate(232.099 37.569)" fill="#a1616a"/>
      <path id="Path_403" data-name="Path 403" d="M466.4,206.448a5.507,5.507,0,0,1,6.173-.889,2.984,2.984,0,0,1,1.833,2.965l8.146.125a16.355,16.355,0,0,1,3.861.354,5.611,5.611,0,0,1,3.222,2.021c.1.132.208.292.375.312a.6.6,0,0,0,.375-.125,7.07,7.07,0,0,1,4.056-.694c4.4.285,8.472,2.486,11.923,5.236a3.854,3.854,0,0,1,1.389,1.729c.285.924-.056,2.083.694,2.743,0,7.639,2.625,14.777,4.375,22.222.313,1.326,1.583,2.5,2.465,3.542a14.286,14.286,0,0,1,2.632,3.93c1.486,3.861-.562,8.4.882,12.278a21.037,21.037,0,0,0,2.778,4.41,11.4,11.4,0,0,1,2.375,5.694c.063.931-.055,1.868,0,2.778a16.818,16.818,0,0,0,.694,3.687q.889,3.361,1.861,6.715c1.056,3.611,2.431,7.507,5.667,9.43-7.812,1.326-16.048,2.625-23.493-.09a12.181,12.181,0,0,1-2.93-1.465c-2.687-1.917-3.986-5.194-5.146-8.292-1.292-3.472-2.6-7.007-2.868-10.7a12.288,12.288,0,0,0-.493-3.472c-.757-2.014-2.778-3.229-4.611-4.347a22.139,22.139,0,0,1-5.555-4.319,8.632,8.632,0,0,1-2.25-6.486c.139-1.146.59-2.25.632-3.4a2.666,2.666,0,0,0-1.576-2.778c-5.687-1.722-8.4-8.458-9.667-14.264a45.793,45.793,0,0,1-.729-9.1l-.076-5.923a7.819,7.819,0,0,1-2.555-5.618,6.676,6.676,0,0,0-.035-1.861,5.132,5.132,0,0,0-1.306-1.979,17.666,17.666,0,0,1-3.118-4.368Z" transform="translate(-201.169 -144.741)" fill="#464353"/>
      <path id="Path_404" data-name="Path 404" d="M440.707,231.982c-.187,1.833.229,3.715-.181,5.514-.16.694-.437,1.389-.639,2.035a11.944,11.944,0,0,0,.757,7.729,43.054,43.054,0,0,0,3.951,6.84,11.11,11.11,0,0,1,1.264,2.368,12.256,12.256,0,0,1,.486,2.7,83.91,83.91,0,0,0,1.931,10.916c.778,3.111,9.611,29.708,11.666,32.173a2.618,2.618,0,0,0,1.583,1.076,2.882,2.882,0,0,0,1.347-.278l4.167-1.6a2.722,2.722,0,0,0,.965-.528,2.486,2.486,0,0,0,.6-1.639c.3-3.389-8.555-30.173-9.68-33.374-3.4-9.667-7.93-18.986-10.146-28.992-.618-2.778-.944-7.055-2.979-9.271-.84-.917-.556-.528-1.562-.049a11.4,11.4,0,0,0-1.472.771,4.819,4.819,0,0,0-2.056,3.6Z" transform="translate(-192.969 -151.498)" fill="#464353"/>
      <path id="Path_405" data-name="Path 405" d="M556.62,320.79" transform="translate(-228.738 -180.126)" fill="#464353"/>
      <path id="Path_406" data-name="Path 406" d="M458.987,248.033c1.118,5.91,2.271,11.805,3.417,17.715l16.305-4.271c.132-1.708-.778-3.292-1.389-4.861-1.486-3.729-1.521-7.882-2.722-11.715-.91-2.917-2.493-5.6-3.347-8.535-.493-1.708-.743-3.472-1.229-5.2A37.769,37.769,0,0,0,468.1,226.2a31.084,31.084,0,0,0-3.555-6.59c-2.083.778-4.305,1.681-5.493,3.562a7.693,7.693,0,0,0-1.014,3.472c-.285,3.66,1.042,7.34.6,10.979a32.291,32.291,0,0,0,.34,10.41Z" transform="translate(-198.603 -149.209)" fill="#6c63ff"/>
      <path id="Path_407" data-name="Path 407" d="M484.223,358.229c.917,3.472-.41,7.125-1.493,10.562a81.865,81.865,0,0,0-3.319,15.9,13.764,13.764,0,0,1-.819,4.021c-.514,1.16-1.389,2.139-1.986,3.243-1.639,2.9-1.6,6.444-1.243,9.764.236,2.187.59,4.368,1.028,6.521.535,2.632,1.194,5.382.424,7.951,1.292-.285,2.167,1.389,2.083,2.7s-.507,2.778.125,3.91c1.6.583,1.611,2.778,1.562,4.479a37.672,37.672,0,0,0,1.111,8.75q3.625,17.43,7.694,34.763c5.868,1.819,12.722,3.715,18.319,1.194a3.674,3.674,0,0,0,2.319-2.333,4.07,4.07,0,0,0-.222-1.792l-2.653-9.653a17.724,17.724,0,0,1-.951-7.139c.257-1.785,1.035-3.708.16-5.285-.3-.542-.771-.965-1.118-1.479-1.389-2.035-.66-4.757-.549-7.222a5.723,5.723,0,0,0-.111-1.653,8.251,8.251,0,0,0-.792-1.812,27.722,27.722,0,0,1-3.056-13.791,3.409,3.409,0,0,0-.243-1.8,5.812,5.812,0,0,1-.451-.736,2.014,2.014,0,0,1,.146-1.326,12.153,12.153,0,0,1-2.139-2.083,2.993,2.993,0,0,0,.514-4.68,1.562,1.562,0,0,0,.743-2.687c-.34-.236-.792-.34-1.035-.694-.375-.514-.069-1.229.236-1.778l1.618-2.924c1.208-2.174,1.479-4.861,2.778-6.944a52.046,52.046,0,0,0,4.278-9.764l4.674-12.9L515,374.249a9.944,9.944,0,0,1,2.583,2.944,12.7,12.7,0,0,1,.84,3.528c1.153,7,5.555,13.069,7.187,19.965a13.149,13.149,0,0,0,1.486,4.458,9.717,9.717,0,0,1,.847,1.278,6.776,6.776,0,0,1,.354,2.118,9.882,9.882,0,0,0,4.167,7.083c1.549,1.062,3.472,1.792,4.312,3.472a6.472,6.472,0,0,0,.694,1.479c.75.9,2.368,1.007,2.687,2.139.181.632-.153,1.389.2,1.944a1.84,1.84,0,0,0,.771.576l4.521,2.257c5.056,2.528,7.639,8.333,11.368,12.562a27.084,27.084,0,0,1,3.4,4.5c1.611,2.882,2.354,6.5,5.076,8.333a7.68,7.68,0,0,1,1.972,1.465c.854,1.125.542,2.7.618,4.118s1.16,3.1,2.507,2.674a9.882,9.882,0,0,0,0,5.243A26.388,26.388,0,0,0,586.61,459.9c1.319-1.153,2.59-2.625,2.6-4.375a1.569,1.569,0,0,0-.194-.868,2.479,2.479,0,0,0-1.021-.771c-4.229-2.292-5.5-7.6-7.639-11.916-1.868-3.805-4.632-7.083-6.944-10.618-5.028-7.6-8.458-16.805-16.062-21.826-1.674-1.1-3.618-2.083-4.458-3.91-.465-1.021-.521-2.187-.889-3.243a2.814,2.814,0,0,0-2.375-2.083,14.554,14.554,0,0,0,.542-5.042,6.368,6.368,0,0,0-.25-2.174,10.577,10.577,0,0,0-1.118-2.153,20.653,20.653,0,0,1-2.861-11.111c.055-2.007.41-4.076-.195-5.993-.306-.965-.84-1.847-1.208-2.778a17.358,17.358,0,0,1-.868-5.222l-.417-6.673a32.843,32.843,0,0,0-.861-6.6c-1.389-5.18-2.778-26.881-7.535-29.326s-12.93,14.257-18.284,14.583a23.81,23.81,0,0,0-6.944,1.34c-3.562,1.333-6.548,3.819-9.458,6.25l-9.847,8.271A36.28,36.28,0,0,1,484.223,358.229Z" transform="translate(-203.847 -180.795)" fill="#464353"/>
      <path id="Path_408" data-name="Path 408" d="M418.312,167.665a12.38,12.38,0,0,1,9.555-4.66,22.255,22.255,0,0,1,10.562,2.653,13.048,13.048,0,0,0,3.083,1.264c1.736.354,3.667-.118,5.236.694,2.083,1.1,2.486,3.917,2.305,6.25s-.618,4.923.625,6.944a16.056,16.056,0,0,1,1.2,1.812,5.993,5.993,0,0,1-.1,3.861,25.025,25.025,0,0,1-1.993-2.549c-.722-.806-1.979-1.347-2.875-.743s-.882,1.7-.931,2.687-.3,2.167-1.229,2.486a1.993,1.993,0,0,1-2.083-.812c-1.59-1.944-.951-5.049-2.528-7.007-.9-1.111-2.389-1.653-3.215-2.819-.653-.917-.819-2.083-1.389-3.069s-1.9-1.708-2.778-1.028a3.758,3.758,0,0,0-.743.993,4.271,4.271,0,0,1-5.069,1.528,8.478,8.478,0,0,0-2.194-.951,2.715,2.715,0,0,0-2.507,1.389,5.424,5.424,0,0,0-.694,2.9c0,1.389.25,2.868-.542,3.979a4.117,4.117,0,0,1-1.111,1.056c-1.16.743-2.778,1.243-3.847.4a2.889,2.889,0,0,1-.861-2.694,21.776,21.776,0,0,1,.819-2.847c.611-2.153-.187-4.576.479-6.6A21.084,21.084,0,0,1,418.312,167.665Z" transform="translate(-185.199 -131.909)" fill="#464353"/>
      <path id="Path_409" data-name="Path 409" d="M432.8,227.248a2.528,2.528,0,0,0,.153,1.507,2.4,2.4,0,0,0,.819.785,16.847,16.847,0,0,0,7.736,2.507,2.354,2.354,0,0,1,1.069.278,1.88,1.88,0,0,1,.451,2.153,5.6,5.6,0,0,0-.493,2.292c.2,1.451,1.924,2.083,3.375,2.3,2.035.257,4.264.125,5.875-1.146a9.076,9.076,0,0,0,2.424-3.632c3.986-9.16,5.382-19.284,9.416-28.416a6.029,6.029,0,0,0,.6-1.9,1.875,1.875,0,0,0-.75-1.75c-.75-.465-1.917-.2-2.424-.931-.25-.368-.222-.868-.444-1.257-.465-.826-1.687-.694-2.521-1.174-.653-.347-1.1-1.062-1.833-1.2a2.305,2.305,0,0,0-1.9.819c-2.368,2.208-3.611,5.34-4.93,8.3a97.285,97.285,0,0,1-7.055,13.083c.313-.486-1.5-4.167-2.208-4.326-1.243-.25-2.833,1.931-3.507,2.743a17.471,17.471,0,0,0-3.861,8.972Z" transform="translate(-190.885 -142.5)" fill="#6c63ff"/>
      <path id="Path_410" data-name="Path 410" d="M465.743,200.32a3.326,3.326,0,0,0-2.576,1.292,7.347,7.347,0,0,0-1.076,3.472A30.172,30.172,0,0,1,458,216.07" transform="translate(-198.603 -143.314)" opacity="0.1"/>
      <path id="Path_411" data-name="Path 411" d="M470.913,204.31a3.965,3.965,0,0,0-3.368,2.021,11.355,11.355,0,0,0-.847,3.43,18.826,18.826,0,0,1-3.368,7.215" transform="translate(-200.231 -144.533)" opacity="0.1"/>
      <path id="Path_412" data-name="Path 412" d="M540.959,385.482v-8.625a23.944,23.944,0,0,0-23.944-23.937H176.4a23.944,23.944,0,0,0-23.944,23.937v15.9Z" transform="translate(-105.239 -189.944)" fill="#33323d"/>
      <path id="Path_413" data-name="Path 413" d="M323.38,314.964s-.972,60.318,9.722,80.165,15.277,106.185,15.277,106.185,112.109,11.6,190.232-13.889,244.356-35.909,244.356-35.909L754.954,262.708s-138.393-8.875-217.12,28.673S323.38,314.964,323.38,314.964Z" transform="translate(-157.46 -162.099)" fill="#8dd070"/>
      <path id="Path_414" data-name="Path 414" d="M323.38,314.964s-.972,60.318,9.722,80.165,15.277,106.185,15.277,106.185,112.109,11.6,190.232-13.889,244.356-35.909,244.356-35.909L754.954,262.708s-138.393-8.875-217.12,28.673S323.38,314.964,323.38,314.964Z" transform="translate(-157.46 -162.099)" opacity="0.1"/>
      <path id="Path_415" data-name="Path 415" d="M358.816,342.864s-3.507,49.77,5.292,65.672,9.208,86.894,9.208,86.894,100.894,4.68,172.663-19.75S768.565,435.4,768.565,435.4L751.426,281s-124.789-1.285-197.621,33.1S358.816,342.864,358.816,342.864Z" transform="translate(-168.084 -167.965)" fill="#8dd070"/>
      <ellipse id="Ellipse_6" data-name="Ellipse 6" cx="26.194" cy="56.179" rx="26.194" ry="56.179" transform="translate(344.731 171.186) rotate(-7.1)" opacity="0.1"/>
      <path id="Path_416" data-name="Path 416" d="M661.921,130.66s-134.449,34.027-197.85,93.922S267.2,312.837,267.2,312.837s17.583,57.7,33.847,73.311,47.11,96.387,47.11,96.387,110.255-23.374,176.781-71.624S746.51,301.726,746.51,301.726Z" transform="translate(-140.3 -122.028)" opacity="0.2"/>
      <path id="Path_417" data-name="Path 417" d="M264.29,300.4s17.576,57.707,33.826,73.318,47.11,96.38,47.11,96.38,110.269-23.368,176.8-71.617S743.593,289.317,743.593,289.317L659,118.23s-134.442,34.027-197.843,93.922S264.29,300.4,264.29,300.4Z" transform="translate(-139.411 -118.23)" fill="#8dd070"/>
      <path id="Path_418" data-name="Path 418" d="M264.29,300.4s17.576,57.707,33.826,73.318,47.11,96.38,47.11,96.38,110.269-23.368,176.8-71.617S743.593,289.317,743.593,289.317L659,118.23s-134.442,34.027-197.843,93.922S264.29,300.4,264.29,300.4Z" transform="translate(-139.411 -118.23)" opacity="0.1"/>
      <path id="Path_419" data-name="Path 419" d="M308,320.871s11.937,48.45,25.194,60.881,35.416,79.859,35.416,79.859,97.456-26.513,158.268-71.79,199.5-106.574,199.5-106.574L662.694,141.5s-119.157,37.062-177.927,92.144S308,320.871,308,320.871Z" transform="translate(-152.767 -125.341)" fill="#8dd070"/>
      <ellipse id="Ellipse_7" data-name="Ellipse 7" cx="26.194" cy="56.179" rx="26.194" ry="56.179" transform="translate(300.685 144.738) rotate(-24.97)" opacity="0.1"/>
      <path id="Path_420" data-name="Path 420" d="M550.162,401.372V640.951a20.715,20.715,0,0,1-20.722,20.715H173.2a20.715,20.715,0,0,1-20.708-20.715V377.22c10.208,3.792,10.208,3.792,20.708,3.472H529.441a20.722,20.722,0,0,1,20.722,20.68Z" transform="translate(-105.248 -197.37)" opacity="0.1"/>
      <path id="Path_421" data-name="Path 421" d="M550.162,405.759V645.338a20.722,20.722,0,0,1-20.722,20.715H173.2a20.715,20.715,0,0,1-20.708-20.715V381.6c10.208,3.785,10.208,3.785,20.708,3.472H529.441a20.722,20.722,0,0,1,20.722,20.687Z" transform="translate(-105.248 -198.708)" fill="#504f60"/>
      <path id="Path_422" data-name="Path 422" d="M674.136,543.938v76.617h-74.3a38.31,38.31,0,1,1,0-76.62Z" transform="translate(-230.235 -248.313)" opacity="0.1"/>
      <path id="Path_423" data-name="Path 423" d="M675.6,541v76.63h-74.3a38.31,38.31,0,1,1,0-76.62Z" transform="translate(-230.681 -247.416)" fill="#33323d"/>
      <circle id="Ellipse_8" data-name="Ellipse 8" cx="14.937" cy="14.937" r="14.937" transform="translate(359.236 319)" opacity="0.1"/>
      <circle id="Ellipse_9" data-name="Ellipse 9" cx="14.937" cy="14.937" r="14.937" transform="translate(360.25 316.973)" fill="#6c63ff"/>
      <path id="Path_424" data-name="Path 424" d="M889.476,535.332c.59,6.4-4.25,12.6-2.84,18.868.306,1.34.882,2.6,1.09,3.958.583,3.722-1.632,7.243-3.75,10.354l-18.194,26.694a16.577,16.577,0,0,1-2.6,3.208c-3.472,3.1-8.694,2.778-13.264,3.7a22.665,22.665,0,0,0-8.889,3.93.569.569,0,0,0-.083.778,7.639,7.639,0,0,0,6.611,3.1c.479.632,0,1.556-.695,2.007-.979.694-2.319.861-2.514,2.514a2.729,2.729,0,0,0,.333,1.667,5.173,5.173,0,0,0,3.18,2.215c6.3,1.924,13.1-1.458,17.819-6.062s8.1-10.417,12.722-15.1c2.562-2.59,5.472-4.812,8.111-7.326,5.264-5.014,9.354-11.111,13.305-17.215a19.209,19.209,0,0,0,2.882-5.861c.5-2.132.264-4.285.826-6.347.736-2.708,2.715-4.861,4.361-7.132,3.229-4.444,5.382-9.882,4.958-15.354s-3.819-10.882-8.986-12.743a7.986,7.986,0,0,0-5.035-.306c-2.118.653-3.68,2.4-5.125,4.076l-3.472,3.993a9.361,9.361,0,0,0-2.014,3.055,3.2,3.2,0,0,0,.694,3.4" transform="translate(-315.585 -242.408)" fill="#fbbebe"/>
      <path id="Path_425" data-name="Path 425" d="M889.476,535.332c.59,6.4-4.25,12.6-2.84,18.868.306,1.34.882,2.6,1.09,3.958.583,3.722-1.632,7.243-3.75,10.354l-18.194,26.694a16.577,16.577,0,0,1-2.6,3.208c-3.472,3.1-8.694,2.778-13.264,3.7a22.665,22.665,0,0,0-8.889,3.93.569.569,0,0,0-.083.778,7.639,7.639,0,0,0,6.611,3.1c.479.632,0,1.556-.695,2.007-.979.694-2.319.861-2.514,2.514a2.729,2.729,0,0,0,.333,1.667,5.173,5.173,0,0,0,3.18,2.215c6.3,1.924,13.1-1.458,17.819-6.062s8.1-10.417,12.722-15.1c2.562-2.59,5.472-4.812,8.111-7.326,5.264-5.014,9.354-11.111,13.305-17.215a19.209,19.209,0,0,0,2.882-5.861c.5-2.132.264-4.285.826-6.347.736-2.708,2.715-4.861,4.361-7.132,3.229-4.444,5.382-9.882,4.958-15.354s-3.819-10.882-8.986-12.743a7.986,7.986,0,0,0-5.035-.306c-2.118.653-3.68,2.4-5.125,4.076l-3.472,3.993a9.361,9.361,0,0,0-2.014,3.055,3.2,3.2,0,0,0,.694,3.4" transform="translate(-315.585 -242.408)" opacity="0.05"/>
      <path id="Path_426" data-name="Path 426" d="M923.72,773.9c-3.972,2.424-8.923,2.569-13.541,2.007-.743-.09-1.625-.146-2.083.431-.694.833.125,2.083.972,2.729a20.033,20.033,0,0,0,9.3,3.826,61.23,61.23,0,0,0,9.1.6c8.333.146,16.666.285,24.868-.91a3.521,3.521,0,0,0,1.389-.4,2.542,2.542,0,0,0,1.028-1.563,6.2,6.2,0,0,0-2.16-5.917,18.13,18.13,0,0,0-5.8-3.111l-7.222-2.812c-1.694-.66-4.41-2.41-6.25-2.271C929.859,766.757,926.588,772.215,923.72,773.9Z" transform="translate(-336.058 -316.321)" fill="#3f3d56"/>
      <path id="Path_427" data-name="Path 427" d="M923.72,773.9c-3.972,2.424-8.923,2.569-13.541,2.007-.743-.09-1.625-.146-2.083.431-.694.833.125,2.083.972,2.729a20.033,20.033,0,0,0,9.3,3.826,61.23,61.23,0,0,0,9.1.6c8.333.146,16.666.285,24.868-.91a3.521,3.521,0,0,0,1.389-.4,2.542,2.542,0,0,0,1.028-1.563,6.2,6.2,0,0,0-2.16-5.917,18.13,18.13,0,0,0-5.8-3.111l-7.222-2.812c-1.694-.66-4.41-2.41-6.25-2.271C929.859,766.757,926.588,772.215,923.72,773.9Z" transform="translate(-336.058 -316.321)" opacity="0.05"/>
      <path id="Path_428" data-name="Path 428" d="M935.586,621.056c-3.007,4-6.118,8.618-5.375,13.569.4,2.667,1.9,5.021,2.993,7.486a52.817,52.817,0,0,1,3.028,10.528c1.125,5.236,2.257,10.486,2.944,15.805.785,6.007-2.9,23.388-3.243,29.437a6.221,6.221,0,0,1-1.271,4.083c-.4.417-.924.75-1.1,1.292a2.208,2.208,0,0,0,.243,1.528,16.8,16.8,0,0,0,9.028,8.292c3.868,1.625,13.194,4.43,17.409,4.576a3.471,3.471,0,0,0,1.639-.215,3.187,3.187,0,0,0,1.264-1.451c3.021-5.778.118-26.319.16-32.84.042-5.437,1.326-10.84,1.09-16.271-.194-4.361-1.389-8.625-1.785-12.972-.694-7.125.611-14.284,1.924-21.326,1-5.4,2.007-10.805,3.292-16.139a30.987,30.987,0,0,1,3.472-9.368c1.389-2.243,3.34-4.118,4.958-6.25a28.208,28.208,0,0,0,5.555-20.652c-.1-.694-10.416,2.618-11.326,3.014a35.284,35.284,0,0,0-10.1,6.493c-2.389,2.278-4.271,5.319-6.361,7.868q-4.437,5.41-8.764,10.9Q940.322,614.709,935.586,621.056Z" transform="translate(-342.862 -259.355)" fill="#464353"/>
      <path id="Path_429" data-name="Path 429" d="M935.586,620.721c-3.007,4-6.118,8.625-5.375,13.569.4,2.674,1.9,5.028,2.993,7.493a52.753,52.753,0,0,1,3.028,10.521c1.125,5.243,2.257,10.493,2.944,15.805.785,6.014-2.9,23.388-3.243,29.437a6.24,6.24,0,0,1-1.271,4.09c-.4.41-.924.743-1.1,1.285a2.2,2.2,0,0,0,.243,1.528,17.009,17.009,0,0,0,9.028,8.333c3.868,1.667,13.194,3.118,17.409,3.257a3.471,3.471,0,0,0,1.639-.215,3.138,3.138,0,0,0,1.264-1.444c3.021-5.778.118-25,.16-31.527.042-5.444,1.326-10.84,1.09-16.277-.194-4.361-1.389-8.625-1.785-12.965-.694-7.132.611-14.291,1.924-21.333,1-5.4,2.007-10.8,3.292-16.139a30.986,30.986,0,0,1,3.472-9.368c1.389-2.243,3.34-4.118,4.958-6.25a28.194,28.194,0,0,0,5.555-20.652c-.1-.694-10.416,2.618-11.326,3.014a35.451,35.451,0,0,0-10.1,6.5c-2.389,2.271-4.271,5.312-6.361,7.861q-4.437,5.41-8.764,10.9Q940.322,614.367,935.586,620.721Z" transform="translate(-342.862 -259.264)" opacity="0.05"/>
      <circle id="Ellipse_10" data-name="Ellipse 10" cx="16.854" cy="16.854" r="16.854" transform="translate(542.412 239.898)" fill="#fbbebe"/>
      <path id="Path_430" data-name="Path 430" d="M904.61,485.525a21.826,21.826,0,0,0,13.993,9.764l-1.271,4.618c-2.194,7.93-4.66,16.319-10.785,21.819a10.142,10.142,0,0,0-1.708-7.889,29.736,29.736,0,0,0-5.722-5.979l-9.7-8.4a2.925,2.925,0,0,1-.694-.819,2.465,2.465,0,0,1,0-1.847c1.236-3.847,4.764-6.25,7.639-8.847a26.456,26.456,0,0,0,3.84-4.472C902.137,480.705,903.339,483.483,904.61,485.525Z" transform="translate(-330.163 -229.481)" fill="#fbbebe"/>
      <path id="Path_431" data-name="Path 431" d="M856,457.609l-.382-3.167c2.66.694,5.187-1.569,6.889-3.91s3.278-5.1,5.868-6.076c3.146-1.181,6.479.694,9.486,2.278a30,30,0,0,0,10.882,3.542,7.159,7.159,0,0,1,1.8.292c1.958.694,2.889,3.153,3.174,5.382s.208,4.6,1.174,6.583c.694,1.507,1.986,2.625,2.778,4.111,2.083,3.986.069,9.437,2.243,13.347l-5.4-4.951c-.493-.451-1.187-.924-1.736-.542-.431.306-.465.965-.639,1.493a2.837,2.837,0,0,1-3.847,1.389,11.024,11.024,0,0,1-3.472-3.146,21.075,21.075,0,0,0-8.569-6.5,11,11,0,0,0-9.028.6c-2.521,1.424-4.368,4.743-7.458,4.861-4.236.16-6-7.729-7.958-10.847a3.82,3.82,0,0,0,1.111-4.778C853.2,457.449,855.939,457.123,856,457.609Z" transform="translate(-318.936 -217.802)" fill="#464353"/>
      <path id="Path_432" data-name="Path 432" d="M555.255,319.913a32.788,32.788,0,0,0-3.743,3.93,7.868,7.868,0,0,0-1.722,5.049,2.584,2.584,0,0,0,.486,1.479,1.25,1.25,0,0,0,1.389.424,1.868,1.868,0,0,0,.694-.611,33.524,33.524,0,0,1,2.333-2.528c.3-.3.694-.611,1.1-.5a1.174,1.174,0,0,1,.472.313,3.2,3.2,0,0,1,.979,1.528,3.6,3.6,0,0,1-1.076,2.958,7.58,7.58,0,0,0-1.812,2.681,1.187,1.187,0,0,0,0,.861,1.292,1.292,0,0,0,.542.458,7.75,7.75,0,0,0,6.555.431c1.389-.562,2.625-1.528,4.055-2.028a9.377,9.377,0,0,0,1.792-.694,3.722,3.722,0,0,0,1.59-2.382,9.818,9.818,0,0,0,.1-2.924,33.616,33.616,0,0,0-2.389-10.993,1.389,1.389,0,0,0-.4-.583,1.285,1.285,0,0,0-.694-.188c-1.778-.187-4.694-1.1-6.41-.437a4.529,4.529,0,0,0-1.514,1.347C557.262,317.857,555.255,319.448,555.255,319.913Z" transform="translate(-226.65 -178.638)" fill="#a1616a"/>
      <path id="Path_433" data-name="Path 433" d="M545.879,290.853c0-1.694-2.083-5.785,1.229-6.055,0-1.812-2.562-2.937-2.083-4.861.153-.639.694-1.16.757-1.812.208-1.854-3.139-2.861-2.583-4.639.208-.694.944-1.1,1.1-1.785.375-1.6-2.493-2.319-2.549-3.965,0-.556.313-1.076.285-1.632,0-.694-.6-1.222-.937-1.826-.868-1.549-.444-3.944-2.028-4.743,1.049.09,1.389-1.465.958-2.417s-1.312-1.778-1.319-2.833a4.278,4.278,0,0,0,0-1.153c-.292-1.014-1.951-1.1-2.229-2.083a8.879,8.879,0,0,1-.035-1.139c-.111-.785-.917-1.285-1.674-1.507a6.825,6.825,0,0,1-2.236-.8c-.486-.368-1.049-.979-1.569-.694-.194.118-.292.34-.437.507-.625.729-1.819.41-2.6-.125-2.319-1.576-3.472-4.4-3.965-7.16s-.479-5.6-1.1-8.333a17.823,17.823,0,0,0-.75-2.5,13.15,13.15,0,0,1-1.167-2.486c-.125-1.6,3.18-.507,4.437-.347a19.762,19.762,0,0,1,3.6.694,38.544,38.544,0,0,1,3.687,1.618c5.014,2.215,11.069,2.486,15.1,6.208,1.326,1.222,2.444,2.826,4.167,3.382a18.854,18.854,0,0,1,2.333.6c1.91.9,2.208,3.43,3.25,5.264a10.306,10.306,0,0,1,.854,1.528,5.885,5.885,0,0,1,.278,1.944l.146,4.812c.236,8.062.472,16.146-.389,24.159-.278,2.646-.694,5.368.09,7.91.208.694.5,1.347.694,2.049a12.494,12.494,0,0,1,.264,2.5l.111,3.118a.972.972,0,0,1-.153.694,1,1,0,0,1-.84.2c-4.34-.389-8.729-2.833-12.826-1.354" transform="translate(-217.837 -151.147)" fill="#464353"/>
      <ellipse id="Ellipse_11" data-name="Ellipse 11" cx="51.36" cy="7.423" rx="51.36" ry="7.423" transform="translate(474.747 364.437)" fill="#504f60"/>
      <path id="Path_434" data-name="Path 434" d="M835.409,508.039c-.9-3.868-1.465-7.264-1.465-7.264a14.969,14.969,0,0,0-1.68-7.368v-1.056h0v-7.778a26.516,26.516,0,0,1,1.965-4.076c1.389-2.444,0-11.4,0-11.4s-5.187-12.632-3.93-20.645-10.653-35.583-10.653-35.583a35.132,35.132,0,0,1,1.118-7.875,6.009,6.009,0,0,0,.153-1.653V403.2c-.181-5.285-4.361-15.187-4.361-15.187l.563-18.875s2.667-11.111-1.68-26.076c-1.521-5.215-2.493-9.389-3.111-12.611-.069-.361-.139-.694-.194-1.049,8.951-1.389,15.791-2.5,15.791-2.5s-5.194-21.729-8.7-25.534-6.312-15.757-6.312-15.757-1.826-15.34,1.125-19.826,3.368-12.222,3.368-12.222,6.729-4.861,7.576-7.062,2.243-7.062,2.243-9.639-.84-4.861-.562-6.25-1.965-6.521-.84-8.965a6.576,6.576,0,0,0,.444-2.354.3.3,0,0,0,0-.069h0a33,33,0,0,0-.59-6.375,18.09,18.09,0,0,0-6.667-3.562l-.146-.583-.382-1.528a7.407,7.407,0,0,0-.66-.389v-.556l-.062-2.208,1.056-4.958c2.083-8.625-9.437-9.91-9.437-9.91a6.076,6.076,0,0,0-3.264-2.861c-2.312-.812-.382,12.972.694,13.889.812.694,3.326,4.986,4.542,7.111h0l.194.347a4.862,4.862,0,0,0-.528.556l.438,2.993.069.458a12.42,12.42,0,0,0-1.84,3.132s2.083,2.306,1.688,4.861a15.572,15.572,0,0,0,.694,5.972c-.125-.146-1.6-1.743-3.083-1.354s-5.611,1.632-5.611,1.632-3.083.542-2.778,1.222-2.083,3.667-2.083,3.667l-8.292-7.861c-.083-.236-.174-.472-.243-.694a19.111,19.111,0,0,1-.694-3.472,18.966,18.966,0,0,0,2.653-.84,5.722,5.722,0,0,0,2.292-1.472,8.886,8.886,0,0,0,1.34-3.576c.653-2.417,2.083-4.562,3.076-6.861a22.305,22.305,0,0,0,1.563-12.347,8.057,8.057,0,0,0-1.271-3.611c-1.354-1.861-3.812-2.618-5.6-4.1s-2.937-3.757-5.021-4.861c-1.882-1.007-4.167-.889-6.292-.542a33.909,33.909,0,0,0-11.757,4.278c-1.208.694-2.542,1.549-3.93,1.292a5.132,5.132,0,0,1-2.833-2.083.137.137,0,0,0-.056-.222,14.646,14.646,0,0,0-1.292,6.208,7.654,7.654,0,0,0,.042.993v.632h0a1.582,1.582,0,0,1-.062.438,3.159,3.159,0,0,1-.778,1.118,7.5,7.5,0,0,0-.694.924,1.145,1.145,0,0,1,.111-.34,4.938,4.938,0,0,0-.861,2.618,2.674,2.674,0,0,0,.625,1.875,9.024,9.024,0,0,0,1.354,1.083,15.806,15.806,0,0,0-.25,2.778,16.048,16.048,0,0,0,7.819,13.687c.1.229.188.465.278.694a19.772,19.772,0,0,1,1.507,9.028,4.233,4.233,0,0,1-.1.653c-.035.215-.208.229-.3.347h0s-13.7.139-16.923-2.778-8.139,7.132-8.139,7.132-4.91.951-5.9,0-6.729-.132-6.729-.132a12.382,12.382,0,0,0-8.562-3.125,25.132,25.132,0,0,0-6.25-3.472h0l-.153-.056h0a7,7,0,0,0-3.09-.389s-6.736-5.555-8.7-8.555-11.319-14.076-11.361-14.125V200.5l-.1-1.611a5.775,5.775,0,0,1-.84.069c-.049-.16-.118-.347-.187-.562a31.062,31.062,0,0,0-1.986-4.562s0-2.035.59-2.549-.243-7.979-.243-7.979-6.069-14.187-11.507-3.6c0,0-10.278,6.854-1.653,14.84,0,0,3.472,1.667,3.93,2.986.319.854,1.486,3.25,2.271,4.861l.354.694-.1.083.125,1.333.056.514c-1.625.924-2.729,1.84-2.458,2.528a15.186,15.186,0,0,1,.979,3.667s11.93,14.944,13.472,21.326c0,0,31.992,19.013,42.513,20.368l-1.861,9.479a75.636,75.636,0,0,0-.417,7.743c.139,2.035-1.264,11.271-1.264,11.271s-1.826,13.583-3.368,15.486-1.264,10.048-1.264,10.048A68.643,68.643,0,0,1,730,318.48c-1.542,5.16-.424,11.548-.424,11.548s-5.326,12.222,7.437,3.937c0,0,6.25-.389,13.486-.639v.694c0,.931,0,1.937-.049,2.993-.1,7-.139,16.666.181,23.944.562,12.9,4.493,38.437,4.493,38.437v12.854a17.492,17.492,0,0,0-.375,3.667,23.861,23.861,0,0,0,3.472,12.84l.986,8.555s2.306,5.639,2.347,9.028a4.731,4.731,0,0,1-.1.813,5.468,5.468,0,0,0-.111,1.313c-.132,3.889,2.208,13.194,2.208,13.194s.139,9.368,1.542,9.916c1.2.465-1.6,5.4-2.437,6.812a1.936,1.936,0,0,1-.049-.264l-.174.278a6.651,6.651,0,0,0-.437,2.375,3.4,3.4,0,0,0,1.556,3.292c2.667,1.632,4.1,2.986,1.833,3.528a23.566,23.566,0,0,0-2.472.521,1.073,1.073,0,0,0-.118-.312,1.486,1.486,0,0,0-.924,1.639,6.944,6.944,0,0,0,.826,3.153,34.393,34.393,0,0,0,3.8,6.944l1.076-.118a5.25,5.25,0,0,1-.625,1.16,4.472,4.472,0,0,1-1.583,1.389,4.9,4.9,0,0,1-1.924.66,5.416,5.416,0,0,0-3.972,1.931c-1.389,1.812-2.278,4.278.486,6.444l10.034,3.472s17.264,2.243,16.347-1.632-1.472-7.264-1.472-7.264a15.312,15.312,0,0,0-1.389-6.868,8.94,8.94,0,0,0-.611-1.014l.611-.062s1.264-8.562,2.944-10.187c.389-.375.479-.694.389-.889.174-.465-.271-.736-.833-.9l-.125.34a8.185,8.185,0,0,0-1.674-.187s-.562-4.479,1.264-6.111a1.73,1.73,0,0,0,.354-1.333,7.166,7.166,0,0,0-.194-1.826.9.9,0,0,1-.063.111c-.917-4.069-4.028-10.534-4.028-10.534s-.139-4.069.986-5.7-.146-22.138-.146-22.138.424-9.91-.84-14.527,1.542-10.055,1.542-10.055v-.361l-.16-1.562a.4.4,0,0,0,0,.1c-.285-2.625-.819-7.382-1.215-9.576-.562-3.125.146-18.055.146-18.055l2.521-6.389,4.493,11.007,4.771,14.666s2.361,3.1,2.417,6.25v.458a8.013,8.013,0,0,0-.056.979,8.722,8.722,0,0,0,1.451,5.229s1.264,6.944,3.229,8.687,1.965,5.16,1.965,5.16S805,440.346,806.09,442.1c.944,1.486.993,5.555.986,6.826h0v.361s.333,3.6.319,6.611v1.076a.3.3,0,0,0,0-.076,10.46,10.46,0,0,1-.292,2.444l-.042.139a1.772,1.772,0,0,1,.049-.507,25.519,25.519,0,0,0-.694,6.25c-.063,3.611.486,7.889,2.673,10.416,3.792,4.347,6.174,3.805,6.174,3.805s-1.819,5.43-4.069,6.521a1.055,1.055,0,0,0-.236.153,2.346,2.346,0,0,0-.056-.319,2.646,2.646,0,0,0-.694,2.028c-.16,2.389,1.347,6.25,2.778,8.048a4.534,4.534,0,0,0,1.9,1.111,3.01,3.01,0,0,1-.354.215,7.545,7.545,0,0,1-.771.368,4.047,4.047,0,0,1-1.146.3,5.348,5.348,0,0,0-3.972,1.931c-1.389,1.806-2.278,4.271.486,6.437l10.034,3.472S836.311,511.907,835.409,508.039Z" transform="translate(-265.115 -135.817)" fill="url(#linear-gradient)"/>
      <path id="Path_435" data-name="Path 435" d="M805.741,655.1l-9.722-3.472c-2.68-2.167-1.826-4.632-.472-6.444a5.194,5.194,0,0,1,3.847-1.93,4.611,4.611,0,0,0,1.854-.66,4.444,4.444,0,0,0,1.542-1.389,7.173,7.173,0,0,0,1.1-3.757s10.666-3.125,13.583,0a7.9,7.9,0,0,1,1.292,1.9,15.868,15.868,0,0,1,1.389,6.868s.542,3.389,1.424,7.264S805.741,655.1,805.741,655.1Z" transform="translate(-301.355 -276.463)" fill="#2d293d"/>
      <path id="Path_436" data-name="Path 436" d="M874.181,648.2l-9.722-3.472c-2.68-2.167-1.826-4.632-.472-6.437a5.132,5.132,0,0,1,3.84-1.93,3.6,3.6,0,0,0,1.111-.3,7.379,7.379,0,0,0,.75-.368c2.715-1.493,2.646-5.16,2.646-5.16s10.659-3.125,13.583,0a7.7,7.7,0,0,1,1.021,1.389,15.431,15.431,0,0,1,1.625,7.375s.542,3.4,1.389,7.264S874.181,648.2,874.181,648.2Z" transform="translate(-322.269 -274.349)" fill="#2d293d"/>
      <path id="Path_437" data-name="Path 437" d="M821.24,637.438a7.9,7.9,0,0,1,1.292,1.9h0l-15.972,1.854a7.174,7.174,0,0,0,1.1-3.757S818.324,634.313,821.24,637.438Z" transform="translate(-305.112 -276.459)" opacity="0.1"/>
      <path id="Path_438" data-name="Path 438" d="M889.7,631.938v2.993c-2.486,4.09-14.507,3.194-18,1.146a7.385,7.385,0,0,0,.75-.368c2.715-1.493,2.646-5.16,2.646-5.16s10.659-3.125,13.583,0a7.7,7.7,0,0,1,1.021,1.389Z" transform="translate(-325.017 -274.355)" opacity="0.1"/>
      <path id="Path_439" data-name="Path 439" d="M864.629,544.718a27.223,27.223,0,0,0-1.9,4.076v10.729c-2.722,4.479-16.84,2.986-18.75.542s-3.9-8.805-1.757-9.91,3.937-6.521,3.937-6.521-2.312.542-5.979-3.805-2.576-13.986-1.9-16.291,0-10.048,0-10.048.139-5.437-.944-7.2-3.4-11.805-3.4-11.805,0-3.4-1.9-5.16-3.125-8.694-3.125-8.694a8.91,8.91,0,0,1-1.354-5.84c.4-3.4-2.312-7.062-2.312-7.062l-4.618-14.673-4.347-11-2.444,6.382s-.694,14.937-.132,18.055S815.1,477.9,815.1,477.9s-2.715,5.43-1.493,10.048.778,14.541.778,14.541,1.222,20.5.132,22.131-.951,5.708-.951,5.708,5.555,11.944,3.805,13.576-1.222,6.111-1.222,6.111,3.8,0,2.174,1.632-2.854,10.187-2.854,10.187l-16.423,1.924a34.155,34.155,0,0,1-3.674-6.944c-2.174-5.049.4-4.479,2.59-5.028s.806-1.9-1.778-3.528-1.083-5.3-1.083-5.3,3.937-6.653,2.576-7.194-1.493-9.917-1.493-9.917-2.715-11.111-2.035-14.125-2.174-10.18-2.174-10.18l-.951-8.555a23.541,23.541,0,0,1-2.986-16.166V463.629s-3.805-25.527-4.347-38.43c-.347-8.264-.25-19.541-.139-26.576.069-3.944.139-6.562.139-6.562l58.665-6.111a49.021,49.021,0,0,0,1.063,8.715c.6,3.222,1.542,7.4,3.014,12.611,4.208,14.937,1.632,26.069,1.632,26.069l-.549,18.882s5.16,12.625,4.076,16.972a36.2,36.2,0,0,0-1.1,7.889s11.541,27.569,10.319,35.583,3.8,20.645,3.8,20.645S865.991,542.273,864.629,544.718Z" transform="translate(-298.051 -200.037)" fill="#464353"/>
      <path id="Path_440" data-name="Path 440" d="M852.05,511.652l17.861-2.382S859.793,519.6,852.05,511.652Z" transform="translate(-319.012 -237.72)" opacity="0.05"/>
      <path id="Path_441" data-name="Path 441" d="M872.617,484.14s.611,6.319-3.257,8.694C869.36,492.834,876.284,491.751,872.617,484.14Z" transform="translate(-324.302 -230.041)" opacity="0.1"/>
      <path id="Path_442" data-name="Path 442" d="M863.18,455.2s-14.93,12.291-20.361,11.271S863.18,455.2,863.18,455.2Z" transform="translate(-315.962 -221.198)" opacity="0.1"/>
      <path id="Path_443" data-name="Path 443" d="M815.027,521s-11.34,2.576-11.68,7.132S815.027,521,815.027,521Z" transform="translate(-304.128 -241.304)" opacity="0.1"/>
      <path id="Path_444" data-name="Path 444" d="M818.354,602.56s-16.021,2.986-11.472,5.021a77.771,77.771,0,0,0,12.021,3.667S824.076,611.518,818.354,602.56Z" transform="translate(-304.962 -266.227)" opacity="0.05"/>
      <g id="Group_119" data-name="Group 119" transform="translate(485.399 191.6)" opacity="0.05">
        <path id="Path_445" data-name="Path 445" d="M801.673,613.429a3.16,3.16,0,0,1-1.465-2.319l-.167.285s-1.493,3.667,1.09,5.292c.292.188.576.375.833.556.479-.09.993-.16,1.486-.285C805.638,616.415,804.256,615.061,801.673,613.429Z" transform="translate(-788.387 -460.439)"/>
        <path id="Path_446" data-name="Path 446" d="M831.97,611.658c.444-.4.431-1.444.16-2.778a7.809,7.809,0,0,0-.91,3.93A3.389,3.389,0,0,1,831.97,611.658Z" transform="translate(-798.046 -459.758)"/>
        <path id="Path_447" data-name="Path 447" d="M828.273,515.59a18.516,18.516,0,0,0-1.083,4.993,20.137,20.137,0,0,1,1.243-3.431Z" transform="translate(-796.815 -431.251)"/>
        <path id="Path_448" data-name="Path 448" d="M881.459,504.676a6.37,6.37,0,0,0,.146-1.486c-.2,1.014-.34,1.951-.445,2.778C881.25,505.544,881.347,505.141,881.459,504.676Z" transform="translate(-813.306 -427.462)"/>
        <path id="Path_449" data-name="Path 449" d="M828.032,583.791a8.7,8.7,0,0,0,.4-3.021,10.256,10.256,0,0,0-.785,3.812,3.646,3.646,0,0,1,.382-.792Z" transform="translate(-796.955 -451.168)"/>
        <path id="Path_450" data-name="Path 450" d="M822.729,622a53.9,53.9,0,0,0-1.868,8.333l-16.423,1.9a34.155,34.155,0,0,1-3.674-6.944,12.588,12.588,0,0,1-.465-1.194c-.986.451-1.389,1.472-.083,4.451a34.71,34.71,0,0,0,3.68,6.944l16.423-1.9s1.222-8.555,2.847-10.187C824,622.611,823.486,622.2,822.729,622Z" transform="translate(-788.319 -463.767)"/>
        <path id="Path_451" data-name="Path 451" d="M796.192,527.984s.132,9.368,1.493,9.91h0c.694-1.549,1.146-3.021.535-3.264-1.389-.542-1.493-9.917-1.493-9.917s-2.715-11.111-2.035-14.125-2.174-10.18-2.174-10.18l-.951-8.555a23.541,23.541,0,0,1-2.986-16.166V462.493s-3.805-25.527-4.347-38.43c-.347-8.264-.25-19.541-.139-26.576,0-1.271.042-2.4.063-3.347l-.465.049s-.076,2.611-.139,6.562c-.111,7.035-.215,18.312.139,26.569.542,12.9,4.34,38.437,4.34,38.437v13.194a23.555,23.555,0,0,0,2.993,16.159l.944,8.555s2.854,7.194,2.174,10.187S796.192,527.984,796.192,527.984Z" transform="translate(-783.448 -394.14)"/>
        <path id="Path_452" data-name="Path 452" d="M869.992,628.621a15.881,15.881,0,0,1-2.6-6.451c-1.674,1.514.25,7.389,2.083,9.722,1.9,2.444,16.021,3.937,18.75-.549V628.76C884.519,632.392,871.783,630.934,869.992,628.621Z" transform="translate(-808.902 -463.819)"/>
        <path id="Path_453" data-name="Path 453" d="M900.3,609.32a27.446,27.446,0,0,0-1.9,4.076v1.924a28.47,28.47,0,0,1,1.389-2.722,8.336,8.336,0,0,0,.6-3.368S900.324,609.292,900.3,609.32Z" transform="translate(-818.574 -459.865)"/>
        <path id="Path_454" data-name="Path 454" d="M869.2,603.619a26.834,26.834,0,0,0,1.34-3.229s-2.312.542-5.979-3.805c-2.667-3.16-2.819-9.132-2.437-13.034-.694,2.312-1.771,11.951,1.9,16.3C866.412,602.688,868.225,603.438,869.2,603.619Z" transform="translate(-807.274 -452.018)"/>
        <path id="Path_455" data-name="Path 455" d="M851.866,536.21a72.369,72.369,0,0,1,.271,8.048,10.97,10.97,0,0,1,.278-1.257c.694-2.312,0-10.048,0-10.048s.139-5.437-.951-7.2-3.361-11.819-3.361-11.819,0-3.4-1.9-5.16-3.125-8.694-3.125-8.694a8.937,8.937,0,0,1-1.389-5.84c.41-3.4-2.305-7.062-2.305-7.062l-4.618-14.666-4.347-11-2.451,6.389s0,.806-.083,2.083l1.986-5.187,4.347,10.979,4.618,14.666s2.715,3.667,2.306,7.062a8.937,8.937,0,0,0,1.389,5.84s1.222,6.944,3.125,8.694,1.9,5.16,1.9,5.16,2.313,10.048,3.4,11.805S851.866,536.21,851.866,536.21Z" transform="translate(-797.025 -414.726)"/>
      </g>
      <path id="Path_456" data-name="Path 456" d="M872.967,203.651l-1.021,4.958.063,2.208.042,1.625-5.667.583-.632-1.174h0c-1.174-2.125-3.611-6.444-4.4-7.111-1.049-.875-2.917-14.666-.694-13.847a5.924,5.924,0,0,1,3.153,2.854S874.974,195.026,872.967,203.651Z" transform="translate(-321.326 -140.423)" fill="#ffcdd3"/>
      <path id="Path_457" data-name="Path 457" d="M874.749,220.933l-5.667.583-.632-1.174h0a4.993,4.993,0,0,1,6.25-1.028Z" transform="translate(-324.024 -148.914)" opacity="0.1"/>
      <path id="Path_458" data-name="Path 458" d="M876.035,223.847l-7.472,1.729-.16-1.111-.424-2.993a5.142,5.142,0,0,1,7.236-.986l.375,1.521Z" transform="translate(-323.88 -149.14)" fill="#6c63ff"/>
      <path id="Path_459" data-name="Path 459" d="M697.358,199.572l-7.979,4.278-.694-1.5c-.757-1.59-1.889-3.986-2.2-4.861-.472-1.319-3.8-2.986-3.8-2.986-8.333-7.979,1.6-14.84,1.6-14.84,5.264-10.59,11.111,3.6,11.111,3.6s.819,7.479.243,7.979-.576,2.549-.576,2.549a31.346,31.346,0,0,1,1.924,4.562C697.226,199.106,697.358,199.572,697.358,199.572Z" transform="translate(-266.242 -135.802)" fill="#ffcdd3"/>
      <path id="Path_460" data-name="Path 460" d="M701.464,209.505l-7.979,4.278-.694-1.5c1.125-.944,5.118-4.167,6.43-4.035a9.611,9.611,0,0,0,1.889.049C701.332,209.04,701.464,209.505,701.464,209.505Z" transform="translate(-270.347 -145.736)" opacity="0.1"/>
      <path id="Path_461" data-name="Path 461" d="M702.371,212.156l-8.965,4.417-.181-1.924-.125-1.333s5.194-4.451,6.729-4.278a8.16,8.16,0,0,0,2.34,0l.1,1.611Z" transform="translate(-270.442 -145.977)" fill="#6c63ff"/>
      <path id="Path_462" data-name="Path 462" d="M833.167,243.38s-39.083,4.41-31.777,2.035c5.083-1.66,7.1-4.861,7.528-8.472a20.351,20.351,0,0,0-1.451-9.028,39.357,39.357,0,0,0-3.472-7.062s29.86-16.43,23.9-1.493a24.082,24.082,0,0,0-1.694,7.076,19.989,19.989,0,0,0,.771,7.167,21.338,21.338,0,0,0,6.2,9.778Z" transform="translate(-303.254 -147.216)" fill="#ffcdd3"/>
      <path id="Path_463" data-name="Path 463" d="M829.415,219.33a24.082,24.082,0,0,0-1.694,7.076c-2.812,2.368-5.9,2.208-9.861,2.208-3.042,0-6.417.736-8.847-.729a39.36,39.36,0,0,0-3.472-7.062S835.394,204.393,829.415,219.33Z" transform="translate(-304.8 -147.206)" opacity="0.1"/>
      <circle id="Ellipse_12" data-name="Ellipse 12" cx="16.159" cy="16.159" r="16.159" transform="translate(496.372 50.131)" fill="#ffcdd3"/>
      <path id="Path_464" data-name="Path 464" d="M833.167,251.656s-39.083,4.41-31.777,2.035c5.083-1.66,7.1-4.861,7.528-8.472,1.944-2.083,5.854-3.632,8.333-4.437a11.694,11.694,0,0,1,7.083-.118,10.071,10.071,0,0,1,2.576,1.194A21.339,21.339,0,0,0,833.167,251.656Z" transform="translate(-303.254 -155.492)" opacity="0.1"/>
      <path id="Path_465" data-name="Path 465" d="M876.222,224.885l-7.472,1.729-.16-1.111a6.611,6.611,0,0,1,7.187-2.458Z" transform="translate(-324.066 -150.178)" opacity="0.1"/>
      <path id="Path_466" data-name="Path 466" d="M702.426,212.864l-8.965,4.417-.181-1.924a65.391,65.391,0,0,1,9.028-4.007Z" transform="translate(-270.497 -146.685)" opacity="0.1"/>
      <path id="Path_467" data-name="Path 467" d="M843.467,394.685c-15.146,2.417-36.673,5.5-40.089,4.458-2.84-.861-11.9-.771-19.777-.5.069-3.944.139-6.562.139-6.562L842.4,385.97A49.024,49.024,0,0,0,843.467,394.685Z" transform="translate(-298.096 -200.043)" opacity="0.1"/>
      <path id="Path_468" data-name="Path 468" d="M829.93,338.006s-49.839,8.555-55.186,6.944-32.812.132-32.812.132c-12.361,8.285-7.2-3.937-7.2-3.937s-1.083-6.382.41-11.541a70.508,70.508,0,0,0,2.049-11.555s-.271-8.153,1.222-10.055,3.264-15.479,3.264-15.479,1.354-9.236,1.222-11.271.4-7.743.4-7.743l1.771-9.507c-10.187-1.354-41.152-20.368-41.152-20.368-1.493-6.382-13.034-21.319-13.034-21.319a15.716,15.716,0,0,0-.951-3.667c-.813-2.174,11.409-6.521,11.409-6.521s9.1,11.111,11,14.125,8.417,8.555,8.417,8.555a6.548,6.548,0,0,1,2.986.389l.16.049h0a24.207,24.207,0,0,1,6.076,3.472,11.805,11.805,0,0,1,8.285,3.125s5.555-.819,6.521.132,5.7,0,5.7,0,4.75-10.048,7.875-7.132,16.382,2.778,16.382,2.778c1.764-2.347,6.062-4.028,8.75-4.861a11.743,11.743,0,0,1,7.083-.118,8.985,8.985,0,0,1,2.778,1.389l8.062,7.875s2.306-2.993,2.035-3.667,2.715-1.222,2.715-1.222,3.937-1.222,5.43-1.632,2.861,1.208,2.986,1.354a16.238,16.238,0,0,1-.694-5.972c.375-2.5-1.632-4.861-1.632-4.861,4.75-11.68,15.479-1.9,15.479-1.9s1.222,6.382.139,8.826,1.083,7.6.813,8.965.549,3.667.549,6.25-1.389,7.465-2.174,9.639-7.333,7.062-7.333,7.062-.41,7.743-3.264,12.222-1.062,19.8-1.062,19.8,2.715,11.951,6.111,15.757S829.93,338.006,829.93,338.006Z" transform="translate(-269.462 -146.92)" fill="#3f3d56"/>
      <path id="Path_469" data-name="Path 469" d="M783.942,261.068s-1.493-4.479-2.854-4.861a31.421,31.421,0,0,1-3.937-1.764l.875-1.674s5.1,1.389,5.917,2.9S783.942,261.068,783.942,261.068Z" transform="translate(-296.125 -159.341)" opacity="0.1"/>
      <path id="Path_470" data-name="Path 470" d="M742.181,248.889c-.271,1.389-12.361,2.576-12.361,2.576l6.111-6.125h0l.153.056h0a24.209,24.209,0,0,1,6.1,3.493Z" transform="translate(-281.663 -157.071)" opacity="0.1"/>
      <circle id="Ellipse_13" data-name="Ellipse 13" cx="1.083" cy="1.083" r="1.083" transform="translate(424.463 72.096)" fill="#575988"/>
      <circle id="Ellipse_14" data-name="Ellipse 14" cx="1.083" cy="1.083" r="1.083" transform="translate(425.852 74.269)" fill="#575988"/>
      <circle id="Ellipse_15" data-name="Ellipse 15" cx="1.083" cy="1.083" r="1.083" transform="translate(427.213 76.276)" fill="#575988"/>
      <circle id="Ellipse_16" data-name="Ellipse 16" cx="1.083" cy="1.083" r="1.083" transform="translate(428.637 78.443)" fill="#575988"/>
      <circle id="Ellipse_17" data-name="Ellipse 17" cx="0.882" cy="0.882" r="0.882" transform="translate(556.85 78.526)" fill="#575988"/>
      <circle id="Ellipse_18" data-name="Ellipse 18" cx="0.882" cy="0.882" r="0.882" transform="translate(556.989 80.533)" fill="#575988"/>
      <circle id="Ellipse_19" data-name="Ellipse 19" cx="0.882" cy="0.882" r="0.882" transform="translate(557.107 82.533)" fill="#575988"/>
      <path id="Path_471" data-name="Path 471" d="M787,317.72c-.132-.16,30.486,38.5,54.249,16.159C841.27,333.886,803.722,338.976,787,317.72Z" transform="translate(-299.135 -179.188)" opacity="0.1"/>
      <path id="Path_472" data-name="Path 472" d="M761.7,346.66s18.319.5,20.236,5.771v5.486a3.514,3.514,0,0,1-3.41,0c-1.847-1-12.923-6.625-16.826-3.917Z" transform="translate(-291.404 -188.031)" opacity="0.1"/>
      <path id="Path_473" data-name="Path 473" d="M762.19,346.66s17.52.479,19.354,5.507v5.222a3.361,3.361,0,0,1-3.264,0c-1.764-.944-12.354-6.312-16.09-3.729Z" transform="translate(-291.554 -188.031)" fill="#3f3d56"/>
      <path id="Path_474" data-name="Path 474" d="M776.1,289.38a58.944,58.944,0,0,0,7.1,12.187,47.82,47.82,0,0,0,11.111,10.743S776.406,291.894,776.1,289.38Z" transform="translate(-295.804 -170.528)" opacity="0.1"/>
      <path id="Path_475" data-name="Path 475" d="M767.47,258.73s3.056,13.194,10.93,17.673Z" transform="translate(-293.167 -161.163)" opacity="0.1"/>
      <path id="Path_476" data-name="Path 476" d="M760.6,260.648c-.076-.243-2.715,10.416,10.153,16.34C770.753,276.988,765.287,275.134,760.6,260.648Z" transform="translate(-290.985 -161.747)" opacity="0.1"/>
      <path id="Path_477" data-name="Path 477" d="M875.908,247.906c-.2,0,6.347,4.167,8.132,6.111C884.04,254.017,879.776,247.628,875.908,247.906Z" transform="translate(-326.301 -157.852)" opacity="0.1"/>
      <path id="Path_478" data-name="Path 478" d="M810.316,218.731a2.549,2.549,0,0,0,2.778,2.521c4.924.306,10.055.521,14.583-1.389a5.556,5.556,0,0,0,2.222-1.472,9.136,9.136,0,0,0,1.292-3.576c.639-2.417,2-4.562,2.979-6.861a22.986,22.986,0,0,0,1.6-12.326,8.332,8.332,0,0,0-1.236-3.6c-1.306-1.868-3.687-2.625-5.417-4.111s-2.84-3.757-4.861-4.861c-1.819-1.014-4.049-.889-6.1-.542a32.006,32.006,0,0,0-11.375,4.271c-1.174.694-2.458,1.549-3.805,1.292a5.089,5.089,0,0,1-2.778-2.146,15.042,15.042,0,0,0-1.16,7.048,3.028,3.028,0,0,1-.035,1.062,3.2,3.2,0,0,1-.757,1.118c-1.215,1.389-1.972,3.646-.771,5.076.521.618,1.326.958,1.833,1.59.91,1.132.6,2.778.583,4.222a2.173,2.173,0,0,0,.361,1.431,2.083,2.083,0,0,0,1.993.479,5.423,5.423,0,0,1,2.125-.2,3.562,3.562,0,0,1,1.847,1.389C808.469,212.064,809.358,215.245,810.316,218.731Z" transform="translate(-302.153 -137.795)" fill="#2d293d"/>
      <g id="Group_120" data-name="Group 120" transform="translate(494.724 47.985)" opacity="0.1">
        <path id="Path_479" data-name="Path 479" d="M830.476,223.1a5.555,5.555,0,0,1-2.222,1.472c-4.555,1.9-9.68,1.681-14.583,1.389a2.556,2.556,0,0,1-2.785-2.528c-.958-3.472-1.84-6.66-4.118-9.555a3.569,3.569,0,0,0-1.847-1.424,5.694,5.694,0,0,0-2.125.2,2.083,2.083,0,0,1-1.993-.472,2.174,2.174,0,0,1-.361-1.431c0-1.458.326-3.09-.583-4.222-.507-.632-1.312-.972-1.833-1.6a3.166,3.166,0,0,1-.312-3.236c-.868,1.389-1.236,3.132-.229,4.326.521.618,1.326.958,1.833,1.59.91,1.139.6,2.778.583,4.222a2.16,2.16,0,0,0,.354,1.431,2.083,2.083,0,0,0,2,.479,5.424,5.424,0,0,1,2.125-.2,3.562,3.562,0,0,1,1.847,1.389c2.271,2.9,3.16,6.076,4.118,9.562a3.472,3.472,0,0,0,1.2,2.2,3.368,3.368,0,0,0,1.528.333c4.924.306,10.055.528,14.583-1.389a5.5,5.5,0,0,0,2.222-1.472,4.246,4.246,0,0,0,.694-1.306A.343.343,0,0,1,830.476,223.1Z" transform="translate(-796.877 -191.721)"/>
        <path id="Path_480" data-name="Path 480" d="M799.98,195.163a2.375,2.375,0,0,0,.493-.819,3.025,3.025,0,0,0,0-1.062,15.062,15.062,0,0,1,.757-5.847l-.09-.1a14.931,14.931,0,0,0-1.16,7.042,5.012,5.012,0,0,1,0,.792Z" transform="translate(-797.812 -187.33)"/>
      </g>
      <path id="Path_481" data-name="Path 481" d="M812.08,248.724s20.187,2.68,22-.354" transform="translate(-306.799 -157.997)" opacity="0.1"/>
      <path id="Path_482" data-name="Path 482" d="M868.59,236.85s11.222,0,13.687,4.222" transform="translate(-324.066 -154.477)" opacity="0.1"/>
      <path id="Path_483" data-name="Path 483" d="M952.47,772.725a17.8,17.8,0,0,1-12.118,4.528c-1.139,0-2.715.215-2.722,1.354a1.909,1.909,0,0,0,.333.931,11.145,11.145,0,0,0,6.25,4.91,22.089,22.089,0,0,0,7.562.479l7.4-.382c1.389-.076,2.778-.146,4.167-.319s2.9-.458,4.354-.694a56.944,56.944,0,0,1,10.771-.5c.958.035,2.083,0,2.653-.694s.278-2.021.063-3.062c-.444-2.146,0-4.4-.41-6.548-.694-3.778-3.965-6.673-7.548-8.042-3.333-1.264-9.236-2.715-12.389-.6C957.5,766.294,955.47,770,952.47,772.725Z" transform="translate(-345.163 -315.255)" fill="#3f3d56"/>
      <path id="Path_484" data-name="Path 484" d="M963.046,587.956c.653,3.1,3.66,5.479,3.743,8.646.076,2.542-1.736,4.673-3.042,6.847a45.671,45.671,0,0,0-3.1,7.028,107.352,107.352,0,0,1-9.111,18.125c-1.736,2.778-3.68,5.743-3.285,8.972a13.443,13.443,0,0,0,1.576,4.292l5.208,10.347a29.961,29.961,0,0,1,2.66,6.535c.452,1.965.493,4,.757,6,.819,6.347,3.8,12.736,2.035,18.888-.153.528-.694,1.167-1.118.8,1.722,3.215,3.1,6.451,2.972,10.1-.069,1.91-.653,3.9.049,5.681a6.218,6.218,0,0,1,.813,2.236,14.263,14.263,0,0,1-.3,1.535c-.146,1.465,1.2,2.687,2.6,3.153s2.917.431,4.326.854c2.708.812,4.646,3.146,6.944,4.764a14.784,14.784,0,0,0,8,2.6,2.013,2.013,0,0,0,1.181-.236,1.91,1.91,0,0,0,.653-1.431,7.944,7.944,0,0,0-2.861-6.9,3.125,3.125,0,0,1-1.062-1.111,2.68,2.68,0,0,1-.1-1.243,93.587,93.587,0,0,0-.306-17.083,25.939,25.939,0,0,1-.271-5.437,22.22,22.22,0,0,0,.438-4.521,24.019,24.019,0,0,0-1.389-4.333c-.806-2.583-.583-5.361-.694-8.062a70.711,70.711,0,0,0-2.285-13.889,10.5,10.5,0,0,0-2.16-5.014c-1.083-1.132-2.833-2.215-2.423-3.722a4.411,4.411,0,0,1,.993-1.479,5.938,5.938,0,0,0,1.236-4.528,2.035,2.035,0,0,0,2.34-1.1,36.614,36.614,0,0,0,18.319-20.833,6.873,6.873,0,0,1,.819-1.861c.785-1.1,2.146-1.569,3.354-2.174,3.792-1.91,6.41-5.486,8.812-8.986a15.883,15.883,0,0,0,3.868-11.215l.215-8.16a4.408,4.408,0,0,0-.153-1.6,3.992,3.992,0,0,0-.882-1.292,15.686,15.686,0,0,0-8.653-4.667c-2.222-.4-4.493-.319-6.743-.507-4.361-.361-8.667-1.715-13.027-1.389-6.854.507-12.958,5.257-16.187,11.326C966.67,586.053,965.476,587.914,963.046,587.956Z" transform="translate(-348.391 -257.053)" fill="#464353"/>
      <path id="Path_485" data-name="Path 485" d="M911.447,510.411a9.117,9.117,0,0,1-.5,3.715,2.6,2.6,0,0,1-3.049,1.562c.354-.8-.583-1.708-1.458-1.611a2.729,2.729,0,0,0-1.924,1.653,6.146,6.146,0,0,0-.555,3.771c.278,1.6,1.2,3.132.958,4.736-.194,1.333-1.174,2.66-.653,3.9a6.311,6.311,0,0,0,1.257,1.507,4.25,4.25,0,0,1-.451,5.833l13.139.264c-.479,2.194.507,4.437,1.632,6.389a40.277,40.277,0,0,0,30.027,19.6,2.611,2.611,0,0,0-.632,3.993c1.069,1.063,2.882.931,4.222.243a30.046,30.046,0,0,0,3.611-2.708,11.111,11.111,0,0,1,7.423-2c1.646.16,3.243.694,4.9.778,4.861.257,9.028-3.243,13.708-4.674,3.41-1.049,7.278-1.049,10.139-3.18,1.236-.917,2.25-2.424,1.889-3.91a6.536,6.536,0,0,0-1.389-2.3c-1.646-2.132-2.618-4.694-3.8-7.118a42.576,42.576,0,0,0-9.493-12.722,84.936,84.936,0,0,0-9.416-7.139,16.06,16.06,0,0,0-2.542-1.535,28.5,28.5,0,0,1-3.472-1.389c-1.542-.972-2.43-2.687-3.618-4.069-2.6-3.042-6.6-4.437-9.812-6.826-2.153-1.6-4.055-3.715-6.625-4.486-1.25-.382-2.576-.41-3.826-.785-2.84-.861-4.91-3.382-7.694-4.4-2.2-.806-4.632-.6-6.944-.882a16.256,16.256,0,0,1-7.257-2.764,8.611,8.611,0,0,0-2.312-1.347c-3.521-1.069-3.805,5.486-4.167,7.757C912.295,503.64,911.447,506.994,911.447,510.411Z" transform="translate(-334.848 -232.563)" fill="#6c63ff"/>
      <path id="Path_486" data-name="Path 486" d="M898.3,545.291c.59,6.4-4.243,12.6-2.833,18.875.3,1.333.875,2.6,1.083,3.958.59,3.715-1.632,7.236-3.75,10.347l-18.194,26.7a16.791,16.791,0,0,1-2.6,3.208c-3.472,3.09-8.694,2.778-13.264,3.694a22.918,22.918,0,0,0-8.889,3.93.576.576,0,0,0-.111.8,7.639,7.639,0,0,0,6.6,3.1c.479.625,0,1.555-.66,2.007-.972.694-2.319.854-2.514,2.514a2.777,2.777,0,0,0,.333,1.667,5.187,5.187,0,0,0,3.18,2.208c6.3,1.931,13.1-1.458,17.819-6.062s8.1-10.416,12.722-15.1c2.562-2.6,5.472-4.812,8.111-7.326,5.264-5.021,9.361-11.111,13.305-17.215a19.051,19.051,0,0,0,2.882-5.861c.493-2.132.264-4.292.826-6.354.736-2.7,2.715-4.861,4.361-7.125,3.229-4.444,5.389-9.882,4.958-15.361s-3.819-10.882-8.986-12.743a8.076,8.076,0,0,0-5.035-.306c-2.118.653-3.68,2.4-5.125,4.083l-3.472,3.986a9.3,9.3,0,0,0-1.951,3.062,3.2,3.2,0,0,0,.694,3.4" transform="translate(-318.275 -245.457)" fill="#fbbebe"/>
      <path id="Path_487" data-name="Path 487" d="M927.823,512.078c-2.389.139-5.021.375-6.708,2.083a9.547,9.547,0,0,0-1.694,2.653c-1.639,3.34-3.236,6.833-3.354,10.555-.1,2.972.764,5.882,1.215,8.819.375,2.444-.576,4.937-.757,7.41a51.431,51.431,0,0,0,9.569-3.68,32.047,32.047,0,0,1,5.6-2.91c2.854-.951,7.639.694,10.354,2.014.146-1.9-1.285-5.222-1.132-7.132a7.967,7.967,0,0,1,.424-2.361,14.334,14.334,0,0,1,1.438-2.285,9.347,9.347,0,0,0-.84-10.951c-2.41-2.708-6.18-3.722-9.778-4.167a42.289,42.289,0,0,0-6.826-.236" transform="translate(-338.572 -238.507)" fill="#6c63ff"/>
    </g>
  </g>
</svg>
