<svg xmlns="http://www.w3.org/2000/svg" xmlns:xlink="http://www.w3.org/1999/xlink" width="1280" height="800" viewBox="0 0 1280 800">
  <defs>
    <filter id="Path_158" x="904.876" y="346.958" width="295.156" height="214.201" filterUnits="userSpaceOnUse">
      <feOffset dy="3" input="SourceAlpha"/>
      <feGaussianBlur stdDeviation="3" result="blur"/>
      <feFlood flood-opacity="0.161"/>
      <feComposite operator="in" in2="blur"/>
      <feComposite in="SourceGraphic"/>
    </filter>
    <filter id="Path_159" x="904.876" y="266.004" width="295.156" height="98.954" filterUnits="userSpaceOnUse">
      <feOffset dy="3" input="SourceAlpha"/>
      <feGaussianBlur stdDeviation="3" result="blur-2"/>
      <feFlood flood-opacity="0.161"/>
      <feComposite operator="in" in2="blur-2"/>
      <feComposite in="SourceGraphic"/>
    </filter>
    <filter id="Information_retention_after_2_weeks" x="39.5" y="105.5" width="1201" height="121" filterUnits="userSpaceOnUse">
      <feOffset dy="5" input="SourceAlpha"/>
      <feGaussianBlur stdDeviation="3.5" result="blur-3"/>
      <feFlood flood-opacity="0.161"/>
      <feComposite operator="in" in2="blur-3"/>
      <feComposite in="SourceGraphic"/>
    </filter>
    <filter id="_68_of_those_who_practiced_29_of_those_who_read_material" x="82.5" y="339.5" width="802" height="222" filterUnits="userSpaceOnUse">
      <feOffset dy="5" input="SourceAlpha"/>
      <feGaussianBlur stdDeviation="3.5" result="blur-4"/>
      <feFlood flood-opacity="0.161"/>
      <feComposite operator="in" in2="blur-4"/>
      <feComposite in="SourceGraphic"/>
    </filter>
    <clipPath id="clip-_2018-11-14-benefits-of-experiential-learning01">
      <rect width="1280" height="800"/>
    </clipPath>
  </defs>
  <g id="_2018-11-14-benefits-of-experiential-learning01" data-name="2018-11-14-benefits-of-experiential-learning01" clip-path="url(#clip-_2018-11-14-benefits-of-experiential-learning01)">
    <rect width="1280" height="800" fill="#89d4e3"/>
    <g id="Group_64" data-name="Group 64" transform="translate(913.876 251.748)">
      <g transform="matrix(1, 0, 0, 1, -913.88, -251.75)" filter="url(#Path_158)">
        <path id="Path_158-2" data-name="Path 158" d="M119.535,205.285V368.227a33.356,33.356,0,0,0,33.259,33.259H363.432a33.356,33.356,0,0,0,33.259-33.259V205.285Z" transform="translate(794.34 147.67)" fill="#fafafa"/>
      </g>
      <g id="Group_54" data-name="Group 54" transform="translate(27.716 154.399)">
        <rect id="Rectangle_46" data-name="Rectangle 46" width="22.172" height="22.172" rx="2.087" transform="translate(166.293)" fill="#c8c8c8"/>
        <path id="Rectangle_47" data-name="Rectangle 47" d="M2.087,0h18a2.088,2.088,0,0,1,2.088,2.088v18a2.087,2.087,0,0,1-2.087,2.087h-18A2.087,2.087,0,0,1,0,20.085v-18A2.087,2.087,0,0,1,2.087,0Z" transform="translate(133.035)" fill="#c8c8c8"/>
        <path id="Rectangle_48" data-name="Rectangle 48" d="M2.087,0h18a2.088,2.088,0,0,1,2.088,2.088v18a2.087,2.087,0,0,1-2.087,2.087h-18A2.087,2.087,0,0,1,0,20.085v-18A2.087,2.087,0,0,1,2.087,0Z" transform="translate(99.776)" fill="#c8c8c8"/>
        <path id="Rectangle_49" data-name="Rectangle 49" d="M2.087,0h18a2.088,2.088,0,0,1,2.088,2.088v18a2.087,2.087,0,0,1-2.087,2.087h-18A2.087,2.087,0,0,1,0,20.085v-18A2.087,2.087,0,0,1,2.087,0Z" transform="translate(66.517)" fill="#c8c8c8"/>
        <path id="Rectangle_50" data-name="Rectangle 50" d="M2.088,0h18a2.087,2.087,0,0,1,2.087,2.087v18a2.087,2.087,0,0,1-2.087,2.087h-18A2.087,2.087,0,0,1,0,20.085v-18A2.088,2.088,0,0,1,2.088,0Z" transform="translate(33.259)" fill="#c8c8c8"/>
        <path id="Rectangle_51" data-name="Rectangle 51" d="M2.087,0h18a2.088,2.088,0,0,1,2.088,2.088v18a2.087,2.087,0,0,1-2.087,2.087h-18A2.087,2.087,0,0,1,0,20.085v-18A2.087,2.087,0,0,1,2.087,0Z" transform="translate(199.552)" fill="#c8c8c8"/>
        <path id="Rectangle_52" data-name="Rectangle 52" d="M2.087,0h18a2.088,2.088,0,0,1,2.088,2.088v18a2.087,2.087,0,0,1-2.087,2.087h-18A2.087,2.087,0,0,1,0,20.085v-18A2.087,2.087,0,0,1,2.087,0Z" fill="#c8c8c8"/>
      </g>
      <g id="Group_55" data-name="Group 55" transform="translate(27.716 187.658)">
        <path id="Rectangle_53" data-name="Rectangle 53" d="M2.087,0h18a2.087,2.087,0,0,1,2.087,2.087v18a2.088,2.088,0,0,1-2.088,2.088h-18A2.087,2.087,0,0,1,0,20.085v-18A2.087,2.087,0,0,1,2.087,0Z" transform="translate(166.293)"/>
        <path id="Rectangle_54" data-name="Rectangle 54" d="M2.087,0h18a2.087,2.087,0,0,1,2.087,2.087v18a2.087,2.087,0,0,1-2.087,2.087h-18A2.088,2.088,0,0,1,0,20.085v-18A2.087,2.087,0,0,1,2.087,0Z" transform="translate(133.035)"/>
        <path id="Rectangle_55" data-name="Rectangle 55" d="M2.087,0h18a2.087,2.087,0,0,1,2.087,2.087v18a2.087,2.087,0,0,1-2.087,2.087h-18A2.088,2.088,0,0,1,0,20.085v-18A2.087,2.087,0,0,1,2.087,0Z" transform="translate(99.776)"/>
        <path id="Rectangle_56" data-name="Rectangle 56" d="M2.087,0h18a2.087,2.087,0,0,1,2.087,2.087v18a2.087,2.087,0,0,1-2.087,2.087h-18A2.088,2.088,0,0,1,0,20.085v-18A2.087,2.087,0,0,1,2.087,0Z" transform="translate(66.517)"/>
        <path id="Rectangle_57" data-name="Rectangle 57" d="M2.087,0h18a2.087,2.087,0,0,1,2.087,2.087v18a2.088,2.088,0,0,1-2.088,2.088h-18A2.087,2.087,0,0,1,0,20.085v-18A2.087,2.087,0,0,1,2.087,0Z" transform="translate(33.259)"/>
        <path id="Rectangle_58" data-name="Rectangle 58" d="M2.087,0h18a2.087,2.087,0,0,1,2.087,2.087v18a2.087,2.087,0,0,1-2.087,2.087h-18A2.088,2.088,0,0,1,0,20.085v-18A2.087,2.087,0,0,1,2.087,0Z" transform="translate(199.552)"/>
        <path id="Rectangle_59" data-name="Rectangle 59" d="M2.087,0h18a2.087,2.087,0,0,1,2.087,2.087v18a2.087,2.087,0,0,1-2.087,2.087h-18A2.088,2.088,0,0,1,0,20.085v-18A2.087,2.087,0,0,1,2.087,0Z"/>
      </g>
      <g id="Group_56" data-name="Group 56" transform="translate(27.716 220.917)">
        <path id="Rectangle_60" data-name="Rectangle 60" d="M2.087,0h18a2.087,2.087,0,0,1,2.087,2.087v18a2.088,2.088,0,0,1-2.088,2.088h-18A2.087,2.087,0,0,1,0,20.085v-18A2.087,2.087,0,0,1,2.087,0Z" transform="translate(166.293)"/>
        <path id="Rectangle_61" data-name="Rectangle 61" d="M2.087,0h18a2.087,2.087,0,0,1,2.087,2.087v18a2.087,2.087,0,0,1-2.087,2.087h-18A2.088,2.088,0,0,1,0,20.085v-18A2.087,2.087,0,0,1,2.087,0Z" transform="translate(133.035)"/>
        <path id="Rectangle_62" data-name="Rectangle 62" d="M2.087,0h18a2.087,2.087,0,0,1,2.087,2.087v18a2.087,2.087,0,0,1-2.087,2.087h-18A2.088,2.088,0,0,1,0,20.085v-18A2.087,2.087,0,0,1,2.087,0Z" transform="translate(99.776)"/>
        <path id="Rectangle_63" data-name="Rectangle 63" d="M2.087,0h18a2.087,2.087,0,0,1,2.087,2.087v18a2.087,2.087,0,0,1-2.087,2.087h-18A2.088,2.088,0,0,1,0,20.085v-18A2.087,2.087,0,0,1,2.087,0Z" transform="translate(66.517)"/>
        <path id="Rectangle_64" data-name="Rectangle 64" d="M2.087,0h18a2.087,2.087,0,0,1,2.087,2.087v18a2.088,2.088,0,0,1-2.088,2.088h-18A2.087,2.087,0,0,1,0,20.085v-18A2.087,2.087,0,0,1,2.087,0Z" transform="translate(33.259)"/>
        <path id="Rectangle_65" data-name="Rectangle 65" d="M2.087,0h18a2.087,2.087,0,0,1,2.087,2.087v18a2.087,2.087,0,0,1-2.087,2.087h-18A2.088,2.088,0,0,1,0,20.085v-18A2.087,2.087,0,0,1,2.087,0Z" transform="translate(199.552)"/>
        <path id="Rectangle_66" data-name="Rectangle 66" d="M2.087,0h18a2.087,2.087,0,0,1,2.087,2.087v18a2.087,2.087,0,0,1-2.087,2.087h-18A2.088,2.088,0,0,1,0,20.085v-18A2.087,2.087,0,0,1,2.087,0Z"/>
      </g>
      <rect id="Rectangle_67" data-name="Rectangle 67" width="22.172" height="22.172" rx="2.087" transform="translate(194.009 121.141)" fill="#c8c8c8"/>
      <rect id="Rectangle_68" data-name="Rectangle 68" width="22.172" height="22.172" rx="2.087" transform="translate(160.75 121.141)" fill="#c8c8c8"/>
      <path id="Rectangle_69" data-name="Rectangle 69" d="M2.087,0h18a2.088,2.088,0,0,1,2.088,2.088v18a2.087,2.087,0,0,1-2.087,2.087h-18A2.087,2.087,0,0,1,0,20.085v-18A2.087,2.087,0,0,1,2.087,0Z" transform="translate(227.268 121.141)" fill="#c8c8c8"/>
      <rect id="Rectangle_70" data-name="Rectangle 70" width="22.172" height="22.172" rx="2.087" transform="translate(194.009 254.175)" fill="#c8c8c8"/>
      <rect id="Rectangle_71" data-name="Rectangle 71" width="22.172" height="22.172" rx="2.087" transform="translate(160.75 254.175)" fill="#c8c8c8"/>
      <rect id="Rectangle_72" data-name="Rectangle 72" width="22.172" height="22.172" rx="2.087" transform="translate(127.492 254.175)" fill="#c8c8c8"/>
      <rect id="Rectangle_73" data-name="Rectangle 73" width="22.172" height="22.172" rx="2.087" transform="translate(94.233 254.175)" fill="#c8c8c8"/>
      <rect id="Rectangle_74" data-name="Rectangle 74" width="22.172" height="22.172" rx="2.087" transform="translate(60.974 254.175)" fill="#c8c8c8"/>
      <rect id="Rectangle_75" data-name="Rectangle 75" width="22.172" height="22.172" rx="2.087" transform="translate(27.716 254.175)" fill="#c8c8c8"/>
      <g id="Group_62" data-name="Group 62">
        <g transform="matrix(1, 0, 0, 1, -913.88, -251.75)" filter="url(#Path_159)">
          <path id="Path_159-2" data-name="Path 159" d="M363.432,129.07H152.794a33.356,33.356,0,0,0-33.259,33.259v47.7H396.691v-47.7A33.356,33.356,0,0,0,363.432,129.07ZM174.966,169.6a16.63,16.63,0,1,1,16.63-16.63A16.63,16.63,0,0,1,174.966,169.6Zm166.293,0a16.63,16.63,0,1,1,16.63-16.63A16.63,16.63,0,0,1,341.26,169.6Z" transform="translate(794.34 142.93)"/>
        </g>
        <g id="Group_58" data-name="Group 58" transform="translate(33.259 21.988)">
          <path id="Path_160" data-name="Path 160" d="M329.577,130.7a22.173,22.173,0,1,0,22.172,22.172A22.173,22.173,0,0,0,329.577,130.7Zm0,38.8a16.63,16.63,0,1,1,16.63-16.63A16.63,16.63,0,0,1,329.577,169.5Z" transform="translate(-141.112 -130.701)" opacity="0.05" style="mix-blend-mode: overlay;isolation: isolate"/>
          <path id="Path_161" data-name="Path 161" d="M173.019,130.7a22.173,22.173,0,1,0,22.172,22.172A22.173,22.173,0,0,0,173.019,130.7Zm0,38.8a16.63,16.63,0,1,1,16.63-16.63A16.63,16.63,0,0,1,173.019,169.5Z" transform="translate(-150.847 -130.701)" opacity="0.05" style="mix-blend-mode: overlay;isolation: isolate"/>
        </g>
        <g id="Group_61" data-name="Group 61" transform="translate(43.56)">
          <g id="Group_59" data-name="Group 59">
            <path id="Path_162" data-name="Path 162" d="M172.416,110a11.906,11.906,0,0,0-11.871,11.871V154.16a11.871,11.871,0,1,0,23.742,0V121.871A11.906,11.906,0,0,0,172.416,110Z" transform="translate(-160.545 -110)" fill="#d2d2d2"/>
            <path id="Path_163" data-name="Path 163" d="M328.974,110A11.906,11.906,0,0,0,317.1,121.871V154.16a11.871,11.871,0,1,0,23.742,0V121.871A11.906,11.906,0,0,0,328.974,110Z" transform="translate(-150.81 -110)" fill="#d2d2d2"/>
          </g>
          <g id="Group_60" data-name="Group 60" transform="translate(4.027 7.414)">
            <path id="Path_164" data-name="Path 164" d="M167.477,116.98a3.151,3.151,0,0,0-3.141,3.142v34.921a3.141,3.141,0,0,0,6.282,0V120.122A3.151,3.151,0,0,0,167.477,116.98Z" transform="translate(-164.336 -116.98)" fill="#f0f0f0"/>
            <path id="Path_165" data-name="Path 165" d="M324.035,116.98a3.15,3.15,0,0,0-3.141,3.142v34.921a3.141,3.141,0,1,0,6.282,0V120.122A3.151,3.151,0,0,0,324.035,116.98Z" transform="translate(-154.6 -116.98)" fill="#f0f0f0"/>
          </g>
        </g>
      </g>
      <rect id="Rectangle_76" data-name="Rectangle 76" width="277.156" height="11.086" transform="translate(0 90.124)" opacity="0.05" style="mix-blend-mode: overlay;isolation: isolate"/>
    </g>
    <rect id="Rectangle_44" data-name="Rectangle 44" width="1280" height="74" transform="translate(0 726)"/>
    <g id="Group_52" data-name="Group 52" transform="translate(508 746)">
      <g id="nav__logo__e_1_">
        <path id="Path_137" data-name="Path 137" d="M23.4,35.564h9.954a1.93,1.93,0,0,0,1.935-1.843V26.9A36.608,36.608,0,0,1,23.4,35.564Z" transform="translate(-1.833 -2.107)" fill="#fff"/>
        <path id="Path_138" data-name="Path 138" d="M19.731,10.977C19.639,9.226,18.348,8.12,15.583,8.4,10.146,8.765,6,14.94,4.8,21.3,16.6,20.378,19.823,13.189,19.731,10.977Z" transform="translate(-0.376 -0.654)" fill="#fff"/>
        <path id="Path_139" data-name="Path 139" d="M18.341,3.963c5.622-.369,8.2,1.843,8.387,4.608.461,6.083-9.493,13.272-22.581,14.378H3.963a10.209,10.209,0,0,0,.369,5.069c.922,2.4,3.318,3.318,6.083,3.318,12.166,0,21.106-13.456,23.041-19.539V1.843A1.871,1.871,0,0,0,31.521,0H1.843A1.849,1.849,0,0,0,0,1.843V15.484C4.793,9.4,12.166,4.424,18.341,3.963Z" fill="#fff"/>
      </g>
      <g id="nav__logo__edgepoint_1_" transform="translate(51.982 7.097)">
        <path id="Path_140" data-name="Path 140" d="M62.3,23.683a4.855,4.855,0,0,0,3.779-1.659l1.106.922a6.365,6.365,0,0,1-4.885,2.3,5.892,5.892,0,0,1-5.9-6.175c0-3.41,2.4-6.175,5.714-6.175,3.5,0,5.53,2.857,5.53,6.267v.553H58.151A4.081,4.081,0,0,0,62.3,23.683Zm3.41-5.346c-.184-2.12-1.475-4.055-3.779-4.055-2.028,0-3.594,1.751-3.871,4.055Z" transform="translate(-56.4 -8.107)" fill="#fff"/>
        <path id="Path_141" data-name="Path 141" d="M81.33,24.566v-2.4a5.23,5.23,0,0,1-4.516,2.673A5.856,5.856,0,0,1,71.1,18.668a5.856,5.856,0,0,1,5.714-6.175,5.228,5.228,0,0,1,4.516,2.581V7.7h1.751V24.566Zm-4.24-10.6c-2.3,0-4.147,1.751-4.147,4.608s1.935,4.608,4.147,4.608a4.452,4.452,0,0,0,4.332-4.608A4.452,4.452,0,0,0,77.091,13.967Z" transform="translate(-57.552 -7.7)" fill="#fff"/>
        <path id="Path_142" data-name="Path 142" d="M93.7,28.66A9.258,9.258,0,0,1,88.261,27l.829-1.382A8.066,8.066,0,0,0,93.7,27.094c2.581,0,4.332-1.475,4.332-4.24V21.471a5.681,5.681,0,0,1-4.7,2.581,5.427,5.427,0,0,1-5.53-5.53A5.5,5.5,0,0,1,93.33,12.9a5.773,5.773,0,0,1,4.7,2.4v-2.12h1.751v9.77C99.689,26.725,97.293,28.66,93.7,28.66Zm-.092-14.286a3.892,3.892,0,0,0-4.147,4.055,4,4,0,0,0,4.147,4.055A4.176,4.176,0,0,0,98.03,18.43,4.23,4.23,0,0,0,93.606,14.375Z" transform="translate(-58.86 -8.107)" fill="#fff"/>
        <path id="Path_143" data-name="Path 143" d="M110.2,23.683a4.855,4.855,0,0,0,3.779-1.659l1.106.922a6.365,6.365,0,0,1-4.885,2.3,5.892,5.892,0,0,1-5.9-6.175c0-3.41,2.4-6.175,5.714-6.175,3.5,0,5.53,2.857,5.53,6.267v.553h-9.4A3.948,3.948,0,0,0,110.2,23.683Zm3.41-5.346c-.184-2.12-1.475-4.055-3.779-4.055-2.028,0-3.594,1.751-3.871,4.055Z" transform="translate(-60.153 -8.107)" fill="#fff"/>
        <path id="Path_144" data-name="Path 144" d="M126.067,25.235a5.228,5.228,0,0,1-4.516-2.581v5.991H119.8V13.069h1.751v2.3a5.23,5.23,0,0,1,4.516-2.673,5.856,5.856,0,0,1,5.714,6.175C131.782,22.838,128.924,25.235,126.067,25.235ZM125.7,14.359a4.452,4.452,0,0,0-4.332,4.608,4.34,4.34,0,0,0,4.332,4.608c2.3,0,4.147-1.751,4.147-4.608A4.153,4.153,0,0,0,125.7,14.359Z" transform="translate(-61.367 -8.092)" fill="#fff"/>
        <path id="Path_145" data-name="Path 145" d="M141.675,25.242a6.116,6.116,0,0,1-6.175-6.175,6.194,6.194,0,0,1,6.175-6.267,6.116,6.116,0,0,1,6.175,6.175A6.194,6.194,0,0,1,141.675,25.242Zm0-10.876a4.339,4.339,0,0,0-4.332,4.608,4.491,4.491,0,0,0,4.424,4.7,4.412,4.412,0,0,0,4.424-4.608,4.625,4.625,0,0,0-4.516-4.7Z" transform="translate(-62.597 -8.1)" fill="#fff"/>
        <path id="Path_146" data-name="Path 146" d="M152.4,10.135V8.2h2.028v1.935Zm.184,14.47V12.716h1.751V24.605Z" transform="translate(-63.921 -7.739)" fill="#fff"/>
        <path id="Path_147" data-name="Path 147" d="M160.751,24.966H159V13.076h1.751V15.1a4.43,4.43,0,0,1,4.055-2.3c2.857,0,4.516,1.935,4.516,4.7v7.373h-1.751V17.961c0-2.212-1.2-3.594-3.318-3.594a3.51,3.51,0,0,0-3.594,3.687l.092,6.912Z" transform="translate(-64.438 -8.1)" fill="#fff"/>
        <path id="Path_148" data-name="Path 148" d="M176.618,21.274a1.8,1.8,0,0,0,2.028,2.028,3.994,3.994,0,0,0,1.751-.369v1.475a4,4,0,0,1-2.12.461c-1.935,0-3.318-.922-3.318-3.318V14.361H173.3V12.7h1.659V9.2h1.751v3.5h3.779v1.567H176.71v7Z" transform="translate(-65.558 -7.818)" fill="#fff"/>
      </g>
      <g id="nav__logo__learning_1_" transform="translate(176.958 7.097)">
        <path id="Path_149" data-name="Path 149" d="M192,24.566V7.7h1.751V24.566Z" transform="translate(-192 -7.7)" fill="#fff"/>
        <path id="Path_150" data-name="Path 150" d="M203.7,23.683a4.855,4.855,0,0,0,3.779-1.659l1.106.922a6.365,6.365,0,0,1-4.885,2.3,5.892,5.892,0,0,1-5.9-6.175c0-3.41,2.4-6.175,5.714-6.175,3.5,0,5.53,2.857,5.53,6.267v.553h-9.4a3.948,3.948,0,0,0,4.055,3.963Zm3.41-5.346c-.184-2.12-1.475-4.055-3.779-4.055-2.028,0-3.594,1.751-3.871,4.055Z" transform="translate(-192.454 -8.107)" fill="#fff"/>
        <path id="Path_151" data-name="Path 151" d="M213.759,15.4l-.553-1.475A9.105,9.105,0,0,1,217.538,13c3.226,0,5.069,1.659,5.069,4.793v7.281h-1.751V23.323a5.161,5.161,0,0,1-4.332,2.028c-2.212,0-4.424-1.2-4.424-3.687,0-2.581,2.028-3.871,5.069-3.871a13.114,13.114,0,0,1,3.594.461v-.369c0-2.12-1.29-3.226-3.594-3.226a5.9,5.9,0,0,0-3.41.737Zm.276,5.991c0,1.475,1.382,2.4,3.041,2.4,2.212,0,3.963-1.29,3.963-3.226v-1.2a11.937,11.937,0,0,0-3.5-.461c-2.212,0-3.5,1.014-3.5,2.488Z" transform="translate(-193.575 -8.115)" fill="#fff"/>
        <path id="Path_152" data-name="Path 152" d="M229.451,24.965H227.7V13.076h1.751v3.041a5.068,5.068,0,0,1,4.885-3.318v1.843h-.092c-2.581,0-4.7,1.843-4.7,5.438v4.885Z" transform="translate(-194.797 -8.099)" fill="#fff"/>
        <path id="Path_153" data-name="Path 153" d="M239.551,24.966H237.8V13.076h1.751V15.1a4.43,4.43,0,0,1,4.055-2.3c2.857,0,4.516,1.935,4.516,4.7v7.373h-1.751V17.961c0-2.212-1.2-3.594-3.318-3.594a3.51,3.51,0,0,0-3.594,3.687v6.912Z" transform="translate(-195.588 -8.1)" fill="#fff"/>
        <path id="Path_154" data-name="Path 154" d="M253.1,10.135V8.2h2.028v1.935Zm.184,14.47V12.716h1.751V24.605Z" transform="translate(-196.787 -7.739)" fill="#fff"/>
        <path id="Path_155" data-name="Path 155" d="M261.451,24.966H259.7V13.076h1.751V15.1a4.43,4.43,0,0,1,4.055-2.3c2.857,0,4.516,1.935,4.516,4.7v7.373h-1.751V17.961c0-2.212-1.2-3.594-3.318-3.594a3.51,3.51,0,0,0-3.594,3.687l.092,6.912Z" transform="translate(-197.304 -8.1)" fill="#fff"/>
        <path id="Path_156" data-name="Path 156" d="M280.3,28.66A9.258,9.258,0,0,1,274.861,27l.83-1.382a8.066,8.066,0,0,0,4.608,1.475c2.581,0,4.332-1.475,4.332-4.24V21.471a5.681,5.681,0,0,1-4.7,2.581,5.427,5.427,0,0,1-5.53-5.53,5.5,5.5,0,0,1,5.53-5.622,5.641,5.641,0,0,1,4.7,2.4v-2.12h1.751v9.77c-.092,3.779-2.488,5.714-6.083,5.714Zm-.092-14.286a3.892,3.892,0,0,0-4.147,4.055,4,4,0,0,0,4.147,4.055,4.176,4.176,0,0,0,4.424-4.055A4.23,4.23,0,0,0,280.206,14.375Z" transform="translate(-198.455 -8.107)" fill="#fff"/>
      </g>
    </g>
    <g transform="matrix(1, 0, 0, 1, 0, 0)" filter="url(#Information_retention_after_2_weeks)">
      <text id="Information_retention_after_2_weeks-2" data-name="Information retention after 2 weeks" transform="translate(50 111)" font-size="70" font-family="ProximaNova-Semibold, Proxima Nova" font-weight="600"><tspan x="39.94" y="64">Information retention after 2 weeks</tspan></text>
    </g>
    <g transform="matrix(1, 0, 0, 1, 0, 0)" filter="url(#_68_of_those_who_practiced_29_of_those_who_read_material)">
      <text id="_68_of_those_who_practiced_29_of_those_who_read_material-2" data-name="• 68% of those who practiced
• 29% of those who read material" transform="translate(93 345)" font-size="50" font-family="ProximaNova-Semibold, Proxima Nova" font-weight="600"><tspan x="0" y="46">• 68% of those who practiced</tspan><tspan x="0" y="119">• 29% of those who read material</tspan></text>
    </g>
  </g>
</svg>
