<svg id="Layer_1" data-name="Layer 1" xmlns="http://www.w3.org/2000/svg" viewBox="0 0 960 528"><defs><style>.cls-1{fill:#eee;stroke:#ddd;stroke-miterlimit:10;stroke-width:2px;}.cls-13,.cls-2,.cls-3,.cls-9{fill:#333;}.cls-3{font-size:36px;font-family:Montserrat-Light, Montserrat;}.cls-4{letter-spacing:-0.02em;}.cls-5{letter-spacing:-0.01em;}.cls-6{letter-spacing:-0.01em;}.cls-7{letter-spacing:0em;}.cls-8{letter-spacing:-0.03em;}.cls-9{font-size:21px;font-family:Montserrat-Regular, Montserrat;}.cls-10{letter-spacing:-0.02em;}.cls-11{letter-spacing:0em;}.cls-12{letter-spacing:-0.02em;}.cls-13{font-size:26px;font-family:Montserrat-Bold, Montserrat;font-weight:700;}.cls-14{letter-spacing:-0.01em;}.cls-15{letter-spacing:-0.01em;}.cls-16{letter-spacing:-0.01em;}.cls-17{letter-spacing:-0.02em;}.cls-18{letter-spacing:-0.02em;}.cls-19{letter-spacing:-0.02em;}.cls-20{fill:#9e9fa3;}.cls-21{fill:#12519e;}.cls-22{fill:#12529e;}</style></defs><title>Artboard 1</title><rect class="cls-1" x="15" y="66" width="930" height="390" rx="12" ry="12"/><polygon class="cls-2" points="117.66 405.88 112.34 405.88 112.34 404.64 116.41 404.64 116.41 351.46 39.41 351.46 39.41 404.64 88.11 404.64 88.11 405.88 38.17 405.88 38.17 350.21 117.66 350.21 117.66 405.88"/><rect class="cls-2" x="45.94" y="393.27" width="32.01" height="1.24"/><rect class="cls-2" x="45.94" y="379.63" width="42.56" height="1.24"/><rect class="cls-2" x="45.94" y="386.45" width="42.56" height="1.24"/><rect class="cls-2" x="45.94" y="372.39" width="42.56" height="1.24"/><path class="cls-2" d="M117.66,351.46H38.17V341h79.48Zm-78.24-1.24h77v-8h-77Z"/><rect class="cls-2" x="42.37" y="345.54" width="2.97" height="1.24"/><rect class="cls-2" x="47.51" y="345.54" width="2.97" height="1.24"/><rect class="cls-2" x="52.65" y="345.54" width="2.97" height="1.24"/><path class="cls-2" d="M72.78,365.53H46.91v-7.19H72.78Zm-24.62-1.24H71.53v-4.7H48.15Z"/><polygon class="cls-2" points="105.61 371.26 105.61 369.5 100.31 360.44 95.01 369.5 95.01 371.26 93.77 371.26 93.77 369.16 100.31 357.98 106.86 369.16 106.86 371.25 105.61 371.26"/><polygon class="cls-2" points="95.01 404.95 93.77 404.95 93.77 369.92 106.86 369.91 106.86 404.95 105.62 404.95 105.61 371.15 95.01 371.16 95.01 404.95"/><path class="cls-2" d="M104.93,421H95.69a1.77,1.77,0,0,1-1.92-1.61v-2.84H95v2.84c0,.15.27.37.68.37h9.25c.41,0,.69-.22.69-.37v-2.84h1.24v2.84A1.77,1.77,0,0,1,104.93,421Z"/><path class="cls-2" d="M93.77,412.72v-8.07h13.09v8.07ZM95,405.88v5.59h10.61v-5.59Z"/><path class="cls-2" d="M52.7,181a12.84,12.84,0,1,1,12.7-12.84A12.78,12.78,0,0,1,52.7,181Zm0-24.43a11.59,11.59,0,1,0,11.45,11.59A11.53,11.53,0,0,0,52.7,156.57Z"/><path class="cls-2" d="M52.7,171.79a5.14,5.14,0,1,1,5.08-5.14A5.12,5.12,0,0,1,52.7,171.79Zm0-9a3.89,3.89,0,1,0,3.83,3.89A3.86,3.86,0,0,0,52.7,162.77Z"/><path class="cls-2" d="M61.12,176.55H59.87v-.37A3.86,3.86,0,0,0,56,172.29H49.35a3.87,3.87,0,0,0-3.83,3.89v.37H44.27v-.37A5.12,5.12,0,0,1,49.35,171H56a5.12,5.12,0,0,1,5.08,5.14Z"/><path class="cls-2" d="M86.87,163.3A30.22,30.22,0,0,1,68,156.73l-7.35,2,2-7.43a30.71,30.71,0,1,1,24.28,12Zm-18.62-7.95.25.2a29,29,0,0,0,18.37,6.5,29.77,29.77,0,1,0-23.11-11.29L64,151l-1.57,5.94Z"/><path class="cls-2" d="M87,155h-.09a22.48,22.48,0,0,1-2.54-.14l.14-1.24a21.4,21.4,0,0,0,2.4.14H87Zm2.54-.15-.15-1.24a21.17,21.17,0,0,0,2.37-.42l.29,1.22A22.5,22.5,0,0,1,89.5,154.83Zm-7.68-.42a22.54,22.54,0,0,1-2.44-.72l.42-1.18a21.16,21.16,0,0,0,2.31.68Zm12.63-.75L94,152.49a21.26,21.26,0,0,0,2.21-.94l.56,1.12A22.48,22.48,0,0,1,94.45,153.66ZM77,152.7a22.44,22.44,0,0,1-2.22-1.25l.68-1.05a21.21,21.21,0,0,0,2.09,1.18Zm22-1.3-.68-1a21.65,21.65,0,0,0,1.94-1.42l.79,1A22.91,22.91,0,0,1,99,151.4ZM72.76,150a22.9,22.9,0,0,1-1.88-1.71l.89-.88A21.82,21.82,0,0,0,73.54,149Zm30.17-1.77-.89-.87a21.59,21.59,0,0,0,1.58-1.81l1,.77A23.1,23.1,0,0,1,102.93,148.19Zm-33.73-1.85a23.1,23.1,0,0,1-1.46-2.08l1.06-.66a22,22,0,0,0,1.38,2ZM106,144.18l-1.06-.65a21.75,21.75,0,0,0,1.14-2.12l1.13.53A22.89,22.89,0,0,1,106,144.18ZM66.52,142a22.93,22.93,0,0,1-1-2.35l1.18-.41a21.76,21.76,0,0,0,.91,2.23Zm41.69-2.44-1.18-.4a21.73,21.73,0,0,0,.65-2.32l1.22.27A23,23,0,0,1,108.21,139.58Zm-43.35-2.36a23,23,0,0,1-.42-2.51l1.24-.14a21.91,21.91,0,0,0,.4,2.37Zm44.45-2.6-1.24-.13a22.09,22.09,0,0,0,.12-2.34v-.07h1.25v.07A23.29,23.29,0,0,1,109.31,134.62Zm-45-2.45v0a23.13,23.13,0,0,1,.14-2.49l1.24.13a22.16,22.16,0,0,0-.13,2.38Zm43.75-2.49a21.67,21.67,0,0,0-.4-2.37l1.22-.28a23.12,23.12,0,0,1,.42,2.51Zm-42-2.29-1.22-.27a22.87,22.87,0,0,1,.69-2.45l1.18.41A21.66,21.66,0,0,0,66.07,127.4ZM107,125a21.64,21.64,0,0,0-.91-2.22l1.13-.54a22.88,22.88,0,0,1,1,2.35Zm-39.36-2.15-1.13-.53a23.32,23.32,0,0,1,1.21-2.24l1.06.66A22,22,0,0,0,67.63,122.86Zm37.29-2.18a21.93,21.93,0,0,0-1.38-2l1-.77A23.25,23.25,0,0,1,106,120Zm-34.77-1.9-1-.77a23.19,23.19,0,0,1,1.68-1.91l.89.87A21.87,21.87,0,0,0,70.15,118.77Zm31.79-1.87a21.57,21.57,0,0,0-1.78-1.61l.79-1a22.68,22.68,0,0,1,1.88,1.71Zm-28.43-1.56-.79-1a22.65,22.65,0,0,1,2.06-1.5l.68,1.05A21.44,21.44,0,0,0,73.51,115.34Zm24.7-1.46a21.24,21.24,0,0,0-2.1-1.18l.55-1.12a22.52,22.52,0,0,1,2.22,1.25Zm-20.66-1.14L77,111.62a22.3,22.3,0,0,1,2.34-1l.42,1.18A21,21,0,0,0,77.55,112.74Zm16.35-1a21.05,21.05,0,0,0-2.31-.67l.28-1.22a22.2,22.2,0,0,1,2.45.71Zm-11.84-.65-.29-1.22a22.19,22.19,0,0,1,2.51-.44l.14,1.24A21,21,0,0,0,82.06,111.12Zm7.16-.42a21.26,21.26,0,0,0-2.36-.13l0-1.25h0a22.51,22.51,0,0,1,2.5.14Z"/><path class="cls-2" d="M87.83,132.3l-.8-1,2.43-2c1.06-.68,1.59-1.39,1.59-2.1v-2.29a2.72,2.72,0,0,0-2.7-2.74H85.69a2.72,2.72,0,0,0-2.7,2.74V126H81.74v-1.07a4,4,0,0,1,3.95-4h2.67a4,4,0,0,1,3.95,4v2.29c0,1.16-.72,2.21-2.14,3.13Z"/><path class="cls-2" d="M85.95,136.91H84.7v-2.29c0-1.16.72-2.21,2.14-3.13l2.34-1.94.8,1-2.43,2c-1.06.68-1.59,1.39-1.59,2.1Z"/><rect class="cls-2" x="84.7" y="139.46" width="1.25" height="3.26"/><g id="Pie_Chart"><path class="cls-2" d="M115.52,268.66l-35.76-9.21a.78.78,0,0,1-.59-.75V221.78a.8.8,0,0,1,.23-.55A.78.78,0,0,1,80,221a37.73,37.73,0,0,1,36.52,47.11.76.76,0,0,1-.36.47.73.73,0,0,1-.39.11A.68.68,0,0,1,115.52,268.66ZM80.73,258.1,115.15,267a36.15,36.15,0,0,0-34.42-44.4Z"/><path class="cls-2" d="M76.12,221a.77.77,0,0,1,.55.22.78.78,0,0,1,.23.55V258.7a.78.78,0,0,1-.42.69.82.82,0,0,1-.35.09.76.76,0,0,1-.46-.15L45.74,237.71a.77.77,0,0,1-.17-1.08A37.64,37.64,0,0,1,76.12,221Zm-.78,36.18V222.56a36.08,36.08,0,0,0-28.06,14.35Z"/><path class="cls-2" d="M115.76,271.3a.77.77,0,0,1,.56.94,37.78,37.78,0,0,1-20.25,24.61.8.8,0,0,1-.6,0,.79.79,0,0,1-.44-.4L79.1,263.17a.77.77,0,0,1,.1-.83.77.77,0,0,1,.79-.26ZM96.09,295.11a36.22,36.22,0,0,0,18.52-22.5L81.22,264Z"/><path class="cls-2" d="M38,263.3a37.53,37.53,0,0,1,7.14-22.07.77.77,0,0,1,1.08-.17l29.93,21.61a.75.75,0,0,1,.25.29l15.93,33.32a.78.78,0,0,1-.36,1,37.72,37.72,0,0,1-54-34Zm1.55,0a36.17,36.17,0,0,0,51,32.95L75,263.81l-29.13-21A36,36,0,0,0,39.51,263.3Z"/><path class="cls-2" d="M83.55,253.83a.77.77,0,0,1,0-1.1l18.38-18.38a.78.78,0,0,1,1.1,1.1L84.64,253.83a.78.78,0,0,1-1.1,0Z"/><path class="cls-2" d="M83.54,242.79a.78.78,0,0,1,0-1.1l12-12a.78.78,0,1,1,1.1,1.1l-12,12a.79.79,0,0,1-1.1,0Z"/><path class="cls-2" d="M83.54,242.79a.78.78,0,0,1,0-1.1l12-12a.78.78,0,1,1,1.1,1.1l-12,12a.79.79,0,0,1-1.1,0Z"/><path class="cls-2" d="M83.55,231.74a.77.77,0,0,1,0-1.1l4.2-4.2a.78.78,0,0,1,1.1,1.1l-4.2,4.19a.77.77,0,0,1-1.1,0Z"/><path class="cls-2" d="M90.57,257.85a.78.78,0,0,1,0-1.1l16.37-16.37a.78.78,0,1,1,1.1,1.1L91.67,257.85a.78.78,0,0,1-.55.23A.79.79,0,0,1,90.57,257.85Z"/><path class="cls-2" d="M108.13,262.37a.77.77,0,0,1,0-1.1l4-4a.78.78,0,0,1,1.1,1.1l-4,4a.78.78,0,0,1-1.1,0Z"/><path class="cls-2" d="M99.35,260.11a.78.78,0,0,1,0-1.1l11.17-11.17a.78.78,0,1,1,1.1,1.1l-11.17,11.18a.77.77,0,0,1-.54.23A.77.77,0,0,1,99.35,260.11Z"/></g><text class="cls-3" transform="translate(38.17 45.06)">H<tspan class="cls-4" x="28.62" y="0">o</tspan><tspan x="50.18" y="0">w </tspan><tspan class="cls-5" x="90.9" y="0">t</tspan><tspan x="104.47" y="0">o crea</tspan><tspan class="cls-6" x="211.79" y="0">t</tspan><tspan class="cls-7" x="225.36" y="0">e an eLearning </tspan><tspan class="cls-8" x="494.56" y="0">c</tspan><tspan x="513.82" y="0">ourse</tspan></text><text class="cls-9" transform="translate(147.66 144.64) scale(0.94 1)">Establish the w<tspan class="cls-10" x="157.56" y="0">h</tspan><tspan x="171.13" y="0">y </tspan><tspan class="cls-11" x="187.42" y="0">o</tspan><tspan x="200.38" y="0">f </tspan><tspan class="cls-12" x="213.06" y="0">y</tspan><tspan x="223.48" y="0">our </tspan><tspan x="0" y="25.2">project</tspan></text><text class="cls-13" transform="translate(147.66 239.97)">STEP #2</text><text class="cls-9" transform="translate(147.66 265.55) scale(0.94 1)">Gather <tspan class="cls-12" x="76.14" y="0">y</tspan><tspan x="86.56" y="0">our current ma</tspan><tspan class="cls-14" x="242.38" y="0">t</tspan><tspan x="250.57" y="0">erials</tspan></text><text class="cls-13" transform="translate(147.66 358.97)">STEP #3</text><text class="cls-9" transform="translate(147.66 384.55) scale(0.94 1)">Distill <tspan class="cls-12" x="63.42" y="0">y</tspan><tspan x="73.83" y="0">our </tspan><tspan class="cls-14" x="114.03" y="0">t</tspan><tspan x="122.22" y="0">opic in</tspan><tspan class="cls-14" x="192.15" y="0">t</tspan><tspan x="200.33" y="0">o an </tspan><tspan x="0" y="25.2">eLearning script</tspan></text><path class="cls-2" d="M543.23,263.39h-1.35V228.66a6.28,6.28,0,0,0-6.23-6.31H501v41h-1.35V221h36a7.63,7.63,0,0,1,7.58,7.66Z"/><path class="cls-2" d="M586,288.74h-7v-1.35h5.64v-65H550a6.28,6.28,0,0,0-6.23,6.31v34.73h-1.35V228.66A7.63,7.63,0,0,1,550,221h36Z"/><rect class="cls-2" x="507.37" y="230.21" width="16.43" height="1.35"/><rect class="cls-2" x="507.37" y="241.01" width="27.67" height="1.35"/><rect class="cls-2" x="507.37" y="248.94" width="27.67" height="1.35"/><rect class="cls-2" x="507.37" y="256.87" width="19.76" height="1.35"/><path class="cls-2" d="M572.06,301H501.44a1.86,1.86,0,0,1-1.85-1.86V269.72a1.86,1.86,0,0,1,1.85-1.86h70.62a1.86,1.86,0,0,1,1.85,1.86v29.41A1.86,1.86,0,0,1,572.06,301Zm-70.62-31.79a.51.51,0,0,0-.5.51v29.41a.51.51,0,0,0,.5.51h70.62a.51.51,0,0,0,.5-.51V269.72a.51.51,0,0,0-.5-.51Z"/><rect class="cls-2" x="506.2" y="275.97" width="5.54" height="1.35"/><rect class="cls-2" x="515.46" y="275.97" width="5.54" height="1.35"/><rect class="cls-2" x="524.72" y="275.97" width="5.53" height="1.35"/><rect class="cls-2" x="533.98" y="275.97" width="5.53" height="1.35"/><rect class="cls-2" x="543.24" y="275.97" width="5.53" height="1.35"/><rect class="cls-2" x="552.5" y="275.97" width="5.53" height="1.35"/><rect class="cls-2" x="561.76" y="275.97" width="5.53" height="1.35"/><rect class="cls-2" x="506.2" y="283.75" width="5.54" height="1.35"/><rect class="cls-2" x="515.46" y="283.75" width="5.54" height="1.35"/><rect class="cls-2" x="524.72" y="283.75" width="5.53" height="1.35"/><rect class="cls-2" x="533.98" y="283.75" width="5.53" height="1.35"/><rect class="cls-2" x="543.24" y="283.75" width="5.53" height="1.35"/><rect class="cls-2" x="552.5" y="283.75" width="5.53" height="1.35"/><rect class="cls-2" x="561.76" y="283.75" width="5.53" height="1.35"/><rect class="cls-2" x="506.2" y="291.54" width="5.54" height="1.35"/><rect class="cls-2" x="515.46" y="291.54" width="5.54" height="1.35"/><rect class="cls-2" x="524.72" y="291.54" width="33.4" height="1.35"/><rect class="cls-2" x="561.76" y="291.54" width="5.53" height="1.35"/><rect class="cls-2" x="563.13" y="229.46" width="1.35" height="5.54"/><rect class="cls-2" x="555.61" y="234.26" width="1.35" height="5.49" transform="translate(71.16 597.93) rotate(-59.73)"/><rect class="cls-2" x="553.86" y="245.31" width="5.49" height="1.35" transform="translate(-48.1 314.14) rotate(-30.27)"/><rect class="cls-2" x="571.31" y="242.67" width="1.35" height="5.49" transform="matrix(0.5, -0.86, 0.86, 0.5, 71.66, 615.65)"/><rect class="cls-2" x="568.91" y="235.76" width="5.49" height="1.35" transform="translate(-41.17 320.94) rotate(-30.32)"/><path class="cls-2" d="M570.94,257.5l-13.62-.13,6.92-11.88ZM559.65,256l9,.08-4.42-7.91Z"/><rect class="cls-2" x="560.74" y="259.35" width="6.73" height="1.35" transform="matrix(0.01, -1, 1, 0.01, 299.13, 821.83)"/><path class="cls-2" d="M573.65,382.13h-1.24V344.29a2.07,2.07,0,0,0-2.08-2.05H525a2.07,2.07,0,0,0-2.08,2.05v30h-1.24v-30A3.31,3.31,0,0,1,525,341h45.37a3.31,3.31,0,0,1,3.32,3.29Z"/><rect class="cls-2" x="540.58" y="410.18" width="11.69" height="1.24"/><rect class="cls-2" x="532.39" y="404.36" width="15.84" height="1.24"/><rect class="cls-2" x="526.94" y="348.87" width="41.41" height="1.24"/><path class="cls-2" d="M582.54,421H581.3v-4.42l.25-.19a7.79,7.79,0,0,0,3.21-6.31V395.31l-.16-3.23A2.57,2.57,0,0,0,582,389.5c-1.71,0-2.58.59-2.58,1.75H578.2v-.79a2.58,2.58,0,0,0-5.15,0h-1.24v-1.58a2.58,2.58,0,0,0-5.15,0v1.77h-1.24c0-4.29,0-18.23,0-18.23a2.69,2.69,0,0,0-5.38,0l0,32-1.24,0-.07-1.56v-6.57a4.24,4.24,0,0,0-4.27-4.21h-1v5.38l.07.5-.07,0v7.34l9,10.65a16.9,16.9,0,0,0,3.61,1.74l.47.11V421h-1.24v-2.2a21,21,0,0,1-3.59-1.8l-.14-.12-9.41-11.07V392h0l0-1.17h2.23a5.52,5.52,0,0,1,4.34,2.1V372.43a3.93,3.93,0,0,1,7.86,0s0,7.93,0,13.67a3.83,3.83,0,0,1,6.25,1.72,3.83,3.83,0,0,1,6.28,1.25,4.48,4.48,0,0,1,2.85-.81,3.81,3.81,0,0,1,3.82,3.79l.16,3.23v14.8a9,9,0,0,1-3.46,7.12Z"/><path class="cls-2" d="M527.17,410.84l-1.15-.47a17.56,17.56,0,0,0,1.29-6.67c0-5.07-2.1-9.75-5.47-12.21l-.37-.27,2-5.86,1.65.05a4.76,4.76,0,0,0,3.42-1.34,4.7,4.7,0,0,0,1.46-3.34l0-1.4-9.86-.15-4.63,10.37v20.8h-1.24V389.28l5.08-11.36,11.85.18,0,.58a2.71,2.71,0,0,1,0,.28l0,1.78a5.93,5.93,0,0,1-1.84,4.21,6.06,6.06,0,0,1-4.3,1.68l-.74,0-1.39,4.14c3.47,2.75,5.61,7.66,5.61,12.94A18.82,18.82,0,0,1,527.17,410.84Z"/><polygon class="cls-2" points="536.83 421 535.59 421 535.59 411.51 511.52 411.51 511.52 421 510.28 421 510.28 410.27 536.83 410.27 536.83 421"/><path class="cls-2" d="M544.57,366.26H530.22v-11h14.35ZM531.46,365h11.87v-8.49H531.46Z"/><rect class="cls-2" x="529" y="371.51" width="24.92" height="1.24"/><rect class="cls-2" x="534.73" y="377.99" width="19.18" height="1.24"/><rect class="cls-2" x="534.73" y="384.48" width="19.18" height="1.24"/><rect class="cls-2" x="529" y="390.96" width="18.57" height="1.24"/><path class="cls-2" d="M563.32,363.89h-1.24v-2.48h1.24Zm0-5h-1.24v-2.48h1.24Zm0-5h-1.24v-.21h1.24Z"/><text class="cls-13" transform="translate(616 119.06)">STEP #4</text><text class="cls-9" transform="translate(616 144.64) scale(0.94 1)">D<tspan class="cls-11" x="16.44" y="0">e</tspan><tspan x="28.71" y="0">fine the visual look-and-</tspan><tspan class="cls-15" x="276.9" y="0">f</tspan><tspan x="283.87" y="0">eel</tspan><tspan class="cls-11" x="0" y="25.2">o</tspan><tspan x="12.96" y="25.2">f </tspan><tspan class="cls-12" x="25.64" y="25.2">y</tspan><tspan x="36.06" y="25.2">our project</tspan></text><text class="cls-13" transform="translate(616 239.97)">STEP #5</text><text class="cls-9" transform="translate(616 265.55) scale(0.94 1)">D<tspan class="cls-12" x="16.44" y="0">ev</tspan><tspan x="38.74" y="0">elop ma</tspan><tspan class="cls-16" x="123.98" y="0">t</tspan><tspan x="132.17" y="0">erials </tspan><tspan class="cls-15" x="191.64" y="0">f</tspan><tspan x="198.61" y="0">or </tspan><tspan class="cls-17" x="225.18" y="0">y</tspan><tspan x="235.59" y="0">our </tspan><tspan class="cls-18" x="0" y="25.2">c</tspan><tspan x="11.32" y="25.2">ourse</tspan></text><text class="cls-13" transform="translate(616 358.97)">STEP #6</text><text class="cls-9" transform="translate(616 384.55) scale(0.94 1)">Assemble in<tspan class="cls-14" x="126.5" y="0">t</tspan><tspan x="134.69" y="0">o one </tspan><tspan class="cls-19" x="197.96" y="0">c</tspan><tspan x="209.28" y="0">ohesi</tspan><tspan class="cls-17" x="264.05" y="0">v</tspan><tspan x="274.38" y="0">e </tspan><tspan class="cls-18" x="0" y="25.2">c</tspan><tspan x="11.32" y="25.2">ourse</tspan></text><g id="EdgePoint-Logo"><g id="epl-wordmark"><path id="learning" class="cls-20" d="M850.3,498h-1.64V482.41h1.64Zm4.79-4.9a3.86,3.86,0,0,0,3.88,3.73,4.55,4.55,0,0,0,3.47-1.55l1,.92a5.68,5.68,0,0,1-4.54,2.07,5.48,5.48,0,0,1-5.49-5.75c0-3.2,2.24-5.75,5.28-5.75,3.26,0,5.13,2.6,5.13,5.84a4.59,4.59,0,0,1,0,.51h-8.73Zm0-1.21h7.09c-.17-2-1.32-3.75-3.51-3.75-1.92,0-3.37,1.6-3.58,3.75Zm15.61-3.6a7.68,7.68,0,0,0-3.34.81l-.49-1.34a9.1,9.1,0,0,1,4-.92c3,0,4.69,1.53,4.69,4.43V498H874V496.3a4.82,4.82,0,0,1-4,1.9c-2,0-4.11-1.15-4.11-3.45s1.91-3.58,4.7-3.58a11.78,11.78,0,0,1,3.39.47v-.38c0-2-1.22-3-3.28-3Zm.06,4.13c-2.07,0-3.22.9-3.22,2.3s1.28,2.22,2.77,2.22c2,0,3.69-1.24,3.69-3v-1.07a11.49,11.49,0,0,0-3.24-.47Zm9.93,1.19V498h-1.64V487h1.64v2.88a4.72,4.72,0,0,1,4.49-3.07v1.77h-.13c-2.41,0-4.37,1.72-4.37,5Zm8.63-1.92V498h-1.64v-11h1.64v1.92a4.17,4.17,0,0,1,3.77-2.15c2.66,0,4.21,1.79,4.21,4.41V498h-1.64v-6.43c0-2-1.11-3.32-3.05-3.32a3.24,3.24,0,0,0-3.31,3.45Zm13.4-7.12h-1.87v-1.81h1.87Zm5.32,7.11V498H906.4v-11H908v1.92a4.17,4.17,0,0,1,3.77-2.15c2.66,0,4.22,1.79,4.22,4.41V498h-1.64v-6.43c0-2-1.1-3.32-3-3.32a3.24,3.24,0,0,0-3.3,3.45ZM930,496c0,3.55-2.21,5.36-5.6,5.36a8.6,8.6,0,0,1-5-1.54l.74-1.28a7,7,0,0,0,4.23,1.4c2.42,0,4-1.34,4-3.92v-1.29A5.23,5.23,0,0,1,924,497.1a5.2,5.2,0,0,1,0-10.4,5.17,5.17,0,0,1,4.3,2.21v-2H930V496Zm-5.62-.39a3.76,3.76,0,1,0,0-7.51,3.63,3.63,0,0,0-3.81,3.73,3.72,3.72,0,0,0,3.81,3.77ZM902.59,498h-1.64v-11h1.64v11Z"/><path id="edgepoint" class="cls-21" d="M734.17,493.42h8.75a4.73,4.73,0,0,0,0-.52c0-3.29-1.88-5.92-5.14-5.92-3.05,0-5.29,2.59-5.29,5.84a5.53,5.53,0,0,0,5.51,5.84,5.67,5.67,0,0,0,4.55-2.09l-1-.93a4.54,4.54,0,0,1-3.48,1.58,3.89,3.89,0,0,1-3.88-3.78Zm0-1.23c.21-2.18,1.66-3.8,3.58-3.8,2.2,0,3.35,1.78,3.52,3.81h-7.11Zm22.15,6.2V482.62h-1.64v6.74a5,5,0,0,0-4.23-2.38c-2.65,0-5.27,2.16-5.27,5.84s2.63,5.82,5.27,5.82a5,5,0,0,0,4.23-2.49v2.25h1.64Zm-1.58-5.6a4.14,4.14,0,0,1-4,4.34c-2.09,0-3.88-1.69-3.88-4.34s1.75-4.32,3.88-4.32A4.14,4.14,0,0,1,754.74,492.8Zm15.75,3.65v-9.23h-1.65v2a5.24,5.24,0,1,0-4.31,8.3,5.23,5.23,0,0,0,4.33-2.35v1.32a3.65,3.65,0,0,1-4,4,7,7,0,0,1-4.25-1.43l-.75,1.29a8.56,8.56,0,0,0,5,1.56c3.39,0,5.61-1.83,5.61-5.45Zm-1.58-4.19a3.9,3.9,0,0,1-4.06,3.8,3.75,3.75,0,0,1-3.82-3.83,3.66,3.66,0,0,1,3.81-3.79,3.89,3.89,0,0,1,4.06,3.8Zm6.23,1.17h8.74a4.73,4.73,0,0,0,0-.52c0-3.29-1.88-5.92-5.14-5.92-3.06,0-5.3,2.59-5.3,5.84a5.52,5.52,0,0,0,5.5,5.84,5.67,5.67,0,0,0,4.54-2.09l-1-.93a4.54,4.54,0,0,1-3.48,1.58,3.88,3.88,0,0,1-3.88-3.78Zm0-1.23c.21-2.18,1.66-3.8,3.58-3.8,2.2,0,3.35,1.78,3.52,3.81h-7.1Zm22.79.61c0-3.7-2.62-5.81-5.27-5.81a5,5,0,0,0-4.23,2.49v-2.24h-1.65v14.63h1.64v-5.6a5,5,0,0,0,4.22,2.38c2.66,0,5.27-2.16,5.27-5.83Zm-1.69,0c0,2.72-1.75,4.32-3.88,4.32a4.35,4.35,0,0,1,0-8.67c2.09,0,3.88,1.69,3.88,4.34Zm15.53,0a5.75,5.75,0,1,0-5.79,5.86,5.72,5.72,0,0,0,5.79-5.86Zm-1.69,0a4.1,4.1,0,0,1-4.06,4.32A4.17,4.17,0,0,1,802,492.8a4.08,4.08,0,0,1,4-4.34,4.2,4.2,0,0,1,4.1,4.39Zm6.58-8.06v-1.84h-1.88v1.84h1.88Zm-.13,13.62V487.22h-1.65V498.4h1.65ZM822,492a3.27,3.27,0,0,1,3.31-3.5c1.94,0,3.05,1.3,3.05,3.37v6.53H830v-6.94c0-2.66-1.56-4.48-4.22-4.48a4.18,4.18,0,0,0-3.78,2.18v-1.94h-1.65V498.4H822V492Zm13.72-3.31h3.51v-1.47h-3.5v-3.37h-1.65v3.37h-1.54v1.47h1.54v6.75a2.83,2.83,0,0,0,3.11,3.16,4.1,4.1,0,0,0,2-.48V496.7a3.42,3.42,0,0,1-1.6.39,1.64,1.64,0,0,1-1.86-1.86V488.7Z"/><g id="epl-logomark"><path id="_e_" data-name="&quot;e&quot;" class="cls-22" d="M705,508a37.48,37.48,0,0,0,11.53-8.41v6.59a1.82,1.82,0,0,1-1.84,1.81Zm-2.22-22.28c.16,2.08-3,9-14.46,9.87,1.15-6.12,5.19-12,10.47-12.4C701.41,483,702.61,484,702.75,485.72Zm-1-6.15c-6,.47-13.12,5.18-17.82,11.11V477.55a1.82,1.82,0,0,1,1.83-1.82h28.9a1.83,1.83,0,0,1,1.84,1.82V487c-1.87,5.89-10.6,18.79-22.36,18.8-2.67,0-5-.88-6-3.2a9.35,9.35,0,0,1-.32-4.86H688c12.76-1,22.38-8,21.92-13.77-.21-2.69-2.64-4.87-8.13-4.44Z"/></g></g><g id="epl-wordmark-2" data-name="epl-wordmark"><path id="learning-2" data-name="learning" class="cls-2" d="M850.3,498h-1.64V482.41h1.64Zm4.79-4.9a3.86,3.86,0,0,0,3.88,3.73,4.55,4.55,0,0,0,3.47-1.55l1,.92a5.68,5.68,0,0,1-4.54,2.07,5.48,5.48,0,0,1-5.49-5.75c0-3.2,2.24-5.75,5.28-5.75,3.26,0,5.13,2.6,5.13,5.84a4.59,4.59,0,0,1,0,.51h-8.73Zm0-1.21h7.09c-.17-2-1.32-3.75-3.51-3.75-1.92,0-3.37,1.6-3.58,3.75Zm15.61-3.6a7.68,7.68,0,0,0-3.34.81l-.49-1.34a9.1,9.1,0,0,1,4-.92c3,0,4.69,1.53,4.69,4.43V498H874V496.3a4.82,4.82,0,0,1-4,1.9c-2,0-4.11-1.15-4.11-3.45s1.91-3.58,4.7-3.58a11.78,11.78,0,0,1,3.39.47v-.38c0-2-1.22-3-3.28-3Zm.06,4.13c-2.07,0-3.22.9-3.22,2.3s1.28,2.22,2.77,2.22c2,0,3.69-1.24,3.69-3v-1.07a11.49,11.49,0,0,0-3.24-.47Zm9.93,1.19V498h-1.64V487h1.64v2.88a4.72,4.72,0,0,1,4.49-3.07v1.77h-.13c-2.41,0-4.37,1.72-4.37,5Zm8.63-1.92V498h-1.64v-11h1.64v1.92a4.17,4.17,0,0,1,3.77-2.15c2.66,0,4.21,1.79,4.21,4.41V498h-1.64v-6.43c0-2-1.11-3.32-3.05-3.32a3.24,3.24,0,0,0-3.31,3.45Zm13.4-7.12h-1.87v-1.81h1.87Zm5.32,7.11V498H906.4v-11H908v1.92a4.17,4.17,0,0,1,3.77-2.15c2.66,0,4.22,1.79,4.22,4.41V498h-1.64v-6.43c0-2-1.1-3.32-3-3.32a3.24,3.24,0,0,0-3.3,3.45ZM930,496c0,3.55-2.21,5.36-5.6,5.36a8.6,8.6,0,0,1-5-1.54l.74-1.28a7,7,0,0,0,4.23,1.4c2.42,0,4-1.34,4-3.92v-1.29A5.23,5.23,0,0,1,924,497.1a5.2,5.2,0,0,1,0-10.4,5.17,5.17,0,0,1,4.3,2.21v-2H930V496Zm-5.62-.39a3.76,3.76,0,1,0,0-7.51,3.63,3.63,0,0,0-3.81,3.73,3.72,3.72,0,0,0,3.81,3.77ZM902.59,498h-1.64v-11h1.64v11Z"/><path id="edgepoint-2" data-name="edgepoint" class="cls-2" d="M734.17,493.42h8.75a4.73,4.73,0,0,0,0-.52c0-3.29-1.88-5.92-5.14-5.92-3.05,0-5.29,2.59-5.29,5.84a5.53,5.53,0,0,0,5.51,5.84,5.67,5.67,0,0,0,4.55-2.09l-1-.93a4.54,4.54,0,0,1-3.48,1.58,3.89,3.89,0,0,1-3.88-3.78Zm0-1.23c.21-2.18,1.66-3.8,3.58-3.8,2.2,0,3.35,1.78,3.52,3.81h-7.11Zm22.15,6.2V482.62h-1.64v6.74a5,5,0,0,0-4.23-2.38c-2.65,0-5.27,2.16-5.27,5.84s2.63,5.82,5.27,5.82a5,5,0,0,0,4.23-2.49v2.25h1.64Zm-1.58-5.6a4.14,4.14,0,0,1-4,4.34c-2.09,0-3.88-1.69-3.88-4.34s1.75-4.32,3.88-4.32A4.14,4.14,0,0,1,754.74,492.8Zm15.75,3.65v-9.23h-1.65v2a5.24,5.24,0,1,0-4.31,8.3,5.23,5.23,0,0,0,4.33-2.35v1.32a3.65,3.65,0,0,1-4,4,7,7,0,0,1-4.25-1.43l-.75,1.29a8.56,8.56,0,0,0,5,1.56c3.39,0,5.61-1.83,5.61-5.45Zm-1.58-4.19a3.9,3.9,0,0,1-4.06,3.8,3.75,3.75,0,0,1-3.82-3.83,3.66,3.66,0,0,1,3.81-3.79,3.89,3.89,0,0,1,4.06,3.8Zm6.23,1.17h8.74a4.73,4.73,0,0,0,0-.52c0-3.29-1.88-5.92-5.14-5.92-3.06,0-5.3,2.59-5.3,5.84a5.52,5.52,0,0,0,5.5,5.84,5.67,5.67,0,0,0,4.54-2.09l-1-.93a4.54,4.54,0,0,1-3.48,1.58,3.88,3.88,0,0,1-3.88-3.78Zm0-1.23c.21-2.18,1.66-3.8,3.58-3.8,2.2,0,3.35,1.78,3.52,3.81h-7.1Zm22.79.61c0-3.7-2.62-5.81-5.27-5.81a5,5,0,0,0-4.23,2.49v-2.24h-1.65v14.63h1.64v-5.6a5,5,0,0,0,4.22,2.38c2.66,0,5.27-2.16,5.27-5.83Zm-1.69,0c0,2.72-1.75,4.32-3.88,4.32a4.35,4.35,0,0,1,0-8.67c2.09,0,3.88,1.69,3.88,4.34Zm15.53,0a5.75,5.75,0,1,0-5.79,5.86,5.72,5.72,0,0,0,5.79-5.86Zm-1.69,0a4.1,4.1,0,0,1-4.06,4.32A4.17,4.17,0,0,1,802,492.8a4.08,4.08,0,0,1,4-4.34,4.2,4.2,0,0,1,4.1,4.39Zm6.58-8.06v-1.84h-1.88v1.84h1.88Zm-.13,13.62V487.22h-1.65V498.4h1.65ZM822,492a3.27,3.27,0,0,1,3.31-3.5c1.94,0,3.05,1.3,3.05,3.37v6.53H830v-6.94c0-2.66-1.56-4.48-4.22-4.48a4.18,4.18,0,0,0-3.78,2.18v-1.94h-1.65V498.4H822V492Zm13.72-3.31h3.51v-1.47h-3.5v-3.37h-1.65v3.37h-1.54v1.47h1.54v6.75a2.83,2.83,0,0,0,3.11,3.16,4.1,4.1,0,0,0,2-.48V496.7a3.42,3.42,0,0,1-1.6.39,1.64,1.64,0,0,1-1.86-1.86V488.7Z"/><g id="epl-logomark-2" data-name="epl-logomark"><path id="_e_2" data-name="&quot;e&quot;" class="cls-2" d="M705,508a37.48,37.48,0,0,0,11.53-8.41v6.59a1.82,1.82,0,0,1-1.84,1.81Zm-2.22-22.28c.16,2.08-3,9-14.46,9.87,1.15-6.12,5.19-12,10.47-12.4C701.41,483,702.61,484,702.75,485.72Zm-1-6.15c-6,.47-13.12,5.18-17.82,11.11V477.55a1.82,1.82,0,0,1,1.83-1.82h28.9a1.83,1.83,0,0,1,1.84,1.82V487c-1.87,5.89-10.6,18.79-22.36,18.8-2.67,0-5-.88-6-3.2a9.35,9.35,0,0,1-.32-4.86H688c12.76-1,22.38-8,21.92-13.77-.21-2.69-2.64-4.87-8.13-4.44Z"/></g></g></g><text class="cls-13" transform="translate(147.65 119.06)">STEP #1</text><path class="cls-2" d="M535.42,130.74a21.33,21.33,0,1,1,21.33,21.53A21.46,21.46,0,0,1,535.42,130.74Zm1.24,0a20.09,20.09,0,1,0,20.09-20.29A20.22,20.22,0,0,0,536.66,130.74Z"/><path class="cls-2" d="M556.7,160.15a29,29,0,0,1-20.76-8.72,29.74,29.74,0,0,1,.05-41.77A29,29,0,0,1,556.7,101h0a28.93,28.93,0,0,1,20.73,8.71,29.73,29.73,0,0,1,0,41.77,28.94,28.94,0,0,1-20.69,8.67Zm0-57.91a27.74,27.74,0,0,0-19.82,8.3h0a28.5,28.5,0,0,0-.05,40,27.75,27.75,0,0,0,19.87,8.35h0a27.71,27.71,0,0,0,19.81-8.3,28.5,28.5,0,0,0,0-40,27.69,27.69,0,0,0-19.85-8.34Z"/><path class="cls-2" d="M508.31,168.79l18.55-18.73L537.4,160.7l-18.55,18.73Zm18.55-17-16.8,17,8.8,8.88,16.81-17Z"/><rect class="cls-2" x="524.93" y="156.04" width="1.24" height="7.37" transform="translate(39.66 415.89) rotate(-44.7)"/><path class="cls-2" d="M517.27,181l2.5-2.52-.88-.87-2.13,2.15A9.08,9.08,0,0,1,508,170.9l2.13-2.15-.88-.87-2.32,2.34-.18.18v.25A10.32,10.32,0,0,0,517,181Z"/><rect class="cls-2" x="531.47" y="152.71" width="5.75" height="1.24" transform="translate(49.41 425.13) rotate(-45.28)"/><rect class="cls-2" x="541.42" y="137.35" width="30.56" height="0.89"/><rect class="cls-2" x="541.42" y="132.35" width="30.56" height="0.89"/><rect class="cls-2" x="546.7" y="142.36" width="20" height="0.88"/><path class="cls-2" d="M560.69,127.22H542.12v-5.16h18.57ZM543,126.33H559.8V123H543Z"/></svg>