<svg xmlns="http://www.w3.org/2000/svg" xmlns:xlink="http://www.w3.org/1999/xlink" viewBox="0 0 1082 317">
  <defs/>
  <defs>
    <path id="a" d="M0 0h170.901v387.717H0z"/>
    <path id="d" d="M0 0h314v272H0z"/>
    <path id="f" d="M0 0h277v170H0z"/>
    <linearGradient id="c" x1="50%" x2="50%" y1="23.821%" y2="90.693%">
      <stop offset="0%" stop-color="#BFBFBF"/>
      <stop offset="100%" stop-color="#F5F5F5"/>
    </linearGradient>
  </defs>
  <g fill="none" fill-rule="evenodd">
    <g transform="translate(8 6)">
      <mask id="b" fill="#fff">
        <use xlink:href="#a"/>
      </mask>
      <g fill-rule="nonzero" mask="url(#b)">
        <path fill="#FFB400" d="M2.008 139.347C9.41 150.9 22.46 157.303 37.643 157.052c15.183-.251 29.864-7.66 36.138-18.333a7.606 7.606 0 012.51-2.385 93.32 93.32 0 012.886-13.06 64.677 64.677 0 01-18.948 2.763 77.585 77.585 0 01-36.263-9.04A48.608 48.608 0 014.768 99.165a163.595 163.595 0 00-4.643 33.15c0 1.757-.125 3.515-.125 5.273.83.373 1.528.985 2.008 1.758z"/>
        <path fill="#FFB400" d="M29.613 106.574c17.692 9.669 42.035 10.297 54.206 1.382a5.71 5.71 0 012.384-1.005c.879-1.507 1.757-3.013 2.635-4.27a72.823 72.823 0 0113.552-15.57l-.376-.376c-32.123 8.036-71.397-29.257-57.72-58.263l-.502-.502a155.632 155.632 0 00-25.096 34.656 172.24 172.24 0 00-7.152 15.445c.257.812.384 1.66.376 2.511-.752 13.687 10.792 22.225 17.693 25.992zm27.605 94.552c12.924-6.53 21.206-18.333 21.457-30.01a79.66 79.66 0 01-3.012-16.324C66.127 163.33 52.45 168.73 37.77 168.98h-1.255A52.84 52.84 0 011.13 156.299a153.206 153.206 0 0011.168 41.562 42.215 42.215 0 0044.92 3.265z"/>
        <path fill="#FFB400" d="M53.203 248.213c12.171 3.893 24.091 1.13 32.498-7.91 9.788-10.297 12.548-26.244 7.027-40.684a6.735 6.735 0 01-.25-3.516 54.772 54.772 0 01-6.024-8.162 53.538 53.538 0 01-23.715 23.732 55.109 55.109 0 01-25.598 6.279 50.32 50.32 0 01-15.559-2.386 129.908 129.908 0 0013.05 17.83 127.064 127.064 0 0014.932 14.692 7.11 7.11 0 013.639.125z"/>
        <path fill="#FFB400" d="M88.587 273.954a6.577 6.577 0 012.259.252c11.293 3.892 25.723-.377 35.134-10.171 5.019-5.4 12.548-16.826 6.023-33.15a5.69 5.69 0 01-.377-2.009c-2.635-2.637-5.27-5.023-8.03-7.408-4.141-3.642-8.533-7.032-12.924-10.297-1.13-.879-2.385-1.632-3.514-2.511a49.569 49.569 0 01-12.673 39.93 41.774 41.774 0 01-25.849 13.059l1.506.879c1.757 1.004 3.388 1.758 5.02 2.762 1.63 1.005 3.01 1.758 4.391 2.637a113.542 113.542 0 015.02 3.265 76.55 76.55 0 014.014 2.762zm46.051-1.758a49.966 49.966 0 01-31.62 15.194c.752.879 1.505 1.883 2.258 2.762a63.63 63.63 0 014.517 6.781c.547.148 1.06.404 1.506.753 9.913 6.907 28.86 6.655 41.282-.502 5.27-3.013 11.419-8.538 10.666-17.58a6.76 6.76 0 01.502-2.762l-.502-1.38a123.756 123.756 0 00-16.061-29.007l-.628-.753a43.004 43.004 0 01-11.92 26.494zm23.715 35.159a57.412 57.412 0 01-28.107 7.157c-4.83.009-9.64-.625-14.304-1.883 0 .125.125.377.125.502a42.75 42.75 0 01.878 4.27 71.58 71.58 0 01.377 17.955c3.764 8.79 14.806 14.19 24.719 15.696 8.909 1.381 19.951-.125 25.848-7.408.251-1.382.502-2.637.879-4.018.502-2.637.878-5.4 1.255-8.037.376-3.139.627-6.278.752-9.543.126-2.762.126-5.4.126-8.162a110.723 110.723 0 00-1.506-15.695 37.174 37.174 0 01-11.042 9.166z"/>
        <path fill="#10294C" d="M102.014 86.735l.376.377a73.475 73.475 0 0111.92-8.539c1.004-.628 2.134-1.256 3.012-1.883 19.323-13.436 19.323-36.666 5.897-56.003C109.793 1.35 88.336-6.812 69.013 6.624l-1.13.753a151.293 151.293 0 00-24.09 20.593l.502.502c-13.677 29.006 25.723 66.3 57.72 58.263zm50.442 210.324c-12.423 7.157-31.37 7.408-41.283.502l-1.505-.754c1.004 1.758 1.882 3.516 2.76 5.274a60.3 60.3 0 013.64 10.422 55.25 55.25 0 0014.304 1.884 56.752 56.752 0 0028.107-7.158 34.305 34.305 0 0010.916-9.417 111.507 111.507 0 00-5.27-19.965l-.502-1.256a5.41 5.41 0 00-.502 2.763c.753 9.292-5.395 14.691-10.665 17.705zm-26.476-33.024c-9.286 9.92-23.715 14.063-35.134 10.17a4.667 4.667 0 00-2.259-.25 92.248 92.248 0 0111.67 10.421c1.004 1.005 1.882 2.01 2.76 3.014a49.06 49.06 0 0031.62-15.194 41.566 41.566 0 0011.796-26.62 143.724 143.724 0 00-14.807-16.7 5.21 5.21 0 00.377 2.01c6.525 16.448-1.004 27.875-6.023 33.149zM94.36 248.59a49.569 49.569 0 0012.673-39.93l-3.012-2.135-1.882-1.381-1.882-1.507a62.9 62.9 0 01-7.78-7.534 5.654 5.654 0 00.251 3.516c5.521 14.315 2.76 30.262-7.027 40.684-8.407 8.915-20.327 11.803-32.498 7.91a6 6 0 00-3.64 0c4.016 3.39 8.282 6.53 12.674 9.543l3.89 2.386 2.384 1.381a42.263 42.263 0 0025.848-12.933zm-31.621-36.791a52.918 52.918 0 0023.715-23.732 62.716 62.716 0 01-6.65-13.687 30.315 30.315 0 01-1.004-3.139c-.25 11.678-8.658 23.481-21.457 30.01a42.205 42.205 0 01-44.795-3.139 76.413 76.413 0 002.133 4.646 160.329 160.329 0 007.027 12.934 54.36 54.36 0 0015.559 2.385 59.113 59.113 0 0025.472-6.278zM37.894 168.98a59.313 59.313 0 0037.895-14.188 80.057 80.057 0 01.376-17.328c0-.377.126-.628.126-1.005a6.527 6.527 0 00-2.51 2.386c-6.274 10.673-20.83 18.082-36.138 18.333-15.308.25-28.232-6.153-35.635-17.705a5.032 5.032 0 00-1.883-1.758c.001 6.295.379 12.585 1.13 18.835a53.6 53.6 0 0035.385 12.556l1.254-.125zm-13.928-51.984a77.59 77.59 0 0036.263 9.042 64.693 64.693 0 0018.948-2.763 85.417 85.417 0 017.026-16.324 5.71 5.71 0 00-2.384 1.005c-12.171 8.915-36.514 8.287-54.206-1.382-6.901-3.767-18.445-12.18-17.693-26.117a8.706 8.706 0 00-.376-2.512A158.67 158.67 0 004.768 99.04a49.779 49.779 0 0019.198 17.956z"/>
      </g>
    </g>
    <path fill="url(#c)" d="M238.396 362.851L724.793 95.583 1087 362.85z" transform="translate(8 -32)"/>
    <g transform="rotate(15.324 429.917 2305.311)">
      <mask id="e" fill="#fff">
        <use xlink:href="#d"/>
      </mask>
      <g fill-rule="nonzero" mask="url(#e)">
        <path fill="#04294F" d="M0 199.88S97.848 133.267 130.423 0A1724.859 1724.859 0 00314 60.127S275.017 205.632 169.652 272c0-.04-118.633-42.546-169.652-72.12z"/>
        <path fill="#FFF" d="M174.622 48.501a2508.306 2508.306 0 01-32.369-11.91 3.22 3.22 0 00-2.448.148 3.185 3.185 0 00-1.623 1.826l-.037.106a293.3 293.3 0 01-2.957 9.341 3.257 3.257 0 001.89 4.08c8.872 3.344 19.84 7.423 32.122 11.829a3.293 3.293 0 004.108-1.917c1.232-3.345 2.382-6.486 3.368-9.423a3.222 3.222 0 00-2.054-4.08zm17.582 9.627a454.25 454.25 0 01-3.286 9.26 3.16 3.16 0 00.109 2.436 3.196 3.196 0 001.813 1.643c25.386 8.77 54.018 17.99 81.17 25.373 1.7.54 3.524-.365 4.108-2.04 1.232-3.304 2.341-6.486 3.368-9.423a3.117 3.117 0 00-.138-2.4 3.152 3.152 0 00-1.809-1.597c-.09-.033-.18-.057-.27-.082-26.948-7.26-55.497-16.317-80.801-25.21a3.225 3.225 0 00-2.453.02 3.193 3.193 0 00-1.72 1.735c-.03.081-.05.187-.091.285zm28.138 48.176c-35.327-11.014-69.504-23.374-92.014-31.859a3.212 3.212 0 00-4.108 1.713c-1.274 2.897-2.63 5.915-4.108 8.934a3.158 3.158 0 00-.181 2.428 3.184 3.184 0 001.602 1.843c.099.05.2.095.304.134 22.47 8.444 56.688 20.845 92.261 32.022a3.253 3.253 0 003.903-1.713c1.479-3.1 2.916-6.16 4.108-9.138a3.217 3.217 0 00-1.57-4.283l-.197-.081zm-65.683 19.906a1737.257 1737.257 0 01-44.324-16.52 3.173 3.173 0 00-3.902 1.386 395.492 395.492 0 01-5.217 8.485 3.128 3.128 0 00.867 4.356c.203.138.423.25.653.335 11.995 4.691 27.235 10.443 44.159 16.52a3.261 3.261 0 003.82-1.264c1.93-2.855 3.82-5.71 5.628-8.566.512-.83.62-1.846.293-2.765a3.242 3.242 0 00-1.977-1.967zm18.649 9.137c-1.725 2.815-3.574 5.67-5.422 8.526a3.119 3.119 0 00-.406 2.785 3.148 3.148 0 002.008 1.987c21.771 7.425 45.185 14.808 67.244 20.764a3.25 3.25 0 003.615-1.469 427.109 427.109 0 005.381-8.893c.43-.727.552-1.595.337-2.412a3.18 3.18 0 00-1.483-1.94 3.171 3.171 0 00-.821-.339c-21.895-5.751-44.98-13.012-66.71-20.396a3.128 3.128 0 00-3.743 1.387zm-4.683 38.997c-34.382-11.054-62.931-22.598-81.663-30.757a3.14 3.14 0 00-3.738.938 228.031 228.031 0 01-6.573 7.792 3.166 3.166 0 00-.772 2.8 3.187 3.187 0 001.84 2.258c18.445 8.158 47.2 19.866 82.156 31.287a3.301 3.301 0 003.533-.979c2.342-2.774 4.6-5.507 6.82-8.158a3.205 3.205 0 00.621-3.024 3.235 3.235 0 00-2.224-2.157zm15.075 21.742c9.202 2.693 18.732 5.344 28.755 7.873a3.3 3.3 0 003.369-1.142c2.341-2.855 4.56-5.71 6.736-8.607a3.204 3.204 0 00-.727-4.487 3.194 3.194 0 00-1.121-.518 733.992 733.992 0 01-28.426-7.71 3.175 3.175 0 00-3.45 1.142c-2.096 2.815-4.108 5.589-6.49 8.363a3.206 3.206 0 00-.657 2.899 3.23 3.23 0 002.012 2.2v-.013zM79.938 182.543c-7.846-3.548-14.83-6.853-20.54-9.708a3.304 3.304 0 00-3.49.49 186.847 186.847 0 01-8.216 6.853 3.176 3.176 0 00-1.273 2.862 3.187 3.187 0 001.807 2.563 1123.764 1123.764 0 0021.483 10.116c1.188.57 2.606.36 3.574-.53 2.67-2.448 5.3-4.936 7.846-7.465a3.21 3.21 0 00-.205-4.569 3.29 3.29 0 00-.986-.612zm82.772 33.409c-21.771-7.628-42.434-15.868-60.426-23.537a3.183 3.183 0 00-3.574.734c-2.423 2.489-4.888 5.018-7.435 7.465a3.164 3.164 0 00.904 5.222c17.951 7.75 38.695 16.316 60.713 23.985a3.349 3.349 0 003.41-.734c2.67-2.61 5.217-5.262 7.763-7.954.74-.796 1.02-1.91.747-2.958a3.191 3.191 0 00-2.102-2.223z"/>
      </g>
    </g>
    <g transform="translate(384 75)">
      <mask id="g" fill="#fff">
        <use xlink:href="#f"/>
      </mask>
      <g fill-rule="nonzero" mask="url(#g)">
        <path fill="#FFB400" d="M209.06 147.027c9.017-.627 18.034-2.924 26.421-6.474 0 0 6.081-2.924 9.856-5.43 1.468-1.253 2.936-2.506 4.194-3.968 3.564-4.386 6.29-9.19 8.387-14.202 0 0 2.097-9.815 2.307-20.049-1.887-14.201-10.904-27.776-23.485-40.098-5.033-5.012-10.485-9.816-16.356-13.993-3.355-2.506-6.5-4.803-9.646-6.892-35.228-9.607-55.777 16.917-61.649 25.897-13.63 20.885-15.726 45.737-6.08 61.818 2.516 1.88 5.242 3.76 7.968 6.057 12.58 10.233 28.098 16.081 44.244 17.334 0 0 8.388.627 13.84 0zM29.147 135.332c8.597 2.924 17.823 4.385 27.05 3.968 10.484-5.64 21.598-11.696 32.711-17.334-19.92-8.98-32.92-32.371-36.066-55.762-2.726-19.214.839-40.098 12.371-55.97C20.76 31.326 5.662 74.557 1.468 110.687c5.242 13.784 17.404 20.884 27.679 24.644z"/>
        <path fill="#FFB400" d="M67.52 64.115c3.355 24.018 18.453 47.826 40.89 46.99.838 0 1.677 0 2.516.418a26.121 26.121 0 0112.581 1.88c-3.565-18.587.839-40.516 13-59.52 10.276-15.873 27.05-29.866 48.44-33.834C154.75 4.386 128.54-.209 106.941.418c-.63.209-.839.209-1.468.417-33.34 7.936-41.309 39.054-37.954 63.28zm-43.196 85.209C15.307 146.4 6.92 141.388 0 134.914c-.21 11.695.63 23.39 2.516 35.086l.42-.209c2.306-1.253 14.259-8.354 30.824-17.752-3.145-.835-6.5-1.67-9.436-2.715z"/>
        <path fill="#FFF" d="M202.35 133.66a56.1 56.1 0 00-2.935-4.594c-1.887-2.923-3.775-6.265-5.871-9.189-.21-.418-.42-.626-.63-.835-7.339-8.145-26.42 5.43-12.371 15.245l3.145 2.089c1.258.835 2.516 1.88 3.775 2.924 1.258 1.044 2.516 2.088 3.564 3.341 1.049 1.045 2.517 2.298 3.355 3.342l.839.835c2.097 2.089 3.984 4.177 5.871 6.266 2.936 3.132 5.662 6.474 8.388 10.024l4.194 5.639c.21.209.629.418 1.048.418.63-.21.839-.627.839-1.253l-.63-2.507c-1.257-6.056-3.144-11.904-5.451-17.543l-.42-1.253a156.408 156.408 0 00-3.984-8.562c-.838-1.462-1.887-2.924-2.726-4.386zm37.116-9.397a56.1 56.1 0 00-2.936-4.595c-1.887-2.924-3.775-6.265-5.871-9.189-.21-.418-.42-.626-.63-.835-7.339-8.145-26.42 5.43-12.371 15.245l3.145 2.089c1.258.835 2.516 1.88 3.775 2.924 1.258 1.044 2.516 2.088 3.564 3.341 1.049 1.044 2.517 2.298 3.355 3.342l3.775 3.759c1.048 1.044 2.097 2.088 2.935 3.342 2.517 2.714 5.033 5.638 7.34 8.771 1.677 2.297 3.564 4.595 5.242 6.892.21.209.629.418 1.048.418.63-.21.839-.627.839-1.253-.21-1.254-.42-2.298-.839-3.55-1.258-5.64-2.935-11.278-5.242-16.5-.42-1.253-1.048-2.506-1.678-3.759-.838-2.088-1.887-3.968-2.935-6.056-.63-1.462-1.468-2.924-2.516-4.386zm14.888-36.339c-7.34-8.145-26.421 5.43-12.372 15.246l3.145 2.088c1.258.835 2.516 1.88 3.775 2.924 1.258 1.044 2.516 2.088 3.564 3.341 1.049 1.253 2.517 2.298 3.355 3.342l2.097 2.088c1.678 1.671 3.146 3.342 4.613 5.013 3.146 3.341 5.872 6.891 8.598 10.442l3.984 5.221c.42.418 1.048.627 1.468.209.419-.209.419-.627.419-1.044-.21-1.462-.63-2.715-.839-4.177-1.258-5.43-2.935-10.86-5.032-16.081-1.258-3.342-2.936-6.475-4.404-9.607-.839-1.671-1.887-3.133-2.726-4.595a56.1 56.1 0 00-2.935-4.594c-.21-.418-.42-.627-.63-1.045-1.677-2.715-3.355-5.22-5.242-7.936-.21-.209-.42-.417-.838-.835z"/>
        <path fill="#10294C" d="M33.76 152.04c6.92-3.969 14.469-8.354 22.437-12.74-9.227.209-18.243-1.044-27.05-3.968-10.065-3.55-21.808-10.651-27.68-24.644C.63 118.833 0 126.769 0 134.914c6.92 6.474 15.307 11.486 24.324 14.41 3.145 1.045 6.29 2.089 9.436 2.715zm19.082-86.045c2.935 24.435 16.146 46.99 36.066 55.97 6.92-3.55 13.001-6.891 19.711-10.024.63-.209 1.678-.209 2.307-.418-.63-.417-1.678-.835-2.516-.835-22.437.835-37.535-22.973-40.89-46.99C64.165 39.68 72.133 8.98 105.474.835c.42-.208 1.048-.208 1.468-.417C98.135.835 89.537 1.67 80.94 3.759c-3.145.836-6.08 2.089-9.016 3.342-2.097 1.044-4.614 2.088-6.71 3.132-11.743 16.29-15.098 36.548-12.372 55.762zm83.666-12.322c-12.372 19.005-16.566 41.143-13 59.73 6.919 2.506 13.629 5.848 19.5 10.233-9.016-16.08-7.548-40.933 6.081-61.818 5.662-8.771 26.421-34.877 61.65-25.897-8.389-5.638-16.986-11.068-25.793-15.872-21.178 3.76-38.163 17.752-48.438 33.624z"/>
      </g>
    </g>
  </g>
</svg>