<svg xmlns="http://www.w3.org/2000/svg" viewBox="0 0 65 64">
  <g fill="#9E9EA3" fill-rule="evenodd">
    <path d="M48.5 43.5c0 1.379-1.121 2.5-2.5 2.5H17a2.502 2.502 0 0 1-2.5-2.5v-19c0-.699.29-1.331.754-1.785l.007-.01c.01-.011.025-.014.036-.025A2.486 2.486 0 0 1 17 22h29c.636 0 1.21.246 1.652.638.017.015.039.021.055.038.005.005.006.011.01.016.48.456.783 1.095.783 1.808v19zM31.5 6c-14.912 0-27 12.089-27 27s12.088 27 27 27 27-12.089 27-27-12.088-27-27-27z"/>
    <path d="M31.5 36.768a.498.498 0 0 0 .353-.146L44.9 24H18.045l13.088 12.609c.141.14.29.159.367.159"/>
    <path d="M33.256 38.047a2.47 2.47 0 0 1-1.752.72 2.495 2.495 0 0 1-1.771-.732L16.5 25.287V43.5a.5.5 0 0 0 .5.5h29a.5.5 0 0 0 .5-.5V25.235L33.256 38.047z"/>
  </g>
</svg>
