<svg xmlns="http://www.w3.org/2000/svg" viewBox="0 0 64 64">
  <g fill="#DC4E41" fill-rule="evenodd">
    <path d="M25.586 19.402c-2.57-.074-4.291 2.488-3.852 5.844.448 3.351 2.889 6.133 5.457 6.211 2.565.072 4.29-2.584 3.848-5.934-.445-3.355-2.887-6.045-5.453-6.12m1.264 18.562c-3.826-.041-7.254 2.316-7.254 5.152 0 2.893 2.764 5.3 6.588 5.3 5.379 0 7.254-2.261 7.254-5.153 0-.35-.041-.69-.121-1.022-.422-1.636-1.91-2.447-3.988-3.882a8.301 8.301 0 0 0-2.48-.395"/>
    <path d="M50 26h-6v6h-2v-6h-6v-2h6v-6h2v6h6v2zM26.203 50C20.668 50 16 47.76 16 44.184c0-3.637 4.258-7.141 9.797-7.141.601 0 1.152-.016 1.724-.016-.757-.736-1.355-1.632-1.355-2.738 0-.656.209-1.291.504-1.852-.299.02-.607.028-.92.028-4.549 0-7.594-3.219-7.594-7.201 0-3.897 4.203-7.264 8.674-7.264h9.967l-2.229 1.603h-3.162c2.096.799 3.215 3.233 3.215 5.725 0 2.094-1.168 3.895-2.818 5.176-1.606 1.246-1.912 1.771-1.912 2.834 0 .904 1.722 2.447 2.623 3.08 2.636 1.854 3.488 3.572 3.488 6.443 0 3.58-3.488 7.139-9.799 7.139zM31 6C16.112 6 4 18.112 4 33s12.112 27 27 27 27-12.112 27-27S45.888 6 31 6z"/>
  </g>
</svg>
