<svg xmlns="http://www.w3.org/2000/svg" viewBox="0 0 64 64">
  <path fill="#12529E" fill-rule="evenodd" d="M31 6c14.912 0 27 12.089 27 27S45.912 60 31 60C16.089 60 4 47.911 4 33S16.089 6 31 6zm-3.654 25.386c1.09-1.09 2.988-1.09 4.076 0l1.018 1.019a1.44 1.44 0 0 0 2.038 0 1.44 1.44 0 0 0 0-2.038L33.46 29.35a5.727 5.727 0 0 0-4.075-1.689 5.73 5.73 0 0 0-4.076 1.689l-6.623 6.622a5.77 5.77 0 0 0 0 8.151l1.018 1.016a5.725 5.725 0 0 0 4.076 1.689 5.72 5.72 0 0 0 4.073-1.689l3.13-3.126a1.442 1.442 0 0 0-2.036-2.038l-3.131 3.127c-1.088 1.089-2.984 1.092-4.075 0l-1.018-1.016a2.89 2.89 0 0 1 0-4.077l6.623-6.622zm9.17 5.095l6.62-6.622a5.724 5.724 0 0 0 1.69-4.075c0-1.538-.6-2.988-1.69-4.074l-1.018-1.019A5.715 5.715 0 0 0 38.044 19c-1.54 0-2.987.6-4.075 1.691l-2.86 2.859a1.44 1.44 0 1 0 2.037 2.037l2.86-2.858a2.859 2.859 0 0 1 2.038-.848 2.86 2.86 0 0 1 2.037.848l1.018 1.018c.545.543.843 1.267.843 2.037 0 .768-.3 1.492-.843 2.038l-6.623 6.621c-1.088 1.09-2.985 1.09-4.073 0a1.443 1.443 0 0 0-2.038-.003 1.447 1.447 0 0 0-.002 2.04 5.725 5.725 0 0 0 4.076 1.69 5.737 5.737 0 0 0 4.077-1.69z"/>
</svg>
