<svg xmlns="http://www.w3.org/2000/svg" viewBox="0 0 157.2 103.6">
  <path fill="#12529E" d="M7.8 81.8c2.1 0 3.6-.9 4.9-2.2l1.4 1.3c-1.6 1.7-3.5 2.9-6.4 2.9-4.3 0-7.7-3.3-7.7-8.1 0-4.5 3.1-8.1 7.4-8.1 4.6 0 7.2 3.7 7.2 8.2v.7H2.3c.4 3.5 2.8 5.3 5.5 5.3zm4.5-6.9c-.2-2.8-1.9-5.3-4.9-5.3-2.7 0-4.7 2.2-5 5.3h9.9zm20.2 8.6v-3.1c-1.3 1.9-3.1 3.5-5.9 3.5-3.7 0-7.4-2.9-7.4-8.1 0-5.1 3.7-8.1 7.4-8.1 2.9 0 4.7 1.6 5.9 3.3v-9.4h2.3v21.9h-2.3zM27 69.7c-3 0-5.5 2.2-5.5 6 0 3.7 2.5 6 5.5 6 2.9 0 5.6-2.4 5.6-6s-2.7-6-5.6-6zm20.8 18.7c-2.6 0-5-.7-7-2.2l1-1.8c1.8 1.3 3.8 2 6 2 3.4 0 5.6-1.9 5.6-5.5V79c-1.4 1.8-3.2 3.3-6.1 3.3-3.7 0-7.3-2.8-7.3-7.3 0-4.6 3.6-7.4 7.3-7.4 2.9 0 4.8 1.4 6.1 3.1V68h2.3v12.8c-.1 5-3.2 7.6-7.9 7.6zm-.1-18.7c-2.9 0-5.4 2-5.4 5.2s2.5 5.3 5.4 5.3 5.7-2.1 5.7-5.3c0-3.1-2.7-5.2-5.7-5.2zm20.5 12.1c2.1 0 3.6-.9 4.9-2.2l1.4 1.3c-1.6 1.7-3.4 2.9-6.4 2.9-4.3 0-7.7-3.3-7.7-8.1 0-4.5 3.1-8.1 7.4-8.1 4.6 0 7.2 3.7 7.2 8.2v.7H62.8c.3 3.5 2.7 5.3 5.4 5.3zm4.6-6.9c-.2-2.8-1.9-5.3-4.9-5.3-2.7 0-4.7 2.2-5 5.3h9.9z"/>
  <path fill="#9E9EA3" d="M88.6 83.8c-2.9 0-4.7-1.6-5.9-3.3v7.8h-2.3V68h2.3v3.1c1.3-1.9 3.1-3.5 5.9-3.5 3.7 0 7.4 2.9 7.4 8.1 0 5.1-3.6 8.1-7.4 8.1zm-.4-14.1c-2.9 0-5.6 2.4-5.6 6s2.7 6 5.6 6c3 0 5.5-2.2 5.5-6 0-3.6-2.6-6-5.5-6zm19.9 14.2c-4.6 0-8-3.7-8-8.1s3.4-8.1 8.1-8.1c4.6 0 8.1 3.7 8.1 8.1-.1 4.3-3.5 8.1-8.2 8.1zm0-14.2c-3.4 0-5.7 2.7-5.7 6 0 3.4 2.5 6.1 5.7 6.1 3.4 0 5.7-2.7 5.7-6 .1-3.4-2.4-6.1-5.7-6.1zm13.1-5.1V62h2.6v2.5h-2.6zm.2 18.9V68h2.3v15.5h-2.3zm10.7 0h-2.3V68h2.3v2.7c1-1.7 2.6-3 5.3-3 3.8 0 5.9 2.5 5.9 6.2v9.6H141v-9.1c0-2.9-1.6-4.7-4.3-4.7s-4.7 2-4.7 4.9v8.9zm20.2-4.4c0 1.9 1 2.6 2.6 2.6.8 0 1.4-.1 2.2-.5v2c-.8.4-1.7.7-2.8.7-2.5 0-4.4-1.2-4.4-4.4V70h-2.2v-2h2.2v-4.7h2.3V68h4.9v2h-4.9v9.1z"/>
  <path fill="#9E9EA3" d="M27.8 94.7h1v7.9h5v.9h-6v-8.8zm19.2.9h-5.4v3h4.8v.9h-4.8v3.1H47v.9h-6.4v-8.8H47v.9zm15.3 7.9h-1.1l-1-2.3h-4.8l-1 2.3h-1l4-8.9h.9l4 8.9zm-4.5-7.7l-2 4.5h4l-2-4.5zm17.4 7.7l-2.6-3.4h-2.5v3.4h-1v-8.8h3.8c1.9 0 3.2 1 3.2 2.6 0 1.5-1 2.3-2.4 2.6l2.7 3.6h-1.2zm-2.4-7.9h-2.7v3.6h2.7c1.3 0 2.3-.7 2.3-1.8 0-1.2-.9-1.8-2.3-1.8zm16.9-.9h1v8.8h-.8l-5.7-7.2v7.2h-1v-8.8h.9l5.6 7.1v-7.1zm9.6 0v8.8h-1v-8.8h1zm14.1 0h1v8.8h-.8l-5.7-7.2v7.2h-1v-8.8h.9l5.6 7.1v-7.1zm12.6 8.9c-2.8 0-4.5-2-4.5-4.5 0-2.4 1.8-4.6 4.4-4.6 1.5 0 2.4.4 3.3 1.2l-.6.8c-.7-.6-1.4-1-2.7-1-2 0-3.4 1.7-3.4 3.6 0 2.1 1.3 3.7 3.5 3.7 1 0 1.9-.4 2.5-.9v-2.2h-2.7v-.9h3.6v3.5c-.6.7-1.9 1.3-3.4 1.3z"/>
  <g fill="#12529E">
    <path d="M86.2 48.8h14.5c1.5 0 2.8-1.2 2.8-2.7v-10c-3.4 3.8-9.2 8.9-17.3 12.7zm-3.3-33.7c-.2-2.6-2-4.1-6-3.8-7.9.6-14 9.5-15.7 18.8 17.3-1.4 22-11.8 21.7-15z"/>
    <path d="M81.4 5.8c8.2-.6 11.9 2.7 12.2 6.7.7 8.7-13.7 19.3-32.8 20.8h-.2c-.6 3.1 0 6.2.5 7.4 1.4 3.5 4.9 4.8 8.9 4.8 17.6 0 30.7-19.5 33.5-28.5V2.8c0-1.5-1.2-2.8-2.8-2.8H57.5c-1.5 0-2.7 1.2-2.7 2.8v19.9c7-9 17.6-16.2 26.6-16.9z"/>
  </g>
</svg>
