<?xml version="1.0" standalone="no"?>
<!DOCTYPE svg PUBLIC "-//W3C//DTD SVG 20010904//EN"
 "http://www.w3.org/TR/2001/REC-SVG-20010904/DTD/svg10.dtd">
<svg version="1.0" xmlns="http://www.w3.org/2000/svg"
 width="260.000000pt" height="260.000000pt" viewBox="0 0 260.000000 260.000000"
 preserveAspectRatio="xMidYMid meet">
<metadata>
Created by potrace 1.11, written by Peter Selinger 2001-2013
</metadata>
<g transform="translate(0.000000,260.000000) scale(0.100000,-0.100000)"
fill="#000000" stroke="none">
<path d="M116 2551 c-15 -10 -37 -32 -47 -47 -18 -28 -19 -56 -18 -569 l0
-540 47 55 c365 429 823 729 1222 801 106 19 318 17 400 -5 142 -37 231 -100
280 -199 54 -110 50 -230 -11 -365 -42 -94 -105 -176 -212 -279 -304 -291
-804 -494 -1369 -558 -52 -6 -59 -9 -65 -33 -11 -43 -7 -211 6 -277 55 -260
294 -376 661 -320 324 49 633 218 921 505 244 243 454 546 573 829 l46 109 0
408 c0 384 -1 411 -19 438 -10 15 -32 37 -47 47 -28 18 -69 19 -1184 19 -1115
0 -1156 -1 -1184 -19z"/>
<path d="M1092 1970 c-235 -62 -436 -256 -582 -563 -44 -93 -108 -280 -124
-366 l-6 -34 75 6 c108 10 264 44 379 84 196 68 322 146 456 282 201 203 263
424 152 540 -67 70 -202 90 -350 51z"/>
<path d="M2435 585 c-183 -185 -399 -345 -655 -487 l-115 -63 384 -3 c429 -3
432 -2 478 67 23 33 23 40 23 317 0 156 -1 283 -2 282 -2 -1 -52 -52 -113
-113z"/>
</g>
</svg>
