<svg xmlns="http://www.w3.org/2000/svg" viewBox="0 0 1440 184">
  <path fill="#F5F5F5" d="M1440 96l-80 10.7-4.895.632-13.054 1.697-59.269 7.761-14.222 1.853-18.53 2.4-19.31 2.481-7.929 1.012-16.188 2.053-8.252 1.04-8.351 1.046-8.447 1.053-12.843 1.59-8.67 1.066-13.16 1.604-8.87 1.073-8.942 1.073-9.012 1.075-9.077 1.073-9.139 1.073-9.196 1.07-9.25 1.068-4.644.532-9.323 1.061-9.368 1.056c-3.13.351-6.265.701-9.408 1.05l-9.444 1.043-9.477 1.035-9.506 1.027-9.53 1.017c-6.362.675-12.737 1.343-19.121 2.003l-9.583.983-9.592.97c-4.798.482-9.598.959-14.398 1.43-160 16.3-320 26.3-480 0-131.2-21.894-262.4-68.869-349.49-102.714l-6.294-2.452-3.086-1.208-6.05-2.376-5.882-2.32-5.712-2.263-8.24-3.276-7.832-3.126L0 0v184h1440V96z"/>
</svg>
