<svg xmlns="http://www.w3.org/2000/svg" viewBox="0 0 1440 108">
  <path fill="#F5F5F5" d="M1440 108V94l-97.949-19.584-11.249-2.234-11.932-2.354-9.38-1.837-6.45-1.255-6.604-1.278-6.754-1.3a6071.41 6071.41 0 00-3.432-.658l-6.971-1.33-7.112-1.346-3.607-.68-7.315-1.37-7.445-1.385a5272.34 5272.34 0 00-3.77-.697l-7.634-1.402-3.862-.705-7.814-1.417-7.929-1.424-8.04-1.43c-2.699-.479-5.415-.957-8.148-1.436l-8.252-1.438c-6.918-1.2-13.94-2.4-21.057-3.6l-8.584-1.436C1104 31.64 1032 21.2 960 14 800-2 640-2 480 3.3l-4.8.172-9.598.352-9.592.362-4.793.185-9.576.375-9.561.384-9.542.393-9.518.4-9.492.408-9.461.415-9.427.421-9.388.428-14.002.652-13.894.664-9.196.448-13.685.68-9.045.458-13.44.692-13.276.698-13.1.702-12.908.705-8.494.47-12.563.707-12.339.705-12.101.704-11.85.7-7.755.463-11.404.69-11.12.683-7.247.45-7.112.446-10.403.66-13.358.86-12.744.837-9.136.609-11.594.785-10.896.75-10.166.715L80 24.7 0 30v78h1440z"/>
</svg>
