<svg xmlns="http://www.w3.org/2000/svg" viewBox="0 0 1440 80">
  <path fill="#F5F5F5" d="M1440 0l-80 10.7-38.084 4.935-9.259 1.191-9.617 1.228-6.604.837-6.754.85-6.9.861-7.042.872-7.18.88-3.64.443-7.381.891-7.509.896-7.634.9-7.754.903a4795.135 4795.135 0 01-28.04 3.16l-8.25.898-8.352.892C1120 38.75 1040 45.5 960 48c-77.895 2.434-155.79 1.313-233.684-.513l-12.632-.302-18.947-.47-50.526-1.29-18.948-.472c-2.105-.052-4.21-.103-6.316-.153l-12.631-.298C564.21 43.53 522.106 42.779 480 42.7c-43.2.081-86.4.87-128.025 2.089l-9.224.278-9.168.291-9.108.305c-3.026.103-6.041.209-9.045.317l-8.978.328c-1.49.055-2.978.111-4.462.168l-8.87.344-4.406.176-8.753.358-8.671.368c-2.876.124-5.738.25-8.584.376l-8.494.383c-2.816.129-5.616.259-8.4.39l-8.302.396-8.2.401-8.095.407-7.985.41-3.95.207-7.814.415-7.694.418-3.802.21-7.509.42-3.706.21-7.315.422-7.18.421-10.51.63-6.827.417-9.963.621-9.617.613-6.213.403-9.012.594-5.798.389-8.371.57-10.535.73L80 58.7 0 64v16h1440V0z"/>
</svg>
