<svg xmlns="http://www.w3.org/2000/svg" viewBox="0 0 1440 94">
  <path fill="#F5F5F5" d="M1440 64l-80 5.3-9.979.703-5.268.364-8.239.559-5.712.378-8.886.575-6.132.386-6.293.387-6.451.387c-1.088.065-2.182.129-3.283.193l-6.68.384-6.827.38c-3.45.19-6.954.378-10.51.563l-7.18.368C1184 79.173 1072 81.91 960 74.7c-73.043-4.885-146.087-14.209-219.13-24.423l-10.435-1.465L720 47.338l-15.652-2.226-36.522-5.215-15.652-2.225-10.435-1.475C587.826 28.599 533.913 21.39 480 16 390.4 7.04 300.8 3.098 225.25 1.363l-8.041-.178-3.979-.082-7.872-.154-3.892-.071-7.694-.132-3.802-.06-7.509-.111-7.38-.098-7.248-.087-7.112-.075L153.75.25l-6.827-.055-6.68-.047-6.528-.038-6.372-.031-9.259-.035-8.886-.023-11.25-.016L80 0H0v94h1440V64z"/>
</svg>
