<svg xmlns="http://www.w3.org/2000/svg" viewBox="0 0 69.7 69.8" alt="EdgePoint Learning Logo">
  <g fill="#12529E">
    <path d="M45 69.8h20.7c2.2 0 3.9-1.8 3.9-3.9V51.6C64.8 57 56.6 64.2 45 69.8zm-4.7-48.2c-.3-3.8-2.9-5.9-8.5-5.5-11.4.9-20 13.6-22.5 26.8 24.6-1.9 31.3-16.8 31-21.3z"/>
    <path d="M38.1 8.3c11.8-.9 16.9 3.8 17.4 9.6 1 12.5-19.6 27.5-46.9 29.8h-.2c-.9 4.4 0 8.8.7 10.5 2 5 7.1 6.9 12.8 6.9 25.2 0 43.8-27.9 47.8-40.7V3.9c0-2.2-1.8-3.9-3.9-3.9H3.9C1.8 0 0 1.8 0 3.9v28.4c10.1-12.8 25.3-23 38.1-24z"/>
  </g>
</svg>
