<svg xmlns="http://www.w3.org/2000/svg" viewBox="0 0 65 64">
  <path fill="#55ACEE" fill-rule="evenodd" d="M45.434 26.975c.012.3.02.607.02.912C45.455 37.23 38.345 48 25.34 48c-3.994 0-7.71-1.172-10.838-3.175a14.2 14.2 0 0 0 10.468-2.928 7.075 7.075 0 0 1-6.604-4.906 7.248 7.248 0 0 0 3.192-.12 7.075 7.075 0 0 1-5.673-6.932v-.09c.955.53 2.047.848 3.205.883a7.052 7.052 0 0 1-3.144-5.884c0-1.29.347-2.506.955-3.553a20.073 20.073 0 0 0 14.573 7.387 7.071 7.071 0 0 1 6.887-8.68c2.033 0 3.87.858 5.16 2.233a14.107 14.107 0 0 0 4.49-1.715 7.095 7.095 0 0 1-3.11 3.91 14.05 14.05 0 0 0 4.06-1.115 14.23 14.23 0 0 1-3.526 3.662M31.5 6c-14.887 0-27 12.113-27 27 0 14.888 12.113 27 27 27 14.888 0 27-12.112 27-27 0-14.887-12.112-27-27-27"/>
</svg>
