<svg xmlns="http://www.w3.org/2000/svg" viewBox="0 0 65 64">
  <path fill="#1AB7EA" fill-rule="evenodd" d="M47.884 28.657l-.09.285c-.516 1.572-1.647 3.857-2.952 5.965-1.437 2.325-3.63 5.365-5.518 7.644-3.69 4.46-6.86 6.886-9.653 7.382-.52.094-1.298.087-1.69-.012-1.73-.438-3.167-2.202-4.414-5.427-.105-.273-.628-2.182-1.627-5.93-.812-3.04-1.536-5.748-1.612-6.014-.505-1.768-1.163-3.384-1.74-4.264-.442-.675-.996-1.114-1.468-1.16-.19-.024-.22-.015-.517.135-.308.16-1.203.74-1.965 1.278-.212.15-.41.285-.43.3-.027.014-.33-.36-.843-1.037-.445-.58-.828-1.082-.854-1.114-.04-.05.023-.12.567-.613.91-.82 2.755-2.508 3.684-3.37 1.673-1.55 2.643-2.346 3.762-3.087 1.197-.793 1.954-1.094 2.842-1.134 2.235-.1 3.72 1.25 4.524 4.12.19.686.28 1.143.57 3.007.766 4.86 1.09 6.61 1.594 8.635.6 2.408 1.267 3.812 1.977 4.164.19.093.25.11.42.093.78-.06 1.89-1.283 3.415-3.758 1.255-2.042 2.016-3.686 2.285-4.944.066-.314.078-.472.08-1.116 0-.625-.008-.792-.062-.98-.178-.64-.508-1.068-1.027-1.326-.42-.206-.7-.258-1.368-.258-.782 0-1.47.13-2.25.425-.218.083-.354.12-.36.095-.005-.02.077-.294.18-.604.628-1.866 1.365-3.307 2.328-4.557a12.06 12.06 0 0 1 1.448-1.505 9.157 9.157 0 0 1 2.39-1.38c1.75-.65 4.143-.813 5.64-.265 5.29 1.944 2.736 10.327 2.736 10.327M31.5 6c-14.91 0-27 12.09-27 27s12.09 27 27 27c14.912 0 27-12.09 27-27S46.412 6 31.5 6"/>
</svg>
